<?xml version="1.0" encoding="utf-8"?>
<svg xmlns="http://www.w3.org/2000/svg" xmlns:xlink="http://www.w3.org/1999/xlink" width="600" height="400" viewBox="0 0 2400 1600">
<defs>
  <clipPath id="clip700">
    <rect x="0" y="0" width="2400" height="1600"/>
  </clipPath>
</defs>
<path clip-path="url(#clip700)" d="
M0 1600 L2400 1600 L2400 0 L0 0  Z
  " fill="#ffffff" fill-rule="evenodd" fill-opacity="1"/>
<defs>
  <clipPath id="clip701">
    <rect x="480" y="0" width="1681" height="1600"/>
  </clipPath>
</defs>
<path clip-path="url(#clip700)" d="
M488.943 1392.94 L2352.76 1392.94 L2352.76 47.2441 L488.943 47.2441  Z
  " fill="#ffffff" fill-rule="evenodd" fill-opacity="1"/>
<defs>
  <clipPath id="clip702">
    <rect x="488" y="47" width="1865" height="1347"/>
  </clipPath>
</defs>
<polyline clip-path="url(#clip702)" style="stroke:#000000; stroke-linecap:butt; stroke-linejoin:round; stroke-width:2; stroke-opacity:0.1; fill:none" points="
  488.943,1392.94 488.943,47.2441 
  "/>
<polyline clip-path="url(#clip702)" style="stroke:#000000; stroke-linecap:butt; stroke-linejoin:round; stroke-width:2; stroke-opacity:0.1; fill:none" points="
  912.537,1392.94 912.537,47.2441 
  "/>
<polyline clip-path="url(#clip702)" style="stroke:#000000; stroke-linecap:butt; stroke-linejoin:round; stroke-width:2; stroke-opacity:0.1; fill:none" points="
  1336.13,1392.94 1336.13,47.2441 
  "/>
<polyline clip-path="url(#clip702)" style="stroke:#000000; stroke-linecap:butt; stroke-linejoin:round; stroke-width:2; stroke-opacity:0.1; fill:none" points="
  1759.72,1392.94 1759.72,47.2441 
  "/>
<polyline clip-path="url(#clip702)" style="stroke:#000000; stroke-linecap:butt; stroke-linejoin:round; stroke-width:2; stroke-opacity:0.1; fill:none" points="
  2183.32,1392.94 2183.32,47.2441 
  "/>
<polyline clip-path="url(#clip700)" style="stroke:#000000; stroke-linecap:butt; stroke-linejoin:round; stroke-width:4; stroke-opacity:1; fill:none" points="
  488.943,1392.94 2352.76,1392.94 
  "/>
<polyline clip-path="url(#clip700)" style="stroke:#000000; stroke-linecap:butt; stroke-linejoin:round; stroke-width:4; stroke-opacity:1; fill:none" points="
  488.943,1392.94 488.943,1374.04 
  "/>
<polyline clip-path="url(#clip700)" style="stroke:#000000; stroke-linecap:butt; stroke-linejoin:round; stroke-width:4; stroke-opacity:1; fill:none" points="
  912.537,1392.94 912.537,1374.04 
  "/>
<polyline clip-path="url(#clip700)" style="stroke:#000000; stroke-linecap:butt; stroke-linejoin:round; stroke-width:4; stroke-opacity:1; fill:none" points="
  1336.13,1392.94 1336.13,1374.04 
  "/>
<polyline clip-path="url(#clip700)" style="stroke:#000000; stroke-linecap:butt; stroke-linejoin:round; stroke-width:4; stroke-opacity:1; fill:none" points="
  1759.72,1392.94 1759.72,1374.04 
  "/>
<polyline clip-path="url(#clip700)" style="stroke:#000000; stroke-linecap:butt; stroke-linejoin:round; stroke-width:4; stroke-opacity:1; fill:none" points="
  2183.32,1392.94 2183.32,1374.04 
  "/>
<path clip-path="url(#clip700)" d="M488.943 1429.72 Q483.527 1429.72 480.784 1435.07 Q478.075 1440.38 478.075 1451.07 Q478.075 1461.73 480.784 1467.08 Q483.527 1472.39 488.943 1472.39 Q494.395 1472.39 497.103 1467.08 Q499.846 1461.73 499.846 1451.07 Q499.846 1440.38 497.103 1435.07 Q494.395 1429.72 488.943 1429.72 M488.943 1424.16 Q497.658 1424.16 502.242 1431.07 Q506.86 1437.95 506.86 1451.07 Q506.86 1464.16 502.242 1471.07 Q497.658 1477.95 488.943 1477.95 Q480.228 1477.95 475.61 1471.07 Q471.027 1464.16 471.027 1451.07 Q471.027 1437.95 475.61 1431.07 Q480.228 1424.16 488.943 1424.16 Z" fill="#000000" fill-rule="evenodd" fill-opacity="1" /><path clip-path="url(#clip700)" d="M858.076 1471.04 L882.555 1471.04 L882.555 1476.94 L849.638 1476.94 L849.638 1471.04 Q853.631 1466.91 860.506 1459.96 Q867.416 1452.98 869.187 1450.97 Q872.555 1447.18 873.874 1444.58 Q875.228 1441.94 875.228 1439.41 Q875.228 1435.27 872.312 1432.67 Q869.43 1430.07 864.777 1430.07 Q861.478 1430.07 857.798 1431.21 Q854.152 1432.36 849.985 1434.68 L849.985 1427.6 Q854.221 1425.9 857.902 1425.03 Q861.582 1424.16 864.638 1424.16 Q872.693 1424.16 877.485 1428.19 Q882.277 1432.22 882.277 1438.95 Q882.277 1442.15 881.062 1445.03 Q879.881 1447.88 876.721 1451.77 Q875.853 1452.77 871.2 1457.6 Q866.548 1462.39 858.076 1471.04 Z" fill="#000000" fill-rule="evenodd" fill-opacity="1" /><path clip-path="url(#clip700)" d="M897.346 1425.1 L924.881 1425.1 L924.881 1431 L903.77 1431 L903.77 1443.71 Q905.297 1443.19 906.825 1442.95 Q908.353 1442.67 909.881 1442.67 Q918.561 1442.67 923.631 1447.43 Q928.7 1452.18 928.7 1460.31 Q928.7 1468.68 923.492 1473.33 Q918.284 1477.95 908.804 1477.95 Q905.541 1477.95 902.138 1477.39 Q898.77 1476.84 895.159 1475.72 L895.159 1468.68 Q898.284 1470.38 901.617 1471.21 Q904.95 1472.04 908.666 1472.04 Q914.672 1472.04 918.179 1468.88 Q921.686 1465.72 921.686 1460.31 Q921.686 1454.89 918.179 1451.73 Q914.672 1448.57 908.666 1448.57 Q905.853 1448.57 903.041 1449.2 Q900.263 1449.82 897.346 1451.14 L897.346 1425.1 Z" fill="#000000" fill-rule="evenodd" fill-opacity="1" /><path clip-path="url(#clip700)" d="M957.519 1429.72 Q952.103 1429.72 949.36 1435.07 Q946.651 1440.38 946.651 1451.07 Q946.651 1461.73 949.36 1467.08 Q952.103 1472.39 957.519 1472.39 Q962.971 1472.39 965.679 1467.08 Q968.422 1461.73 968.422 1451.07 Q968.422 1440.38 965.679 1435.07 Q962.971 1429.72 957.519 1429.72 M957.519 1424.16 Q966.235 1424.16 970.818 1431.07 Q975.436 1437.95 975.436 1451.07 Q975.436 1464.16 970.818 1471.07 Q966.235 1477.95 957.519 1477.95 Q948.804 1477.95 944.186 1471.07 Q939.603 1464.16 939.603 1451.07 Q939.603 1437.95 944.186 1431.07 Q948.804 1424.16 957.519 1424.16 Z" fill="#000000" fill-rule="evenodd" fill-opacity="1" /><path clip-path="url(#clip700)" d="M1275.56 1425.1 L1303.09 1425.1 L1303.09 1431 L1281.98 1431 L1281.98 1443.71 Q1283.51 1443.19 1285.04 1442.95 Q1286.57 1442.67 1288.09 1442.67 Q1296.77 1442.67 1301.84 1447.43 Q1306.91 1452.18 1306.91 1460.31 Q1306.91 1468.68 1301.7 1473.33 Q1296.5 1477.95 1287.02 1477.95 Q1283.75 1477.95 1280.35 1477.39 Q1276.98 1476.84 1273.37 1475.72 L1273.37 1468.68 Q1276.5 1470.38 1279.83 1471.21 Q1283.16 1472.04 1286.88 1472.04 Q1292.88 1472.04 1296.39 1468.88 Q1299.9 1465.72 1299.9 1460.31 Q1299.9 1454.89 1296.39 1451.73 Q1292.88 1448.57 1286.88 1448.57 Q1284.07 1448.57 1281.25 1449.2 Q1278.47 1449.82 1275.56 1451.14 L1275.56 1425.1 Z" fill="#000000" fill-rule="evenodd" fill-opacity="1" /><path clip-path="url(#clip700)" d="M1335.73 1429.72 Q1330.31 1429.72 1327.57 1435.07 Q1324.86 1440.38 1324.86 1451.07 Q1324.86 1461.73 1327.57 1467.08 Q1330.31 1472.39 1335.73 1472.39 Q1341.18 1472.39 1343.89 1467.08 Q1346.63 1461.73 1346.63 1451.07 Q1346.63 1440.38 1343.89 1435.07 Q1341.18 1429.72 1335.73 1429.72 M1335.73 1424.16 Q1344.45 1424.16 1349.03 1431.07 Q1353.65 1437.95 1353.65 1451.07 Q1353.65 1464.16 1349.03 1471.07 Q1344.45 1477.95 1335.73 1477.95 Q1327.02 1477.95 1322.4 1471.07 Q1317.81 1464.16 1317.81 1451.07 Q1317.81 1437.95 1322.4 1431.07 Q1327.02 1424.16 1335.73 1424.16 Z" fill="#000000" fill-rule="evenodd" fill-opacity="1" /><path clip-path="url(#clip700)" d="M1380.97 1429.72 Q1375.56 1429.72 1372.81 1435.07 Q1370.11 1440.38 1370.11 1451.07 Q1370.11 1461.73 1372.81 1467.08 Q1375.56 1472.39 1380.97 1472.39 Q1386.43 1472.39 1389.13 1467.08 Q1391.88 1461.73 1391.88 1451.07 Q1391.88 1440.38 1389.13 1435.07 Q1386.43 1429.72 1380.97 1429.72 M1380.97 1424.16 Q1389.69 1424.16 1394.27 1431.07 Q1398.89 1437.95 1398.89 1451.07 Q1398.89 1464.16 1394.27 1471.07 Q1389.69 1477.95 1380.97 1477.95 Q1372.26 1477.95 1367.64 1471.07 Q1363.06 1464.16 1363.06 1451.07 Q1363.06 1437.95 1367.64 1431.07 Q1372.26 1424.16 1380.97 1424.16 Z" fill="#000000" fill-rule="evenodd" fill-opacity="1" /><path clip-path="url(#clip700)" d="M1697.14 1425.1 L1730.47 1425.1 L1730.47 1428.09 L1711.65 1476.94 L1704.33 1476.94 L1722.03 1431 L1697.14 1431 L1697.14 1425.1 Z" fill="#000000" fill-rule="evenodd" fill-opacity="1" /><path clip-path="url(#clip700)" d="M1744.22 1425.1 L1771.76 1425.1 L1771.76 1431 L1750.64 1431 L1750.64 1443.71 Q1752.17 1443.19 1753.7 1442.95 Q1755.23 1442.67 1756.76 1442.67 Q1765.44 1442.67 1770.51 1447.43 Q1775.58 1452.18 1775.58 1460.31 Q1775.58 1468.68 1770.37 1473.33 Q1765.16 1477.95 1755.68 1477.95 Q1752.42 1477.95 1749.01 1477.39 Q1745.64 1476.84 1742.03 1475.72 L1742.03 1468.68 Q1745.16 1470.38 1748.49 1471.21 Q1751.83 1472.04 1755.54 1472.04 Q1761.55 1472.04 1765.05 1468.88 Q1768.56 1465.72 1768.56 1460.31 Q1768.56 1454.89 1765.05 1451.73 Q1761.55 1448.57 1755.54 1448.57 Q1752.73 1448.57 1749.92 1449.2 Q1747.14 1449.82 1744.22 1451.14 L1744.22 1425.1 Z" fill="#000000" fill-rule="evenodd" fill-opacity="1" /><path clip-path="url(#clip700)" d="M1804.39 1429.72 Q1798.98 1429.72 1796.23 1435.07 Q1793.53 1440.38 1793.53 1451.07 Q1793.53 1461.73 1796.23 1467.08 Q1798.98 1472.39 1804.39 1472.39 Q1809.85 1472.39 1812.55 1467.08 Q1815.3 1461.73 1815.3 1451.07 Q1815.3 1440.38 1812.55 1435.07 Q1809.85 1429.72 1804.39 1429.72 M1804.39 1424.16 Q1813.11 1424.16 1817.69 1431.07 Q1822.31 1437.95 1822.31 1451.07 Q1822.31 1464.16 1817.69 1471.07 Q1813.11 1477.95 1804.39 1477.95 Q1795.68 1477.95 1791.06 1471.07 Q1786.48 1464.16 1786.48 1451.07 Q1786.48 1437.95 1791.06 1431.07 Q1795.68 1424.16 1804.39 1424.16 Z" fill="#000000" fill-rule="evenodd" fill-opacity="1" /><path clip-path="url(#clip700)" d="M2100.11 1471.04 L2111.57 1471.04 L2111.57 1431.49 L2099.1 1433.99 L2099.1 1427.6 L2111.5 1425.1 L2118.51 1425.1 L2118.51 1471.04 L2129.97 1471.04 L2129.97 1476.94 L2100.11 1476.94 L2100.11 1471.04 Z" fill="#000000" fill-rule="evenodd" fill-opacity="1" /><path clip-path="url(#clip700)" d="M2159.13 1429.72 Q2153.72 1429.72 2150.97 1435.07 Q2148.27 1440.38 2148.27 1451.07 Q2148.27 1461.73 2150.97 1467.08 Q2153.72 1472.39 2159.13 1472.39 Q2164.59 1472.39 2167.29 1467.08 Q2170.04 1461.73 2170.04 1451.07 Q2170.04 1440.38 2167.29 1435.07 Q2164.59 1429.72 2159.13 1429.72 M2159.13 1424.16 Q2167.85 1424.16 2172.43 1431.07 Q2177.05 1437.95 2177.05 1451.07 Q2177.05 1464.16 2172.43 1471.07 Q2167.85 1477.95 2159.13 1477.95 Q2150.42 1477.95 2145.8 1471.07 Q2141.22 1464.16 2141.22 1451.07 Q2141.22 1437.95 2145.8 1431.07 Q2150.42 1424.16 2159.13 1424.16 Z" fill="#000000" fill-rule="evenodd" fill-opacity="1" /><path clip-path="url(#clip700)" d="M2204.38 1429.72 Q2198.96 1429.72 2196.22 1435.07 Q2193.51 1440.38 2193.51 1451.07 Q2193.51 1461.73 2196.22 1467.08 Q2198.96 1472.39 2204.38 1472.39 Q2209.83 1472.39 2212.54 1467.08 Q2215.28 1461.73 2215.28 1451.07 Q2215.28 1440.38 2212.54 1435.07 Q2209.83 1429.72 2204.38 1429.72 M2204.38 1424.16 Q2213.09 1424.16 2217.68 1431.07 Q2222.29 1437.95 2222.29 1451.07 Q2222.29 1464.16 2217.68 1471.07 Q2213.09 1477.95 2204.38 1477.95 Q2195.66 1477.95 2191.04 1471.07 Q2186.46 1464.16 2186.46 1451.07 Q2186.46 1437.95 2191.04 1431.07 Q2195.66 1424.16 2204.38 1424.16 Z" fill="#000000" fill-rule="evenodd" fill-opacity="1" /><path clip-path="url(#clip700)" d="M2249.62 1429.72 Q2244.2 1429.72 2241.46 1435.07 Q2238.75 1440.38 2238.75 1451.07 Q2238.75 1461.73 2241.46 1467.08 Q2244.2 1472.39 2249.62 1472.39 Q2255.07 1472.39 2257.78 1467.08 Q2260.52 1461.73 2260.52 1451.07 Q2260.52 1440.38 2257.78 1435.07 Q2255.07 1429.72 2249.62 1429.72 M2249.62 1424.16 Q2258.34 1424.16 2262.92 1431.07 Q2267.54 1437.95 2267.54 1451.07 Q2267.54 1464.16 2262.92 1471.07 Q2258.34 1477.95 2249.62 1477.95 Q2240.9 1477.95 2236.29 1471.07 Q2231.7 1464.16 2231.7 1451.07 Q2231.7 1437.95 2236.29 1431.07 Q2240.9 1424.16 2249.62 1424.16 Z" fill="#000000" fill-rule="evenodd" fill-opacity="1" /><path clip-path="url(#clip700)" d="M1232.99 1518.8 L1284.15 1518.8 L1284.15 1525.68 L1262.68 1525.68 L1262.68 1579.28 L1254.46 1579.28 L1254.46 1525.68 L1232.99 1525.68 L1232.99 1518.8 Z" fill="#000000" fill-rule="evenodd" fill-opacity="1" /><path clip-path="url(#clip700)" d="M1289.17 1533.91 L1296.63 1533.91 L1296.63 1579.28 L1289.17 1579.28 L1289.17 1533.91 M1289.17 1516.24 L1296.63 1516.24 L1296.63 1525.68 L1289.17 1525.68 L1289.17 1516.24 Z" fill="#000000" fill-rule="evenodd" fill-opacity="1" /><path clip-path="url(#clip700)" d="M1347.55 1542.62 Q1350.34 1537.59 1354.23 1535.2 Q1358.12 1532.81 1363.39 1532.81 Q1370.48 1532.81 1374.32 1537.79 Q1378.17 1542.74 1378.17 1551.89 L1378.17 1579.28 L1370.68 1579.28 L1370.68 1552.13 Q1370.68 1545.61 1368.37 1542.45 Q1366.06 1539.29 1361.32 1539.29 Q1355.53 1539.29 1352.17 1543.14 Q1348.8 1546.99 1348.8 1553.63 L1348.8 1579.28 L1341.31 1579.28 L1341.31 1552.13 Q1341.31 1545.57 1339 1542.45 Q1336.69 1539.29 1331.87 1539.29 Q1326.16 1539.29 1322.8 1543.18 Q1319.44 1547.03 1319.44 1553.63 L1319.44 1579.28 L1311.94 1579.28 L1311.94 1533.91 L1319.44 1533.91 L1319.44 1540.95 Q1321.99 1536.78 1325.55 1534.8 Q1329.12 1532.81 1334.02 1532.81 Q1338.96 1532.81 1342.4 1535.32 Q1345.89 1537.84 1347.55 1542.62 Z" fill="#000000" fill-rule="evenodd" fill-opacity="1" /><path clip-path="url(#clip700)" d="M1431.85 1554.73 L1431.85 1558.37 L1397.58 1558.37 Q1398.06 1566.07 1402.2 1570.12 Q1406.37 1574.13 1413.78 1574.13 Q1418.07 1574.13 1422.09 1573.08 Q1426.14 1572.02 1430.11 1569.92 L1430.11 1576.97 Q1426.1 1578.67 1421.88 1579.56 Q1417.67 1580.45 1413.34 1580.45 Q1402.48 1580.45 1396.12 1574.13 Q1389.8 1567.81 1389.8 1557.04 Q1389.8 1545.9 1395.79 1539.37 Q1401.83 1532.81 1412.04 1532.81 Q1421.19 1532.81 1426.5 1538.73 Q1431.85 1544.6 1431.85 1554.73 M1424.39 1552.54 Q1424.31 1546.42 1420.95 1542.78 Q1417.63 1539.13 1412.12 1539.13 Q1405.88 1539.13 1402.11 1542.66 Q1398.39 1546.18 1397.82 1552.58 L1424.39 1552.54 Z" fill="#000000" fill-rule="evenodd" fill-opacity="1" /><path clip-path="url(#clip700)" d="M1483.7 1518.8 L1490.59 1518.8 L1469.52 1586.97 L1462.63 1586.97 L1483.7 1518.8 Z" fill="#000000" fill-rule="evenodd" fill-opacity="1" /><path clip-path="url(#clip700)" d="M1562.49 1551.89 L1562.49 1579.28 L1555.04 1579.28 L1555.04 1552.13 Q1555.04 1545.69 1552.52 1542.49 Q1550.01 1539.29 1544.99 1539.29 Q1538.95 1539.29 1535.47 1543.14 Q1531.99 1546.99 1531.99 1553.63 L1531.99 1579.28 L1524.49 1579.28 L1524.49 1533.91 L1531.99 1533.91 L1531.99 1540.95 Q1534.66 1536.86 1538.27 1534.84 Q1541.91 1532.81 1546.65 1532.81 Q1554.47 1532.81 1558.48 1537.67 Q1562.49 1542.49 1562.49 1551.89 Z" fill="#000000" fill-rule="evenodd" fill-opacity="1" /><path clip-path="url(#clip700)" d="M1606.28 1535.24 L1606.28 1542.29 Q1603.12 1540.67 1599.72 1539.86 Q1596.31 1539.05 1592.67 1539.05 Q1587.12 1539.05 1584.32 1540.75 Q1581.57 1542.45 1581.57 1545.86 Q1581.57 1548.45 1583.55 1549.95 Q1585.54 1551.41 1591.53 1552.74 L1594.09 1553.31 Q1602.03 1555.01 1605.35 1558.13 Q1608.71 1561.21 1608.71 1566.76 Q1608.71 1573.08 1603.69 1576.76 Q1598.7 1580.45 1589.95 1580.45 Q1586.31 1580.45 1582.34 1579.72 Q1578.41 1579.03 1574.03 1577.61 L1574.03 1569.92 Q1578.17 1572.07 1582.18 1573.16 Q1586.19 1574.21 1590.12 1574.21 Q1595.38 1574.21 1598.22 1572.43 Q1601.05 1570.61 1601.05 1567.33 Q1601.05 1564.29 1598.99 1562.67 Q1596.96 1561.05 1590.04 1559.55 L1587.44 1558.94 Q1580.52 1557.48 1577.44 1554.48 Q1574.36 1551.45 1574.36 1546.18 Q1574.36 1539.78 1578.9 1536.3 Q1583.43 1532.81 1591.78 1532.81 Q1595.91 1532.81 1599.56 1533.42 Q1603.2 1534.03 1606.28 1535.24 Z" fill="#000000" fill-rule="evenodd" fill-opacity="1" /><polyline clip-path="url(#clip702)" style="stroke:#000000; stroke-linecap:butt; stroke-linejoin:round; stroke-width:2; stroke-opacity:0.1; fill:none" points="
  488.943,1354.85 2352.76,1354.85 
  "/>
<polyline clip-path="url(#clip702)" style="stroke:#000000; stroke-linecap:butt; stroke-linejoin:round; stroke-width:2; stroke-opacity:0.1; fill:none" points="
  488.943,1049.68 2352.76,1049.68 
  "/>
<polyline clip-path="url(#clip702)" style="stroke:#000000; stroke-linecap:butt; stroke-linejoin:round; stroke-width:2; stroke-opacity:0.1; fill:none" points="
  488.943,744.508 2352.76,744.508 
  "/>
<polyline clip-path="url(#clip702)" style="stroke:#000000; stroke-linecap:butt; stroke-linejoin:round; stroke-width:2; stroke-opacity:0.1; fill:none" points="
  488.943,439.335 2352.76,439.335 
  "/>
<polyline clip-path="url(#clip702)" style="stroke:#000000; stroke-linecap:butt; stroke-linejoin:round; stroke-width:2; stroke-opacity:0.1; fill:none" points="
  488.943,134.162 2352.76,134.162 
  "/>
<polyline clip-path="url(#clip700)" style="stroke:#000000; stroke-linecap:butt; stroke-linejoin:round; stroke-width:4; stroke-opacity:1; fill:none" points="
  488.943,1392.94 488.943,47.2441 
  "/>
<polyline clip-path="url(#clip700)" style="stroke:#000000; stroke-linecap:butt; stroke-linejoin:round; stroke-width:4; stroke-opacity:1; fill:none" points="
  488.943,1354.85 507.841,1354.85 
  "/>
<polyline clip-path="url(#clip700)" style="stroke:#000000; stroke-linecap:butt; stroke-linejoin:round; stroke-width:4; stroke-opacity:1; fill:none" points="
  488.943,1049.68 507.841,1049.68 
  "/>
<polyline clip-path="url(#clip700)" style="stroke:#000000; stroke-linecap:butt; stroke-linejoin:round; stroke-width:4; stroke-opacity:1; fill:none" points="
  488.943,744.508 507.841,744.508 
  "/>
<polyline clip-path="url(#clip700)" style="stroke:#000000; stroke-linecap:butt; stroke-linejoin:round; stroke-width:4; stroke-opacity:1; fill:none" points="
  488.943,439.335 507.841,439.335 
  "/>
<polyline clip-path="url(#clip700)" style="stroke:#000000; stroke-linecap:butt; stroke-linejoin:round; stroke-width:4; stroke-opacity:1; fill:none" points="
  488.943,134.162 507.841,134.162 
  "/>
<path clip-path="url(#clip700)" d="M435.027 1333.55 Q429.61 1333.55 426.867 1338.9 Q424.159 1344.21 424.159 1354.91 Q424.159 1365.57 426.867 1370.91 Q429.61 1376.23 435.027 1376.23 Q440.478 1376.23 443.186 1370.91 Q445.929 1365.57 445.929 1354.91 Q445.929 1344.21 443.186 1338.9 Q440.478 1333.55 435.027 1333.55 M435.027 1328 Q443.742 1328 448.325 1334.91 Q452.943 1341.78 452.943 1354.91 Q452.943 1368 448.325 1374.91 Q443.742 1381.78 435.027 1381.78 Q426.311 1381.78 421.693 1374.91 Q417.11 1368 417.11 1354.91 Q417.11 1341.78 421.693 1334.91 Q426.311 1328 435.027 1328 Z" fill="#000000" fill-rule="evenodd" fill-opacity="1" /><path clip-path="url(#clip700)" d="M135.658 1079.37 L160.137 1079.37 L160.137 1085.27 L127.22 1085.27 L127.22 1079.37 Q131.213 1075.24 138.088 1068.29 Q144.998 1061.31 146.769 1059.3 Q150.137 1055.52 151.456 1052.91 Q152.81 1050.27 152.81 1047.74 Q152.81 1043.61 149.894 1041 Q147.012 1038.4 142.359 1038.4 Q139.06 1038.4 135.38 1039.54 Q131.734 1040.69 127.567 1043.02 L127.567 1035.93 Q131.803 1034.23 135.484 1033.36 Q139.165 1032.5 142.22 1032.5 Q150.276 1032.5 155.067 1036.52 Q159.859 1040.55 159.859 1047.29 Q159.859 1050.48 158.644 1053.36 Q157.463 1056.21 154.303 1060.1 Q153.435 1061.11 148.783 1065.93 Q144.13 1070.72 135.658 1079.37 Z" fill="#000000" fill-rule="evenodd" fill-opacity="1" /><path clip-path="url(#clip700)" d="M174.859 1076.45 L182.185 1076.45 L182.185 1085.27 L174.859 1085.27 L174.859 1076.45 Z" fill="#000000" fill-rule="evenodd" fill-opacity="1" /><path clip-path="url(#clip700)" d="M197.532 1033.43 L225.067 1033.43 L225.067 1039.34 L203.956 1039.34 L203.956 1052.04 Q205.484 1051.52 207.011 1051.28 Q208.539 1051 210.067 1051 Q218.747 1051 223.817 1055.76 Q228.886 1060.52 228.886 1068.64 Q228.886 1077.01 223.678 1081.66 Q218.47 1086.28 208.991 1086.28 Q205.727 1086.28 202.324 1085.72 Q198.956 1085.17 195.345 1084.06 L195.345 1077.01 Q198.47 1078.71 201.803 1079.54 Q205.136 1080.38 208.852 1080.38 Q214.859 1080.38 218.366 1077.22 Q221.872 1074.06 221.872 1068.64 Q221.872 1063.22 218.366 1060.06 Q214.859 1056.9 208.852 1056.9 Q206.039 1056.9 203.227 1057.53 Q200.449 1058.15 197.532 1059.47 L197.532 1033.43 Z" fill="#000000" fill-rule="evenodd" fill-opacity="1" /><path clip-path="url(#clip700)" d="M257.706 1038.05 Q252.289 1038.05 249.546 1043.4 Q246.838 1048.71 246.838 1059.4 Q246.838 1070.06 249.546 1075.41 Q252.289 1080.72 257.706 1080.72 Q263.157 1080.72 265.865 1075.41 Q268.608 1070.06 268.608 1059.4 Q268.608 1048.71 265.865 1043.4 Q263.157 1038.05 257.706 1038.05 M257.706 1032.5 Q266.421 1032.5 271.004 1039.4 Q275.622 1046.28 275.622 1059.4 Q275.622 1072.49 271.004 1079.4 Q266.421 1086.28 257.706 1086.28 Q248.99 1086.28 244.372 1079.4 Q239.789 1072.49 239.789 1059.4 Q239.789 1046.28 244.372 1039.4 Q248.99 1032.5 257.706 1032.5 Z" fill="#000000" fill-rule="evenodd" fill-opacity="1" /><path clip-path="url(#clip700)" d="M330.205 1047.08 L314.337 1063.02 L330.205 1078.88 L326.073 1083.09 L310.136 1067.15 L294.198 1083.09 L290.101 1078.88 L305.934 1063.02 L290.101 1047.08 L294.198 1042.88 L310.136 1058.81 L326.073 1042.88 L330.205 1047.08 Z" fill="#000000" fill-rule="evenodd" fill-opacity="1" /><path clip-path="url(#clip700)" d="M348.747 1079.37 L360.205 1079.37 L360.205 1039.82 L347.74 1042.32 L347.74 1035.93 L360.136 1033.43 L367.149 1033.43 L367.149 1079.37 L378.608 1079.37 L378.608 1085.27 L348.747 1085.27 L348.747 1079.37 Z" fill="#000000" fill-rule="evenodd" fill-opacity="1" /><path clip-path="url(#clip700)" d="M407.774 1038.05 Q402.358 1038.05 399.615 1043.4 Q396.906 1048.71 396.906 1059.4 Q396.906 1070.06 399.615 1075.41 Q402.358 1080.72 407.774 1080.72 Q413.226 1080.72 415.934 1075.41 Q418.677 1070.06 418.677 1059.4 Q418.677 1048.71 415.934 1043.4 Q413.226 1038.05 407.774 1038.05 M407.774 1032.5 Q416.489 1032.5 421.073 1039.4 Q425.691 1046.28 425.691 1059.4 Q425.691 1072.49 421.073 1079.4 Q416.489 1086.28 407.774 1086.28 Q399.059 1086.28 394.441 1079.4 Q389.858 1072.49 389.858 1059.4 Q389.858 1046.28 394.441 1039.4 Q399.059 1032.5 407.774 1032.5 Z" fill="#000000" fill-rule="evenodd" fill-opacity="1" /><path clip-path="url(#clip700)" d="M427.468 1002.04 L449.84 1002.04 L449.84 1006.83 L432.687 1006.83 L432.687 1017.16 Q433.929 1016.74 435.17 1016.54 Q436.411 1016.31 437.653 1016.31 Q444.705 1016.31 448.824 1020.18 Q452.943 1024.04 452.943 1030.64 Q452.943 1037.44 448.711 1041.22 Q444.48 1044.98 436.778 1044.98 Q434.126 1044.98 431.361 1044.52 Q428.625 1044.07 425.691 1043.17 L425.691 1037.44 Q428.23 1038.82 430.938 1039.5 Q433.646 1040.18 436.665 1040.18 Q441.546 1040.18 444.395 1037.61 Q447.244 1035.04 447.244 1030.64 Q447.244 1026.24 444.395 1023.68 Q441.546 1021.11 436.665 1021.11 Q434.38 1021.11 432.095 1021.62 Q429.838 1022.12 427.468 1023.2 L427.468 1002.04 Z" fill="#000000" fill-rule="evenodd" fill-opacity="1" /><path clip-path="url(#clip700)" d="M129.685 728.26 L157.22 728.26 L157.22 734.162 L136.109 734.162 L136.109 746.871 Q137.637 746.35 139.165 746.107 Q140.692 745.829 142.22 745.829 Q150.901 745.829 155.97 750.586 Q161.039 755.343 161.039 763.468 Q161.039 771.836 155.831 776.488 Q150.623 781.107 141.144 781.107 Q137.88 781.107 134.477 780.551 Q131.109 779.995 127.498 778.884 L127.498 771.836 Q130.623 773.537 133.956 774.37 Q137.29 775.204 141.005 775.204 Q147.012 775.204 150.519 772.044 Q154.026 768.884 154.026 763.468 Q154.026 758.051 150.519 754.891 Q147.012 751.732 141.005 751.732 Q138.192 751.732 135.38 752.357 Q132.602 752.982 129.685 754.301 L129.685 728.26 Z" fill="#000000" fill-rule="evenodd" fill-opacity="1" /><path clip-path="url(#clip700)" d="M174.859 771.28 L182.185 771.28 L182.185 780.1 L174.859 780.1 L174.859 771.28 Z" fill="#000000" fill-rule="evenodd" fill-opacity="1" /><path clip-path="url(#clip700)" d="M212.463 732.878 Q207.046 732.878 204.303 738.225 Q201.595 743.537 201.595 754.232 Q201.595 764.891 204.303 770.239 Q207.046 775.551 212.463 775.551 Q217.914 775.551 220.622 770.239 Q223.365 764.891 223.365 754.232 Q223.365 743.537 220.622 738.225 Q217.914 732.878 212.463 732.878 M212.463 727.322 Q221.178 727.322 225.761 734.232 Q230.379 741.107 230.379 754.232 Q230.379 767.322 225.761 774.232 Q221.178 781.107 212.463 781.107 Q203.748 781.107 199.129 774.232 Q194.546 767.322 194.546 754.232 Q194.546 741.107 199.129 734.232 Q203.748 727.322 212.463 727.322 Z" fill="#000000" fill-rule="evenodd" fill-opacity="1" /><path clip-path="url(#clip700)" d="M257.706 732.878 Q252.289 732.878 249.546 738.225 Q246.838 743.537 246.838 754.232 Q246.838 764.891 249.546 770.239 Q252.289 775.551 257.706 775.551 Q263.157 775.551 265.865 770.239 Q268.608 764.891 268.608 754.232 Q268.608 743.537 265.865 738.225 Q263.157 732.878 257.706 732.878 M257.706 727.322 Q266.421 727.322 271.004 734.232 Q275.622 741.107 275.622 754.232 Q275.622 767.322 271.004 774.232 Q266.421 781.107 257.706 781.107 Q248.99 781.107 244.372 774.232 Q239.789 767.322 239.789 754.232 Q239.789 741.107 244.372 734.232 Q248.99 727.322 257.706 727.322 Z" fill="#000000" fill-rule="evenodd" fill-opacity="1" /><path clip-path="url(#clip700)" d="M330.205 741.905 L314.337 757.843 L330.205 773.711 L326.073 777.912 L310.136 761.975 L294.198 777.912 L290.101 773.711 L305.934 757.843 L290.101 741.905 L294.198 737.704 L310.136 753.641 L326.073 737.704 L330.205 741.905 Z" fill="#000000" fill-rule="evenodd" fill-opacity="1" /><path clip-path="url(#clip700)" d="M348.747 774.197 L360.205 774.197 L360.205 734.648 L347.74 737.148 L347.74 730.76 L360.136 728.26 L367.149 728.26 L367.149 774.197 L378.608 774.197 L378.608 780.1 L348.747 780.1 L348.747 774.197 Z" fill="#000000" fill-rule="evenodd" fill-opacity="1" /><path clip-path="url(#clip700)" d="M407.774 732.878 Q402.358 732.878 399.615 738.225 Q396.906 743.537 396.906 754.232 Q396.906 764.891 399.615 770.239 Q402.358 775.551 407.774 775.551 Q413.226 775.551 415.934 770.239 Q418.677 764.891 418.677 754.232 Q418.677 743.537 415.934 738.225 Q413.226 732.878 407.774 732.878 M407.774 727.322 Q416.489 727.322 421.073 734.232 Q425.691 741.107 425.691 754.232 Q425.691 767.322 421.073 774.232 Q416.489 781.107 407.774 781.107 Q399.059 781.107 394.441 774.232 Q389.858 767.322 389.858 754.232 Q389.858 741.107 394.441 734.232 Q399.059 727.322 407.774 727.322 Z" fill="#000000" fill-rule="evenodd" fill-opacity="1" /><path clip-path="url(#clip700)" d="M427.468 696.864 L449.84 696.864 L449.84 701.66 L432.687 701.66 L432.687 711.985 Q433.929 711.562 435.17 711.365 Q436.411 711.139 437.653 711.139 Q444.705 711.139 448.824 715.004 Q452.943 718.869 452.943 725.471 Q452.943 732.27 448.711 736.05 Q444.48 739.802 436.778 739.802 Q434.126 739.802 431.361 739.351 Q428.625 738.899 425.691 737.997 L425.691 732.27 Q428.23 733.652 430.938 734.329 Q433.646 735.006 436.665 735.006 Q441.546 735.006 444.395 732.439 Q447.244 729.872 447.244 725.471 Q447.244 721.07 444.395 718.502 Q441.546 715.935 436.665 715.935 Q434.38 715.935 432.095 716.443 Q429.838 716.951 427.468 718.023 L427.468 696.864 Z" fill="#000000" fill-rule="evenodd" fill-opacity="1" /><path clip-path="url(#clip700)" d="M127.845 423.087 L161.178 423.087 L161.178 426.073 L142.359 474.927 L135.033 474.927 L152.741 428.989 L127.845 428.989 L127.845 423.087 Z" fill="#000000" fill-rule="evenodd" fill-opacity="1" /><path clip-path="url(#clip700)" d="M174.859 466.107 L182.185 466.107 L182.185 474.927 L174.859 474.927 L174.859 466.107 Z" fill="#000000" fill-rule="evenodd" fill-opacity="1" /><path clip-path="url(#clip700)" d="M197.532 423.087 L225.067 423.087 L225.067 428.989 L203.956 428.989 L203.956 441.698 Q205.484 441.177 207.011 440.934 Q208.539 440.656 210.067 440.656 Q218.747 440.656 223.817 445.413 Q228.886 450.17 228.886 458.295 Q228.886 466.663 223.678 471.316 Q218.47 475.934 208.991 475.934 Q205.727 475.934 202.324 475.378 Q198.956 474.822 195.345 473.711 L195.345 466.663 Q198.47 468.364 201.803 469.197 Q205.136 470.031 208.852 470.031 Q214.859 470.031 218.366 466.871 Q221.872 463.711 221.872 458.295 Q221.872 452.878 218.366 449.718 Q214.859 446.559 208.852 446.559 Q206.039 446.559 203.227 447.184 Q200.449 447.809 197.532 449.128 L197.532 423.087 Z" fill="#000000" fill-rule="evenodd" fill-opacity="1" /><path clip-path="url(#clip700)" d="M257.706 427.705 Q252.289 427.705 249.546 433.052 Q246.838 438.364 246.838 449.059 Q246.838 459.718 249.546 465.066 Q252.289 470.378 257.706 470.378 Q263.157 470.378 265.865 465.066 Q268.608 459.718 268.608 449.059 Q268.608 438.364 265.865 433.052 Q263.157 427.705 257.706 427.705 M257.706 422.149 Q266.421 422.149 271.004 429.059 Q275.622 435.934 275.622 449.059 Q275.622 462.149 271.004 469.059 Q266.421 475.934 257.706 475.934 Q248.99 475.934 244.372 469.059 Q239.789 462.149 239.789 449.059 Q239.789 435.934 244.372 429.059 Q248.99 422.149 257.706 422.149 Z" fill="#000000" fill-rule="evenodd" fill-opacity="1" /><path clip-path="url(#clip700)" d="M330.205 436.732 L314.337 452.67 L330.205 468.538 L326.073 472.739 L310.136 456.802 L294.198 472.739 L290.101 468.538 L305.934 452.67 L290.101 436.732 L294.198 432.531 L310.136 448.468 L326.073 432.531 L330.205 436.732 Z" fill="#000000" fill-rule="evenodd" fill-opacity="1" /><path clip-path="url(#clip700)" d="M348.747 469.024 L360.205 469.024 L360.205 429.475 L347.74 431.975 L347.74 425.587 L360.136 423.087 L367.149 423.087 L367.149 469.024 L378.608 469.024 L378.608 474.927 L348.747 474.927 L348.747 469.024 Z" fill="#000000" fill-rule="evenodd" fill-opacity="1" /><path clip-path="url(#clip700)" d="M407.774 427.705 Q402.358 427.705 399.615 433.052 Q396.906 438.364 396.906 449.059 Q396.906 459.718 399.615 465.066 Q402.358 470.378 407.774 470.378 Q413.226 470.378 415.934 465.066 Q418.677 459.718 418.677 449.059 Q418.677 438.364 415.934 433.052 Q413.226 427.705 407.774 427.705 M407.774 422.149 Q416.489 422.149 421.073 429.059 Q425.691 435.934 425.691 449.059 Q425.691 462.149 421.073 469.059 Q416.489 475.934 407.774 475.934 Q399.059 475.934 394.441 469.059 Q389.858 462.149 389.858 449.059 Q389.858 435.934 394.441 429.059 Q399.059 422.149 407.774 422.149 Z" fill="#000000" fill-rule="evenodd" fill-opacity="1" /><path clip-path="url(#clip700)" d="M427.468 391.691 L449.84 391.691 L449.84 396.487 L432.687 396.487 L432.687 406.812 Q433.929 406.389 435.17 406.192 Q436.411 405.966 437.653 405.966 Q444.705 405.966 448.824 409.831 Q452.943 413.696 452.943 420.298 Q452.943 427.097 448.711 430.877 Q444.48 434.629 436.778 434.629 Q434.126 434.629 431.361 434.178 Q428.625 433.726 425.691 432.824 L425.691 427.097 Q428.23 428.479 430.938 429.156 Q433.646 429.833 436.665 429.833 Q441.546 429.833 444.395 427.266 Q447.244 424.699 447.244 420.298 Q447.244 415.897 444.395 413.329 Q441.546 410.762 436.665 410.762 Q434.38 410.762 432.095 411.27 Q429.838 411.778 427.468 412.85 L427.468 391.691 Z" fill="#000000" fill-rule="evenodd" fill-opacity="1" /><path clip-path="url(#clip700)" d="M128.997 163.851 L140.456 163.851 L140.456 124.303 L127.991 126.802 L127.991 120.414 L140.386 117.914 L147.4 117.914 L147.4 163.851 L158.858 163.851 L158.858 169.754 L128.997 169.754 L128.997 163.851 Z" fill="#000000" fill-rule="evenodd" fill-opacity="1" /><path clip-path="url(#clip700)" d="M173.025 160.934 L180.351 160.934 L180.351 169.754 L173.025 169.754 L173.025 160.934 Z" fill="#000000" fill-rule="evenodd" fill-opacity="1" /><path clip-path="url(#clip700)" d="M210.629 122.532 Q205.212 122.532 202.469 127.879 Q199.761 133.191 199.761 143.886 Q199.761 154.545 202.469 159.893 Q205.212 165.205 210.629 165.205 Q216.08 165.205 218.789 159.893 Q221.532 154.545 221.532 143.886 Q221.532 133.191 218.789 127.879 Q216.08 122.532 210.629 122.532 M210.629 116.976 Q219.344 116.976 223.928 123.886 Q228.546 130.761 228.546 143.886 Q228.546 156.976 223.928 163.886 Q219.344 170.761 210.629 170.761 Q201.914 170.761 197.296 163.886 Q192.712 156.976 192.712 143.886 Q192.712 130.761 197.296 123.886 Q201.914 116.976 210.629 116.976 Z" fill="#000000" fill-rule="evenodd" fill-opacity="1" /><path clip-path="url(#clip700)" d="M255.872 122.532 Q250.455 122.532 247.712 127.879 Q245.004 133.191 245.004 143.886 Q245.004 154.545 247.712 159.893 Q250.455 165.205 255.872 165.205 Q261.323 165.205 264.031 159.893 Q266.775 154.545 266.775 143.886 Q266.775 133.191 264.031 127.879 Q261.323 122.532 255.872 122.532 M255.872 116.976 Q264.587 116.976 269.17 123.886 Q273.788 130.761 273.788 143.886 Q273.788 156.976 269.17 163.886 Q264.587 170.761 255.872 170.761 Q247.157 170.761 242.539 163.886 Q237.955 156.976 237.955 143.886 Q237.955 130.761 242.539 123.886 Q247.157 116.976 255.872 116.976 Z" fill="#000000" fill-rule="evenodd" fill-opacity="1" /><path clip-path="url(#clip700)" d="M328.371 131.559 L312.503 147.497 L328.371 163.365 L324.24 167.566 L308.302 151.629 L292.365 167.566 L288.267 163.365 L304.101 147.497 L288.267 131.559 L292.365 127.358 L308.302 143.295 L324.24 127.358 L328.371 131.559 Z" fill="#000000" fill-rule="evenodd" fill-opacity="1" /><path clip-path="url(#clip700)" d="M346.913 163.851 L358.371 163.851 L358.371 124.303 L345.906 126.802 L345.906 120.414 L358.302 117.914 L365.316 117.914 L365.316 163.851 L376.774 163.851 L376.774 169.754 L346.913 169.754 L346.913 163.851 Z" fill="#000000" fill-rule="evenodd" fill-opacity="1" /><path clip-path="url(#clip700)" d="M405.94 122.532 Q400.524 122.532 397.781 127.879 Q395.072 133.191 395.072 143.886 Q395.072 154.545 397.781 159.893 Q400.524 165.205 405.94 165.205 Q411.392 165.205 414.1 159.893 Q416.843 154.545 416.843 143.886 Q416.843 133.191 414.1 127.879 Q411.392 122.532 405.94 122.532 M405.94 116.976 Q414.656 116.976 419.239 123.886 Q423.857 130.761 423.857 143.886 Q423.857 156.976 419.239 163.886 Q414.656 170.761 405.94 170.761 Q397.225 170.761 392.607 163.886 Q388.024 156.976 388.024 143.886 Q388.024 130.761 392.607 123.886 Q397.225 116.976 405.94 116.976 Z" fill="#000000" fill-rule="evenodd" fill-opacity="1" /><path clip-path="url(#clip700)" d="M438.894 105.307 Q435.057 105.307 432.8 107.931 Q430.571 110.554 430.571 115.125 Q430.571 119.667 432.8 122.319 Q435.057 124.942 438.894 124.942 Q442.731 124.942 444.959 122.319 Q447.216 119.667 447.216 115.125 Q447.216 110.554 444.959 107.931 Q442.731 105.307 438.894 105.307 M450.207 87.449 L450.207 92.64 Q448.063 91.6244 445.862 91.0883 Q443.69 90.5523 441.546 90.5523 Q435.903 90.5523 432.913 94.3609 Q429.951 98.1695 429.528 105.871 Q431.192 103.417 433.703 102.119 Q436.214 100.793 439.232 100.793 Q445.58 100.793 449.248 104.658 Q452.943 108.495 452.943 115.125 Q452.943 121.613 449.106 125.535 Q445.27 129.456 438.894 129.456 Q431.587 129.456 427.722 123.87 Q423.857 118.256 423.857 107.62 Q423.857 97.6334 428.597 91.709 Q433.336 85.7563 441.32 85.7563 Q443.464 85.7563 445.636 86.1795 Q447.837 86.6027 450.207 87.449 Z" fill="#000000" fill-rule="evenodd" fill-opacity="1" /><path clip-path="url(#clip700)" d="M17.2547 881.5 L25.8831 881.5 Q22.0348 885.632 20.1308 890.331 Q18.2269 894.99 18.2269 900.256 Q18.2269 910.626 24.5868 916.135 Q30.9062 921.645 42.8969 921.645 Q54.8471 921.645 61.207 916.135 Q67.5264 910.626 67.5264 900.256 Q67.5264 894.99 65.6225 890.331 Q63.7186 885.632 59.8702 881.5 L68.4176 881.5 Q71.3343 885.794 72.7926 890.615 Q74.2509 895.395 74.2509 900.742 Q74.2509 914.475 65.8655 922.374 Q57.4397 930.273 42.8969 930.273 Q28.3137 930.273 19.9283 922.374 Q11.5024 914.475 11.5024 900.742 Q11.5024 895.314 12.9607 890.534 Q14.3786 885.713 17.2547 881.5 Z" fill="#000000" fill-rule="evenodd" fill-opacity="1" /><path clip-path="url(#clip700)" d="M45.692 831.472 L73.0762 831.472 L73.0762 838.925 L45.9351 838.925 Q39.4942 838.925 36.2939 841.437 Q33.0937 843.948 33.0937 848.971 Q33.0937 855.007 36.9421 858.491 Q40.7905 861.975 47.4339 861.975 L73.0762 861.975 L73.0762 869.469 L10.0441 869.469 L10.0441 861.975 L34.7546 861.975 Q30.6632 859.301 28.6377 855.696 Q26.6123 852.05 26.6123 847.311 Q26.6123 839.492 31.4734 835.482 Q36.2939 831.472 45.692 831.472 Z" fill="#000000" fill-rule="evenodd" fill-opacity="1" /><path clip-path="url(#clip700)" d="M50.2696 795.986 Q50.2696 805.019 52.3355 808.503 Q54.4015 811.987 59.3841 811.987 Q63.354 811.987 65.7035 809.394 Q68.0125 806.761 68.0125 802.265 Q68.0125 796.067 63.6376 792.34 Q59.2221 788.573 51.9304 788.573 L50.2696 788.573 L50.2696 795.986 M47.1909 781.119 L73.0762 781.119 L73.0762 788.573 L66.1896 788.573 Q70.3215 791.125 72.3065 794.932 Q74.2509 798.74 74.2509 804.25 Q74.2509 811.217 70.3621 815.349 Q66.4327 819.44 59.8702 819.44 Q52.214 819.44 48.3251 814.336 Q44.4363 809.192 44.4363 799.024 L44.4363 788.573 L43.7071 788.573 Q38.5625 788.573 35.7673 791.975 Q32.9317 795.338 32.9317 801.454 Q32.9317 805.343 33.8634 809.03 Q34.7951 812.716 36.6585 816.119 L29.772 816.119 Q28.1921 812.027 27.4225 808.179 Q26.6123 804.331 26.6123 800.685 Q26.6123 790.841 31.7164 785.98 Q36.8206 781.119 47.1909 781.119 Z" fill="#000000" fill-rule="evenodd" fill-opacity="1" /><path clip-path="url(#clip700)" d="M34.6736 739.476 Q33.9444 740.731 33.6204 742.23 Q33.2558 743.688 33.2558 745.471 Q33.2558 751.79 37.3877 755.193 Q41.4791 758.555 49.1758 758.555 L73.0762 758.555 L73.0762 766.049 L27.706 766.049 L27.706 758.555 L34.7546 758.555 Q30.6227 756.206 28.6377 752.438 Q26.6123 748.671 26.6123 743.283 Q26.6123 742.514 26.7338 741.582 Q26.8148 740.65 27.0174 739.516 L34.6736 739.476 Z" fill="#000000" fill-rule="evenodd" fill-opacity="1" /><path clip-path="url(#clip700)" d="M49.8645 703.26 Q41.7627 703.26 37.3067 706.623 Q32.8507 709.944 32.8507 715.98 Q32.8507 721.976 37.3067 725.338 Q41.7627 728.66 49.8645 728.66 Q57.9258 728.66 62.3818 725.338 Q66.8378 721.976 66.8378 715.98 Q66.8378 709.944 62.3818 706.623 Q57.9258 703.26 49.8645 703.26 M67.4454 695.807 Q79.031 695.807 84.6617 700.951 Q90.333 706.096 90.333 716.709 Q90.333 720.639 89.7254 724.123 Q89.1582 727.606 87.943 730.888 L80.6919 730.888 Q82.4743 727.606 83.3249 724.406 Q84.1756 721.206 84.1756 717.884 Q84.1756 710.552 80.3273 706.906 Q76.5194 703.26 68.7822 703.26 L65.0959 703.26 Q69.1063 705.569 71.0912 709.175 Q73.0762 712.78 73.0762 717.803 Q73.0762 726.148 66.7162 731.252 Q60.3563 736.356 49.8645 736.356 Q39.3321 736.356 32.9722 731.252 Q26.6123 726.148 26.6123 717.803 Q26.6123 712.78 28.5972 709.175 Q30.5822 705.569 34.5926 703.26 L27.706 703.26 L27.706 695.807 L67.4454 695.807 Z" fill="#000000" fill-rule="evenodd" fill-opacity="1" /><path clip-path="url(#clip700)" d="M48.5277 641.646 L52.1735 641.646 L52.1735 675.917 Q59.8702 675.431 63.9211 671.299 Q67.9315 667.126 67.9315 659.713 Q67.9315 655.419 66.8783 651.409 Q65.825 647.358 63.7186 643.388 L70.7671 643.388 Q72.4685 647.398 73.3597 651.611 Q74.2509 655.824 74.2509 660.159 Q74.2509 671.015 67.9315 677.375 Q61.6121 683.695 50.8367 683.695 Q39.6967 683.695 33.1748 677.699 Q26.6123 671.663 26.6123 661.455 Q26.6123 652.3 32.5266 646.993 Q38.4004 641.646 48.5277 641.646 M46.3402 649.1 Q40.2233 649.181 36.5775 652.543 Q32.9317 655.865 32.9317 661.374 Q32.9317 667.613 36.456 671.38 Q39.9803 675.107 46.3807 675.674 L46.3402 649.1 Z" fill="#000000" fill-rule="evenodd" fill-opacity="1" /><path clip-path="url(#clip700)" d="M12.5962 589.795 L12.5962 582.908 L80.7729 603.973 L80.7729 610.859 L12.5962 589.795 Z" fill="#000000" fill-rule="evenodd" fill-opacity="1" /><path clip-path="url(#clip700)" d="M48.5277 509.911 L52.1735 509.911 L52.1735 544.181 Q59.8702 543.695 63.9211 539.563 Q67.9315 535.391 67.9315 527.978 Q67.9315 523.684 66.8783 519.673 Q65.825 515.623 63.7186 511.653 L70.7671 511.653 Q72.4685 515.663 73.3597 519.876 Q74.2509 524.089 74.2509 528.423 Q74.2509 539.28 67.9315 545.64 Q61.6121 551.959 50.8367 551.959 Q39.6967 551.959 33.1748 545.964 Q26.6123 539.928 26.6123 529.72 Q26.6123 520.565 32.5266 515.258 Q38.4004 509.911 48.5277 509.911 M46.3402 517.364 Q40.2233 517.445 36.5775 520.808 Q32.9317 524.129 32.9317 529.639 Q32.9317 535.877 36.456 539.644 Q39.9803 543.371 46.3807 543.938 L46.3402 517.364 Z" fill="#000000" fill-rule="evenodd" fill-opacity="1" /><polyline clip-path="url(#clip702)" style="stroke:#009af9; stroke-linecap:butt; stroke-linejoin:round; stroke-width:6; stroke-opacity:1; fill:none" points="
  488.943,1354.85 497.415,1353.33 505.887,1351.81 514.359,1350.28 522.831,1348.74 531.303,1347.25 539.774,1345.74 548.246,1344.23 556.718,1342.7 565.19,1341.2 
  573.662,1339.74 582.134,1338.31 590.606,1336.86 599.078,1335.42 607.549,1334 616.021,1332.62 624.493,1331.22 632.965,1329.82 641.437,1328.48 649.909,1327.09 
  658.381,1325.54 666.853,1323.98 675.325,1322.55 683.796,1321.3 692.268,1320.03 700.74,1318.73 709.212,1317.44 717.684,1316.12 726.156,1314.77 734.628,1313.39 
  743.1,1312.33 751.571,1311.23 760.043,1310.09 768.515,1308.92 776.987,1307.71 785.459,1306.46 793.931,1305.17 802.403,1303.81 810.875,1302.39 819.346,1300.92 
  827.818,1299.4 836.29,1297.8 844.762,1296.15 853.234,1294.45 861.706,1292.68 870.178,1290.81 878.65,1288.89 887.121,1286.91 895.593,1284.84 904.065,1282.66 
  912.537,1280.41 921.009,1278.08 929.481,1275.62 937.953,1273.08 946.425,1270.43 954.896,1267.63 963.368,1264.73 971.84,1261.68 980.312,1258.49 988.784,1255.17 
  997.256,1251.63 1005.73,1247.95 1014.2,1244.02 1022.67,1239.91 1031.14,1235.54 1039.62,1230.87 1048.09,1225.89 1056.56,1220.54 1065.03,1214.78 1073.5,1208.58 
  1081.97,1201.84 1090.45,1194.46 1098.92,1186.32 1107.39,1177.38 1115.86,1167.39 1124.33,1156.17 1132.81,1143.53 1141.28,1129.15 1149.75,1112.65 1158.22,1093.6 
  1166.69,1071.51 1175.17,1045.65 1183.64,1015.47 1192.11,979.851 1200.58,937.831 1209.05,888.575 1217.52,831.844 1226,768.704 1234.47,707.542 1242.94,706.234 
  1251.41,704.854 1259.88,703.391 1268.36,701.88 1276.83,700.282 1285.3,698.621 1293.77,696.896 1302.24,695.06 1310.72,693.161 1319.19,691.158 1327.66,689.038 
  1336.13,686.843 1344.6,684.477 1353.07,682.004 1361.55,679.376 1370.02,676.579 1378.49,673.591 1386.96,670.37 1395.43,666.906 1403.91,663.168 1412.38,659.095 
  1420.85,654.638 1429.32,649.74 1437.79,644.267 1446.27,638.215 1454.74,631.389 1463.21,623.676 1471.68,614.939 1480.15,604.864 1488.62,593.236 1497.1,579.775 
  1505.57,564.005 1514.04,545.434 1522.51,523.658 1530.98,497.861 1539.46,467.377 1547.93,431.735 1556.4,391.111 1564.87,346.764 1573.34,326.648 1581.82,326.389 
  1590.29,326.125 1598.76,325.855 1607.23,325.573 1615.7,325.279 1624.17,324.977 1632.65,324.667 1641.12,324.349 1649.59,324.023 1658.06,323.685 1666.53,323.326 
  1675.01,322.956 1683.48,322.574 1691.95,322.18 1700.42,321.774 1708.89,321.357 1717.37,320.917 1725.84,320.459 1734.31,319.984 1742.78,319.493 1751.25,318.972 
  1759.72,318.431 1768.2,317.872 1776.67,317.293 1785.14,316.678 1793.61,316.041 1802.08,315.382 1810.56,314.693 1819.03,313.965 1827.5,313.211 1835.97,312.431 
  1844.44,311.605 1852.92,310.742 1861.39,309.848 1869.86,308.896 1878.33,307.908 1886.8,306.873 1895.27,305.775 1903.75,304.636 1912.22,303.42 1920.69,302.145 
  1929.16,300.803 1937.63,299.365 1946.11,297.864 1954.58,296.243 1963.05,294.509 1971.52,292.654 1979.99,290.654 1988.47,288.493 1996.94,286.126 2005.41,283.535 
  2013.88,280.682 2022.35,277.515 2030.82,273.983 2039.3,270.017 2047.77,265.528 2056.24,260.415 2064.71,254.551 2073.18,247.763 2081.66,239.883 2090.13,230.661 
  2098.6,219.811 2107.07,207.069 2115.54,191.967 2124.02,174.08 2132.49,153.115 2140.96,129.092 2149.43,102.642 2157.9,85.3307 2166.37,85.3298 2174.85,85.3298 
  
  "/>
</svg>
