<?xml version="1.0" encoding="utf-8"?>
<svg xmlns="http://www.w3.org/2000/svg" xmlns:xlink="http://www.w3.org/1999/xlink" width="600" height="400" viewBox="0 0 2400 1600">
<defs>
  <clipPath id="clip150">
    <rect x="0" y="0" width="2400" height="1600"/>
  </clipPath>
</defs>
<path clip-path="url(#clip150)" d="
M0 1600 L2400 1600 L2400 0 L0 0  Z
  " fill="#ffffff" fill-rule="evenodd" fill-opacity="1"/>
<defs>
  <clipPath id="clip151">
    <rect x="480" y="0" width="1681" height="1600"/>
  </clipPath>
</defs>
<path clip-path="url(#clip150)" d="
M445.534 1392.94 L2352.76 1392.94 L2352.76 47.2441 L445.534 47.2441  Z
  " fill="#ffffff" fill-rule="evenodd" fill-opacity="1"/>
<defs>
  <clipPath id="clip152">
    <rect x="445" y="47" width="1908" height="1347"/>
  </clipPath>
</defs>
<polyline clip-path="url(#clip152)" style="stroke:#000000; stroke-linecap:butt; stroke-linejoin:round; stroke-width:2; stroke-opacity:0.1; fill:none" points="
  445.534,1392.94 445.534,47.2441 
  "/>
<polyline clip-path="url(#clip152)" style="stroke:#000000; stroke-linecap:butt; stroke-linejoin:round; stroke-width:2; stroke-opacity:0.1; fill:none" points="
  878.994,1392.94 878.994,47.2441 
  "/>
<polyline clip-path="url(#clip152)" style="stroke:#000000; stroke-linecap:butt; stroke-linejoin:round; stroke-width:2; stroke-opacity:0.1; fill:none" points="
  1312.45,1392.94 1312.45,47.2441 
  "/>
<polyline clip-path="url(#clip152)" style="stroke:#000000; stroke-linecap:butt; stroke-linejoin:round; stroke-width:2; stroke-opacity:0.1; fill:none" points="
  1745.91,1392.94 1745.91,47.2441 
  "/>
<polyline clip-path="url(#clip152)" style="stroke:#000000; stroke-linecap:butt; stroke-linejoin:round; stroke-width:2; stroke-opacity:0.1; fill:none" points="
  2179.37,1392.94 2179.37,47.2441 
  "/>
<polyline clip-path="url(#clip150)" style="stroke:#000000; stroke-linecap:butt; stroke-linejoin:round; stroke-width:4; stroke-opacity:1; fill:none" points="
  445.534,1392.94 2352.76,1392.94 
  "/>
<polyline clip-path="url(#clip150)" style="stroke:#000000; stroke-linecap:butt; stroke-linejoin:round; stroke-width:4; stroke-opacity:1; fill:none" points="
  445.534,1392.94 445.534,1374.04 
  "/>
<polyline clip-path="url(#clip150)" style="stroke:#000000; stroke-linecap:butt; stroke-linejoin:round; stroke-width:4; stroke-opacity:1; fill:none" points="
  878.994,1392.94 878.994,1374.04 
  "/>
<polyline clip-path="url(#clip150)" style="stroke:#000000; stroke-linecap:butt; stroke-linejoin:round; stroke-width:4; stroke-opacity:1; fill:none" points="
  1312.45,1392.94 1312.45,1374.04 
  "/>
<polyline clip-path="url(#clip150)" style="stroke:#000000; stroke-linecap:butt; stroke-linejoin:round; stroke-width:4; stroke-opacity:1; fill:none" points="
  1745.91,1392.94 1745.91,1374.04 
  "/>
<polyline clip-path="url(#clip150)" style="stroke:#000000; stroke-linecap:butt; stroke-linejoin:round; stroke-width:4; stroke-opacity:1; fill:none" points="
  2179.37,1392.94 2179.37,1374.04 
  "/>
<path clip-path="url(#clip150)" d="M445.534 1429.72 Q440.118 1429.72 437.375 1435.07 Q434.666 1440.38 434.666 1451.07 Q434.666 1461.73 437.375 1467.08 Q440.118 1472.39 445.534 1472.39 Q450.986 1472.39 453.694 1467.08 Q456.437 1461.73 456.437 1451.07 Q456.437 1440.38 453.694 1435.07 Q450.986 1429.72 445.534 1429.72 M445.534 1424.16 Q454.249 1424.16 458.833 1431.07 Q463.451 1437.95 463.451 1451.07 Q463.451 1464.16 458.833 1471.07 Q454.249 1477.95 445.534 1477.95 Q436.819 1477.95 432.201 1471.07 Q427.618 1464.16 427.618 1451.07 Q427.618 1437.95 432.201 1431.07 Q436.819 1424.16 445.534 1424.16 Z" fill="#000000" fill-rule="evenodd" fill-opacity="1" /><path clip-path="url(#clip150)" d="M824.532 1471.04 L849.011 1471.04 L849.011 1476.94 L816.095 1476.94 L816.095 1471.04 Q820.088 1466.91 826.963 1459.96 Q833.872 1452.98 835.643 1450.97 Q839.011 1447.18 840.331 1444.58 Q841.685 1441.94 841.685 1439.41 Q841.685 1435.27 838.768 1432.67 Q835.886 1430.07 831.234 1430.07 Q827.935 1430.07 824.254 1431.21 Q820.609 1432.36 816.442 1434.68 L816.442 1427.6 Q820.678 1425.9 824.359 1425.03 Q828.039 1424.16 831.095 1424.16 Q839.15 1424.16 843.942 1428.19 Q848.733 1432.22 848.733 1438.95 Q848.733 1442.15 847.518 1445.03 Q846.338 1447.88 843.178 1451.77 Q842.31 1452.77 837.657 1457.6 Q833.004 1462.39 824.532 1471.04 Z" fill="#000000" fill-rule="evenodd" fill-opacity="1" /><path clip-path="url(#clip150)" d="M863.803 1425.1 L891.337 1425.1 L891.337 1431 L870.226 1431 L870.226 1443.71 Q871.754 1443.19 873.282 1442.95 Q874.81 1442.67 876.337 1442.67 Q885.018 1442.67 890.087 1447.43 Q895.157 1452.18 895.157 1460.31 Q895.157 1468.68 889.948 1473.33 Q884.74 1477.95 875.261 1477.95 Q871.997 1477.95 868.594 1477.39 Q865.226 1476.84 861.615 1475.72 L861.615 1468.68 Q864.74 1470.38 868.074 1471.21 Q871.407 1472.04 875.122 1472.04 Q881.129 1472.04 884.636 1468.88 Q888.143 1465.72 888.143 1460.31 Q888.143 1454.89 884.636 1451.73 Q881.129 1448.57 875.122 1448.57 Q872.31 1448.57 869.497 1449.2 Q866.719 1449.82 863.803 1451.14 L863.803 1425.1 Z" fill="#000000" fill-rule="evenodd" fill-opacity="1" /><path clip-path="url(#clip150)" d="M923.976 1429.72 Q918.559 1429.72 915.816 1435.07 Q913.108 1440.38 913.108 1451.07 Q913.108 1461.73 915.816 1467.08 Q918.559 1472.39 923.976 1472.39 Q929.427 1472.39 932.136 1467.08 Q934.879 1461.73 934.879 1451.07 Q934.879 1440.38 932.136 1435.07 Q929.427 1429.72 923.976 1429.72 M923.976 1424.16 Q932.691 1424.16 937.275 1431.07 Q941.893 1437.95 941.893 1451.07 Q941.893 1464.16 937.275 1471.07 Q932.691 1477.95 923.976 1477.95 Q915.261 1477.95 910.643 1471.07 Q906.059 1464.16 906.059 1451.07 Q906.059 1437.95 910.643 1431.07 Q915.261 1424.16 923.976 1424.16 Z" fill="#000000" fill-rule="evenodd" fill-opacity="1" /><path clip-path="url(#clip150)" d="M1251.88 1425.1 L1279.42 1425.1 L1279.42 1431 L1258.3 1431 L1258.3 1443.71 Q1259.83 1443.19 1261.36 1442.95 Q1262.89 1442.67 1264.42 1442.67 Q1273.1 1442.67 1278.17 1447.43 Q1283.23 1452.18 1283.23 1460.31 Q1283.23 1468.68 1278.03 1473.33 Q1272.82 1477.95 1263.34 1477.95 Q1260.07 1477.95 1256.67 1477.39 Q1253.3 1476.84 1249.69 1475.72 L1249.69 1468.68 Q1252.82 1470.38 1256.15 1471.21 Q1259.48 1472.04 1263.2 1472.04 Q1269.21 1472.04 1272.71 1468.88 Q1276.22 1465.72 1276.22 1460.31 Q1276.22 1454.89 1272.71 1451.73 Q1269.21 1448.57 1263.2 1448.57 Q1260.39 1448.57 1257.57 1449.2 Q1254.8 1449.82 1251.88 1451.14 L1251.88 1425.1 Z" fill="#000000" fill-rule="evenodd" fill-opacity="1" /><path clip-path="url(#clip150)" d="M1312.05 1429.72 Q1306.64 1429.72 1303.89 1435.07 Q1301.19 1440.38 1301.19 1451.07 Q1301.19 1461.73 1303.89 1467.08 Q1306.64 1472.39 1312.05 1472.39 Q1317.51 1472.39 1320.21 1467.08 Q1322.96 1461.73 1322.96 1451.07 Q1322.96 1440.38 1320.21 1435.07 Q1317.51 1429.72 1312.05 1429.72 M1312.05 1424.16 Q1320.77 1424.16 1325.35 1431.07 Q1329.97 1437.95 1329.97 1451.07 Q1329.97 1464.16 1325.35 1471.07 Q1320.77 1477.95 1312.05 1477.95 Q1303.34 1477.95 1298.72 1471.07 Q1294.14 1464.16 1294.14 1451.07 Q1294.14 1437.95 1298.72 1431.07 Q1303.34 1424.16 1312.05 1424.16 Z" fill="#000000" fill-rule="evenodd" fill-opacity="1" /><path clip-path="url(#clip150)" d="M1357.3 1429.72 Q1351.88 1429.72 1349.14 1435.07 Q1346.43 1440.38 1346.43 1451.07 Q1346.43 1461.73 1349.14 1467.08 Q1351.88 1472.39 1357.3 1472.39 Q1362.75 1472.39 1365.46 1467.08 Q1368.2 1461.73 1368.2 1451.07 Q1368.2 1440.38 1365.46 1435.07 Q1362.75 1429.72 1357.3 1429.72 M1357.3 1424.16 Q1366.01 1424.16 1370.6 1431.07 Q1375.21 1437.95 1375.21 1451.07 Q1375.21 1464.16 1370.6 1471.07 Q1366.01 1477.95 1357.3 1477.95 Q1348.58 1477.95 1343.96 1471.07 Q1339.38 1464.16 1339.38 1451.07 Q1339.38 1437.95 1343.96 1431.07 Q1348.58 1424.16 1357.3 1424.16 Z" fill="#000000" fill-rule="evenodd" fill-opacity="1" /><path clip-path="url(#clip150)" d="M1683.33 1425.1 L1716.66 1425.1 L1716.66 1428.09 L1697.84 1476.94 L1690.51 1476.94 L1708.22 1431 L1683.33 1431 L1683.33 1425.1 Z" fill="#000000" fill-rule="evenodd" fill-opacity="1" /><path clip-path="url(#clip150)" d="M1730.41 1425.1 L1757.94 1425.1 L1757.94 1431 L1736.83 1431 L1736.83 1443.71 Q1738.36 1443.19 1739.89 1442.95 Q1741.42 1442.67 1742.94 1442.67 Q1751.62 1442.67 1756.69 1447.43 Q1761.76 1452.18 1761.76 1460.31 Q1761.76 1468.68 1756.55 1473.33 Q1751.35 1477.95 1741.87 1477.95 Q1738.6 1477.95 1735.2 1477.39 Q1731.83 1476.84 1728.22 1475.72 L1728.22 1468.68 Q1731.35 1470.38 1734.68 1471.21 Q1738.01 1472.04 1741.73 1472.04 Q1747.74 1472.04 1751.24 1468.88 Q1754.75 1465.72 1754.75 1460.31 Q1754.75 1454.89 1751.24 1451.73 Q1747.74 1448.57 1741.73 1448.57 Q1738.92 1448.57 1736.1 1449.2 Q1733.33 1449.82 1730.41 1451.14 L1730.41 1425.1 Z" fill="#000000" fill-rule="evenodd" fill-opacity="1" /><path clip-path="url(#clip150)" d="M1790.58 1429.72 Q1785.17 1429.72 1782.42 1435.07 Q1779.71 1440.38 1779.71 1451.07 Q1779.71 1461.73 1782.42 1467.08 Q1785.17 1472.39 1790.58 1472.39 Q1796.03 1472.39 1798.74 1467.08 Q1801.49 1461.73 1801.49 1451.07 Q1801.49 1440.38 1798.74 1435.07 Q1796.03 1429.72 1790.58 1429.72 M1790.58 1424.16 Q1799.3 1424.16 1803.88 1431.07 Q1808.5 1437.95 1808.5 1451.07 Q1808.5 1464.16 1803.88 1471.07 Q1799.3 1477.95 1790.58 1477.95 Q1781.87 1477.95 1777.25 1471.07 Q1772.67 1464.16 1772.67 1451.07 Q1772.67 1437.95 1777.25 1431.07 Q1781.87 1424.16 1790.58 1424.16 Z" fill="#000000" fill-rule="evenodd" fill-opacity="1" /><path clip-path="url(#clip150)" d="M2096.16 1471.04 L2107.62 1471.04 L2107.62 1431.49 L2095.15 1433.99 L2095.15 1427.6 L2107.55 1425.1 L2114.56 1425.1 L2114.56 1471.04 L2126.02 1471.04 L2126.02 1476.94 L2096.16 1476.94 L2096.16 1471.04 Z" fill="#000000" fill-rule="evenodd" fill-opacity="1" /><path clip-path="url(#clip150)" d="M2155.19 1429.72 Q2149.77 1429.72 2147.03 1435.07 Q2144.32 1440.38 2144.32 1451.07 Q2144.32 1461.73 2147.03 1467.08 Q2149.77 1472.39 2155.19 1472.39 Q2160.64 1472.39 2163.35 1467.08 Q2166.09 1461.73 2166.09 1451.07 Q2166.09 1440.38 2163.35 1435.07 Q2160.64 1429.72 2155.19 1429.72 M2155.19 1424.16 Q2163.9 1424.16 2168.49 1431.07 Q2173.1 1437.95 2173.1 1451.07 Q2173.1 1464.16 2168.49 1471.07 Q2163.9 1477.95 2155.19 1477.95 Q2146.47 1477.95 2141.85 1471.07 Q2137.27 1464.16 2137.27 1451.07 Q2137.27 1437.95 2141.85 1431.07 Q2146.47 1424.16 2155.19 1424.16 Z" fill="#000000" fill-rule="evenodd" fill-opacity="1" /><path clip-path="url(#clip150)" d="M2200.43 1429.72 Q2195.01 1429.72 2192.27 1435.07 Q2189.56 1440.38 2189.56 1451.07 Q2189.56 1461.73 2192.27 1467.08 Q2195.01 1472.39 2200.43 1472.39 Q2205.88 1472.39 2208.59 1467.08 Q2211.33 1461.73 2211.33 1451.07 Q2211.33 1440.38 2208.59 1435.07 Q2205.88 1429.72 2200.43 1429.72 M2200.43 1424.16 Q2209.15 1424.16 2213.73 1431.07 Q2218.35 1437.95 2218.35 1451.07 Q2218.35 1464.16 2213.73 1471.07 Q2209.15 1477.95 2200.43 1477.95 Q2191.72 1477.95 2187.1 1471.07 Q2182.51 1464.16 2182.51 1451.07 Q2182.51 1437.95 2187.1 1431.07 Q2191.72 1424.16 2200.43 1424.16 Z" fill="#000000" fill-rule="evenodd" fill-opacity="1" /><path clip-path="url(#clip150)" d="M2245.67 1429.72 Q2240.26 1429.72 2237.51 1435.07 Q2234.81 1440.38 2234.81 1451.07 Q2234.81 1461.73 2237.51 1467.08 Q2240.26 1472.39 2245.67 1472.39 Q2251.13 1472.39 2253.83 1467.08 Q2256.58 1461.73 2256.58 1451.07 Q2256.58 1440.38 2253.83 1435.07 Q2251.13 1429.72 2245.67 1429.72 M2245.67 1424.16 Q2254.39 1424.16 2258.97 1431.07 Q2263.59 1437.95 2263.59 1451.07 Q2263.59 1464.16 2258.97 1471.07 Q2254.39 1477.95 2245.67 1477.95 Q2236.96 1477.95 2232.34 1471.07 Q2227.76 1464.16 2227.76 1451.07 Q2227.76 1437.95 2232.34 1431.07 Q2236.96 1424.16 2245.67 1424.16 Z" fill="#000000" fill-rule="evenodd" fill-opacity="1" /><path clip-path="url(#clip150)" d="M1211.28 1518.8 L1262.45 1518.8 L1262.45 1525.68 L1240.98 1525.68 L1240.98 1579.28 L1232.75 1579.28 L1232.75 1525.68 L1211.28 1525.68 L1211.28 1518.8 Z" fill="#000000" fill-rule="evenodd" fill-opacity="1" /><path clip-path="url(#clip150)" d="M1267.47 1533.91 L1274.92 1533.91 L1274.92 1579.28 L1267.47 1579.28 L1267.47 1533.91 M1267.47 1516.24 L1274.92 1516.24 L1274.92 1525.68 L1267.47 1525.68 L1267.47 1516.24 Z" fill="#000000" fill-rule="evenodd" fill-opacity="1" /><path clip-path="url(#clip150)" d="M1325.84 1542.62 Q1328.64 1537.59 1332.53 1535.2 Q1336.42 1532.81 1341.68 1532.81 Q1348.77 1532.81 1352.62 1537.79 Q1356.47 1542.74 1356.47 1551.89 L1356.47 1579.28 L1348.97 1579.28 L1348.97 1552.13 Q1348.97 1545.61 1346.67 1542.45 Q1344.36 1539.29 1339.62 1539.29 Q1333.82 1539.29 1330.46 1543.14 Q1327.1 1546.99 1327.1 1553.63 L1327.1 1579.28 L1319.61 1579.28 L1319.61 1552.13 Q1319.61 1545.57 1317.3 1542.45 Q1314.99 1539.29 1310.17 1539.29 Q1304.46 1539.29 1301.09 1543.18 Q1297.73 1547.03 1297.73 1553.63 L1297.73 1579.28 L1290.24 1579.28 L1290.24 1533.91 L1297.73 1533.91 L1297.73 1540.95 Q1300.28 1536.78 1303.85 1534.8 Q1307.41 1532.81 1312.31 1532.81 Q1317.26 1532.81 1320.7 1535.32 Q1324.18 1537.84 1325.84 1542.62 Z" fill="#000000" fill-rule="evenodd" fill-opacity="1" /><path clip-path="url(#clip150)" d="M1410.14 1554.73 L1410.14 1558.37 L1375.87 1558.37 Q1376.36 1566.07 1380.49 1570.12 Q1384.66 1574.13 1392.08 1574.13 Q1396.37 1574.13 1400.38 1573.08 Q1404.43 1572.02 1408.4 1569.92 L1408.4 1576.97 Q1404.39 1578.67 1400.18 1579.56 Q1395.97 1580.45 1391.63 1580.45 Q1380.77 1580.45 1374.41 1574.13 Q1368.09 1567.81 1368.09 1557.04 Q1368.09 1545.9 1374.09 1539.37 Q1380.13 1532.81 1390.33 1532.81 Q1399.49 1532.81 1404.8 1538.73 Q1410.14 1544.6 1410.14 1554.73 M1402.69 1552.54 Q1402.61 1546.42 1399.25 1542.78 Q1395.92 1539.13 1390.42 1539.13 Q1384.18 1539.13 1380.41 1542.66 Q1376.68 1546.18 1376.12 1552.58 L1402.69 1552.54 Z" fill="#000000" fill-rule="evenodd" fill-opacity="1" /><path clip-path="url(#clip150)" d="M1461.99 1518.8 L1468.88 1518.8 L1447.82 1586.97 L1440.93 1586.97 L1461.99 1518.8 Z" fill="#000000" fill-rule="evenodd" fill-opacity="1" /><path clip-path="url(#clip150)" d="M1540.78 1551.89 L1540.78 1579.28 L1533.33 1579.28 L1533.33 1552.13 Q1533.33 1545.69 1530.82 1542.49 Q1528.31 1539.29 1523.29 1539.29 Q1517.25 1539.29 1513.77 1543.14 Q1510.28 1546.99 1510.28 1553.63 L1510.28 1579.28 L1502.79 1579.28 L1502.79 1533.91 L1510.28 1533.91 L1510.28 1540.95 Q1512.96 1536.86 1516.56 1534.84 Q1520.21 1532.81 1524.95 1532.81 Q1532.76 1532.81 1536.77 1537.67 Q1540.78 1542.49 1540.78 1551.89 Z" fill="#000000" fill-rule="evenodd" fill-opacity="1" /><path clip-path="url(#clip150)" d="M1584.58 1535.24 L1584.58 1542.29 Q1581.42 1540.67 1578.01 1539.86 Q1574.61 1539.05 1570.96 1539.05 Q1565.41 1539.05 1562.62 1540.75 Q1559.86 1542.45 1559.86 1545.86 Q1559.86 1548.45 1561.85 1549.95 Q1563.83 1551.41 1569.83 1552.74 L1572.38 1553.31 Q1580.32 1555.01 1583.64 1558.13 Q1587.01 1561.21 1587.01 1566.76 Q1587.01 1573.08 1581.98 1576.76 Q1577 1580.45 1568.25 1580.45 Q1564.6 1580.45 1560.63 1579.72 Q1556.7 1579.03 1552.33 1577.61 L1552.33 1569.92 Q1556.46 1572.07 1560.47 1573.16 Q1564.48 1574.21 1568.41 1574.21 Q1573.68 1574.21 1576.51 1572.43 Q1579.35 1570.61 1579.35 1567.33 Q1579.35 1564.29 1577.28 1562.67 Q1575.26 1561.05 1568.33 1559.55 L1565.74 1558.94 Q1558.81 1557.48 1555.73 1554.48 Q1552.65 1551.45 1552.65 1546.18 Q1552.65 1539.78 1557.19 1536.3 Q1561.73 1532.81 1570.07 1532.81 Q1574.2 1532.81 1577.85 1533.42 Q1581.5 1534.03 1584.58 1535.24 Z" fill="#000000" fill-rule="evenodd" fill-opacity="1" /><polyline clip-path="url(#clip152)" style="stroke:#000000; stroke-linecap:butt; stroke-linejoin:round; stroke-width:2; stroke-opacity:0.1; fill:none" points="
  445.534,1354.85 2352.76,1354.85 
  "/>
<polyline clip-path="url(#clip152)" style="stroke:#000000; stroke-linecap:butt; stroke-linejoin:round; stroke-width:2; stroke-opacity:0.1; fill:none" points="
  445.534,941.135 2352.76,941.135 
  "/>
<polyline clip-path="url(#clip152)" style="stroke:#000000; stroke-linecap:butt; stroke-linejoin:round; stroke-width:2; stroke-opacity:0.1; fill:none" points="
  445.534,527.415 2352.76,527.415 
  "/>
<polyline clip-path="url(#clip152)" style="stroke:#000000; stroke-linecap:butt; stroke-linejoin:round; stroke-width:2; stroke-opacity:0.1; fill:none" points="
  445.534,113.695 2352.76,113.695 
  "/>
<polyline clip-path="url(#clip150)" style="stroke:#000000; stroke-linecap:butt; stroke-linejoin:round; stroke-width:4; stroke-opacity:1; fill:none" points="
  445.534,1392.94 445.534,47.2441 
  "/>
<polyline clip-path="url(#clip150)" style="stroke:#000000; stroke-linecap:butt; stroke-linejoin:round; stroke-width:4; stroke-opacity:1; fill:none" points="
  445.534,1354.85 464.432,1354.85 
  "/>
<polyline clip-path="url(#clip150)" style="stroke:#000000; stroke-linecap:butt; stroke-linejoin:round; stroke-width:4; stroke-opacity:1; fill:none" points="
  445.534,941.135 464.432,941.135 
  "/>
<polyline clip-path="url(#clip150)" style="stroke:#000000; stroke-linecap:butt; stroke-linejoin:round; stroke-width:4; stroke-opacity:1; fill:none" points="
  445.534,527.415 464.432,527.415 
  "/>
<polyline clip-path="url(#clip150)" style="stroke:#000000; stroke-linecap:butt; stroke-linejoin:round; stroke-width:4; stroke-opacity:1; fill:none" points="
  445.534,113.695 464.432,113.695 
  "/>
<path clip-path="url(#clip150)" d="M391.618 1333.55 Q386.201 1333.55 383.458 1338.9 Q380.75 1344.21 380.75 1354.91 Q380.75 1365.57 383.458 1370.91 Q386.201 1376.23 391.618 1376.23 Q397.069 1376.23 399.777 1370.91 Q402.52 1365.57 402.52 1354.91 Q402.52 1344.21 399.777 1338.9 Q397.069 1333.55 391.618 1333.55 M391.618 1328 Q400.333 1328 404.916 1334.91 Q409.534 1341.78 409.534 1354.91 Q409.534 1368 404.916 1374.91 Q400.333 1381.78 391.618 1381.78 Q382.902 1381.78 378.284 1374.91 Q373.701 1368 373.701 1354.91 Q373.701 1341.78 378.284 1334.91 Q382.902 1328 391.618 1328 Z" fill="#000000" fill-rule="evenodd" fill-opacity="1" /><path clip-path="url(#clip150)" d="M130.831 970.823 L142.29 970.823 L142.29 931.275 L129.824 933.775 L129.824 927.386 L142.22 924.886 L149.234 924.886 L149.234 970.823 L160.692 970.823 L160.692 976.726 L130.831 976.726 L130.831 970.823 Z" fill="#000000" fill-rule="evenodd" fill-opacity="1" /><path clip-path="url(#clip150)" d="M174.859 967.907 L182.185 967.907 L182.185 976.726 L174.859 976.726 L174.859 967.907 Z" fill="#000000" fill-rule="evenodd" fill-opacity="1" /><path clip-path="url(#clip150)" d="M212.463 929.504 Q207.046 929.504 204.303 934.851 Q201.595 940.164 201.595 950.858 Q201.595 961.518 204.303 966.865 Q207.046 972.177 212.463 972.177 Q217.914 972.177 220.622 966.865 Q223.365 961.518 223.365 950.858 Q223.365 940.164 220.622 934.851 Q217.914 929.504 212.463 929.504 M212.463 923.948 Q221.178 923.948 225.761 930.858 Q230.379 937.733 230.379 950.858 Q230.379 963.948 225.761 970.858 Q221.178 977.733 212.463 977.733 Q203.748 977.733 199.129 970.858 Q194.546 963.948 194.546 950.858 Q194.546 937.733 199.129 930.858 Q203.748 923.948 212.463 923.948 Z" fill="#000000" fill-rule="evenodd" fill-opacity="1" /><path clip-path="url(#clip150)" d="M284.962 938.532 L269.094 954.469 L284.962 970.337 L280.83 974.538 L264.893 958.601 L248.956 974.538 L244.858 970.337 L260.692 954.469 L244.858 938.532 L248.956 934.33 L264.893 950.268 L280.83 934.33 L284.962 938.532 Z" fill="#000000" fill-rule="evenodd" fill-opacity="1" /><path clip-path="url(#clip150)" d="M303.504 970.823 L314.962 970.823 L314.962 931.275 L302.497 933.775 L302.497 927.386 L314.893 924.886 L321.907 924.886 L321.907 970.823 L333.365 970.823 L333.365 976.726 L303.504 976.726 L303.504 970.823 Z" fill="#000000" fill-rule="evenodd" fill-opacity="1" /><path clip-path="url(#clip150)" d="M362.531 929.504 Q357.115 929.504 354.372 934.851 Q351.663 940.164 351.663 950.858 Q351.663 961.518 354.372 966.865 Q357.115 972.177 362.531 972.177 Q367.983 972.177 370.691 966.865 Q373.434 961.518 373.434 950.858 Q373.434 940.164 370.691 934.851 Q367.983 929.504 362.531 929.504 M362.531 923.948 Q371.247 923.948 375.83 930.858 Q380.448 937.733 380.448 950.858 Q380.448 963.948 375.83 970.858 Q371.247 977.733 362.531 977.733 Q353.816 977.733 349.198 970.858 Q344.615 963.948 344.615 950.858 Q344.615 937.733 349.198 930.858 Q353.816 923.948 362.531 923.948 Z" fill="#000000" fill-rule="evenodd" fill-opacity="1" /><path clip-path="url(#clip150)" d="M395.485 912.279 Q391.648 912.279 389.391 914.903 Q387.162 917.527 387.162 922.097 Q387.162 926.639 389.391 929.291 Q391.648 931.915 395.485 931.915 Q399.322 931.915 401.55 929.291 Q403.807 926.639 403.807 922.097 Q403.807 917.527 401.55 914.903 Q399.322 912.279 395.485 912.279 M406.798 894.421 L406.798 899.612 Q404.654 898.597 402.453 898.061 Q400.281 897.525 398.137 897.525 Q392.494 897.525 389.504 901.333 Q386.542 905.142 386.119 912.844 Q387.783 910.389 390.294 909.091 Q392.805 907.765 395.823 907.765 Q402.171 907.765 405.838 911.63 Q409.534 915.467 409.534 922.097 Q409.534 928.586 405.697 932.507 Q401.861 936.429 395.485 936.429 Q388.178 936.429 384.313 930.843 Q380.448 925.228 380.448 914.593 Q380.448 904.606 385.188 898.681 Q389.927 892.729 397.911 892.729 Q400.055 892.729 402.227 893.152 Q404.428 893.575 406.798 894.421 Z" fill="#000000" fill-rule="evenodd" fill-opacity="1" /><path clip-path="url(#clip150)" d="M135.658 557.104 L160.137 557.104 L160.137 563.006 L127.22 563.006 L127.22 557.104 Q131.213 552.972 138.088 546.027 Q144.998 539.048 146.769 537.034 Q150.137 533.25 151.456 530.645 Q152.81 528.007 152.81 525.472 Q152.81 521.34 149.894 518.736 Q147.012 516.132 142.359 516.132 Q139.06 516.132 135.38 517.277 Q131.734 518.423 127.567 520.75 L127.567 513.666 Q131.803 511.965 135.484 511.097 Q139.165 510.229 142.22 510.229 Q150.276 510.229 155.067 514.257 Q159.859 518.284 159.859 525.021 Q159.859 528.215 158.644 531.097 Q157.463 533.944 154.303 537.833 Q153.435 538.84 148.783 543.666 Q144.13 548.458 135.658 557.104 Z" fill="#000000" fill-rule="evenodd" fill-opacity="1" /><path clip-path="url(#clip150)" d="M174.859 554.187 L182.185 554.187 L182.185 563.006 L174.859 563.006 L174.859 554.187 Z" fill="#000000" fill-rule="evenodd" fill-opacity="1" /><path clip-path="url(#clip150)" d="M212.463 515.784 Q207.046 515.784 204.303 521.132 Q201.595 526.444 201.595 537.139 Q201.595 547.798 204.303 553.145 Q207.046 558.458 212.463 558.458 Q217.914 558.458 220.622 553.145 Q223.365 547.798 223.365 537.139 Q223.365 526.444 220.622 521.132 Q217.914 515.784 212.463 515.784 M212.463 510.229 Q221.178 510.229 225.761 517.139 Q230.379 524.014 230.379 537.139 Q230.379 550.229 225.761 557.138 Q221.178 564.013 212.463 564.013 Q203.748 564.013 199.129 557.138 Q194.546 550.229 194.546 537.139 Q194.546 524.014 199.129 517.139 Q203.748 510.229 212.463 510.229 Z" fill="#000000" fill-rule="evenodd" fill-opacity="1" /><path clip-path="url(#clip150)" d="M284.962 524.812 L269.094 540.75 L284.962 556.618 L280.83 560.819 L264.893 544.882 L248.956 560.819 L244.858 556.618 L260.692 540.75 L244.858 524.812 L248.956 520.611 L264.893 536.548 L280.83 520.611 L284.962 524.812 Z" fill="#000000" fill-rule="evenodd" fill-opacity="1" /><path clip-path="url(#clip150)" d="M303.504 557.104 L314.962 557.104 L314.962 517.555 L302.497 520.055 L302.497 513.666 L314.893 511.166 L321.907 511.166 L321.907 557.104 L333.365 557.104 L333.365 563.006 L303.504 563.006 L303.504 557.104 Z" fill="#000000" fill-rule="evenodd" fill-opacity="1" /><path clip-path="url(#clip150)" d="M362.531 515.784 Q357.115 515.784 354.372 521.132 Q351.663 526.444 351.663 537.139 Q351.663 547.798 354.372 553.145 Q357.115 558.458 362.531 558.458 Q367.983 558.458 370.691 553.145 Q373.434 547.798 373.434 537.139 Q373.434 526.444 370.691 521.132 Q367.983 515.784 362.531 515.784 M362.531 510.229 Q371.247 510.229 375.83 517.139 Q380.448 524.014 380.448 537.139 Q380.448 550.229 375.83 557.138 Q371.247 564.013 362.531 564.013 Q353.816 564.013 349.198 557.138 Q344.615 550.229 344.615 537.139 Q344.615 524.014 349.198 517.139 Q353.816 510.229 362.531 510.229 Z" fill="#000000" fill-rule="evenodd" fill-opacity="1" /><path clip-path="url(#clip150)" d="M395.485 498.56 Q391.648 498.56 389.391 501.183 Q387.162 503.807 387.162 508.377 Q387.162 512.92 389.391 515.571 Q391.648 518.195 395.485 518.195 Q399.322 518.195 401.55 515.571 Q403.807 512.92 403.807 508.377 Q403.807 503.807 401.55 501.183 Q399.322 498.56 395.485 498.56 M406.798 480.702 L406.798 485.893 Q404.654 484.877 402.453 484.341 Q400.281 483.805 398.137 483.805 Q392.494 483.805 389.504 487.614 Q386.542 491.422 386.119 499.124 Q387.783 496.67 390.294 495.372 Q392.805 494.046 395.823 494.046 Q402.171 494.046 405.838 497.911 Q409.534 501.748 409.534 508.377 Q409.534 514.866 405.697 518.788 Q401.861 522.709 395.485 522.709 Q388.178 522.709 384.313 517.123 Q380.448 511.509 380.448 500.873 Q380.448 490.886 385.188 484.962 Q389.927 479.009 397.911 479.009 Q400.055 479.009 402.227 479.432 Q404.428 479.855 406.798 480.702 Z" fill="#000000" fill-rule="evenodd" fill-opacity="1" /><path clip-path="url(#clip150)" d="M150.866 121.336 Q155.901 122.412 158.713 125.815 Q161.56 129.218 161.56 134.218 Q161.56 141.891 156.283 146.092 Q151.005 150.294 141.283 150.294 Q138.019 150.294 134.547 149.634 Q131.109 149.009 127.428 147.724 L127.428 140.954 Q130.345 142.655 133.817 143.523 Q137.29 144.391 141.074 144.391 Q147.671 144.391 151.109 141.787 Q154.581 139.183 154.581 134.218 Q154.581 129.634 151.352 127.065 Q148.158 124.461 142.428 124.461 L136.387 124.461 L136.387 118.697 L142.706 118.697 Q147.88 118.697 150.623 116.648 Q153.366 114.565 153.366 110.676 Q153.366 106.683 150.519 104.565 Q147.706 102.412 142.428 102.412 Q139.546 102.412 136.248 103.037 Q132.949 103.662 128.991 104.982 L128.991 98.7316 Q132.984 97.6205 136.456 97.0649 Q139.963 96.5094 143.053 96.5094 Q151.039 96.5094 155.692 100.155 Q160.345 103.766 160.345 109.947 Q160.345 114.252 157.88 117.238 Q155.414 120.19 150.866 121.336 Z" fill="#000000" fill-rule="evenodd" fill-opacity="1" /><path clip-path="url(#clip150)" d="M174.859 140.467 L182.185 140.467 L182.185 149.287 L174.859 149.287 L174.859 140.467 Z" fill="#000000" fill-rule="evenodd" fill-opacity="1" /><path clip-path="url(#clip150)" d="M212.463 102.065 Q207.046 102.065 204.303 107.412 Q201.595 112.725 201.595 123.419 Q201.595 134.079 204.303 139.426 Q207.046 144.738 212.463 144.738 Q217.914 144.738 220.622 139.426 Q223.365 134.079 223.365 123.419 Q223.365 112.725 220.622 107.412 Q217.914 102.065 212.463 102.065 M212.463 96.5094 Q221.178 96.5094 225.761 103.419 Q230.379 110.294 230.379 123.419 Q230.379 136.509 225.761 143.419 Q221.178 150.294 212.463 150.294 Q203.748 150.294 199.129 143.419 Q194.546 136.509 194.546 123.419 Q194.546 110.294 199.129 103.419 Q203.748 96.5094 212.463 96.5094 Z" fill="#000000" fill-rule="evenodd" fill-opacity="1" /><path clip-path="url(#clip150)" d="M284.962 111.093 L269.094 127.03 L284.962 142.898 L280.83 147.099 L264.893 131.162 L248.956 147.099 L244.858 142.898 L260.692 127.03 L244.858 111.093 L248.956 106.891 L264.893 122.829 L280.83 106.891 L284.962 111.093 Z" fill="#000000" fill-rule="evenodd" fill-opacity="1" /><path clip-path="url(#clip150)" d="M303.504 143.384 L314.962 143.384 L314.962 103.836 L302.497 106.336 L302.497 99.9469 L314.893 97.4469 L321.907 97.4469 L321.907 143.384 L333.365 143.384 L333.365 149.287 L303.504 149.287 L303.504 143.384 Z" fill="#000000" fill-rule="evenodd" fill-opacity="1" /><path clip-path="url(#clip150)" d="M362.531 102.065 Q357.115 102.065 354.372 107.412 Q351.663 112.725 351.663 123.419 Q351.663 134.079 354.372 139.426 Q357.115 144.738 362.531 144.738 Q367.983 144.738 370.691 139.426 Q373.434 134.079 373.434 123.419 Q373.434 112.725 370.691 107.412 Q367.983 102.065 362.531 102.065 M362.531 96.5094 Q371.247 96.5094 375.83 103.419 Q380.448 110.294 380.448 123.419 Q380.448 136.509 375.83 143.419 Q371.247 150.294 362.531 150.294 Q353.816 150.294 349.198 143.419 Q344.615 136.509 344.615 123.419 Q344.615 110.294 349.198 103.419 Q353.816 96.5094 362.531 96.5094 Z" fill="#000000" fill-rule="evenodd" fill-opacity="1" /><path clip-path="url(#clip150)" d="M395.485 84.8402 Q391.648 84.8402 389.391 87.4639 Q387.162 90.0876 387.162 94.6579 Q387.162 99.2 389.391 101.852 Q391.648 104.476 395.485 104.476 Q399.322 104.476 401.55 101.852 Q403.807 99.2 403.807 94.6579 Q403.807 90.0876 401.55 87.4639 Q399.322 84.8402 395.485 84.8402 M406.798 66.9823 L406.798 72.1732 Q404.654 71.1576 402.453 70.6216 Q400.281 70.0855 398.137 70.0855 Q392.494 70.0855 389.504 73.8941 Q386.542 77.7027 386.119 85.4045 Q387.783 82.9501 390.294 81.6523 Q392.805 80.3264 395.823 80.3264 Q402.171 80.3264 405.838 84.1914 Q409.534 88.0281 409.534 94.6579 Q409.534 101.147 405.697 105.068 Q401.861 108.989 395.485 108.989 Q388.178 108.989 384.313 103.404 Q380.448 97.7894 380.448 87.1536 Q380.448 77.1667 385.188 71.2422 Q389.927 65.2896 397.911 65.2896 Q400.055 65.2896 402.227 65.7127 Q404.428 66.1359 406.798 66.9823 Z" fill="#000000" fill-rule="evenodd" fill-opacity="1" /><path clip-path="url(#clip150)" d="M12.5962 955.146 L12.5962 916.905 L19.4827 916.905 L19.4827 946.963 L37.3877 946.963 L37.3877 918.161 L44.2742 918.161 L44.2742 946.963 L66.1896 946.963 L66.1896 916.176 L73.0762 916.176 L73.0762 955.146 L12.5962 955.146 Z" fill="#000000" fill-rule="evenodd" fill-opacity="1" /><path clip-path="url(#clip150)" d="M45.692 865.337 L73.0762 865.337 L73.0762 872.791 L45.9351 872.791 Q39.4942 872.791 36.2939 875.302 Q33.0937 877.814 33.0937 882.837 Q33.0937 888.873 36.9421 892.357 Q40.7905 895.84 47.4339 895.84 L73.0762 895.84 L73.0762 903.335 L27.706 903.335 L27.706 895.84 L34.7546 895.84 Q30.6632 893.167 28.6377 889.562 Q26.6123 885.916 26.6123 881.176 Q26.6123 873.358 31.4734 869.348 Q36.2939 865.337 45.692 865.337 Z" fill="#000000" fill-rule="evenodd" fill-opacity="1" /><path clip-path="url(#clip150)" d="M48.5277 811.663 L52.1735 811.663 L52.1735 845.933 Q59.8702 845.447 63.9211 841.315 Q67.9315 837.143 67.9315 829.73 Q67.9315 825.436 66.8783 821.425 Q65.825 817.374 63.7186 813.405 L70.7671 813.405 Q72.4685 817.415 73.3597 821.628 Q74.2509 825.841 74.2509 830.175 Q74.2509 841.032 67.9315 847.392 Q61.6121 853.711 50.8367 853.711 Q39.6967 853.711 33.1748 847.716 Q26.6123 841.68 26.6123 831.472 Q26.6123 822.317 32.5266 817.01 Q38.4004 811.663 48.5277 811.663 M46.3402 819.116 Q40.2233 819.197 36.5775 822.56 Q32.9317 825.881 32.9317 831.391 Q32.9317 837.629 36.456 841.396 Q39.9803 845.123 46.3807 845.69 L46.3402 819.116 Z" fill="#000000" fill-rule="evenodd" fill-opacity="1" /><path clip-path="url(#clip150)" d="M34.6736 773.139 Q33.9444 774.394 33.6204 775.893 Q33.2558 777.351 33.2558 779.134 Q33.2558 785.453 37.3877 788.856 Q41.4791 792.218 49.1758 792.218 L73.0762 792.218 L73.0762 799.712 L27.706 799.712 L27.706 792.218 L34.7546 792.218 Q30.6227 789.869 28.6377 786.101 Q26.6123 782.334 26.6123 776.946 Q26.6123 776.177 26.7338 775.245 Q26.8148 774.313 27.0174 773.179 L34.6736 773.139 Z" fill="#000000" fill-rule="evenodd" fill-opacity="1" /><path clip-path="url(#clip150)" d="M49.8645 736.923 Q41.7627 736.923 37.3067 740.286 Q32.8507 743.607 32.8507 749.643 Q32.8507 755.639 37.3067 759.001 Q41.7627 762.323 49.8645 762.323 Q57.9258 762.323 62.3818 759.001 Q66.8378 755.639 66.8378 749.643 Q66.8378 743.607 62.3818 740.286 Q57.9258 736.923 49.8645 736.923 M67.4454 729.47 Q79.031 729.47 84.6617 734.614 Q90.333 739.759 90.333 750.372 Q90.333 754.302 89.7254 757.786 Q89.1582 761.269 87.943 764.551 L80.6919 764.551 Q82.4743 761.269 83.3249 758.069 Q84.1756 754.869 84.1756 751.547 Q84.1756 744.215 80.3273 740.569 Q76.5194 736.923 68.7822 736.923 L65.0959 736.923 Q69.1063 739.232 71.0912 742.838 Q73.0762 746.443 73.0762 751.466 Q73.0762 759.811 66.7162 764.915 Q60.3563 770.019 49.8645 770.019 Q39.3321 770.019 32.9722 764.915 Q26.6123 759.811 26.6123 751.466 Q26.6123 746.443 28.5972 742.838 Q30.5822 739.232 34.5926 736.923 L27.706 736.923 L27.706 729.47 L67.4454 729.47 Z" fill="#000000" fill-rule="evenodd" fill-opacity="1" /><path clip-path="url(#clip150)" d="M77.2891 695.24 Q85.3909 698.399 87.862 701.397 Q90.333 704.395 90.333 709.418 L90.333 715.373 L84.0946 715.373 L84.0946 710.998 Q84.0946 707.919 82.6363 706.218 Q81.178 704.516 75.7498 702.45 L72.347 701.113 L27.706 719.464 L27.706 711.565 L63.192 697.387 L27.706 683.208 L27.706 675.309 L77.2891 695.24 Z" fill="#000000" fill-rule="evenodd" fill-opacity="1" /><path clip-path="url(#clip150)" d="M12.5962 625.402 L12.5962 618.516 L80.7729 639.58 L80.7729 646.467 L12.5962 625.402 Z" fill="#000000" fill-rule="evenodd" fill-opacity="1" /><path clip-path="url(#clip150)" d="M48.5277 545.518 L52.1735 545.518 L52.1735 579.789 Q59.8702 579.303 63.9211 575.171 Q67.9315 570.998 67.9315 563.585 Q67.9315 559.291 66.8783 555.281 Q65.825 551.23 63.7186 547.26 L70.7671 547.26 Q72.4685 551.271 73.3597 555.483 Q74.2509 559.696 74.2509 564.031 Q74.2509 574.887 67.9315 581.247 Q61.6121 587.567 50.8367 587.567 Q39.6967 587.567 33.1748 581.571 Q26.6123 575.535 26.6123 565.327 Q26.6123 556.172 32.5266 550.865 Q38.4004 545.518 48.5277 545.518 M46.3402 552.972 Q40.2233 553.053 36.5775 556.415 Q32.9317 559.737 32.9317 565.246 Q32.9317 571.485 36.456 575.252 Q39.9803 578.979 46.3807 579.546 L46.3402 552.972 Z" fill="#000000" fill-rule="evenodd" fill-opacity="1" /><path clip-path="url(#clip150)" d="M73.0762 517.364 L12.5962 540.455 L12.5962 531.907 L63.516 512.746 L12.5962 493.545 L12.5962 485.038 L73.0762 508.088 L73.0762 517.364 Z" fill="#000000" fill-rule="evenodd" fill-opacity="1" /><polyline clip-path="url(#clip152)" style="stroke:#009af9; stroke-linecap:butt; stroke-linejoin:round; stroke-width:6; stroke-opacity:1; fill:none" points="
  445.534,1354.85 454.203,1353.3 462.873,1351.75 471.542,1350.19 480.211,1348.62 488.88,1347.1 497.549,1345.56 506.219,1344.01 514.888,1342.45 523.557,1340.91 
  532.226,1339.43 540.895,1337.96 549.564,1336.47 558.234,1334.97 566.903,1333.54 575.572,1332.15 584.241,1330.75 592.91,1329.32 601.58,1327.85 610.249,1326.34 
  618.918,1324.87 627.587,1323.47 636.256,1322.17 644.926,1320.9 653.595,1319.59 662.264,1318.26 670.933,1316.95 679.602,1315.62 688.271,1314.25 696.941,1312.84 
  705.61,1311.75 714.279,1310.63 722.948,1309.47 731.617,1308.27 740.287,1307.03 748.956,1305.75 757.625,1304.43 766.294,1303.05 774.963,1301.59 783.633,1300.08 
  792.302,1298.52 800.971,1296.89 809.64,1295.2 818.309,1293.44 826.979,1291.61 835.648,1289.71 844.317,1287.74 852.986,1285.7 861.655,1283.56 870.324,1281.33 
  878.994,1279.02 887.663,1276.62 896.332,1274.1 905.001,1271.49 913.67,1268.74 922.34,1265.87 931.009,1262.9 939.678,1259.73 948.347,1256.47 957.016,1253.01 
  965.686,1249.38 974.355,1245.57 983.024,1241.5 991.693,1237.27 1000.36,1232.73 1009.03,1227.9 1017.7,1222.73 1026.37,1217.18 1035.04,1211.19 1043.71,1204.69 
  1052.38,1197.62 1061.05,1189.89 1069.72,1181.34 1078.39,1171.88 1087.05,1161.27 1095.72,1149.32 1104.39,1135.83 1113.06,1120.38 1121.73,1102.61 1130.4,1082.06 
  1139.07,1058.06 1147.74,1029.98 1156.41,997.024 1165.08,958.179 1173.75,912.491 1182.42,859.35 1191.08,799.004 1199.75,733.4 1208.42,706.723 1217.09,705.351 
  1225.76,703.911 1234.43,702.421 1243.1,700.857 1251.77,699.209 1260.44,697.502 1269.11,695.695 1277.78,693.808 1286.45,691.846 1295.11,689.744 1303.78,687.567 
  1312.45,685.249 1321.12,682.798 1329.79,680.224 1338.46,677.478 1347.13,674.525 1355.8,671.376 1364.47,667.993 1373.14,664.349 1381.81,660.369 1390.48,656.027 
  1399.15,651.261 1407.81,646.007 1416.48,640.132 1425.15,633.566 1433.82,626.159 1442.49,617.745 1451.16,608.118 1459.83,597.019 1468.5,584.177 1477.17,569.173 
  1485.84,551.533 1494.51,530.785 1503.18,506.27 1511.84,477.302 1520.51,443.299 1529.18,404.154 1537.85,360.716 1546.52,327.208 1555.19,326.96 1563.86,326.707 
  1572.53,326.448 1581.2,326.185 1589.87,325.914 1598.54,325.636 1607.21,325.344 1615.87,325.042 1624.54,324.732 1633.21,324.414 1641.88,324.086 1650.55,323.751 
  1659.22,323.396 1667.89,323.026 1676.56,322.644 1685.23,322.25 1693.9,321.844 1702.57,321.426 1711.24,320.991 1719.91,320.534 1728.57,320.058 1737.24,319.565 
  1745.91,319.05 1754.58,318.51 1763.25,317.949 1771.92,317.369 1780.59,316.76 1789.26,316.124 1797.93,315.463 1806.6,314.78 1815.27,314.055 1823.94,313.301 
  1832.6,312.52 1841.27,311.701 1849.94,310.84 1858.61,309.946 1867.28,309.001 1875.95,308.016 1884.62,306.992 1893.29,305.894 1901.96,304.757 1910.63,303.555 
  1919.3,302.282 1927.97,300.956 1936.63,299.523 1945.3,298.03 1953.97,296.426 1962.64,294.713 1971.31,292.881 1979.98,290.912 1988.65,288.771 1997.32,286.45 
  2005.99,283.908 2014.66,281.106 2023.33,278.006 2032,274.56 2040.67,270.696 2049.33,266.316 2058,261.355 2066.67,255.658 2075.34,249.087 2084.01,241.473 
  2092.68,232.572 2101.35,222.087 2110.02,209.762 2118.69,195.186 2127.36,177.943 2136.03,157.677 2144.7,134.295 2153.36,108.253 2162.03,85.3309 2170.7,85.3298 
  2179.37,85.3298 2188.04,85.3298 
  "/>
</svg>
