<?xml version="1.0" encoding="utf-8"?>
<svg xmlns="http://www.w3.org/2000/svg" xmlns:xlink="http://www.w3.org/1999/xlink" width="600" height="400" viewBox="0 0 2400 1600">
<defs>
  <clipPath id="clip010">
    <rect x="0" y="0" width="2400" height="1600"/>
  </clipPath>
</defs>
<path clip-path="url(#clip010)" d="
M0 1600 L2400 1600 L2400 0 L0 0  Z
  " fill="#ffffff" fill-rule="evenodd" fill-opacity="1"/>
<defs>
  <clipPath id="clip011">
    <rect x="480" y="0" width="1681" height="1600"/>
  </clipPath>
</defs>
<path clip-path="url(#clip010)" d="
M445.534 1392.94 L2352.76 1392.94 L2352.76 47.2441 L445.534 47.2441  Z
  " fill="#ffffff" fill-rule="evenodd" fill-opacity="1"/>
<defs>
  <clipPath id="clip012">
    <rect x="445" y="47" width="1908" height="1347"/>
  </clipPath>
</defs>
<polyline clip-path="url(#clip012)" style="stroke:#000000; stroke-linecap:butt; stroke-linejoin:round; stroke-width:2; stroke-opacity:0.1; fill:none" points="
  445.534,1392.94 445.534,47.2441 
  "/>
<polyline clip-path="url(#clip012)" style="stroke:#000000; stroke-linecap:butt; stroke-linejoin:round; stroke-width:2; stroke-opacity:0.1; fill:none" points="
  878.994,1392.94 878.994,47.2441 
  "/>
<polyline clip-path="url(#clip012)" style="stroke:#000000; stroke-linecap:butt; stroke-linejoin:round; stroke-width:2; stroke-opacity:0.1; fill:none" points="
  1312.45,1392.94 1312.45,47.2441 
  "/>
<polyline clip-path="url(#clip012)" style="stroke:#000000; stroke-linecap:butt; stroke-linejoin:round; stroke-width:2; stroke-opacity:0.1; fill:none" points="
  1745.91,1392.94 1745.91,47.2441 
  "/>
<polyline clip-path="url(#clip012)" style="stroke:#000000; stroke-linecap:butt; stroke-linejoin:round; stroke-width:2; stroke-opacity:0.1; fill:none" points="
  2179.37,1392.94 2179.37,47.2441 
  "/>
<polyline clip-path="url(#clip010)" style="stroke:#000000; stroke-linecap:butt; stroke-linejoin:round; stroke-width:4; stroke-opacity:1; fill:none" points="
  445.534,1392.94 2352.76,1392.94 
  "/>
<polyline clip-path="url(#clip010)" style="stroke:#000000; stroke-linecap:butt; stroke-linejoin:round; stroke-width:4; stroke-opacity:1; fill:none" points="
  445.534,1392.94 445.534,1376.79 
  "/>
<polyline clip-path="url(#clip010)" style="stroke:#000000; stroke-linecap:butt; stroke-linejoin:round; stroke-width:4; stroke-opacity:1; fill:none" points="
  878.994,1392.94 878.994,1376.79 
  "/>
<polyline clip-path="url(#clip010)" style="stroke:#000000; stroke-linecap:butt; stroke-linejoin:round; stroke-width:4; stroke-opacity:1; fill:none" points="
  1312.45,1392.94 1312.45,1376.79 
  "/>
<polyline clip-path="url(#clip010)" style="stroke:#000000; stroke-linecap:butt; stroke-linejoin:round; stroke-width:4; stroke-opacity:1; fill:none" points="
  1745.91,1392.94 1745.91,1376.79 
  "/>
<polyline clip-path="url(#clip010)" style="stroke:#000000; stroke-linecap:butt; stroke-linejoin:round; stroke-width:4; stroke-opacity:1; fill:none" points="
  2179.37,1392.94 2179.37,1376.79 
  "/>
<path clip-path="url(#clip010)" d="M445.534 1427.13 Q440.118 1427.13 437.375 1432.47 Q434.666 1437.79 434.666 1448.48 Q434.666 1459.14 437.375 1464.49 Q440.118 1469.8 445.534 1469.8 Q450.986 1469.8 453.694 1464.49 Q456.437 1459.14 456.437 1448.48 Q456.437 1437.79 453.694 1432.47 Q450.986 1427.13 445.534 1427.13 M445.534 1421.57 Q454.249 1421.57 458.833 1428.48 Q463.451 1435.35 463.451 1448.48 Q463.451 1461.57 458.833 1468.48 Q454.249 1475.35 445.534 1475.35 Q436.819 1475.35 432.201 1468.48 Q427.618 1461.57 427.618 1448.48 Q427.618 1435.35 432.201 1428.48 Q436.819 1421.57 445.534 1421.57 Z" fill="#000000" fill-rule="evenodd" fill-opacity="1" /><path clip-path="url(#clip010)" d="M824.532 1468.45 L849.011 1468.45 L849.011 1474.35 L816.095 1474.35 L816.095 1468.45 Q820.088 1464.31 826.963 1457.37 Q833.872 1450.39 835.643 1448.38 Q839.011 1444.59 840.331 1441.99 Q841.685 1439.35 841.685 1436.81 Q841.685 1432.68 838.768 1430.08 Q835.886 1427.47 831.234 1427.47 Q827.935 1427.47 824.254 1428.62 Q820.609 1429.76 816.442 1432.09 L816.442 1425.01 Q820.678 1423.31 824.359 1422.44 Q828.039 1421.57 831.095 1421.57 Q839.15 1421.57 843.942 1425.6 Q848.733 1429.63 848.733 1436.36 Q848.733 1439.56 847.518 1442.44 Q846.338 1445.29 843.178 1449.17 Q842.31 1450.18 837.657 1455.01 Q833.004 1459.8 824.532 1468.45 Z" fill="#000000" fill-rule="evenodd" fill-opacity="1" /><path clip-path="url(#clip010)" d="M863.803 1422.51 L891.337 1422.51 L891.337 1428.41 L870.226 1428.41 L870.226 1441.12 Q871.754 1440.6 873.282 1440.35 Q874.81 1440.08 876.337 1440.08 Q885.018 1440.08 890.087 1444.83 Q895.157 1449.59 895.157 1457.72 Q895.157 1466.08 889.948 1470.74 Q884.74 1475.35 875.261 1475.35 Q871.997 1475.35 868.594 1474.8 Q865.226 1474.24 861.615 1473.13 L861.615 1466.08 Q864.74 1467.79 868.074 1468.62 Q871.407 1469.45 875.122 1469.45 Q881.129 1469.45 884.636 1466.29 Q888.143 1463.13 888.143 1457.72 Q888.143 1452.3 884.636 1449.14 Q881.129 1445.98 875.122 1445.98 Q872.31 1445.98 869.497 1446.6 Q866.719 1447.23 863.803 1448.55 L863.803 1422.51 Z" fill="#000000" fill-rule="evenodd" fill-opacity="1" /><path clip-path="url(#clip010)" d="M923.976 1427.13 Q918.559 1427.13 915.816 1432.47 Q913.108 1437.79 913.108 1448.48 Q913.108 1459.14 915.816 1464.49 Q918.559 1469.8 923.976 1469.8 Q929.427 1469.8 932.136 1464.49 Q934.879 1459.14 934.879 1448.48 Q934.879 1437.79 932.136 1432.47 Q929.427 1427.13 923.976 1427.13 M923.976 1421.57 Q932.691 1421.57 937.275 1428.48 Q941.893 1435.35 941.893 1448.48 Q941.893 1461.57 937.275 1468.48 Q932.691 1475.35 923.976 1475.35 Q915.261 1475.35 910.643 1468.48 Q906.059 1461.57 906.059 1448.48 Q906.059 1435.35 910.643 1428.48 Q915.261 1421.57 923.976 1421.57 Z" fill="#000000" fill-rule="evenodd" fill-opacity="1" /><path clip-path="url(#clip010)" d="M1251.88 1422.51 L1279.42 1422.51 L1279.42 1428.41 L1258.3 1428.41 L1258.3 1441.12 Q1259.83 1440.6 1261.36 1440.35 Q1262.89 1440.08 1264.42 1440.08 Q1273.1 1440.08 1278.17 1444.83 Q1283.23 1449.59 1283.23 1457.72 Q1283.23 1466.08 1278.03 1470.74 Q1272.82 1475.35 1263.34 1475.35 Q1260.07 1475.35 1256.67 1474.8 Q1253.3 1474.24 1249.69 1473.13 L1249.69 1466.08 Q1252.82 1467.79 1256.15 1468.62 Q1259.48 1469.45 1263.2 1469.45 Q1269.21 1469.45 1272.71 1466.29 Q1276.22 1463.13 1276.22 1457.72 Q1276.22 1452.3 1272.71 1449.14 Q1269.21 1445.98 1263.2 1445.98 Q1260.39 1445.98 1257.57 1446.6 Q1254.8 1447.23 1251.88 1448.55 L1251.88 1422.51 Z" fill="#000000" fill-rule="evenodd" fill-opacity="1" /><path clip-path="url(#clip010)" d="M1312.05 1427.13 Q1306.64 1427.13 1303.89 1432.47 Q1301.19 1437.79 1301.19 1448.48 Q1301.19 1459.14 1303.89 1464.49 Q1306.64 1469.8 1312.05 1469.8 Q1317.51 1469.8 1320.21 1464.49 Q1322.96 1459.14 1322.96 1448.48 Q1322.96 1437.79 1320.21 1432.47 Q1317.51 1427.13 1312.05 1427.13 M1312.05 1421.57 Q1320.77 1421.57 1325.35 1428.48 Q1329.97 1435.35 1329.97 1448.48 Q1329.97 1461.57 1325.35 1468.48 Q1320.77 1475.35 1312.05 1475.35 Q1303.34 1475.35 1298.72 1468.48 Q1294.14 1461.57 1294.14 1448.48 Q1294.14 1435.35 1298.72 1428.48 Q1303.34 1421.57 1312.05 1421.57 Z" fill="#000000" fill-rule="evenodd" fill-opacity="1" /><path clip-path="url(#clip010)" d="M1357.3 1427.13 Q1351.88 1427.13 1349.14 1432.47 Q1346.43 1437.79 1346.43 1448.48 Q1346.43 1459.14 1349.14 1464.49 Q1351.88 1469.8 1357.3 1469.8 Q1362.75 1469.8 1365.46 1464.49 Q1368.2 1459.14 1368.2 1448.48 Q1368.2 1437.79 1365.46 1432.47 Q1362.75 1427.13 1357.3 1427.13 M1357.3 1421.57 Q1366.01 1421.57 1370.6 1428.48 Q1375.21 1435.35 1375.21 1448.48 Q1375.21 1461.57 1370.6 1468.48 Q1366.01 1475.35 1357.3 1475.35 Q1348.58 1475.35 1343.96 1468.48 Q1339.38 1461.57 1339.38 1448.48 Q1339.38 1435.35 1343.96 1428.48 Q1348.58 1421.57 1357.3 1421.57 Z" fill="#000000" fill-rule="evenodd" fill-opacity="1" /><path clip-path="url(#clip010)" d="M1683.33 1422.51 L1716.66 1422.51 L1716.66 1425.49 L1697.84 1474.35 L1690.51 1474.35 L1708.22 1428.41 L1683.33 1428.41 L1683.33 1422.51 Z" fill="#000000" fill-rule="evenodd" fill-opacity="1" /><path clip-path="url(#clip010)" d="M1730.41 1422.51 L1757.94 1422.51 L1757.94 1428.41 L1736.83 1428.41 L1736.83 1441.12 Q1738.36 1440.6 1739.89 1440.35 Q1741.42 1440.08 1742.94 1440.08 Q1751.62 1440.08 1756.69 1444.83 Q1761.76 1449.59 1761.76 1457.72 Q1761.76 1466.08 1756.55 1470.74 Q1751.35 1475.35 1741.87 1475.35 Q1738.6 1475.35 1735.2 1474.8 Q1731.83 1474.24 1728.22 1473.13 L1728.22 1466.08 Q1731.35 1467.79 1734.68 1468.62 Q1738.01 1469.45 1741.73 1469.45 Q1747.74 1469.45 1751.24 1466.29 Q1754.75 1463.13 1754.75 1457.72 Q1754.75 1452.3 1751.24 1449.14 Q1747.74 1445.98 1741.73 1445.98 Q1738.92 1445.98 1736.1 1446.6 Q1733.33 1447.23 1730.41 1448.55 L1730.41 1422.51 Z" fill="#000000" fill-rule="evenodd" fill-opacity="1" /><path clip-path="url(#clip010)" d="M1790.58 1427.13 Q1785.17 1427.13 1782.42 1432.47 Q1779.71 1437.79 1779.71 1448.48 Q1779.71 1459.14 1782.42 1464.49 Q1785.17 1469.8 1790.58 1469.8 Q1796.03 1469.8 1798.74 1464.49 Q1801.49 1459.14 1801.49 1448.48 Q1801.49 1437.79 1798.74 1432.47 Q1796.03 1427.13 1790.58 1427.13 M1790.58 1421.57 Q1799.3 1421.57 1803.88 1428.48 Q1808.5 1435.35 1808.5 1448.48 Q1808.5 1461.57 1803.88 1468.48 Q1799.3 1475.35 1790.58 1475.35 Q1781.87 1475.35 1777.25 1468.48 Q1772.67 1461.57 1772.67 1448.48 Q1772.67 1435.35 1777.25 1428.48 Q1781.87 1421.57 1790.58 1421.57 Z" fill="#000000" fill-rule="evenodd" fill-opacity="1" /><path clip-path="url(#clip010)" d="M2096.16 1468.45 L2107.62 1468.45 L2107.62 1428.9 L2095.15 1431.4 L2095.15 1425.01 L2107.55 1422.51 L2114.56 1422.51 L2114.56 1468.45 L2126.02 1468.45 L2126.02 1474.35 L2096.16 1474.35 L2096.16 1468.45 Z" fill="#000000" fill-rule="evenodd" fill-opacity="1" /><path clip-path="url(#clip010)" d="M2155.19 1427.13 Q2149.77 1427.13 2147.03 1432.47 Q2144.32 1437.79 2144.32 1448.48 Q2144.32 1459.14 2147.03 1464.49 Q2149.77 1469.8 2155.19 1469.8 Q2160.64 1469.8 2163.35 1464.49 Q2166.09 1459.14 2166.09 1448.48 Q2166.09 1437.79 2163.35 1432.47 Q2160.64 1427.13 2155.19 1427.13 M2155.19 1421.57 Q2163.9 1421.57 2168.49 1428.48 Q2173.1 1435.35 2173.1 1448.48 Q2173.1 1461.57 2168.49 1468.48 Q2163.9 1475.35 2155.19 1475.35 Q2146.47 1475.35 2141.85 1468.48 Q2137.27 1461.57 2137.27 1448.48 Q2137.27 1435.35 2141.85 1428.48 Q2146.47 1421.57 2155.19 1421.57 Z" fill="#000000" fill-rule="evenodd" fill-opacity="1" /><path clip-path="url(#clip010)" d="M2200.43 1427.13 Q2195.01 1427.13 2192.27 1432.47 Q2189.56 1437.79 2189.56 1448.48 Q2189.56 1459.14 2192.27 1464.49 Q2195.01 1469.8 2200.43 1469.8 Q2205.88 1469.8 2208.59 1464.49 Q2211.33 1459.14 2211.33 1448.48 Q2211.33 1437.79 2208.59 1432.47 Q2205.88 1427.13 2200.43 1427.13 M2200.43 1421.57 Q2209.15 1421.57 2213.73 1428.48 Q2218.35 1435.35 2218.35 1448.48 Q2218.35 1461.57 2213.73 1468.48 Q2209.15 1475.35 2200.43 1475.35 Q2191.72 1475.35 2187.1 1468.48 Q2182.51 1461.57 2182.51 1448.48 Q2182.51 1435.35 2187.1 1428.48 Q2191.72 1421.57 2200.43 1421.57 Z" fill="#000000" fill-rule="evenodd" fill-opacity="1" /><path clip-path="url(#clip010)" d="M2245.67 1427.13 Q2240.26 1427.13 2237.51 1432.47 Q2234.81 1437.79 2234.81 1448.48 Q2234.81 1459.14 2237.51 1464.49 Q2240.26 1469.8 2245.67 1469.8 Q2251.13 1469.8 2253.83 1464.49 Q2256.58 1459.14 2256.58 1448.48 Q2256.58 1437.79 2253.83 1432.47 Q2251.13 1427.13 2245.67 1427.13 M2245.67 1421.57 Q2254.39 1421.57 2258.97 1428.48 Q2263.59 1435.35 2263.59 1448.48 Q2263.59 1461.57 2258.97 1468.48 Q2254.39 1475.35 2245.67 1475.35 Q2236.96 1475.35 2232.34 1468.48 Q2227.76 1461.57 2227.76 1448.48 Q2227.76 1435.35 2232.34 1428.48 Q2236.96 1421.57 2245.67 1421.57 Z" fill="#000000" fill-rule="evenodd" fill-opacity="1" /><path clip-path="url(#clip010)" d="M1211.28 1518.8 L1262.45 1518.8 L1262.45 1525.68 L1240.98 1525.68 L1240.98 1579.28 L1232.75 1579.28 L1232.75 1525.68 L1211.28 1525.68 L1211.28 1518.8 Z" fill="#000000" fill-rule="evenodd" fill-opacity="1" /><path clip-path="url(#clip010)" d="M1267.47 1533.91 L1274.92 1533.91 L1274.92 1579.28 L1267.47 1579.28 L1267.47 1533.91 M1267.47 1516.24 L1274.92 1516.24 L1274.92 1525.68 L1267.47 1525.68 L1267.47 1516.24 Z" fill="#000000" fill-rule="evenodd" fill-opacity="1" /><path clip-path="url(#clip010)" d="M1325.84 1542.62 Q1328.64 1537.59 1332.53 1535.2 Q1336.42 1532.81 1341.68 1532.81 Q1348.77 1532.81 1352.62 1537.79 Q1356.47 1542.74 1356.47 1551.89 L1356.47 1579.28 L1348.97 1579.28 L1348.97 1552.13 Q1348.97 1545.61 1346.67 1542.45 Q1344.36 1539.29 1339.62 1539.29 Q1333.82 1539.29 1330.46 1543.14 Q1327.1 1546.99 1327.1 1553.63 L1327.1 1579.28 L1319.61 1579.28 L1319.61 1552.13 Q1319.61 1545.57 1317.3 1542.45 Q1314.99 1539.29 1310.17 1539.29 Q1304.46 1539.29 1301.09 1543.18 Q1297.73 1547.03 1297.73 1553.63 L1297.73 1579.28 L1290.24 1579.28 L1290.24 1533.91 L1297.73 1533.91 L1297.73 1540.95 Q1300.28 1536.78 1303.85 1534.8 Q1307.41 1532.81 1312.31 1532.81 Q1317.26 1532.81 1320.7 1535.32 Q1324.18 1537.84 1325.84 1542.62 Z" fill="#000000" fill-rule="evenodd" fill-opacity="1" /><path clip-path="url(#clip010)" d="M1410.14 1554.73 L1410.14 1558.37 L1375.87 1558.37 Q1376.36 1566.07 1380.49 1570.12 Q1384.66 1574.13 1392.08 1574.13 Q1396.37 1574.13 1400.38 1573.08 Q1404.43 1572.02 1408.4 1569.92 L1408.4 1576.97 Q1404.39 1578.67 1400.18 1579.56 Q1395.97 1580.45 1391.63 1580.45 Q1380.77 1580.45 1374.41 1574.13 Q1368.09 1567.81 1368.09 1557.04 Q1368.09 1545.9 1374.09 1539.37 Q1380.13 1532.81 1390.33 1532.81 Q1399.49 1532.81 1404.8 1538.73 Q1410.14 1544.6 1410.14 1554.73 M1402.69 1552.54 Q1402.61 1546.42 1399.25 1542.78 Q1395.92 1539.13 1390.42 1539.13 Q1384.18 1539.13 1380.41 1542.66 Q1376.68 1546.18 1376.12 1552.58 L1402.69 1552.54 Z" fill="#000000" fill-rule="evenodd" fill-opacity="1" /><path clip-path="url(#clip010)" d="M1461.99 1518.8 L1468.88 1518.8 L1447.82 1586.97 L1440.93 1586.97 L1461.99 1518.8 Z" fill="#000000" fill-rule="evenodd" fill-opacity="1" /><path clip-path="url(#clip010)" d="M1540.78 1551.89 L1540.78 1579.28 L1533.33 1579.28 L1533.33 1552.13 Q1533.33 1545.69 1530.82 1542.49 Q1528.31 1539.29 1523.29 1539.29 Q1517.25 1539.29 1513.77 1543.14 Q1510.28 1546.99 1510.28 1553.63 L1510.28 1579.28 L1502.79 1579.28 L1502.79 1533.91 L1510.28 1533.91 L1510.28 1540.95 Q1512.96 1536.86 1516.56 1534.84 Q1520.21 1532.81 1524.95 1532.81 Q1532.76 1532.81 1536.77 1537.67 Q1540.78 1542.49 1540.78 1551.89 Z" fill="#000000" fill-rule="evenodd" fill-opacity="1" /><path clip-path="url(#clip010)" d="M1584.58 1535.24 L1584.58 1542.29 Q1581.42 1540.67 1578.01 1539.86 Q1574.61 1539.05 1570.96 1539.05 Q1565.41 1539.05 1562.62 1540.75 Q1559.86 1542.45 1559.86 1545.86 Q1559.86 1548.45 1561.85 1549.95 Q1563.83 1551.41 1569.83 1552.74 L1572.38 1553.31 Q1580.32 1555.01 1583.64 1558.13 Q1587.01 1561.21 1587.01 1566.76 Q1587.01 1573.08 1581.98 1576.76 Q1577 1580.45 1568.25 1580.45 Q1564.6 1580.45 1560.63 1579.72 Q1556.7 1579.03 1552.33 1577.61 L1552.33 1569.92 Q1556.46 1572.07 1560.47 1573.16 Q1564.48 1574.21 1568.41 1574.21 Q1573.68 1574.21 1576.51 1572.43 Q1579.35 1570.61 1579.35 1567.33 Q1579.35 1564.29 1577.28 1562.67 Q1575.26 1561.05 1568.33 1559.55 L1565.74 1558.94 Q1558.81 1557.48 1555.73 1554.48 Q1552.65 1551.45 1552.65 1546.18 Q1552.65 1539.78 1557.19 1536.3 Q1561.73 1532.81 1570.07 1532.81 Q1574.2 1532.81 1577.85 1533.42 Q1581.5 1534.03 1584.58 1535.24 Z" fill="#000000" fill-rule="evenodd" fill-opacity="1" /><polyline clip-path="url(#clip012)" style="stroke:#000000; stroke-linecap:butt; stroke-linejoin:round; stroke-width:2; stroke-opacity:0.1; fill:none" points="
  445.534,1354.85 2352.76,1354.85 
  "/>
<polyline clip-path="url(#clip012)" style="stroke:#000000; stroke-linecap:butt; stroke-linejoin:round; stroke-width:2; stroke-opacity:0.1; fill:none" points="
  445.534,941.022 2352.76,941.022 
  "/>
<polyline clip-path="url(#clip012)" style="stroke:#000000; stroke-linecap:butt; stroke-linejoin:round; stroke-width:2; stroke-opacity:0.1; fill:none" points="
  445.534,527.189 2352.76,527.189 
  "/>
<polyline clip-path="url(#clip012)" style="stroke:#000000; stroke-linecap:butt; stroke-linejoin:round; stroke-width:2; stroke-opacity:0.1; fill:none" points="
  445.534,113.357 2352.76,113.357 
  "/>
<polyline clip-path="url(#clip010)" style="stroke:#000000; stroke-linecap:butt; stroke-linejoin:round; stroke-width:4; stroke-opacity:1; fill:none" points="
  445.534,1392.94 445.534,47.2441 
  "/>
<polyline clip-path="url(#clip010)" style="stroke:#000000; stroke-linecap:butt; stroke-linejoin:round; stroke-width:4; stroke-opacity:1; fill:none" points="
  445.534,1354.85 468.421,1354.85 
  "/>
<polyline clip-path="url(#clip010)" style="stroke:#000000; stroke-linecap:butt; stroke-linejoin:round; stroke-width:4; stroke-opacity:1; fill:none" points="
  445.534,941.022 468.421,941.022 
  "/>
<polyline clip-path="url(#clip010)" style="stroke:#000000; stroke-linecap:butt; stroke-linejoin:round; stroke-width:4; stroke-opacity:1; fill:none" points="
  445.534,527.189 468.421,527.189 
  "/>
<polyline clip-path="url(#clip010)" style="stroke:#000000; stroke-linecap:butt; stroke-linejoin:round; stroke-width:4; stroke-opacity:1; fill:none" points="
  445.534,113.357 468.421,113.357 
  "/>
<path clip-path="url(#clip010)" d="M391.618 1333.55 Q386.201 1333.55 383.458 1338.9 Q380.75 1344.21 380.75 1354.91 Q380.75 1365.57 383.458 1370.91 Q386.201 1376.23 391.618 1376.23 Q397.069 1376.23 399.777 1370.91 Q402.52 1365.57 402.52 1354.91 Q402.52 1344.21 399.777 1338.9 Q397.069 1333.55 391.618 1333.55 M391.618 1328 Q400.333 1328 404.916 1334.91 Q409.534 1341.78 409.534 1354.91 Q409.534 1368 404.916 1374.91 Q400.333 1381.78 391.618 1381.78 Q382.902 1381.78 378.284 1374.91 Q373.701 1368 373.701 1354.91 Q373.701 1341.78 378.284 1334.91 Q382.902 1328 391.618 1328 Z" fill="#000000" fill-rule="evenodd" fill-opacity="1" /><path clip-path="url(#clip010)" d="M130.831 970.71 L142.29 970.71 L142.29 931.162 L129.824 933.662 L129.824 927.273 L142.22 924.773 L149.234 924.773 L149.234 970.71 L160.692 970.71 L160.692 976.613 L130.831 976.613 L130.831 970.71 Z" fill="#000000" fill-rule="evenodd" fill-opacity="1" /><path clip-path="url(#clip010)" d="M174.859 967.794 L182.185 967.794 L182.185 976.613 L174.859 976.613 L174.859 967.794 Z" fill="#000000" fill-rule="evenodd" fill-opacity="1" /><path clip-path="url(#clip010)" d="M212.463 929.391 Q207.046 929.391 204.303 934.738 Q201.595 940.051 201.595 950.745 Q201.595 961.405 204.303 966.752 Q207.046 972.065 212.463 972.065 Q217.914 972.065 220.622 966.752 Q223.365 961.405 223.365 950.745 Q223.365 940.051 220.622 934.738 Q217.914 929.391 212.463 929.391 M212.463 923.836 Q221.178 923.836 225.761 930.745 Q230.379 937.62 230.379 950.745 Q230.379 963.835 225.761 970.745 Q221.178 977.62 212.463 977.62 Q203.748 977.62 199.129 970.745 Q194.546 963.835 194.546 950.745 Q194.546 937.62 199.129 930.745 Q203.748 923.836 212.463 923.836 Z" fill="#000000" fill-rule="evenodd" fill-opacity="1" /><path clip-path="url(#clip010)" d="M284.962 938.419 L269.094 954.356 L284.962 970.224 L280.83 974.426 L264.893 958.488 L248.956 974.426 L244.858 970.224 L260.692 954.356 L244.858 938.419 L248.956 934.218 L264.893 950.155 L280.83 934.218 L284.962 938.419 Z" fill="#000000" fill-rule="evenodd" fill-opacity="1" /><path clip-path="url(#clip010)" d="M303.504 970.71 L314.962 970.71 L314.962 931.162 L302.497 933.662 L302.497 927.273 L314.893 924.773 L321.907 924.773 L321.907 970.71 L333.365 970.71 L333.365 976.613 L303.504 976.613 L303.504 970.71 Z" fill="#000000" fill-rule="evenodd" fill-opacity="1" /><path clip-path="url(#clip010)" d="M362.531 929.391 Q357.115 929.391 354.372 934.738 Q351.663 940.051 351.663 950.745 Q351.663 961.405 354.372 966.752 Q357.115 972.065 362.531 972.065 Q367.983 972.065 370.691 966.752 Q373.434 961.405 373.434 950.745 Q373.434 940.051 370.691 934.738 Q367.983 929.391 362.531 929.391 M362.531 923.836 Q371.247 923.836 375.83 930.745 Q380.448 937.62 380.448 950.745 Q380.448 963.835 375.83 970.745 Q371.247 977.62 362.531 977.62 Q353.816 977.62 349.198 970.745 Q344.615 963.835 344.615 950.745 Q344.615 937.62 349.198 930.745 Q353.816 923.836 362.531 923.836 Z" fill="#000000" fill-rule="evenodd" fill-opacity="1" /><path clip-path="url(#clip010)" d="M395.485 912.167 Q391.648 912.167 389.391 914.79 Q387.162 917.414 387.162 921.984 Q387.162 926.526 389.391 929.178 Q391.648 931.802 395.485 931.802 Q399.322 931.802 401.55 929.178 Q403.807 926.526 403.807 921.984 Q403.807 917.414 401.55 914.79 Q399.322 912.167 395.485 912.167 M406.798 894.309 L406.798 899.5 Q404.654 898.484 402.453 897.948 Q400.281 897.412 398.137 897.412 Q392.494 897.412 389.504 901.22 Q386.542 905.029 386.119 912.731 Q387.783 910.276 390.294 908.979 Q392.805 907.653 395.823 907.653 Q402.171 907.653 405.838 911.518 Q409.534 915.354 409.534 921.984 Q409.534 928.473 405.697 932.394 Q401.861 936.316 395.485 936.316 Q388.178 936.316 384.313 930.73 Q380.448 925.116 380.448 914.48 Q380.448 904.493 385.188 898.569 Q389.927 892.616 397.911 892.616 Q400.055 892.616 402.227 893.039 Q404.428 893.462 406.798 894.309 Z" fill="#000000" fill-rule="evenodd" fill-opacity="1" /><path clip-path="url(#clip010)" d="M135.658 556.878 L160.137 556.878 L160.137 562.781 L127.22 562.781 L127.22 556.878 Q131.213 552.746 138.088 545.802 Q144.998 538.823 146.769 536.809 Q150.137 533.024 151.456 530.42 Q152.81 527.781 152.81 525.246 Q152.81 521.114 149.894 518.51 Q147.012 515.906 142.359 515.906 Q139.06 515.906 135.38 517.052 Q131.734 518.198 127.567 520.524 L127.567 513.441 Q131.803 511.739 135.484 510.871 Q139.165 510.003 142.22 510.003 Q150.276 510.003 155.067 514.031 Q159.859 518.059 159.859 524.795 Q159.859 527.989 158.644 530.871 Q157.463 533.719 154.303 537.607 Q153.435 538.614 148.783 543.441 Q144.13 548.232 135.658 556.878 Z" fill="#000000" fill-rule="evenodd" fill-opacity="1" /><path clip-path="url(#clip010)" d="M174.859 553.961 L182.185 553.961 L182.185 562.781 L174.859 562.781 L174.859 553.961 Z" fill="#000000" fill-rule="evenodd" fill-opacity="1" /><path clip-path="url(#clip010)" d="M212.463 515.559 Q207.046 515.559 204.303 520.906 Q201.595 526.219 201.595 536.913 Q201.595 547.573 204.303 552.92 Q207.046 558.232 212.463 558.232 Q217.914 558.232 220.622 552.92 Q223.365 547.573 223.365 536.913 Q223.365 526.219 220.622 520.906 Q217.914 515.559 212.463 515.559 M212.463 510.003 Q221.178 510.003 225.761 516.913 Q230.379 523.788 230.379 536.913 Q230.379 550.003 225.761 556.913 Q221.178 563.788 212.463 563.788 Q203.748 563.788 199.129 556.913 Q194.546 550.003 194.546 536.913 Q194.546 523.788 199.129 516.913 Q203.748 510.003 212.463 510.003 Z" fill="#000000" fill-rule="evenodd" fill-opacity="1" /><path clip-path="url(#clip010)" d="M284.962 524.587 L269.094 540.524 L284.962 556.392 L280.83 560.593 L264.893 544.656 L248.956 560.593 L244.858 556.392 L260.692 540.524 L244.858 524.587 L248.956 520.385 L264.893 536.323 L280.83 520.385 L284.962 524.587 Z" fill="#000000" fill-rule="evenodd" fill-opacity="1" /><path clip-path="url(#clip010)" d="M303.504 556.878 L314.962 556.878 L314.962 517.33 L302.497 519.83 L302.497 513.441 L314.893 510.941 L321.907 510.941 L321.907 556.878 L333.365 556.878 L333.365 562.781 L303.504 562.781 L303.504 556.878 Z" fill="#000000" fill-rule="evenodd" fill-opacity="1" /><path clip-path="url(#clip010)" d="M362.531 515.559 Q357.115 515.559 354.372 520.906 Q351.663 526.219 351.663 536.913 Q351.663 547.573 354.372 552.92 Q357.115 558.232 362.531 558.232 Q367.983 558.232 370.691 552.92 Q373.434 547.573 373.434 536.913 Q373.434 526.219 370.691 520.906 Q367.983 515.559 362.531 515.559 M362.531 510.003 Q371.247 510.003 375.83 516.913 Q380.448 523.788 380.448 536.913 Q380.448 550.003 375.83 556.913 Q371.247 563.788 362.531 563.788 Q353.816 563.788 349.198 556.913 Q344.615 550.003 344.615 536.913 Q344.615 523.788 349.198 516.913 Q353.816 510.003 362.531 510.003 Z" fill="#000000" fill-rule="evenodd" fill-opacity="1" /><path clip-path="url(#clip010)" d="M395.485 498.334 Q391.648 498.334 389.391 500.958 Q387.162 503.582 387.162 508.152 Q387.162 512.694 389.391 515.346 Q391.648 517.97 395.485 517.97 Q399.322 517.97 401.55 515.346 Q403.807 512.694 403.807 508.152 Q403.807 503.582 401.55 500.958 Q399.322 498.334 395.485 498.334 M406.798 480.476 L406.798 485.667 Q404.654 484.652 402.453 484.116 Q400.281 483.58 398.137 483.58 Q392.494 483.58 389.504 487.388 Q386.542 491.197 386.119 498.898 Q387.783 496.444 390.294 495.146 Q392.805 493.82 395.823 493.82 Q402.171 493.82 405.838 497.685 Q409.534 501.522 409.534 508.152 Q409.534 514.641 405.697 518.562 Q401.861 522.483 395.485 522.483 Q388.178 522.483 384.313 516.897 Q380.448 511.283 380.448 500.648 Q380.448 490.661 385.188 484.736 Q389.927 478.784 397.911 478.784 Q400.055 478.784 402.227 479.207 Q404.428 479.63 406.798 480.476 Z" fill="#000000" fill-rule="evenodd" fill-opacity="1" /><path clip-path="url(#clip010)" d="M150.866 120.997 Q155.901 122.074 158.713 125.476 Q161.56 128.879 161.56 133.879 Q161.56 141.553 156.283 145.754 Q151.005 149.955 141.283 149.955 Q138.019 149.955 134.547 149.296 Q131.109 148.671 127.428 147.386 L127.428 140.615 Q130.345 142.317 133.817 143.185 Q137.29 144.053 141.074 144.053 Q147.671 144.053 151.109 141.449 Q154.581 138.844 154.581 133.879 Q154.581 129.296 151.352 126.726 Q148.158 124.122 142.428 124.122 L136.387 124.122 L136.387 118.358 L142.706 118.358 Q147.88 118.358 150.623 116.31 Q153.366 114.226 153.366 110.338 Q153.366 106.345 150.519 104.227 Q147.706 102.074 142.428 102.074 Q139.546 102.074 136.248 102.699 Q132.949 103.324 128.991 104.643 L128.991 98.3933 Q132.984 97.2821 136.456 96.7266 Q139.963 96.171 143.053 96.171 Q151.039 96.171 155.692 99.8169 Q160.345 103.428 160.345 109.608 Q160.345 113.914 157.88 116.9 Q155.414 119.851 150.866 120.997 Z" fill="#000000" fill-rule="evenodd" fill-opacity="1" /><path clip-path="url(#clip010)" d="M174.859 140.129 L182.185 140.129 L182.185 148.949 L174.859 148.949 L174.859 140.129 Z" fill="#000000" fill-rule="evenodd" fill-opacity="1" /><path clip-path="url(#clip010)" d="M212.463 101.727 Q207.046 101.727 204.303 107.074 Q201.595 112.386 201.595 123.081 Q201.595 133.74 204.303 139.087 Q207.046 144.4 212.463 144.4 Q217.914 144.4 220.622 139.087 Q223.365 133.74 223.365 123.081 Q223.365 112.386 220.622 107.074 Q217.914 101.727 212.463 101.727 M212.463 96.171 Q221.178 96.171 225.761 103.081 Q230.379 109.956 230.379 123.081 Q230.379 136.171 225.761 143.081 Q221.178 149.955 212.463 149.955 Q203.748 149.955 199.129 143.081 Q194.546 136.171 194.546 123.081 Q194.546 109.956 199.129 103.081 Q203.748 96.171 212.463 96.171 Z" fill="#000000" fill-rule="evenodd" fill-opacity="1" /><path clip-path="url(#clip010)" d="M284.962 110.754 L269.094 126.692 L284.962 142.56 L280.83 146.761 L264.893 130.824 L248.956 146.761 L244.858 142.56 L260.692 126.692 L244.858 110.754 L248.956 106.553 L264.893 122.49 L280.83 106.553 L284.962 110.754 Z" fill="#000000" fill-rule="evenodd" fill-opacity="1" /><path clip-path="url(#clip010)" d="M303.504 143.046 L314.962 143.046 L314.962 103.497 L302.497 105.997 L302.497 99.6085 L314.893 97.1085 L321.907 97.1085 L321.907 143.046 L333.365 143.046 L333.365 148.949 L303.504 148.949 L303.504 143.046 Z" fill="#000000" fill-rule="evenodd" fill-opacity="1" /><path clip-path="url(#clip010)" d="M362.531 101.727 Q357.115 101.727 354.372 107.074 Q351.663 112.386 351.663 123.081 Q351.663 133.74 354.372 139.087 Q357.115 144.4 362.531 144.4 Q367.983 144.4 370.691 139.087 Q373.434 133.74 373.434 123.081 Q373.434 112.386 370.691 107.074 Q367.983 101.727 362.531 101.727 M362.531 96.171 Q371.247 96.171 375.83 103.081 Q380.448 109.956 380.448 123.081 Q380.448 136.171 375.83 143.081 Q371.247 149.955 362.531 149.955 Q353.816 149.955 349.198 143.081 Q344.615 136.171 344.615 123.081 Q344.615 109.956 349.198 103.081 Q353.816 96.171 362.531 96.171 Z" fill="#000000" fill-rule="evenodd" fill-opacity="1" /><path clip-path="url(#clip010)" d="M395.485 84.5019 Q391.648 84.5019 389.391 87.1256 Q387.162 89.7493 387.162 94.3196 Q387.162 98.8616 389.391 101.514 Q391.648 104.137 395.485 104.137 Q399.322 104.137 401.55 101.514 Q403.807 98.8616 403.807 94.3196 Q403.807 89.7493 401.55 87.1256 Q399.322 84.5019 395.485 84.5019 M406.798 66.6439 L406.798 71.8349 Q404.654 70.8192 402.453 70.2832 Q400.281 69.7472 398.137 69.7472 Q392.494 69.7472 389.504 73.5558 Q386.542 77.3643 386.119 85.0661 Q387.783 82.6117 390.294 81.314 Q392.805 79.988 395.823 79.988 Q402.171 79.988 405.838 83.853 Q409.534 87.6898 409.534 94.3196 Q409.534 100.808 405.697 104.73 Q401.861 108.651 395.485 108.651 Q388.178 108.651 384.313 103.065 Q380.448 97.451 380.448 86.8153 Q380.448 76.8283 385.188 70.9039 Q389.927 64.9512 397.911 64.9512 Q400.055 64.9512 402.227 65.3744 Q404.428 65.7976 406.798 66.6439 Z" fill="#000000" fill-rule="evenodd" fill-opacity="1" /><path clip-path="url(#clip010)" d="M12.5962 955.146 L12.5962 916.905 L19.4827 916.905 L19.4827 946.963 L37.3877 946.963 L37.3877 918.161 L44.2742 918.161 L44.2742 946.963 L66.1896 946.963 L66.1896 916.176 L73.0762 916.176 L73.0762 955.146 L12.5962 955.146 Z" fill="#000000" fill-rule="evenodd" fill-opacity="1" /><path clip-path="url(#clip010)" d="M45.692 865.337 L73.0762 865.337 L73.0762 872.791 L45.9351 872.791 Q39.4942 872.791 36.2939 875.302 Q33.0937 877.814 33.0937 882.837 Q33.0937 888.873 36.9421 892.357 Q40.7905 895.84 47.4339 895.84 L73.0762 895.84 L73.0762 903.335 L27.706 903.335 L27.706 895.84 L34.7546 895.84 Q30.6632 893.167 28.6377 889.562 Q26.6123 885.916 26.6123 881.176 Q26.6123 873.358 31.4734 869.348 Q36.2939 865.337 45.692 865.337 Z" fill="#000000" fill-rule="evenodd" fill-opacity="1" /><path clip-path="url(#clip010)" d="M48.5277 811.663 L52.1735 811.663 L52.1735 845.933 Q59.8702 845.447 63.9211 841.315 Q67.9315 837.143 67.9315 829.73 Q67.9315 825.436 66.8783 821.425 Q65.825 817.374 63.7186 813.405 L70.7671 813.405 Q72.4685 817.415 73.3597 821.628 Q74.2509 825.841 74.2509 830.175 Q74.2509 841.032 67.9315 847.392 Q61.6121 853.711 50.8367 853.711 Q39.6967 853.711 33.1748 847.716 Q26.6123 841.68 26.6123 831.472 Q26.6123 822.317 32.5266 817.01 Q38.4004 811.663 48.5277 811.663 M46.3402 819.116 Q40.2233 819.197 36.5775 822.56 Q32.9317 825.881 32.9317 831.391 Q32.9317 837.629 36.456 841.396 Q39.9803 845.123 46.3807 845.69 L46.3402 819.116 Z" fill="#000000" fill-rule="evenodd" fill-opacity="1" /><path clip-path="url(#clip010)" d="M34.6736 773.139 Q33.9444 774.394 33.6204 775.893 Q33.2558 777.351 33.2558 779.134 Q33.2558 785.453 37.3877 788.856 Q41.4791 792.218 49.1758 792.218 L73.0762 792.218 L73.0762 799.712 L27.706 799.712 L27.706 792.218 L34.7546 792.218 Q30.6227 789.869 28.6377 786.101 Q26.6123 782.334 26.6123 776.946 Q26.6123 776.177 26.7338 775.245 Q26.8148 774.313 27.0174 773.179 L34.6736 773.139 Z" fill="#000000" fill-rule="evenodd" fill-opacity="1" /><path clip-path="url(#clip010)" d="M49.8645 736.923 Q41.7627 736.923 37.3067 740.286 Q32.8507 743.607 32.8507 749.643 Q32.8507 755.639 37.3067 759.001 Q41.7627 762.323 49.8645 762.323 Q57.9258 762.323 62.3818 759.001 Q66.8378 755.639 66.8378 749.643 Q66.8378 743.607 62.3818 740.286 Q57.9258 736.923 49.8645 736.923 M67.4454 729.47 Q79.031 729.47 84.6617 734.614 Q90.333 739.759 90.333 750.372 Q90.333 754.302 89.7254 757.786 Q89.1582 761.269 87.943 764.551 L80.6919 764.551 Q82.4743 761.269 83.3249 758.069 Q84.1756 754.869 84.1756 751.547 Q84.1756 744.215 80.3273 740.569 Q76.5194 736.923 68.7822 736.923 L65.0959 736.923 Q69.1063 739.232 71.0912 742.838 Q73.0762 746.443 73.0762 751.466 Q73.0762 759.811 66.7162 764.915 Q60.3563 770.019 49.8645 770.019 Q39.3321 770.019 32.9722 764.915 Q26.6123 759.811 26.6123 751.466 Q26.6123 746.443 28.5972 742.838 Q30.5822 739.232 34.5926 736.923 L27.706 736.923 L27.706 729.47 L67.4454 729.47 Z" fill="#000000" fill-rule="evenodd" fill-opacity="1" /><path clip-path="url(#clip010)" d="M77.2891 695.24 Q85.3909 698.399 87.862 701.397 Q90.333 704.395 90.333 709.418 L90.333 715.373 L84.0946 715.373 L84.0946 710.998 Q84.0946 707.919 82.6363 706.218 Q81.178 704.516 75.7498 702.45 L72.347 701.113 L27.706 719.464 L27.706 711.565 L63.192 697.387 L27.706 683.208 L27.706 675.309 L77.2891 695.24 Z" fill="#000000" fill-rule="evenodd" fill-opacity="1" /><path clip-path="url(#clip010)" d="M12.5962 625.402 L12.5962 618.516 L80.7729 639.58 L80.7729 646.467 L12.5962 625.402 Z" fill="#000000" fill-rule="evenodd" fill-opacity="1" /><path clip-path="url(#clip010)" d="M48.5277 545.518 L52.1735 545.518 L52.1735 579.789 Q59.8702 579.303 63.9211 575.171 Q67.9315 570.998 67.9315 563.585 Q67.9315 559.291 66.8783 555.281 Q65.825 551.23 63.7186 547.26 L70.7671 547.26 Q72.4685 551.271 73.3597 555.483 Q74.2509 559.696 74.2509 564.031 Q74.2509 574.887 67.9315 581.247 Q61.6121 587.567 50.8367 587.567 Q39.6967 587.567 33.1748 581.571 Q26.6123 575.535 26.6123 565.327 Q26.6123 556.172 32.5266 550.865 Q38.4004 545.518 48.5277 545.518 M46.3402 552.972 Q40.2233 553.053 36.5775 556.415 Q32.9317 559.737 32.9317 565.246 Q32.9317 571.485 36.456 575.252 Q39.9803 578.979 46.3807 579.546 L46.3402 552.972 Z" fill="#000000" fill-rule="evenodd" fill-opacity="1" /><path clip-path="url(#clip010)" d="M73.0762 517.364 L12.5962 540.455 L12.5962 531.907 L63.516 512.746 L12.5962 493.545 L12.5962 485.038 L73.0762 508.088 L73.0762 517.364 Z" fill="#000000" fill-rule="evenodd" fill-opacity="1" /><polyline clip-path="url(#clip012)" style="stroke:#009af9; stroke-linecap:butt; stroke-linejoin:round; stroke-width:6; stroke-opacity:1; fill:none" points="
  445.534,1354.85 454.203,1353.35 462.873,1351.88 471.542,1350.4 480.211,1348.85 488.88,1347.35 497.549,1345.9 506.219,1344.44 514.888,1342.91 523.557,1341.43 
  532.226,1340 540.895,1338.65 549.564,1337.27 558.234,1335.9 566.903,1334.51 575.572,1333.1 584.241,1331.65 592.91,1330.21 601.58,1328.87 610.249,1327.52 
  618.918,1326.11 627.587,1324.46 636.256,1323.15 644.926,1321.84 653.595,1320.55 662.264,1319.25 670.933,1317.93 679.602,1316.59 688.271,1315.22 696.941,1313.81 
  705.61,1312.73 714.279,1311.61 722.948,1310.46 731.617,1309.12 740.287,1307.86 748.956,1306.58 757.625,1305.25 766.294,1303.89 774.963,1302.46 783.633,1300.96 
  792.302,1299.39 800.971,1297.8 809.64,1296.14 818.309,1294.4 826.979,1292.59 835.648,1290.73 844.317,1288.77 852.986,1286.75 861.655,1284.66 870.324,1282.45 
  878.994,1280.16 887.663,1277.78 896.332,1275.29 905.001,1272.7 913.67,1269.99 922.34,1267.16 931.009,1264.15 939.678,1261.02 948.347,1257.73 957.016,1254.29 
  965.686,1250.67 974.355,1246.86 983.024,1242.81 991.693,1238.58 1000.36,1234.05 1009.03,1229.25 1017.7,1224.14 1026.37,1218.66 1035.04,1212.74 1043.71,1206.31 
  1052.38,1199.33 1061.05,1191.71 1069.72,1183.24 1078.39,1173.9 1087.05,1163.46 1095.72,1151.72 1104.39,1138.44 1113.06,1123.24 1121.73,1105.82 1130.4,1085.67 
  1139.07,1062.2 1147.74,1034.85 1156.41,1002.75 1165.08,964.795 1173.75,919.999 1182.42,867.742 1191.08,808.15 1199.75,742.967 1208.42,707.264 1217.09,705.92 
  1225.76,704.513 1234.43,703.056 1243.1,701.53 1251.77,699.919 1260.44,698.214 1269.11,696.418 1277.78,694.556 1286.45,692.583 1295.11,690.523 1303.78,688.329 
  1312.45,686.047 1321.12,683.603 1329.79,681.037 1338.46,678.298 1347.13,675.366 1355.8,672.244 1364.47,668.895 1373.14,665.26 1381.81,661.306 1390.48,656.993 
  1399.15,652.262 1407.81,647.038 1416.48,641.194 1425.15,634.665 1433.82,627.307 1442.49,618.95 1451.16,609.399 1459.83,598.393 1468.5,585.641 1477.17,570.746 
  1485.84,553.292 1494.51,532.831 1503.18,508.63 1511.84,479.901 1520.51,446.117 1529.18,407.142 1537.85,363.766 1546.52,327.619 1555.19,327.382 1563.86,327.136 
  1572.53,326.884 1581.2,326.626 1589.87,326.363 1598.54,326.092 1607.21,325.815 1615.87,325.521 1624.54,325.22 1633.21,324.91 1641.88,324.592 1650.55,324.265 
  1659.22,323.929 1667.89,323.575 1676.56,323.207 1685.23,322.828 1693.9,322.436 1702.57,322.028 1711.24,321.602 1719.91,321.164 1728.57,320.712 1737.24,320.238 
  1745.91,319.738 1754.58,319.222 1763.25,318.687 1771.92,318.128 1780.59,317.541 1789.26,316.935 1797.93,316.303 1806.6,315.637 1815.27,314.949 1823.94,314.232 
  1832.6,313.476 1841.27,312.692 1849.94,311.871 1858.61,311.01 1867.28,310.116 1875.95,309.172 1884.62,308.19 1893.29,307.153 1901.96,306.067 1910.63,304.925 
  1919.3,303.724 1927.97,302.452 1936.63,301.117 1945.3,299.692 1953.97,298.193 1962.64,296.584 1971.31,294.869 1979.98,293.039 1988.65,291.059 1997.32,288.922 
  2005.99,286.595 2014.66,284.044 2023.33,281.238 2032,278.121 2040.67,274.646 2049.33,270.764 2058,266.373 2066.67,261.37 2075.34,255.646 2084.01,249.026 
  2092.68,241.362 2101.35,232.391 2110.02,221.856 2118.69,209.524 2127.36,194.882 2136.03,177.502 2144.7,157.063 2153.36,133.493 2162.03,107.283 2170.7,85.3303 
  2179.37,85.3298 2188.04,85.3298 2196.71,85.3298 
  "/>
</svg>
