<?xml version="1.0" encoding="UTF-8" standalone="no"?>
<!-- Created with Inkscape (http://www.inkscape.org/) -->

<svg
   xmlns:dc="http://purl.org/dc/elements/1.1/"
   xmlns:cc="http://creativecommons.org/ns#"
   xmlns:rdf="http://www.w3.org/1999/02/22-rdf-syntax-ns#"
   xmlns:svg="http://www.w3.org/2000/svg"
   xmlns="http://www.w3.org/2000/svg"
   xmlns:xlink="http://www.w3.org/1999/xlink"
   xmlns:sodipodi="http://sodipodi.sourceforge.net/DTD/sodipodi-0.dtd"
   xmlns:inkscape="http://www.inkscape.org/namespaces/inkscape"
   width="177.64882mm"
   height="108.1012mm"
   viewBox="0 0 177.64882 108.1012"
   version="1.1"
   id="svg1117"
   inkscape:version="0.92.4 (f8dce91, 2019-08-02)"
   sodipodi:docname="logo_with_name.svg">
  <defs
     id="defs1111"
     style="stroke-linecap:butt;stroke-linejoin:round">
    <style
       id="style4523"
       type="text/css">
*{stroke-linecap:butt;stroke-linejoin:round;white-space:pre;}
  </style>
    <path
       inkscape:connector-curvature="0"
       style="white-space:pre;stroke:#9558b2;stroke-width:5;stroke-linecap:butt;stroke-linejoin:round"
       id="mb7b5f0696d"
       d="M 0,37.5 C 9.945116,37.5 19.484245,33.548763 26.516504,26.516504 33.548763,19.484245 37.5,9.945116 37.5,0 37.5,-9.945116 33.548763,-19.484245 26.516504,-26.516504 19.484245,-33.548763 9.945116,-37.5 0,-37.5 c -9.945116,0 -19.484245,3.951237 -26.516504,10.983496 C -33.548763,-19.484245 -37.5,-9.945116 -37.5,0 c 0,9.945116 3.951237,19.484245 10.983496,26.516504 C -19.484245,33.548763 -9.945116,37.5 0,37.5 Z" />
    <path
       inkscape:connector-curvature="0"
       style="white-space:pre;stroke:#cb3c33;stroke-width:5;stroke-linecap:butt;stroke-linejoin:round"
       id="m9d24bd9b1c"
       d="M 0,37.5 C 9.945116,37.5 19.484245,33.548763 26.516504,26.516504 33.548763,19.484245 37.5,9.945116 37.5,0 37.5,-9.945116 33.548763,-19.484245 26.516504,-26.516504 19.484245,-33.548763 9.945116,-37.5 0,-37.5 c -9.945116,0 -19.484245,3.951237 -26.516504,10.983496 C -33.548763,-19.484245 -37.5,-9.945116 -37.5,0 c 0,9.945116 3.951237,19.484245 10.983496,26.516504 C -19.484245,33.548763 -9.945116,37.5 0,37.5 Z" />
    <path
       inkscape:connector-curvature="0"
       style="white-space:pre;stroke:#389826;stroke-width:5;stroke-linecap:butt;stroke-linejoin:round"
       id="m0899a1e036"
       d="M 0,37.5 C 9.945116,37.5 19.484245,33.548763 26.516504,26.516504 33.548763,19.484245 37.5,9.945116 37.5,0 37.5,-9.945116 33.548763,-19.484245 26.516504,-26.516504 19.484245,-33.548763 9.945116,-37.5 0,-37.5 c -9.945116,0 -19.484245,3.951237 -26.516504,10.983496 C -33.548763,-19.484245 -37.5,-9.945116 -37.5,0 c 0,9.945116 3.951237,19.484245 10.983496,26.516504 C -19.484245,33.548763 -9.945116,37.5 0,37.5 Z" />
    <path
       style="white-space:pre;stroke-linecap:butt;stroke-linejoin:round"
       inkscape:connector-curvature="0"
       id="DejaVuSans-111"
       d="m 30.609375,48.390625 q -7.21875,0 -11.421875,-5.640625 -4.203125,-5.640625 -4.203125,-15.453125 0,-9.8125 4.171875,-15.453125 4.1875,-5.640625 11.453125,-5.640625 7.1875,0 11.375,5.65625 4.203125,5.671875 4.203125,15.4375 0,9.71875 -4.203125,15.40625 -4.1875,5.6875 -11.375,5.6875 z m 0,7.609375 q 11.71875,0 18.40625,-7.625 6.703125,-7.609375 6.703125,-21.078125 0,-13.421875 -6.703125,-21.078125 -6.6875,-7.640625 -18.40625,-7.640625 -11.765625,0 -18.4375,7.640625 -6.65625,7.65625 -6.65625,21.078125 0,13.46875 6.65625,21.078125 Q 18.84375,56 30.609375,56 Z" />
    <path
       style="white-space:pre;stroke-linecap:butt;stroke-linejoin:round"
       inkscape:connector-curvature="0"
       id="DejaVuSans-108"
       d="M 9.421875,75.984375 H 18.40625 V 0 H 9.421875 Z" />
    <path
       style="white-space:pre;stroke-linecap:butt;stroke-linejoin:round"
       inkscape:connector-curvature="0"
       id="DejaVuSans-105"
       d="M 9.421875,54.6875 H 18.40625 V 0 H 9.421875 Z m 0,21.296875 H 18.40625 V 64.59375 H 9.421875 Z" />
    <path
       style="white-space:pre;stroke-linecap:butt;stroke-linejoin:round"
       inkscape:connector-curvature="0"
       id="DejaVuSans-100"
       d="m 45.40625,46.390625 v 29.59375 h 8.984375 V 0 H 45.40625 v 8.203125 q -2.828125,-4.875 -7.15625,-7.25 -4.3125,-2.375 -10.375,-2.375 -9.90625,0 -16.140625,7.90625 -6.21875,7.921875 -6.21875,20.8125 0,12.890625 6.21875,20.796875 Q 17.96875,56 27.875,56 q 6.0625,0 10.375,-2.375 4.328125,-2.359375 7.15625,-7.234375 z M 14.796875,27.296875 q 0,-9.90625 4.078125,-15.546875 4.078125,-5.640625 11.203125,-5.640625 7.125,0 11.21875,5.640625 4.109375,5.640625 4.109375,15.546875 0,9.90625 -4.109375,15.546875 -4.09375,5.640625 -11.21875,5.640625 -7.125,0 -11.203125,-5.640625 -4.078125,-5.640625 -4.078125,-15.546875 z" />
    <path
       style="white-space:pre;stroke-linecap:butt;stroke-linejoin:round"
       inkscape:connector-curvature="0"
       id="DejaVuSans-116"
       d="M 18.3125,70.21875 V 54.6875 h 18.5 v -6.984375 h -18.5 v -29.6875 q 0,-6.6875 1.828125,-8.59375 1.828125,-1.90625 7.453125,-1.90625 H 36.8125 V 0 H 27.59375 Q 17.1875,0 13.234375,3.875 9.28125,7.765625 9.28125,18.015625 v 29.6875 H 2.6875 V 54.6875 h 6.59375 v 15.53125 z" />
    <path
       style="white-space:pre;stroke-linecap:butt;stroke-linejoin:round"
       inkscape:connector-curvature="0"
       id="DejaVuSans-97"
       d="m 34.28125,27.484375 q -10.890625,0 -15.09375,-2.484375 -4.203125,-2.484375 -4.203125,-8.5 0,-4.78125 3.15625,-7.59375 3.15625,-2.796875 8.5625,-2.796875 7.484375,0 12,5.296875 4.515625,5.296875 4.515625,14.078125 v 2 z m 17.921875,3.71875 V 0 H 43.21875 v 8.296875 q -3.078125,-4.96875 -7.671875,-7.34375 -4.59375,-2.375 -11.234375,-2.375 -8.390625,0 -13.359375,4.71875 Q 6,8.015625 6,15.921875 q 0,9.21875 6.171875,13.90625 6.1875,4.6875 18.4375,4.6875 H 43.21875 v 0.890625 q 0,6.203125 -4.078125,9.59375 -4.078125,3.390625 -11.453125,3.390625 -4.6875,0 -9.140625,-1.125 -4.4375,-1.125 -8.53125,-3.375 v 8.3125 q 4.921875,1.90625 9.5625,2.84375 Q 24.21875,56 28.609375,56 q 11.875,0 17.734375,-6.15625 5.859375,-6.140625 5.859375,-18.640625 z" />
    <path
       style="white-space:pre;stroke-linecap:butt;stroke-linejoin:round"
       inkscape:connector-curvature="0"
       id="DejaVuSans-101"
       d="m 56.203125,29.59375 v -4.390625 h -41.3125 q 0.59375,-9.28125 5.59375,-14.140625 5,-4.859375 13.9375,-4.859375 5.171875,0 10.03125,1.265625 4.859375,1.265625 9.65625,3.8125 v -8.5 q -4.84375,-2.046875 -9.921875,-3.125 -5.078125,-1.078125 -10.296875,-1.078125 -13.09375,0 -20.734375,7.609375 -7.640625,7.625 -7.640625,20.625 0,13.421875 7.25,21.296875 Q 20.015625,56 32.328125,56 q 11.03125,0 17.453125,-7.109375 6.421875,-7.09375 6.421875,-19.296875 z m -8.984375,2.640625 q -0.09375,7.359375 -4.125,11.75 -4.03125,4.40625 -10.671875,4.40625 -7.515625,0 -12.03125,-4.25 -4.515625,-4.25 -5.203125,-11.96875 z" />
    <path
       style="white-space:pre;stroke-linecap:butt;stroke-linejoin:round"
       inkscape:connector-curvature="0"
       id="DejaVuSans-99"
       d="M 48.78125,52.59375 V 44.1875 q -3.8125,2.109375 -7.640625,3.15625 -3.828125,1.046875 -7.734375,1.046875 -8.75,0 -13.59375,-5.546875 -4.828125,-5.53125 -4.828125,-15.546875 0,-10.015625 4.828125,-15.5625 4.84375,-5.53125 13.59375,-5.53125 3.90625,0 7.734375,1.046875 3.828125,1.046875 7.640625,3.15625 v -8.3125 q -3.765625,-1.75 -7.796875,-2.625 -4.015625,-0.890625 -8.5625,-0.890625 -12.359375,0 -19.640625,7.765625 -7.265625,7.765625 -7.265625,20.953125 0,13.375 7.34375,21.03125 Q 20.21875,56 33.015625,56 q 4.140625,0 8.09375,-0.859375 3.953125,-0.84375 7.671875,-2.546875 z" />
    <path
       style="white-space:pre;stroke-linecap:butt;stroke-linejoin:round"
       inkscape:connector-curvature="0"
       id="DejaVuSans-114"
       d="m 41.109375,46.296875 q -1.515625,0.875 -3.296875,1.28125 Q 36.03125,48 33.890625,48 26.265625,48 22.1875,43.046875 18.109375,38.09375 18.109375,28.8125 V 0 h -9.03125 v 54.6875 h 9.03125 v -8.5 q 2.84375,4.984375 7.375,7.390625 Q 30.03125,56 36.53125,56 q 0.921875,0 2.046875,-0.125 1.125,-0.109375 2.484375,-0.359375 z" />
    <path
       style="white-space:pre;stroke-linecap:butt;stroke-linejoin:round"
       inkscape:connector-curvature="0"
       id="DejaVuSans-115"
       d="m 44.28125,53.078125 v -8.5 Q 40.484375,46.53125 36.375,47.5 q -4.09375,0.984375 -8.5,0.984375 -6.6875,0 -10.03125,-2.046875 Q 14.5,44.390625 14.5,40.28125 q 0,-3.125 2.390625,-4.90625 2.390625,-1.78125 9.625,-3.390625 l 3.078125,-0.6875 Q 39.15625,29.25 43.1875,25.515625 47.21875,21.78125 47.21875,15.09375 q 0,-7.625 -6.03125,-12.078125 -6.03125,-4.4375 -16.578125,-4.4375 -4.390625,0 -9.15625,0.859375 Q 10.6875,0.296875 5.421875,2 v 9.28125 q 4.984375,-2.59375 9.8125,-3.890625 4.828125,-1.28125 9.578125,-1.28125 6.34375,0 9.75,2.171875 3.421875,2.171875 3.421875,6.125 0,3.65625 -2.46875,5.609375 -2.453125,1.953125 -10.8125,3.765625 l -3.125,0.734375 q -8.34375,1.75 -12.0625,5.390625 -3.703125,3.640625 -3.703125,9.984375 0,7.71875 5.46875,11.90625 Q 16.75,56 26.8125,56 q 4.96875,0 9.359375,-0.734375 4.40625,-0.71875 8.109375,-2.1875 z" />
    <clipPath
       style="white-space:pre;stroke-linecap:butt;stroke-linejoin:round"
       id="pfcdf464f82">
      <rect
         style="white-space:pre;stroke-linecap:butt;stroke-linejoin:round"
         id="rect4715"
         y="2.834646"
         x="2.834646"
         width="570.33069"
         height="426.33072" />
    </clipPath>
    <style
       id="style1408"
       type="text/css">
*{stroke-linecap:butt;stroke-linejoin:round;white-space:pre;}
  </style>
    <path
       style="white-space:pre;stroke:#9558b2;stroke-width:5;stroke-linecap:butt;stroke-linejoin:round"
       id="mb7b5f0696d-2"
       d="M 0,37.5 C 9.945116,37.5 19.484245,33.548763 26.516504,26.516504 33.548763,19.484245 37.5,9.945116 37.5,0 37.5,-9.945116 33.548763,-19.484245 26.516504,-26.516504 19.484245,-33.548763 9.945116,-37.5 0,-37.5 c -9.945116,0 -19.484245,3.951237 -26.516504,10.983496 C -33.548763,-19.484245 -37.5,-9.945116 -37.5,0 c 0,9.945116 3.951237,19.484245 10.983496,26.516504 C -19.484245,33.548763 -9.945116,37.5 0,37.5 Z"
       inkscape:connector-curvature="0" />
    <path
       style="white-space:pre;stroke:#cb3c33;stroke-width:5;stroke-linecap:butt;stroke-linejoin:round"
       id="m9d24bd9b1c-7"
       d="M 0,37.5 C 9.945116,37.5 19.484245,33.548763 26.516504,26.516504 33.548763,19.484245 37.5,9.945116 37.5,0 37.5,-9.945116 33.548763,-19.484245 26.516504,-26.516504 19.484245,-33.548763 9.945116,-37.5 0,-37.5 c -9.945116,0 -19.484245,3.951237 -26.516504,10.983496 C -33.548763,-19.484245 -37.5,-9.945116 -37.5,0 c 0,9.945116 3.951237,19.484245 10.983496,26.516504 C -19.484245,33.548763 -9.945116,37.5 0,37.5 Z"
       inkscape:connector-curvature="0" />
    <path
       style="white-space:pre;stroke:#389826;stroke-width:5;stroke-linecap:butt;stroke-linejoin:round"
       id="m0899a1e036-0"
       d="M 0,37.5 C 9.945116,37.5 19.484245,33.548763 26.516504,26.516504 33.548763,19.484245 37.5,9.945116 37.5,0 37.5,-9.945116 33.548763,-19.484245 26.516504,-26.516504 19.484245,-33.548763 9.945116,-37.5 0,-37.5 c -9.945116,0 -19.484245,3.951237 -26.516504,10.983496 C -33.548763,-19.484245 -37.5,-9.945116 -37.5,0 c 0,9.945116 3.951237,19.484245 10.983496,26.516504 C -19.484245,33.548763 -9.945116,37.5 0,37.5 Z"
       inkscape:connector-curvature="0" />
    <path
       id="DejaVuSans-111-9"
       d="m 30.609375,48.390625 q -7.21875,0 -11.421875,-5.640625 -4.203125,-5.640625 -4.203125,-15.453125 0,-9.8125 4.171875,-15.453125 4.1875,-5.640625 11.453125,-5.640625 7.1875,0 11.375,5.65625 4.203125,5.671875 4.203125,15.4375 0,9.71875 -4.203125,15.40625 -4.1875,5.6875 -11.375,5.6875 z m 0,7.609375 q 11.71875,0 18.40625,-7.625 6.703125,-7.609375 6.703125,-21.078125 0,-13.421875 -6.703125,-21.078125 -6.6875,-7.640625 -18.40625,-7.640625 -11.765625,0 -18.4375,7.640625 -6.65625,7.65625 -6.65625,21.078125 0,13.46875 6.65625,21.078125 Q 18.84375,56 30.609375,56 Z"
       inkscape:connector-curvature="0"
       style="white-space:pre;stroke-linecap:butt;stroke-linejoin:round" />
    <path
       id="DejaVuSans-108-3"
       d="M 9.421875,75.984375 H 18.40625 V 0 H 9.421875 Z"
       inkscape:connector-curvature="0"
       style="white-space:pre;stroke-linecap:butt;stroke-linejoin:round" />
    <path
       id="DejaVuSans-105-6"
       d="M 9.421875,54.6875 H 18.40625 V 0 H 9.421875 Z m 0,21.296875 H 18.40625 V 64.59375 H 9.421875 Z"
       inkscape:connector-curvature="0"
       style="white-space:pre;stroke-linecap:butt;stroke-linejoin:round" />
    <path
       id="DejaVuSans-100-0"
       d="m 45.40625,46.390625 v 29.59375 h 8.984375 V 0 H 45.40625 v 8.203125 q -2.828125,-4.875 -7.15625,-7.25 -4.3125,-2.375 -10.375,-2.375 -9.90625,0 -16.140625,7.90625 -6.21875,7.921875 -6.21875,20.8125 0,12.890625 6.21875,20.796875 Q 17.96875,56 27.875,56 q 6.0625,0 10.375,-2.375 4.328125,-2.359375 7.15625,-7.234375 z M 14.796875,27.296875 q 0,-9.90625 4.078125,-15.546875 4.078125,-5.640625 11.203125,-5.640625 7.125,0 11.21875,5.640625 4.109375,5.640625 4.109375,15.546875 0,9.90625 -4.109375,15.546875 -4.09375,5.640625 -11.21875,5.640625 -7.125,0 -11.203125,-5.640625 -4.078125,-5.640625 -4.078125,-15.546875 z"
       inkscape:connector-curvature="0"
       style="white-space:pre;stroke-linecap:butt;stroke-linejoin:round" />
    <path
       id="DejaVuSans-116-6"
       d="M 18.3125,70.21875 V 54.6875 h 18.5 v -6.984375 h -18.5 v -29.6875 q 0,-6.6875 1.828125,-8.59375 1.828125,-1.90625 7.453125,-1.90625 H 36.8125 V 0 H 27.59375 Q 17.1875,0 13.234375,3.875 9.28125,7.765625 9.28125,18.015625 v 29.6875 H 2.6875 V 54.6875 h 6.59375 v 15.53125 z"
       inkscape:connector-curvature="0"
       style="white-space:pre;stroke-linecap:butt;stroke-linejoin:round" />
    <path
       id="DejaVuSans-97-2"
       d="m 34.28125,27.484375 q -10.890625,0 -15.09375,-2.484375 -4.203125,-2.484375 -4.203125,-8.5 0,-4.78125 3.15625,-7.59375 3.15625,-2.796875 8.5625,-2.796875 7.484375,0 12,5.296875 4.515625,5.296875 4.515625,14.078125 v 2 z m 17.921875,3.71875 V 0 H 43.21875 v 8.296875 q -3.078125,-4.96875 -7.671875,-7.34375 -4.59375,-2.375 -11.234375,-2.375 -8.390625,0 -13.359375,4.71875 Q 6,8.015625 6,15.921875 q 0,9.21875 6.171875,13.90625 6.1875,4.6875 18.4375,4.6875 H 43.21875 v 0.890625 q 0,6.203125 -4.078125,9.59375 -4.078125,3.390625 -11.453125,3.390625 -4.6875,0 -9.140625,-1.125 -4.4375,-1.125 -8.53125,-3.375 v 8.3125 q 4.921875,1.90625 9.5625,2.84375 Q 24.21875,56 28.609375,56 q 11.875,0 17.734375,-6.15625 5.859375,-6.140625 5.859375,-18.640625 z"
       inkscape:connector-curvature="0"
       style="white-space:pre;stroke-linecap:butt;stroke-linejoin:round" />
    <path
       id="DejaVuSans-101-6"
       d="m 56.203125,29.59375 v -4.390625 h -41.3125 q 0.59375,-9.28125 5.59375,-14.140625 5,-4.859375 13.9375,-4.859375 5.171875,0 10.03125,1.265625 4.859375,1.265625 9.65625,3.8125 v -8.5 q -4.84375,-2.046875 -9.921875,-3.125 -5.078125,-1.078125 -10.296875,-1.078125 -13.09375,0 -20.734375,7.609375 -7.640625,7.625 -7.640625,20.625 0,13.421875 7.25,21.296875 Q 20.015625,56 32.328125,56 q 11.03125,0 17.453125,-7.109375 6.421875,-7.09375 6.421875,-19.296875 z m -8.984375,2.640625 q -0.09375,7.359375 -4.125,11.75 -4.03125,4.40625 -10.671875,4.40625 -7.515625,0 -12.03125,-4.25 -4.515625,-4.25 -5.203125,-11.96875 z"
       inkscape:connector-curvature="0"
       style="white-space:pre;stroke-linecap:butt;stroke-linejoin:round" />
    <path
       id="DejaVuSans-99-1"
       d="M 48.78125,52.59375 V 44.1875 q -3.8125,2.109375 -7.640625,3.15625 -3.828125,1.046875 -7.734375,1.046875 -8.75,0 -13.59375,-5.546875 -4.828125,-5.53125 -4.828125,-15.546875 0,-10.015625 4.828125,-15.5625 4.84375,-5.53125 13.59375,-5.53125 3.90625,0 7.734375,1.046875 3.828125,1.046875 7.640625,3.15625 v -8.3125 q -3.765625,-1.75 -7.796875,-2.625 -4.015625,-0.890625 -8.5625,-0.890625 -12.359375,0 -19.640625,7.765625 -7.265625,7.765625 -7.265625,20.953125 0,13.375 7.34375,21.03125 Q 20.21875,56 33.015625,56 q 4.140625,0 8.09375,-0.859375 3.953125,-0.84375 7.671875,-2.546875 z"
       inkscape:connector-curvature="0"
       style="white-space:pre;stroke-linecap:butt;stroke-linejoin:round" />
    <path
       id="DejaVuSans-114-8"
       d="m 41.109375,46.296875 q -1.515625,0.875 -3.296875,1.28125 Q 36.03125,48 33.890625,48 26.265625,48 22.1875,43.046875 18.109375,38.09375 18.109375,28.8125 V 0 h -9.03125 v 54.6875 h 9.03125 v -8.5 q 2.84375,4.984375 7.375,7.390625 Q 30.03125,56 36.53125,56 q 0.921875,0 2.046875,-0.125 1.125,-0.109375 2.484375,-0.359375 z"
       inkscape:connector-curvature="0"
       style="white-space:pre;stroke-linecap:butt;stroke-linejoin:round" />
    <path
       id="DejaVuSans-115-7"
       d="m 44.28125,53.078125 v -8.5 Q 40.484375,46.53125 36.375,47.5 q -4.09375,0.984375 -8.5,0.984375 -6.6875,0 -10.03125,-2.046875 Q 14.5,44.390625 14.5,40.28125 q 0,-3.125 2.390625,-4.90625 2.390625,-1.78125 9.625,-3.390625 l 3.078125,-0.6875 Q 39.15625,29.25 43.1875,25.515625 47.21875,21.78125 47.21875,15.09375 q 0,-7.625 -6.03125,-12.078125 -6.03125,-4.4375 -16.578125,-4.4375 -4.390625,0 -9.15625,0.859375 Q 10.6875,0.296875 5.421875,2 v 9.28125 q 4.984375,-2.59375 9.8125,-3.890625 4.828125,-1.28125 9.578125,-1.28125 6.34375,0 9.75,2.171875 3.421875,2.171875 3.421875,6.125 0,3.65625 -2.46875,5.609375 -2.453125,1.953125 -10.8125,3.765625 l -3.125,0.734375 q -8.34375,1.75 -12.0625,5.390625 -3.703125,3.640625 -3.703125,9.984375 0,7.71875 5.46875,11.90625 Q 16.75,56 26.8125,56 q 4.96875,0 9.359375,-0.734375 4.40625,-0.71875 8.109375,-2.1875 z"
       inkscape:connector-curvature="0"
       style="white-space:pre;stroke-linecap:butt;stroke-linejoin:round" />
    <clipPath
       id="pfcdf464f82-9"
       style="white-space:pre;stroke-linecap:butt;stroke-linejoin:round">
      <rect
         id="rect1600"
         y="2.834646"
         x="2.834646"
         width="570.33069"
         height="426.33072"
         style="white-space:pre;stroke-linecap:butt;stroke-linejoin:round" />
    </clipPath>
    <style
       id="style1766"
       type="text/css">
*{stroke-linecap:butt;stroke-linejoin:round;}
  </style>
    <path
       style="stroke:#9558b2;stroke-width:5;stroke-linecap:butt;stroke-linejoin:round"
       id="me98fa22773"
       d="M 0,37.5 C 9.945116,37.5 19.484245,33.548763 26.516504,26.516504 33.548763,19.484245 37.5,9.945116 37.5,0 37.5,-9.945116 33.548763,-19.484245 26.516504,-26.516504 19.484245,-33.548763 9.945116,-37.5 0,-37.5 c -9.945116,0 -19.484245,3.951237 -26.516504,10.983496 C -33.548763,-19.484245 -37.5,-9.945116 -37.5,0 c 0,9.945116 3.951237,19.484245 10.983496,26.516504 C -19.484245,33.548763 -9.945116,37.5 0,37.5 Z"
       inkscape:connector-curvature="0" />
    <path
       style="stroke:#cb3c33;stroke-width:5;stroke-linecap:butt;stroke-linejoin:round"
       id="med8783007b"
       d="M 0,37.5 C 9.945116,37.5 19.484245,33.548763 26.516504,26.516504 33.548763,19.484245 37.5,9.945116 37.5,0 37.5,-9.945116 33.548763,-19.484245 26.516504,-26.516504 19.484245,-33.548763 9.945116,-37.5 0,-37.5 c -9.945116,0 -19.484245,3.951237 -26.516504,10.983496 C -33.548763,-19.484245 -37.5,-9.945116 -37.5,0 c 0,9.945116 3.951237,19.484245 10.983496,26.516504 C -19.484245,33.548763 -9.945116,37.5 0,37.5 Z"
       inkscape:connector-curvature="0" />
    <path
       style="stroke:#389826;stroke-width:5;stroke-linecap:butt;stroke-linejoin:round"
       id="m645a2ef62c"
       d="M 0,37.5 C 9.945116,37.5 19.484245,33.548763 26.516504,26.516504 33.548763,19.484245 37.5,9.945116 37.5,0 37.5,-9.945116 33.548763,-19.484245 26.516504,-26.516504 19.484245,-33.548763 9.945116,-37.5 0,-37.5 c -9.945116,0 -19.484245,3.951237 -26.516504,10.983496 C -33.548763,-19.484245 -37.5,-9.945116 -37.5,0 c 0,9.945116 3.951237,19.484245 10.983496,26.516504 C -19.484245,33.548763 -9.945116,37.5 0,37.5 Z"
       inkscape:connector-curvature="0" />
    <path
       id="DejaVuSans-111-2"
       d="m 30.609375,48.390625 q -7.21875,0 -11.421875,-5.640625 -4.203125,-5.640625 -4.203125,-15.453125 0,-9.8125 4.171875,-15.453125 4.1875,-5.640625 11.453125,-5.640625 7.1875,0 11.375,5.65625 4.203125,5.671875 4.203125,15.4375 0,9.71875 -4.203125,15.40625 -4.1875,5.6875 -11.375,5.6875 z m 0,7.609375 q 11.71875,0 18.40625,-7.625 6.703125,-7.609375 6.703125,-21.078125 0,-13.421875 -6.703125,-21.078125 -6.6875,-7.640625 -18.40625,-7.640625 -11.765625,0 -18.4375,7.640625 -6.65625,7.65625 -6.65625,21.078125 0,13.46875 6.65625,21.078125 Q 18.84375,56 30.609375,56 Z"
       inkscape:connector-curvature="0"
       style="stroke-linecap:butt;stroke-linejoin:round" />
    <path
       id="DejaVuSans-108-0"
       d="M 9.421875,75.984375 H 18.40625 V 0 H 9.421875 Z"
       inkscape:connector-curvature="0"
       style="stroke-linecap:butt;stroke-linejoin:round" />
    <path
       id="DejaVuSans-105-2"
       d="M 9.421875,54.6875 H 18.40625 V 0 H 9.421875 Z m 0,21.296875 H 18.40625 V 64.59375 H 9.421875 Z"
       inkscape:connector-curvature="0"
       style="stroke-linecap:butt;stroke-linejoin:round" />
    <path
       id="DejaVuSans-100-3"
       d="m 45.40625,46.390625 v 29.59375 h 8.984375 V 0 H 45.40625 v 8.203125 q -2.828125,-4.875 -7.15625,-7.25 -4.3125,-2.375 -10.375,-2.375 -9.90625,0 -16.140625,7.90625 -6.21875,7.921875 -6.21875,20.8125 0,12.890625 6.21875,20.796875 Q 17.96875,56 27.875,56 q 6.0625,0 10.375,-2.375 4.328125,-2.359375 7.15625,-7.234375 z M 14.796875,27.296875 q 0,-9.90625 4.078125,-15.546875 4.078125,-5.640625 11.203125,-5.640625 7.125,0 11.21875,5.640625 4.109375,5.640625 4.109375,15.546875 0,9.90625 -4.109375,15.546875 -4.09375,5.640625 -11.21875,5.640625 -7.125,0 -11.203125,-5.640625 -4.078125,-5.640625 -4.078125,-15.546875 z"
       inkscape:connector-curvature="0"
       style="stroke-linecap:butt;stroke-linejoin:round" />
    <path
       id="DejaVuSans-116-7"
       d="M 18.3125,70.21875 V 54.6875 h 18.5 v -6.984375 h -18.5 v -29.6875 q 0,-6.6875 1.828125,-8.59375 1.828125,-1.90625 7.453125,-1.90625 H 36.8125 V 0 H 27.59375 Q 17.1875,0 13.234375,3.875 9.28125,7.765625 9.28125,18.015625 v 29.6875 H 2.6875 V 54.6875 h 6.59375 v 15.53125 z"
       inkscape:connector-curvature="0"
       style="stroke-linecap:butt;stroke-linejoin:round" />
    <path
       id="DejaVuSans-97-5"
       d="m 34.28125,27.484375 q -10.890625,0 -15.09375,-2.484375 -4.203125,-2.484375 -4.203125,-8.5 0,-4.78125 3.15625,-7.59375 3.15625,-2.796875 8.5625,-2.796875 7.484375,0 12,5.296875 4.515625,5.296875 4.515625,14.078125 v 2 z m 17.921875,3.71875 V 0 H 43.21875 v 8.296875 q -3.078125,-4.96875 -7.671875,-7.34375 -4.59375,-2.375 -11.234375,-2.375 -8.390625,0 -13.359375,4.71875 Q 6,8.015625 6,15.921875 q 0,9.21875 6.171875,13.90625 6.1875,4.6875 18.4375,4.6875 H 43.21875 v 0.890625 q 0,6.203125 -4.078125,9.59375 -4.078125,3.390625 -11.453125,3.390625 -4.6875,0 -9.140625,-1.125 -4.4375,-1.125 -8.53125,-3.375 v 8.3125 q 4.921875,1.90625 9.5625,2.84375 Q 24.21875,56 28.609375,56 q 11.875,0 17.734375,-6.15625 5.859375,-6.140625 5.859375,-18.640625 z"
       inkscape:connector-curvature="0"
       style="stroke-linecap:butt;stroke-linejoin:round" />
    <path
       id="DejaVuSans-101-9"
       d="m 56.203125,29.59375 v -4.390625 h -41.3125 q 0.59375,-9.28125 5.59375,-14.140625 5,-4.859375 13.9375,-4.859375 5.171875,0 10.03125,1.265625 4.859375,1.265625 9.65625,3.8125 v -8.5 q -4.84375,-2.046875 -9.921875,-3.125 -5.078125,-1.078125 -10.296875,-1.078125 -13.09375,0 -20.734375,7.609375 -7.640625,7.625 -7.640625,20.625 0,13.421875 7.25,21.296875 Q 20.015625,56 32.328125,56 q 11.03125,0 17.453125,-7.109375 6.421875,-7.09375 6.421875,-19.296875 z m -8.984375,2.640625 q -0.09375,7.359375 -4.125,11.75 -4.03125,4.40625 -10.671875,4.40625 -7.515625,0 -12.03125,-4.25 -4.515625,-4.25 -5.203125,-11.96875 z"
       inkscape:connector-curvature="0"
       style="stroke-linecap:butt;stroke-linejoin:round" />
    <path
       id="DejaVuSans-99-2"
       d="M 48.78125,52.59375 V 44.1875 q -3.8125,2.109375 -7.640625,3.15625 -3.828125,1.046875 -7.734375,1.046875 -8.75,0 -13.59375,-5.546875 -4.828125,-5.53125 -4.828125,-15.546875 0,-10.015625 4.828125,-15.5625 4.84375,-5.53125 13.59375,-5.53125 3.90625,0 7.734375,1.046875 3.828125,1.046875 7.640625,3.15625 v -8.3125 q -3.765625,-1.75 -7.796875,-2.625 -4.015625,-0.890625 -8.5625,-0.890625 -12.359375,0 -19.640625,7.765625 -7.265625,7.765625 -7.265625,20.953125 0,13.375 7.34375,21.03125 Q 20.21875,56 33.015625,56 q 4.140625,0 8.09375,-0.859375 3.953125,-0.84375 7.671875,-2.546875 z"
       inkscape:connector-curvature="0"
       style="stroke-linecap:butt;stroke-linejoin:round" />
    <path
       id="DejaVuSans-114-2"
       d="m 41.109375,46.296875 q -1.515625,0.875 -3.296875,1.28125 Q 36.03125,48 33.890625,48 26.265625,48 22.1875,43.046875 18.109375,38.09375 18.109375,28.8125 V 0 h -9.03125 v 54.6875 h 9.03125 v -8.5 q 2.84375,4.984375 7.375,7.390625 Q 30.03125,56 36.53125,56 q 0.921875,0 2.046875,-0.125 1.125,-0.109375 2.484375,-0.359375 z"
       inkscape:connector-curvature="0"
       style="stroke-linecap:butt;stroke-linejoin:round" />
    <path
       id="DejaVuSans-115-8"
       d="m 44.28125,53.078125 v -8.5 Q 40.484375,46.53125 36.375,47.5 q -4.09375,0.984375 -8.5,0.984375 -6.6875,0 -10.03125,-2.046875 Q 14.5,44.390625 14.5,40.28125 q 0,-3.125 2.390625,-4.90625 2.390625,-1.78125 9.625,-3.390625 l 3.078125,-0.6875 Q 39.15625,29.25 43.1875,25.515625 47.21875,21.78125 47.21875,15.09375 q 0,-7.625 -6.03125,-12.078125 -6.03125,-4.4375 -16.578125,-4.4375 -4.390625,0 -9.15625,0.859375 Q 10.6875,0.296875 5.421875,2 v 9.28125 q 4.984375,-2.59375 9.8125,-3.890625 4.828125,-1.28125 9.578125,-1.28125 6.34375,0 9.75,2.171875 3.421875,2.171875 3.421875,6.125 0,3.65625 -2.46875,5.609375 -2.453125,1.953125 -10.8125,3.765625 l -3.125,0.734375 q -8.34375,1.75 -12.0625,5.390625 -3.703125,3.640625 -3.703125,9.984375 0,7.71875 5.46875,11.90625 Q 16.75,56 26.8125,56 q 4.96875,0 9.359375,-0.734375 4.40625,-0.71875 8.109375,-2.1875 z"
       inkscape:connector-curvature="0"
       style="stroke-linecap:butt;stroke-linejoin:round" />
    <clipPath
       id="p798ce6fd77"
       style="stroke-linecap:butt;stroke-linejoin:round">
      <rect
         id="rect1955"
         y="2.834646"
         x="2.834646"
         width="570.33069"
         height="426.33072"
         style="stroke-linecap:butt;stroke-linejoin:round" />
    </clipPath>
  </defs>
  <sodipodi:namedview
     id="base"
     pagecolor="#ffffff"
     bordercolor="#666666"
     borderopacity="1.0"
     inkscape:pageopacity="0.0"
     inkscape:pageshadow="2"
     inkscape:zoom="2.0510488"
     inkscape:cx="335.7143"
     inkscape:cy="204.28573"
     inkscape:document-units="mm"
     inkscape:current-layer="layer1"
     showgrid="false"
     inkscape:pagecheckerboard="true"
     inkscape:window-width="1850"
     inkscape:window-height="1016"
     inkscape:window-x="70"
     inkscape:window-y="27"
     inkscape:window-maximized="1" />
  <metadata
     id="metadata1114">
    <rdf:RDF>
      <cc:Work
         rdf:about="">
        <dc:format>image/svg+xml</dc:format>
        <dc:type
           rdf:resource="http://purl.org/dc/dcmitype/StillImage" />
        <dc:title></dc:title>
      </cc:Work>
    </rdf:RDF>
  </metadata>
  <g
     inkscape:label="Layer 1"
     inkscape:groupmode="layer"
     id="layer1"
     transform="translate(-18.898809,-71.726181)">
    <g
       id="figure_1"
       transform="matrix(0.35277778,0,0,0.35277778,-1.8142864,52.978571)"
       style="stroke-linecap:butt;stroke-linejoin:round">
      <g
         id="patch_1"
         style="stroke-linecap:butt;stroke-linejoin:round">
        <path
           id="path1770"
           style="fill:none;stroke-linecap:butt;stroke-linejoin:round"
           d="M 0,432 H 576 V 0 H 0 Z"
           inkscape:connector-curvature="0" />
      </g>
      <g
         id="axes_1"
         style="stroke-linecap:butt;stroke-linejoin:round">
        <g
           id="patch_2"
           style="stroke-linecap:butt;stroke-linejoin:round">
          <path
             id="path1773"
             style="fill:none;stroke-linecap:butt;stroke-linejoin:round"
             d="M 2.834646,429.16535 H 573.16535 V 2.834646 H 2.834646 Z"
             inkscape:connector-curvature="0" />
        </g>
        <g
           id="line2d_1"
           style="stroke-linecap:butt;stroke-linejoin:round">
          <path
             id="path1776"
             style="fill:none;stroke:#389826;stroke-width:5;stroke-linecap:round;stroke-linejoin:round"
             d="M 216.70866,188.99648 V 104.34196"
             clip-path="url(#p798ce6fd77)"
             inkscape:connector-curvature="0" />
        </g>
        <g
           id="matplotlib.axis_1"
           style="stroke-linecap:butt;stroke-linejoin:round">
          <g
             id="xtick_1"
             style="stroke-linecap:butt;stroke-linejoin:round" />
          <g
             id="xtick_2"
             style="stroke-linecap:butt;stroke-linejoin:round" />
          <g
             id="xtick_3"
             style="stroke-linecap:butt;stroke-linejoin:round" />
          <g
             id="xtick_4"
             style="stroke-linecap:butt;stroke-linejoin:round" />
          <g
             id="xtick_5"
             style="stroke-linecap:butt;stroke-linejoin:round" />
          <g
             id="xtick_6"
             style="stroke-linecap:butt;stroke-linejoin:round" />
        </g>
        <g
           id="matplotlib.axis_2"
           style="stroke-linecap:butt;stroke-linejoin:round">
          <g
             id="ytick_1"
             style="stroke-linecap:butt;stroke-linejoin:round" />
          <g
             id="ytick_2"
             style="stroke-linecap:butt;stroke-linejoin:round" />
          <g
             id="ytick_3"
             style="stroke-linecap:butt;stroke-linejoin:round" />
          <g
             id="ytick_4"
             style="stroke-linecap:butt;stroke-linejoin:round" />
        </g>
        <g
           id="line2d_2"
           style="stroke-linecap:butt;stroke-linejoin:round">
          <path
             id="path1791"
             style="fill:none;stroke:#cb3c33;stroke-width:5;stroke-linecap:round;stroke-linejoin:round"
             d="m 88.384252,248.48234 0.06332,1.00435 0.189899,1.00336 0.316289,1.00138 0.442368,0.99841 0.56801,0.99446 0.693092,0.98952 0.817489,0.98361 0.94108,0.97672 1.063742,0.96888 1.185355,0.96007 1.305796,0.95032 1.424951,0.93963 1.542698,0.92801 1.658919,0.91549 1.77351,0.90205 1.88635,0.88772 1.99733,0.87252 2.10633,0.85646 2.21325,0.83954 2.318,0.82182 2.42046,0.80326 2.52052,0.78393 2.61809,0.76381 2.71309,0.74294 2.80541,0.72134 2.89496,0.69903 2.98165,0.67602 3.06539,0.65236 3.14613,0.62804 3.22374,0.60311 3.29817,0.57758 3.36936,0.55148 3.43722,0.52484"
             clip-path="url(#p798ce6fd77)"
             inkscape:connector-curvature="0" />
        </g>
        <g
           id="line2d_3"
           style="stroke-linecap:butt;stroke-linejoin:round">
          <path
             id="path1794"
             style="fill:none;stroke:#9558b2;stroke-width:5;stroke-linecap:round;stroke-linejoin:round"
             d="m 305.3187,197.88082 0.95642,-0.0805 0.95848,-0.0506 0.9596,-0.0205 0.95978,0.01 0.95901,0.0396 0.95728,0.0696 0.95462,0.0995 0.95101,0.12935 0.94646,0.15905 0.94099,0.1886 0.93458,0.21797 0.92725,0.24712 0.919,0.27603 0.90985,0.30466 0.8998,0.333 0.88886,0.361 0.87704,0.38865 0.86437,0.41592 0.85083,0.44277 0.83645,0.46919 0.82126,0.49515 0.80525,0.52061 0.78844,0.54556 0.77086,0.56998 0.75251,0.59383 0.73343,0.6171 0.71362,0.63975 0.69311,0.66178 0.67191,0.68315 0.65005,0.70385 0.62754,0.72385 0.60442,0.74314 0.58071,0.7617 0.55641,0.7795 0.53157,0.79654 0.50621,0.81278 0.48034,0.82823 0.454,0.84286 0.42722,0.85666 0.4,0.86961 0.37241,0.88171 0.34443,0.89292 0.31612,0.90327 0.2875,0.91272 0.2586,0.92128 0.22943,0.92891 0.20004,0.93564 0.17046,0.94143 0.1407,0.94631 0.11081,0.95025 0.0808,0.95325 0.0507,0.95531 0.0206,0.95642 -0.01,0.9566 -0.0397,0.95582 -0.0698,0.95411 -0.0998,0.95146 -0.12978,0.94786 -0.15958,0.94333 -0.18923,0.93787 -0.21869,0.93148 -0.24794,0.92418 -0.27695,0.91595 -0.30567,0.90684 -0.33411,0.89682 -0.3622,0.88591 -0.38994,0.87414 -0.4173,0.8615 -0.44425,0.84801 -0.47075,0.83368 -0.49679,0.81854 -0.52234,0.80258 -0.54738,0.78583 -0.57187,0.7683 -0.59581,0.75003 -0.61914,0.731 -0.64188,0.71125 -0.66398,0.69081 -0.68542,0.66968 -0.70619,0.6479 -0.72626,0.62546 -0.74561,0.60242 -0.76423,0.57878 -0.7821,0.55457 -0.79918,0.52981 -0.81549,0.50453 -0.83098,0.47875 -0.84567,0.4525 -0.8595,0.4258 -0.8725,0.39868 -0.88464,0.37117 -0.89589,0.34329 -0.90628,0.31508 -0.91575,0.28654 -0.92434,0.25774 -0.932,0.22867 -0.93874,0.19938 -0.94457,0.16989 -0.94946,0.14024 -0.9534,0.11045 -0.95642,0.0805 -0.95848,0.0506 -0.95961,0.0205 -0.95977,-0.01 -0.95901,-0.0396 -0.95728,-0.0696 -0.95462,-0.0995 -0.95101,-0.12934 -0.94647,-0.15905 -0.94098,-0.18861 -0.93458,-0.21797 -0.92725,-0.24712 -0.919,-0.27603 -0.90985,-0.30466 -0.8998,-0.33299 -0.88886,-0.36101 -0.87705,-0.38865 -0.86436,-0.41591 -0.85083,-0.44278"
             clip-path="url(#p798ce6fd77)"
             inkscape:connector-curvature="0" />
        </g>
        <g
           id="PathCollection_1"
           style="stroke-linecap:butt;stroke-linejoin:round">
          <defs
             id="defs1798">
            <path
               style="stroke:#9558b2;stroke-width:5;stroke-linecap:butt;stroke-linejoin:round"
               id="path2004"
               d="M 0,37.5 C 9.945116,37.5 19.484245,33.548763 26.516504,26.516504 33.548763,19.484245 37.5,9.945116 37.5,0 37.5,-9.945116 33.548763,-19.484245 26.516504,-26.516504 19.484245,-33.548763 9.945116,-37.5 0,-37.5 c -9.945116,0 -19.484245,3.951237 -26.516504,10.983496 C -33.548763,-19.484245 -37.5,-9.945116 -37.5,0 c 0,9.945116 3.951237,19.484245 10.983496,26.516504 C -19.484245,33.548763 -9.945116,37.5 0,37.5 Z"
               inkscape:connector-curvature="0" />
          </defs>
          <g
             id="g1802"
             clip-path="url(#p798ce6fd77)"
             style="stroke-linecap:butt;stroke-linejoin:round">
            <use
               id="use1800"
               y="276.90439"
               xlink:href="#me98fa22773"
               x="267.63104"
               style="fill:#aa79c1;stroke:#9558b2;stroke-width:5;stroke-linecap:butt;stroke-linejoin:round"
               width="100%"
               height="100%" />
          </g>
        </g>
        <g
           id="PathCollection_2"
           style="stroke-linecap:butt;stroke-linejoin:round">
          <defs
             id="defs1806">
            <path
               style="stroke:#cb3c33;stroke-width:5;stroke-linecap:butt;stroke-linejoin:round"
               id="path2010"
               d="M 0,37.5 C 9.945116,37.5 19.484245,33.548763 26.516504,26.516504 33.548763,19.484245 37.5,9.945116 37.5,0 37.5,-9.945116 33.548763,-19.484245 26.516504,-26.516504 19.484245,-33.548763 9.945116,-37.5 0,-37.5 c -9.945116,0 -19.484245,3.951237 -26.516504,10.983496 C -33.548763,-19.484245 -37.5,-9.945116 -37.5,0 c 0,9.945116 3.951237,19.484245 10.983496,26.516504 C -19.484245,33.548763 -9.945116,37.5 0,37.5 Z"
               inkscape:connector-curvature="0" />
          </defs>
          <g
             id="g1810"
             clip-path="url(#p798ce6fd77)"
             style="stroke-linecap:butt;stroke-linejoin:round">
            <use
               id="use1808"
               y="276.90439"
               xlink:href="#med8783007b"
               x="165.78627"
               style="fill:#d5635c;stroke:#cb3c33;stroke-width:5;stroke-linecap:butt;stroke-linejoin:round"
               width="100%"
               height="100%" />
          </g>
        </g>
        <g
           id="PathCollection_3"
           style="stroke-linecap:butt;stroke-linejoin:round">
          <defs
             id="defs1814">
            <path
               style="stroke:#389826;stroke-width:5;stroke-linecap:butt;stroke-linejoin:round"
               id="path2016"
               d="M 0,37.5 C 9.945116,37.5 19.484245,33.548763 26.516504,26.516504 33.548763,19.484245 37.5,9.945116 37.5,0 37.5,-9.945116 33.548763,-19.484245 26.516504,-26.516504 19.484245,-33.548763 9.945116,-37.5 0,-37.5 c -9.945116,0 -19.484245,3.951237 -26.516504,10.983496 C -33.548763,-19.484245 -37.5,-9.945116 -37.5,0 c 0,9.945116 3.951237,19.484245 10.983496,26.516504 C -19.484245,33.548763 -9.945116,37.5 0,37.5 Z"
               inkscape:connector-curvature="0" />
          </defs>
          <g
             id="g1818"
             clip-path="url(#p798ce6fd77)"
             style="stroke-linecap:butt;stroke-linejoin:round">
            <use
               id="use1816"
               y="188.99648"
               xlink:href="#m645a2ef62c"
               x="216.70866"
               style="fill:#60ad51;stroke:#389826;stroke-width:5;stroke-linecap:butt;stroke-linejoin:round"
               width="100%"
               height="100%" />
          </g>
        </g>
        <g
           id="line2d_4"
           style="stroke-linecap:butt;stroke-linejoin:round">
          <path
             id="path1821"
             style="fill:none;stroke:#6682e9;stroke-width:3;stroke-linecap:round;stroke-linejoin:round"
             d="M 216.70866,98.251519 V 88.100787 108.40225 98.570361"
             clip-path="url(#p798ce6fd77)"
             inkscape:connector-curvature="0" />
        </g>
        <g
           id="line2d_5"
           style="stroke-linecap:butt;stroke-linejoin:round">
          <path
             id="path1824"
             style="fill:none;stroke:#6682e9;stroke-width:3;stroke-linecap:round;stroke-linejoin:round"
             d="m 218.74556,98.251519 -0.12042,-3.438438 -0.30702,-2.783017 -0.4122,-1.990659 -0.44743,-1.225798 -0.43119,-0.587847 -0.31864,-0.124973 -0.31864,0.124973 -0.31079,0.37184 -0.35185,0.758765 -0.41307,1.495589 -0.35889,2.232422 -0.2346,2.952829 -0.04,3.169582 0.18481,3.366703 0.35821,2.62668 0.44797,1.78851 0.46859,1.01052 0.37658,0.358 0.31959,0.025 0.31644,-0.22443 0.36461,-0.59039 0.38831,-1.10377 0.3722,-1.74179 0.29991,-2.43898 0.15849,-3.076073 0.008,-0.636426 v 0"
             clip-path="url(#p798ce6fd77)"
             inkscape:connector-curvature="0" />
        </g>
        <g
           id="line2d_6"
           style="stroke-linecap:butt;stroke-linejoin:round">
          <path
             id="path1827"
             style="fill:none;stroke:#6682e9;stroke-width:3;stroke-linecap:round;stroke-linejoin:round"
             d="m 220.78245,98.251519 -0.0981,-2.214314 -0.2896,-2.107658 -0.46715,-1.899483 -0.6222,-1.599818 -0.63417,-1.073881 -0.70369,-0.758765 -0.62159,-0.37184 -0.63728,-0.124973 -0.63728,0.124973 -0.62159,0.37184 -0.59059,0.609551 -0.64739,1.023716 -0.55894,1.307853 -0.5141,1.822647 -0.34214,2.058188 -0.15372,2.194594 0.0421,2.225294 0.23592,2.148807 0.41836,1.96883 0.58065,1.694 0.60585,1.17098 0.68319,0.86737 0.61099,0.46836 0.63288,0.22443 0.63917,-0.025 0.62973,-0.27385 0.60479,-0.51595 0.67191,-0.92041 0.5908,-1.21782 0.55901,-1.73862 0.39333,-2.00059 0.20872,-2.166217 0.0301,-0.953382 v 0"
             clip-path="url(#p798ce6fd77)"
             inkscape:connector-curvature="0" />
        </g>
        <g
           id="line2d_7"
           style="stroke-linecap:butt;stroke-linejoin:round">
          <path
             id="path1830"
             style="fill:none;stroke:#6682e9;stroke-width:3;stroke-linecap:round;stroke-linejoin:round"
             d="m 222.81935,98.251519 -0.10824,-1.902058 -0.32088,-1.834676 -0.52215,-1.7023 -0.70492,-1.50962 -0.86273,-1.26346 -0.81758,-0.832254 -0.88588,-0.609551 -0.93239,-0.37184 -0.95592,-0.124973 -0.95592,0.124973 -0.93238,0.37184 -0.88589,0.609551 -0.81758,0.832254 -0.72914,1.034463 -0.73312,1.472093 -0.55408,1.674216 -0.35541,1.817028 -0.14415,1.895471 0.0722,1.906767 0.28602,1.850517 0.48971,1.7287 0.67603,1.54566 0.83841,1.30785 0.80144,0.8745 0.87392,0.65548 0.92489,0.4203 0.95309,0.17479 0.95781,-0.075 0.93896,-0.32301 0.89697,-0.56302 0.83292,-0.78919 0.74833,-0.99591 0.7606,-1.43311 0.58547,-1.64448 0.38959,-1.79759 0.17992,-1.887012 0.009,-0.318527 v 0"
             clip-path="url(#p798ce6fd77)"
             inkscape:connector-curvature="0" />
        </g>
        <g
           id="line2d_8"
           style="stroke-linecap:butt;stroke-linejoin:round">
          <path
             id="path1833"
             style="fill:none;stroke:#6682e9;stroke-width:3;stroke-linecap:round;stroke-linejoin:round"
             d="m 224.85624,98.251519 -0.10031,-1.587925 -0.29846,-1.548824 -0.48926,-1.471587 -0.66802,-1.358115 -0.83032,-1.2112 -0.97218,-1.034463 -1.0901,-0.832254 -1.18119,-0.609551 -1.24318,-0.37184 -1.27456,-0.124973 -1.27456,0.124973 -1.24318,0.37184 -1.18118,0.609551 -1.09011,0.832254 -0.97218,1.034463 -0.83032,1.2112 -0.66802,1.358115 -0.48926,1.471587 -0.29846,1.548824 -0.10031,1.587925 0.10031,1.587924 0.29846,1.548827 0.48926,1.47158 0.66802,1.35812 0.83032,1.2112 0.97218,1.03446 1.09011,0.83226 1.18118,0.60955 1.24318,0.37184 1.27456,0.12497 1.27456,-0.12497 1.24318,-0.37184 1.18119,-0.60955 1.0901,-0.83226 0.97218,-1.03446 0.83032,-1.2112 0.66802,-1.35812 0.48926,-1.47158 0.29846,-1.548827 0.0963,-1.269082 v 0"
             clip-path="url(#p798ce6fd77)"
             inkscape:connector-curvature="0" />
        </g>
        <g
           id="line2d_9"
           style="stroke-linecap:butt;stroke-linejoin:round">
          <path
             id="path1836"
             style="fill:none;stroke:#6682e9;stroke-width:3;stroke-linecap:round;stroke-linejoin:round"
             d="m 226.89314,98.251519 -0.12539,-1.587925 -0.37308,-1.548824 -0.61157,-1.471587 -0.83502,-1.358115 -1.03791,-1.2112 -1.21522,-1.034463 -1.36263,-0.832254 -1.47648,-0.609551 -1.55398,-0.37184 -1.5932,-0.124973 -1.5932,0.124973 -1.55398,0.37184 -1.47647,0.609551 -1.36263,0.832254 -1.21523,1.034463 -1.0379,1.2112 -0.83502,1.358115 -0.61158,1.471587 -0.37308,1.548824 -0.12539,1.587925 0.12539,1.587924 0.37308,1.548827 0.61158,1.47158 0.83502,1.35812 1.0379,1.2112 1.21523,1.03446 1.36263,0.83226 1.47647,0.60955 1.55398,0.37184 1.5932,0.12497 1.5932,-0.12497 1.55398,-0.37184 1.47648,-0.60955 1.36263,-0.83226 1.21522,-1.03446 1.03791,-1.2112 0.83502,-1.35812 0.61157,-1.47158 0.37308,-1.548827 0.12036,-1.269082 v 0"
             clip-path="url(#p798ce6fd77)"
             inkscape:connector-curvature="0" />
        </g>
        <g
           id="line2d_10"
           style="stroke-linecap:butt;stroke-linejoin:round">
          <path
             id="path1839"
             style="fill:none;stroke:#6682e9;stroke-width:3;stroke-linecap:round;stroke-linejoin:round"
             d="m 228.93003,98.251519 -0.0964,-1.272224 -0.28758,-1.252161 -0.47427,-1.212349 -0.65348,-1.153418 -0.82237,-1.076299 -0.9783,-0.982203 -1.41843,-1.071998 -1.60288,-0.874502 -1.74785,-0.655474 -1.84978,-0.420306 -1.90618,-0.174789 -1.91562,0.07503 -1.87791,0.323007 -1.79396,0.563026 -1.66582,0.789184 -1.49667,0.995908 -1.29068,1.17811 -0.86267,1.054312 -0.69677,1.135801 -0.51989,1.199378 -0.3348,1.244039 -0.14443,1.269082 0.0482,1.274111 0.24009,1.259046 0.42819,1.22413 0.60953,1.16989 0.78126,1.09723 0.94068,1.00724 1.37719,1.10847 1.56901,0.91589 1.72219,0.70075 1.83298,0.46836 1.89862,0.22443 1.91752,-0.025 1.8892,-0.27385 1.81436,-0.51595 1.69485,-0.74534 1.5336,-0.95637 1.33459,-1.14385 1.10272,-1.30318 0.69677,-1.1358 0.51989,-1.19938 0.3348,-1.24404 0.14443,-1.269082 v 0"
             clip-path="url(#p798ce6fd77)"
             inkscape:connector-curvature="0" />
        </g>
        <g
           id="line2d_11"
           style="stroke-linecap:butt;stroke-linejoin:round">
          <path
             id="path1842"
             style="fill:none;stroke:#6682e9;stroke-width:3;stroke-linecap:round;stroke-linejoin:round"
             d="m 230.96693,98.251519 -0.11243,-1.272224 -0.33552,-1.252161 -0.55332,-1.212349 -0.76238,-1.153418 -0.95944,-1.076299 -1.14135,-0.982203 -1.30527,-0.872619 -1.4486,-0.749273 -1.97732,-0.745335 -2.11675,-0.515947 -2.20407,-0.273854 -2.2371,-0.02502 -2.21506,0.224432 -2.13848,0.468357 -2.00923,0.700751 -1.83051,0.915888 -1.30527,0.872619 -1.14135,0.982203 -0.95943,1.076299 -0.76239,1.153418 -0.55332,1.212349 -0.33552,1.252161 -0.11243,1.272224 0.11243,1.272224 0.33552,1.252158 0.55332,1.21235 0.76239,1.15342 0.95943,1.0763 1.14135,0.9822 1.30527,0.87262 1.4486,0.74927 1.97732,0.74534 2.11675,0.51595 2.20407,0.27385 2.2371,0.025 2.21507,-0.22443 2.13847,-0.46836 2.00923,-0.70075 1.83051,-0.91589 1.30527,-0.87262 1.14135,-0.9822 0.95944,-1.0763 0.76238,-1.15342 0.55332,-1.21235 0.33552,-1.252158 0.10539,-0.953382 v 0"
             clip-path="url(#p798ce6fd77)"
             inkscape:connector-curvature="0" />
        </g>
        <g
           id="line2d_12"
           style="stroke-linecap:butt;stroke-linejoin:round">
          <path
             id="path1845"
             style="fill:none;stroke:#6682e9;stroke-width:3;stroke-linecap:round;stroke-linejoin:round"
             d="m 233.00382,98.251519 -0.12849,-1.272224 -0.38345,-1.252161 -0.63236,-1.212349 -0.8713,-1.153418 -1.0965,-1.076299 -1.3044,-0.982203 -1.49173,-0.872619 -1.65554,-0.749273 -2.2598,-0.745335 -2.41915,-0.515947 -2.51893,-0.273854 -2.55669,-0.02502 -2.5315,0.224432 -2.44397,0.468357 -2.29626,0.700751 -2.09202,0.915888 -1.49173,0.872619 -1.3044,0.982203 -1.0965,1.076299 -0.8713,1.153418 -0.63236,1.212349 -0.38345,1.252161 -0.12849,1.272224 0.12849,1.272224 0.38345,1.252158 0.63236,1.21235 0.8713,1.15342 1.0965,1.0763 1.3044,0.9822 1.49173,0.87262 1.65555,0.74927 2.25979,0.74534 2.41915,0.51595 2.51893,0.27385 2.55669,0.025 2.5315,-0.22443 2.44397,-0.46836 2.29626,-0.70075 2.09202,-0.91589 1.49173,-0.87262 1.3044,-0.9822 1.0965,-1.0763 0.8713,-1.15342 0.63236,-1.21235 0.38345,-1.252158 0.12045,-0.953382 v 0"
             clip-path="url(#p798ce6fd77)"
             inkscape:connector-curvature="0" />
        </g>
        <g
           id="line2d_13"
           style="stroke-linecap:butt;stroke-linejoin:round">
          <path
             id="path1848"
             style="fill:none;stroke:#6682e9;stroke-width:3;stroke-linecap:round;stroke-linejoin:round"
             d="m 235.04072,98.251519 -0.14455,-1.272224 -0.43139,-1.252161 -0.7114,-1.212349 -0.98021,-1.153418 -1.23356,-1.076299 -1.46745,-0.982203 -1.67821,-0.872619 -1.86248,-0.749273 -2.54227,-0.745335 -2.72154,-0.515947 -2.8338,-0.273854 -2.87628,-0.02502 -2.84793,0.224432 -2.74947,0.468357 -2.5833,0.700751 -2.35351,0.915888 -1.6782,0.872619 -1.46746,0.982203 -1.23355,1.076299 -0.98022,1.153418 -0.7114,1.212349 -0.43138,1.252161 -0.14456,1.272224 0.14456,1.272224 0.43138,1.252158 0.7114,1.21235 0.98022,1.15342 1.23355,1.0763 1.46746,0.9822 1.6782,0.87262 1.86248,0.74927 2.54227,0.74534 2.72154,0.51595 2.8338,0.27385 2.87628,0.025 2.84794,-0.22443 2.74946,-0.46836 2.5833,-0.70075 2.35351,-0.91589 1.67821,-0.87262 1.46745,-0.9822 1.23356,-1.0763 0.98021,-1.15342 0.7114,-1.21235 0.43139,-1.252158 0.1355,-0.953382 v 0"
             clip-path="url(#p798ce6fd77)"
             inkscape:connector-curvature="0" />
        </g>
        <g
           id="line2d_14"
           style="stroke-linecap:butt;stroke-linejoin:round">
          <path
             id="path1851"
             style="fill:none;stroke:#6682e9;stroke-width:3;stroke-linecap:round;stroke-linejoin:round"
             d="m 237.07761,98.251519 -0.0904,-0.955269 -0.2704,-0.946789 -0.44798,-0.929906 -0.86648,-1.199378 -1.16128,-1.135801 -1.43779,-1.054312 -1.6916,-0.956196 -1.91875,-0.843001 -2.11564,-0.716509 -2.87033,-0.700751 -3.05496,-0.468357 -3.16437,-0.224432 -3.19587,0.02502 -3.14866,0.273854 -3.02394,0.515947 -2.82474,0.745335 -2.06943,0.749273 -1.86467,0.872619 -1.6305,0.982203 -1.37062,1.076299 -1.08912,1.153418 -0.79045,1.212349 -0.38916,0.93646 -0.21058,0.950555 -0.0301,0.956212 0.15056,0.953382 0.32994,0.942086 0.50637,0.92244 0.94165,1.18522 1.2323,1.11706 1.50353,1.03129 1.75104,0.92924 1.97094,0.81255 2.15975,0.68304 2.91308,0.65548 3.08298,0.4203 3.17696,0.17479 3.19271,-0.075 3.12985,-0.32301 2.98992,-0.56302 2.77637,-0.78919 2.02118,-0.7813 1.80875,-0.90137 1.56779,-1.00724 1.3021,-1.09723 1.01589,-1.16989 0.71364,-1.22413 0.32994,-0.942086 0.15056,-0.953382 v 0"
             clip-path="url(#p798ce6fd77)"
             inkscape:connector-curvature="0" />
        </g>
        <g
           id="line2d_15"
           style="stroke-linecap:butt;stroke-linejoin:round">
          <path
             id="path1854"
             style="fill:none;stroke:#6682e9;stroke-width:3;stroke-linecap:round;stroke-linejoin:round"
             d="m 239.11451,98.251519 -0.0994,-0.955269 -0.29743,-0.946789 -0.49278,-0.929906 -0.68377,-0.90477 -1.19803,-1.153418 -1.50769,-1.076299 -1.79355,-0.982203 -2.05113,-0.872619 -2.27637,-0.749273 -2.46571,-0.614111 -3.28892,-0.563026 -3.44283,-0.323007 -3.51198,-0.07503 -3.49466,0.174789 -3.39127,0.420306 -3.20439,0.655474 -2.37573,0.68304 -2.16803,0.812549 -1.92614,0.929245 -1.65388,1.031286 -1.35554,1.117062 -1.03581,1.185223 -0.55701,0.922435 -0.36293,0.94209 -0.16562,0.953381 0.0331,0.956212 0.23164,0.950555 0.42807,0.936454 0.6207,0.91406 1.11747,1.16989 1.43232,1.09723 1.72457,1.00724 1.98962,0.90137 2.2233,0.7813 2.42191,0.6489 3.24825,0.60955 3.41874,0.37184 3.50505,0.12497 3.50505,-0.12497 3.41874,-0.37184 3.24825,-0.60955 2.99779,-0.83226 2.16803,-0.81255 1.92614,-0.92924 1.65389,-1.03129 1.35553,-1.11706 1.03581,-1.18522 0.55701,-0.92244 0.36293,-0.942084 0.16562,-0.953382 v 0"
             clip-path="url(#p798ce6fd77)"
             inkscape:connector-curvature="0" />
        </g>
        <g
           id="line2d_16"
           style="stroke-linecap:butt;stroke-linejoin:round">
          <path
             id="path1857"
             style="fill:none;stroke:#6682e9;stroke-width:3;stroke-linecap:round;stroke-linejoin:round"
             d="m 241.15141,98.251519 -0.10848,-0.955269 -0.32447,-0.946789 -0.53759,-0.929906 -0.74592,-0.90477 -1.30695,-1.153418 -1.64474,-1.076299 -1.95661,-0.982203 -2.2376,-0.872619 -2.48331,-0.749273 -2.68986,-0.614111 -3.58791,-0.563026 -3.75582,-0.323007 -3.83125,-0.07503 -3.81235,0.174789 -3.69957,0.420306 -3.4957,0.655474 -2.5917,0.68304 -2.36513,0.812549 -2.10125,0.929245 -1.80423,1.031286 -1.47877,1.117062 -1.12997,1.185223 -0.60765,0.922435 -0.39593,0.94209 -0.18067,0.953381 0.0362,0.956212 0.2527,0.950555 0.46698,0.936454 0.67712,0.91406 0.88125,0.88353 1.47877,1.11706 1.80423,1.03129 2.10125,0.92924 2.36513,0.81255 2.5917,0.68304 3.4957,0.65548 3.69957,0.4203 3.81235,0.17479 3.83125,-0.075 3.75582,-0.32301 3.58791,-0.56302 3.33164,-0.78919 2.42542,-0.7813 2.17049,-0.90137 1.88135,-1.00724 1.56253,-1.09723 1.21906,-1.16989 0.67712,-0.91406 0.46698,-0.936454 0.2527,-0.950555 0.0362,-0.318527 v 0"
             clip-path="url(#p798ce6fd77)"
             inkscape:connector-curvature="0" />
        </g>
        <g
           id="line2d_17"
           style="stroke-linecap:butt;stroke-linejoin:round">
          <path
             id="path1860"
             style="fill:none;stroke:#6682e9;stroke-width:3;stroke-linecap:round;stroke-linejoin:round"
             d="m 243.1883,98.251519 -0.11752,-0.955269 -0.35151,-0.946789 -0.58238,-0.929906 -0.80808,-0.90477 -1.02662,-0.871602 -1.69273,-1.097222 -2.03813,-1.007241 -2.35137,-0.901377 -2.62753,-0.781297 -2.86226,-0.648895 -3.83885,-0.609551 -4.04033,-0.37184 -4.14233,-0.124973 -4.14233,0.124973 -4.04033,0.37184 -3.83884,0.609551 -3.54284,0.832254 -2.56222,0.812549 -2.27635,0.929245 -1.95459,1.031286 -1.60199,1.117062 -0.95469,0.883534 -0.73355,0.914053 -0.5059,0.93646 -0.27376,0.950555 -0.0392,0.956212 0.19573,0.953382 0.42892,0.942087 0.65829,0.92244 0.88182,0.89459 1.09753,0.85881 1.7818,1.0763 2.11965,0.9822 2.42407,0.87262 2.69026,0.74927 2.91402,0.61412 3.8869,0.56302 4.0688,0.32301 4.15053,0.075 4.13004,-0.17479 4.00787,-0.4203 3.787,-0.65548 2.80768,-0.68304 2.56222,-0.81255 2.27635,-0.92924 1.95459,-1.03129 1.602,-1.11706 0.95469,-0.88353 0.73354,-0.91406 0.5059,-0.936457 0.27376,-0.950555 0.0392,-0.318527 v 0"
             clip-path="url(#p798ce6fd77)"
             inkscape:connector-curvature="0" />
        </g>
        <g
           id="line2d_18"
           style="stroke-linecap:butt;stroke-linejoin:round">
          <path
             id="path1863"
             style="fill:none;stroke:#6682e9;stroke-width:3;stroke-linecap:round;stroke-linejoin:round"
             d="m 245.2252,98.251519 -0.12656,-0.955269 -0.37855,-0.946789 -0.62718,-0.929906 -0.87024,-0.90477 -1.10559,-0.871602 -1.82295,-1.097222 -2.1949,-1.007241 -2.53225,-0.901377 -2.82965,-0.781297 -3.08243,-0.648895 -4.13415,-0.609551 -4.35112,-0.37184 -4.46097,-0.124973 -4.46097,0.124973 -4.35112,0.37184 -4.13415,0.609551 -3.08243,0.648895 -2.82965,0.781297 -2.53225,0.901377 -2.1949,1.007241 -1.82295,1.097222 -1.42224,1.169898 -0.78998,0.914053 -0.54481,0.93646 -0.29481,0.950555 -0.0422,0.956212 0.21079,0.953382 0.46191,0.942087 0.70892,0.92244 0.94966,0.89459 1.18195,0.85881 1.91887,1.0763 2.2827,0.9822 2.61054,0.87262 2.8972,0.74927 3.13817,0.61412 4.18589,0.56302 4.38179,0.32301 4.4698,0.075 4.44774,-0.17479 4.31616,-0.4203 4.07832,-0.65548 3.02365,-0.68304 2.75931,-0.81255 2.45146,-0.92924 2.10494,-1.03129 1.72522,-1.11706 1.02813,-0.88353 0.78998,-0.91406 0.54481,-0.936457 0.29482,-0.950555 0.0422,-0.318527 v 0"
             clip-path="url(#p798ce6fd77)"
             inkscape:connector-curvature="0" />
        </g>
        <g
           id="line2d_19"
           style="stroke-linecap:butt;stroke-linejoin:round">
          <path
             id="path1866"
             style="fill:none;stroke:#6682e9;stroke-width:3;stroke-linecap:round;stroke-linejoin:round"
             d="m 247.26209,98.251519 -0.1356,-0.955269 -0.40558,-0.946789 -0.67198,-0.929906 -0.93241,-0.90477 -1.18455,-0.871602 -1.95316,-1.097222 -2.35168,-1.007241 -2.71312,-0.901377 -3.03177,-0.781297 -3.30261,-0.648895 -4.42944,-0.609551 -4.66192,-0.37184 -4.77961,-0.124973 -4.77961,0.124973 -4.66192,0.37184 -4.42944,0.609551 -3.3026,0.648895 -3.03178,0.781297 -2.71312,0.901377 -2.35168,1.007241 -1.95316,1.097222 -1.18455,0.871602 -0.93241,0.90477 -0.67197,0.929906 -0.40559,0.946789 -0.1356,0.955269 0.1356,0.955268 0.40559,0.946793 0.67197,0.9299 0.93241,0.90477 1.18455,0.8716 1.95316,1.09723 2.35168,1.00724 2.71312,0.90137 3.03178,0.7813 3.3026,0.6489 4.42944,0.60955 4.66192,0.37184 4.77961,0.12497 4.77961,-0.12497 4.66192,-0.37184 4.42944,-0.60955 3.30261,-0.6489 3.03177,-0.7813 2.71312,-0.90137 2.35168,-1.00724 1.95316,-1.09723 1.18455,-0.8716 0.93241,-0.90477 0.67198,-0.9299 0.40558,-0.946793 0.12053,-0.636426 v 0"
             clip-path="url(#p798ce6fd77)"
             inkscape:connector-curvature="0" />
        </g>
        <g
           id="line2d_20"
           style="stroke-linecap:butt;stroke-linejoin:round">
          <path
             id="path1869"
             style="fill:none;stroke:#6682e9;stroke-width:3;stroke-linecap:round;stroke-linejoin:round"
             d="m 249.29899,98.251519 -0.14464,-0.955269 -0.43263,-0.946789 -0.71677,-0.929906 -0.99457,-0.90477 -1.26353,-0.871602 -2.08336,-1.097222 -2.50846,-1.007241 -2.894,-0.901377 -3.23389,-0.781297 -3.52278,-0.648895 -4.72473,-0.609551 -4.97272,-0.37184 -5.09825,-0.124973 -5.09825,0.124973 -4.97271,0.37184 -4.72474,0.609551 -3.52278,0.648895 -3.23389,0.781297 -2.89399,0.901377 -2.50846,1.007241 -2.08337,1.097222 -1.26353,0.871602 -0.99456,0.90477 -0.71678,0.929906 -0.43263,0.946789 -0.14464,0.955269 0.14464,0.955268 0.43263,0.946793 0.71678,0.9299 0.99456,0.90477 1.26353,0.8716 2.08337,1.09723 2.50846,1.00724 2.89399,0.90137 3.23389,0.7813 3.52278,0.6489 4.72474,0.60955 4.97271,0.37184 5.09825,0.12497 5.09825,-0.12497 4.97272,-0.37184 4.72473,-0.60955 3.52278,-0.6489 3.23389,-0.7813 2.894,-0.90137 2.50846,-1.00724 2.08336,-1.09723 1.26353,-0.8716 0.99457,-0.90477 0.71677,-0.9299 0.43263,-0.946793 0.12856,-0.636426 v 0"
             clip-path="url(#p798ce6fd77)"
             inkscape:connector-curvature="0" />
        </g>
        <g
           id="line2d_21"
           style="stroke-linecap:butt;stroke-linejoin:round">
          <path
             id="path1872"
             style="fill:none;stroke:#6682e9;stroke-width:3;stroke-linecap:round;stroke-linejoin:round"
             d="m 251.33588,98.251519 -0.15367,-0.955269 -0.45967,-0.946789 -0.76158,-0.929906 -1.05672,-0.90477 -1.3425,-0.871602 -1.61635,-0.830698 -2.556,-1.031286 -2.97676,-0.929245 -3.3506,-0.812549 -3.67158,-0.68304 -3.93466,-0.542758 -5.19343,-0.468357 -5.37944,-0.224432 -5.43297,0.02502 -5.35273,0.273854 -5.14069,0.515947 -4.80206,0.745335 -3.51803,0.749273 -3.16994,0.872619 -2.77185,0.982203 -2.33005,1.076299 -1.43523,0.85881 -1.15315,0.894593 -0.86085,0.922435 -0.56088,0.94209 -0.25596,0.953381 0.0512,0.956212 0.35799,0.950555 0.66156,0.936456 0.95925,0.91406 1.24844,0.88353 1.52655,0.84517 2.44423,1.05431 2.87573,0.9562 3.26187,0.843 3.59658,0.71651 3.87456,0.57872 5.14069,0.51595 5.35273,0.27385 5.43297,0.025 5.37944,-0.22443 5.19343,-0.46836 4.87956,-0.70075 3.59658,-0.71651 3.26187,-0.843 2.87573,-0.9562 2.44424,-1.05431 1.97418,-1.1358 1.15316,-0.89459 0.86084,-0.92244 0.56089,-0.942086 0.25596,-0.953382 v 0"
             clip-path="url(#p798ce6fd77)"
             inkscape:connector-curvature="0" />
        </g>
        <g
           id="line2d_22"
           style="stroke-linecap:butt;stroke-linejoin:round">
          <path
             id="path1875"
             style="fill:none;stroke:#6682e9;stroke-width:3;stroke-linecap:round;stroke-linejoin:round"
             d="m 253.37278,98.251519 -0.16272,-0.955269 -0.4867,-0.946789 -0.80638,-0.929906 -1.11889,-0.90477 -1.42146,-0.871602 -1.71143,-0.830698 -2.70635,-1.031286 -3.15187,-0.929245 -3.54769,-0.812549 -3.88756,-0.68304 -4.16611,-0.542758 -5.49893,-0.468357 -5.69587,-0.224432 -5.75256,0.02502 -5.66759,0.273854 -5.44309,0.515947 -5.08454,0.745335 -3.72497,0.749273 -3.3564,0.872619 -2.9349,0.982203 -2.46712,1.076299 -1.51965,0.85881 -1.22099,0.894593 -0.91148,0.922435 -0.59388,0.94209 -0.27101,0.953381 0.0543,0.956212 0.37905,0.950555 0.70047,0.936456 1.01569,0.91406 1.32188,0.88353 1.61633,0.84517 2.58802,1.05431 3.04489,0.9562 3.45375,0.843 3.80814,0.71651 4.10247,0.57872 5.44309,0.51595 5.66759,0.27385 5.75256,0.025 5.69587,-0.22443 5.49893,-0.46836 5.16659,-0.70075 3.80815,-0.71651 3.45375,-0.843 3.04489,-0.9562 2.58801,-1.05431 2.09031,-1.1358 1.22099,-0.89459 0.91148,-0.92244 0.59388,-0.942086 0.27102,-0.953382 v 0"
             clip-path="url(#p798ce6fd77)"
             inkscape:connector-curvature="0" />
        </g>
        <g
           id="line2d_23"
           style="stroke-linecap:butt;stroke-linejoin:round">
          <path
             id="path1878"
             style="fill:none;stroke:#6682e9;stroke-width:3;stroke-linecap:round;stroke-linejoin:round"
             d="m 255.40967,98.251519 -0.0764,-0.63737 -0.40011,-0.950555 -0.73939,-0.93646 -1.07211,-0.914053 -1.39532,-0.883534 -1.70613,-0.845171 -2.73179,-1.054312 -3.21405,-0.956196 -3.64563,-0.843001 -4.0197,-0.716509 -4.33039,-0.57872 -5.74548,-0.515947 -5.98246,-0.273854 -6.07215,-0.02502 -6.0123,0.224432 -5.80443,0.468357 -5.45363,0.700751 -4.0197,0.716509 -3.64563,0.843001 -3.21405,0.956196 -2.73179,1.054312 -2.20644,1.135801 -1.28882,0.894593 -0.96212,0.922435 -0.62687,0.94209 -0.28607,0.953381 v 0.637685 l 0.15266,0.636426 0.51374,0.946794 0.85117,0.9299 1.18105,0.90477 1.50044,0.8716 1.80651,0.8307 2.8567,1.03129 3.32697,0.92924 3.74479,0.81255 4.10353,0.68304 4.39756,0.54276 5.80443,0.46836 6.0123,0.22443 6.07215,-0.025 5.98246,-0.27385 5.74548,-0.51595 5.36701,-0.74534 3.93191,-0.74927 3.54288,-0.87262 3.09795,-0.9822 2.60418,-1.0763 1.60407,-0.85881 1.28882,-0.89459 0.96212,-0.92244 0.62687,-0.942088 0.28608,-0.953382 v 0"
             clip-path="url(#p798ce6fd77)"
             inkscape:connector-curvature="0" />
        </g>
        <g
           id="line2d_24"
           style="stroke-linecap:butt;stroke-linejoin:round">
          <path
             id="path1881"
             style="fill:none;stroke:#4063d8;stroke-width:5;stroke-linecap:round;stroke-linejoin:round"
             d="m 257.44657,98.251519 -0.0804,-0.63737 -0.24084,-0.634854 -0.65987,-0.94209 -1.01276,-0.922435 -1.35665,-0.894593 -1.6885,-0.85881 -2.74124,-1.076299 -3.261,-0.982203 -3.72934,-0.872619 -4.13886,-0.749273 -4.4831,-0.614111 -5.97985,-0.563026 -6.2597,-0.323007 -6.38542,-0.07503 -6.35391,0.174789 -6.16595,0.420306 -5.82617,0.655474 -4.3195,0.68304 -3.94188,0.812549 -3.50208,0.929245 -3.00705,1.031286 -2.46461,1.117062 -1.46875,0.883534 -1.12854,0.914053 -0.77831,0.93646 -0.42116,0.950555 -0.0804,0.63737 0.0804,0.637369 0.24084,0.634855 0.65987,0.942084 1.01276,0.92244 1.35665,0.89459 1.6885,0.85881 2.74124,1.0763 3.261,0.9822 3.72934,0.87262 4.13886,0.74927 4.4831,0.61412 5.97985,0.56302 6.2597,0.32301 6.38542,0.075 6.35391,-0.17479 6.16596,-0.4203 5.82616,-0.65548 4.3195,-0.68304 3.94188,-0.81255 3.50208,-0.92924 3.00705,-1.03129 2.46461,-1.11706 1.46875,-0.88353 1.12854,-0.91406 0.77831,-0.936454 0.42116,-0.950555 0.0603,-0.318527 v 0"
             clip-path="url(#p798ce6fd77)"
             inkscape:connector-curvature="0" />
        </g>
        <g
           id="line2d_25"
           style="stroke-linecap:butt;stroke-linejoin:round">
          <path
             id="path1884"
             style="fill:none;stroke:#d3d3d3;stroke-width:5;stroke-linecap:round;stroke-linejoin:round"
             d="m 298.18448,98.251519 -0.16078,-1.27474 -0.48168,-1.269708 -0.8007,-1.259667 -1.11656,-1.244654 -1.42799,-1.224728 -1.73381,-1.19997 -2.03278,-1.170476 -2.32372,-1.136362 -2.60549,-1.097763 -4.41379,-1.564842 -4.98521,-1.454398 -5.51239,-1.331044 -5.99064,-1.195876 -6.41571,-1.050094 -6.78385,-0.894991 -7.09177,-0.731943 -7.33674,-0.562399 -7.51658,-0.387863 -7.62972,-0.209884 -7.67513,-0.03004 -7.65241,0.150065 -7.56177,0.328842 -7.40401,0.5047 -7.18054,0.676077 -6.89332,0.841454 -6.54493,0.999361 -6.13844,1.1484 -5.67746,1.287244 -5.16609,1.414662 -4.60887,1.529525 -4.01074,1.63081 -2.32372,1.136362 -2.03278,1.170476 -1.7338,1.19997 -1.428,1.224728 -1.11655,1.244654 -0.8007,1.259667 -0.48169,1.269708 -0.16077,1.27474 0.16077,1.274739 0.48169,1.269709 0.8007,1.25966 1.11655,1.24466 1.428,1.22472 1.7338,1.19998 2.03278,1.17047 2.32372,1.13636 2.60549,1.09777 4.41379,1.56484 4.98521,1.4544 5.51239,1.33104 5.99064,1.19588 6.41572,1.05009 6.78385,0.89499 7.09176,0.73194 7.33674,0.5624 7.51659,0.38787 7.62971,0.20988 7.67513,0.03 7.65241,-0.15006 7.56177,-0.32884 7.40401,-0.5047 7.18054,-0.67608 6.89332,-0.84145 6.54493,-0.99937 6.13844,-1.1484 5.67746,-1.28724 5.1661,-1.41466 4.60887,-1.52953 4.01073,-1.63081 2.32372,-1.13636 2.03278,-1.17047 1.73381,-1.19998 1.42799,-1.22472 1.11656,-1.24466 0.8007,-1.25966 0.48168,-1.269709 0.12057,-0.637055 v 0"
             clip-path="url(#p798ce6fd77)"
             inkscape:connector-curvature="0" />
        </g>
        <g
           id="line2d_26"
           style="stroke-linecap:butt;stroke-linejoin:round">
          <path
             id="path1887"
             style="fill:none;stroke:#d3d3d3;stroke-width:5;stroke-linecap:round;stroke-linejoin:round"
             d="m 345.03307,98.251519 -0.0633,-1.004353 -0.1899,-1.003362 -0.31629,-1.00138 -0.44237,-0.998411 -1.2611,-1.983975 -1.75857,-1.96033 -2.24909,-1.928947 -2.73075,-1.889953 -3.20162,-1.843498 -3.65986,-1.78977 -4.10366,-1.728978 -4.53125,-1.661361 -4.94097,-1.587189 -5.33119,-1.506752 -5.70036,-1.42037 -6.04705,-1.328381 -6.36986,-1.23115 -6.66754,-1.12906 -10.5016,-1.492539 -11.01869,-1.239662 -11.438,-0.975781 -11.75577,-0.70324 -11.96921,-0.424456 -12.07639,-0.141906 -12.07639,0.141906 -11.96921,0.424456 -11.75577,0.70324 -11.43799,0.975781 -11.0187,1.239662 -10.5016,1.492539 -6.66753,1.12906 -6.36987,1.23115 -6.04704,1.328381 -5.70037,1.42037 -5.33118,1.506752 -4.94098,1.587189 -4.53125,1.661361 -4.10366,1.728978 -3.65986,1.78977 -3.201617,1.843498 -2.730747,1.889953 -2.249097,1.928947 -1.758569,1.96033 -1.261102,1.983975 -0.442368,0.998411 -0.316289,1.00138 -0.189899,1.003362 -0.06332,1.004353 0.06332,1.004352 0.189899,1.003359 0.316289,1.00138 0.442368,0.99841 1.261102,1.98398 1.758569,1.96033 2.249097,1.92895 2.730747,1.88995 3.201617,1.8435 3.65986,1.78977 4.10366,1.72897 4.53125,1.66137 4.94098,1.58719 5.33118,1.50675 5.70037,1.42037 6.04704,1.32838 6.36987,1.23115 6.66753,1.12906 10.5016,1.49254 11.0187,1.23966 11.43799,0.97578 11.75577,0.70324 11.96921,0.42446 12.07639,0.1419 12.07639,-0.1419 11.96921,-0.42446 11.75577,-0.70324 11.438,-0.97578 11.01869,-1.23966 10.5016,-1.49254 6.66754,-1.12906 6.36986,-1.23115 6.04705,-1.32838 5.70036,-1.42037 5.33119,-1.50675 4.94097,-1.58719 4.53125,-1.66137 4.10366,-1.72897 3.65986,-1.78977 3.20162,-1.8435 2.73075,-1.88995 2.24909,-1.92895 1.75857,-1.96033 1.2611,-1.98398 0.44237,-0.99841 0.31629,-1.00138 0.1899,-1.003359 v 0"
             clip-path="url(#p798ce6fd77)"
             inkscape:connector-curvature="0" />
        </g>
        <g
           id="line2d_27"
           style="stroke-linecap:butt;stroke-linejoin:round">
          <path
             id="path1890"
             style="fill:none;stroke:#d3d3d3;stroke-width:5;stroke-linecap:round;stroke-linejoin:round"
             d="M 88.384252,98.251519 V 313.44702 l 0.06332,1.00435 0.189899,1.00336 0.316289,1.00138 0.442368,0.99841 0.56801,0.99446 0.693092,0.98952 0.817489,0.98361 0.94108,0.97672 1.063742,0.96887 1.185355,0.96008 1.305796,0.95032 1.424951,0.93963 1.542698,0.92801 1.658919,0.91549 1.77351,0.90205 1.88635,0.88772 1.99733,0.87252 2.10633,0.85645 2.21325,0.83955 2.318,0.82182 2.42046,0.80326 2.52052,0.78393 2.61809,0.76381 2.71309,0.74294 2.80541,0.72134 2.89496,0.69903 2.98165,0.67602 3.06539,0.65236 3.14613,0.62804 3.22374,0.60311 3.29817,0.57758 3.36936,0.55148 3.43722,0.52484 3.50169,0.49767 3.56269,0.47003 3.62018,0.44191 3.67411,0.41335 3.72441,0.3844 3.77102,0.35506 3.81392,0.32536 3.85305,0.29536 3.88839,0.26506 3.91988,0.23448 3.9475,0.2037 3.97124,0.1727 3.99105,0.14153 4.00692,0.11023 4.01883,0.0788 4.02679,0.0473 4.03077,0.0158 4.03077,-0.0158 4.02679,-0.0473 4.01883,-0.0788 4.00692,-0.11023 3.99105,-0.14153 3.97124,-0.1727 3.9475,-0.2037 3.91988,-0.23448 3.88839,-0.26506 3.85305,-0.29536 3.81392,-0.32536 3.77103,-0.35506 3.7244,-0.3844 3.67411,-0.41335 3.62018,-0.44191 3.5627,-0.47003 3.50168,-0.49767 3.43722,-0.52484 3.36936,-0.55148 3.29818,-0.57758 3.22374,-0.60311 3.14612,-0.62804 3.0654,-0.65236 2.98165,-0.67602 2.89495,-0.69903 2.80541,-0.72134 2.71309,-0.74294 2.6181,-0.76381 2.52052,-0.78393 2.42045,-0.80326 2.318,-0.82182 2.21325,-0.83955 2.10633,-0.85645 1.99733,-0.87252 1.88635,-0.88772 1.77351,-0.90205 1.65892,-0.91549 1.5427,-0.92801 1.42495,-0.93963 1.3058,-0.95032 1.18535,-0.96008 1.06374,-0.96887 0.94108,-0.97672 0.81749,-0.98361 0.69309,-0.98952 0.56801,-0.99446 0.44237,-0.99841 0.31629,-1.00138 0.1899,-1.00336 0.0633,-216.199851"
             clip-path="url(#p798ce6fd77)"
             inkscape:connector-curvature="0" />
        </g>
        <g
           id="line2d_28"
           style="stroke-linecap:butt;stroke-linejoin:round">
          <path
             id="path1893"
             style="fill:none;stroke:#9558b2;stroke-width:5;stroke-linecap:round;stroke-linejoin:round"
             d="m 313.95742,197.70148 4.44535,-0.11962 6.72703,0.0742 10.60406,0.13248 4.36747,-0.157 3.12336,-0.30349 2.71238,-0.50074 1.72681,-0.52315 1.4397,-0.66095 1.13679,-0.80634 0.82334,-0.95679 0.372,-0.72276 0.23017,-0.79084 0.0817,-1.31277 -0.22723,-1.46104 -0.52299,-1.603 -0.80045,-1.73617 -1.45822,-2.50255 -1.84298,-2.68723 -2.72393,-3.56072 -4.91202,-5.96293 -5.48379,-6.68803 -2.6374,-3.51919 -1.74913,-2.64218 -1.34557,-2.44848 -0.7057,-1.6907 -0.42128,-1.55418 -0.1203,-1.40971 0.19197,-1.25984 0.30461,-0.75511 0.4465,-0.687 0.58768,-0.61925 1.14197,-0.80385 1.44466,-0.65857 1.73146,-0.52091 1.99736,-0.39329 3.0321,-0.34729 4.28002,-0.19897 5.63567,10e-4 15.31978,0.14263 4.16179,-0.25572 2.91171,-0.40507 1.89441,-0.4427 1.61963,-0.57459 1.32589,-0.71558 1.01833,-0.8632 0.5036,-0.65959 0.36187,-0.72763 0.22006,-0.7957 0.0668,-1.31993 -0.24166,-1.46796 -0.53666,-1.60956 -0.81311,-1.74226 -1.47319,-2.50973 -1.85533,-2.69315 -2.73512,-3.56609 -4.91891,-5.96625 -5.47468,-6.68365 -2.62505,-3.51326 -1.73595,-2.63586 -1.32991,-2.44096 -0.69261,-1.68441 -0.40727,-1.54746 -0.10565,-1.402686 0.20703,-1.252602 0.31474,-0.750249 0.45663,-0.682148 0.5977,-0.61443 1.15667,-0.796798 1.45872,-0.651821 1.74463,-0.514591 2.00943,-0.387493 3.04608,-0.340576 4.29357,-0.192472 5.64528,0.0057 6.86193,0.138971 v 0"
             clip-path="url(#p798ce6fd77)"
             inkscape:connector-curvature="0" />
        </g>
        <g
           id="text_1"
           style="stroke-linecap:butt;stroke-linejoin:round">
          <!-- olid -->
          <defs
             id="defs1900">
            <path
               id="path2072"
               d="m 30.609375,48.390625 q -7.21875,0 -11.421875,-5.640625 -4.203125,-5.640625 -4.203125,-15.453125 0,-9.8125 4.171875,-15.453125 4.1875,-5.640625 11.453125,-5.640625 7.1875,0 11.375,5.65625 4.203125,5.671875 4.203125,15.4375 0,9.71875 -4.203125,15.40625 -4.1875,5.6875 -11.375,5.6875 z m 0,7.609375 q 11.71875,0 18.40625,-7.625 6.703125,-7.609375 6.703125,-21.078125 0,-13.421875 -6.703125,-21.078125 -6.6875,-7.640625 -18.40625,-7.640625 -11.765625,0 -18.4375,7.640625 -6.65625,7.65625 -6.65625,21.078125 0,13.46875 6.65625,21.078125 Q 18.84375,56 30.609375,56 Z"
               inkscape:connector-curvature="0"
               style="stroke-linecap:butt;stroke-linejoin:round" />
            <path
               id="path2074"
               d="M 9.421875,75.984375 H 18.40625 V 0 H 9.421875 Z"
               inkscape:connector-curvature="0"
               style="stroke-linecap:butt;stroke-linejoin:round" />
            <path
               id="path2076"
               d="M 9.421875,54.6875 H 18.40625 V 0 H 9.421875 Z m 0,21.296875 H 18.40625 V 64.59375 H 9.421875 Z"
               inkscape:connector-curvature="0"
               style="stroke-linecap:butt;stroke-linejoin:round" />
            <path
               id="path2078"
               d="m 45.40625,46.390625 v 29.59375 h 8.984375 V 0 H 45.40625 v 8.203125 q -2.828125,-4.875 -7.15625,-7.25 -4.3125,-2.375 -10.375,-2.375 -9.90625,0 -16.140625,7.90625 -6.21875,7.921875 -6.21875,20.8125 0,12.890625 6.21875,20.796875 Q 17.96875,56 27.875,56 q 6.0625,0 10.375,-2.375 4.328125,-2.359375 7.15625,-7.234375 z M 14.796875,27.296875 q 0,-9.90625 4.078125,-15.546875 4.078125,-5.640625 11.203125,-5.640625 7.125,0 11.21875,5.640625 4.109375,5.640625 4.109375,15.546875 0,9.90625 -4.109375,15.546875 -4.09375,5.640625 -11.21875,5.640625 -7.125,0 -11.203125,-5.640625 -4.078125,-5.640625 -4.078125,-15.546875 z"
               inkscape:connector-curvature="0"
               style="stroke-linecap:butt;stroke-linejoin:round" />
          </defs>
          <g
             id="g1910"
             transform="matrix(0.5,0,0,-0.5,382.71564,146.56088)"
             style="fill:#9558b2;stroke-linecap:butt;stroke-linejoin:round">
            <use
               id="use1902"
               xlink:href="#DejaVuSans-111-2"
               style="stroke-linecap:butt;stroke-linejoin:round"
               x="0"
               y="0"
               width="100%"
               height="100%" />
            <use
               id="use1904"
               xlink:href="#DejaVuSans-108-0"
               x="61.181641"
               style="stroke-linecap:butt;stroke-linejoin:round"
               y="0"
               width="100%"
               height="100%" />
            <use
               id="use1906"
               xlink:href="#DejaVuSans-105-2"
               x="88.964844"
               style="stroke-linecap:butt;stroke-linejoin:round"
               y="0"
               width="100%"
               height="100%" />
            <use
               id="use1908"
               xlink:href="#DejaVuSans-100-3"
               x="116.74805"
               style="stroke-linecap:butt;stroke-linejoin:round"
               y="0"
               width="100%"
               height="100%" />
          </g>
        </g>
        <g
           id="text_2"
           style="stroke-linecap:butt;stroke-linejoin:round">
          <!-- tate -->
          <defs
             id="defs1916">
            <path
               id="path2087"
               d="M 18.3125,70.21875 V 54.6875 h 18.5 v -6.984375 h -18.5 v -29.6875 q 0,-6.6875 1.828125,-8.59375 1.828125,-1.90625 7.453125,-1.90625 H 36.8125 V 0 H 27.59375 Q 17.1875,0 13.234375,3.875 9.28125,7.765625 9.28125,18.015625 v 29.6875 H 2.6875 V 54.6875 h 6.59375 v 15.53125 z"
               inkscape:connector-curvature="0"
               style="stroke-linecap:butt;stroke-linejoin:round" />
            <path
               id="path2089"
               d="m 34.28125,27.484375 q -10.890625,0 -15.09375,-2.484375 -4.203125,-2.484375 -4.203125,-8.5 0,-4.78125 3.15625,-7.59375 3.15625,-2.796875 8.5625,-2.796875 7.484375,0 12,5.296875 4.515625,5.296875 4.515625,14.078125 v 2 z m 17.921875,3.71875 V 0 H 43.21875 v 8.296875 q -3.078125,-4.96875 -7.671875,-7.34375 -4.59375,-2.375 -11.234375,-2.375 -8.390625,0 -13.359375,4.71875 Q 6,8.015625 6,15.921875 q 0,9.21875 6.171875,13.90625 6.1875,4.6875 18.4375,4.6875 H 43.21875 v 0.890625 q 0,6.203125 -4.078125,9.59375 -4.078125,3.390625 -11.453125,3.390625 -4.6875,0 -9.140625,-1.125 -4.4375,-1.125 -8.53125,-3.375 v 8.3125 q 4.921875,1.90625 9.5625,2.84375 Q 24.21875,56 28.609375,56 q 11.875,0 17.734375,-6.15625 5.859375,-6.140625 5.859375,-18.640625 z"
               inkscape:connector-curvature="0"
               style="stroke-linecap:butt;stroke-linejoin:round" />
            <path
               id="path2091"
               d="m 56.203125,29.59375 v -4.390625 h -41.3125 q 0.59375,-9.28125 5.59375,-14.140625 5,-4.859375 13.9375,-4.859375 5.171875,0 10.03125,1.265625 4.859375,1.265625 9.65625,3.8125 v -8.5 q -4.84375,-2.046875 -9.921875,-3.125 -5.078125,-1.078125 -10.296875,-1.078125 -13.09375,0 -20.734375,7.609375 -7.640625,7.625 -7.640625,20.625 0,13.421875 7.25,21.296875 Q 20.015625,56 32.328125,56 q 11.03125,0 17.453125,-7.109375 6.421875,-7.09375 6.421875,-19.296875 z m -8.984375,2.640625 q -0.09375,7.359375 -4.125,11.75 -4.03125,4.40625 -10.671875,4.40625 -7.515625,0 -12.03125,-4.25 -4.515625,-4.25 -5.203125,-11.96875 z"
               inkscape:connector-curvature="0"
               style="stroke-linecap:butt;stroke-linejoin:round" />
          </defs>
          <g
             id="g1926"
             transform="matrix(0.5,0,0,-0.5,357.25444,198.32961)"
             style="fill:#9558b2;stroke-linecap:butt;stroke-linejoin:round">
            <use
               id="use1918"
               xlink:href="#DejaVuSans-116-7"
               style="stroke-linecap:butt;stroke-linejoin:round"
               x="0"
               y="0"
               width="100%"
               height="100%" />
            <use
               id="use1920"
               xlink:href="#DejaVuSans-97-5"
               x="39.208984"
               style="stroke-linecap:butt;stroke-linejoin:round"
               y="0"
               width="100%"
               height="100%" />
            <use
               id="use1922"
               xlink:href="#DejaVuSans-116-7"
               x="100.48828"
               style="stroke-linecap:butt;stroke-linejoin:round"
               y="0"
               width="100%"
               height="100%" />
            <use
               id="use1924"
               xlink:href="#DejaVuSans-101-9"
               x="139.69727"
               style="stroke-linecap:butt;stroke-linejoin:round"
               y="0"
               width="100%"
               height="100%" />
          </g>
        </g>
        <g
           id="text_3"
           style="stroke-linecap:butt;stroke-linejoin:round">
          <!-- etectors -->
          <defs
             id="defs1932">
            <path
               id="path2100"
               d="M 48.78125,52.59375 V 44.1875 q -3.8125,2.109375 -7.640625,3.15625 -3.828125,1.046875 -7.734375,1.046875 -8.75,0 -13.59375,-5.546875 -4.828125,-5.53125 -4.828125,-15.546875 0,-10.015625 4.828125,-15.5625 4.84375,-5.53125 13.59375,-5.53125 3.90625,0 7.734375,1.046875 3.828125,1.046875 7.640625,3.15625 v -8.3125 q -3.765625,-1.75 -7.796875,-2.625 -4.015625,-0.890625 -8.5625,-0.890625 -12.359375,0 -19.640625,7.765625 -7.265625,7.765625 -7.265625,20.953125 0,13.375 7.34375,21.03125 Q 20.21875,56 33.015625,56 q 4.140625,0 8.09375,-0.859375 3.953125,-0.84375 7.671875,-2.546875 z"
               inkscape:connector-curvature="0"
               style="stroke-linecap:butt;stroke-linejoin:round" />
            <path
               id="path2102"
               d="m 41.109375,46.296875 q -1.515625,0.875 -3.296875,1.28125 Q 36.03125,48 33.890625,48 26.265625,48 22.1875,43.046875 18.109375,38.09375 18.109375,28.8125 V 0 h -9.03125 v 54.6875 h 9.03125 v -8.5 q 2.84375,4.984375 7.375,7.390625 Q 30.03125,56 36.53125,56 q 0.921875,0 2.046875,-0.125 1.125,-0.109375 2.484375,-0.359375 z"
               inkscape:connector-curvature="0"
               style="stroke-linecap:butt;stroke-linejoin:round" />
            <path
               id="path2104"
               d="m 44.28125,53.078125 v -8.5 Q 40.484375,46.53125 36.375,47.5 q -4.09375,0.984375 -8.5,0.984375 -6.6875,0 -10.03125,-2.046875 Q 14.5,44.390625 14.5,40.28125 q 0,-3.125 2.390625,-4.90625 2.390625,-1.78125 9.625,-3.390625 l 3.078125,-0.6875 Q 39.15625,29.25 43.1875,25.515625 47.21875,21.78125 47.21875,15.09375 q 0,-7.625 -6.03125,-12.078125 -6.03125,-4.4375 -16.578125,-4.4375 -4.390625,0 -9.15625,0.859375 Q 10.6875,0.296875 5.421875,2 v 9.28125 q 4.984375,-2.59375 9.8125,-3.890625 4.828125,-1.28125 9.578125,-1.28125 6.34375,0 9.75,2.171875 3.421875,2.171875 3.421875,6.125 0,3.65625 -2.46875,5.609375 -2.453125,1.953125 -10.8125,3.765625 l -3.125,0.734375 q -8.34375,1.75 -12.0625,5.390625 -3.703125,3.640625 -3.703125,9.984375 0,7.71875 5.46875,11.90625 Q 16.75,56 26.8125,56 q 4.96875,0 9.359375,-0.734375 4.40625,-0.71875 8.109375,-2.1875 z"
               inkscape:connector-curvature="0"
               style="stroke-linecap:butt;stroke-linejoin:round" />
          </defs>
          <g
             id="g1950"
             transform="matrix(0.5,0,0,-0.5,345.03307,252.12848)"
             style="fill:#9558b2;stroke-linecap:butt;stroke-linejoin:round">
            <use
               id="use1934"
               xlink:href="#DejaVuSans-101-9"
               style="stroke-linecap:butt;stroke-linejoin:round"
               x="0"
               y="0"
               width="100%"
               height="100%" />
            <use
               id="use1936"
               xlink:href="#DejaVuSans-116-7"
               x="61.523438"
               style="stroke-linecap:butt;stroke-linejoin:round"
               y="0"
               width="100%"
               height="100%" />
            <use
               id="use1938"
               xlink:href="#DejaVuSans-101-9"
               x="100.73242"
               style="stroke-linecap:butt;stroke-linejoin:round"
               y="0"
               width="100%"
               height="100%" />
            <use
               id="use1940"
               xlink:href="#DejaVuSans-99-2"
               x="162.25586"
               style="stroke-linecap:butt;stroke-linejoin:round"
               y="0"
               width="100%"
               height="100%" />
            <use
               id="use1942"
               xlink:href="#DejaVuSans-116-7"
               x="217.23633"
               style="stroke-linecap:butt;stroke-linejoin:round"
               y="0"
               width="100%"
               height="100%" />
            <use
               id="use1944"
               xlink:href="#DejaVuSans-111-2"
               x="256.44531"
               style="stroke-linecap:butt;stroke-linejoin:round"
               y="0"
               width="100%"
               height="100%" />
            <use
               id="use1946"
               xlink:href="#DejaVuSans-114-2"
               x="317.62695"
               style="stroke-linecap:butt;stroke-linejoin:round"
               y="0"
               width="100%"
               height="100%" />
            <use
               id="use1948"
               xlink:href="#DejaVuSans-115-8"
               x="358.74023"
               style="stroke-linecap:butt;stroke-linejoin:round"
               y="0"
               width="100%"
               height="100%" />
          </g>
        </g>
      </g>
    </g>
  </g>
</svg>
