<?xml version="1.0" encoding="utf-8" standalone="no"?>
<!DOCTYPE svg PUBLIC "-//W3C//DTD SVG 1.1//EN"
  "http://www.w3.org/Graphics/SVG/1.1/DTD/svg11.dtd">
<!-- Created with matplotlib (https://matplotlib.org/) -->
<svg height="432pt" version="1.1" viewBox="0 0 576 432" width="576pt" xmlns="http://www.w3.org/2000/svg" xmlns:xlink="http://www.w3.org/1999/xlink">
 <defs>
  <style type="text/css">
*{stroke-linecap:butt;stroke-linejoin:round;white-space:pre;}
  </style>
 </defs>
 <g id="figure_1">
  <g id="patch_1">
   <path d="M 0 432 
L 576 432 
L 576 0 
L 0 0 
z
" style="fill:#ffffff;"/>
  </g>
  <g id="axes_1">
   <g id="patch_2">
    <path d="M 2.834646 429.165354 
L 573.165354 429.165354 
L 573.165354 2.834646 
L 2.834646 2.834646 
z
" style="fill:#ffffff;"/>
   </g>
   <g id="line2d_1">
    <path clip-path="url(#pfcdf464f82)" d="M 216.708661 188.996476 
L 216.708661 104.341957 
" style="fill:none;stroke:#389826;stroke-linecap:round;stroke-width:5;"/>
   </g>
   <g id="matplotlib.axis_1">
    <g id="xtick_1"/>
    <g id="xtick_2"/>
    <g id="xtick_3"/>
    <g id="xtick_4"/>
    <g id="xtick_5"/>
    <g id="xtick_6"/>
   </g>
   <g id="matplotlib.axis_2">
    <g id="ytick_1"/>
    <g id="ytick_2"/>
    <g id="ytick_3"/>
    <g id="ytick_4"/>
   </g>
   <g id="line2d_2">
    <path clip-path="url(#pfcdf464f82)" d="M 88.384252 248.48234 
L 88.447572 249.486693 
L 88.637471 250.490054 
L 88.95376 251.491435 
L 89.396128 252.489845 
L 89.964138 253.484301 
L 90.65723 254.47382 
L 91.474719 255.457427 
L 92.415799 256.43415 
L 93.479541 257.403025 
L 94.664896 258.363097 
L 95.970692 259.313418 
L 97.395643 260.25305 
L 98.938341 261.181065 
L 100.597264 262.096549 
L 102.370775 262.998597 
L 104.257124 263.886319 
L 106.254449 264.758839 
L 108.360779 265.615296 
L 110.574035 266.454845 
L 112.892033 267.276657 
L 115.312486 268.079922 
L 117.833005 268.863846 
L 120.451101 269.627656 
L 123.164193 270.370599 
L 125.969601 271.09194 
L 128.864558 271.790968 
L 131.846207 272.466993 
L 134.911604 273.119349 
L 138.057726 273.747391 
L 141.281466 274.350499 
L 144.579644 274.928078 
L 147.949004 275.479559 
L 151.386222 276.004397 
" style="fill:none;stroke:#cb3c33;stroke-linecap:round;stroke-width:5;"/>
   </g>
   <g id="line2d_3">
    <path clip-path="url(#pfcdf464f82)" d="M 313.95742 197.701482 
L 318.402771 197.581864 
L 325.129801 197.656088 
L 335.733861 197.78857 
L 340.101334 197.631573 
L 343.224693 197.328085 
L 345.937072 196.827337 
L 347.663876 196.304191 
L 349.103579 195.643242 
L 350.24037 194.836903 
L 351.063705 193.880111 
L 351.43571 193.157348 
L 351.665878 192.366508 
L 351.747575 191.053745 
L 351.520342 189.592702 
L 350.997348 187.989701 
L 350.196903 186.253529 
L 348.738685 183.750981 
L 346.895703 181.063754 
L 344.171766 177.50303 
L 339.259752 171.540099 
L 333.775964 164.85207 
L 331.138564 161.332881 
L 329.389433 158.690701 
L 328.043859 156.24222 
L 327.338157 154.551523 
L 326.916883 152.997344 
L 326.796579 151.587626 
L 326.988554 150.327795 
L 327.293159 149.572681 
L 327.73966 148.885676 
L 328.327339 148.266432 
L 329.469311 147.462579 
L 330.913972 146.804011 
L 332.645426 146.283097 
L 334.642791 145.889814 
L 337.674887 145.542523 
L 341.954914 145.343554 
L 347.590584 145.344606 
L 362.910364 145.487242 
L 367.072152 145.23152 
L 369.983862 144.826446 
L 371.878274 144.383749 
L 373.497895 143.809157 
L 374.823787 143.093582 
L 375.842117 142.230383 
L 376.345721 141.570786 
L 376.707586 140.843156 
L 376.927647 140.047464 
L 376.994413 138.727535 
L 376.752755 137.259569 
L 376.216094 135.650008 
L 375.402978 133.907754 
L 373.92979 131.398021 
L 372.074459 128.704867 
L 369.339342 125.138776 
L 364.420433 119.172535 
L 358.945751 112.488877 
L 356.320705 108.975618 
L 354.584749 106.339762 
L 353.25484 103.8988 
L 352.562233 102.214387 
L 352.154956 100.666928 
L 352.049308 99.264244 
L 352.256345 98.011642 
L 352.571085 97.261393 
L 353.027707 96.579245 
L 353.625414 95.964815 
L 354.782084 95.168017 
L 356.240803 94.516196 
L 357.985431 94.001605 
L 359.994856 93.614112 
L 363.040944 93.273536 
L 367.334507 93.081064 
L 372.979793 93.086731 
L 379.84172 93.225702 
L 379.84172 93.225702 
" style="fill:none;stroke:#9558b2;stroke-linecap:round;stroke-width:5;"/>
   </g>
   <g id="line2d_4">
    <path clip-path="url(#pfcdf464f82)" d="M 305.3187 197.880818 
L 306.275118 197.800276 
L 307.233601 197.749716 
L 308.193205 197.729188 
L 309.152982 197.738712 
L 310.111986 197.778278 
L 311.069269 197.847849 
L 312.023888 197.947354 
L 312.974899 198.076696 
L 313.921365 198.235748 
L 314.862352 198.424352 
L 315.79693 198.642321 
L 316.724178 198.889442 
L 317.64318 199.16547 
L 318.553029 199.470133 
L 319.452828 199.803129 
L 320.341689 200.164131 
L 321.218734 200.552782 
L 322.083098 200.968699 
L 322.933928 201.411471 
L 323.770384 201.880661 
L 324.59164 202.375806 
L 325.396887 202.896418 
L 326.185329 203.441982 
L 326.956188 204.011961 
L 327.708704 204.605792 
L 328.442135 205.222888 
L 329.155755 205.862641 
L 329.848861 206.52442 
L 330.520769 207.20757 
L 331.170816 207.911419 
L 331.798361 208.635272 
L 332.402783 209.378413 
L 332.983487 210.14011 
L 333.539899 210.919612 
L 334.071471 211.716148 
L 334.577677 212.528933 
L 335.058019 213.357164 
L 335.512021 214.200025 
L 335.939237 215.056683 
L 336.339244 215.926293 
L 336.711648 216.807997 
L 337.056081 217.700924 
L 337.372203 218.604194 
L 337.659703 219.516915 
L 337.918296 220.438187 
L 338.147727 221.367099 
L 338.347771 222.302736 
L 338.518229 223.244173 
L 338.658933 224.190483 
L 338.769745 225.140731 
L 338.850555 226.093979 
L 338.901283 227.049286 
L 338.921879 228.005711 
L 338.912324 228.962308 
L 338.872625 229.918134 
L 338.802824 230.872245 
L 338.702987 231.823701 
L 338.573215 232.771561 
L 338.413635 233.714891 
L 338.224404 234.65276 
L 338.00571 235.584241 
L 337.757768 236.508416 
L 337.480822 237.424374 
L 337.175147 238.331208 
L 336.841043 239.228026 
L 336.478841 240.113942 
L 336.088898 240.988081 
L 335.671598 241.84958 
L 335.227354 242.697591 
L 334.756604 243.531275 
L 334.259813 244.34981 
L 333.737471 245.152389 
L 333.190092 245.938219 
L 332.618219 246.706524 
L 332.022414 247.456547 
L 331.403266 248.187547 
L 330.761386 248.898802 
L 330.097408 249.589612 
L 329.411986 250.259294 
L 328.705797 250.907187 
L 327.979538 251.532652 
L 327.233926 252.135072 
L 326.469697 252.713851 
L 325.687604 253.26842 
L 324.88842 253.79823 
L 324.072933 254.302759 
L 323.241948 254.781509 
L 322.396285 255.234008 
L 321.536779 255.659808 
L 320.664278 256.058489 
L 319.779643 256.429659 
L 318.883747 256.772951 
L 317.977474 257.088026 
L 317.061719 257.374573 
L 316.137385 257.632309 
L 315.205385 257.86098 
L 314.266637 258.060361 
L 313.32207 258.230254 
L 312.372614 258.370492 
L 311.419207 258.480937 
L 310.46279 258.561479 
L 309.504307 258.612039 
L 308.544703 258.632567 
L 307.584926 258.623043 
L 306.625922 258.583476 
L 305.668639 258.513906 
L 304.71402 258.414401 
L 303.763009 258.285058 
L 302.816543 258.126007 
L 301.875556 257.937403 
L 300.940978 257.719433 
L 300.01373 257.472313 
L 299.094728 257.196285 
L 298.184878 256.891622 
L 297.285079 256.558626 
L 296.396219 256.197624 
L 295.519174 255.808972 
L 294.65481 255.393056 
L 293.80398 254.950284 
" style="fill:none;stroke:#9558b2;stroke-linecap:round;stroke-width:5;"/>
   </g>
   <g id="PathCollection_1">
    <defs>
     <path d="M 0 37.5 
C 9.945116 37.5 19.484245 33.548763 26.516504 26.516504 
C 33.548763 19.484245 37.5 9.945116 37.5 0 
C 37.5 -9.945116 33.548763 -19.484245 26.516504 -26.516504 
C 19.484245 -33.548763 9.945116 -37.5 0 -37.5 
C -9.945116 -37.5 -19.484245 -33.548763 -26.516504 -26.516504 
C -33.548763 -19.484245 -37.5 -9.945116 -37.5 0 
C -37.5 9.945116 -33.548763 19.484245 -26.516504 26.516504 
C -19.484245 33.548763 -9.945116 37.5 0 37.5 
z
" id="mb7b5f0696d" style="stroke:#9558b2;stroke-width:5;"/>
    </defs>
    <g clip-path="url(#pfcdf464f82)">
     <use style="fill:#aa79c1;stroke:#9558b2;stroke-width:5;" x="267.631046" xlink:href="#mb7b5f0696d" y="276.904387"/>
    </g>
   </g>
   <g id="PathCollection_2">
    <defs>
     <path d="M 0 37.5 
C 9.945116 37.5 19.484245 33.548763 26.516504 26.516504 
C 33.548763 19.484245 37.5 9.945116 37.5 0 
C 37.5 -9.945116 33.548763 -19.484245 26.516504 -26.516504 
C 19.484245 -33.548763 9.945116 -37.5 0 -37.5 
C -9.945116 -37.5 -19.484245 -33.548763 -26.516504 -26.516504 
C -33.548763 -19.484245 -37.5 -9.945116 -37.5 0 
C -37.5 9.945116 -33.548763 19.484245 -26.516504 26.516504 
C -19.484245 33.548763 -9.945116 37.5 0 37.5 
z
" id="m9d24bd9b1c" style="stroke:#cb3c33;stroke-width:5;"/>
    </defs>
    <g clip-path="url(#pfcdf464f82)">
     <use style="fill:#d5635c;stroke:#cb3c33;stroke-width:5;" x="165.786277" xlink:href="#m9d24bd9b1c" y="276.904387"/>
    </g>
   </g>
   <g id="PathCollection_3">
    <defs>
     <path d="M 0 37.5 
C 9.945116 37.5 19.484245 33.548763 26.516504 26.516504 
C 33.548763 19.484245 37.5 9.945116 37.5 0 
C 37.5 -9.945116 33.548763 -19.484245 26.516504 -26.516504 
C 19.484245 -33.548763 9.945116 -37.5 0 -37.5 
C -9.945116 -37.5 -19.484245 -33.548763 -26.516504 -26.516504 
C -33.548763 -19.484245 -37.5 -9.945116 -37.5 0 
C -37.5 9.945116 -33.548763 19.484245 -26.516504 26.516504 
C -19.484245 33.548763 -9.945116 37.5 0 37.5 
z
" id="m0899a1e036" style="stroke:#389826;stroke-width:5;"/>
    </defs>
    <g clip-path="url(#pfcdf464f82)">
     <use style="fill:#60ad51;stroke:#389826;stroke-width:5;" x="216.708661" xlink:href="#m0899a1e036" y="188.996476"/>
    </g>
   </g>
   <g id="line2d_5">
    <path clip-path="url(#pfcdf464f82)" d="M 216.708661 98.251519 
L 216.708661 88.100787 
L 216.708661 108.40225 
L 216.708661 98.570361 
" style="fill:none;stroke:#6682e9;stroke-linecap:round;stroke-width:3;"/>
   </g>
   <g id="line2d_6">
    <path clip-path="url(#pfcdf464f82)" d="M 218.745557 98.251519 
L 218.625137 94.813081 
L 218.318125 92.030064 
L 217.905918 90.039405 
L 217.458493 88.813607 
L 217.027302 88.22576 
L 216.708661 88.100787 
L 216.390021 88.22576 
L 216.079226 88.5976 
L 215.72738 89.356365 
L 215.314311 90.851954 
L 214.95542 93.084376 
L 214.720821 96.037205 
L 214.680806 99.206787 
L 214.865623 102.57349 
L 215.223829 105.200172 
L 215.671797 106.988679 
L 216.140386 107.999202 
L 216.516973 108.3572 
L 216.836559 108.38222 
L 217.152996 108.157787 
L 217.51761 107.567399 
L 217.905918 106.463633 
L 218.278116 104.721838 
L 218.578032 102.28286 
L 218.736517 99.206787 
L 218.744552 98.570361 
L 218.744552 98.570361 
" style="fill:none;stroke:#6682e9;stroke-linecap:round;stroke-width:3;"/>
   </g>
   <g id="line2d_7">
    <path clip-path="url(#pfcdf464f82)" d="M 220.782452 98.251519 
L 220.684342 96.037205 
L 220.394738 93.929547 
L 219.927588 92.030064 
L 219.305393 90.430246 
L 218.671225 89.356365 
L 217.967532 88.5976 
L 217.345943 88.22576 
L 216.708661 88.100787 
L 216.07138 88.22576 
L 215.449791 88.5976 
L 214.859199 89.207151 
L 214.211806 90.230867 
L 213.652866 91.53872 
L 213.138771 93.361367 
L 212.796626 95.419555 
L 212.642909 97.614149 
L 212.685026 99.839443 
L 212.920947 101.988252 
L 213.339308 103.957076 
L 213.91996 105.651083 
L 214.525815 106.822064 
L 215.208999 107.68943 
L 215.819991 108.157787 
L 216.452866 108.38222 
L 217.092039 108.3572 
L 217.721772 108.083346 
L 218.326559 107.567399 
L 218.998471 106.646991 
L 219.589267 105.429169 
L 220.148277 103.690552 
L 220.541613 101.689956 
L 220.750329 99.523743 
L 220.780442 98.570361 
L 220.780442 98.570361 
" style="fill:none;stroke:#6682e9;stroke-linecap:round;stroke-width:3;"/>
   </g>
   <g id="line2d_8">
    <path clip-path="url(#pfcdf464f82)" d="M 222.819348 98.251519 
L 222.711111 96.349461 
L 222.390234 94.514785 
L 221.868084 92.812485 
L 221.16316 91.302865 
L 220.300433 90.039405 
L 219.482855 89.207151 
L 218.596967 88.5976 
L 217.664583 88.22576 
L 216.708661 88.100787 
L 215.752739 88.22576 
L 214.820356 88.5976 
L 213.934468 89.207151 
L 213.11689 90.039405 
L 212.387754 91.073868 
L 211.654632 92.545961 
L 211.100551 94.220177 
L 210.74514 96.037205 
L 210.600991 97.932676 
L 210.673208 99.839443 
L 210.959234 101.689956 
L 211.448937 103.418661 
L 212.124968 104.964318 
L 212.963379 106.27217 
L 213.764816 107.146672 
L 214.63874 107.802146 
L 215.563633 108.222452 
L 216.51672 108.397241 
L 217.474533 108.322208 
L 218.413489 107.999202 
L 219.310465 107.436175 
L 220.143377 106.646991 
L 220.891714 105.651083 
L 221.65231 104.217969 
L 222.237776 102.57349 
L 222.627369 100.775903 
L 222.80729 98.888888 
L 222.816332 98.570361 
L 222.816332 98.570361 
" style="fill:none;stroke:#6682e9;stroke-linecap:round;stroke-width:3;"/>
   </g>
   <g id="line2d_9">
    <path clip-path="url(#pfcdf464f82)" d="M 224.856243 98.251519 
L 224.755933 96.663594 
L 224.457472 95.11477 
L 223.96821 93.643183 
L 223.300193 92.285068 
L 222.469872 91.073868 
L 221.49769 90.039405 
L 220.407586 89.207151 
L 219.226403 88.5976 
L 217.983224 88.22576 
L 216.708661 88.100787 
L 215.434099 88.22576 
L 214.19092 88.5976 
L 213.009737 89.207151 
L 211.919633 90.039405 
L 210.947451 91.073868 
L 210.117129 92.285068 
L 209.449113 93.643183 
L 208.959851 95.11477 
L 208.66139 96.663594 
L 208.56108 98.251519 
L 208.66139 99.839443 
L 208.959851 101.388267 
L 209.449113 102.859854 
L 210.117129 104.217969 
L 210.947451 105.429169 
L 211.919633 106.463633 
L 213.009737 107.295886 
L 214.19092 107.905438 
L 215.434099 108.277277 
L 216.708661 108.40225 
L 217.983224 108.277277 
L 219.226403 107.905438 
L 220.407586 107.295886 
L 221.49769 106.463633 
L 222.469872 105.429169 
L 223.300193 104.217969 
L 223.96821 102.859854 
L 224.457472 101.388267 
L 224.755933 99.839443 
L 224.852223 98.570361 
L 224.852223 98.570361 
" style="fill:none;stroke:#6682e9;stroke-linecap:round;stroke-width:3;"/>
   </g>
   <g id="line2d_10">
    <path clip-path="url(#pfcdf464f82)" d="M 226.893138 98.251519 
L 226.767751 96.663594 
L 226.394675 95.11477 
L 225.783097 93.643183 
L 224.948076 92.285068 
L 223.910174 91.073868 
L 222.694947 90.039405 
L 221.332317 89.207151 
L 219.855838 88.5976 
L 218.301865 88.22576 
L 216.708661 88.100787 
L 215.115458 88.22576 
L 213.561485 88.5976 
L 212.085006 89.207151 
L 210.722376 90.039405 
L 209.507149 91.073868 
L 208.469246 92.285068 
L 207.634226 93.643183 
L 207.022648 95.11477 
L 206.649572 96.663594 
L 206.524184 98.251519 
L 206.649572 99.839443 
L 207.022648 101.388267 
L 207.634226 102.859854 
L 208.469246 104.217969 
L 209.507149 105.429169 
L 210.722376 106.463633 
L 212.085006 107.295886 
L 213.561485 107.905438 
L 215.115458 108.277277 
L 216.708661 108.40225 
L 218.301865 108.277277 
L 219.855838 107.905438 
L 221.332317 107.295886 
L 222.694947 106.463633 
L 223.910174 105.429169 
L 224.948076 104.217969 
L 225.783097 102.859854 
L 226.394675 101.388267 
L 226.767751 99.839443 
L 226.888113 98.570361 
L 226.888113 98.570361 
" style="fill:none;stroke:#6682e9;stroke-linecap:round;stroke-width:3;"/>
   </g>
   <g id="line2d_11">
    <path clip-path="url(#pfcdf464f82)" d="M 228.930034 98.251519 
L 228.833665 96.979295 
L 228.546077 95.727134 
L 228.071806 94.514785 
L 227.418332 93.361367 
L 226.595959 92.285068 
L 225.617658 91.302865 
L 224.199227 90.230867 
L 222.596352 89.356365 
L 220.848504 88.700891 
L 218.998718 88.280585 
L 217.092544 88.105796 
L 215.176917 88.180829 
L 213.299007 88.503836 
L 211.505054 89.066862 
L 209.839231 89.856046 
L 208.342556 90.851954 
L 207.051883 92.030064 
L 206.189213 93.084376 
L 205.49244 94.220177 
L 204.972555 95.419555 
L 204.637754 96.663594 
L 204.49332 97.932676 
L 204.541528 99.206787 
L 204.781619 100.465832 
L 205.209807 101.689956 
L 205.819339 102.859854 
L 206.600602 103.957076 
L 207.541275 104.964318 
L 208.918466 106.072791 
L 210.487477 106.988679 
L 212.209674 107.68943 
L 214.042652 108.157787 
L 215.941275 108.38222 
L 217.858794 108.3572 
L 219.747993 108.083346 
L 221.562354 107.567399 
L 223.2572 106.822064 
L 224.7908 105.865694 
L 226.125391 104.721838 
L 227.22811 103.418661 
L 227.924882 102.28286 
L 228.444768 101.083482 
L 228.779568 99.839443 
L 228.924003 98.570361 
L 228.924003 98.570361 
" style="fill:none;stroke:#6682e9;stroke-linecap:round;stroke-width:3;"/>
   </g>
   <g id="line2d_12">
    <path clip-path="url(#pfcdf464f82)" d="M 230.966929 98.251519 
L 230.854498 96.979295 
L 230.518979 95.727134 
L 229.965663 94.514785 
L 229.203277 93.361367 
L 228.243842 92.285068 
L 227.102491 91.302865 
L 225.797223 90.430246 
L 224.348623 89.680973 
L 222.371302 88.935638 
L 220.254548 88.419691 
L 218.050483 88.145837 
L 215.813377 88.120818 
L 213.598317 88.34525 
L 211.459843 88.813607 
L 209.450613 89.514358 
L 207.6201 90.430246 
L 206.314832 91.302865 
L 205.173481 92.285068 
L 204.214046 93.361367 
L 203.451659 94.514785 
L 202.898343 95.727134 
L 202.562824 96.979295 
L 202.450394 98.251519 
L 202.562824 99.523743 
L 202.898343 100.775903 
L 203.451659 101.988252 
L 204.214046 103.141671 
L 205.173481 104.217969 
L 206.314832 105.200172 
L 207.6201 106.072791 
L 209.0687 106.822064 
L 211.04602 107.567399 
L 213.162774 108.083346 
L 215.36684 108.3572 
L 217.603945 108.38222 
L 219.819006 108.157787 
L 221.95748 107.68943 
L 223.96671 106.988679 
L 225.797223 106.072791 
L 227.102491 105.200172 
L 228.243842 104.217969 
L 229.203277 103.141671 
L 229.965663 101.988252 
L 230.518979 100.775903 
L 230.854498 99.523743 
L 230.959894 98.570361 
L 230.959894 98.570361 
" style="fill:none;stroke:#6682e9;stroke-linecap:round;stroke-width:3;"/>
   </g>
   <g id="line2d_13">
    <path clip-path="url(#pfcdf464f82)" d="M 233.003825 98.251519 
L 232.875332 96.979295 
L 232.491882 95.727134 
L 231.859521 94.514785 
L 230.988222 93.361367 
L 229.891725 92.285068 
L 228.587324 91.302865 
L 227.095589 90.430246 
L 225.440046 89.680973 
L 223.180251 88.935638 
L 220.761104 88.419691 
L 218.242172 88.145837 
L 215.68548 88.120818 
L 213.153982 88.34525 
L 210.710012 88.813607 
L 208.413749 89.514358 
L 206.321734 90.430246 
L 204.829999 91.302865 
L 203.525598 92.285068 
L 202.429101 93.361367 
L 201.557802 94.514785 
L 200.925441 95.727134 
L 200.541991 96.979295 
L 200.413498 98.251519 
L 200.541991 99.523743 
L 200.925441 100.775903 
L 201.557802 101.988252 
L 202.429101 103.141671 
L 203.525598 104.217969 
L 204.829999 105.200172 
L 206.321734 106.072791 
L 207.977276 106.822064 
L 210.237072 107.567399 
L 212.656219 108.083346 
L 215.175151 108.3572 
L 217.731843 108.38222 
L 220.263341 108.157787 
L 222.707311 107.68943 
L 225.003574 106.988679 
L 227.095589 106.072791 
L 228.587324 105.200172 
L 229.891725 104.217969 
L 230.988222 103.141671 
L 231.859521 101.988252 
L 232.491882 100.775903 
L 232.875332 99.523743 
L 232.995784 98.570361 
L 232.995784 98.570361 
" style="fill:none;stroke:#6682e9;stroke-linecap:round;stroke-width:3;"/>
   </g>
   <g id="line2d_14">
    <path clip-path="url(#pfcdf464f82)" d="M 235.04072 98.251519 
L 234.896166 96.979295 
L 234.464785 95.727134 
L 233.753378 94.514785 
L 232.773167 93.361367 
L 231.539608 92.285068 
L 230.072157 91.302865 
L 228.393955 90.430246 
L 226.53147 89.680973 
L 223.9892 88.935638 
L 221.267659 88.419691 
L 218.433861 88.145837 
L 215.557582 88.120818 
L 212.709647 88.34525 
L 209.960181 88.813607 
L 207.376884 89.514358 
L 205.023368 90.430246 
L 203.345166 91.302865 
L 201.877715 92.285068 
L 200.644156 93.361367 
L 199.663944 94.514785 
L 198.952538 95.727134 
L 198.521157 96.979295 
L 198.376603 98.251519 
L 198.521157 99.523743 
L 198.952538 100.775903 
L 199.663944 101.988252 
L 200.644156 103.141671 
L 201.877715 104.217969 
L 203.345166 105.200172 
L 205.023368 106.072791 
L 206.885853 106.822064 
L 209.428123 107.567399 
L 212.149664 108.083346 
L 214.983462 108.3572 
L 217.859741 108.38222 
L 220.707676 108.157787 
L 223.457142 107.68943 
L 226.040438 106.988679 
L 228.393955 106.072791 
L 230.072157 105.200172 
L 231.539608 104.217969 
L 232.773167 103.141671 
L 233.753378 101.988252 
L 234.464785 100.775903 
L 234.896166 99.523743 
L 235.031674 98.570361 
L 235.031674 98.570361 
" style="fill:none;stroke:#6682e9;stroke-linecap:round;stroke-width:3;"/>
   </g>
   <g id="line2d_15">
    <path clip-path="url(#pfcdf464f82)" d="M 237.077615 98.251519 
L 236.987217 97.29625 
L 236.716825 96.349461 
L 236.268839 95.419555 
L 235.402363 94.220177 
L 234.241076 93.084376 
L 232.803292 92.030064 
L 231.111687 91.073868 
L 229.192937 90.230867 
L 227.077303 89.514358 
L 224.206973 88.813607 
L 221.152011 88.34525 
L 217.987639 88.120818 
L 214.791774 88.145837 
L 211.643109 88.419691 
L 208.619174 88.935638 
L 205.79443 89.680973 
L 203.725002 90.430246 
L 201.860333 91.302865 
L 200.229832 92.285068 
L 198.859211 93.361367 
L 197.770087 94.514785 
L 196.979636 95.727134 
L 196.590483 96.663594 
L 196.379901 97.614149 
L 196.349758 98.570361 
L 196.500323 99.523743 
L 196.830258 100.465832 
L 197.336635 101.388267 
L 198.278281 102.57349 
L 199.510585 103.690552 
L 201.014113 104.721838 
L 202.765153 105.651083 
L 204.736091 106.463633 
L 206.895843 107.146672 
L 209.808924 107.802146 
L 212.8919 108.222452 
L 216.068857 108.397241 
L 219.261568 108.322208 
L 222.391418 107.999202 
L 225.38134 107.436175 
L 228.157712 106.646991 
L 230.178892 105.865694 
L 231.987639 104.964318 
L 233.555427 103.957076 
L 234.857532 102.859854 
L 235.873418 101.689956 
L 236.587065 100.465832 
L 236.917 99.523743 
L 237.067564 98.570361 
L 237.067564 98.570361 
" style="fill:none;stroke:#6682e9;stroke-linecap:round;stroke-width:3;"/>
   </g>
   <g id="line2d_16">
    <path clip-path="url(#pfcdf464f82)" d="M 239.114511 98.251519 
L 239.015073 97.29625 
L 238.717641 96.349461 
L 238.224857 95.419555 
L 237.541093 94.514785 
L 236.343057 93.361367 
L 234.835374 92.285068 
L 233.041823 91.302865 
L 230.990687 90.430246 
L 228.714316 89.680973 
L 226.248608 89.066862 
L 222.959694 88.503836 
L 219.516859 88.180829 
L 216.004877 88.105796 
L 212.510224 88.280585 
L 209.118951 88.700891 
L 205.914561 89.356365 
L 203.538834 90.039405 
L 201.370802 90.851954 
L 199.444658 91.781199 
L 197.790777 92.812485 
L 196.435243 93.929547 
L 195.399432 95.11477 
L 194.842418 96.037205 
L 194.479489 96.979295 
L 194.313868 97.932676 
L 194.347025 98.888888 
L 194.578665 99.839443 
L 195.006733 100.775903 
L 195.627429 101.689956 
L 196.744904 102.859854 
L 198.177219 103.957076 
L 199.901786 104.964318 
L 201.891407 105.865694 
L 204.114706 106.646991 
L 206.536619 107.295886 
L 209.784873 107.905438 
L 213.203614 108.277277 
L 216.708661 108.40225 
L 220.213708 108.277277 
L 223.63245 107.905438 
L 226.880704 107.295886 
L 229.878489 106.463633 
L 232.046521 105.651083 
L 233.972665 104.721838 
L 235.626546 103.690552 
L 236.98208 102.57349 
L 238.01789 101.388267 
L 238.574905 100.465832 
L 238.937834 99.523743 
L 239.103455 98.570361 
L 239.103455 98.570361 
" style="fill:none;stroke:#6682e9;stroke-linecap:round;stroke-width:3;"/>
   </g>
   <g id="line2d_17">
    <path clip-path="url(#pfcdf464f82)" d="M 241.151406 98.251519 
L 241.042928 97.29625 
L 240.718458 96.349461 
L 240.180875 95.419555 
L 239.434951 94.514785 
L 238.128002 93.361367 
L 236.483257 92.285068 
L 234.526655 91.302865 
L 232.289053 90.430246 
L 229.805739 89.680973 
L 227.115876 89.066862 
L 223.52797 88.503836 
L 219.77215 88.180829 
L 215.940896 88.105796 
L 212.128548 88.280585 
L 208.428977 88.700891 
L 204.933279 89.356365 
L 202.341577 90.039405 
L 199.976451 90.851954 
L 197.875203 91.781199 
L 196.07097 92.812485 
L 194.592205 93.929547 
L 193.46223 95.11477 
L 192.854577 96.037205 
L 192.458655 96.979295 
L 192.277978 97.932676 
L 192.314149 98.888888 
L 192.566848 99.839443 
L 193.033831 100.775903 
L 193.710953 101.689956 
L 194.592205 102.57349 
L 196.07097 103.690552 
L 197.875203 104.721838 
L 199.976451 105.651083 
L 202.341577 106.463633 
L 204.933279 107.146672 
L 208.428977 107.802146 
L 212.128548 108.222452 
L 215.940896 108.397241 
L 219.77215 108.322208 
L 223.52797 107.999202 
L 227.115876 107.436175 
L 230.447522 106.646991 
L 232.872938 105.865694 
L 235.043435 104.964318 
L 236.924781 103.957076 
L 238.487306 102.859854 
L 239.70637 101.689956 
L 240.383492 100.775903 
L 240.850475 99.839443 
L 241.103174 98.888888 
L 241.139345 98.570361 
L 241.139345 98.570361 
" style="fill:none;stroke:#6682e9;stroke-linecap:round;stroke-width:3;"/>
   </g>
   <g id="line2d_18">
    <path clip-path="url(#pfcdf464f82)" d="M 243.188301 98.251519 
L 243.070784 97.29625 
L 242.719274 96.349461 
L 242.136893 95.419555 
L 241.328808 94.514785 
L 240.302193 93.643183 
L 238.609457 92.545961 
L 236.571333 91.53872 
L 234.219962 90.637343 
L 231.592427 89.856046 
L 228.730166 89.207151 
L 224.89132 88.5976 
L 220.85099 88.22576 
L 216.708661 88.100787 
L 212.566333 88.22576 
L 208.526003 88.5976 
L 204.687156 89.207151 
L 201.14432 90.039405 
L 198.5821 90.851954 
L 196.305748 91.781199 
L 194.351162 92.812485 
L 192.749167 93.929547 
L 191.794477 94.813081 
L 191.060928 95.727134 
L 190.55503 96.663594 
L 190.281273 97.614149 
L 190.242087 98.570361 
L 190.437821 99.523743 
L 190.866737 100.465832 
L 191.525027 101.388267 
L 192.406849 102.28286 
L 193.504376 103.141671 
L 195.286183 104.217969 
L 197.405835 105.200172 
L 199.829904 106.072791 
L 202.520161 106.822064 
L 205.434179 107.436175 
L 209.321077 107.999202 
L 213.389883 108.322208 
L 217.540407 108.397241 
L 221.670451 108.222452 
L 225.67832 107.802146 
L 229.465325 107.146672 
L 232.273003 106.463633 
L 234.835222 105.651083 
L 237.111575 104.721838 
L 239.066161 103.690552 
L 240.668156 102.57349 
L 241.622846 101.689956 
L 242.356395 100.775903 
L 242.862293 99.839443 
L 243.13605 98.888888 
L 243.175235 98.570361 
L 243.175235 98.570361 
" style="fill:none;stroke:#6682e9;stroke-linecap:round;stroke-width:3;"/>
   </g>
   <g id="line2d_19">
    <path clip-path="url(#pfcdf464f82)" d="M 245.225197 98.251519 
L 245.098639 97.29625 
L 244.720091 96.349461 
L 244.09291 95.419555 
L 243.222666 94.514785 
L 242.117081 93.643183 
L 240.294134 92.545961 
L 238.09923 91.53872 
L 235.566985 90.637343 
L 232.737332 89.856046 
L 229.654898 89.207151 
L 225.520755 88.5976 
L 221.16963 88.22576 
L 216.708661 88.100787 
L 212.247692 88.22576 
L 207.896567 88.5976 
L 203.762425 89.207151 
L 200.679991 89.856046 
L 197.850338 90.637343 
L 195.318093 91.53872 
L 193.123189 92.545961 
L 191.300242 93.643183 
L 189.878002 94.813081 
L 189.088025 95.727134 
L 188.543212 96.663594 
L 188.248397 97.614149 
L 188.206197 98.570361 
L 188.416987 99.523743 
L 188.878896 100.465832 
L 189.587825 101.388267 
L 190.537479 102.28286 
L 191.719431 103.141671 
L 193.6383 104.217969 
L 195.921002 105.200172 
L 198.531538 106.072791 
L 201.428738 106.822064 
L 204.566911 107.436175 
L 208.752802 107.999202 
L 213.134592 108.322208 
L 217.604387 108.397241 
L 222.052127 108.222452 
L 226.368293 107.802146 
L 230.446607 107.146672 
L 233.47026 106.463633 
L 236.229573 105.651083 
L 238.68103 104.721838 
L 240.785969 103.690552 
L 242.511194 102.57349 
L 243.539321 101.689956 
L 244.329297 100.775903 
L 244.874111 99.839443 
L 245.168926 98.888888 
L 245.211126 98.570361 
L 245.211126 98.570361 
" style="fill:none;stroke:#6682e9;stroke-linecap:round;stroke-width:3;"/>
   </g>
   <g id="line2d_20">
    <path clip-path="url(#pfcdf464f82)" d="M 247.262092 98.251519 
L 247.126495 97.29625 
L 246.720907 96.349461 
L 246.048928 95.419555 
L 245.116523 94.514785 
L 243.931968 93.643183 
L 241.978811 92.545961 
L 239.627128 91.53872 
L 236.914008 90.637343 
L 233.882237 89.856046 
L 230.579629 89.207151 
L 226.150191 88.5976 
L 221.488271 88.22576 
L 216.708661 88.100787 
L 211.929052 88.22576 
L 207.267132 88.5976 
L 202.837694 89.207151 
L 199.535086 89.856046 
L 196.503315 90.637343 
L 193.790195 91.53872 
L 191.438512 92.545961 
L 189.485355 93.643183 
L 188.3008 94.514785 
L 187.368395 95.419555 
L 186.696416 96.349461 
L 186.290828 97.29625 
L 186.155231 98.251519 
L 186.290828 99.206787 
L 186.696416 100.153576 
L 187.368395 101.083482 
L 188.3008 101.988252 
L 189.485355 102.859854 
L 191.438512 103.957076 
L 193.790195 104.964318 
L 196.503315 105.865694 
L 199.535086 106.646991 
L 202.837694 107.295886 
L 207.267132 107.905438 
L 211.929052 108.277277 
L 216.708661 108.40225 
L 221.488271 108.277277 
L 226.150191 107.905438 
L 230.579629 107.295886 
L 233.882237 106.646991 
L 236.914008 105.865694 
L 239.627128 104.964318 
L 241.978811 103.957076 
L 243.931968 102.859854 
L 245.116523 101.988252 
L 246.048928 101.083482 
L 246.720907 100.153576 
L 247.126495 99.206787 
L 247.247016 98.570361 
L 247.247016 98.570361 
" style="fill:none;stroke:#6682e9;stroke-linecap:round;stroke-width:3;"/>
   </g>
   <g id="line2d_21">
    <path clip-path="url(#pfcdf464f82)" d="M 249.298988 98.251519 
L 249.154351 97.29625 
L 248.721723 96.349461 
L 248.004946 95.419555 
L 247.01038 94.514785 
L 245.746855 93.643183 
L 243.663487 92.545961 
L 241.155026 91.53872 
L 238.261031 90.637343 
L 235.027142 89.856046 
L 231.50436 89.207151 
L 226.779626 88.5976 
L 221.806912 88.22576 
L 216.708661 88.100787 
L 211.610411 88.22576 
L 206.637697 88.5976 
L 201.912963 89.207151 
L 198.390181 89.856046 
L 195.156292 90.637343 
L 192.262297 91.53872 
L 189.753836 92.545961 
L 187.670468 93.643183 
L 186.406942 94.514785 
L 185.412377 95.419555 
L 184.695599 96.349461 
L 184.262972 97.29625 
L 184.118335 98.251519 
L 184.262972 99.206787 
L 184.695599 100.153576 
L 185.412377 101.083482 
L 186.406942 101.988252 
L 187.670468 102.859854 
L 189.753836 103.957076 
L 192.262297 104.964318 
L 195.156292 105.865694 
L 198.390181 106.646991 
L 201.912963 107.295886 
L 206.637697 107.905438 
L 211.610411 108.277277 
L 216.708661 108.40225 
L 221.806912 108.277277 
L 226.779626 107.905438 
L 231.50436 107.295886 
L 235.027142 106.646991 
L 238.261031 105.865694 
L 241.155026 104.964318 
L 243.663487 103.957076 
L 245.746855 102.859854 
L 247.01038 101.988252 
L 248.004946 101.083482 
L 248.721723 100.153576 
L 249.154351 99.206787 
L 249.282906 98.570361 
L 249.282906 98.570361 
" style="fill:none;stroke:#6682e9;stroke-linecap:round;stroke-width:3;"/>
   </g>
   <g id="line2d_22">
    <path clip-path="url(#pfcdf464f82)" d="M 251.335883 98.251519 
L 251.182206 97.29625 
L 250.72254 96.349461 
L 249.960964 95.419555 
L 248.904238 94.514785 
L 247.561742 93.643183 
L 245.945392 92.812485 
L 243.389394 91.781199 
L 240.412626 90.851954 
L 237.062032 90.039405 
L 233.390453 89.356365 
L 229.455792 88.813607 
L 224.262356 88.34525 
L 218.882923 88.120818 
L 213.449952 88.145837 
L 208.097222 88.419691 
L 202.956533 88.935638 
L 198.154468 89.680973 
L 194.63644 90.430246 
L 191.466503 91.302865 
L 188.694651 92.285068 
L 186.364596 93.361367 
L 184.929369 94.220177 
L 183.776217 95.11477 
L 182.915375 96.037205 
L 182.354486 96.979295 
L 182.098526 97.932676 
L 182.149769 98.888888 
L 182.507758 99.839443 
L 183.169318 100.775903 
L 184.128575 101.689956 
L 185.377015 102.57349 
L 186.903557 103.418661 
L 189.347789 104.472973 
L 192.223518 105.429169 
L 195.485393 106.27217 
L 199.081972 106.988679 
L 202.956533 107.567399 
L 208.097222 108.083346 
L 213.449952 108.3572 
L 218.882923 108.38222 
L 224.262356 108.157787 
L 229.455792 107.68943 
L 234.335351 106.988679 
L 237.93193 106.27217 
L 241.193805 105.429169 
L 244.069534 104.472973 
L 246.513766 103.418661 
L 248.487954 102.28286 
L 249.641106 101.388267 
L 250.501947 100.465832 
L 251.062837 99.523743 
L 251.318797 98.570361 
L 251.318797 98.570361 
" style="fill:none;stroke:#6682e9;stroke-linecap:round;stroke-width:3;"/>
   </g>
   <g id="line2d_23">
    <path clip-path="url(#pfcdf464f82)" d="M 253.372778 98.251519 
L 253.210062 97.29625 
L 252.723356 96.349461 
L 251.916981 95.419555 
L 250.798095 94.514785 
L 249.376629 93.643183 
L 247.665199 92.812485 
L 244.958849 91.781199 
L 241.806977 90.851954 
L 238.259289 90.039405 
L 234.371734 89.356365 
L 230.205623 88.813607 
L 224.706691 88.34525 
L 219.01082 88.120818 
L 213.258263 88.145837 
L 207.590666 88.419691 
L 202.147585 88.935638 
L 197.063045 89.680973 
L 193.338074 90.430246 
L 189.98167 91.302865 
L 187.046768 92.285068 
L 184.579651 93.361367 
L 183.059998 94.220177 
L 181.839014 95.11477 
L 180.927535 96.037205 
L 180.333652 96.979295 
L 180.062636 97.932676 
L 180.116893 98.888888 
L 180.495941 99.839443 
L 181.196415 100.775903 
L 182.212099 101.689956 
L 183.533977 102.57349 
L 185.150315 103.418661 
L 187.738326 104.472973 
L 190.783216 105.429169 
L 194.236966 106.27217 
L 198.045107 106.988679 
L 202.147585 107.567399 
L 207.590666 108.083346 
L 213.258263 108.3572 
L 219.01082 108.38222 
L 224.706691 108.157787 
L 230.205623 107.68943 
L 235.372215 106.988679 
L 239.180357 106.27217 
L 242.634107 105.429169 
L 245.678997 104.472973 
L 248.267008 103.418661 
L 250.357324 102.28286 
L 251.578309 101.388267 
L 252.489788 100.465832 
L 253.083671 99.523743 
L 253.354687 98.570361 
L 253.354687 98.570361 
" style="fill:none;stroke:#6682e9;stroke-linecap:round;stroke-width:3;"/>
   </g>
   <g id="line2d_24">
    <path clip-path="url(#pfcdf464f82)" d="M 255.409674 98.251519 
L 255.333306 97.614149 
L 254.9332 96.663594 
L 254.19381 95.727134 
L 253.1217 94.813081 
L 251.726384 93.929547 
L 250.020249 93.084376 
L 247.28846 92.030064 
L 244.07441 91.073868 
L 240.428785 90.230867 
L 236.40908 89.514358 
L 232.078687 88.935638 
L 226.333212 88.419691 
L 220.350748 88.145837 
L 214.278605 88.120818 
L 208.266297 88.34525 
L 202.461869 88.813607 
L 197.008243 89.514358 
L 192.988538 90.230867 
L 189.342913 91.073868 
L 186.128863 92.030064 
L 183.397074 93.084376 
L 181.190628 94.220177 
L 179.901811 95.11477 
L 178.939695 96.037205 
L 178.312818 96.979295 
L 178.026746 97.932676 
L 178.026746 98.570361 
L 178.179406 99.206787 
L 178.69315 100.153576 
L 179.544324 101.083482 
L 180.72537 101.988252 
L 182.225807 102.859854 
L 184.032316 103.690552 
L 186.889019 104.721838 
L 190.215995 105.651083 
L 193.960777 106.463633 
L 198.064307 107.146672 
L 202.461869 107.68943 
L 208.266297 108.157787 
L 214.278605 108.38222 
L 220.350748 108.3572 
L 226.333212 108.083346 
L 232.078687 107.567399 
L 237.445701 106.822064 
L 241.377615 106.072791 
L 244.920485 105.200172 
L 248.018438 104.217969 
L 250.622617 103.141671 
L 252.226695 102.28286 
L 253.515511 101.388267 
L 254.477628 100.465832 
L 255.104505 99.523743 
L 255.390577 98.570361 
L 255.390577 98.570361 
" style="fill:none;stroke:#6682e9;stroke-linecap:round;stroke-width:3;"/>
   </g>
   <g id="line2d_25">
    <path clip-path="url(#pfcdf464f82)" d="M 257.446569 98.251519 
L 257.366182 97.614149 
L 257.125339 96.979295 
L 256.465468 96.037205 
L 255.452714 95.11477 
L 254.096065 94.220177 
L 252.407562 93.361367 
L 249.666321 92.285068 
L 246.405318 91.302865 
L 242.675981 90.430246 
L 238.537124 89.680973 
L 234.054019 89.066862 
L 228.074175 88.503836 
L 221.814475 88.180829 
L 215.429053 88.105796 
L 209.075139 88.280585 
L 202.909187 88.700891 
L 197.083025 89.356365 
L 192.76352 90.039405 
L 188.821645 90.851954 
L 185.319564 91.781199 
L 182.312508 92.812485 
L 179.8479 93.929547 
L 178.379147 94.813081 
L 177.25061 95.727134 
L 176.472305 96.663594 
L 176.051141 97.614149 
L 175.970754 98.251519 
L 176.051141 98.888888 
L 176.291984 99.523743 
L 176.951854 100.465832 
L 177.964609 101.388267 
L 179.321258 102.28286 
L 181.009761 103.141671 
L 183.751002 104.217969 
L 187.012005 105.200172 
L 190.741342 106.072791 
L 194.880199 106.822064 
L 199.363304 107.436175 
L 205.343147 107.999202 
L 211.602848 108.322208 
L 217.98827 108.397241 
L 224.342184 108.222452 
L 230.508136 107.802146 
L 236.334298 107.146672 
L 240.653803 106.463633 
L 244.595678 105.651083 
L 248.097759 104.721838 
L 251.104815 103.690552 
L 253.569422 102.57349 
L 255.038175 101.689956 
L 256.166713 100.775903 
L 256.945018 99.839443 
L 257.366182 98.888888 
L 257.426467 98.570361 
L 257.426467 98.570361 
" style="fill:none;stroke:#4063d8;stroke-linecap:round;stroke-width:5;"/>
   </g>
   <g id="line2d_26">
    <path clip-path="url(#pfcdf464f82)" d="M 298.184477 98.251519 
L 298.023703 96.976779 
L 297.542016 95.707071 
L 296.741316 94.447404 
L 295.624764 93.20275 
L 294.196767 91.978022 
L 292.462959 90.778052 
L 290.430183 89.607576 
L 288.106463 88.471214 
L 285.500968 87.373451 
L 281.087185 85.808609 
L 276.101975 84.354211 
L 270.589585 83.023167 
L 264.598944 81.827291 
L 258.183226 80.777197 
L 251.399376 79.882206 
L 244.30761 79.150263 
L 236.970873 78.587864 
L 229.454287 78.200001 
L 221.82457 77.990117 
L 214.149444 77.960074 
L 206.497034 78.110139 
L 198.935263 78.438981 
L 191.53125 78.943681 
L 184.350713 79.619758 
L 177.457388 80.461212 
L 170.91246 81.460573 
L 164.774022 82.608973 
L 159.09656 83.896217 
L 153.930467 85.310879 
L 149.321597 86.840404 
L 145.31086 88.471214 
L 142.987139 89.607576 
L 140.954364 90.778052 
L 139.220556 91.978022 
L 137.792558 93.20275 
L 136.676007 94.447404 
L 135.875307 95.707071 
L 135.39362 96.976779 
L 135.232846 98.251519 
L 135.39362 99.526258 
L 135.875307 100.795966 
L 136.676007 102.055633 
L 137.792558 103.300287 
L 139.220556 104.525015 
L 140.954364 105.724985 
L 142.987139 106.895461 
L 145.31086 108.031823 
L 147.916355 109.129586 
L 152.330137 110.694428 
L 157.315348 112.148826 
L 162.827738 113.47987 
L 168.818379 114.675747 
L 175.234097 115.72584 
L 182.017946 116.620831 
L 189.109713 117.352774 
L 196.44645 117.915173 
L 203.963036 118.303036 
L 211.592753 118.512921 
L 219.267879 118.542963 
L 226.920289 118.392898 
L 234.48206 118.064056 
L 241.886073 117.559357 
L 249.06661 116.88328 
L 255.959935 116.041826 
L 262.504863 115.042464 
L 268.643301 113.894064 
L 274.320763 112.60682 
L 279.486856 111.192158 
L 284.095726 109.662633 
L 288.106463 108.031823 
L 290.430183 106.895461 
L 292.462959 105.724985 
L 294.196767 104.525015 
L 295.624764 103.300287 
L 296.741316 102.055633 
L 297.542016 100.795966 
L 298.023703 99.526258 
L 298.144274 98.889203 
L 298.144274 98.889203 
" style="fill:none;stroke:#d3d3d3;stroke-linecap:round;stroke-width:5;"/>
   </g>
   <g id="line2d_27">
    <path clip-path="url(#pfcdf464f82)" d="M 345.033071 98.251519 
L 344.969751 97.247166 
L 344.779852 96.243804 
L 344.463563 95.242424 
L 344.021195 94.244013 
L 342.760093 92.260038 
L 341.001524 90.299708 
L 338.752427 88.370761 
L 336.02168 86.480808 
L 332.820059 84.63731 
L 329.160199 82.84754 
L 325.056544 81.118562 
L 320.525289 79.457201 
L 315.584318 77.870012 
L 310.25313 76.36326 
L 304.552765 74.94289 
L 298.505718 73.614509 
L 292.135857 72.383359 
L 285.468318 71.254299 
L 274.966724 69.76176 
L 263.948027 68.522098 
L 252.51003 67.546317 
L 240.754258 66.843077 
L 228.785055 66.418621 
L 216.708661 66.276715 
L 204.632268 66.418621 
L 192.663065 66.843077 
L 180.907292 67.546317 
L 169.469296 68.522098 
L 158.450599 69.76176 
L 147.949004 71.254299 
L 141.281466 72.383359 
L 134.911604 73.614509 
L 128.864558 74.94289 
L 123.164193 76.36326 
L 117.833005 77.870012 
L 112.892033 79.457201 
L 108.360779 81.118562 
L 104.257124 82.84754 
L 100.597264 84.63731 
L 97.395643 86.480808 
L 94.664896 88.370761 
L 92.415799 90.299708 
L 90.65723 92.260038 
L 89.396128 94.244013 
L 88.95376 95.242424 
L 88.637471 96.243804 
L 88.447572 97.247166 
L 88.384252 98.251519 
L 88.447572 99.255871 
L 88.637471 100.259233 
L 88.95376 101.260613 
L 89.396128 102.259024 
L 90.65723 104.242999 
L 92.415799 106.203329 
L 94.664896 108.132276 
L 97.395643 110.022229 
L 100.597264 111.865728 
L 104.257124 113.655497 
L 108.360779 115.384475 
L 112.892033 117.045836 
L 117.833005 118.633025 
L 123.164193 120.139778 
L 128.864558 121.560147 
L 134.911604 122.888528 
L 141.281466 124.119678 
L 147.949004 125.248738 
L 158.450599 126.741277 
L 169.469296 127.980939 
L 180.907292 128.95672 
L 192.663065 129.65996 
L 204.632268 130.084416 
L 216.708661 130.226322 
L 228.785055 130.084416 
L 240.754258 129.65996 
L 252.51003 128.95672 
L 263.948027 127.980939 
L 274.966724 126.741277 
L 285.468318 125.248738 
L 292.135857 124.119678 
L 298.505718 122.888528 
L 304.552765 121.560147 
L 310.25313 120.139778 
L 315.584318 118.633025 
L 320.525289 117.045836 
L 325.056544 115.384475 
L 329.160199 113.655497 
L 332.820059 111.865728 
L 336.02168 110.022229 
L 338.752427 108.132276 
L 341.001524 106.203329 
L 342.760093 104.242999 
L 344.021195 102.259024 
L 344.463563 101.260613 
L 344.779852 100.259233 
L 344.969751 99.255871 
L 344.969751 99.255871 
" style="fill:none;stroke:#d3d3d3;stroke-linecap:round;stroke-width:5;"/>
   </g>
   <g id="line2d_28">
    <path clip-path="url(#pfcdf464f82)" d="M 88.384252 98.251519 
L 88.384252 313.447019 
L 88.447572 314.451372 
L 88.637471 315.454734 
L 88.95376 316.456114 
L 89.396128 317.454525 
L 89.964138 318.44898 
L 90.65723 319.4385 
L 91.474719 320.422106 
L 92.415799 321.398829 
L 93.479541 322.367705 
L 94.664896 323.327777 
L 95.970692 324.278097 
L 97.395643 325.217729 
L 98.938341 326.145745 
L 100.597264 327.061228 
L 102.370775 327.963276 
L 104.257124 328.850998 
L 106.254449 329.723518 
L 108.360779 330.579975 
L 110.574035 331.419524 
L 112.892033 332.241337 
L 115.312486 333.044602 
L 117.833005 333.828526 
L 120.451101 334.592336 
L 123.164193 335.335278 
L 125.969601 336.056619 
L 128.864558 336.755647 
L 131.846207 337.431673 
L 134.911604 338.084028 
L 138.057726 338.71207 
L 141.281466 339.315178 
L 144.579644 339.892758 
L 147.949004 340.444238 
L 151.386222 340.969076 
L 154.887906 341.466753 
L 158.450599 341.936777 
L 162.070785 342.378686 
L 165.744893 342.792043 
L 169.469296 343.176439 
L 173.240318 343.531496 
L 177.054238 343.856864 
L 180.907292 344.152221 
L 184.795679 344.417275 
L 188.715559 344.651765 
L 192.663065 344.855461 
L 196.634301 345.028159 
L 200.625348 345.169691 
L 204.632268 345.279917 
L 208.651105 345.358727 
L 212.677894 345.406045 
L 216.708661 345.421822 
L 220.739429 345.406045 
L 224.766218 345.358727 
L 228.785055 345.279917 
L 232.791975 345.169691 
L 236.783022 345.028159 
L 240.754258 344.855461 
L 244.701764 344.651765 
L 248.621644 344.417275 
L 252.51003 344.152221 
L 256.363085 343.856864 
L 260.177005 343.531496 
L 263.948027 343.176439 
L 267.67243 342.792043 
L 271.346538 342.378686 
L 274.966724 341.936777 
L 278.529417 341.466753 
L 282.0311 340.969076 
L 285.468318 340.444238 
L 288.837679 339.892758 
L 292.135857 339.315178 
L 295.359597 338.71207 
L 298.505718 338.084028 
L 301.571116 337.431673 
L 304.552765 336.755647 
L 307.447722 336.056619 
L 310.25313 335.335278 
L 312.966221 334.592336 
L 315.584318 333.828526 
L 318.104837 333.044602 
L 320.525289 332.241337 
L 322.843288 331.419524 
L 325.056544 330.579975 
L 327.162874 329.723518 
L 329.160199 328.850998 
L 331.046547 327.963276 
L 332.820059 327.061228 
L 334.478982 326.145745 
L 336.02168 325.217729 
L 337.44663 324.278097 
L 338.752427 323.327777 
L 339.937782 322.367705 
L 341.001524 321.398829 
L 341.942604 320.422106 
L 342.760093 319.4385 
L 343.453184 318.44898 
L 344.021195 317.454525 
L 344.463563 316.456114 
L 344.779852 315.454734 
L 344.969751 314.451372 
L 345.033071 98.251519 
" style="fill:none;stroke:#d3d3d3;stroke-linecap:round;stroke-width:5;"/>
   </g>
   <g id="line2d_29">
    <path clip-path="url(#pfcdf464f82)" d="M 313.95742 197.701482 
L 318.402771 197.581864 
L 325.129801 197.656088 
L 335.733861 197.78857 
L 340.101334 197.631573 
L 343.224693 197.328085 
L 345.937072 196.827337 
L 347.663876 196.304191 
L 349.103579 195.643242 
L 350.24037 194.836903 
L 351.063705 193.880111 
L 351.43571 193.157348 
L 351.665878 192.366508 
L 351.747575 191.053745 
L 351.520342 189.592702 
L 350.997348 187.989701 
L 350.196903 186.253529 
L 348.738685 183.750981 
L 346.895703 181.063754 
L 344.171766 177.50303 
L 339.259752 171.540099 
L 333.775964 164.85207 
L 331.138564 161.332881 
L 329.389433 158.690701 
L 328.043859 156.24222 
L 327.338157 154.551523 
L 326.916883 152.997344 
L 326.796579 151.587626 
L 326.988554 150.327795 
L 327.293159 149.572681 
L 327.73966 148.885676 
L 328.327339 148.266432 
L 329.469311 147.462579 
L 330.913972 146.804011 
L 332.645426 146.283097 
L 334.642791 145.889814 
L 337.674887 145.542523 
L 341.954914 145.343554 
L 347.590584 145.344606 
L 362.910364 145.487242 
L 367.072152 145.23152 
L 369.983862 144.826446 
L 371.878274 144.383749 
L 373.497895 143.809157 
L 374.823787 143.093582 
L 375.842117 142.230383 
L 376.345721 141.570786 
L 376.707586 140.843156 
L 376.927647 140.047464 
L 376.994413 138.727535 
L 376.752755 137.259569 
L 376.216094 135.650008 
L 375.402978 133.907754 
L 373.92979 131.398021 
L 372.074459 128.704867 
L 369.339342 125.138776 
L 364.420433 119.172535 
L 358.945751 112.488877 
L 356.320705 108.975618 
L 354.584749 106.339762 
L 353.25484 103.8988 
L 352.562233 102.214387 
L 352.154956 100.666928 
L 352.049308 99.264244 
L 352.256345 98.011642 
L 352.571085 97.261393 
L 353.027707 96.579245 
L 353.625414 95.964815 
L 354.782084 95.168017 
L 356.240803 94.516196 
L 357.985431 94.001605 
L 359.994856 93.614112 
L 363.040944 93.273536 
L 367.334507 93.081064 
L 372.979793 93.086731 
L 379.84172 93.225702 
L 379.84172 93.225702 
" style="fill:none;stroke:#9558b2;stroke-linecap:round;stroke-width:5;"/>
   </g>
   <g id="text_1">
    <!-- olid -->
    <defs>
     <path d="M 30.609375 48.390625 
Q 23.390625 48.390625 19.1875 42.75 
Q 14.984375 37.109375 14.984375 27.296875 
Q 14.984375 17.484375 19.15625 11.84375 
Q 23.34375 6.203125 30.609375 6.203125 
Q 37.796875 6.203125 41.984375 11.859375 
Q 46.1875 17.53125 46.1875 27.296875 
Q 46.1875 37.015625 41.984375 42.703125 
Q 37.796875 48.390625 30.609375 48.390625 
z
M 30.609375 56 
Q 42.328125 56 49.015625 48.375 
Q 55.71875 40.765625 55.71875 27.296875 
Q 55.71875 13.875 49.015625 6.21875 
Q 42.328125 -1.421875 30.609375 -1.421875 
Q 18.84375 -1.421875 12.171875 6.21875 
Q 5.515625 13.875 5.515625 27.296875 
Q 5.515625 40.765625 12.171875 48.375 
Q 18.84375 56 30.609375 56 
z
" id="DejaVuSans-111"/>
     <path d="M 9.421875 75.984375 
L 18.40625 75.984375 
L 18.40625 0 
L 9.421875 0 
z
" id="DejaVuSans-108"/>
     <path d="M 9.421875 54.6875 
L 18.40625 54.6875 
L 18.40625 0 
L 9.421875 0 
z
M 9.421875 75.984375 
L 18.40625 75.984375 
L 18.40625 64.59375 
L 9.421875 64.59375 
z
" id="DejaVuSans-105"/>
     <path d="M 45.40625 46.390625 
L 45.40625 75.984375 
L 54.390625 75.984375 
L 54.390625 0 
L 45.40625 0 
L 45.40625 8.203125 
Q 42.578125 3.328125 38.25 0.953125 
Q 33.9375 -1.421875 27.875 -1.421875 
Q 17.96875 -1.421875 11.734375 6.484375 
Q 5.515625 14.40625 5.515625 27.296875 
Q 5.515625 40.1875 11.734375 48.09375 
Q 17.96875 56 27.875 56 
Q 33.9375 56 38.25 53.625 
Q 42.578125 51.265625 45.40625 46.390625 
z
M 14.796875 27.296875 
Q 14.796875 17.390625 18.875 11.75 
Q 22.953125 6.109375 30.078125 6.109375 
Q 37.203125 6.109375 41.296875 11.75 
Q 45.40625 17.390625 45.40625 27.296875 
Q 45.40625 37.203125 41.296875 42.84375 
Q 37.203125 48.484375 30.078125 48.484375 
Q 22.953125 48.484375 18.875 42.84375 
Q 14.796875 37.203125 14.796875 27.296875 
z
" id="DejaVuSans-100"/>
    </defs>
    <g style="fill:#9558b2;" transform="translate(382.715636 146.560879)scale(0.5 -0.5)">
     <use xlink:href="#DejaVuSans-111"/>
     <use x="61.181641" xlink:href="#DejaVuSans-108"/>
     <use x="88.964844" xlink:href="#DejaVuSans-105"/>
     <use x="116.748047" xlink:href="#DejaVuSans-100"/>
    </g>
   </g>
   <g id="text_2">
    <!-- tate -->
    <defs>
     <path d="M 18.3125 70.21875 
L 18.3125 54.6875 
L 36.8125 54.6875 
L 36.8125 47.703125 
L 18.3125 47.703125 
L 18.3125 18.015625 
Q 18.3125 11.328125 20.140625 9.421875 
Q 21.96875 7.515625 27.59375 7.515625 
L 36.8125 7.515625 
L 36.8125 0 
L 27.59375 0 
Q 17.1875 0 13.234375 3.875 
Q 9.28125 7.765625 9.28125 18.015625 
L 9.28125 47.703125 
L 2.6875 47.703125 
L 2.6875 54.6875 
L 9.28125 54.6875 
L 9.28125 70.21875 
z
" id="DejaVuSans-116"/>
     <path d="M 34.28125 27.484375 
Q 23.390625 27.484375 19.1875 25 
Q 14.984375 22.515625 14.984375 16.5 
Q 14.984375 11.71875 18.140625 8.90625 
Q 21.296875 6.109375 26.703125 6.109375 
Q 34.1875 6.109375 38.703125 11.40625 
Q 43.21875 16.703125 43.21875 25.484375 
L 43.21875 27.484375 
z
M 52.203125 31.203125 
L 52.203125 0 
L 43.21875 0 
L 43.21875 8.296875 
Q 40.140625 3.328125 35.546875 0.953125 
Q 30.953125 -1.421875 24.3125 -1.421875 
Q 15.921875 -1.421875 10.953125 3.296875 
Q 6 8.015625 6 15.921875 
Q 6 25.140625 12.171875 29.828125 
Q 18.359375 34.515625 30.609375 34.515625 
L 43.21875 34.515625 
L 43.21875 35.40625 
Q 43.21875 41.609375 39.140625 45 
Q 35.0625 48.390625 27.6875 48.390625 
Q 23 48.390625 18.546875 47.265625 
Q 14.109375 46.140625 10.015625 43.890625 
L 10.015625 52.203125 
Q 14.9375 54.109375 19.578125 55.046875 
Q 24.21875 56 28.609375 56 
Q 40.484375 56 46.34375 49.84375 
Q 52.203125 43.703125 52.203125 31.203125 
z
" id="DejaVuSans-97"/>
     <path d="M 56.203125 29.59375 
L 56.203125 25.203125 
L 14.890625 25.203125 
Q 15.484375 15.921875 20.484375 11.0625 
Q 25.484375 6.203125 34.421875 6.203125 
Q 39.59375 6.203125 44.453125 7.46875 
Q 49.3125 8.734375 54.109375 11.28125 
L 54.109375 2.78125 
Q 49.265625 0.734375 44.1875 -0.34375 
Q 39.109375 -1.421875 33.890625 -1.421875 
Q 20.796875 -1.421875 13.15625 6.1875 
Q 5.515625 13.8125 5.515625 26.8125 
Q 5.515625 40.234375 12.765625 48.109375 
Q 20.015625 56 32.328125 56 
Q 43.359375 56 49.78125 48.890625 
Q 56.203125 41.796875 56.203125 29.59375 
z
M 47.21875 32.234375 
Q 47.125 39.59375 43.09375 43.984375 
Q 39.0625 48.390625 32.421875 48.390625 
Q 24.90625 48.390625 20.390625 44.140625 
Q 15.875 39.890625 15.1875 32.171875 
z
" id="DejaVuSans-101"/>
    </defs>
    <g style="fill:#9558b2;" transform="translate(357.254443 198.329608)scale(0.5 -0.5)">
     <use xlink:href="#DejaVuSans-116"/>
     <use x="39.208984" xlink:href="#DejaVuSans-97"/>
     <use x="100.488281" xlink:href="#DejaVuSans-116"/>
     <use x="139.697266" xlink:href="#DejaVuSans-101"/>
    </g>
   </g>
   <g id="text_3">
    <!-- etectors -->
    <defs>
     <path d="M 48.78125 52.59375 
L 48.78125 44.1875 
Q 44.96875 46.296875 41.140625 47.34375 
Q 37.3125 48.390625 33.40625 48.390625 
Q 24.65625 48.390625 19.8125 42.84375 
Q 14.984375 37.3125 14.984375 27.296875 
Q 14.984375 17.28125 19.8125 11.734375 
Q 24.65625 6.203125 33.40625 6.203125 
Q 37.3125 6.203125 41.140625 7.25 
Q 44.96875 8.296875 48.78125 10.40625 
L 48.78125 2.09375 
Q 45.015625 0.34375 40.984375 -0.53125 
Q 36.96875 -1.421875 32.421875 -1.421875 
Q 20.0625 -1.421875 12.78125 6.34375 
Q 5.515625 14.109375 5.515625 27.296875 
Q 5.515625 40.671875 12.859375 48.328125 
Q 20.21875 56 33.015625 56 
Q 37.15625 56 41.109375 55.140625 
Q 45.0625 54.296875 48.78125 52.59375 
z
" id="DejaVuSans-99"/>
     <path d="M 41.109375 46.296875 
Q 39.59375 47.171875 37.8125 47.578125 
Q 36.03125 48 33.890625 48 
Q 26.265625 48 22.1875 43.046875 
Q 18.109375 38.09375 18.109375 28.8125 
L 18.109375 0 
L 9.078125 0 
L 9.078125 54.6875 
L 18.109375 54.6875 
L 18.109375 46.1875 
Q 20.953125 51.171875 25.484375 53.578125 
Q 30.03125 56 36.53125 56 
Q 37.453125 56 38.578125 55.875 
Q 39.703125 55.765625 41.0625 55.515625 
z
" id="DejaVuSans-114"/>
     <path d="M 44.28125 53.078125 
L 44.28125 44.578125 
Q 40.484375 46.53125 36.375 47.5 
Q 32.28125 48.484375 27.875 48.484375 
Q 21.1875 48.484375 17.84375 46.4375 
Q 14.5 44.390625 14.5 40.28125 
Q 14.5 37.15625 16.890625 35.375 
Q 19.28125 33.59375 26.515625 31.984375 
L 29.59375 31.296875 
Q 39.15625 29.25 43.1875 25.515625 
Q 47.21875 21.78125 47.21875 15.09375 
Q 47.21875 7.46875 41.1875 3.015625 
Q 35.15625 -1.421875 24.609375 -1.421875 
Q 20.21875 -1.421875 15.453125 -0.5625 
Q 10.6875 0.296875 5.421875 2 
L 5.421875 11.28125 
Q 10.40625 8.6875 15.234375 7.390625 
Q 20.0625 6.109375 24.8125 6.109375 
Q 31.15625 6.109375 34.5625 8.28125 
Q 37.984375 10.453125 37.984375 14.40625 
Q 37.984375 18.0625 35.515625 20.015625 
Q 33.0625 21.96875 24.703125 23.78125 
L 21.578125 24.515625 
Q 13.234375 26.265625 9.515625 29.90625 
Q 5.8125 33.546875 5.8125 39.890625 
Q 5.8125 47.609375 11.28125 51.796875 
Q 16.75 56 26.8125 56 
Q 31.78125 56 36.171875 55.265625 
Q 40.578125 54.546875 44.28125 53.078125 
z
" id="DejaVuSans-115"/>
    </defs>
    <g style="fill:#9558b2;" transform="translate(345.033071 252.128484)scale(0.5 -0.5)">
     <use xlink:href="#DejaVuSans-101"/>
     <use x="61.523438" xlink:href="#DejaVuSans-116"/>
     <use x="100.732422" xlink:href="#DejaVuSans-101"/>
     <use x="162.255859" xlink:href="#DejaVuSans-99"/>
     <use x="217.236328" xlink:href="#DejaVuSans-116"/>
     <use x="256.445312" xlink:href="#DejaVuSans-111"/>
     <use x="317.626953" xlink:href="#DejaVuSans-114"/>
     <use x="358.740234" xlink:href="#DejaVuSans-115"/>
    </g>
   </g>
  </g>
 </g>
 <defs>
  <clipPath id="pfcdf464f82">
   <rect height="426.330709" width="570.330709" x="2.834646" y="2.834646"/>
  </clipPath>
 </defs>
</svg>
