<?xml version="1.0" encoding="utf-8"?>
<svg xmlns="http://www.w3.org/2000/svg" xmlns:xlink="http://www.w3.org/1999/xlink" width="600" height="400" viewBox="0 0 2400 1600">
<defs>
  <clipPath id="clip160">
    <rect x="0" y="0" width="2400" height="1600"/>
  </clipPath>
</defs>
<path clip-path="url(#clip160)" d="M0 1600 L2400 1600 L2400 0 L0 0  Z" fill="#ffffff" fill-rule="evenodd" fill-opacity="1"/>
<defs>
  <clipPath id="clip161">
    <rect x="344" y="47" width="2009" height="1377"/>
  </clipPath>
</defs>
<path clip-path="url(#clip160)" d="M344.941 1423.18 L2352.76 1423.18 L2352.76 47.2441 L344.941 47.2441  Z" fill="#ffffff" fill-rule="evenodd" fill-opacity="1"/>
<polyline clip-path="url(#clip161)" style="stroke:#000000; stroke-linecap:round; stroke-linejoin:round; stroke-width:2; stroke-opacity:0.1; fill:none" points="344.941,1423.18 344.941,47.2441 "/>
<polyline clip-path="url(#clip161)" style="stroke:#000000; stroke-linecap:round; stroke-linejoin:round; stroke-width:2; stroke-opacity:0.1; fill:none" points="826.331,1423.18 826.331,47.2441 "/>
<polyline clip-path="url(#clip161)" style="stroke:#000000; stroke-linecap:round; stroke-linejoin:round; stroke-width:2; stroke-opacity:0.1; fill:none" points="1307.72,1423.18 1307.72,47.2441 "/>
<polyline clip-path="url(#clip161)" style="stroke:#000000; stroke-linecap:round; stroke-linejoin:round; stroke-width:2; stroke-opacity:0.1; fill:none" points="1789.11,1423.18 1789.11,47.2441 "/>
<polyline clip-path="url(#clip161)" style="stroke:#000000; stroke-linecap:round; stroke-linejoin:round; stroke-width:2; stroke-opacity:0.1; fill:none" points="2270.5,1423.18 2270.5,47.2441 "/>
<polyline clip-path="url(#clip161)" style="stroke:#000000; stroke-linecap:round; stroke-linejoin:round; stroke-width:2; stroke-opacity:0.1; fill:none" points="344.941,1165.55 2352.76,1165.55 "/>
<polyline clip-path="url(#clip161)" style="stroke:#000000; stroke-linecap:round; stroke-linejoin:round; stroke-width:2; stroke-opacity:0.1; fill:none" points="344.941,828.242 2352.76,828.242 "/>
<polyline clip-path="url(#clip161)" style="stroke:#000000; stroke-linecap:round; stroke-linejoin:round; stroke-width:2; stroke-opacity:0.1; fill:none" points="344.941,490.935 2352.76,490.935 "/>
<polyline clip-path="url(#clip161)" style="stroke:#000000; stroke-linecap:round; stroke-linejoin:round; stroke-width:2; stroke-opacity:0.1; fill:none" points="344.941,153.627 2352.76,153.627 "/>
<polyline clip-path="url(#clip160)" style="stroke:#000000; stroke-linecap:round; stroke-linejoin:round; stroke-width:4; stroke-opacity:1; fill:none" points="344.941,1423.18 2352.76,1423.18 "/>
<polyline clip-path="url(#clip160)" style="stroke:#000000; stroke-linecap:round; stroke-linejoin:round; stroke-width:4; stroke-opacity:1; fill:none" points="344.941,1423.18 344.941,1404.28 "/>
<polyline clip-path="url(#clip160)" style="stroke:#000000; stroke-linecap:round; stroke-linejoin:round; stroke-width:4; stroke-opacity:1; fill:none" points="826.331,1423.18 826.331,1404.28 "/>
<polyline clip-path="url(#clip160)" style="stroke:#000000; stroke-linecap:round; stroke-linejoin:round; stroke-width:4; stroke-opacity:1; fill:none" points="1307.72,1423.18 1307.72,1404.28 "/>
<polyline clip-path="url(#clip160)" style="stroke:#000000; stroke-linecap:round; stroke-linejoin:round; stroke-width:4; stroke-opacity:1; fill:none" points="1789.11,1423.18 1789.11,1404.28 "/>
<polyline clip-path="url(#clip160)" style="stroke:#000000; stroke-linecap:round; stroke-linejoin:round; stroke-width:4; stroke-opacity:1; fill:none" points="2270.5,1423.18 2270.5,1404.28 "/>
<path clip-path="url(#clip160)" d="M307.244 1454.1 Q303.633 1454.1 301.804 1457.66 Q299.999 1461.2 299.999 1468.33 Q299.999 1475.44 301.804 1479.01 Q303.633 1482.55 307.244 1482.55 Q310.878 1482.55 312.684 1479.01 Q314.513 1475.44 314.513 1468.33 Q314.513 1461.2 312.684 1457.66 Q310.878 1454.1 307.244 1454.1 M307.244 1450.39 Q313.054 1450.39 316.11 1455 Q319.189 1459.58 319.189 1468.33 Q319.189 1477.06 316.11 1481.67 Q313.054 1486.25 307.244 1486.25 Q301.434 1486.25 298.355 1481.67 Q295.3 1477.06 295.3 1468.33 Q295.3 1459.58 298.355 1455 Q301.434 1450.39 307.244 1450.39 Z" fill="#000000" fill-rule="nonzero" fill-opacity="1" /><path clip-path="url(#clip160)" d="M327.406 1479.7 L332.29 1479.7 L332.29 1485.58 L327.406 1485.58 L327.406 1479.7 Z" fill="#000000" fill-rule="nonzero" fill-opacity="1" /><path clip-path="url(#clip160)" d="M352.475 1454.1 Q348.864 1454.1 347.036 1457.66 Q345.23 1461.2 345.23 1468.33 Q345.23 1475.44 347.036 1479.01 Q348.864 1482.55 352.475 1482.55 Q356.11 1482.55 357.915 1479.01 Q359.744 1475.44 359.744 1468.33 Q359.744 1461.2 357.915 1457.66 Q356.11 1454.1 352.475 1454.1 M352.475 1450.39 Q358.286 1450.39 361.341 1455 Q364.42 1459.58 364.42 1468.33 Q364.42 1477.06 361.341 1481.67 Q358.286 1486.25 352.475 1486.25 Q346.665 1486.25 343.587 1481.67 Q340.531 1477.06 340.531 1468.33 Q340.531 1459.58 343.587 1455 Q346.665 1450.39 352.475 1450.39 Z" fill="#000000" fill-rule="nonzero" fill-opacity="1" /><path clip-path="url(#clip160)" d="M382.637 1454.1 Q379.026 1454.1 377.197 1457.66 Q375.392 1461.2 375.392 1468.33 Q375.392 1475.44 377.197 1479.01 Q379.026 1482.55 382.637 1482.55 Q386.272 1482.55 388.077 1479.01 Q389.906 1475.44 389.906 1468.33 Q389.906 1461.2 388.077 1457.66 Q386.272 1454.1 382.637 1454.1 M382.637 1450.39 Q388.447 1450.39 391.503 1455 Q394.582 1459.58 394.582 1468.33 Q394.582 1477.06 391.503 1481.67 Q388.447 1486.25 382.637 1486.25 Q376.827 1486.25 373.748 1481.67 Q370.693 1477.06 370.693 1468.33 Q370.693 1459.58 373.748 1455 Q376.827 1450.39 382.637 1450.39 Z" fill="#000000" fill-rule="nonzero" fill-opacity="1" /><path clip-path="url(#clip160)" d="M789.132 1454.1 Q785.521 1454.1 783.692 1457.66 Q781.886 1461.2 781.886 1468.33 Q781.886 1475.44 783.692 1479.01 Q785.521 1482.55 789.132 1482.55 Q792.766 1482.55 794.571 1479.01 Q796.4 1475.44 796.4 1468.33 Q796.4 1461.2 794.571 1457.66 Q792.766 1454.1 789.132 1454.1 M789.132 1450.39 Q794.942 1450.39 797.997 1455 Q801.076 1459.58 801.076 1468.33 Q801.076 1477.06 797.997 1481.67 Q794.942 1486.25 789.132 1486.25 Q783.321 1486.25 780.243 1481.67 Q777.187 1477.06 777.187 1468.33 Q777.187 1459.58 780.243 1455 Q783.321 1450.39 789.132 1450.39 Z" fill="#000000" fill-rule="nonzero" fill-opacity="1" /><path clip-path="url(#clip160)" d="M809.294 1479.7 L814.178 1479.7 L814.178 1485.58 L809.294 1485.58 L809.294 1479.7 Z" fill="#000000" fill-rule="nonzero" fill-opacity="1" /><path clip-path="url(#clip160)" d="M828.391 1481.64 L844.71 1481.64 L844.71 1485.58 L822.766 1485.58 L822.766 1481.64 Q825.428 1478.89 830.011 1474.26 Q834.618 1469.61 835.798 1468.27 Q838.043 1465.74 838.923 1464.01 Q839.826 1462.25 839.826 1460.56 Q839.826 1457.8 837.881 1456.07 Q835.96 1454.33 832.858 1454.33 Q830.659 1454.33 828.205 1455.09 Q825.775 1455.86 822.997 1457.41 L822.997 1452.69 Q825.821 1451.55 828.275 1450.97 Q830.729 1450.39 832.766 1450.39 Q838.136 1450.39 841.33 1453.08 Q844.525 1455.77 844.525 1460.26 Q844.525 1462.39 843.715 1464.31 Q842.928 1466.2 840.821 1468.8 Q840.242 1469.47 837.141 1472.69 Q834.039 1475.88 828.391 1481.64 Z" fill="#000000" fill-rule="nonzero" fill-opacity="1" /><path clip-path="url(#clip160)" d="M854.571 1451.02 L872.927 1451.02 L872.927 1454.96 L858.853 1454.96 L858.853 1463.43 Q859.872 1463.08 860.891 1462.92 Q861.909 1462.73 862.928 1462.73 Q868.715 1462.73 872.094 1465.9 Q875.474 1469.08 875.474 1474.49 Q875.474 1480.07 872.002 1483.17 Q868.529 1486.25 862.21 1486.25 Q860.034 1486.25 857.766 1485.88 Q855.52 1485.51 853.113 1484.77 L853.113 1480.07 Q855.196 1481.2 857.418 1481.76 Q859.641 1482.32 862.117 1482.32 Q866.122 1482.32 868.46 1480.21 Q870.798 1478.1 870.798 1474.49 Q870.798 1470.88 868.46 1468.77 Q866.122 1466.67 862.117 1466.67 Q860.242 1466.67 858.367 1467.08 Q856.516 1467.5 854.571 1468.38 L854.571 1451.02 Z" fill="#000000" fill-rule="nonzero" fill-opacity="1" /><path clip-path="url(#clip160)" d="M1270.02 1454.1 Q1266.41 1454.1 1264.58 1457.66 Q1262.78 1461.2 1262.78 1468.33 Q1262.78 1475.44 1264.58 1479.01 Q1266.41 1482.55 1270.02 1482.55 Q1273.66 1482.55 1275.46 1479.01 Q1277.29 1475.44 1277.29 1468.33 Q1277.29 1461.2 1275.46 1457.66 Q1273.66 1454.1 1270.02 1454.1 M1270.02 1450.39 Q1275.83 1450.39 1278.89 1455 Q1281.97 1459.58 1281.97 1468.33 Q1281.97 1477.06 1278.89 1481.67 Q1275.83 1486.25 1270.02 1486.25 Q1264.21 1486.25 1261.13 1481.67 Q1258.08 1477.06 1258.08 1468.33 Q1258.08 1459.58 1261.13 1455 Q1264.21 1450.39 1270.02 1450.39 Z" fill="#000000" fill-rule="nonzero" fill-opacity="1" /><path clip-path="url(#clip160)" d="M1290.19 1479.7 L1295.07 1479.7 L1295.07 1485.58 L1290.19 1485.58 L1290.19 1479.7 Z" fill="#000000" fill-rule="nonzero" fill-opacity="1" /><path clip-path="url(#clip160)" d="M1305.3 1451.02 L1323.66 1451.02 L1323.66 1454.96 L1309.58 1454.96 L1309.58 1463.43 Q1310.6 1463.08 1311.62 1462.92 Q1312.64 1462.73 1313.66 1462.73 Q1319.44 1462.73 1322.82 1465.9 Q1326.2 1469.08 1326.2 1474.49 Q1326.2 1480.07 1322.73 1483.17 Q1319.26 1486.25 1312.94 1486.25 Q1310.76 1486.25 1308.5 1485.88 Q1306.25 1485.51 1303.84 1484.77 L1303.84 1480.07 Q1305.93 1481.2 1308.15 1481.76 Q1310.37 1482.32 1312.85 1482.32 Q1316.85 1482.32 1319.19 1480.21 Q1321.53 1478.1 1321.53 1474.49 Q1321.53 1470.88 1319.19 1468.77 Q1316.85 1466.67 1312.85 1466.67 Q1310.97 1466.67 1309.1 1467.08 Q1307.25 1467.5 1305.3 1468.38 L1305.3 1451.02 Z" fill="#000000" fill-rule="nonzero" fill-opacity="1" /><path clip-path="url(#clip160)" d="M1345.42 1454.1 Q1341.81 1454.1 1339.98 1457.66 Q1338.17 1461.2 1338.17 1468.33 Q1338.17 1475.44 1339.98 1479.01 Q1341.81 1482.55 1345.42 1482.55 Q1349.05 1482.55 1350.86 1479.01 Q1352.69 1475.44 1352.69 1468.33 Q1352.69 1461.2 1350.86 1457.66 Q1349.05 1454.1 1345.42 1454.1 M1345.42 1450.39 Q1351.23 1450.39 1354.28 1455 Q1357.36 1459.58 1357.36 1468.33 Q1357.36 1477.06 1354.28 1481.67 Q1351.23 1486.25 1345.42 1486.25 Q1339.61 1486.25 1336.53 1481.67 Q1333.47 1477.06 1333.47 1468.33 Q1333.47 1459.58 1336.53 1455 Q1339.61 1450.39 1345.42 1450.39 Z" fill="#000000" fill-rule="nonzero" fill-opacity="1" /><path clip-path="url(#clip160)" d="M1751.91 1454.1 Q1748.3 1454.1 1746.47 1457.66 Q1744.67 1461.2 1744.67 1468.33 Q1744.67 1475.44 1746.47 1479.01 Q1748.3 1482.55 1751.91 1482.55 Q1755.55 1482.55 1757.35 1479.01 Q1759.18 1475.44 1759.18 1468.33 Q1759.18 1461.2 1757.35 1457.66 Q1755.55 1454.1 1751.91 1454.1 M1751.91 1450.39 Q1757.72 1450.39 1760.78 1455 Q1763.86 1459.58 1763.86 1468.33 Q1763.86 1477.06 1760.78 1481.67 Q1757.72 1486.25 1751.91 1486.25 Q1746.1 1486.25 1743.02 1481.67 Q1739.97 1477.06 1739.97 1468.33 Q1739.97 1459.58 1743.02 1455 Q1746.1 1450.39 1751.91 1450.39 Z" fill="#000000" fill-rule="nonzero" fill-opacity="1" /><path clip-path="url(#clip160)" d="M1772.07 1479.7 L1776.96 1479.7 L1776.96 1485.58 L1772.07 1485.58 L1772.07 1479.7 Z" fill="#000000" fill-rule="nonzero" fill-opacity="1" /><path clip-path="url(#clip160)" d="M1785.96 1451.02 L1808.18 1451.02 L1808.18 1453.01 L1795.64 1485.58 L1790.75 1485.58 L1802.56 1454.96 L1785.96 1454.96 L1785.96 1451.02 Z" fill="#000000" fill-rule="nonzero" fill-opacity="1" /><path clip-path="url(#clip160)" d="M1817.35 1451.02 L1835.71 1451.02 L1835.71 1454.96 L1821.63 1454.96 L1821.63 1463.43 Q1822.65 1463.08 1823.67 1462.92 Q1824.69 1462.73 1825.71 1462.73 Q1831.49 1462.73 1834.87 1465.9 Q1838.25 1469.08 1838.25 1474.49 Q1838.25 1480.07 1834.78 1483.17 Q1831.31 1486.25 1824.99 1486.25 Q1822.81 1486.25 1820.55 1485.88 Q1818.3 1485.51 1815.89 1484.77 L1815.89 1480.07 Q1817.98 1481.2 1820.2 1481.76 Q1822.42 1482.32 1824.9 1482.32 Q1828.9 1482.32 1831.24 1480.21 Q1833.58 1478.1 1833.58 1474.49 Q1833.58 1470.88 1831.24 1468.77 Q1828.9 1466.67 1824.9 1466.67 Q1823.02 1466.67 1821.15 1467.08 Q1819.3 1467.5 1817.35 1468.38 L1817.35 1451.02 Z" fill="#000000" fill-rule="nonzero" fill-opacity="1" /><path clip-path="url(#clip160)" d="M2222.57 1481.64 L2230.21 1481.64 L2230.21 1455.28 L2221.9 1456.95 L2221.9 1452.69 L2230.16 1451.02 L2234.84 1451.02 L2234.84 1481.64 L2242.48 1481.64 L2242.48 1485.58 L2222.57 1485.58 L2222.57 1481.64 Z" fill="#000000" fill-rule="nonzero" fill-opacity="1" /><path clip-path="url(#clip160)" d="M2251.92 1479.7 L2256.81 1479.7 L2256.81 1485.58 L2251.92 1485.58 L2251.92 1479.7 Z" fill="#000000" fill-rule="nonzero" fill-opacity="1" /><path clip-path="url(#clip160)" d="M2276.99 1454.1 Q2273.38 1454.1 2271.55 1457.66 Q2269.75 1461.2 2269.75 1468.33 Q2269.75 1475.44 2271.55 1479.01 Q2273.38 1482.55 2276.99 1482.55 Q2280.63 1482.55 2282.43 1479.01 Q2284.26 1475.44 2284.26 1468.33 Q2284.26 1461.2 2282.43 1457.66 Q2280.63 1454.1 2276.99 1454.1 M2276.99 1450.39 Q2282.8 1450.39 2285.86 1455 Q2288.94 1459.58 2288.94 1468.33 Q2288.94 1477.06 2285.86 1481.67 Q2282.8 1486.25 2276.99 1486.25 Q2271.18 1486.25 2268.1 1481.67 Q2265.05 1477.06 2265.05 1468.33 Q2265.05 1459.58 2268.1 1455 Q2271.18 1450.39 2276.99 1450.39 Z" fill="#000000" fill-rule="nonzero" fill-opacity="1" /><path clip-path="url(#clip160)" d="M2307.15 1454.1 Q2303.54 1454.1 2301.71 1457.66 Q2299.91 1461.2 2299.91 1468.33 Q2299.91 1475.44 2301.71 1479.01 Q2303.54 1482.55 2307.15 1482.55 Q2310.79 1482.55 2312.59 1479.01 Q2314.42 1475.44 2314.42 1468.33 Q2314.42 1461.2 2312.59 1457.66 Q2310.79 1454.1 2307.15 1454.1 M2307.15 1450.39 Q2312.96 1450.39 2316.02 1455 Q2319.1 1459.58 2319.1 1468.33 Q2319.1 1477.06 2316.02 1481.67 Q2312.96 1486.25 2307.15 1486.25 Q2301.34 1486.25 2298.27 1481.67 Q2295.21 1477.06 2295.21 1468.33 Q2295.21 1459.58 2298.27 1455 Q2301.34 1450.39 2307.15 1450.39 Z" fill="#000000" fill-rule="nonzero" fill-opacity="1" /><path clip-path="url(#clip160)" d="M992.878 1525.81 L992.878 1562.76 L1000.64 1562.76 Q1010.48 1562.76 1015.03 1558.3 Q1019.61 1553.85 1019.61 1544.24 Q1019.61 1534.69 1015.03 1530.26 Q1010.48 1525.81 1000.64 1525.81 L992.878 1525.81 M986.449 1520.52 L999.657 1520.52 Q1013.47 1520.52 1019.93 1526.28 Q1026.39 1532.01 1026.39 1544.24 Q1026.39 1556.52 1019.9 1562.28 Q1013.41 1568.04 999.657 1568.04 L986.449 1568.04 L986.449 1520.52 Z" fill="#000000" fill-rule="nonzero" fill-opacity="1" /><path clip-path="url(#clip160)" d="M1066.88 1548.76 L1066.88 1551.62 L1039.95 1551.62 Q1040.33 1557.67 1043.58 1560.85 Q1046.86 1564 1052.68 1564 Q1056.06 1564 1059.21 1563.17 Q1062.39 1562.35 1065.51 1560.69 L1065.51 1566.23 Q1062.36 1567.57 1059.05 1568.27 Q1055.74 1568.97 1052.33 1568.97 Q1043.8 1568.97 1038.81 1564 Q1033.84 1559.04 1033.84 1550.57 Q1033.84 1541.82 1038.55 1536.69 Q1043.29 1531.54 1051.32 1531.54 Q1058.51 1531.54 1062.68 1536.18 Q1066.88 1540.8 1066.88 1548.76 M1061.02 1547.04 Q1060.96 1542.23 1058.32 1539.37 Q1055.71 1536.5 1051.38 1536.5 Q1046.48 1536.5 1043.52 1539.27 Q1040.59 1542.04 1040.14 1547.07 L1061.02 1547.04 Z" fill="#000000" fill-rule="nonzero" fill-opacity="1" /><path clip-path="url(#clip160)" d="M1082.16 1562.7 L1082.16 1581.6 L1076.27 1581.6 L1076.27 1532.4 L1082.16 1532.4 L1082.16 1537.81 Q1084 1534.62 1086.8 1533.1 Q1089.64 1531.54 1093.55 1531.54 Q1100.04 1531.54 1104.09 1536.69 Q1108.16 1541.85 1108.16 1550.25 Q1108.16 1558.65 1104.09 1563.81 Q1100.04 1568.97 1093.55 1568.97 Q1089.64 1568.97 1086.8 1567.44 Q1084 1565.88 1082.16 1562.7 M1102.08 1550.25 Q1102.08 1543.79 1099.41 1540.13 Q1096.77 1536.44 1092.12 1536.44 Q1087.47 1536.44 1084.8 1540.13 Q1082.16 1543.79 1082.16 1550.25 Q1082.16 1556.71 1084.8 1560.4 Q1087.47 1564.07 1092.12 1564.07 Q1096.77 1564.07 1099.41 1560.4 Q1102.08 1556.71 1102.08 1550.25 Z" fill="#000000" fill-rule="nonzero" fill-opacity="1" /><path clip-path="url(#clip160)" d="M1123.66 1522.27 L1123.66 1532.4 L1135.72 1532.4 L1135.72 1536.95 L1123.66 1536.95 L1123.66 1556.3 Q1123.66 1560.66 1124.84 1561.9 Q1126.05 1563.14 1129.71 1563.14 L1135.72 1563.14 L1135.72 1568.04 L1129.71 1568.04 Q1122.93 1568.04 1120.35 1565.53 Q1117.77 1562.98 1117.77 1556.3 L1117.77 1536.95 L1113.48 1536.95 L1113.48 1532.4 L1117.77 1532.4 L1117.77 1522.27 L1123.66 1522.27 Z" fill="#000000" fill-rule="nonzero" fill-opacity="1" /><path clip-path="url(#clip160)" d="M1173.06 1546.53 L1173.06 1568.04 L1167.2 1568.04 L1167.2 1546.72 Q1167.2 1541.66 1165.23 1539.14 Q1163.26 1536.63 1159.31 1536.63 Q1154.57 1536.63 1151.83 1539.65 Q1149.09 1542.68 1149.09 1547.9 L1149.09 1568.04 L1143.2 1568.04 L1143.2 1518.52 L1149.09 1518.52 L1149.09 1537.93 Q1151.19 1534.72 1154.03 1533.13 Q1156.89 1531.54 1160.61 1531.54 Q1166.76 1531.54 1169.91 1535.36 Q1173.06 1539.14 1173.06 1546.53 Z" fill="#000000" fill-rule="nonzero" fill-opacity="1" /><path clip-path="url(#clip160)" d="M1211.25 1522.27 L1211.25 1532.4 L1223.32 1532.4 L1223.32 1536.95 L1211.25 1536.95 L1211.25 1556.3 Q1211.25 1560.66 1212.43 1561.9 Q1213.64 1563.14 1217.3 1563.14 L1223.32 1563.14 L1223.32 1568.04 L1217.3 1568.04 Q1210.52 1568.04 1207.94 1565.53 Q1205.37 1562.98 1205.37 1556.3 L1205.37 1536.95 L1201.07 1536.95 L1201.07 1532.4 L1205.37 1532.4 L1205.37 1522.27 L1211.25 1522.27 Z" fill="#000000" fill-rule="nonzero" fill-opacity="1" /><path clip-path="url(#clip160)" d="M1244.83 1536.5 Q1240.12 1536.5 1237.38 1540.19 Q1234.65 1543.85 1234.65 1550.25 Q1234.65 1556.65 1237.35 1560.34 Q1240.09 1564 1244.83 1564 Q1249.51 1564 1252.25 1560.31 Q1254.99 1556.62 1254.99 1550.25 Q1254.99 1543.92 1252.25 1540.23 Q1249.51 1536.5 1244.83 1536.5 M1244.83 1531.54 Q1252.47 1531.54 1256.83 1536.5 Q1261.19 1541.47 1261.19 1550.25 Q1261.19 1559 1256.83 1564 Q1252.47 1568.97 1244.83 1568.97 Q1237.16 1568.97 1232.8 1564 Q1228.47 1559 1228.47 1550.25 Q1228.47 1541.47 1232.8 1536.5 Q1237.16 1531.54 1244.83 1531.54 Z" fill="#000000" fill-rule="nonzero" fill-opacity="1" /><path clip-path="url(#clip160)" d="M1314.35 1533.45 L1314.35 1538.98 Q1311.86 1537.71 1309.19 1537.07 Q1306.52 1536.44 1303.65 1536.44 Q1299.29 1536.44 1297.1 1537.77 Q1294.93 1539.11 1294.93 1541.79 Q1294.93 1543.82 1296.49 1545 Q1298.05 1546.15 1302.76 1547.2 L1304.77 1547.64 Q1311 1548.98 1313.61 1551.43 Q1316.26 1553.85 1316.26 1558.21 Q1316.26 1563.17 1312.31 1566.07 Q1308.39 1568.97 1301.52 1568.97 Q1298.65 1568.97 1295.54 1568.39 Q1292.45 1567.85 1289.01 1566.74 L1289.01 1560.69 Q1292.26 1562.38 1295.41 1563.24 Q1298.56 1564.07 1301.65 1564.07 Q1305.78 1564.07 1308.01 1562.66 Q1310.24 1561.23 1310.24 1558.65 Q1310.24 1556.27 1308.62 1554.99 Q1307.03 1553.72 1301.58 1552.54 L1299.55 1552.07 Q1294.1 1550.92 1291.68 1548.56 Q1289.27 1546.18 1289.27 1542.04 Q1289.27 1537.01 1292.83 1534.27 Q1296.39 1531.54 1302.95 1531.54 Q1306.2 1531.54 1309.06 1532.01 Q1311.93 1532.49 1314.35 1533.45 Z" fill="#000000" fill-rule="nonzero" fill-opacity="1" /><path clip-path="url(#clip160)" d="M1324.98 1553.98 L1324.98 1532.4 L1330.83 1532.4 L1330.83 1553.75 Q1330.83 1558.81 1332.81 1561.36 Q1334.78 1563.87 1338.73 1563.87 Q1343.47 1563.87 1346.21 1560.85 Q1348.98 1557.83 1348.98 1552.61 L1348.98 1532.4 L1354.83 1532.4 L1354.83 1568.04 L1348.98 1568.04 L1348.98 1562.57 Q1346.84 1565.82 1344.01 1567.41 Q1341.21 1568.97 1337.49 1568.97 Q1331.34 1568.97 1328.16 1565.15 Q1324.98 1561.33 1324.98 1553.98 M1339.71 1531.54 L1339.71 1531.54 Z" fill="#000000" fill-rule="nonzero" fill-opacity="1" /><path clip-path="url(#clip160)" d="M1387.55 1537.87 Q1386.57 1537.3 1385.39 1537.04 Q1384.24 1536.76 1382.84 1536.76 Q1377.88 1536.76 1375.2 1540 Q1372.56 1543.22 1372.56 1549.27 L1372.56 1568.04 L1366.67 1568.04 L1366.67 1532.4 L1372.56 1532.4 L1372.56 1537.93 Q1374.41 1534.69 1377.37 1533.13 Q1380.33 1531.54 1384.56 1531.54 Q1385.16 1531.54 1385.9 1531.63 Q1386.63 1531.7 1387.52 1531.85 L1387.55 1537.87 Z" fill="#000000" fill-rule="nonzero" fill-opacity="1" /><path clip-path="url(#clip160)" d="M1411.74 1518.52 L1411.74 1523.39 L1406.14 1523.39 Q1402.99 1523.39 1401.75 1524.66 Q1400.54 1525.93 1400.54 1529.24 L1400.54 1532.4 L1410.18 1532.4 L1410.18 1536.95 L1400.54 1536.95 L1400.54 1568.04 L1394.65 1568.04 L1394.65 1536.95 L1389.05 1536.95 L1389.05 1532.4 L1394.65 1532.4 L1394.65 1529.91 Q1394.65 1523.96 1397.42 1521.26 Q1400.19 1518.52 1406.2 1518.52 L1411.74 1518.52 Z" fill="#000000" fill-rule="nonzero" fill-opacity="1" /><path clip-path="url(#clip160)" d="M1432.84 1550.12 Q1425.75 1550.12 1423.01 1551.75 Q1420.27 1553.37 1420.27 1557.29 Q1420.27 1560.4 1422.31 1562.25 Q1424.38 1564.07 1427.91 1564.07 Q1432.78 1564.07 1435.71 1560.63 Q1438.67 1557.16 1438.67 1551.43 L1438.67 1550.12 L1432.84 1550.12 M1444.52 1547.71 L1444.52 1568.04 L1438.67 1568.04 L1438.67 1562.63 Q1436.66 1565.88 1433.67 1567.44 Q1430.68 1568.97 1426.35 1568.97 Q1420.88 1568.97 1417.63 1565.91 Q1414.42 1562.82 1414.42 1557.67 Q1414.42 1551.65 1418.43 1548.6 Q1422.47 1545.54 1430.46 1545.54 L1438.67 1545.54 L1438.67 1544.97 Q1438.67 1540.93 1435.99 1538.73 Q1433.35 1536.5 1428.55 1536.5 Q1425.49 1536.5 1422.6 1537.23 Q1419.7 1537.97 1417.03 1539.43 L1417.03 1534.02 Q1420.24 1532.78 1423.26 1532.17 Q1426.29 1531.54 1429.15 1531.54 Q1436.89 1531.54 1440.71 1535.55 Q1444.52 1539.56 1444.52 1547.71 Z" fill="#000000" fill-rule="nonzero" fill-opacity="1" /><path clip-path="url(#clip160)" d="M1482.24 1533.76 L1482.24 1539.24 Q1479.76 1537.87 1477.24 1537.2 Q1474.76 1536.5 1472.22 1536.5 Q1466.52 1536.5 1463.37 1540.13 Q1460.22 1543.73 1460.22 1550.25 Q1460.22 1556.78 1463.37 1560.4 Q1466.52 1564 1472.22 1564 Q1474.76 1564 1477.24 1563.33 Q1479.76 1562.63 1482.24 1561.26 L1482.24 1566.68 Q1479.79 1567.82 1477.15 1568.39 Q1474.54 1568.97 1471.58 1568.97 Q1463.53 1568.97 1458.78 1563.91 Q1454.04 1558.85 1454.04 1550.25 Q1454.04 1541.53 1458.82 1536.53 Q1463.62 1531.54 1471.96 1531.54 Q1474.67 1531.54 1477.24 1532.11 Q1479.82 1532.65 1482.24 1533.76 Z" fill="#000000" fill-rule="nonzero" fill-opacity="1" /><path clip-path="url(#clip160)" d="M1522.92 1548.76 L1522.92 1551.62 L1495.99 1551.62 Q1496.37 1557.67 1499.62 1560.85 Q1502.9 1564 1508.72 1564 Q1512.1 1564 1515.25 1563.17 Q1518.43 1562.35 1521.55 1560.69 L1521.55 1566.23 Q1518.4 1567.57 1515.09 1568.27 Q1511.78 1568.97 1508.37 1568.97 Q1499.84 1568.97 1494.85 1564 Q1489.88 1559.04 1489.88 1550.57 Q1489.88 1541.82 1494.59 1536.69 Q1499.33 1531.54 1507.35 1531.54 Q1514.55 1531.54 1518.72 1536.18 Q1522.92 1540.8 1522.92 1548.76 M1517.06 1547.04 Q1517 1542.23 1514.36 1539.37 Q1511.75 1536.5 1507.42 1536.5 Q1502.52 1536.5 1499.56 1539.27 Q1496.63 1542.04 1496.18 1547.07 L1517.06 1547.04 Z" fill="#000000" fill-rule="nonzero" fill-opacity="1" /><path clip-path="url(#clip160)" d="M1563.66 1520.52 L1569.07 1520.52 L1552.52 1574.09 L1547.11 1574.09 L1563.66 1520.52 Z" fill="#000000" fill-rule="nonzero" fill-opacity="1" /><path clip-path="url(#clip160)" d="M1623.69 1539.24 Q1625.88 1535.29 1628.94 1533.41 Q1631.99 1531.54 1636.13 1531.54 Q1641.7 1531.54 1644.73 1535.45 Q1647.75 1539.33 1647.75 1546.53 L1647.75 1568.04 L1641.86 1568.04 L1641.86 1546.72 Q1641.86 1541.59 1640.05 1539.11 Q1638.23 1536.63 1634.51 1536.63 Q1629.96 1536.63 1627.32 1539.65 Q1624.67 1542.68 1624.67 1547.9 L1624.67 1568.04 L1618.79 1568.04 L1618.79 1546.72 Q1618.79 1541.56 1616.97 1539.11 Q1615.16 1536.63 1611.37 1536.63 Q1606.88 1536.63 1604.24 1539.68 Q1601.6 1542.71 1601.6 1547.9 L1601.6 1568.04 L1595.71 1568.04 L1595.71 1532.4 L1601.6 1532.4 L1601.6 1537.93 Q1603.6 1534.66 1606.4 1533.1 Q1609.21 1531.54 1613.06 1531.54 Q1616.94 1531.54 1619.65 1533.51 Q1622.38 1535.48 1623.69 1539.24 Z" fill="#000000" fill-rule="nonzero" fill-opacity="1" /><path clip-path="url(#clip160)" d="M1687.19 1539.24 Q1689.38 1535.29 1692.44 1533.41 Q1695.49 1531.54 1699.63 1531.54 Q1705.2 1531.54 1708.22 1535.45 Q1711.25 1539.33 1711.25 1546.53 L1711.25 1568.04 L1705.36 1568.04 L1705.36 1546.72 Q1705.36 1541.59 1703.55 1539.11 Q1701.73 1536.63 1698.01 1536.63 Q1693.46 1536.63 1690.81 1539.65 Q1688.17 1542.68 1688.17 1547.9 L1688.17 1568.04 L1682.28 1568.04 L1682.28 1546.72 Q1682.28 1541.56 1680.47 1539.11 Q1678.66 1536.63 1674.87 1536.63 Q1670.38 1536.63 1667.74 1539.68 Q1665.1 1542.71 1665.1 1547.9 L1665.1 1568.04 L1659.21 1568.04 L1659.21 1532.4 L1665.1 1532.4 L1665.1 1537.93 Q1667.1 1534.66 1669.9 1533.1 Q1672.7 1531.54 1676.55 1531.54 Q1680.44 1531.54 1683.14 1533.51 Q1685.88 1535.48 1687.19 1539.24 Z" fill="#000000" fill-rule="nonzero" fill-opacity="1" /><polyline clip-path="url(#clip160)" style="stroke:#000000; stroke-linecap:round; stroke-linejoin:round; stroke-width:4; stroke-opacity:1; fill:none" points="344.941,1423.18 344.941,47.2441 "/>
<polyline clip-path="url(#clip160)" style="stroke:#000000; stroke-linecap:round; stroke-linejoin:round; stroke-width:4; stroke-opacity:1; fill:none" points="344.941,1165.55 363.838,1165.55 "/>
<polyline clip-path="url(#clip160)" style="stroke:#000000; stroke-linecap:round; stroke-linejoin:round; stroke-width:4; stroke-opacity:1; fill:none" points="344.941,828.242 363.838,828.242 "/>
<polyline clip-path="url(#clip160)" style="stroke:#000000; stroke-linecap:round; stroke-linejoin:round; stroke-width:4; stroke-opacity:1; fill:none" points="344.941,490.935 363.838,490.935 "/>
<polyline clip-path="url(#clip160)" style="stroke:#000000; stroke-linecap:round; stroke-linejoin:round; stroke-width:4; stroke-opacity:1; fill:none" points="344.941,153.627 363.838,153.627 "/>
<path clip-path="url(#clip160)" d="M122.067 1185.34 L129.706 1185.34 L129.706 1158.98 L121.395 1160.64 L121.395 1156.38 L129.659 1154.72 L134.335 1154.72 L134.335 1185.34 L141.974 1185.34 L141.974 1189.28 L122.067 1189.28 L122.067 1185.34 Z" fill="#000000" fill-rule="nonzero" fill-opacity="1" /><path clip-path="url(#clip160)" d="M151.418 1183.4 L156.303 1183.4 L156.303 1189.28 L151.418 1189.28 L151.418 1183.4 Z" fill="#000000" fill-rule="nonzero" fill-opacity="1" /><path clip-path="url(#clip160)" d="M176.488 1157.8 Q172.877 1157.8 171.048 1161.36 Q169.242 1164.9 169.242 1172.03 Q169.242 1179.14 171.048 1182.7 Q172.877 1186.24 176.488 1186.24 Q180.122 1186.24 181.928 1182.7 Q183.756 1179.14 183.756 1172.03 Q183.756 1164.9 181.928 1161.36 Q180.122 1157.8 176.488 1157.8 M176.488 1154.09 Q182.298 1154.09 185.353 1158.7 Q188.432 1163.28 188.432 1172.03 Q188.432 1180.76 185.353 1185.37 Q182.298 1189.95 176.488 1189.95 Q170.678 1189.95 167.599 1185.37 Q164.543 1180.76 164.543 1172.03 Q164.543 1163.28 167.599 1158.7 Q170.678 1154.09 176.488 1154.09 Z" fill="#000000" fill-rule="nonzero" fill-opacity="1" /><path clip-path="url(#clip160)" d="M224.821 1163.81 L214.242 1174.44 L224.821 1185.02 L222.066 1187.82 L211.441 1177.19 L200.816 1187.82 L198.085 1185.02 L208.64 1174.44 L198.085 1163.81 L200.816 1161.01 L211.441 1171.64 L222.066 1161.01 L224.821 1163.81 Z" fill="#000000" fill-rule="nonzero" fill-opacity="1" /><path clip-path="url(#clip160)" d="M237.182 1185.34 L244.821 1185.34 L244.821 1158.98 L236.511 1160.64 L236.511 1156.38 L244.774 1154.72 L249.45 1154.72 L249.45 1185.34 L257.089 1185.34 L257.089 1189.28 L237.182 1189.28 L237.182 1185.34 Z" fill="#000000" fill-rule="nonzero" fill-opacity="1" /><path clip-path="url(#clip160)" d="M276.533 1157.8 Q272.922 1157.8 271.094 1161.36 Q269.288 1164.9 269.288 1172.03 Q269.288 1179.14 271.094 1182.7 Q272.922 1186.24 276.533 1186.24 Q280.168 1186.24 281.973 1182.7 Q283.802 1179.14 283.802 1172.03 Q283.802 1164.9 281.973 1161.36 Q280.168 1157.8 276.533 1157.8 M276.533 1154.09 Q282.344 1154.09 285.399 1158.7 Q288.478 1163.28 288.478 1172.03 Q288.478 1180.76 285.399 1185.37 Q282.344 1189.95 276.533 1189.95 Q270.723 1189.95 267.645 1185.37 Q264.589 1180.76 264.589 1172.03 Q264.589 1163.28 267.645 1158.7 Q270.723 1154.09 276.533 1154.09 Z" fill="#000000" fill-rule="nonzero" fill-opacity="1" /><path clip-path="url(#clip160)" d="M301.154 1137.1 L291.562 1152.09 L301.154 1152.09 L301.154 1137.1 M300.157 1133.79 L304.935 1133.79 L304.935 1152.09 L308.941 1152.09 L308.941 1155.25 L304.935 1155.25 L304.935 1161.87 L301.154 1161.87 L301.154 1155.25 L288.478 1155.25 L288.478 1151.58 L300.157 1133.79 Z" fill="#000000" fill-rule="nonzero" fill-opacity="1" /><path clip-path="url(#clip160)" d="M125.284 848.035 L141.604 848.035 L141.604 851.97 L119.659 851.97 L119.659 848.035 Q122.321 845.28 126.905 840.65 Q131.511 835.998 132.692 834.655 Q134.937 832.132 135.817 830.396 Q136.719 828.637 136.719 826.947 Q136.719 824.192 134.775 822.456 Q132.854 820.72 129.752 820.72 Q127.553 820.72 125.099 821.484 Q122.669 822.248 119.891 823.799 L119.891 819.076 Q122.715 817.942 125.169 817.363 Q127.622 816.785 129.659 816.785 Q135.03 816.785 138.224 819.47 Q141.418 822.155 141.418 826.646 Q141.418 828.775 140.608 830.697 Q139.821 832.595 137.715 835.187 Q137.136 835.859 134.034 839.076 Q130.932 842.271 125.284 848.035 Z" fill="#000000" fill-rule="nonzero" fill-opacity="1" /><path clip-path="url(#clip160)" d="M151.418 846.09 L156.303 846.09 L156.303 851.97 L151.418 851.97 L151.418 846.09 Z" fill="#000000" fill-rule="nonzero" fill-opacity="1" /><path clip-path="url(#clip160)" d="M176.488 820.488 Q172.877 820.488 171.048 824.053 Q169.242 827.595 169.242 834.724 Q169.242 841.831 171.048 845.396 Q172.877 848.937 176.488 848.937 Q180.122 848.937 181.928 845.396 Q183.756 841.831 183.756 834.724 Q183.756 827.595 181.928 824.053 Q180.122 820.488 176.488 820.488 M176.488 816.785 Q182.298 816.785 185.353 821.391 Q188.432 825.975 188.432 834.724 Q188.432 843.451 185.353 848.058 Q182.298 852.641 176.488 852.641 Q170.678 852.641 167.599 848.058 Q164.543 843.451 164.543 834.724 Q164.543 825.975 167.599 821.391 Q170.678 816.785 176.488 816.785 Z" fill="#000000" fill-rule="nonzero" fill-opacity="1" /><path clip-path="url(#clip160)" d="M224.821 826.507 L214.242 837.132 L224.821 847.711 L222.066 850.511 L211.441 839.886 L200.816 850.511 L198.085 847.711 L208.64 837.132 L198.085 826.507 L200.816 823.706 L211.441 834.331 L222.066 823.706 L224.821 826.507 Z" fill="#000000" fill-rule="nonzero" fill-opacity="1" /><path clip-path="url(#clip160)" d="M237.182 848.035 L244.821 848.035 L244.821 821.669 L236.511 823.336 L236.511 819.076 L244.774 817.41 L249.45 817.41 L249.45 848.035 L257.089 848.035 L257.089 851.97 L237.182 851.97 L237.182 848.035 Z" fill="#000000" fill-rule="nonzero" fill-opacity="1" /><path clip-path="url(#clip160)" d="M276.533 820.488 Q272.922 820.488 271.094 824.053 Q269.288 827.595 269.288 834.724 Q269.288 841.831 271.094 845.396 Q272.922 848.937 276.533 848.937 Q280.168 848.937 281.973 845.396 Q283.802 841.831 283.802 834.724 Q283.802 827.595 281.973 824.053 Q280.168 820.488 276.533 820.488 M276.533 816.785 Q282.344 816.785 285.399 821.391 Q288.478 825.975 288.478 834.724 Q288.478 843.451 285.399 848.058 Q282.344 852.641 276.533 852.641 Q270.723 852.641 267.645 848.058 Q264.589 843.451 264.589 834.724 Q264.589 825.975 267.645 821.391 Q270.723 816.785 276.533 816.785 Z" fill="#000000" fill-rule="nonzero" fill-opacity="1" /><path clip-path="url(#clip160)" d="M301.154 799.79 L291.562 814.779 L301.154 814.779 L301.154 799.79 M300.157 796.479 L304.935 796.479 L304.935 814.779 L308.941 814.779 L308.941 817.939 L304.935 817.939 L304.935 824.559 L301.154 824.559 L301.154 817.939 L288.478 817.939 L288.478 814.271 L300.157 796.479 Z" fill="#000000" fill-rule="nonzero" fill-opacity="1" /><path clip-path="url(#clip160)" d="M135.423 496.028 Q138.78 496.746 140.655 499.014 Q142.553 501.283 142.553 504.616 Q142.553 509.732 139.034 512.532 Q135.516 515.333 129.034 515.333 Q126.858 515.333 124.544 514.894 Q122.252 514.477 119.798 513.62 L119.798 509.107 Q121.743 510.241 124.057 510.82 Q126.372 511.398 128.895 511.398 Q133.294 511.398 135.585 509.662 Q137.9 507.926 137.9 504.616 Q137.9 501.56 135.747 499.847 Q133.618 498.111 129.798 498.111 L125.77 498.111 L125.77 494.269 L129.983 494.269 Q133.432 494.269 135.261 492.903 Q137.09 491.514 137.09 488.922 Q137.09 486.259 135.192 484.847 Q133.317 483.412 129.798 483.412 Q127.877 483.412 125.678 483.829 Q123.479 484.246 120.84 485.125 L120.84 480.959 Q123.502 480.218 125.817 479.847 Q128.155 479.477 130.215 479.477 Q135.539 479.477 138.641 481.908 Q141.743 484.315 141.743 488.435 Q141.743 491.306 140.099 493.296 Q138.456 495.264 135.423 496.028 Z" fill="#000000" fill-rule="nonzero" fill-opacity="1" /><path clip-path="url(#clip160)" d="M151.418 508.783 L156.303 508.783 L156.303 514.662 L151.418 514.662 L151.418 508.783 Z" fill="#000000" fill-rule="nonzero" fill-opacity="1" /><path clip-path="url(#clip160)" d="M176.488 483.181 Q172.877 483.181 171.048 486.746 Q169.242 490.287 169.242 497.417 Q169.242 504.523 171.048 508.088 Q172.877 511.63 176.488 511.63 Q180.122 511.63 181.928 508.088 Q183.756 504.523 183.756 497.417 Q183.756 490.287 181.928 486.746 Q180.122 483.181 176.488 483.181 M176.488 479.477 Q182.298 479.477 185.353 484.084 Q188.432 488.667 188.432 497.417 Q188.432 506.144 185.353 510.75 Q182.298 515.333 176.488 515.333 Q170.678 515.333 167.599 510.75 Q164.543 506.144 164.543 497.417 Q164.543 488.667 167.599 484.084 Q170.678 479.477 176.488 479.477 Z" fill="#000000" fill-rule="nonzero" fill-opacity="1" /><path clip-path="url(#clip160)" d="M224.821 489.199 L214.242 499.824 L224.821 510.403 L222.066 513.204 L211.441 502.579 L200.816 513.204 L198.085 510.403 L208.64 499.824 L198.085 489.199 L200.816 486.398 L211.441 497.023 L222.066 486.398 L224.821 489.199 Z" fill="#000000" fill-rule="nonzero" fill-opacity="1" /><path clip-path="url(#clip160)" d="M237.182 510.727 L244.821 510.727 L244.821 484.361 L236.511 486.028 L236.511 481.769 L244.774 480.102 L249.45 480.102 L249.45 510.727 L257.089 510.727 L257.089 514.662 L237.182 514.662 L237.182 510.727 Z" fill="#000000" fill-rule="nonzero" fill-opacity="1" /><path clip-path="url(#clip160)" d="M276.533 483.181 Q272.922 483.181 271.094 486.746 Q269.288 490.287 269.288 497.417 Q269.288 504.523 271.094 508.088 Q272.922 511.63 276.533 511.63 Q280.168 511.63 281.973 508.088 Q283.802 504.523 283.802 497.417 Q283.802 490.287 281.973 486.746 Q280.168 483.181 276.533 483.181 M276.533 479.477 Q282.344 479.477 285.399 484.084 Q288.478 488.667 288.478 497.417 Q288.478 506.144 285.399 510.75 Q282.344 515.333 276.533 515.333 Q270.723 515.333 267.645 510.75 Q264.589 506.144 264.589 497.417 Q264.589 488.667 267.645 484.084 Q270.723 479.477 276.533 479.477 Z" fill="#000000" fill-rule="nonzero" fill-opacity="1" /><path clip-path="url(#clip160)" d="M301.154 462.482 L291.562 477.472 L301.154 477.472 L301.154 462.482 M300.157 459.172 L304.935 459.172 L304.935 477.472 L308.941 477.472 L308.941 480.631 L304.935 480.631 L304.935 487.252 L301.154 487.252 L301.154 480.631 L288.478 480.631 L288.478 476.964 L300.157 459.172 Z" fill="#000000" fill-rule="nonzero" fill-opacity="1" /><path clip-path="url(#clip160)" d="M134.104 146.869 L122.298 165.318 L134.104 165.318 L134.104 146.869 M132.877 142.794 L138.756 142.794 L138.756 165.318 L143.687 165.318 L143.687 169.206 L138.756 169.206 L138.756 177.354 L134.104 177.354 L134.104 169.206 L118.502 169.206 L118.502 164.693 L132.877 142.794 Z" fill="#000000" fill-rule="nonzero" fill-opacity="1" /><path clip-path="url(#clip160)" d="M151.418 171.475 L156.303 171.475 L156.303 177.354 L151.418 177.354 L151.418 171.475 Z" fill="#000000" fill-rule="nonzero" fill-opacity="1" /><path clip-path="url(#clip160)" d="M176.488 145.873 Q172.877 145.873 171.048 149.438 Q169.242 152.98 169.242 160.109 Q169.242 167.216 171.048 170.78 Q172.877 174.322 176.488 174.322 Q180.122 174.322 181.928 170.78 Q183.756 167.216 183.756 160.109 Q183.756 152.98 181.928 149.438 Q180.122 145.873 176.488 145.873 M176.488 142.169 Q182.298 142.169 185.353 146.776 Q188.432 151.359 188.432 160.109 Q188.432 168.836 185.353 173.442 Q182.298 178.026 176.488 178.026 Q170.678 178.026 167.599 173.442 Q164.543 168.836 164.543 160.109 Q164.543 151.359 167.599 146.776 Q170.678 142.169 176.488 142.169 Z" fill="#000000" fill-rule="nonzero" fill-opacity="1" /><path clip-path="url(#clip160)" d="M224.821 151.892 L214.242 162.517 L224.821 173.095 L222.066 175.896 L211.441 165.271 L200.816 175.896 L198.085 173.095 L208.64 162.517 L198.085 151.892 L200.816 149.091 L211.441 159.716 L222.066 149.091 L224.821 151.892 Z" fill="#000000" fill-rule="nonzero" fill-opacity="1" /><path clip-path="url(#clip160)" d="M237.182 173.419 L244.821 173.419 L244.821 147.054 L236.511 148.72 L236.511 144.461 L244.774 142.794 L249.45 142.794 L249.45 173.419 L257.089 173.419 L257.089 177.354 L237.182 177.354 L237.182 173.419 Z" fill="#000000" fill-rule="nonzero" fill-opacity="1" /><path clip-path="url(#clip160)" d="M276.533 145.873 Q272.922 145.873 271.094 149.438 Q269.288 152.98 269.288 160.109 Q269.288 167.216 271.094 170.78 Q272.922 174.322 276.533 174.322 Q280.168 174.322 281.973 170.78 Q283.802 167.216 283.802 160.109 Q283.802 152.98 281.973 149.438 Q280.168 145.873 276.533 145.873 M276.533 142.169 Q282.344 142.169 285.399 146.776 Q288.478 151.359 288.478 160.109 Q288.478 168.836 285.399 173.442 Q282.344 178.026 276.533 178.026 Q270.723 178.026 267.645 173.442 Q264.589 168.836 264.589 160.109 Q264.589 151.359 267.645 146.776 Q270.723 142.169 276.533 142.169 Z" fill="#000000" fill-rule="nonzero" fill-opacity="1" /><path clip-path="url(#clip160)" d="M301.154 125.174 L291.562 140.164 L301.154 140.164 L301.154 125.174 M300.157 121.864 L304.935 121.864 L304.935 140.164 L308.941 140.164 L308.941 143.324 L304.935 143.324 L304.935 149.944 L301.154 149.944 L301.154 143.324 L288.478 143.324 L288.478 139.656 L300.157 121.864 Z" fill="#000000" fill-rule="nonzero" fill-opacity="1" /><path clip-path="url(#clip160)" d="M42.7462 1003.43 L42.7462 993.849 L75.084 981.722 L42.7462 969.532 L42.7462 959.952 L90.2662 959.952 L90.2662 966.222 L48.539 966.222 L81.1314 978.476 L81.1314 984.937 L48.539 997.191 L90.2662 997.191 L90.2662 1003.43 L42.7462 1003.43 Z" fill="#000000" fill-rule="nonzero" fill-opacity="1" /><path clip-path="url(#clip160)" d="M58.7241 933.629 Q58.7241 938.34 62.4162 941.077 Q66.0765 943.815 72.474 943.815 Q78.8716 943.815 82.5637 941.109 Q86.224 938.372 86.224 933.629 Q86.224 928.951 82.5319 926.213 Q78.8398 923.476 72.474 923.476 Q66.1402 923.476 62.4481 926.213 Q58.7241 928.951 58.7241 933.629 M53.7589 933.629 Q53.7589 925.991 58.7241 921.63 Q63.6894 917.27 72.474 917.27 Q81.2269 917.27 86.224 921.63 Q91.1892 925.991 91.1892 933.629 Q91.1892 941.3 86.224 945.661 Q81.2269 949.989 72.474 949.989 Q63.6894 949.989 58.7241 945.661 Q53.7589 941.3 53.7589 933.629 Z" fill="#000000" fill-rule="nonzero" fill-opacity="1" /><path clip-path="url(#clip160)" d="M72.474 881.972 Q66.0129 881.972 62.3526 884.645 Q58.6605 887.287 58.6605 891.934 Q58.6605 896.581 62.3526 899.255 Q66.0129 901.896 72.474 901.896 Q78.9352 901.896 82.6273 899.255 Q86.2876 896.581 86.2876 891.934 Q86.2876 887.287 82.6273 884.645 Q78.9352 881.972 72.474 881.972 M60.0291 901.896 Q56.8462 900.05 55.3185 897.249 Q53.7589 894.417 53.7589 890.502 Q53.7589 884.009 58.9151 879.967 Q64.0713 875.893 72.474 875.893 Q80.8768 875.893 86.033 879.967 Q91.1892 884.009 91.1892 890.502 Q91.1892 894.417 89.6615 897.249 Q88.1019 900.05 84.919 901.896 L90.2662 901.896 L90.2662 907.785 L40.741 907.785 L40.741 901.896 L60.0291 901.896 Z" fill="#000000" fill-rule="nonzero" fill-opacity="1" /><path clip-path="url(#clip160)" d="M54.6182 866.185 L54.6182 860.328 L90.2662 860.328 L90.2662 866.185 L54.6182 866.185 M40.741 866.185 L40.741 860.328 L48.157 860.328 L48.157 866.185 L40.741 866.185 Z" fill="#000000" fill-rule="nonzero" fill-opacity="1" /><path clip-path="url(#clip160)" d="M40.741 848.074 L40.741 842.218 L90.2662 842.218 L90.2662 848.074 L40.741 848.074 Z" fill="#000000" fill-rule="nonzero" fill-opacity="1" /><path clip-path="url(#clip160)" d="M54.6182 829.964 L54.6182 824.108 L90.2662 824.108 L90.2662 829.964 L54.6182 829.964 M40.741 829.964 L40.741 824.108 L48.157 824.108 L48.157 829.964 L40.741 829.964 Z" fill="#000000" fill-rule="nonzero" fill-opacity="1" /><path clip-path="url(#clip160)" d="M44.4968 806.061 L54.6182 806.061 L54.6182 793.998 L59.1697 793.998 L59.1697 806.061 L78.5215 806.061 Q82.882 806.061 84.1233 804.883 Q85.3646 803.674 85.3646 800.013 L85.3646 793.998 L90.2662 793.998 L90.2662 800.013 Q90.2662 806.793 87.7517 809.371 Q85.2055 811.949 78.5215 811.949 L59.1697 811.949 L59.1697 816.246 L54.6182 816.246 L54.6182 811.949 L44.4968 811.949 L44.4968 806.061 Z" fill="#000000" fill-rule="nonzero" fill-opacity="1" /><path clip-path="url(#clip160)" d="M93.5764 771.463 Q99.9421 773.946 101.884 776.301 Q103.825 778.656 103.825 782.603 L103.825 787.282 L98.9236 787.282 L98.9236 783.844 Q98.9236 781.425 97.7777 780.089 Q96.6319 778.752 92.3669 777.129 L89.6933 776.078 L54.6182 790.497 L54.6182 784.29 L82.5 773.15 L54.6182 762.01 L54.6182 755.803 L93.5764 771.463 Z" fill="#000000" fill-rule="nonzero" fill-opacity="1" /><path clip-path="url(#clip160)" d="M42.7462 716.591 L42.7462 711.18 L96.3136 727.731 L96.3136 733.142 L42.7462 716.591 Z" fill="#000000" fill-rule="nonzero" fill-opacity="1" /><path clip-path="url(#clip160)" d="M55.9869 658.663 L61.4614 658.663 Q60.0927 661.145 59.4243 663.66 Q58.7241 666.143 58.7241 668.689 Q58.7241 674.386 62.3526 677.537 Q65.9492 680.688 72.474 680.688 Q78.9989 680.688 82.6273 677.537 Q86.224 674.386 86.224 668.689 Q86.224 666.143 85.5556 663.66 Q84.8553 661.145 83.4867 658.663 L88.8976 658.663 Q90.0434 661.114 90.6163 663.755 Q91.1892 666.365 91.1892 669.325 Q91.1892 677.378 86.1285 682.12 Q81.0677 686.863 72.474 686.863 Q63.753 686.863 58.7559 682.089 Q53.7589 677.282 53.7589 668.943 Q53.7589 666.238 54.3318 663.66 Q54.8729 661.082 55.9869 658.663 Z" fill="#000000" fill-rule="nonzero" fill-opacity="1" /><path clip-path="url(#clip160)" d="M61.4614 620.723 Q57.5146 618.527 55.6367 615.471 Q53.7589 612.416 53.7589 608.278 Q53.7589 602.708 57.6738 599.685 Q61.5569 596.661 68.7501 596.661 L90.2662 596.661 L90.2662 602.549 L68.9411 602.549 Q63.8167 602.549 61.3341 604.363 Q58.8514 606.178 58.8514 609.901 Q58.8514 614.453 61.8751 617.095 Q64.8989 619.736 70.1187 619.736 L90.2662 619.736 L90.2662 625.625 L68.9411 625.625 Q63.7849 625.625 61.3341 627.439 Q58.8514 629.253 58.8514 633.041 Q58.8514 637.529 61.907 640.17 Q64.9307 642.812 70.1187 642.812 L90.2662 642.812 L90.2662 648.7 L54.6182 648.7 L54.6182 642.812 L60.1564 642.812 Q56.8781 640.807 55.3185 638.006 Q53.7589 635.205 53.7589 631.354 Q53.7589 627.471 55.7322 624.765 Q57.7056 622.028 61.4614 620.723 Z" fill="#000000" fill-rule="nonzero" fill-opacity="1" /><path clip-path="url(#clip160)" d="M43.0845 589.621 Q42.2503 589.621 42.0024 589.553 Q41.7544 589.463 41.3711 589.102 L31.4968 580.242 Q26.0411 575.395 21.2843 575.395 Q18.1958 575.395 15.9865 577.019 Q13.7771 578.619 13.7771 581.573 Q13.7771 583.602 15.0171 585.315 Q16.257 587.028 18.4663 587.817 Q18.4212 587.682 18.4212 587.209 Q18.4212 586.059 19.1426 585.428 Q19.864 584.774 20.8334 584.774 Q22.0734 584.774 22.6821 585.585 Q23.2682 586.374 23.2682 587.164 Q23.2682 587.479 23.2006 587.907 Q23.1329 588.313 22.5017 588.967 Q21.8479 589.621 20.6982 589.621 Q17.4744 589.621 14.9043 587.186 Q12.3343 584.729 12.3343 580.986 Q12.3343 576.748 14.8593 573.975 Q17.3617 571.18 21.2843 571.18 Q22.6595 571.18 23.922 571.608 Q25.1619 572.014 26.1313 572.577 Q27.1007 573.119 28.6562 574.606 Q30.2118 576.094 31.3165 577.289 Q32.4211 578.484 34.7657 581.167 L39.5225 586.059 L39.5225 577.74 Q39.5225 573.682 39.1618 573.367 Q38.508 572.916 35.0588 572.352 L35.0588 571.18 L43.0845 572.487 L43.0845 589.621 Z" fill="#000000" fill-rule="nonzero" fill-opacity="1" /><path clip-path="url(#clip160)" d="M42.7462 547.775 L42.7462 542.364 L96.3136 558.915 L96.3136 564.326 L42.7462 547.775 Z" fill="#000000" fill-rule="nonzero" fill-opacity="1" /><path clip-path="url(#clip160)" d="M90.2662 523.713 L42.7462 541.855 L42.7462 535.139 L82.7547 520.084 L42.7462 504.998 L42.7462 498.314 L90.2662 516.424 L90.2662 523.713 Z" fill="#000000" fill-rule="nonzero" fill-opacity="1" /><path clip-path="url(#clip160)" d="M55.6686 468.904 L61.2067 468.904 Q59.9336 471.387 59.297 474.06 Q58.6605 476.734 58.6605 479.599 Q58.6605 483.959 59.9973 486.155 Q61.3341 488.32 64.0077 488.32 Q66.0447 488.32 67.2223 486.76 Q68.3682 485.2 69.4185 480.49 L69.8641 478.485 Q71.2009 472.246 73.6517 469.636 Q76.0707 466.994 80.4312 466.994 Q85.3964 466.994 88.2928 470.941 Q91.1892 474.856 91.1892 481.731 Q91.1892 484.596 90.6163 487.715 Q90.0752 490.802 88.9612 494.24 L82.9138 494.24 Q84.6007 490.993 85.4601 487.842 Q86.2876 484.691 86.2876 481.604 Q86.2876 477.466 84.8872 475.238 Q83.4549 473.01 80.8768 473.01 Q78.4896 473.01 77.2165 474.633 Q75.9434 476.225 74.7657 481.667 L74.2883 483.704 Q73.1424 489.147 70.7871 491.566 Q68.4 493.985 64.2623 493.985 Q59.2334 493.985 56.4961 490.42 Q53.7589 486.855 53.7589 480.299 Q53.7589 477.052 54.2363 474.188 Q54.7137 471.323 55.6686 468.904 Z" fill="#000000" fill-rule="nonzero" fill-opacity="1" /><polyline clip-path="url(#clip161)" style="stroke:#009af9; stroke-linecap:round; stroke-linejoin:round; stroke-width:16; stroke-opacity:1; fill:none" points="344.941,1326.81 364.196,1322.78 383.452,1318.48 402.707,1313.89 421.963,1308.98 441.219,1303.74 460.474,1298.14 479.73,1292.17 498.985,1285.79 518.241,1278.99 537.497,1271.73 556.752,1263.99 576.008,1255.74 595.263,1246.94 614.519,1237.57 633.775,1227.6 653.03,1216.98 672.286,1205.69 691.541,1193.69 710.797,1180.96 730.053,1167.45 749.308,1153.13 768.564,1137.98 787.819,1121.98 807.075,1105.09 826.331,1087.31 845.586,1068.61 864.842,1049.01 884.097,1028.5 903.353,1007.1 922.608,984.833 941.864,961.738 961.12,937.866 980.375,913.281 999.631,888.062 1018.89,862.3 1038.14,836.102 1057.4,809.586 1076.65,782.88 1095.91,756.123 1115.16,729.458 1134.42,703.033 1153.68,676.996 1172.93,651.492 1192.19,626.658 1211.44,602.623 1230.7,579.502 1249.95,557.396 1269.21,536.389 1288.46,516.546 1307.72,497.914 1326.98,480.522 1346.23,464.38 1365.49,449.482 1384.74,435.808 1404,423.324 1423.25,411.984 1442.51,401.735 1461.77,392.517 1481.02,384.264 1500.28,376.909 1519.53,370.382 1538.79,364.613 1558.04,359.536 1577.3,355.085 1596.55,351.198 1615.81,347.814 1635.07,344.881 1654.32,342.345 1673.58,340.162 1692.83,338.287 1712.09,336.683 1731.34,335.314 1750.6,334.151 1769.85,333.164 1789.11,332.33 1808.37,331.627 1827.62,331.036 1846.88,330.541 1866.13,330.127 1885.39,329.782 1904.64,329.496 1923.9,329.259 1943.15,329.062 1962.41,328.901 1981.67,328.768 2000.92,328.659 2020.18,328.57 2039.43,328.498 2058.69,328.439 2077.94,328.391 2097.2,328.352 2116.46,328.321 2135.71,328.296 2154.97,328.276 2174.22,328.26 2193.48,328.247 2212.73,328.237 2231.99,328.229 2251.24,328.222 2270.5,328.217 2289.76,328.213 2309.01,328.21 2328.27,328.208 2347.52,328.206 "/>
<polyline clip-path="url(#clip161)" style="stroke:#e26f46; stroke-linecap:round; stroke-linejoin:round; stroke-width:16; stroke-opacity:1; fill:none" points="344.941,1384.24 364.196,1381.24 383.452,1378.02 402.707,1374.56 421.963,1370.84 441.219,1366.85 460.474,1362.56 479.73,1357.96 498.985,1353.02 518.241,1347.71 537.497,1342 556.752,1335.87 576.008,1329.28 595.263,1322.2 614.519,1314.58 633.775,1306.4 653.03,1297.61 672.286,1288.16 691.541,1278.01 710.797,1267.1 730.053,1255.39 749.308,1242.81 768.564,1229.3 787.819,1214.82 807.075,1199.3 826.331,1182.69 845.586,1164.91 864.842,1145.91 884.097,1125.65 903.353,1104.07 922.608,1081.12 941.864,1056.78 961.12,1031.03 980.375,1003.85 999.631,975.256 1018.89,945.273 1038.14,913.952 1057.4,881.366 1076.65,847.613 1095.91,812.817 1115.16,777.13 1134.42,740.728 1153.68,703.81 1172.93,666.598 1192.19,629.326 1211.44,592.24 1230.7,555.591 1249.95,519.624 1269.21,484.578 1288.46,450.673 1307.72,418.107 1326.98,387.053 1346.23,357.652 1365.49,330.01 1384.74,304.202 1404,280.269 1423.25,258.219 1442.51,238.033 1461.77,219.667 1481.02,203.055 1500.28,188.115 1519.53,174.75 1538.79,162.857 1558.04,152.325 1577.3,143.044 1596.55,134.902 1615.81,127.79 1635.07,121.603 1654.32,116.242 1673.58,111.616 1692.83,107.637 1712.09,104.228 1731.34,101.317 1750.6,98.8399 1769.85,96.7384 1789.11,94.9613 1808.37,93.4633 1827.62,92.2044 1846.88,91.1496 1866.13,90.2683 1885.39,89.5342 1904.64,88.9244 1923.9,88.4193 1943.15,88.0021 1962.41,87.6585 1981.67,87.3763 2000.92,87.1451 2020.18,86.9562 2039.43,86.8024 2058.69,86.6774 2077.94,86.5761 2097.2,86.4943 2116.46,86.4284 2135.71,86.3754 2154.97,86.333 2174.22,86.299 2193.48,86.272 2212.73,86.2505 2231.99,86.2335 2251.24,86.2201 2270.5,86.2095 2289.76,86.2012 2309.01,86.1947 2328.27,86.1896 2347.52,86.1857 "/>
<path clip-path="url(#clip160)" d="M411.868 248.629 L798.412 248.629 L798.412 93.1086 L411.868 93.1086  Z" fill="#ffffff" fill-rule="evenodd" fill-opacity="1"/>
<polyline clip-path="url(#clip160)" style="stroke:#000000; stroke-linecap:round; stroke-linejoin:round; stroke-width:4; stroke-opacity:1; fill:none" points="411.868,248.629 798.412,248.629 798.412,93.1086 411.868,93.1086 411.868,248.629 "/>
<polyline clip-path="url(#clip160)" style="stroke:#009af9; stroke-linecap:round; stroke-linejoin:round; stroke-width:16; stroke-opacity:1; fill:none" points="434.177,144.949 568.031,144.949 "/>
<path clip-path="url(#clip160)" d="M590.34 127.669 L595.016 127.669 L595.016 141.835 L612.007 141.835 L612.007 127.669 L616.683 127.669 L616.683 162.229 L612.007 162.229 L612.007 145.77 L595.016 145.77 L595.016 162.229 L590.34 162.229 L590.34 127.669 Z" fill="#000000" fill-rule="nonzero" fill-opacity="1" /><path clip-path="url(#clip160)" d="M635.849 139.289 Q632.423 139.289 630.433 141.974 Q628.442 144.636 628.442 149.289 Q628.442 153.942 630.41 156.627 Q632.4 159.289 635.849 159.289 Q639.252 159.289 641.243 156.604 Q643.234 153.918 643.234 149.289 Q643.234 144.682 641.243 141.997 Q639.252 139.289 635.849 139.289 M635.849 135.678 Q641.405 135.678 644.576 139.289 Q647.747 142.9 647.747 149.289 Q647.747 155.655 644.576 159.289 Q641.405 162.9 635.849 162.9 Q630.271 162.9 627.099 159.289 Q623.951 155.655 623.951 149.289 Q623.951 142.9 627.099 139.289 Q630.271 135.678 635.849 135.678 Z" fill="#000000" fill-rule="nonzero" fill-opacity="1" /><path clip-path="url(#clip160)" d="M654.808 126.21 L659.067 126.21 L659.067 162.229 L654.808 162.229 L654.808 126.21 Z" fill="#000000" fill-rule="nonzero" fill-opacity="1" /><path clip-path="url(#clip160)" d="M690.155 148.201 L690.155 150.284 L670.571 150.284 Q670.849 154.682 673.21 156.997 Q675.595 159.289 679.831 159.289 Q682.284 159.289 684.576 158.687 Q686.891 158.085 689.159 156.881 L689.159 160.909 Q686.868 161.881 684.46 162.391 Q682.053 162.9 679.576 162.9 Q673.372 162.9 669.738 159.289 Q666.127 155.678 666.127 149.52 Q666.127 143.155 669.553 139.428 Q673.002 135.678 678.835 135.678 Q684.067 135.678 687.099 139.057 Q690.155 142.414 690.155 148.201 M685.895 146.951 Q685.849 143.456 683.928 141.372 Q682.03 139.289 678.882 139.289 Q675.317 139.289 673.164 141.303 Q671.034 143.317 670.71 146.974 L685.895 146.951 Z" fill="#000000" fill-rule="nonzero" fill-opacity="1" /><polyline clip-path="url(#clip160)" style="stroke:#e26f46; stroke-linecap:round; stroke-linejoin:round; stroke-width:16; stroke-opacity:1; fill:none" points="434.177,196.789 568.031,196.789 "/>
<path clip-path="url(#clip160)" d="M590.34 179.509 L612.192 179.509 L612.192 183.444 L595.016 183.444 L595.016 193.675 L611.475 193.675 L611.475 197.61 L595.016 197.61 L595.016 210.133 L612.609 210.133 L612.609 214.069 L590.34 214.069 L590.34 179.509 Z" fill="#000000" fill-rule="nonzero" fill-opacity="1" /><path clip-path="url(#clip160)" d="M620.109 178.05 L624.368 178.05 L624.368 214.069 L620.109 214.069 L620.109 178.05 Z" fill="#000000" fill-rule="nonzero" fill-opacity="1" /><path clip-path="url(#clip160)" d="M655.456 200.041 L655.456 202.124 L635.873 202.124 Q636.15 206.522 638.511 208.837 Q640.896 211.129 645.132 211.129 Q647.585 211.129 649.877 210.527 Q652.192 209.925 654.46 208.721 L654.46 212.749 Q652.169 213.721 649.761 214.231 Q647.354 214.74 644.877 214.74 Q638.673 214.74 635.039 211.129 Q631.428 207.518 631.428 201.36 Q631.428 194.995 634.854 191.268 Q638.303 187.518 644.136 187.518 Q649.368 187.518 652.4 190.897 Q655.456 194.254 655.456 200.041 M651.197 198.791 Q651.15 195.296 649.229 193.212 Q647.331 191.129 644.183 191.129 Q640.618 191.129 638.465 193.143 Q636.335 195.157 636.011 198.814 L651.197 198.791 Z" fill="#000000" fill-rule="nonzero" fill-opacity="1" /><path clip-path="url(#clip160)" d="M681.104 189.138 L681.104 193.12 Q679.298 192.124 677.47 191.638 Q675.664 191.129 673.812 191.129 Q669.669 191.129 667.377 193.768 Q665.085 196.384 665.085 201.129 Q665.085 205.874 667.377 208.513 Q669.669 211.129 673.812 211.129 Q675.664 211.129 677.47 210.643 Q679.298 210.133 681.104 209.138 L681.104 213.073 Q679.321 213.907 677.4 214.323 Q675.502 214.74 673.349 214.74 Q667.493 214.74 664.044 211.059 Q660.595 207.379 660.595 201.129 Q660.595 194.786 664.067 191.152 Q667.562 187.518 673.627 187.518 Q675.595 187.518 677.47 187.935 Q679.345 188.328 681.104 189.138 Z" fill="#000000" fill-rule="nonzero" fill-opacity="1" /><path clip-path="url(#clip160)" d="M692.724 180.782 L692.724 188.143 L701.497 188.143 L701.497 191.453 L692.724 191.453 L692.724 205.527 Q692.724 208.698 693.581 209.601 Q694.46 210.504 697.122 210.504 L701.497 210.504 L701.497 214.069 L697.122 214.069 Q692.192 214.069 690.317 212.24 Q688.442 210.388 688.442 205.527 L688.442 191.453 L685.317 191.453 L685.317 188.143 L688.442 188.143 L688.442 180.782 L692.724 180.782 Z" fill="#000000" fill-rule="nonzero" fill-opacity="1" /><path clip-path="url(#clip160)" d="M722.122 192.124 Q721.404 191.708 720.548 191.522 Q719.715 191.314 718.696 191.314 Q715.085 191.314 713.141 193.675 Q711.219 196.013 711.219 200.411 L711.219 214.069 L706.937 214.069 L706.937 188.143 L711.219 188.143 L711.219 192.171 Q712.562 189.809 714.715 188.675 Q716.867 187.518 719.946 187.518 Q720.386 187.518 720.918 187.587 Q721.451 187.634 722.099 187.749 L722.122 192.124 Z" fill="#000000" fill-rule="nonzero" fill-opacity="1" /><path clip-path="url(#clip160)" d="M735.594 191.129 Q732.168 191.129 730.178 193.814 Q728.187 196.476 728.187 201.129 Q728.187 205.782 730.154 208.467 Q732.145 211.129 735.594 211.129 Q738.997 211.129 740.988 208.444 Q742.978 205.758 742.978 201.129 Q742.978 196.522 740.988 193.837 Q738.997 191.129 735.594 191.129 M735.594 187.518 Q741.15 187.518 744.321 191.129 Q747.492 194.74 747.492 201.129 Q747.492 207.495 744.321 211.129 Q741.15 214.74 735.594 214.74 Q730.016 214.74 726.844 211.129 Q723.696 207.495 723.696 201.129 Q723.696 194.74 726.844 191.129 Q730.016 187.518 735.594 187.518 Z" fill="#000000" fill-rule="nonzero" fill-opacity="1" /><path clip-path="url(#clip160)" d="M776.103 198.421 L776.103 214.069 L771.844 214.069 L771.844 198.559 Q771.844 194.879 770.409 193.05 Q768.974 191.222 766.103 191.222 Q762.654 191.222 760.664 193.421 Q758.673 195.62 758.673 199.416 L758.673 214.069 L754.39 214.069 L754.39 188.143 L758.673 188.143 L758.673 192.171 Q760.201 189.833 762.261 188.675 Q764.344 187.518 767.052 187.518 Q771.52 187.518 773.812 190.296 Q776.103 193.05 776.103 198.421 Z" fill="#000000" fill-rule="nonzero" fill-opacity="1" /></svg>
