<?xml version="1.0" encoding="utf-8"?>
<svg xmlns="http://www.w3.org/2000/svg" xmlns:xlink="http://www.w3.org/1999/xlink" width="600" height="400" viewBox="0 0 2400 1600">
<defs>
  <clipPath id="clip900">
    <rect x="0" y="0" width="2400" height="1600"/>
  </clipPath>
</defs>
<path clip-path="url(#clip900)" d="
M0 1600 L2400 1600 L2400 0 L0 0  Z
  " fill="#ffffff" fill-rule="evenodd" fill-opacity="1"/>
<defs>
  <clipPath id="clip901">
    <rect x="480" y="0" width="1681" height="1600"/>
  </clipPath>
</defs>
<path clip-path="url(#clip900)" d="
M445.534 1392.94 L2352.76 1392.94 L2352.76 47.2441 L445.534 47.2441  Z
  " fill="#ffffff" fill-rule="evenodd" fill-opacity="1"/>
<defs>
  <clipPath id="clip902">
    <rect x="445" y="47" width="1908" height="1347"/>
  </clipPath>
</defs>
<polyline clip-path="url(#clip902)" style="stroke:#000000; stroke-linecap:butt; stroke-linejoin:round; stroke-width:2; stroke-opacity:0.1; fill:none" points="
  445.534,1392.94 445.534,47.2441 
  "/>
<polyline clip-path="url(#clip902)" style="stroke:#000000; stroke-linecap:butt; stroke-linejoin:round; stroke-width:2; stroke-opacity:0.1; fill:none" points="
  878.994,1392.94 878.994,47.2441 
  "/>
<polyline clip-path="url(#clip902)" style="stroke:#000000; stroke-linecap:butt; stroke-linejoin:round; stroke-width:2; stroke-opacity:0.1; fill:none" points="
  1312.45,1392.94 1312.45,47.2441 
  "/>
<polyline clip-path="url(#clip902)" style="stroke:#000000; stroke-linecap:butt; stroke-linejoin:round; stroke-width:2; stroke-opacity:0.1; fill:none" points="
  1745.91,1392.94 1745.91,47.2441 
  "/>
<polyline clip-path="url(#clip902)" style="stroke:#000000; stroke-linecap:butt; stroke-linejoin:round; stroke-width:2; stroke-opacity:0.1; fill:none" points="
  2179.37,1392.94 2179.37,47.2441 
  "/>
<polyline clip-path="url(#clip900)" style="stroke:#000000; stroke-linecap:butt; stroke-linejoin:round; stroke-width:4; stroke-opacity:1; fill:none" points="
  445.534,1392.94 2352.76,1392.94 
  "/>
<polyline clip-path="url(#clip900)" style="stroke:#000000; stroke-linecap:butt; stroke-linejoin:round; stroke-width:4; stroke-opacity:1; fill:none" points="
  445.534,1392.94 445.534,1374.04 
  "/>
<polyline clip-path="url(#clip900)" style="stroke:#000000; stroke-linecap:butt; stroke-linejoin:round; stroke-width:4; stroke-opacity:1; fill:none" points="
  878.994,1392.94 878.994,1374.04 
  "/>
<polyline clip-path="url(#clip900)" style="stroke:#000000; stroke-linecap:butt; stroke-linejoin:round; stroke-width:4; stroke-opacity:1; fill:none" points="
  1312.45,1392.94 1312.45,1374.04 
  "/>
<polyline clip-path="url(#clip900)" style="stroke:#000000; stroke-linecap:butt; stroke-linejoin:round; stroke-width:4; stroke-opacity:1; fill:none" points="
  1745.91,1392.94 1745.91,1374.04 
  "/>
<polyline clip-path="url(#clip900)" style="stroke:#000000; stroke-linecap:butt; stroke-linejoin:round; stroke-width:4; stroke-opacity:1; fill:none" points="
  2179.37,1392.94 2179.37,1374.04 
  "/>
<path clip-path="url(#clip900)" d="M445.534 1427.13 Q440.118 1427.13 437.375 1432.47 Q434.666 1437.79 434.666 1448.48 Q434.666 1459.14 437.375 1464.49 Q440.118 1469.8 445.534 1469.8 Q450.986 1469.8 453.694 1464.49 Q456.437 1459.14 456.437 1448.48 Q456.437 1437.79 453.694 1432.47 Q450.986 1427.13 445.534 1427.13 M445.534 1421.57 Q454.249 1421.57 458.833 1428.48 Q463.451 1435.35 463.451 1448.48 Q463.451 1461.57 458.833 1468.48 Q454.249 1475.35 445.534 1475.35 Q436.819 1475.35 432.201 1468.48 Q427.618 1461.57 427.618 1448.48 Q427.618 1435.35 432.201 1428.48 Q436.819 1421.57 445.534 1421.57 Z" fill="#000000" fill-rule="evenodd" fill-opacity="1" /><path clip-path="url(#clip900)" d="M824.532 1468.45 L849.011 1468.45 L849.011 1474.35 L816.095 1474.35 L816.095 1468.45 Q820.088 1464.31 826.963 1457.37 Q833.872 1450.39 835.643 1448.38 Q839.011 1444.59 840.331 1441.99 Q841.685 1439.35 841.685 1436.81 Q841.685 1432.68 838.768 1430.08 Q835.886 1427.47 831.234 1427.47 Q827.935 1427.47 824.254 1428.62 Q820.609 1429.76 816.442 1432.09 L816.442 1425.01 Q820.678 1423.31 824.359 1422.44 Q828.039 1421.57 831.095 1421.57 Q839.15 1421.57 843.942 1425.6 Q848.733 1429.63 848.733 1436.36 Q848.733 1439.56 847.518 1442.44 Q846.338 1445.29 843.178 1449.17 Q842.31 1450.18 837.657 1455.01 Q833.004 1459.8 824.532 1468.45 Z" fill="#000000" fill-rule="evenodd" fill-opacity="1" /><path clip-path="url(#clip900)" d="M863.803 1422.51 L891.337 1422.51 L891.337 1428.41 L870.226 1428.41 L870.226 1441.12 Q871.754 1440.6 873.282 1440.35 Q874.81 1440.08 876.337 1440.08 Q885.018 1440.08 890.087 1444.83 Q895.157 1449.59 895.157 1457.72 Q895.157 1466.08 889.948 1470.74 Q884.74 1475.35 875.261 1475.35 Q871.997 1475.35 868.594 1474.8 Q865.226 1474.24 861.615 1473.13 L861.615 1466.08 Q864.74 1467.79 868.074 1468.62 Q871.407 1469.45 875.122 1469.45 Q881.129 1469.45 884.636 1466.29 Q888.143 1463.13 888.143 1457.72 Q888.143 1452.3 884.636 1449.14 Q881.129 1445.98 875.122 1445.98 Q872.31 1445.98 869.497 1446.6 Q866.719 1447.23 863.803 1448.55 L863.803 1422.51 Z" fill="#000000" fill-rule="evenodd" fill-opacity="1" /><path clip-path="url(#clip900)" d="M923.976 1427.13 Q918.559 1427.13 915.816 1432.47 Q913.108 1437.79 913.108 1448.48 Q913.108 1459.14 915.816 1464.49 Q918.559 1469.8 923.976 1469.8 Q929.427 1469.8 932.136 1464.49 Q934.879 1459.14 934.879 1448.48 Q934.879 1437.79 932.136 1432.47 Q929.427 1427.13 923.976 1427.13 M923.976 1421.57 Q932.691 1421.57 937.275 1428.48 Q941.893 1435.35 941.893 1448.48 Q941.893 1461.57 937.275 1468.48 Q932.691 1475.35 923.976 1475.35 Q915.261 1475.35 910.643 1468.48 Q906.059 1461.57 906.059 1448.48 Q906.059 1435.35 910.643 1428.48 Q915.261 1421.57 923.976 1421.57 Z" fill="#000000" fill-rule="evenodd" fill-opacity="1" /><path clip-path="url(#clip900)" d="M1251.88 1422.51 L1279.42 1422.51 L1279.42 1428.41 L1258.3 1428.41 L1258.3 1441.12 Q1259.83 1440.6 1261.36 1440.35 Q1262.89 1440.08 1264.42 1440.08 Q1273.1 1440.08 1278.17 1444.83 Q1283.23 1449.59 1283.23 1457.72 Q1283.23 1466.08 1278.03 1470.74 Q1272.82 1475.35 1263.34 1475.35 Q1260.07 1475.35 1256.67 1474.8 Q1253.3 1474.24 1249.69 1473.13 L1249.69 1466.08 Q1252.82 1467.79 1256.15 1468.62 Q1259.48 1469.45 1263.2 1469.45 Q1269.21 1469.45 1272.71 1466.29 Q1276.22 1463.13 1276.22 1457.72 Q1276.22 1452.3 1272.71 1449.14 Q1269.21 1445.98 1263.2 1445.98 Q1260.39 1445.98 1257.57 1446.6 Q1254.8 1447.23 1251.88 1448.55 L1251.88 1422.51 Z" fill="#000000" fill-rule="evenodd" fill-opacity="1" /><path clip-path="url(#clip900)" d="M1312.05 1427.13 Q1306.64 1427.13 1303.89 1432.47 Q1301.19 1437.79 1301.19 1448.48 Q1301.19 1459.14 1303.89 1464.49 Q1306.64 1469.8 1312.05 1469.8 Q1317.51 1469.8 1320.21 1464.49 Q1322.96 1459.14 1322.96 1448.48 Q1322.96 1437.79 1320.21 1432.47 Q1317.51 1427.13 1312.05 1427.13 M1312.05 1421.57 Q1320.77 1421.57 1325.35 1428.48 Q1329.97 1435.35 1329.97 1448.48 Q1329.97 1461.57 1325.35 1468.48 Q1320.77 1475.35 1312.05 1475.35 Q1303.34 1475.35 1298.72 1468.48 Q1294.14 1461.57 1294.14 1448.48 Q1294.14 1435.35 1298.72 1428.48 Q1303.34 1421.57 1312.05 1421.57 Z" fill="#000000" fill-rule="evenodd" fill-opacity="1" /><path clip-path="url(#clip900)" d="M1357.3 1427.13 Q1351.88 1427.13 1349.14 1432.47 Q1346.43 1437.79 1346.43 1448.48 Q1346.43 1459.14 1349.14 1464.49 Q1351.88 1469.8 1357.3 1469.8 Q1362.75 1469.8 1365.46 1464.49 Q1368.2 1459.14 1368.2 1448.48 Q1368.2 1437.79 1365.46 1432.47 Q1362.75 1427.13 1357.3 1427.13 M1357.3 1421.57 Q1366.01 1421.57 1370.6 1428.48 Q1375.21 1435.35 1375.21 1448.48 Q1375.21 1461.57 1370.6 1468.48 Q1366.01 1475.35 1357.3 1475.35 Q1348.58 1475.35 1343.96 1468.48 Q1339.38 1461.57 1339.38 1448.48 Q1339.38 1435.35 1343.96 1428.48 Q1348.58 1421.57 1357.3 1421.57 Z" fill="#000000" fill-rule="evenodd" fill-opacity="1" /><path clip-path="url(#clip900)" d="M1683.33 1422.51 L1716.66 1422.51 L1716.66 1425.49 L1697.84 1474.35 L1690.51 1474.35 L1708.22 1428.41 L1683.33 1428.41 L1683.33 1422.51 Z" fill="#000000" fill-rule="evenodd" fill-opacity="1" /><path clip-path="url(#clip900)" d="M1730.41 1422.51 L1757.94 1422.51 L1757.94 1428.41 L1736.83 1428.41 L1736.83 1441.12 Q1738.36 1440.6 1739.89 1440.35 Q1741.42 1440.08 1742.94 1440.08 Q1751.62 1440.08 1756.69 1444.83 Q1761.76 1449.59 1761.76 1457.72 Q1761.76 1466.08 1756.55 1470.74 Q1751.35 1475.35 1741.87 1475.35 Q1738.6 1475.35 1735.2 1474.8 Q1731.83 1474.24 1728.22 1473.13 L1728.22 1466.08 Q1731.35 1467.79 1734.68 1468.62 Q1738.01 1469.45 1741.73 1469.45 Q1747.74 1469.45 1751.24 1466.29 Q1754.75 1463.13 1754.75 1457.72 Q1754.75 1452.3 1751.24 1449.14 Q1747.74 1445.98 1741.73 1445.98 Q1738.92 1445.98 1736.1 1446.6 Q1733.33 1447.23 1730.41 1448.55 L1730.41 1422.51 Z" fill="#000000" fill-rule="evenodd" fill-opacity="1" /><path clip-path="url(#clip900)" d="M1790.58 1427.13 Q1785.17 1427.13 1782.42 1432.47 Q1779.71 1437.79 1779.71 1448.48 Q1779.71 1459.14 1782.42 1464.49 Q1785.17 1469.8 1790.58 1469.8 Q1796.03 1469.8 1798.74 1464.49 Q1801.49 1459.14 1801.49 1448.48 Q1801.49 1437.79 1798.74 1432.47 Q1796.03 1427.13 1790.58 1427.13 M1790.58 1421.57 Q1799.3 1421.57 1803.88 1428.48 Q1808.5 1435.35 1808.5 1448.48 Q1808.5 1461.57 1803.88 1468.48 Q1799.3 1475.35 1790.58 1475.35 Q1781.87 1475.35 1777.25 1468.48 Q1772.67 1461.57 1772.67 1448.48 Q1772.67 1435.35 1777.25 1428.48 Q1781.87 1421.57 1790.58 1421.57 Z" fill="#000000" fill-rule="evenodd" fill-opacity="1" /><path clip-path="url(#clip900)" d="M2096.16 1468.45 L2107.62 1468.45 L2107.62 1428.9 L2095.15 1431.4 L2095.15 1425.01 L2107.55 1422.51 L2114.56 1422.51 L2114.56 1468.45 L2126.02 1468.45 L2126.02 1474.35 L2096.16 1474.35 L2096.16 1468.45 Z" fill="#000000" fill-rule="evenodd" fill-opacity="1" /><path clip-path="url(#clip900)" d="M2155.19 1427.13 Q2149.77 1427.13 2147.03 1432.47 Q2144.32 1437.79 2144.32 1448.48 Q2144.32 1459.14 2147.03 1464.49 Q2149.77 1469.8 2155.19 1469.8 Q2160.64 1469.8 2163.35 1464.49 Q2166.09 1459.14 2166.09 1448.48 Q2166.09 1437.79 2163.35 1432.47 Q2160.64 1427.13 2155.19 1427.13 M2155.19 1421.57 Q2163.9 1421.57 2168.49 1428.48 Q2173.1 1435.35 2173.1 1448.48 Q2173.1 1461.57 2168.49 1468.48 Q2163.9 1475.35 2155.19 1475.35 Q2146.47 1475.35 2141.85 1468.48 Q2137.27 1461.57 2137.27 1448.48 Q2137.27 1435.35 2141.85 1428.48 Q2146.47 1421.57 2155.19 1421.57 Z" fill="#000000" fill-rule="evenodd" fill-opacity="1" /><path clip-path="url(#clip900)" d="M2200.43 1427.13 Q2195.01 1427.13 2192.27 1432.47 Q2189.56 1437.79 2189.56 1448.48 Q2189.56 1459.14 2192.27 1464.49 Q2195.01 1469.8 2200.43 1469.8 Q2205.88 1469.8 2208.59 1464.49 Q2211.33 1459.14 2211.33 1448.48 Q2211.33 1437.79 2208.59 1432.47 Q2205.88 1427.13 2200.43 1427.13 M2200.43 1421.57 Q2209.15 1421.57 2213.73 1428.48 Q2218.35 1435.35 2218.35 1448.48 Q2218.35 1461.57 2213.73 1468.48 Q2209.15 1475.35 2200.43 1475.35 Q2191.72 1475.35 2187.1 1468.48 Q2182.51 1461.57 2182.51 1448.48 Q2182.51 1435.35 2187.1 1428.48 Q2191.72 1421.57 2200.43 1421.57 Z" fill="#000000" fill-rule="evenodd" fill-opacity="1" /><path clip-path="url(#clip900)" d="M2245.67 1427.13 Q2240.26 1427.13 2237.51 1432.47 Q2234.81 1437.79 2234.81 1448.48 Q2234.81 1459.14 2237.51 1464.49 Q2240.26 1469.8 2245.67 1469.8 Q2251.13 1469.8 2253.83 1464.49 Q2256.58 1459.14 2256.58 1448.48 Q2256.58 1437.79 2253.83 1432.47 Q2251.13 1427.13 2245.67 1427.13 M2245.67 1421.57 Q2254.39 1421.57 2258.97 1428.48 Q2263.59 1435.35 2263.59 1448.48 Q2263.59 1461.57 2258.97 1468.48 Q2254.39 1475.35 2245.67 1475.35 Q2236.96 1475.35 2232.34 1468.48 Q2227.76 1461.57 2227.76 1448.48 Q2227.76 1435.35 2232.34 1428.48 Q2236.96 1421.57 2245.67 1421.57 Z" fill="#000000" fill-rule="evenodd" fill-opacity="1" /><path clip-path="url(#clip900)" d="M1211.28 1518.8 L1262.45 1518.8 L1262.45 1525.68 L1240.98 1525.68 L1240.98 1579.28 L1232.75 1579.28 L1232.75 1525.68 L1211.28 1525.68 L1211.28 1518.8 Z" fill="#000000" fill-rule="evenodd" fill-opacity="1" /><path clip-path="url(#clip900)" d="M1267.47 1533.91 L1274.92 1533.91 L1274.92 1579.28 L1267.47 1579.28 L1267.47 1533.91 M1267.47 1516.24 L1274.92 1516.24 L1274.92 1525.68 L1267.47 1525.68 L1267.47 1516.24 Z" fill="#000000" fill-rule="evenodd" fill-opacity="1" /><path clip-path="url(#clip900)" d="M1325.84 1542.62 Q1328.64 1537.59 1332.53 1535.2 Q1336.42 1532.81 1341.68 1532.81 Q1348.77 1532.81 1352.62 1537.79 Q1356.47 1542.74 1356.47 1551.89 L1356.47 1579.28 L1348.97 1579.28 L1348.97 1552.13 Q1348.97 1545.61 1346.67 1542.45 Q1344.36 1539.29 1339.62 1539.29 Q1333.82 1539.29 1330.46 1543.14 Q1327.1 1546.99 1327.1 1553.63 L1327.1 1579.28 L1319.61 1579.28 L1319.61 1552.13 Q1319.61 1545.57 1317.3 1542.45 Q1314.99 1539.29 1310.17 1539.29 Q1304.46 1539.29 1301.09 1543.18 Q1297.73 1547.03 1297.73 1553.63 L1297.73 1579.28 L1290.24 1579.28 L1290.24 1533.91 L1297.73 1533.91 L1297.73 1540.95 Q1300.28 1536.78 1303.85 1534.8 Q1307.41 1532.81 1312.31 1532.81 Q1317.26 1532.81 1320.7 1535.32 Q1324.18 1537.84 1325.84 1542.62 Z" fill="#000000" fill-rule="evenodd" fill-opacity="1" /><path clip-path="url(#clip900)" d="M1410.14 1554.73 L1410.14 1558.37 L1375.87 1558.37 Q1376.36 1566.07 1380.49 1570.12 Q1384.66 1574.13 1392.08 1574.13 Q1396.37 1574.13 1400.38 1573.08 Q1404.43 1572.02 1408.4 1569.92 L1408.4 1576.97 Q1404.39 1578.67 1400.18 1579.56 Q1395.97 1580.45 1391.63 1580.45 Q1380.77 1580.45 1374.41 1574.13 Q1368.09 1567.81 1368.09 1557.04 Q1368.09 1545.9 1374.09 1539.37 Q1380.13 1532.81 1390.33 1532.81 Q1399.49 1532.81 1404.8 1538.73 Q1410.14 1544.6 1410.14 1554.73 M1402.69 1552.54 Q1402.61 1546.42 1399.25 1542.78 Q1395.92 1539.13 1390.42 1539.13 Q1384.18 1539.13 1380.41 1542.66 Q1376.68 1546.18 1376.12 1552.58 L1402.69 1552.54 Z" fill="#000000" fill-rule="evenodd" fill-opacity="1" /><path clip-path="url(#clip900)" d="M1461.99 1518.8 L1468.88 1518.8 L1447.82 1586.97 L1440.93 1586.97 L1461.99 1518.8 Z" fill="#000000" fill-rule="evenodd" fill-opacity="1" /><path clip-path="url(#clip900)" d="M1540.78 1551.89 L1540.78 1579.28 L1533.33 1579.28 L1533.33 1552.13 Q1533.33 1545.69 1530.82 1542.49 Q1528.31 1539.29 1523.29 1539.29 Q1517.25 1539.29 1513.77 1543.14 Q1510.28 1546.99 1510.28 1553.63 L1510.28 1579.28 L1502.79 1579.28 L1502.79 1533.91 L1510.28 1533.91 L1510.28 1540.95 Q1512.96 1536.86 1516.56 1534.84 Q1520.21 1532.81 1524.95 1532.81 Q1532.76 1532.81 1536.77 1537.67 Q1540.78 1542.49 1540.78 1551.89 Z" fill="#000000" fill-rule="evenodd" fill-opacity="1" /><path clip-path="url(#clip900)" d="M1584.58 1535.24 L1584.58 1542.29 Q1581.42 1540.67 1578.01 1539.86 Q1574.61 1539.05 1570.96 1539.05 Q1565.41 1539.05 1562.62 1540.75 Q1559.86 1542.45 1559.86 1545.86 Q1559.86 1548.45 1561.85 1549.95 Q1563.83 1551.41 1569.83 1552.74 L1572.38 1553.31 Q1580.32 1555.01 1583.64 1558.13 Q1587.01 1561.21 1587.01 1566.76 Q1587.01 1573.08 1581.98 1576.76 Q1577 1580.45 1568.25 1580.45 Q1564.6 1580.45 1560.63 1579.72 Q1556.7 1579.03 1552.33 1577.61 L1552.33 1569.92 Q1556.46 1572.07 1560.47 1573.16 Q1564.48 1574.21 1568.41 1574.21 Q1573.68 1574.21 1576.51 1572.43 Q1579.35 1570.61 1579.35 1567.33 Q1579.35 1564.29 1577.28 1562.67 Q1575.26 1561.05 1568.33 1559.55 L1565.74 1558.94 Q1558.81 1557.48 1555.73 1554.48 Q1552.65 1551.45 1552.65 1546.18 Q1552.65 1539.78 1557.19 1536.3 Q1561.73 1532.81 1570.07 1532.81 Q1574.2 1532.81 1577.85 1533.42 Q1581.5 1534.03 1584.58 1535.24 Z" fill="#000000" fill-rule="evenodd" fill-opacity="1" /><polyline clip-path="url(#clip902)" style="stroke:#000000; stroke-linecap:butt; stroke-linejoin:round; stroke-width:2; stroke-opacity:0.1; fill:none" points="
  445.534,1354.85 2352.76,1354.85 
  "/>
<polyline clip-path="url(#clip902)" style="stroke:#000000; stroke-linecap:butt; stroke-linejoin:round; stroke-width:2; stroke-opacity:0.1; fill:none" points="
  445.534,941.136 2352.76,941.136 
  "/>
<polyline clip-path="url(#clip902)" style="stroke:#000000; stroke-linecap:butt; stroke-linejoin:round; stroke-width:2; stroke-opacity:0.1; fill:none" points="
  445.534,527.418 2352.76,527.418 
  "/>
<polyline clip-path="url(#clip902)" style="stroke:#000000; stroke-linecap:butt; stroke-linejoin:round; stroke-width:2; stroke-opacity:0.1; fill:none" points="
  445.534,113.7 2352.76,113.7 
  "/>
<polyline clip-path="url(#clip900)" style="stroke:#000000; stroke-linecap:butt; stroke-linejoin:round; stroke-width:4; stroke-opacity:1; fill:none" points="
  445.534,1392.94 445.534,47.2441 
  "/>
<polyline clip-path="url(#clip900)" style="stroke:#000000; stroke-linecap:butt; stroke-linejoin:round; stroke-width:4; stroke-opacity:1; fill:none" points="
  445.534,1354.85 464.432,1354.85 
  "/>
<polyline clip-path="url(#clip900)" style="stroke:#000000; stroke-linecap:butt; stroke-linejoin:round; stroke-width:4; stroke-opacity:1; fill:none" points="
  445.534,941.136 464.432,941.136 
  "/>
<polyline clip-path="url(#clip900)" style="stroke:#000000; stroke-linecap:butt; stroke-linejoin:round; stroke-width:4; stroke-opacity:1; fill:none" points="
  445.534,527.418 464.432,527.418 
  "/>
<polyline clip-path="url(#clip900)" style="stroke:#000000; stroke-linecap:butt; stroke-linejoin:round; stroke-width:4; stroke-opacity:1; fill:none" points="
  445.534,113.7 464.432,113.7 
  "/>
<path clip-path="url(#clip900)" d="M391.618 1333.55 Q386.201 1333.55 383.458 1338.9 Q380.75 1344.21 380.75 1354.91 Q380.75 1365.57 383.458 1370.91 Q386.201 1376.23 391.618 1376.23 Q397.069 1376.23 399.777 1370.91 Q402.52 1365.57 402.52 1354.91 Q402.52 1344.21 399.777 1338.9 Q397.069 1333.55 391.618 1333.55 M391.618 1328 Q400.333 1328 404.916 1334.91 Q409.534 1341.78 409.534 1354.91 Q409.534 1368 404.916 1374.91 Q400.333 1381.78 391.618 1381.78 Q382.902 1381.78 378.284 1374.91 Q373.701 1368 373.701 1354.91 Q373.701 1341.78 378.284 1334.91 Q382.902 1328 391.618 1328 Z" fill="#000000" fill-rule="evenodd" fill-opacity="1" /><path clip-path="url(#clip900)" d="M130.831 970.825 L142.29 970.825 L142.29 931.276 L129.824 933.776 L129.824 927.388 L142.22 924.888 L149.234 924.888 L149.234 970.825 L160.692 970.825 L160.692 976.728 L130.831 976.728 L130.831 970.825 Z" fill="#000000" fill-rule="evenodd" fill-opacity="1" /><path clip-path="url(#clip900)" d="M174.859 967.908 L182.185 967.908 L182.185 976.728 L174.859 976.728 L174.859 967.908 Z" fill="#000000" fill-rule="evenodd" fill-opacity="1" /><path clip-path="url(#clip900)" d="M212.463 929.506 Q207.046 929.506 204.303 934.853 Q201.595 940.165 201.595 950.86 Q201.595 961.519 204.303 966.867 Q207.046 972.179 212.463 972.179 Q217.914 972.179 220.622 966.867 Q223.365 961.519 223.365 950.86 Q223.365 940.165 220.622 934.853 Q217.914 929.506 212.463 929.506 M212.463 923.95 Q221.178 923.95 225.761 930.86 Q230.379 937.735 230.379 950.86 Q230.379 963.95 225.761 970.86 Q221.178 977.735 212.463 977.735 Q203.748 977.735 199.129 970.86 Q194.546 963.95 194.546 950.86 Q194.546 937.735 199.129 930.86 Q203.748 923.95 212.463 923.95 Z" fill="#000000" fill-rule="evenodd" fill-opacity="1" /><path clip-path="url(#clip900)" d="M284.962 938.533 L269.094 954.471 L284.962 970.339 L280.83 974.54 L264.893 958.603 L248.956 974.54 L244.858 970.339 L260.692 954.471 L244.858 938.533 L248.956 934.332 L264.893 950.269 L280.83 934.332 L284.962 938.533 Z" fill="#000000" fill-rule="evenodd" fill-opacity="1" /><path clip-path="url(#clip900)" d="M303.504 970.825 L314.962 970.825 L314.962 931.276 L302.497 933.776 L302.497 927.388 L314.893 924.888 L321.907 924.888 L321.907 970.825 L333.365 970.825 L333.365 976.728 L303.504 976.728 L303.504 970.825 Z" fill="#000000" fill-rule="evenodd" fill-opacity="1" /><path clip-path="url(#clip900)" d="M362.531 929.506 Q357.115 929.506 354.372 934.853 Q351.663 940.165 351.663 950.86 Q351.663 961.519 354.372 966.867 Q357.115 972.179 362.531 972.179 Q367.983 972.179 370.691 966.867 Q373.434 961.519 373.434 950.86 Q373.434 940.165 370.691 934.853 Q367.983 929.506 362.531 929.506 M362.531 923.95 Q371.247 923.95 375.83 930.86 Q380.448 937.735 380.448 950.86 Q380.448 963.95 375.83 970.86 Q371.247 977.735 362.531 977.735 Q353.816 977.735 349.198 970.86 Q344.615 963.95 344.615 950.86 Q344.615 937.735 349.198 930.86 Q353.816 923.95 362.531 923.95 Z" fill="#000000" fill-rule="evenodd" fill-opacity="1" /><path clip-path="url(#clip900)" d="M395.485 912.281 Q391.648 912.281 389.391 914.905 Q387.162 917.528 387.162 922.099 Q387.162 926.641 389.391 929.293 Q391.648 931.916 395.485 931.916 Q399.322 931.916 401.55 929.293 Q403.807 926.641 403.807 922.099 Q403.807 917.528 401.55 914.905 Q399.322 912.281 395.485 912.281 M406.798 894.423 L406.798 899.614 Q404.654 898.598 402.453 898.062 Q400.281 897.526 398.137 897.526 Q392.494 897.526 389.504 901.335 Q386.542 905.143 386.119 912.845 Q387.783 910.391 390.294 909.093 Q392.805 907.767 395.823 907.767 Q402.171 907.767 405.838 911.632 Q409.534 915.469 409.534 922.099 Q409.534 928.587 405.697 932.509 Q401.861 936.43 395.485 936.43 Q388.178 936.43 384.313 930.844 Q380.448 925.23 380.448 914.594 Q380.448 904.607 385.188 898.683 Q389.927 892.73 397.911 892.73 Q400.055 892.73 402.227 893.153 Q404.428 893.577 406.798 894.423 Z" fill="#000000" fill-rule="evenodd" fill-opacity="1" /><path clip-path="url(#clip900)" d="M135.658 557.107 L160.137 557.107 L160.137 563.01 L127.22 563.01 L127.22 557.107 Q131.213 552.975 138.088 546.031 Q144.998 539.051 146.769 537.038 Q150.137 533.253 151.456 530.649 Q152.81 528.01 152.81 525.475 Q152.81 521.343 149.894 518.739 Q147.012 516.135 142.359 516.135 Q139.06 516.135 135.38 517.281 Q131.734 518.427 127.567 520.753 L127.567 513.67 Q131.803 511.968 135.484 511.1 Q139.165 510.232 142.22 510.232 Q150.276 510.232 155.067 514.26 Q159.859 518.288 159.859 525.024 Q159.859 528.218 158.644 531.1 Q157.463 533.947 154.303 537.836 Q153.435 538.843 148.783 543.669 Q144.13 548.461 135.658 557.107 Z" fill="#000000" fill-rule="evenodd" fill-opacity="1" /><path clip-path="url(#clip900)" d="M174.859 554.19 L182.185 554.19 L182.185 563.01 L174.859 563.01 L174.859 554.19 Z" fill="#000000" fill-rule="evenodd" fill-opacity="1" /><path clip-path="url(#clip900)" d="M212.463 515.788 Q207.046 515.788 204.303 521.135 Q201.595 526.447 201.595 537.142 Q201.595 547.801 204.303 553.149 Q207.046 558.461 212.463 558.461 Q217.914 558.461 220.622 553.149 Q223.365 547.801 223.365 537.142 Q223.365 526.447 220.622 521.135 Q217.914 515.788 212.463 515.788 M212.463 510.232 Q221.178 510.232 225.761 517.142 Q230.379 524.017 230.379 537.142 Q230.379 550.232 225.761 557.142 Q221.178 564.017 212.463 564.017 Q203.748 564.017 199.129 557.142 Q194.546 550.232 194.546 537.142 Q194.546 524.017 199.129 517.142 Q203.748 510.232 212.463 510.232 Z" fill="#000000" fill-rule="evenodd" fill-opacity="1" /><path clip-path="url(#clip900)" d="M284.962 524.815 L269.094 540.753 L284.962 556.621 L280.83 560.822 L264.893 544.885 L248.956 560.822 L244.858 556.621 L260.692 540.753 L244.858 524.815 L248.956 520.614 L264.893 536.551 L280.83 520.614 L284.962 524.815 Z" fill="#000000" fill-rule="evenodd" fill-opacity="1" /><path clip-path="url(#clip900)" d="M303.504 557.107 L314.962 557.107 L314.962 517.559 L302.497 520.058 L302.497 513.67 L314.893 511.17 L321.907 511.17 L321.907 557.107 L333.365 557.107 L333.365 563.01 L303.504 563.01 L303.504 557.107 Z" fill="#000000" fill-rule="evenodd" fill-opacity="1" /><path clip-path="url(#clip900)" d="M362.531 515.788 Q357.115 515.788 354.372 521.135 Q351.663 526.447 351.663 537.142 Q351.663 547.801 354.372 553.149 Q357.115 558.461 362.531 558.461 Q367.983 558.461 370.691 553.149 Q373.434 547.801 373.434 537.142 Q373.434 526.447 370.691 521.135 Q367.983 515.788 362.531 515.788 M362.531 510.232 Q371.247 510.232 375.83 517.142 Q380.448 524.017 380.448 537.142 Q380.448 550.232 375.83 557.142 Q371.247 564.017 362.531 564.017 Q353.816 564.017 349.198 557.142 Q344.615 550.232 344.615 537.142 Q344.615 524.017 349.198 517.142 Q353.816 510.232 362.531 510.232 Z" fill="#000000" fill-rule="evenodd" fill-opacity="1" /><path clip-path="url(#clip900)" d="M395.485 498.563 Q391.648 498.563 389.391 501.187 Q387.162 503.81 387.162 508.381 Q387.162 512.923 389.391 515.575 Q391.648 518.198 395.485 518.198 Q399.322 518.198 401.55 515.575 Q403.807 512.923 403.807 508.381 Q403.807 503.81 401.55 501.187 Q399.322 498.563 395.485 498.563 M406.798 480.705 L406.798 485.896 Q404.654 484.88 402.453 484.344 Q400.281 483.808 398.137 483.808 Q392.494 483.808 389.504 487.617 Q386.542 491.425 386.119 499.127 Q387.783 496.673 390.294 495.375 Q392.805 494.049 395.823 494.049 Q402.171 494.049 405.838 497.914 Q409.534 501.751 409.534 508.381 Q409.534 514.869 405.697 518.791 Q401.861 522.712 395.485 522.712 Q388.178 522.712 384.313 517.126 Q380.448 511.512 380.448 500.876 Q380.448 490.889 385.188 484.965 Q389.927 479.012 397.911 479.012 Q400.055 479.012 402.227 479.436 Q404.428 479.859 406.798 480.705 Z" fill="#000000" fill-rule="evenodd" fill-opacity="1" /><path clip-path="url(#clip900)" d="M150.866 121.34 Q155.901 122.417 158.713 125.82 Q161.56 129.222 161.56 134.222 Q161.56 141.896 156.283 146.097 Q151.005 150.299 141.283 150.299 Q138.019 150.299 134.547 149.639 Q131.109 149.014 127.428 147.729 L127.428 140.958 Q130.345 142.66 133.817 143.528 Q137.29 144.396 141.074 144.396 Q147.671 144.396 151.109 141.792 Q154.581 139.188 154.581 134.222 Q154.581 129.639 151.352 127.07 Q148.158 124.465 142.428 124.465 L136.387 124.465 L136.387 118.702 L142.706 118.702 Q147.88 118.702 150.623 116.653 Q153.366 114.57 153.366 110.681 Q153.366 106.688 150.519 104.57 Q147.706 102.417 142.428 102.417 Q139.546 102.417 136.248 103.042 Q132.949 103.667 128.991 104.986 L128.991 98.7364 Q132.984 97.6253 136.456 97.0698 Q139.963 96.5142 143.053 96.5142 Q151.039 96.5142 155.692 100.16 Q160.345 103.771 160.345 109.952 Q160.345 114.257 157.88 117.243 Q155.414 120.195 150.866 121.34 Z" fill="#000000" fill-rule="evenodd" fill-opacity="1" /><path clip-path="url(#clip900)" d="M174.859 140.472 L182.185 140.472 L182.185 149.292 L174.859 149.292 L174.859 140.472 Z" fill="#000000" fill-rule="evenodd" fill-opacity="1" /><path clip-path="url(#clip900)" d="M212.463 102.07 Q207.046 102.07 204.303 107.417 Q201.595 112.729 201.595 123.424 Q201.595 134.083 204.303 139.431 Q207.046 144.743 212.463 144.743 Q217.914 144.743 220.622 139.431 Q223.365 134.083 223.365 123.424 Q223.365 112.729 220.622 107.417 Q217.914 102.07 212.463 102.07 M212.463 96.5142 Q221.178 96.5142 225.761 103.424 Q230.379 110.299 230.379 123.424 Q230.379 136.514 225.761 143.424 Q221.178 150.299 212.463 150.299 Q203.748 150.299 199.129 143.424 Q194.546 136.514 194.546 123.424 Q194.546 110.299 199.129 103.424 Q203.748 96.5142 212.463 96.5142 Z" fill="#000000" fill-rule="evenodd" fill-opacity="1" /><path clip-path="url(#clip900)" d="M284.962 111.097 L269.094 127.035 L284.962 142.903 L280.83 147.104 L264.893 131.167 L248.956 147.104 L244.858 142.903 L260.692 127.035 L244.858 111.097 L248.956 106.896 L264.893 122.834 L280.83 106.896 L284.962 111.097 Z" fill="#000000" fill-rule="evenodd" fill-opacity="1" /><path clip-path="url(#clip900)" d="M303.504 143.389 L314.962 143.389 L314.962 103.841 L302.497 106.341 L302.497 99.9517 L314.893 97.4517 L321.907 97.4517 L321.907 143.389 L333.365 143.389 L333.365 149.292 L303.504 149.292 L303.504 143.389 Z" fill="#000000" fill-rule="evenodd" fill-opacity="1" /><path clip-path="url(#clip900)" d="M362.531 102.07 Q357.115 102.07 354.372 107.417 Q351.663 112.729 351.663 123.424 Q351.663 134.083 354.372 139.431 Q357.115 144.743 362.531 144.743 Q367.983 144.743 370.691 139.431 Q373.434 134.083 373.434 123.424 Q373.434 112.729 370.691 107.417 Q367.983 102.07 362.531 102.07 M362.531 96.5142 Q371.247 96.5142 375.83 103.424 Q380.448 110.299 380.448 123.424 Q380.448 136.514 375.83 143.424 Q371.247 150.299 362.531 150.299 Q353.816 150.299 349.198 143.424 Q344.615 136.514 344.615 123.424 Q344.615 110.299 349.198 103.424 Q353.816 96.5142 362.531 96.5142 Z" fill="#000000" fill-rule="evenodd" fill-opacity="1" /><path clip-path="url(#clip900)" d="M395.485 84.8451 Q391.648 84.8451 389.391 87.4688 Q387.162 90.0925 387.162 94.6627 Q387.162 99.2048 389.391 101.857 Q391.648 104.48 395.485 104.48 Q399.322 104.48 401.55 101.857 Q403.807 99.2048 403.807 94.6627 Q403.807 90.0925 401.55 87.4688 Q399.322 84.8451 395.485 84.8451 M406.798 66.9871 L406.798 72.1781 Q404.654 71.1624 402.453 70.6264 Q400.281 70.0904 398.137 70.0904 Q392.494 70.0904 389.504 73.899 Q386.542 77.7075 386.119 85.4093 Q387.783 82.9549 390.294 81.6572 Q392.805 80.3312 395.823 80.3312 Q402.171 80.3312 405.838 84.1962 Q409.534 88.033 409.534 94.6627 Q409.534 101.151 405.697 105.073 Q401.861 108.994 395.485 108.994 Q388.178 108.994 384.313 103.408 Q380.448 97.7942 380.448 87.1584 Q380.448 77.1715 385.188 71.2471 Q389.927 65.2944 397.911 65.2944 Q400.055 65.2944 402.227 65.7176 Q404.428 66.1408 406.798 66.9871 Z" fill="#000000" fill-rule="evenodd" fill-opacity="1" /><path clip-path="url(#clip900)" d="M12.5962 955.146 L12.5962 916.905 L19.4827 916.905 L19.4827 946.963 L37.3877 946.963 L37.3877 918.161 L44.2742 918.161 L44.2742 946.963 L66.1896 946.963 L66.1896 916.176 L73.0762 916.176 L73.0762 955.146 L12.5962 955.146 Z" fill="#000000" fill-rule="evenodd" fill-opacity="1" /><path clip-path="url(#clip900)" d="M45.692 865.337 L73.0762 865.337 L73.0762 872.791 L45.9351 872.791 Q39.4942 872.791 36.2939 875.302 Q33.0937 877.814 33.0937 882.837 Q33.0937 888.873 36.9421 892.357 Q40.7905 895.84 47.4339 895.84 L73.0762 895.84 L73.0762 903.335 L27.706 903.335 L27.706 895.84 L34.7546 895.84 Q30.6632 893.167 28.6377 889.562 Q26.6123 885.916 26.6123 881.176 Q26.6123 873.358 31.4734 869.348 Q36.2939 865.337 45.692 865.337 Z" fill="#000000" fill-rule="evenodd" fill-opacity="1" /><path clip-path="url(#clip900)" d="M48.5277 811.663 L52.1735 811.663 L52.1735 845.933 Q59.8702 845.447 63.9211 841.315 Q67.9315 837.143 67.9315 829.73 Q67.9315 825.436 66.8783 821.425 Q65.825 817.374 63.7186 813.405 L70.7671 813.405 Q72.4685 817.415 73.3597 821.628 Q74.2509 825.841 74.2509 830.175 Q74.2509 841.032 67.9315 847.392 Q61.6121 853.711 50.8367 853.711 Q39.6967 853.711 33.1748 847.716 Q26.6123 841.68 26.6123 831.472 Q26.6123 822.317 32.5266 817.01 Q38.4004 811.663 48.5277 811.663 M46.3402 819.116 Q40.2233 819.197 36.5775 822.56 Q32.9317 825.881 32.9317 831.391 Q32.9317 837.629 36.456 841.396 Q39.9803 845.123 46.3807 845.69 L46.3402 819.116 Z" fill="#000000" fill-rule="evenodd" fill-opacity="1" /><path clip-path="url(#clip900)" d="M34.6736 773.139 Q33.9444 774.394 33.6204 775.893 Q33.2558 777.351 33.2558 779.134 Q33.2558 785.453 37.3877 788.856 Q41.4791 792.218 49.1758 792.218 L73.0762 792.218 L73.0762 799.712 L27.706 799.712 L27.706 792.218 L34.7546 792.218 Q30.6227 789.869 28.6377 786.101 Q26.6123 782.334 26.6123 776.946 Q26.6123 776.177 26.7338 775.245 Q26.8148 774.313 27.0174 773.179 L34.6736 773.139 Z" fill="#000000" fill-rule="evenodd" fill-opacity="1" /><path clip-path="url(#clip900)" d="M49.8645 736.923 Q41.7627 736.923 37.3067 740.286 Q32.8507 743.607 32.8507 749.643 Q32.8507 755.639 37.3067 759.001 Q41.7627 762.323 49.8645 762.323 Q57.9258 762.323 62.3818 759.001 Q66.8378 755.639 66.8378 749.643 Q66.8378 743.607 62.3818 740.286 Q57.9258 736.923 49.8645 736.923 M67.4454 729.47 Q79.031 729.47 84.6617 734.614 Q90.333 739.759 90.333 750.372 Q90.333 754.302 89.7254 757.786 Q89.1582 761.269 87.943 764.551 L80.6919 764.551 Q82.4743 761.269 83.3249 758.069 Q84.1756 754.869 84.1756 751.547 Q84.1756 744.215 80.3273 740.569 Q76.5194 736.923 68.7822 736.923 L65.0959 736.923 Q69.1063 739.232 71.0912 742.838 Q73.0762 746.443 73.0762 751.466 Q73.0762 759.811 66.7162 764.915 Q60.3563 770.019 49.8645 770.019 Q39.3321 770.019 32.9722 764.915 Q26.6123 759.811 26.6123 751.466 Q26.6123 746.443 28.5972 742.838 Q30.5822 739.232 34.5926 736.923 L27.706 736.923 L27.706 729.47 L67.4454 729.47 Z" fill="#000000" fill-rule="evenodd" fill-opacity="1" /><path clip-path="url(#clip900)" d="M77.2891 695.24 Q85.3909 698.399 87.862 701.397 Q90.333 704.395 90.333 709.418 L90.333 715.373 L84.0946 715.373 L84.0946 710.998 Q84.0946 707.919 82.6363 706.218 Q81.178 704.516 75.7498 702.45 L72.347 701.113 L27.706 719.464 L27.706 711.565 L63.192 697.387 L27.706 683.208 L27.706 675.309 L77.2891 695.24 Z" fill="#000000" fill-rule="evenodd" fill-opacity="1" /><path clip-path="url(#clip900)" d="M12.5962 625.402 L12.5962 618.516 L80.7729 639.58 L80.7729 646.467 L12.5962 625.402 Z" fill="#000000" fill-rule="evenodd" fill-opacity="1" /><path clip-path="url(#clip900)" d="M48.5277 545.518 L52.1735 545.518 L52.1735 579.789 Q59.8702 579.303 63.9211 575.171 Q67.9315 570.998 67.9315 563.585 Q67.9315 559.291 66.8783 555.281 Q65.825 551.23 63.7186 547.26 L70.7671 547.26 Q72.4685 551.271 73.3597 555.483 Q74.2509 559.696 74.2509 564.031 Q74.2509 574.887 67.9315 581.247 Q61.6121 587.567 50.8367 587.567 Q39.6967 587.567 33.1748 581.571 Q26.6123 575.535 26.6123 565.327 Q26.6123 556.172 32.5266 550.865 Q38.4004 545.518 48.5277 545.518 M46.3402 552.972 Q40.2233 553.053 36.5775 556.415 Q32.9317 559.737 32.9317 565.246 Q32.9317 571.485 36.456 575.252 Q39.9803 578.979 46.3807 579.546 L46.3402 552.972 Z" fill="#000000" fill-rule="evenodd" fill-opacity="1" /><path clip-path="url(#clip900)" d="M73.0762 517.364 L12.5962 540.455 L12.5962 531.907 L63.516 512.746 L12.5962 493.545 L12.5962 485.038 L73.0762 508.088 L73.0762 517.364 Z" fill="#000000" fill-rule="evenodd" fill-opacity="1" /><polyline clip-path="url(#clip902)" style="stroke:#009af9; stroke-linecap:butt; stroke-linejoin:round; stroke-width:6; stroke-opacity:1; fill:none" points="
  445.534,1354.85 454.203,1353.3 462.873,1351.77 471.542,1350.21 480.211,1348.64 488.88,1347.13 497.549,1345.6 506.219,1344.06 514.888,1342.5 523.557,1340.98 
  532.226,1339.49 540.895,1338.03 549.564,1336.56 558.234,1335.06 566.903,1333.63 575.572,1332.25 584.241,1330.85 592.91,1329.43 601.58,1327.97 610.249,1326.47 
  618.918,1325 627.587,1323.61 636.256,1322.29 644.926,1321.02 653.595,1319.72 662.264,1318.4 670.933,1317.1 679.602,1315.78 688.271,1314.42 696.941,1313.02 
  705.61,1311.94 714.279,1310.83 722.948,1309.67 731.617,1308.48 740.287,1307.25 748.956,1305.98 757.625,1304.67 766.294,1303.3 774.963,1301.85 783.633,1300.35 
  792.302,1298.8 800.971,1297.18 809.64,1295.5 818.309,1293.76 826.979,1291.95 835.648,1290.06 844.317,1288.1 852.986,1286.08 861.655,1283.96 870.324,1281.75 
  878.994,1279.46 887.663,1277.08 896.332,1274.58 905.001,1271.99 913.67,1269.27 922.34,1266.43 931.009,1263.48 939.678,1260.34 948.347,1257.1 957.016,1253.69 
  965.686,1250.09 974.355,1246.33 983.024,1242.3 991.693,1238.12 1000.36,1233.63 1009.03,1228.86 1017.7,1223.76 1026.37,1218.29 1035.04,1212.39 1043.71,1205.98 
  1052.38,1199.02 1061.05,1191.4 1069.72,1183.02 1078.39,1173.7 1087.05,1163.31 1095.72,1151.6 1104.39,1138.36 1113.06,1123.25 1121.73,1105.88 1130.4,1085.76 
  1139.07,1062.34 1147.74,1034.88 1156.41,1002.67 1165.08,964.697 1173.75,919.919 1182.42,867.624 1191.08,807.874 1199.75,742.362 1208.42,706.972 1217.09,705.613 
  1225.76,704.185 1234.43,702.707 1243.1,701.158 1251.77,699.523 1260.44,697.831 1269.11,696.044 1277.78,694.172 1286.45,692.235 1295.11,690.152 1303.78,687.995 
  1312.45,685.709 1321.12,683.281 1329.79,680.743 1338.46,678.024 1347.13,675.111 1355.8,672.007 1364.47,668.675 1373.14,665.087 1381.81,661.167 1390.48,656.893 
  1399.15,652.203 1407.81,647.034 1416.48,641.275 1425.15,634.845 1433.82,627.565 1442.49,619.337 1451.16,609.909 1459.83,599.065 1468.5,586.506 1477.17,571.849 
  1485.84,554.639 1494.51,534.367 1503.18,510.413 1511.84,482.068 1520.51,448.689 1529.18,410.048 1537.85,366.812 1546.52,327.239 1555.19,326.991 1563.86,326.739 
  1572.53,326.481 1581.2,326.219 1589.87,325.949 1598.54,325.672 1607.21,325.381 1615.87,325.08 1624.54,324.771 1633.21,324.454 1641.88,324.129 1650.55,323.794 
  1659.22,323.441 1667.89,323.073 1676.56,322.693 1685.23,322.3 1693.9,321.896 1702.57,321.48 1711.24,321.047 1719.91,320.592 1728.57,320.119 1737.24,319.628 
  1745.91,319.116 1754.58,318.578 1763.25,318.021 1771.92,317.443 1780.59,316.838 1789.26,316.205 1797.93,315.548 1806.6,314.869 1815.27,314.148 1823.94,313.399 
  1832.6,312.622 1841.27,311.809 1849.94,310.953 1858.61,310.065 1867.28,309.127 1875.95,308.148 1884.62,307.131 1893.29,306.041 1901.96,304.912 1910.63,303.72 
  1919.3,302.456 1927.97,301.142 1936.63,299.719 1945.3,298.238 1953.97,296.649 1962.64,294.952 1971.31,293.139 1979.98,291.186 1988.65,289.066 1997.32,286.769 
  2005.99,284.258 2014.66,281.486 2023.33,278.419 2032,275.017 2040.67,271.195 2049.33,266.872 2058,261.975 2066.67,256.358 2075.34,249.879 2084.01,242.367 
  2092.68,233.59 2101.35,223.249 2110.02,211.088 2118.69,196.693 2127.36,179.648 2136.03,159.563 2144.7,136.298 2153.36,110.251 2162.03,85.331 2170.7,85.3298 
  2179.37,85.3298 2188.04,85.3298 
  "/>
</svg>
