<?xml version="1.0" encoding="utf-8"?>
<svg xmlns="http://www.w3.org/2000/svg" xmlns:xlink="http://www.w3.org/1999/xlink" width="600" height="400" viewBox="0 0 2400 1600">
<defs>
  <clipPath id="clip440">
    <rect x="0" y="0" width="2400" height="1600"/>
  </clipPath>
</defs>
<path clip-path="url(#clip440)" d="M0 1600 L2400 1600 L2400 0 L0 0  Z" fill="#ffffff" fill-rule="evenodd" fill-opacity="1"/>
<defs>
  <clipPath id="clip441">
    <rect x="480" y="0" width="1681" height="1600"/>
  </clipPath>
</defs>
<path clip-path="url(#clip440)" d="M222.69 1423.18 L2352.76 1423.18 L2352.76 123.472 L222.69 123.472  Z" fill="#ffffff" fill-rule="evenodd" fill-opacity="1"/>
<defs>
  <clipPath id="clip442">
    <rect x="222" y="123" width="2131" height="1301"/>
  </clipPath>
</defs>
<polyline clip-path="url(#clip442)" style="stroke:#000000; stroke-linecap:round; stroke-linejoin:round; stroke-width:2; stroke-opacity:0.1; fill:none" points="222.69,1423.18 222.69,123.472 "/>
<polyline clip-path="url(#clip442)" style="stroke:#000000; stroke-linecap:round; stroke-linejoin:round; stroke-width:2; stroke-opacity:0.1; fill:none" points="932.712,1423.18 932.712,123.472 "/>
<polyline clip-path="url(#clip442)" style="stroke:#000000; stroke-linecap:round; stroke-linejoin:round; stroke-width:2; stroke-opacity:0.1; fill:none" points="1642.73,1423.18 1642.73,123.472 "/>
<polyline clip-path="url(#clip442)" style="stroke:#000000; stroke-linecap:round; stroke-linejoin:round; stroke-width:2; stroke-opacity:0.1; fill:none" points="2352.76,1423.18 2352.76,123.472 "/>
<polyline clip-path="url(#clip442)" style="stroke:#000000; stroke-linecap:round; stroke-linejoin:round; stroke-width:2; stroke-opacity:0.1; fill:none" points="222.69,1083.34 2352.76,1083.34 "/>
<polyline clip-path="url(#clip442)" style="stroke:#000000; stroke-linecap:round; stroke-linejoin:round; stroke-width:2; stroke-opacity:0.1; fill:none" points="222.69,477.226 2352.76,477.226 "/>
<polyline clip-path="url(#clip440)" style="stroke:#000000; stroke-linecap:round; stroke-linejoin:round; stroke-width:4; stroke-opacity:1; fill:none" points="222.69,1423.18 2352.76,1423.18 "/>
<polyline clip-path="url(#clip440)" style="stroke:#000000; stroke-linecap:round; stroke-linejoin:round; stroke-width:4; stroke-opacity:1; fill:none" points="222.69,1423.18 222.69,1404.28 "/>
<polyline clip-path="url(#clip440)" style="stroke:#000000; stroke-linecap:round; stroke-linejoin:round; stroke-width:4; stroke-opacity:1; fill:none" points="932.712,1423.18 932.712,1404.28 "/>
<polyline clip-path="url(#clip440)" style="stroke:#000000; stroke-linecap:round; stroke-linejoin:round; stroke-width:4; stroke-opacity:1; fill:none" points="1642.73,1423.18 1642.73,1404.28 "/>
<polyline clip-path="url(#clip440)" style="stroke:#000000; stroke-linecap:round; stroke-linejoin:round; stroke-width:4; stroke-opacity:1; fill:none" points="2352.76,1423.18 2352.76,1404.28 "/>
<path clip-path="url(#clip440)" d="M222.69 1454.1 Q219.079 1454.1 217.251 1457.66 Q215.445 1461.2 215.445 1468.33 Q215.445 1475.44 217.251 1479.01 Q219.079 1482.55 222.69 1482.55 Q226.325 1482.55 228.13 1479.01 Q229.959 1475.44 229.959 1468.33 Q229.959 1461.2 228.13 1457.66 Q226.325 1454.1 222.69 1454.1 M222.69 1450.39 Q228.5 1450.39 231.556 1455 Q234.635 1459.58 234.635 1468.33 Q234.635 1477.06 231.556 1481.67 Q228.5 1486.25 222.69 1486.25 Q216.88 1486.25 213.801 1481.67 Q210.746 1477.06 210.746 1468.33 Q210.746 1459.58 213.801 1455 Q216.88 1450.39 222.69 1450.39 Z" fill="#000000" fill-rule="nonzero" fill-opacity="1" /><path clip-path="url(#clip440)" d="M877.238 1481.64 L884.877 1481.64 L884.877 1455.28 L876.567 1456.95 L876.567 1452.69 L884.83 1451.02 L889.506 1451.02 L889.506 1481.64 L897.145 1481.64 L897.145 1485.58 L877.238 1485.58 L877.238 1481.64 Z" fill="#000000" fill-rule="nonzero" fill-opacity="1" /><path clip-path="url(#clip440)" d="M916.59 1454.1 Q912.978 1454.1 911.15 1457.66 Q909.344 1461.2 909.344 1468.33 Q909.344 1475.44 911.15 1479.01 Q912.978 1482.55 916.59 1482.55 Q920.224 1482.55 922.029 1479.01 Q923.858 1475.44 923.858 1468.33 Q923.858 1461.2 922.029 1457.66 Q920.224 1454.1 916.59 1454.1 M916.59 1450.39 Q922.4 1450.39 925.455 1455 Q928.534 1459.58 928.534 1468.33 Q928.534 1477.06 925.455 1481.67 Q922.4 1486.25 916.59 1486.25 Q910.779 1486.25 907.701 1481.67 Q904.645 1477.06 904.645 1468.33 Q904.645 1459.58 907.701 1455 Q910.779 1450.39 916.59 1450.39 Z" fill="#000000" fill-rule="nonzero" fill-opacity="1" /><path clip-path="url(#clip440)" d="M946.751 1454.1 Q943.14 1454.1 941.312 1457.66 Q939.506 1461.2 939.506 1468.33 Q939.506 1475.44 941.312 1479.01 Q943.14 1482.55 946.751 1482.55 Q950.386 1482.55 952.191 1479.01 Q954.02 1475.44 954.02 1468.33 Q954.02 1461.2 952.191 1457.66 Q950.386 1454.1 946.751 1454.1 M946.751 1450.39 Q952.562 1450.39 955.617 1455 Q958.696 1459.58 958.696 1468.33 Q958.696 1477.06 955.617 1481.67 Q952.562 1486.25 946.751 1486.25 Q940.941 1486.25 937.863 1481.67 Q934.807 1477.06 934.807 1468.33 Q934.807 1459.58 937.863 1455 Q940.941 1450.39 946.751 1450.39 Z" fill="#000000" fill-rule="nonzero" fill-opacity="1" /><path clip-path="url(#clip440)" d="M976.913 1454.1 Q973.302 1454.1 971.474 1457.66 Q969.668 1461.2 969.668 1468.33 Q969.668 1475.44 971.474 1479.01 Q973.302 1482.55 976.913 1482.55 Q980.548 1482.55 982.353 1479.01 Q984.182 1475.44 984.182 1468.33 Q984.182 1461.2 982.353 1457.66 Q980.548 1454.1 976.913 1454.1 M976.913 1450.39 Q982.723 1450.39 985.779 1455 Q988.858 1459.58 988.858 1468.33 Q988.858 1477.06 985.779 1481.67 Q982.723 1486.25 976.913 1486.25 Q971.103 1486.25 968.024 1481.67 Q964.969 1477.06 964.969 1468.33 Q964.969 1459.58 968.024 1455 Q971.103 1450.39 976.913 1450.39 Z" fill="#000000" fill-rule="nonzero" fill-opacity="1" /><path clip-path="url(#clip440)" d="M1591.35 1481.64 L1607.66 1481.64 L1607.66 1485.58 L1585.72 1485.58 L1585.72 1481.64 Q1588.38 1478.89 1592.97 1474.26 Q1597.57 1469.61 1598.75 1468.27 Q1601 1465.74 1601.88 1464.01 Q1602.78 1462.25 1602.78 1460.56 Q1602.78 1457.8 1600.84 1456.07 Q1598.91 1454.33 1595.81 1454.33 Q1593.61 1454.33 1591.16 1455.09 Q1588.73 1455.86 1585.95 1457.41 L1585.95 1452.69 Q1588.78 1451.55 1591.23 1450.97 Q1593.68 1450.39 1595.72 1450.39 Q1601.09 1450.39 1604.29 1453.08 Q1607.48 1455.77 1607.48 1460.26 Q1607.48 1462.39 1606.67 1464.31 Q1605.88 1466.2 1603.78 1468.8 Q1603.2 1469.47 1600.1 1472.69 Q1596.99 1475.88 1591.35 1481.64 Z" fill="#000000" fill-rule="nonzero" fill-opacity="1" /><path clip-path="url(#clip440)" d="M1627.48 1454.1 Q1623.87 1454.1 1622.04 1457.66 Q1620.23 1461.2 1620.23 1468.33 Q1620.23 1475.44 1622.04 1479.01 Q1623.87 1482.55 1627.48 1482.55 Q1631.11 1482.55 1632.92 1479.01 Q1634.75 1475.44 1634.75 1468.33 Q1634.75 1461.2 1632.92 1457.66 Q1631.11 1454.1 1627.48 1454.1 M1627.48 1450.39 Q1633.29 1450.39 1636.35 1455 Q1639.42 1459.58 1639.42 1468.33 Q1639.42 1477.06 1636.35 1481.67 Q1633.29 1486.25 1627.48 1486.25 Q1621.67 1486.25 1618.59 1481.67 Q1615.54 1477.06 1615.54 1468.33 Q1615.54 1459.58 1618.59 1455 Q1621.67 1450.39 1627.48 1450.39 Z" fill="#000000" fill-rule="nonzero" fill-opacity="1" /><path clip-path="url(#clip440)" d="M1657.64 1454.1 Q1654.03 1454.1 1652.2 1457.66 Q1650.4 1461.2 1650.4 1468.33 Q1650.4 1475.44 1652.2 1479.01 Q1654.03 1482.55 1657.64 1482.55 Q1661.28 1482.55 1663.08 1479.01 Q1664.91 1475.44 1664.91 1468.33 Q1664.91 1461.2 1663.08 1457.66 Q1661.28 1454.1 1657.64 1454.1 M1657.64 1450.39 Q1663.45 1450.39 1666.51 1455 Q1669.59 1459.58 1669.59 1468.33 Q1669.59 1477.06 1666.51 1481.67 Q1663.45 1486.25 1657.64 1486.25 Q1651.83 1486.25 1648.75 1481.67 Q1645.7 1477.06 1645.7 1468.33 Q1645.7 1459.58 1648.75 1455 Q1651.83 1450.39 1657.64 1450.39 Z" fill="#000000" fill-rule="nonzero" fill-opacity="1" /><path clip-path="url(#clip440)" d="M1687.8 1454.1 Q1684.19 1454.1 1682.36 1457.66 Q1680.56 1461.2 1680.56 1468.33 Q1680.56 1475.44 1682.36 1479.01 Q1684.19 1482.55 1687.8 1482.55 Q1691.44 1482.55 1693.24 1479.01 Q1695.07 1475.44 1695.07 1468.33 Q1695.07 1461.2 1693.24 1457.66 Q1691.44 1454.1 1687.8 1454.1 M1687.8 1450.39 Q1693.61 1450.39 1696.67 1455 Q1699.75 1459.58 1699.75 1468.33 Q1699.75 1477.06 1696.67 1481.67 Q1693.61 1486.25 1687.8 1486.25 Q1681.99 1486.25 1678.91 1481.67 Q1675.86 1477.06 1675.86 1468.33 Q1675.86 1459.58 1678.91 1455 Q1681.99 1450.39 1687.8 1450.39 Z" fill="#000000" fill-rule="nonzero" fill-opacity="1" /><path clip-path="url(#clip440)" d="M2311.44 1466.95 Q2314.79 1467.66 2316.67 1469.93 Q2318.57 1472.2 2318.57 1475.53 Q2318.57 1480.65 2315.05 1483.45 Q2311.53 1486.25 2305.05 1486.25 Q2302.87 1486.25 2300.56 1485.81 Q2298.27 1485.39 2295.81 1484.54 L2295.81 1480.02 Q2297.76 1481.16 2300.07 1481.74 Q2302.39 1482.32 2304.91 1482.32 Q2309.31 1482.32 2311.6 1480.58 Q2313.91 1478.84 2313.91 1475.53 Q2313.91 1472.48 2311.76 1470.77 Q2309.63 1469.03 2305.81 1469.03 L2301.78 1469.03 L2301.78 1465.19 L2306 1465.19 Q2309.45 1465.19 2311.27 1463.82 Q2313.1 1462.43 2313.1 1459.84 Q2313.1 1457.18 2311.21 1455.77 Q2309.33 1454.33 2305.81 1454.33 Q2303.89 1454.33 2301.69 1454.75 Q2299.49 1455.16 2296.85 1456.04 L2296.85 1451.88 Q2299.52 1451.14 2301.83 1450.77 Q2304.17 1450.39 2306.23 1450.39 Q2311.55 1450.39 2314.65 1452.83 Q2317.76 1455.23 2317.76 1459.35 Q2317.76 1462.22 2316.11 1464.21 Q2314.47 1466.18 2311.44 1466.95 Z" fill="#000000" fill-rule="nonzero" fill-opacity="1" /><path clip-path="url(#clip440)" d="M2337.43 1454.1 Q2333.82 1454.1 2331.99 1457.66 Q2330.19 1461.2 2330.19 1468.33 Q2330.19 1475.44 2331.99 1479.01 Q2333.82 1482.55 2337.43 1482.55 Q2341.07 1482.55 2342.87 1479.01 Q2344.7 1475.44 2344.7 1468.33 Q2344.7 1461.2 2342.87 1457.66 Q2341.07 1454.1 2337.43 1454.1 M2337.43 1450.39 Q2343.24 1450.39 2346.3 1455 Q2349.38 1459.58 2349.38 1468.33 Q2349.38 1477.06 2346.3 1481.67 Q2343.24 1486.25 2337.43 1486.25 Q2331.62 1486.25 2328.54 1481.67 Q2325.49 1477.06 2325.49 1468.33 Q2325.49 1459.58 2328.54 1455 Q2331.62 1450.39 2337.43 1450.39 Z" fill="#000000" fill-rule="nonzero" fill-opacity="1" /><path clip-path="url(#clip440)" d="M2367.59 1454.1 Q2363.98 1454.1 2362.15 1457.66 Q2360.35 1461.2 2360.35 1468.33 Q2360.35 1475.44 2362.15 1479.01 Q2363.98 1482.55 2367.59 1482.55 Q2371.23 1482.55 2373.03 1479.01 Q2374.86 1475.44 2374.86 1468.33 Q2374.86 1461.2 2373.03 1457.66 Q2371.23 1454.1 2367.59 1454.1 M2367.59 1450.39 Q2373.4 1450.39 2376.46 1455 Q2379.54 1459.58 2379.54 1468.33 Q2379.54 1477.06 2376.46 1481.67 Q2373.4 1486.25 2367.59 1486.25 Q2361.78 1486.25 2358.7 1481.67 Q2355.65 1477.06 2355.65 1468.33 Q2355.65 1459.58 2358.7 1455 Q2361.78 1450.39 2367.59 1450.39 Z" fill="#000000" fill-rule="nonzero" fill-opacity="1" /><path clip-path="url(#clip440)" d="M2397.76 1454.1 Q2394.14 1454.1 2392.32 1457.66 Q2390.51 1461.2 2390.51 1468.33 Q2390.51 1475.44 2392.32 1479.01 Q2394.14 1482.55 2397.76 1482.55 Q2401.39 1482.55 2403.2 1479.01 Q2405.02 1475.44 2405.02 1468.33 Q2405.02 1461.2 2403.2 1457.66 Q2401.39 1454.1 2397.76 1454.1 M2397.76 1450.39 Q2403.57 1450.39 2406.62 1455 Q2409.7 1459.58 2409.7 1468.33 Q2409.7 1477.06 2406.62 1481.67 Q2403.57 1486.25 2397.76 1486.25 Q2391.95 1486.25 2388.87 1481.67 Q2385.81 1477.06 2385.81 1468.33 Q2385.81 1459.58 2388.87 1455 Q2391.95 1450.39 2397.76 1450.39 Z" fill="#000000" fill-rule="nonzero" fill-opacity="1" /><path clip-path="url(#clip440)" d="M1160.11 1520.52 L1190.15 1520.52 L1190.15 1525.93 L1166.54 1525.93 L1166.54 1540 L1189.17 1540 L1189.17 1545.41 L1166.54 1545.41 L1166.54 1562.63 L1190.73 1562.63 L1190.73 1568.04 L1160.11 1568.04 L1160.11 1520.52 Z" fill="#000000" fill-rule="nonzero" fill-opacity="1" /><path clip-path="url(#clip440)" d="M1221.76 1532.4 L1227.61 1532.4 L1227.61 1568.04 L1221.76 1568.04 L1221.76 1532.4 M1221.76 1518.52 L1227.61 1518.52 L1227.61 1525.93 L1221.76 1525.93 L1221.76 1518.52 Z" fill="#000000" fill-rule="nonzero" fill-opacity="1" /><path clip-path="url(#clip440)" d="M1269.5 1546.53 L1269.5 1568.04 L1263.64 1568.04 L1263.64 1546.72 Q1263.64 1541.66 1261.67 1539.14 Q1259.7 1536.63 1255.75 1536.63 Q1251.01 1536.63 1248.27 1539.65 Q1245.53 1542.68 1245.53 1547.9 L1245.53 1568.04 L1239.65 1568.04 L1239.65 1532.4 L1245.53 1532.4 L1245.53 1537.93 Q1247.64 1534.72 1250.47 1533.13 Q1253.33 1531.54 1257.06 1531.54 Q1263.2 1531.54 1266.35 1535.36 Q1269.5 1539.14 1269.5 1546.53 Z" fill="#000000" fill-rule="nonzero" fill-opacity="1" /><path clip-path="url(#clip440)" d="M1301.68 1518.52 L1307.57 1518.52 L1307.57 1547.77 L1325.04 1532.4 L1332.52 1532.4 L1313.62 1549.07 L1333.32 1568.04 L1325.68 1568.04 L1307.57 1550.63 L1307.57 1568.04 L1301.68 1568.04 L1301.68 1518.52 Z" fill="#000000" fill-rule="nonzero" fill-opacity="1" /><path clip-path="url(#clip440)" d="M1367.82 1548.76 L1367.82 1551.62 L1340.89 1551.62 Q1341.27 1557.67 1344.52 1560.85 Q1347.8 1564 1353.62 1564 Q1357 1564 1360.15 1563.17 Q1363.33 1562.35 1366.45 1560.69 L1366.45 1566.23 Q1363.3 1567.57 1359.99 1568.27 Q1356.68 1568.97 1353.27 1568.97 Q1344.74 1568.97 1339.75 1564 Q1334.78 1559.04 1334.78 1550.57 Q1334.78 1541.82 1339.49 1536.69 Q1344.23 1531.54 1352.26 1531.54 Q1359.45 1531.54 1363.62 1536.18 Q1367.82 1540.8 1367.82 1548.76 M1361.96 1547.04 Q1361.9 1542.23 1359.26 1539.37 Q1356.65 1536.5 1352.32 1536.5 Q1347.42 1536.5 1344.46 1539.27 Q1341.53 1542.04 1341.08 1547.07 L1361.96 1547.04 Z" fill="#000000" fill-rule="nonzero" fill-opacity="1" /><path clip-path="url(#clip440)" d="M1389.94 1568.04 L1371.8 1520.52 L1378.51 1520.52 L1393.57 1560.53 L1408.66 1520.52 L1415.34 1520.52 L1397.23 1568.04 L1389.94 1568.04 Z" fill="#000000" fill-rule="nonzero" fill-opacity="1" /><polyline clip-path="url(#clip440)" style="stroke:#000000; stroke-linecap:round; stroke-linejoin:round; stroke-width:4; stroke-opacity:1; fill:none" points="222.69,1423.18 222.69,123.472 "/>
<polyline clip-path="url(#clip440)" style="stroke:#000000; stroke-linecap:round; stroke-linejoin:round; stroke-width:4; stroke-opacity:1; fill:none" points="222.69,1083.34 241.588,1083.34 "/>
<polyline clip-path="url(#clip440)" style="stroke:#000000; stroke-linecap:round; stroke-linejoin:round; stroke-width:4; stroke-opacity:1; fill:none" points="222.69,477.226 241.588,477.226 "/>
<path clip-path="url(#clip440)" d="M117.565 1103.13 L125.203 1103.13 L125.203 1076.77 L116.893 1078.43 L116.893 1074.17 L125.157 1072.51 L129.833 1072.51 L129.833 1103.13 L137.472 1103.13 L137.472 1107.07 L117.565 1107.07 L117.565 1103.13 Z" fill="#000000" fill-rule="nonzero" fill-opacity="1" /><path clip-path="url(#clip440)" d="M156.916 1075.59 Q153.305 1075.59 151.476 1079.15 Q149.671 1082.69 149.671 1089.82 Q149.671 1096.93 151.476 1100.49 Q153.305 1104.03 156.916 1104.03 Q160.55 1104.03 162.356 1100.49 Q164.185 1096.93 164.185 1089.82 Q164.185 1082.69 162.356 1079.15 Q160.55 1075.59 156.916 1075.59 M156.916 1071.88 Q162.726 1071.88 165.782 1076.49 Q168.861 1081.07 168.861 1089.82 Q168.861 1098.55 165.782 1103.15 Q162.726 1107.74 156.916 1107.74 Q151.106 1107.74 148.027 1103.15 Q144.972 1098.55 144.972 1089.82 Q144.972 1081.07 148.027 1076.49 Q151.106 1071.88 156.916 1071.88 Z" fill="#000000" fill-rule="nonzero" fill-opacity="1" /><path clip-path="url(#clip440)" d="M173.431 1076.46 L186.69 1076.46 L186.69 1079.66 L168.861 1079.66 L168.861 1076.46 Q171.023 1074.22 174.747 1070.46 Q178.49 1066.68 179.449 1065.59 Q181.274 1063.54 181.988 1062.13 Q182.722 1060.7 182.722 1059.33 Q182.722 1057.09 181.142 1055.68 Q179.581 1054.27 177.061 1054.27 Q175.274 1054.27 173.28 1054.89 Q171.306 1055.51 169.049 1056.77 L169.049 1052.93 Q171.343 1052.01 173.337 1051.54 Q175.33 1051.07 176.986 1051.07 Q181.349 1051.07 183.944 1053.25 Q186.54 1055.43 186.54 1059.08 Q186.54 1060.81 185.882 1062.37 Q185.242 1063.91 183.531 1066.02 Q183.06 1066.57 180.54 1069.18 Q178.02 1071.78 173.431 1076.46 Z" fill="#000000" fill-rule="nonzero" fill-opacity="1" /><path clip-path="url(#clip440)" d="M114.931 497.018 L122.57 497.018 L122.57 470.653 L114.26 472.32 L114.26 468.06 L122.524 466.394 L127.2 466.394 L127.2 497.018 L134.839 497.018 L134.839 500.954 L114.931 500.954 L114.931 497.018 Z" fill="#000000" fill-rule="nonzero" fill-opacity="1" /><path clip-path="url(#clip440)" d="M154.283 469.472 Q150.672 469.472 148.843 473.037 Q147.038 476.579 147.038 483.708 Q147.038 490.815 148.843 494.38 Q150.672 497.921 154.283 497.921 Q157.917 497.921 159.723 494.38 Q161.552 490.815 161.552 483.708 Q161.552 476.579 159.723 473.037 Q157.917 469.472 154.283 469.472 M154.283 465.769 Q160.093 465.769 163.149 470.375 Q166.227 474.958 166.227 483.708 Q166.227 492.435 163.149 497.042 Q160.093 501.625 154.283 501.625 Q148.473 501.625 145.394 497.042 Q142.339 492.435 142.339 483.708 Q142.339 474.958 145.394 470.375 Q148.473 465.769 154.283 465.769 Z" fill="#000000" fill-rule="nonzero" fill-opacity="1" /><path clip-path="url(#clip440)" d="M178.904 448.773 L169.312 463.763 L178.904 463.763 L178.904 448.773 M177.907 445.463 L182.684 445.463 L182.684 463.763 L186.69 463.763 L186.69 466.923 L182.684 466.923 L182.684 473.543 L178.904 473.543 L178.904 466.923 L166.227 466.923 L166.227 463.255 L177.907 445.463 Z" fill="#000000" fill-rule="nonzero" fill-opacity="1" /><path clip-path="url(#clip440)" d="M29.7248 850.669 L35.1993 850.669 Q33.8307 853.152 33.1623 855.666 Q32.4621 858.149 32.4621 860.695 Q32.4621 866.393 36.0905 869.544 Q39.6872 872.695 46.212 872.695 Q52.7369 872.695 56.3653 869.544 Q59.9619 866.393 59.9619 860.695 Q59.9619 858.149 59.2935 855.666 Q58.5933 853.152 57.2247 850.669 L62.6355 850.669 Q63.7814 853.12 64.3543 855.762 Q64.9272 858.372 64.9272 861.332 Q64.9272 869.384 59.8664 874.127 Q54.8057 878.869 46.212 878.869 Q37.491 878.869 32.4939 874.095 Q27.4968 869.289 27.4968 860.95 Q27.4968 858.245 28.0697 855.666 Q28.6108 853.088 29.7248 850.669 Z" fill="#000000" fill-rule="nonzero" fill-opacity="1" /><path clip-path="url(#clip440)" d="M32.4621 826.671 Q32.4621 831.381 36.1542 834.118 Q39.8145 836.856 46.212 836.856 Q52.6095 836.856 56.3017 834.15 Q59.9619 831.413 59.9619 826.671 Q59.9619 821.992 56.2698 819.255 Q52.5777 816.517 46.212 816.517 Q39.8781 816.517 36.186 819.255 Q32.4621 821.992 32.4621 826.671 M27.4968 826.671 Q27.4968 819.032 32.4621 814.671 Q37.4273 810.311 46.212 810.311 Q54.9649 810.311 59.9619 814.671 Q64.9272 819.032 64.9272 826.671 Q64.9272 834.341 59.9619 838.702 Q54.9649 843.03 46.212 843.03 Q37.4273 843.03 32.4621 838.702 Q27.4968 834.341 27.4968 826.671 Z" fill="#000000" fill-rule="nonzero" fill-opacity="1" /><path clip-path="url(#clip440)" d="M49.9359 801.208 L28.3562 801.208 L28.3562 795.351 L49.7131 795.351 Q54.7739 795.351 57.3202 793.378 Q59.8346 791.405 59.8346 787.458 Q59.8346 782.715 56.8109 779.978 Q53.7872 777.209 48.5673 777.209 L28.3562 777.209 L28.3562 771.353 L64.0042 771.353 L64.0042 777.209 L58.5296 777.209 Q61.7762 779.342 63.3676 782.174 Q64.9272 784.975 64.9272 788.699 Q64.9272 794.842 61.1078 798.025 Q57.2883 801.208 49.9359 801.208 M27.4968 786.471 L27.4968 786.471 Z" fill="#000000" fill-rule="nonzero" fill-opacity="1" /><path clip-path="url(#clip440)" d="M42.4881 729.657 L64.0042 729.657 L64.0042 735.514 L42.679 735.514 Q37.6183 735.514 35.1038 737.487 Q32.5894 739.46 32.5894 743.407 Q32.5894 748.15 35.6131 750.887 Q38.6368 753.624 43.8567 753.624 L64.0042 753.624 L64.0042 759.512 L28.3562 759.512 L28.3562 753.624 L33.8944 753.624 Q30.6797 751.523 29.0883 748.691 Q27.4968 745.826 27.4968 742.102 Q27.4968 735.959 31.3163 732.808 Q35.1038 729.657 42.4881 729.657 Z" fill="#000000" fill-rule="nonzero" fill-opacity="1" /><path clip-path="url(#clip440)" d="M18.2347 712.183 L28.3562 712.183 L28.3562 700.12 L32.9077 700.12 L32.9077 712.183 L52.2594 712.183 Q56.6199 712.183 57.8613 711.006 Q59.1026 709.796 59.1026 706.136 L59.1026 700.12 L64.0042 700.12 L64.0042 706.136 Q64.0042 712.915 61.4897 715.494 Q58.9434 718.072 52.2594 718.072 L32.9077 718.072 L32.9077 722.369 L28.3562 722.369 L28.3562 718.072 L18.2347 718.072 L18.2347 712.183 Z" fill="#000000" fill-rule="nonzero" fill-opacity="1" /><path clip-path="url(#clip440)" d="M29.4065 669.692 L34.9447 669.692 Q33.6716 672.175 33.035 674.849 Q32.3984 677.522 32.3984 680.387 Q32.3984 684.747 33.7352 686.943 Q35.072 689.108 37.7456 689.108 Q39.7826 689.108 40.9603 687.548 Q42.1061 685.988 43.1565 681.278 L43.6021 679.273 Q44.9389 673.034 47.3897 670.424 Q49.8086 667.783 54.1691 667.783 Q59.1344 667.783 62.0308 671.729 Q64.9272 675.644 64.9272 682.519 Q64.9272 685.384 64.3543 688.503 Q63.8132 691.59 62.6992 695.028 L56.6518 695.028 Q58.3387 691.781 59.198 688.63 Q60.0256 685.479 60.0256 682.392 Q60.0256 678.254 58.6251 676.026 Q57.1929 673.798 54.6147 673.798 Q52.2276 673.798 50.9545 675.421 Q49.6813 677.013 48.5037 682.456 L48.0262 684.493 Q46.8804 689.935 44.5251 692.354 Q42.138 694.773 38.0002 694.773 Q32.9713 694.773 30.2341 691.208 Q27.4968 687.644 27.4968 681.087 Q27.4968 677.84 27.9743 674.976 Q28.4517 672.111 29.4065 669.692 Z" fill="#000000" fill-rule="nonzero" fill-opacity="1" /><path clip-path="url(#clip440)" d="M940.621 12.096 L978.862 12.096 L978.862 18.9825 L948.804 18.9825 L948.804 36.8875 L977.606 36.8875 L977.606 43.7741 L948.804 43.7741 L948.804 65.6895 L979.591 65.6895 L979.591 72.576 L940.621 72.576 L940.621 12.096 Z" fill="#000000" fill-rule="nonzero" fill-opacity="1" /><path clip-path="url(#clip440)" d="M1030.43 45.1919 L1030.43 72.576 L1022.98 72.576 L1022.98 45.4349 Q1022.98 38.994 1020.46 35.7938 Q1017.95 32.5936 1012.93 32.5936 Q1006.89 32.5936 1003.41 36.4419 Q999.927 40.2903 999.927 46.9338 L999.927 72.576 L992.432 72.576 L992.432 27.2059 L999.927 27.2059 L999.927 34.2544 Q1002.6 30.163 1006.21 28.1376 Q1009.85 26.1121 1014.59 26.1121 Q1022.41 26.1121 1026.42 30.9732 Q1030.43 35.7938 1030.43 45.1919 Z" fill="#000000" fill-rule="nonzero" fill-opacity="1" /><path clip-path="url(#clip440)" d="M1084.1 48.0275 L1084.1 51.6733 L1049.83 51.6733 Q1050.32 59.3701 1054.45 63.421 Q1058.62 67.4314 1066.04 67.4314 Q1070.33 67.4314 1074.34 66.3781 Q1078.39 65.3249 1082.36 63.2184 L1082.36 70.267 Q1078.35 71.9684 1074.14 72.8596 Q1069.93 73.7508 1065.59 73.7508 Q1054.74 73.7508 1048.38 67.4314 Q1042.06 61.1119 1042.06 50.3365 Q1042.06 39.1965 1048.05 32.6746 Q1054.09 26.1121 1064.3 26.1121 Q1073.45 26.1121 1078.76 32.0264 Q1084.1 37.9003 1084.1 48.0275 M1076.65 45.84 Q1076.57 39.7232 1073.21 36.0774 Q1069.89 32.4315 1064.38 32.4315 Q1058.14 32.4315 1054.37 35.9558 Q1050.64 39.4801 1050.08 45.8805 L1076.65 45.84 Z" fill="#000000" fill-rule="nonzero" fill-opacity="1" /><path clip-path="url(#clip440)" d="M1122.63 34.1734 Q1121.37 33.4443 1119.87 33.1202 Q1118.42 32.7556 1116.63 32.7556 Q1110.31 32.7556 1106.91 36.8875 Q1103.55 40.9789 1103.55 48.6757 L1103.55 72.576 L1096.05 72.576 L1096.05 27.2059 L1103.55 27.2059 L1103.55 34.2544 Q1105.9 30.1225 1109.67 28.1376 Q1113.43 26.1121 1118.82 26.1121 Q1119.59 26.1121 1120.52 26.2337 Q1121.45 26.3147 1122.59 26.5172 L1122.63 34.1734 Z" fill="#000000" fill-rule="nonzero" fill-opacity="1" /><path clip-path="url(#clip440)" d="M1158.84 49.3643 Q1158.84 41.2625 1155.48 36.8065 Q1152.16 32.3505 1146.12 32.3505 Q1140.13 32.3505 1136.77 36.8065 Q1133.44 41.2625 1133.44 49.3643 Q1133.44 57.4256 1136.77 61.8816 Q1140.13 66.3376 1146.12 66.3376 Q1152.16 66.3376 1155.48 61.8816 Q1158.84 57.4256 1158.84 49.3643 M1166.3 66.9452 Q1166.3 78.5308 1161.15 84.1616 Q1156.01 89.8329 1145.39 89.8329 Q1141.47 89.8329 1137.98 89.2252 Q1134.5 88.6581 1131.22 87.4428 L1131.22 80.1917 Q1134.5 81.9741 1137.7 82.8248 Q1140.9 83.6755 1144.22 83.6755 Q1151.55 83.6755 1155.2 79.8271 Q1158.84 76.0193 1158.84 68.282 L1158.84 64.5957 Q1156.53 68.6061 1152.93 70.5911 Q1149.32 72.576 1144.3 72.576 Q1135.96 72.576 1130.85 66.2161 Q1125.75 59.8562 1125.75 49.3643 Q1125.75 38.832 1130.85 32.472 Q1135.96 26.1121 1144.3 26.1121 Q1149.32 26.1121 1152.93 28.0971 Q1156.53 30.082 1158.84 34.0924 L1158.84 27.2059 L1166.3 27.2059 L1166.3 66.9452 Z" fill="#000000" fill-rule="nonzero" fill-opacity="1" /><path clip-path="url(#clip440)" d="M1200.53 76.7889 Q1197.37 84.8907 1194.37 87.3618 Q1191.37 89.8329 1186.35 89.8329 L1180.39 89.8329 L1180.39 83.5945 L1184.77 83.5945 Q1187.85 83.5945 1189.55 82.1361 Q1191.25 80.6778 1193.32 75.2496 L1194.65 71.8468 L1176.3 27.2059 L1184.2 27.2059 L1198.38 62.6918 L1212.56 27.2059 L1220.46 27.2059 L1200.53 76.7889 Z" fill="#000000" fill-rule="nonzero" fill-opacity="1" /><path clip-path="url(#clip440)" d="M1286.04 28.5427 L1286.04 35.5912 Q1282.88 33.9709 1279.48 33.1607 Q1276.08 32.3505 1272.43 32.3505 Q1266.88 32.3505 1264.09 34.0519 Q1261.33 35.7533 1261.33 39.156 Q1261.33 41.7486 1263.32 43.2475 Q1265.3 44.7058 1271.3 46.0426 L1273.85 46.6097 Q1281.79 48.3111 1285.11 51.4303 Q1288.47 54.509 1288.47 60.0587 Q1288.47 66.3781 1283.45 70.0644 Q1278.47 73.7508 1269.72 73.7508 Q1266.07 73.7508 1262.1 73.0216 Q1258.17 72.3329 1253.8 70.9151 L1253.8 63.2184 Q1257.93 65.3654 1261.94 66.4591 Q1265.95 67.5124 1269.88 67.5124 Q1275.15 67.5124 1277.98 65.73 Q1280.82 63.9071 1280.82 60.6258 Q1280.82 57.5877 1278.75 55.9673 Q1276.72 54.3469 1269.8 52.8481 L1267.21 52.2405 Q1260.28 50.7821 1257.2 47.7845 Q1254.12 44.7463 1254.12 39.4801 Q1254.12 33.0797 1258.66 29.5959 Q1263.19 26.1121 1271.54 26.1121 Q1275.67 26.1121 1279.32 26.7198 Q1282.96 27.3274 1286.04 28.5427 Z" fill="#000000" fill-rule="nonzero" fill-opacity="1" /><path clip-path="url(#clip440)" d="M1307.55 65.7705 L1307.55 89.8329 L1300.06 89.8329 L1300.06 27.2059 L1307.55 27.2059 L1307.55 34.0924 Q1309.9 30.0415 1313.47 28.0971 Q1317.07 26.1121 1322.05 26.1121 Q1330.32 26.1121 1335.46 32.6746 Q1340.65 39.2371 1340.65 49.9314 Q1340.65 60.6258 1335.46 67.1883 Q1330.32 73.7508 1322.05 73.7508 Q1317.07 73.7508 1313.47 71.8063 Q1309.9 69.8214 1307.55 65.7705 M1332.91 49.9314 Q1332.91 41.7081 1329.51 37.0496 Q1326.15 32.3505 1320.23 32.3505 Q1314.32 32.3505 1310.91 37.0496 Q1307.55 41.7081 1307.55 49.9314 Q1307.55 58.1548 1310.91 62.8538 Q1314.32 67.5124 1320.23 67.5124 Q1326.15 67.5124 1329.51 62.8538 Q1332.91 58.1548 1332.91 49.9314 Z" fill="#000000" fill-rule="nonzero" fill-opacity="1" /><path clip-path="url(#clip440)" d="M1391.81 48.0275 L1391.81 51.6733 L1357.54 51.6733 Q1358.03 59.3701 1362.16 63.421 Q1366.33 67.4314 1373.74 67.4314 Q1378.04 67.4314 1382.05 66.3781 Q1386.1 65.3249 1390.07 63.2184 L1390.07 70.267 Q1386.06 71.9684 1381.85 72.8596 Q1377.63 73.7508 1373.3 73.7508 Q1362.44 73.7508 1356.08 67.4314 Q1349.76 61.1119 1349.76 50.3365 Q1349.76 39.1965 1355.76 32.6746 Q1361.79 26.1121 1372 26.1121 Q1381.16 26.1121 1386.46 32.0264 Q1391.81 37.9003 1391.81 48.0275 M1384.36 45.84 Q1384.28 39.7232 1380.91 36.0774 Q1377.59 32.4315 1372.08 32.4315 Q1365.84 32.4315 1362.08 35.9558 Q1358.35 39.4801 1357.78 45.8805 L1384.36 45.84 Z" fill="#000000" fill-rule="nonzero" fill-opacity="1" /><path clip-path="url(#clip440)" d="M1436.7 28.9478 L1436.7 35.9153 Q1433.54 34.1734 1430.34 33.3227 Q1427.18 32.4315 1423.93 32.4315 Q1416.68 32.4315 1412.67 37.0496 Q1408.66 41.6271 1408.66 49.9314 Q1408.66 58.2358 1412.67 62.8538 Q1416.68 67.4314 1423.93 67.4314 Q1427.18 67.4314 1430.34 66.5807 Q1433.54 65.6895 1436.7 63.9476 L1436.7 70.8341 Q1433.58 72.2924 1430.21 73.0216 Q1426.89 73.7508 1423.12 73.7508 Q1412.88 73.7508 1406.84 67.3098 Q1400.8 60.8689 1400.8 49.9314 Q1400.8 38.832 1406.88 32.472 Q1413 26.1121 1423.61 26.1121 Q1427.05 26.1121 1430.34 26.8413 Q1433.62 27.5299 1436.7 28.9478 Z" fill="#000000" fill-rule="nonzero" fill-opacity="1" /><path clip-path="url(#clip440)" d="M1457.03 14.324 L1457.03 27.2059 L1472.38 27.2059 L1472.38 32.9987 L1457.03 32.9987 L1457.03 57.6282 Q1457.03 63.1779 1458.53 64.7578 Q1460.07 66.3376 1464.73 66.3376 L1472.38 66.3376 L1472.38 72.576 L1464.73 72.576 Q1456.1 72.576 1452.82 69.3758 Q1449.54 66.1351 1449.54 57.6282 L1449.54 32.9987 L1444.07 32.9987 L1444.07 27.2059 L1449.54 27.2059 L1449.54 14.324 L1457.03 14.324 Z" fill="#000000" fill-rule="nonzero" fill-opacity="1" /><path clip-path="url(#clip440)" d="M1508.48 34.1734 Q1507.22 33.4443 1505.72 33.1202 Q1504.26 32.7556 1502.48 32.7556 Q1496.16 32.7556 1492.76 36.8875 Q1489.4 40.9789 1489.4 48.6757 L1489.4 72.576 L1481.9 72.576 L1481.9 27.2059 L1489.4 27.2059 L1489.4 34.2544 Q1491.75 30.1225 1495.51 28.1376 Q1499.28 26.1121 1504.67 26.1121 Q1505.44 26.1121 1506.37 26.2337 Q1507.3 26.3147 1508.44 26.5172 L1508.48 34.1734 Z" fill="#000000" fill-rule="nonzero" fill-opacity="1" /><path clip-path="url(#clip440)" d="M1515.53 54.671 L1515.53 27.2059 L1522.98 27.2059 L1522.98 54.3874 Q1522.98 60.8284 1525.49 64.0691 Q1528 67.2693 1533.03 67.2693 Q1539.06 67.2693 1542.55 63.421 Q1546.07 59.5726 1546.07 52.9291 L1546.07 27.2059 L1553.52 27.2059 L1553.52 72.576 L1546.07 72.576 L1546.07 65.6084 Q1543.36 69.7404 1539.75 71.7658 Q1536.19 73.7508 1531.45 73.7508 Q1523.63 73.7508 1519.58 68.8897 Q1515.53 64.0286 1515.53 54.671 M1534.28 26.1121 L1534.28 26.1121 Z" fill="#000000" fill-rule="nonzero" fill-opacity="1" /><path clip-path="url(#clip440)" d="M1604.2 35.9153 Q1607 30.8922 1610.88 28.5022 Q1614.77 26.1121 1620.04 26.1121 Q1627.13 26.1121 1630.98 31.0947 Q1634.82 36.0368 1634.82 45.1919 L1634.82 72.576 L1627.33 72.576 L1627.33 45.4349 Q1627.33 38.913 1625.02 35.7533 Q1622.71 32.5936 1617.97 32.5936 Q1612.18 32.5936 1608.82 36.4419 Q1605.46 40.2903 1605.46 46.9338 L1605.46 72.576 L1597.96 72.576 L1597.96 45.4349 Q1597.96 38.8725 1595.65 35.7533 Q1593.34 32.5936 1588.52 32.5936 Q1582.81 32.5936 1579.45 36.4824 Q1576.09 40.3308 1576.09 46.9338 L1576.09 72.576 L1568.59 72.576 L1568.59 27.2059 L1576.09 27.2059 L1576.09 34.2544 Q1578.64 30.082 1582.2 28.0971 Q1585.77 26.1121 1590.67 26.1121 Q1595.61 26.1121 1599.06 28.6237 Q1602.54 31.1352 1604.2 35.9153 Z" fill="#000000" fill-rule="nonzero" fill-opacity="1" /><polyline clip-path="url(#clip442)" style="stroke:#009af9; stroke-linecap:round; stroke-linejoin:round; stroke-width:4; stroke-opacity:1; fill:none" points="222.69,1386.4 222.69,816.403 229.791,816.403 229.791,791.257 236.891,791.257 236.891,773.861 243.991,773.861 243.991,776.392 251.091,776.392 251.091,803.23 258.191,803.23 258.191,776.392 265.292,776.392 265.292,791.257 272.392,791.257 272.392,803.23 279.492,803.23 279.492,772.613 286.592,772.613 286.592,795.62 293.693,795.62 293.693,782.942 300.793,782.942 300.793,798.612 307.893,798.612 307.893,811.307 314.993,811.307 314.993,808.017 322.093,808.017 322.093,787.034 329.194,787.034 329.194,794.15 336.294,794.15 336.294,804.806 343.394,804.806 343.394,797.107 350.494,797.107 350.494,812.984 357.594,812.984 357.594,834.971 364.695,834.971 364.695,809.652 371.795,809.652 371.795,778.973 378.895,778.973 378.895,787.034 385.995,787.034 393.096,787.034 393.096,778.973 400.196,778.973 400.196,808.017 407.296,808.017 407.296,794.15 414.396,794.15 414.396,800.133 421.496,800.133 421.496,792.695 428.597,792.695 428.597,829.12 435.697,829.12 435.697,797.107 442.797,797.107 442.797,773.861 449.897,773.861 449.897,816.403 456.998,816.403 456.998,825.36 464.098,825.36 464.098,827.227 471.198,827.227 471.198,812.984 478.298,812.984 478.298,823.519 485.398,823.519 485.398,804.806 492.499,804.806 492.499,819.913 499.599,819.913 499.599,803.23 506.699,803.23 506.699,797.107 513.799,797.107 513.799,801.673 520.9,801.673 520.9,809.652 528,809.652 528,801.673 535.1,801.673 535.1,800.133 542.2,800.133 542.2,814.682 549.3,814.682 549.3,797.107 556.401,797.107 556.401,789.834 563.501,789.834 563.501,795.62 570.601,795.62 570.601,800.133 577.701,800.133 577.701,808.017 584.801,808.017 584.801,806.402 591.902,806.402 591.902,801.673 599.002,801.673 599.002,803.23 606.102,803.23 606.102,781.605 613.202,781.605 613.202,812.984 620.303,812.984 620.303,791.257 627.403,791.257 627.403,794.15 634.503,794.15 634.503,781.605 641.603,781.605 641.603,804.806 648.703,804.806 648.703,792.695 655.804,792.695 655.804,795.62 662.904,795.62 662.904,791.257 670.004,791.257 670.004,798.612 677.104,798.612 677.104,816.403 684.205,816.403 684.205,777.676 691.305,777.676 691.305,795.62 698.405,795.62 698.405,808.017 705.505,808.017 705.505,812.984 712.605,812.984 712.605,794.15 719.706,794.15 719.706,797.107 726.806,797.107 733.906,797.107 733.906,800.133 741.006,800.133 741.006,829.12 748.107,829.12 748.107,816.403 755.207,816.403 755.207,780.283 762.307,780.283 762.307,818.146 769.407,818.146 769.407,814.682 776.507,814.682 776.507,821.703 783.608,821.703 783.608,806.402 790.708,806.402 790.708,814.682 797.808,814.682 797.808,791.257 804.908,791.257 804.908,804.806 812.008,804.806 812.008,801.673 819.109,801.673 819.109,809.652 826.209,809.652 826.209,798.612 833.309,798.612 833.309,801.673 840.409,801.673 840.409,809.652 847.51,809.652 847.51,788.426 854.61,788.426 854.61,787.034 861.71,787.034 861.71,791.257 868.81,791.257 868.81,801.673 875.91,801.673 875.91,787.034 883.011,787.034 883.011,782.942 890.111,782.942 890.111,816.403 897.211,816.403 897.211,781.605 904.311,781.605 911.412,781.605 911.412,808.017 918.512,808.017 918.512,794.15 925.612,794.15 925.612,795.62 932.712,795.62 932.712,801.673 939.812,801.673 939.812,804.806 946.913,804.806 946.913,803.23 954.013,803.23 954.013,791.257 961.113,791.257 961.113,782.942 968.213,782.942 968.213,800.133 975.313,800.133 975.313,812.984 982.414,812.984 982.414,808.017 989.514,808.017 989.514,784.291 996.614,784.291 996.614,787.034 1003.71,787.034 1003.71,780.283 1010.81,780.283 1010.81,804.806 1017.91,804.806 1017.91,777.676 1025.02,777.676 1025.02,794.15 1032.12,794.15 1032.12,785.655 1039.22,785.655 1039.22,792.695 1046.32,792.695 1046.32,787.034 1053.42,787.034 1053.42,800.133 1060.52,800.133 1060.52,789.834 1067.62,789.834 1067.62,780.283 1074.72,780.283 1074.72,789.834 1081.82,789.834 1081.82,776.392 1088.92,776.392 1088.92,775.121 1096.02,775.121 1096.02,776.392 1103.12,776.392 1103.12,778.973 1110.22,778.973 1110.22,794.15 1117.32,794.15 1117.32,780.283 1124.42,780.283 1124.42,778.973 1131.52,778.973 1131.52,775.121 1138.62,775.121 1138.62,782.942 1145.72,782.942 1145.72,787.034 1152.82,787.034 1152.82,772.613 1159.92,772.613 1159.92,795.62 1167.02,795.62 1167.02,803.23 1174.12,803.23 1174.12,742.749 1181.22,742.749 1181.22,771.378 1188.32,771.378 1188.32,780.283 1195.42,780.283 1195.42,776.392 1202.52,776.392 1202.52,770.153 1209.62,770.153 1209.62,766.547 1216.72,766.547 1223.82,766.547 1223.82,778.973 1230.92,778.973 1230.92,775.121 1238.02,775.121 1238.02,767.738 1245.12,767.738 1245.12,781.605 1252.22,781.605 1252.22,792.695 1259.32,792.695 1259.32,758.498 1266.42,758.498 1266.42,760.748 1273.52,760.748 1273.52,761.888 1280.62,761.888 1280.62,775.121 1287.72,775.121 1287.72,749.865 1294.82,749.865 1294.82,775.121 1301.92,775.121 1301.92,761.888 1309.02,761.888 1309.02,768.94 1316.12,768.94 1316.12,776.392 1323.22,776.392 1323.22,761.888 1330.32,761.888 1330.32,754.111 1337.42,754.111 1337.42,760.748 1344.52,760.748 1344.52,751.971 1351.63,751.971 1351.63,571.383 1358.73,571.383 1358.73,725.174 1365.83,725.174 1365.83,720.078 1372.93,720.078 1372.93,722.601 1380.03,722.601 1380.03,735.061 1387.13,735.061 1387.13,711.22 1394.23,711.22 1394.23,721.755 1401.33,721.755 1401.33,703.654 1408.43,703.654 1408.43,715.978 1415.53,715.978 1415.53,716.788 1422.63,716.788 1422.63,714.373 1429.73,714.373 1429.73,730.474 1436.83,730.474 1436.83,724.311 1443.93,724.311 1443.93,701.466 1451.03,701.466 1451.03,718.423 1458.13,718.423 1458.13,720.078 1465.23,720.078 1465.23,702.191 1472.33,702.191 1472.33,696.499 1479.43,696.499 1479.43,689.713 1486.53,689.713 1486.53,706.628 1493.63,706.628 1493.63,700.028 1500.73,700.028 1500.73,709.672 1507.83,709.672 1507.83,698.605 1514.93,698.605 1514.93,708.904 1522.03,708.904 1522.03,693.743 1529.13,693.743 1529.13,703.654 1536.23,703.654 1536.23,688.397 1543.33,688.397 1543.33,699.314 1550.43,699.314 1550.43,677.711 1557.53,677.711 1557.53,695.804 1564.63,695.804 1564.63,682.632 1571.73,682.632 1571.73,702.921 1578.83,702.921 1578.83,689.053 1585.93,689.053 1585.93,691.043 1593.03,691.043 1593.03,683.26 1600.13,683.26 1600.13,687.094 1607.23,687.094 1607.23,681.384 1614.33,681.384 1614.33,687.744 1621.43,687.744 1621.43,680.765 1628.53,680.765 1628.53,682.632 1635.63,682.632 1635.63,689.053 1642.73,689.053 1642.73,702.921 1649.83,702.921 1649.83,682.007 1656.93,682.007 1656.93,704.391 1664.03,704.391 1664.03,685.804 1671.13,685.804 1671.13,687.094 1678.24,687.094 1678.24,672.387 1685.34,672.387 1685.34,675.318 1692.44,675.318 1692.44,678.924 1699.54,678.924 1699.54,672.387 1706.64,672.387 1706.64,685.804 1713.74,685.804 1713.74,427.96 1720.84,427.96 1720.84,651.519 1727.94,651.519 1727.94,655.029 1735.04,655.029 1735.04,661.273 1742.14,661.273 1742.14,641.061 1749.24,641.061 1749.24,643.832 1756.34,643.832 1756.34,637.011 1763.44,637.011 1770.54,637.011 1770.54,643.832 1777.64,643.832 1784.74,643.832 1784.74,625.559 1791.84,625.559 1791.84,624.346 1798.94,624.346 1798.94,625.559 1806.04,625.559 1806.04,629.266 1813.14,629.266 1813.14,624.346 1820.24,624.346 1820.24,622.745 1827.34,622.745 1827.34,613.532 1834.44,613.532 1834.44,603.884 1841.54,603.884 1841.54,602.855 1848.64,602.855 1848.64,596.841 1855.74,596.841 1855.74,608.085 1862.84,608.085 1862.84,594.574 1869.94,594.574 1869.94,579.429 1877.04,579.429 1877.04,566.107 1884.14,566.107 1884.14,569.512 1891.24,569.512 1891.24,569.247 1898.34,569.247 1898.34,560.043 1905.44,560.043 1905.44,562.285 1912.54,562.285 1912.54,588 1919.64,588 1919.64,607.73 1926.74,607.73 1926.74,621.164 1933.84,621.164 1933.84,624.749 1940.94,624.749 1940.94,642.439 1948.04,642.439 1948.04,651.026 1955.14,651.026 1955.14,660.741 1962.24,660.741 1962.24,666.713 1969.34,666.713 1969.34,712.001 1976.44,712.001 1976.44,717.603 1983.54,717.603 1983.54,756.286 1990.64,756.286 1990.64,789.834 1997.74,789.834 1997.74,814.682 2004.85,814.682 2004.85,904.213 2011.95,904.213 2011.95,979.566 2019.05,979.566 2019.05,1048.81 2026.15,1048.81 2026.15,1083.34 2033.25,1083.34 2033.25,1097.21 2040.35,1097.21 2040.35,1112.71 2047.45,1112.71 2047.45,1150.57 2054.55,1150.57 2054.55,1174.57 2061.65,1174.57 2061.65,1241.8 2068.75,1241.8 2075.85,1241.8 2075.85,160.256 2082.95,160.256 2082.95,1386.4 "/>
</svg>
