<?xml version="1.0" encoding="utf-8"?>
<svg xmlns="http://www.w3.org/2000/svg" xmlns:xlink="http://www.w3.org/1999/xlink" width="600" height="400" viewBox="0 0 2400 1600">
<defs>
  <clipPath id="clip550">
    <rect x="0" y="0" width="2400" height="1600"/>
  </clipPath>
</defs>
<path clip-path="url(#clip550)" d="
M0 1600 L2400 1600 L2400 0 L0 0  Z
  " fill="#ffffff" fill-rule="evenodd" fill-opacity="1"/>
<defs>
  <clipPath id="clip551">
    <rect x="480" y="0" width="1681" height="1600"/>
  </clipPath>
</defs>
<path clip-path="url(#clip550)" d="
M488.943 1392.94 L2352.76 1392.94 L2352.76 47.2441 L488.943 47.2441  Z
  " fill="#ffffff" fill-rule="evenodd" fill-opacity="1"/>
<defs>
  <clipPath id="clip552">
    <rect x="488" y="47" width="1865" height="1347"/>
  </clipPath>
</defs>
<polyline clip-path="url(#clip552)" style="stroke:#000000; stroke-linecap:butt; stroke-linejoin:round; stroke-width:2; stroke-opacity:0.1; fill:none" points="
  488.943,1392.94 488.943,47.2441 
  "/>
<polyline clip-path="url(#clip552)" style="stroke:#000000; stroke-linecap:butt; stroke-linejoin:round; stroke-width:2; stroke-opacity:0.1; fill:none" points="
  912.537,1392.94 912.537,47.2441 
  "/>
<polyline clip-path="url(#clip552)" style="stroke:#000000; stroke-linecap:butt; stroke-linejoin:round; stroke-width:2; stroke-opacity:0.1; fill:none" points="
  1336.13,1392.94 1336.13,47.2441 
  "/>
<polyline clip-path="url(#clip552)" style="stroke:#000000; stroke-linecap:butt; stroke-linejoin:round; stroke-width:2; stroke-opacity:0.1; fill:none" points="
  1759.72,1392.94 1759.72,47.2441 
  "/>
<polyline clip-path="url(#clip552)" style="stroke:#000000; stroke-linecap:butt; stroke-linejoin:round; stroke-width:2; stroke-opacity:0.1; fill:none" points="
  2183.32,1392.94 2183.32,47.2441 
  "/>
<polyline clip-path="url(#clip550)" style="stroke:#000000; stroke-linecap:butt; stroke-linejoin:round; stroke-width:4; stroke-opacity:1; fill:none" points="
  488.943,1392.94 2352.76,1392.94 
  "/>
<polyline clip-path="url(#clip550)" style="stroke:#000000; stroke-linecap:butt; stroke-linejoin:round; stroke-width:4; stroke-opacity:1; fill:none" points="
  488.943,1392.94 488.943,1374.04 
  "/>
<polyline clip-path="url(#clip550)" style="stroke:#000000; stroke-linecap:butt; stroke-linejoin:round; stroke-width:4; stroke-opacity:1; fill:none" points="
  912.537,1392.94 912.537,1374.04 
  "/>
<polyline clip-path="url(#clip550)" style="stroke:#000000; stroke-linecap:butt; stroke-linejoin:round; stroke-width:4; stroke-opacity:1; fill:none" points="
  1336.13,1392.94 1336.13,1374.04 
  "/>
<polyline clip-path="url(#clip550)" style="stroke:#000000; stroke-linecap:butt; stroke-linejoin:round; stroke-width:4; stroke-opacity:1; fill:none" points="
  1759.72,1392.94 1759.72,1374.04 
  "/>
<polyline clip-path="url(#clip550)" style="stroke:#000000; stroke-linecap:butt; stroke-linejoin:round; stroke-width:4; stroke-opacity:1; fill:none" points="
  2183.32,1392.94 2183.32,1374.04 
  "/>
<path clip-path="url(#clip550)" d="M488.943 1429.72 Q483.527 1429.72 480.784 1435.07 Q478.075 1440.38 478.075 1451.07 Q478.075 1461.73 480.784 1467.08 Q483.527 1472.39 488.943 1472.39 Q494.395 1472.39 497.103 1467.08 Q499.846 1461.73 499.846 1451.07 Q499.846 1440.38 497.103 1435.07 Q494.395 1429.72 488.943 1429.72 M488.943 1424.16 Q497.658 1424.16 502.242 1431.07 Q506.86 1437.95 506.86 1451.07 Q506.86 1464.16 502.242 1471.07 Q497.658 1477.95 488.943 1477.95 Q480.228 1477.95 475.61 1471.07 Q471.027 1464.16 471.027 1451.07 Q471.027 1437.95 475.61 1431.07 Q480.228 1424.16 488.943 1424.16 Z" fill="#000000" fill-rule="evenodd" fill-opacity="1" /><path clip-path="url(#clip550)" d="M858.076 1471.04 L882.555 1471.04 L882.555 1476.94 L849.638 1476.94 L849.638 1471.04 Q853.631 1466.91 860.506 1459.96 Q867.416 1452.98 869.187 1450.97 Q872.555 1447.18 873.874 1444.58 Q875.228 1441.94 875.228 1439.41 Q875.228 1435.27 872.312 1432.67 Q869.43 1430.07 864.777 1430.07 Q861.478 1430.07 857.798 1431.21 Q854.152 1432.36 849.985 1434.68 L849.985 1427.6 Q854.221 1425.9 857.902 1425.03 Q861.582 1424.16 864.638 1424.16 Q872.693 1424.16 877.485 1428.19 Q882.277 1432.22 882.277 1438.95 Q882.277 1442.15 881.062 1445.03 Q879.881 1447.88 876.721 1451.77 Q875.853 1452.77 871.2 1457.6 Q866.548 1462.39 858.076 1471.04 Z" fill="#000000" fill-rule="evenodd" fill-opacity="1" /><path clip-path="url(#clip550)" d="M897.346 1425.1 L924.881 1425.1 L924.881 1431 L903.77 1431 L903.77 1443.71 Q905.297 1443.19 906.825 1442.95 Q908.353 1442.67 909.881 1442.67 Q918.561 1442.67 923.631 1447.43 Q928.7 1452.18 928.7 1460.31 Q928.7 1468.68 923.492 1473.33 Q918.284 1477.95 908.804 1477.95 Q905.541 1477.95 902.138 1477.39 Q898.77 1476.84 895.159 1475.72 L895.159 1468.68 Q898.284 1470.38 901.617 1471.21 Q904.95 1472.04 908.666 1472.04 Q914.672 1472.04 918.179 1468.88 Q921.686 1465.72 921.686 1460.31 Q921.686 1454.89 918.179 1451.73 Q914.672 1448.57 908.666 1448.57 Q905.853 1448.57 903.041 1449.2 Q900.263 1449.82 897.346 1451.14 L897.346 1425.1 Z" fill="#000000" fill-rule="evenodd" fill-opacity="1" /><path clip-path="url(#clip550)" d="M957.519 1429.72 Q952.103 1429.72 949.36 1435.07 Q946.651 1440.38 946.651 1451.07 Q946.651 1461.73 949.36 1467.08 Q952.103 1472.39 957.519 1472.39 Q962.971 1472.39 965.679 1467.08 Q968.422 1461.73 968.422 1451.07 Q968.422 1440.38 965.679 1435.07 Q962.971 1429.72 957.519 1429.72 M957.519 1424.16 Q966.235 1424.16 970.818 1431.07 Q975.436 1437.95 975.436 1451.07 Q975.436 1464.16 970.818 1471.07 Q966.235 1477.95 957.519 1477.95 Q948.804 1477.95 944.186 1471.07 Q939.603 1464.16 939.603 1451.07 Q939.603 1437.95 944.186 1431.07 Q948.804 1424.16 957.519 1424.16 Z" fill="#000000" fill-rule="evenodd" fill-opacity="1" /><path clip-path="url(#clip550)" d="M1275.56 1425.1 L1303.09 1425.1 L1303.09 1431 L1281.98 1431 L1281.98 1443.71 Q1283.51 1443.19 1285.04 1442.95 Q1286.57 1442.67 1288.09 1442.67 Q1296.77 1442.67 1301.84 1447.43 Q1306.91 1452.18 1306.91 1460.31 Q1306.91 1468.68 1301.7 1473.33 Q1296.5 1477.95 1287.02 1477.95 Q1283.75 1477.95 1280.35 1477.39 Q1276.98 1476.84 1273.37 1475.72 L1273.37 1468.68 Q1276.5 1470.38 1279.83 1471.21 Q1283.16 1472.04 1286.88 1472.04 Q1292.88 1472.04 1296.39 1468.88 Q1299.9 1465.72 1299.9 1460.31 Q1299.9 1454.89 1296.39 1451.73 Q1292.88 1448.57 1286.88 1448.57 Q1284.07 1448.57 1281.25 1449.2 Q1278.47 1449.82 1275.56 1451.14 L1275.56 1425.1 Z" fill="#000000" fill-rule="evenodd" fill-opacity="1" /><path clip-path="url(#clip550)" d="M1335.73 1429.72 Q1330.31 1429.72 1327.57 1435.07 Q1324.86 1440.38 1324.86 1451.07 Q1324.86 1461.73 1327.57 1467.08 Q1330.31 1472.39 1335.73 1472.39 Q1341.18 1472.39 1343.89 1467.08 Q1346.63 1461.73 1346.63 1451.07 Q1346.63 1440.38 1343.89 1435.07 Q1341.18 1429.72 1335.73 1429.72 M1335.73 1424.16 Q1344.45 1424.16 1349.03 1431.07 Q1353.65 1437.95 1353.65 1451.07 Q1353.65 1464.16 1349.03 1471.07 Q1344.45 1477.95 1335.73 1477.95 Q1327.02 1477.95 1322.4 1471.07 Q1317.81 1464.16 1317.81 1451.07 Q1317.81 1437.95 1322.4 1431.07 Q1327.02 1424.16 1335.73 1424.16 Z" fill="#000000" fill-rule="evenodd" fill-opacity="1" /><path clip-path="url(#clip550)" d="M1380.97 1429.72 Q1375.56 1429.72 1372.81 1435.07 Q1370.11 1440.38 1370.11 1451.07 Q1370.11 1461.73 1372.81 1467.08 Q1375.56 1472.39 1380.97 1472.39 Q1386.43 1472.39 1389.13 1467.08 Q1391.88 1461.73 1391.88 1451.07 Q1391.88 1440.38 1389.13 1435.07 Q1386.43 1429.72 1380.97 1429.72 M1380.97 1424.16 Q1389.69 1424.16 1394.27 1431.07 Q1398.89 1437.95 1398.89 1451.07 Q1398.89 1464.16 1394.27 1471.07 Q1389.69 1477.95 1380.97 1477.95 Q1372.26 1477.95 1367.64 1471.07 Q1363.06 1464.16 1363.06 1451.07 Q1363.06 1437.95 1367.64 1431.07 Q1372.26 1424.16 1380.97 1424.16 Z" fill="#000000" fill-rule="evenodd" fill-opacity="1" /><path clip-path="url(#clip550)" d="M1697.14 1425.1 L1730.47 1425.1 L1730.47 1428.09 L1711.65 1476.94 L1704.33 1476.94 L1722.03 1431 L1697.14 1431 L1697.14 1425.1 Z" fill="#000000" fill-rule="evenodd" fill-opacity="1" /><path clip-path="url(#clip550)" d="M1744.22 1425.1 L1771.76 1425.1 L1771.76 1431 L1750.64 1431 L1750.64 1443.71 Q1752.17 1443.19 1753.7 1442.95 Q1755.23 1442.67 1756.76 1442.67 Q1765.44 1442.67 1770.51 1447.43 Q1775.58 1452.18 1775.58 1460.31 Q1775.58 1468.68 1770.37 1473.33 Q1765.16 1477.95 1755.68 1477.95 Q1752.42 1477.95 1749.01 1477.39 Q1745.64 1476.84 1742.03 1475.72 L1742.03 1468.68 Q1745.16 1470.38 1748.49 1471.21 Q1751.83 1472.04 1755.54 1472.04 Q1761.55 1472.04 1765.05 1468.88 Q1768.56 1465.72 1768.56 1460.31 Q1768.56 1454.89 1765.05 1451.73 Q1761.55 1448.57 1755.54 1448.57 Q1752.73 1448.57 1749.92 1449.2 Q1747.14 1449.82 1744.22 1451.14 L1744.22 1425.1 Z" fill="#000000" fill-rule="evenodd" fill-opacity="1" /><path clip-path="url(#clip550)" d="M1804.39 1429.72 Q1798.98 1429.72 1796.23 1435.07 Q1793.53 1440.38 1793.53 1451.07 Q1793.53 1461.73 1796.23 1467.08 Q1798.98 1472.39 1804.39 1472.39 Q1809.85 1472.39 1812.55 1467.08 Q1815.3 1461.73 1815.3 1451.07 Q1815.3 1440.38 1812.55 1435.07 Q1809.85 1429.72 1804.39 1429.72 M1804.39 1424.16 Q1813.11 1424.16 1817.69 1431.07 Q1822.31 1437.95 1822.31 1451.07 Q1822.31 1464.16 1817.69 1471.07 Q1813.11 1477.95 1804.39 1477.95 Q1795.68 1477.95 1791.06 1471.07 Q1786.48 1464.16 1786.48 1451.07 Q1786.48 1437.95 1791.06 1431.07 Q1795.68 1424.16 1804.39 1424.16 Z" fill="#000000" fill-rule="evenodd" fill-opacity="1" /><path clip-path="url(#clip550)" d="M2100.11 1471.04 L2111.57 1471.04 L2111.57 1431.49 L2099.1 1433.99 L2099.1 1427.6 L2111.5 1425.1 L2118.51 1425.1 L2118.51 1471.04 L2129.97 1471.04 L2129.97 1476.94 L2100.11 1476.94 L2100.11 1471.04 Z" fill="#000000" fill-rule="evenodd" fill-opacity="1" /><path clip-path="url(#clip550)" d="M2159.13 1429.72 Q2153.72 1429.72 2150.97 1435.07 Q2148.27 1440.38 2148.27 1451.07 Q2148.27 1461.73 2150.97 1467.08 Q2153.72 1472.39 2159.13 1472.39 Q2164.59 1472.39 2167.29 1467.08 Q2170.04 1461.73 2170.04 1451.07 Q2170.04 1440.38 2167.29 1435.07 Q2164.59 1429.72 2159.13 1429.72 M2159.13 1424.16 Q2167.85 1424.16 2172.43 1431.07 Q2177.05 1437.95 2177.05 1451.07 Q2177.05 1464.16 2172.43 1471.07 Q2167.85 1477.95 2159.13 1477.95 Q2150.42 1477.95 2145.8 1471.07 Q2141.22 1464.16 2141.22 1451.07 Q2141.22 1437.95 2145.8 1431.07 Q2150.42 1424.16 2159.13 1424.16 Z" fill="#000000" fill-rule="evenodd" fill-opacity="1" /><path clip-path="url(#clip550)" d="M2204.38 1429.72 Q2198.96 1429.72 2196.22 1435.07 Q2193.51 1440.38 2193.51 1451.07 Q2193.51 1461.73 2196.22 1467.08 Q2198.96 1472.39 2204.38 1472.39 Q2209.83 1472.39 2212.54 1467.08 Q2215.28 1461.73 2215.28 1451.07 Q2215.28 1440.38 2212.54 1435.07 Q2209.83 1429.72 2204.38 1429.72 M2204.38 1424.16 Q2213.09 1424.16 2217.68 1431.07 Q2222.29 1437.95 2222.29 1451.07 Q2222.29 1464.16 2217.68 1471.07 Q2213.09 1477.95 2204.38 1477.95 Q2195.66 1477.95 2191.04 1471.07 Q2186.46 1464.16 2186.46 1451.07 Q2186.46 1437.95 2191.04 1431.07 Q2195.66 1424.16 2204.38 1424.16 Z" fill="#000000" fill-rule="evenodd" fill-opacity="1" /><path clip-path="url(#clip550)" d="M2249.62 1429.72 Q2244.2 1429.72 2241.46 1435.07 Q2238.75 1440.38 2238.75 1451.07 Q2238.75 1461.73 2241.46 1467.08 Q2244.2 1472.39 2249.62 1472.39 Q2255.07 1472.39 2257.78 1467.08 Q2260.52 1461.73 2260.52 1451.07 Q2260.52 1440.38 2257.78 1435.07 Q2255.07 1429.72 2249.62 1429.72 M2249.62 1424.16 Q2258.34 1424.16 2262.92 1431.07 Q2267.54 1437.95 2267.54 1451.07 Q2267.54 1464.16 2262.92 1471.07 Q2258.34 1477.95 2249.62 1477.95 Q2240.9 1477.95 2236.29 1471.07 Q2231.7 1464.16 2231.7 1451.07 Q2231.7 1437.95 2236.29 1431.07 Q2240.9 1424.16 2249.62 1424.16 Z" fill="#000000" fill-rule="evenodd" fill-opacity="1" /><path clip-path="url(#clip550)" d="M1232.99 1518.8 L1284.15 1518.8 L1284.15 1525.68 L1262.68 1525.68 L1262.68 1579.28 L1254.46 1579.28 L1254.46 1525.68 L1232.99 1525.68 L1232.99 1518.8 Z" fill="#000000" fill-rule="evenodd" fill-opacity="1" /><path clip-path="url(#clip550)" d="M1289.17 1533.91 L1296.63 1533.91 L1296.63 1579.28 L1289.17 1579.28 L1289.17 1533.91 M1289.17 1516.24 L1296.63 1516.24 L1296.63 1525.68 L1289.17 1525.68 L1289.17 1516.24 Z" fill="#000000" fill-rule="evenodd" fill-opacity="1" /><path clip-path="url(#clip550)" d="M1347.55 1542.62 Q1350.34 1537.59 1354.23 1535.2 Q1358.12 1532.81 1363.39 1532.81 Q1370.48 1532.81 1374.32 1537.79 Q1378.17 1542.74 1378.17 1551.89 L1378.17 1579.28 L1370.68 1579.28 L1370.68 1552.13 Q1370.68 1545.61 1368.37 1542.45 Q1366.06 1539.29 1361.32 1539.29 Q1355.53 1539.29 1352.17 1543.14 Q1348.8 1546.99 1348.8 1553.63 L1348.8 1579.28 L1341.31 1579.28 L1341.31 1552.13 Q1341.31 1545.57 1339 1542.45 Q1336.69 1539.29 1331.87 1539.29 Q1326.16 1539.29 1322.8 1543.18 Q1319.44 1547.03 1319.44 1553.63 L1319.44 1579.28 L1311.94 1579.28 L1311.94 1533.91 L1319.44 1533.91 L1319.44 1540.95 Q1321.99 1536.78 1325.55 1534.8 Q1329.12 1532.81 1334.02 1532.81 Q1338.96 1532.81 1342.4 1535.32 Q1345.89 1537.84 1347.55 1542.62 Z" fill="#000000" fill-rule="evenodd" fill-opacity="1" /><path clip-path="url(#clip550)" d="M1431.85 1554.73 L1431.85 1558.37 L1397.58 1558.37 Q1398.06 1566.07 1402.2 1570.12 Q1406.37 1574.13 1413.78 1574.13 Q1418.07 1574.13 1422.09 1573.08 Q1426.14 1572.02 1430.11 1569.92 L1430.11 1576.97 Q1426.1 1578.67 1421.88 1579.56 Q1417.67 1580.45 1413.34 1580.45 Q1402.48 1580.45 1396.12 1574.13 Q1389.8 1567.81 1389.8 1557.04 Q1389.8 1545.9 1395.79 1539.37 Q1401.83 1532.81 1412.04 1532.81 Q1421.19 1532.81 1426.5 1538.73 Q1431.85 1544.6 1431.85 1554.73 M1424.39 1552.54 Q1424.31 1546.42 1420.95 1542.78 Q1417.63 1539.13 1412.12 1539.13 Q1405.88 1539.13 1402.11 1542.66 Q1398.39 1546.18 1397.82 1552.58 L1424.39 1552.54 Z" fill="#000000" fill-rule="evenodd" fill-opacity="1" /><path clip-path="url(#clip550)" d="M1483.7 1518.8 L1490.59 1518.8 L1469.52 1586.97 L1462.63 1586.97 L1483.7 1518.8 Z" fill="#000000" fill-rule="evenodd" fill-opacity="1" /><path clip-path="url(#clip550)" d="M1562.49 1551.89 L1562.49 1579.28 L1555.04 1579.28 L1555.04 1552.13 Q1555.04 1545.69 1552.52 1542.49 Q1550.01 1539.29 1544.99 1539.29 Q1538.95 1539.29 1535.47 1543.14 Q1531.99 1546.99 1531.99 1553.63 L1531.99 1579.28 L1524.49 1579.28 L1524.49 1533.91 L1531.99 1533.91 L1531.99 1540.95 Q1534.66 1536.86 1538.27 1534.84 Q1541.91 1532.81 1546.65 1532.81 Q1554.47 1532.81 1558.48 1537.67 Q1562.49 1542.49 1562.49 1551.89 Z" fill="#000000" fill-rule="evenodd" fill-opacity="1" /><path clip-path="url(#clip550)" d="M1606.28 1535.24 L1606.28 1542.29 Q1603.12 1540.67 1599.72 1539.86 Q1596.31 1539.05 1592.67 1539.05 Q1587.12 1539.05 1584.32 1540.75 Q1581.57 1542.45 1581.57 1545.86 Q1581.57 1548.45 1583.55 1549.95 Q1585.54 1551.41 1591.53 1552.74 L1594.09 1553.31 Q1602.03 1555.01 1605.35 1558.13 Q1608.71 1561.21 1608.71 1566.76 Q1608.71 1573.08 1603.69 1576.76 Q1598.7 1580.45 1589.95 1580.45 Q1586.31 1580.45 1582.34 1579.72 Q1578.41 1579.03 1574.03 1577.61 L1574.03 1569.92 Q1578.17 1572.07 1582.18 1573.16 Q1586.19 1574.21 1590.12 1574.21 Q1595.38 1574.21 1598.22 1572.43 Q1601.05 1570.61 1601.05 1567.33 Q1601.05 1564.29 1598.99 1562.67 Q1596.96 1561.05 1590.04 1559.55 L1587.44 1558.94 Q1580.52 1557.48 1577.44 1554.48 Q1574.36 1551.45 1574.36 1546.18 Q1574.36 1539.78 1578.9 1536.3 Q1583.43 1532.81 1591.78 1532.81 Q1595.91 1532.81 1599.56 1533.42 Q1603.2 1534.03 1606.28 1535.24 Z" fill="#000000" fill-rule="evenodd" fill-opacity="1" /><polyline clip-path="url(#clip552)" style="stroke:#000000; stroke-linecap:butt; stroke-linejoin:round; stroke-width:2; stroke-opacity:0.1; fill:none" points="
  488.943,1354.85 2352.76,1354.85 
  "/>
<polyline clip-path="url(#clip552)" style="stroke:#000000; stroke-linecap:butt; stroke-linejoin:round; stroke-width:2; stroke-opacity:0.1; fill:none" points="
  488.943,1049.74 2352.76,1049.74 
  "/>
<polyline clip-path="url(#clip552)" style="stroke:#000000; stroke-linecap:butt; stroke-linejoin:round; stroke-width:2; stroke-opacity:0.1; fill:none" points="
  488.943,744.62 2352.76,744.62 
  "/>
<polyline clip-path="url(#clip552)" style="stroke:#000000; stroke-linecap:butt; stroke-linejoin:round; stroke-width:2; stroke-opacity:0.1; fill:none" points="
  488.943,439.503 2352.76,439.503 
  "/>
<polyline clip-path="url(#clip552)" style="stroke:#000000; stroke-linecap:butt; stroke-linejoin:round; stroke-width:2; stroke-opacity:0.1; fill:none" points="
  488.943,134.386 2352.76,134.386 
  "/>
<polyline clip-path="url(#clip550)" style="stroke:#000000; stroke-linecap:butt; stroke-linejoin:round; stroke-width:4; stroke-opacity:1; fill:none" points="
  488.943,1392.94 488.943,47.2441 
  "/>
<polyline clip-path="url(#clip550)" style="stroke:#000000; stroke-linecap:butt; stroke-linejoin:round; stroke-width:4; stroke-opacity:1; fill:none" points="
  488.943,1354.85 507.841,1354.85 
  "/>
<polyline clip-path="url(#clip550)" style="stroke:#000000; stroke-linecap:butt; stroke-linejoin:round; stroke-width:4; stroke-opacity:1; fill:none" points="
  488.943,1049.74 507.841,1049.74 
  "/>
<polyline clip-path="url(#clip550)" style="stroke:#000000; stroke-linecap:butt; stroke-linejoin:round; stroke-width:4; stroke-opacity:1; fill:none" points="
  488.943,744.62 507.841,744.62 
  "/>
<polyline clip-path="url(#clip550)" style="stroke:#000000; stroke-linecap:butt; stroke-linejoin:round; stroke-width:4; stroke-opacity:1; fill:none" points="
  488.943,439.503 507.841,439.503 
  "/>
<polyline clip-path="url(#clip550)" style="stroke:#000000; stroke-linecap:butt; stroke-linejoin:round; stroke-width:4; stroke-opacity:1; fill:none" points="
  488.943,134.386 507.841,134.386 
  "/>
<path clip-path="url(#clip550)" d="M435.027 1333.55 Q429.61 1333.55 426.867 1338.9 Q424.159 1344.21 424.159 1354.91 Q424.159 1365.57 426.867 1370.91 Q429.61 1376.23 435.027 1376.23 Q440.478 1376.23 443.186 1370.91 Q445.929 1365.57 445.929 1354.91 Q445.929 1344.21 443.186 1338.9 Q440.478 1333.55 435.027 1333.55 M435.027 1328 Q443.742 1328 448.325 1334.91 Q452.943 1341.78 452.943 1354.91 Q452.943 1368 448.325 1374.91 Q443.742 1381.78 435.027 1381.78 Q426.311 1381.78 421.693 1374.91 Q417.11 1368 417.11 1354.91 Q417.11 1341.78 421.693 1334.91 Q426.311 1328 435.027 1328 Z" fill="#000000" fill-rule="evenodd" fill-opacity="1" /><path clip-path="url(#clip550)" d="M135.658 1079.43 L160.137 1079.43 L160.137 1085.33 L127.22 1085.33 L127.22 1079.43 Q131.213 1075.29 138.088 1068.35 Q144.998 1061.37 146.769 1059.36 Q150.137 1055.57 151.456 1052.97 Q152.81 1050.33 152.81 1047.79 Q152.81 1043.66 149.894 1041.06 Q147.012 1038.45 142.359 1038.45 Q139.06 1038.45 135.38 1039.6 Q131.734 1040.75 127.567 1043.07 L127.567 1035.99 Q131.803 1034.29 135.484 1033.42 Q139.165 1032.55 142.22 1032.55 Q150.276 1032.55 155.067 1036.58 Q159.859 1040.61 159.859 1047.34 Q159.859 1050.54 158.644 1053.42 Q157.463 1056.27 154.303 1060.15 Q153.435 1061.16 148.783 1065.99 Q144.13 1070.78 135.658 1079.43 Z" fill="#000000" fill-rule="evenodd" fill-opacity="1" /><path clip-path="url(#clip550)" d="M174.859 1076.51 L182.185 1076.51 L182.185 1085.33 L174.859 1085.33 L174.859 1076.51 Z" fill="#000000" fill-rule="evenodd" fill-opacity="1" /><path clip-path="url(#clip550)" d="M197.532 1033.49 L225.067 1033.49 L225.067 1039.39 L203.956 1039.39 L203.956 1052.1 Q205.484 1051.58 207.011 1051.34 Q208.539 1051.06 210.067 1051.06 Q218.747 1051.06 223.817 1055.81 Q228.886 1060.57 228.886 1068.7 Q228.886 1077.06 223.678 1081.72 Q218.47 1086.34 208.991 1086.34 Q205.727 1086.34 202.324 1085.78 Q198.956 1085.22 195.345 1084.11 L195.345 1077.06 Q198.47 1078.77 201.803 1079.6 Q205.136 1080.43 208.852 1080.43 Q214.859 1080.43 218.366 1077.27 Q221.872 1074.11 221.872 1068.7 Q221.872 1063.28 218.366 1060.12 Q214.859 1056.96 208.852 1056.96 Q206.039 1056.96 203.227 1057.59 Q200.449 1058.21 197.532 1059.53 L197.532 1033.49 Z" fill="#000000" fill-rule="evenodd" fill-opacity="1" /><path clip-path="url(#clip550)" d="M257.706 1038.11 Q252.289 1038.11 249.546 1043.45 Q246.838 1048.77 246.838 1059.46 Q246.838 1070.12 249.546 1075.47 Q252.289 1080.78 257.706 1080.78 Q263.157 1080.78 265.865 1075.47 Q268.608 1070.12 268.608 1059.46 Q268.608 1048.77 265.865 1043.45 Q263.157 1038.11 257.706 1038.11 M257.706 1032.55 Q266.421 1032.55 271.004 1039.46 Q275.622 1046.34 275.622 1059.46 Q275.622 1072.55 271.004 1079.46 Q266.421 1086.34 257.706 1086.34 Q248.99 1086.34 244.372 1079.46 Q239.789 1072.55 239.789 1059.46 Q239.789 1046.34 244.372 1039.46 Q248.99 1032.55 257.706 1032.55 Z" fill="#000000" fill-rule="evenodd" fill-opacity="1" /><path clip-path="url(#clip550)" d="M330.205 1047.13 L314.337 1063.07 L330.205 1078.94 L326.073 1083.14 L310.136 1067.2 L294.198 1083.14 L290.101 1078.94 L305.934 1063.07 L290.101 1047.13 L294.198 1042.93 L310.136 1058.87 L326.073 1042.93 L330.205 1047.13 Z" fill="#000000" fill-rule="evenodd" fill-opacity="1" /><path clip-path="url(#clip550)" d="M348.747 1079.43 L360.205 1079.43 L360.205 1039.88 L347.74 1042.38 L347.74 1035.99 L360.136 1033.49 L367.149 1033.49 L367.149 1079.43 L378.608 1079.43 L378.608 1085.33 L348.747 1085.33 L348.747 1079.43 Z" fill="#000000" fill-rule="evenodd" fill-opacity="1" /><path clip-path="url(#clip550)" d="M407.774 1038.11 Q402.358 1038.11 399.615 1043.45 Q396.906 1048.77 396.906 1059.46 Q396.906 1070.12 399.615 1075.47 Q402.358 1080.78 407.774 1080.78 Q413.226 1080.78 415.934 1075.47 Q418.677 1070.12 418.677 1059.46 Q418.677 1048.77 415.934 1043.45 Q413.226 1038.11 407.774 1038.11 M407.774 1032.55 Q416.489 1032.55 421.073 1039.46 Q425.691 1046.34 425.691 1059.46 Q425.691 1072.55 421.073 1079.46 Q416.489 1086.34 407.774 1086.34 Q399.059 1086.34 394.441 1079.46 Q389.858 1072.55 389.858 1059.46 Q389.858 1046.34 394.441 1039.46 Q399.059 1032.55 407.774 1032.55 Z" fill="#000000" fill-rule="evenodd" fill-opacity="1" /><path clip-path="url(#clip550)" d="M427.468 1002.09 L449.84 1002.09 L449.84 1006.89 L432.687 1006.89 L432.687 1017.21 Q433.929 1016.79 435.17 1016.59 Q436.411 1016.37 437.653 1016.37 Q444.705 1016.37 448.824 1020.23 Q452.943 1024.1 452.943 1030.7 Q452.943 1037.5 448.711 1041.28 Q444.48 1045.03 436.778 1045.03 Q434.126 1045.03 431.361 1044.58 Q428.625 1044.13 425.691 1043.23 L425.691 1037.5 Q428.23 1038.88 430.938 1039.56 Q433.646 1040.23 436.665 1040.23 Q441.546 1040.23 444.395 1037.67 Q447.244 1035.1 447.244 1030.7 Q447.244 1026.3 444.395 1023.73 Q441.546 1021.16 436.665 1021.16 Q434.38 1021.16 432.095 1021.67 Q429.838 1022.18 427.468 1023.25 L427.468 1002.09 Z" fill="#000000" fill-rule="evenodd" fill-opacity="1" /><path clip-path="url(#clip550)" d="M129.685 728.371 L157.22 728.371 L157.22 734.274 L136.109 734.274 L136.109 746.982 Q137.637 746.461 139.165 746.218 Q140.692 745.941 142.22 745.941 Q150.901 745.941 155.97 750.698 Q161.039 755.455 161.039 763.579 Q161.039 771.947 155.831 776.6 Q150.623 781.218 141.144 781.218 Q137.88 781.218 134.477 780.663 Q131.109 780.107 127.498 778.996 L127.498 771.947 Q130.623 773.649 133.956 774.482 Q137.29 775.316 141.005 775.316 Q147.012 775.316 150.519 772.156 Q154.026 768.996 154.026 763.579 Q154.026 758.163 150.519 755.003 Q147.012 751.843 141.005 751.843 Q138.192 751.843 135.38 752.468 Q132.602 753.093 129.685 754.413 L129.685 728.371 Z" fill="#000000" fill-rule="evenodd" fill-opacity="1" /><path clip-path="url(#clip550)" d="M174.859 771.392 L182.185 771.392 L182.185 780.211 L174.859 780.211 L174.859 771.392 Z" fill="#000000" fill-rule="evenodd" fill-opacity="1" /><path clip-path="url(#clip550)" d="M212.463 732.989 Q207.046 732.989 204.303 738.337 Q201.595 743.649 201.595 754.343 Q201.595 765.003 204.303 770.35 Q207.046 775.663 212.463 775.663 Q217.914 775.663 220.622 770.35 Q223.365 765.003 223.365 754.343 Q223.365 743.649 220.622 738.337 Q217.914 732.989 212.463 732.989 M212.463 727.434 Q221.178 727.434 225.761 734.344 Q230.379 741.218 230.379 754.343 Q230.379 767.434 225.761 774.343 Q221.178 781.218 212.463 781.218 Q203.748 781.218 199.129 774.343 Q194.546 767.434 194.546 754.343 Q194.546 741.218 199.129 734.344 Q203.748 727.434 212.463 727.434 Z" fill="#000000" fill-rule="evenodd" fill-opacity="1" /><path clip-path="url(#clip550)" d="M257.706 732.989 Q252.289 732.989 249.546 738.337 Q246.838 743.649 246.838 754.343 Q246.838 765.003 249.546 770.35 Q252.289 775.663 257.706 775.663 Q263.157 775.663 265.865 770.35 Q268.608 765.003 268.608 754.343 Q268.608 743.649 265.865 738.337 Q263.157 732.989 257.706 732.989 M257.706 727.434 Q266.421 727.434 271.004 734.344 Q275.622 741.218 275.622 754.343 Q275.622 767.434 271.004 774.343 Q266.421 781.218 257.706 781.218 Q248.99 781.218 244.372 774.343 Q239.789 767.434 239.789 754.343 Q239.789 741.218 244.372 734.344 Q248.99 727.434 257.706 727.434 Z" fill="#000000" fill-rule="evenodd" fill-opacity="1" /><path clip-path="url(#clip550)" d="M330.205 742.017 L314.337 757.954 L330.205 773.822 L326.073 778.024 L310.136 762.086 L294.198 778.024 L290.101 773.822 L305.934 757.954 L290.101 742.017 L294.198 737.816 L310.136 753.753 L326.073 737.816 L330.205 742.017 Z" fill="#000000" fill-rule="evenodd" fill-opacity="1" /><path clip-path="url(#clip550)" d="M348.747 774.309 L360.205 774.309 L360.205 734.76 L347.74 737.26 L347.74 730.871 L360.136 728.371 L367.149 728.371 L367.149 774.309 L378.608 774.309 L378.608 780.211 L348.747 780.211 L348.747 774.309 Z" fill="#000000" fill-rule="evenodd" fill-opacity="1" /><path clip-path="url(#clip550)" d="M407.774 732.989 Q402.358 732.989 399.615 738.337 Q396.906 743.649 396.906 754.343 Q396.906 765.003 399.615 770.35 Q402.358 775.663 407.774 775.663 Q413.226 775.663 415.934 770.35 Q418.677 765.003 418.677 754.343 Q418.677 743.649 415.934 738.337 Q413.226 732.989 407.774 732.989 M407.774 727.434 Q416.489 727.434 421.073 734.344 Q425.691 741.218 425.691 754.343 Q425.691 767.434 421.073 774.343 Q416.489 781.218 407.774 781.218 Q399.059 781.218 394.441 774.343 Q389.858 767.434 389.858 754.343 Q389.858 741.218 394.441 734.344 Q399.059 727.434 407.774 727.434 Z" fill="#000000" fill-rule="evenodd" fill-opacity="1" /><path clip-path="url(#clip550)" d="M427.468 696.976 L449.84 696.976 L449.84 701.772 L432.687 701.772 L432.687 712.097 Q433.929 711.674 435.17 711.477 Q436.411 711.251 437.653 711.251 Q444.705 711.251 448.824 715.116 Q452.943 718.981 452.943 725.582 Q452.943 732.381 448.711 736.162 Q444.48 739.914 436.778 739.914 Q434.126 739.914 431.361 739.462 Q428.625 739.011 425.691 738.108 L425.691 732.381 Q428.23 733.764 430.938 734.441 Q433.646 735.118 436.665 735.118 Q441.546 735.118 444.395 732.551 Q447.244 729.983 447.244 725.582 Q447.244 721.181 444.395 718.614 Q441.546 716.047 436.665 716.047 Q434.38 716.047 432.095 716.555 Q429.838 717.062 427.468 718.134 L427.468 696.976 Z" fill="#000000" fill-rule="evenodd" fill-opacity="1" /><path clip-path="url(#clip550)" d="M127.845 423.254 L161.178 423.254 L161.178 426.24 L142.359 475.094 L135.033 475.094 L152.741 429.157 L127.845 429.157 L127.845 423.254 Z" fill="#000000" fill-rule="evenodd" fill-opacity="1" /><path clip-path="url(#clip550)" d="M174.859 466.275 L182.185 466.275 L182.185 475.094 L174.859 475.094 L174.859 466.275 Z" fill="#000000" fill-rule="evenodd" fill-opacity="1" /><path clip-path="url(#clip550)" d="M197.532 423.254 L225.067 423.254 L225.067 429.157 L203.956 429.157 L203.956 441.865 Q205.484 441.344 207.011 441.101 Q208.539 440.824 210.067 440.824 Q218.747 440.824 223.817 445.58 Q228.886 450.337 228.886 458.462 Q228.886 466.83 223.678 471.483 Q218.47 476.101 208.991 476.101 Q205.727 476.101 202.324 475.546 Q198.956 474.99 195.345 473.879 L195.345 466.83 Q198.47 468.532 201.803 469.365 Q205.136 470.198 208.852 470.198 Q214.859 470.198 218.366 467.039 Q221.872 463.879 221.872 458.462 Q221.872 453.046 218.366 449.886 Q214.859 446.726 208.852 446.726 Q206.039 446.726 203.227 447.351 Q200.449 447.976 197.532 449.296 L197.532 423.254 Z" fill="#000000" fill-rule="evenodd" fill-opacity="1" /><path clip-path="url(#clip550)" d="M257.706 427.872 Q252.289 427.872 249.546 433.219 Q246.838 438.532 246.838 449.226 Q246.838 459.886 249.546 465.233 Q252.289 470.546 257.706 470.546 Q263.157 470.546 265.865 465.233 Q268.608 459.886 268.608 449.226 Q268.608 438.532 265.865 433.219 Q263.157 427.872 257.706 427.872 M257.706 422.317 Q266.421 422.317 271.004 429.226 Q275.622 436.101 275.622 449.226 Q275.622 462.317 271.004 469.226 Q266.421 476.101 257.706 476.101 Q248.99 476.101 244.372 469.226 Q239.789 462.317 239.789 449.226 Q239.789 436.101 244.372 429.226 Q248.99 422.317 257.706 422.317 Z" fill="#000000" fill-rule="evenodd" fill-opacity="1" /><path clip-path="url(#clip550)" d="M330.205 436.9 L314.337 452.837 L330.205 468.705 L326.073 472.907 L310.136 456.969 L294.198 472.907 L290.101 468.705 L305.934 452.837 L290.101 436.9 L294.198 432.699 L310.136 448.636 L326.073 432.699 L330.205 436.9 Z" fill="#000000" fill-rule="evenodd" fill-opacity="1" /><path clip-path="url(#clip550)" d="M348.747 469.191 L360.205 469.191 L360.205 429.643 L347.74 432.143 L347.74 425.754 L360.136 423.254 L367.149 423.254 L367.149 469.191 L378.608 469.191 L378.608 475.094 L348.747 475.094 L348.747 469.191 Z" fill="#000000" fill-rule="evenodd" fill-opacity="1" /><path clip-path="url(#clip550)" d="M407.774 427.872 Q402.358 427.872 399.615 433.219 Q396.906 438.532 396.906 449.226 Q396.906 459.886 399.615 465.233 Q402.358 470.546 407.774 470.546 Q413.226 470.546 415.934 465.233 Q418.677 459.886 418.677 449.226 Q418.677 438.532 415.934 433.219 Q413.226 427.872 407.774 427.872 M407.774 422.317 Q416.489 422.317 421.073 429.226 Q425.691 436.101 425.691 449.226 Q425.691 462.317 421.073 469.226 Q416.489 476.101 407.774 476.101 Q399.059 476.101 394.441 469.226 Q389.858 462.317 389.858 449.226 Q389.858 436.101 394.441 429.226 Q399.059 422.317 407.774 422.317 Z" fill="#000000" fill-rule="evenodd" fill-opacity="1" /><path clip-path="url(#clip550)" d="M427.468 391.859 L449.84 391.859 L449.84 396.655 L432.687 396.655 L432.687 406.98 Q433.929 406.557 435.17 406.359 Q436.411 406.134 437.653 406.134 Q444.705 406.134 448.824 409.999 Q452.943 413.864 452.943 420.465 Q452.943 427.264 448.711 431.045 Q444.48 434.797 436.778 434.797 Q434.126 434.797 431.361 434.345 Q428.625 433.894 425.691 432.991 L425.691 427.264 Q428.23 428.647 430.938 429.324 Q433.646 430.001 436.665 430.001 Q441.546 430.001 444.395 427.434 Q447.244 424.866 447.244 420.465 Q447.244 416.064 444.395 413.497 Q441.546 410.93 436.665 410.93 Q434.38 410.93 432.095 411.438 Q429.838 411.945 427.468 413.017 L427.468 391.859 Z" fill="#000000" fill-rule="evenodd" fill-opacity="1" /><path clip-path="url(#clip550)" d="M128.997 164.074 L140.456 164.074 L140.456 124.526 L127.991 127.026 L127.991 120.637 L140.386 118.137 L147.4 118.137 L147.4 164.074 L158.858 164.074 L158.858 169.977 L128.997 169.977 L128.997 164.074 Z" fill="#000000" fill-rule="evenodd" fill-opacity="1" /><path clip-path="url(#clip550)" d="M173.025 161.158 L180.351 161.158 L180.351 169.977 L173.025 169.977 L173.025 161.158 Z" fill="#000000" fill-rule="evenodd" fill-opacity="1" /><path clip-path="url(#clip550)" d="M210.629 122.755 Q205.212 122.755 202.469 128.102 Q199.761 133.415 199.761 144.109 Q199.761 154.769 202.469 160.116 Q205.212 165.429 210.629 165.429 Q216.08 165.429 218.789 160.116 Q221.532 154.769 221.532 144.109 Q221.532 133.415 218.789 128.102 Q216.08 122.755 210.629 122.755 M210.629 117.2 Q219.344 117.2 223.928 124.109 Q228.546 130.984 228.546 144.109 Q228.546 157.199 223.928 164.109 Q219.344 170.984 210.629 170.984 Q201.914 170.984 197.296 164.109 Q192.712 157.199 192.712 144.109 Q192.712 130.984 197.296 124.109 Q201.914 117.2 210.629 117.2 Z" fill="#000000" fill-rule="evenodd" fill-opacity="1" /><path clip-path="url(#clip550)" d="M255.872 122.755 Q250.455 122.755 247.712 128.102 Q245.004 133.415 245.004 144.109 Q245.004 154.769 247.712 160.116 Q250.455 165.429 255.872 165.429 Q261.323 165.429 264.031 160.116 Q266.775 154.769 266.775 144.109 Q266.775 133.415 264.031 128.102 Q261.323 122.755 255.872 122.755 M255.872 117.2 Q264.587 117.2 269.17 124.109 Q273.788 130.984 273.788 144.109 Q273.788 157.199 269.17 164.109 Q264.587 170.984 255.872 170.984 Q247.157 170.984 242.539 164.109 Q237.955 157.199 237.955 144.109 Q237.955 130.984 242.539 124.109 Q247.157 117.2 255.872 117.2 Z" fill="#000000" fill-rule="evenodd" fill-opacity="1" /><path clip-path="url(#clip550)" d="M328.371 131.783 L312.503 147.72 L328.371 163.588 L324.24 167.79 L308.302 151.852 L292.365 167.79 L288.267 163.588 L304.101 147.72 L288.267 131.783 L292.365 127.582 L308.302 143.519 L324.24 127.582 L328.371 131.783 Z" fill="#000000" fill-rule="evenodd" fill-opacity="1" /><path clip-path="url(#clip550)" d="M346.913 164.074 L358.371 164.074 L358.371 124.526 L345.906 127.026 L345.906 120.637 L358.302 118.137 L365.316 118.137 L365.316 164.074 L376.774 164.074 L376.774 169.977 L346.913 169.977 L346.913 164.074 Z" fill="#000000" fill-rule="evenodd" fill-opacity="1" /><path clip-path="url(#clip550)" d="M405.94 122.755 Q400.524 122.755 397.781 128.102 Q395.072 133.415 395.072 144.109 Q395.072 154.769 397.781 160.116 Q400.524 165.429 405.94 165.429 Q411.392 165.429 414.1 160.116 Q416.843 154.769 416.843 144.109 Q416.843 133.415 414.1 128.102 Q411.392 122.755 405.94 122.755 M405.94 117.2 Q414.656 117.2 419.239 124.109 Q423.857 130.984 423.857 144.109 Q423.857 157.199 419.239 164.109 Q414.656 170.984 405.94 170.984 Q397.225 170.984 392.607 164.109 Q388.024 157.199 388.024 144.109 Q388.024 130.984 392.607 124.109 Q397.225 117.2 405.94 117.2 Z" fill="#000000" fill-rule="evenodd" fill-opacity="1" /><path clip-path="url(#clip550)" d="M438.894 105.53 Q435.057 105.53 432.8 108.154 Q430.571 110.778 430.571 115.348 Q430.571 119.89 432.8 122.542 Q435.057 125.166 438.894 125.166 Q442.731 125.166 444.959 122.542 Q447.216 119.89 447.216 115.348 Q447.216 110.778 444.959 108.154 Q442.731 105.53 438.894 105.53 M450.207 87.6725 L450.207 92.8635 Q448.063 91.8478 445.862 91.3118 Q443.69 90.7758 441.546 90.7758 Q435.903 90.7758 432.913 94.5844 Q429.951 98.3929 429.528 106.095 Q431.192 103.64 433.703 102.343 Q436.214 101.017 439.232 101.017 Q445.58 101.017 449.248 104.882 Q452.943 108.718 452.943 115.348 Q452.943 121.837 449.106 125.758 Q445.27 129.68 438.894 129.68 Q431.587 129.68 427.722 124.094 Q423.857 118.48 423.857 107.844 Q423.857 97.8569 428.597 91.9325 Q433.336 85.9798 441.32 85.9798 Q443.464 85.9798 445.636 86.403 Q447.837 86.8262 450.207 87.6725 Z" fill="#000000" fill-rule="evenodd" fill-opacity="1" /><path clip-path="url(#clip550)" d="M17.2547 881.5 L25.8831 881.5 Q22.0348 885.632 20.1308 890.331 Q18.2269 894.99 18.2269 900.256 Q18.2269 910.626 24.5868 916.135 Q30.9062 921.645 42.8969 921.645 Q54.8471 921.645 61.207 916.135 Q67.5264 910.626 67.5264 900.256 Q67.5264 894.99 65.6225 890.331 Q63.7186 885.632 59.8702 881.5 L68.4176 881.5 Q71.3343 885.794 72.7926 890.615 Q74.2509 895.395 74.2509 900.742 Q74.2509 914.475 65.8655 922.374 Q57.4397 930.273 42.8969 930.273 Q28.3137 930.273 19.9283 922.374 Q11.5024 914.475 11.5024 900.742 Q11.5024 895.314 12.9607 890.534 Q14.3786 885.713 17.2547 881.5 Z" fill="#000000" fill-rule="evenodd" fill-opacity="1" /><path clip-path="url(#clip550)" d="M45.692 831.472 L73.0762 831.472 L73.0762 838.925 L45.9351 838.925 Q39.4942 838.925 36.2939 841.437 Q33.0937 843.948 33.0937 848.971 Q33.0937 855.007 36.9421 858.491 Q40.7905 861.975 47.4339 861.975 L73.0762 861.975 L73.0762 869.469 L10.0441 869.469 L10.0441 861.975 L34.7546 861.975 Q30.6632 859.301 28.6377 855.696 Q26.6123 852.05 26.6123 847.311 Q26.6123 839.492 31.4734 835.482 Q36.2939 831.472 45.692 831.472 Z" fill="#000000" fill-rule="evenodd" fill-opacity="1" /><path clip-path="url(#clip550)" d="M50.2696 795.986 Q50.2696 805.019 52.3355 808.503 Q54.4015 811.987 59.3841 811.987 Q63.354 811.987 65.7035 809.394 Q68.0125 806.761 68.0125 802.265 Q68.0125 796.067 63.6376 792.34 Q59.2221 788.573 51.9304 788.573 L50.2696 788.573 L50.2696 795.986 M47.1909 781.119 L73.0762 781.119 L73.0762 788.573 L66.1896 788.573 Q70.3215 791.125 72.3065 794.932 Q74.2509 798.74 74.2509 804.25 Q74.2509 811.217 70.3621 815.349 Q66.4327 819.44 59.8702 819.44 Q52.214 819.44 48.3251 814.336 Q44.4363 809.192 44.4363 799.024 L44.4363 788.573 L43.7071 788.573 Q38.5625 788.573 35.7673 791.975 Q32.9317 795.338 32.9317 801.454 Q32.9317 805.343 33.8634 809.03 Q34.7951 812.716 36.6585 816.119 L29.772 816.119 Q28.1921 812.027 27.4225 808.179 Q26.6123 804.331 26.6123 800.685 Q26.6123 790.841 31.7164 785.98 Q36.8206 781.119 47.1909 781.119 Z" fill="#000000" fill-rule="evenodd" fill-opacity="1" /><path clip-path="url(#clip550)" d="M34.6736 739.476 Q33.9444 740.731 33.6204 742.23 Q33.2558 743.688 33.2558 745.471 Q33.2558 751.79 37.3877 755.193 Q41.4791 758.555 49.1758 758.555 L73.0762 758.555 L73.0762 766.049 L27.706 766.049 L27.706 758.555 L34.7546 758.555 Q30.6227 756.206 28.6377 752.438 Q26.6123 748.671 26.6123 743.283 Q26.6123 742.514 26.7338 741.582 Q26.8148 740.65 27.0174 739.516 L34.6736 739.476 Z" fill="#000000" fill-rule="evenodd" fill-opacity="1" /><path clip-path="url(#clip550)" d="M49.8645 703.26 Q41.7627 703.26 37.3067 706.623 Q32.8507 709.944 32.8507 715.98 Q32.8507 721.976 37.3067 725.338 Q41.7627 728.66 49.8645 728.66 Q57.9258 728.66 62.3818 725.338 Q66.8378 721.976 66.8378 715.98 Q66.8378 709.944 62.3818 706.623 Q57.9258 703.26 49.8645 703.26 M67.4454 695.807 Q79.031 695.807 84.6617 700.951 Q90.333 706.096 90.333 716.709 Q90.333 720.639 89.7254 724.123 Q89.1582 727.606 87.943 730.888 L80.6919 730.888 Q82.4743 727.606 83.3249 724.406 Q84.1756 721.206 84.1756 717.884 Q84.1756 710.552 80.3273 706.906 Q76.5194 703.26 68.7822 703.26 L65.0959 703.26 Q69.1063 705.569 71.0912 709.175 Q73.0762 712.78 73.0762 717.803 Q73.0762 726.148 66.7162 731.252 Q60.3563 736.356 49.8645 736.356 Q39.3321 736.356 32.9722 731.252 Q26.6123 726.148 26.6123 717.803 Q26.6123 712.78 28.5972 709.175 Q30.5822 705.569 34.5926 703.26 L27.706 703.26 L27.706 695.807 L67.4454 695.807 Z" fill="#000000" fill-rule="evenodd" fill-opacity="1" /><path clip-path="url(#clip550)" d="M48.5277 641.646 L52.1735 641.646 L52.1735 675.917 Q59.8702 675.431 63.9211 671.299 Q67.9315 667.126 67.9315 659.713 Q67.9315 655.419 66.8783 651.409 Q65.825 647.358 63.7186 643.388 L70.7671 643.388 Q72.4685 647.398 73.3597 651.611 Q74.2509 655.824 74.2509 660.159 Q74.2509 671.015 67.9315 677.375 Q61.6121 683.695 50.8367 683.695 Q39.6967 683.695 33.1748 677.699 Q26.6123 671.663 26.6123 661.455 Q26.6123 652.3 32.5266 646.993 Q38.4004 641.646 48.5277 641.646 M46.3402 649.1 Q40.2233 649.181 36.5775 652.543 Q32.9317 655.865 32.9317 661.374 Q32.9317 667.613 36.456 671.38 Q39.9803 675.107 46.3807 675.674 L46.3402 649.1 Z" fill="#000000" fill-rule="evenodd" fill-opacity="1" /><path clip-path="url(#clip550)" d="M12.5962 589.795 L12.5962 582.908 L80.7729 603.973 L80.7729 610.859 L12.5962 589.795 Z" fill="#000000" fill-rule="evenodd" fill-opacity="1" /><path clip-path="url(#clip550)" d="M48.5277 509.911 L52.1735 509.911 L52.1735 544.181 Q59.8702 543.695 63.9211 539.563 Q67.9315 535.391 67.9315 527.978 Q67.9315 523.684 66.8783 519.673 Q65.825 515.623 63.7186 511.653 L70.7671 511.653 Q72.4685 515.663 73.3597 519.876 Q74.2509 524.089 74.2509 528.423 Q74.2509 539.28 67.9315 545.64 Q61.6121 551.959 50.8367 551.959 Q39.6967 551.959 33.1748 545.964 Q26.6123 539.928 26.6123 529.72 Q26.6123 520.565 32.5266 515.258 Q38.4004 509.911 48.5277 509.911 M46.3402 517.364 Q40.2233 517.445 36.5775 520.808 Q32.9317 524.129 32.9317 529.639 Q32.9317 535.877 36.456 539.644 Q39.9803 543.371 46.3807 543.938 L46.3402 517.364 Z" fill="#000000" fill-rule="evenodd" fill-opacity="1" /><polyline clip-path="url(#clip552)" style="stroke:#009af9; stroke-linecap:butt; stroke-linejoin:round; stroke-width:6; stroke-opacity:1; fill:none" points="
  488.943,1354.85 497.415,1353.29 505.887,1351.75 514.359,1350.19 522.831,1348.62 531.303,1347.09 539.774,1345.56 548.246,1344.01 556.718,1342.45 565.19,1340.91 
  573.662,1339.42 582.134,1337.96 590.606,1336.47 599.078,1334.97 607.549,1333.53 616.021,1332.14 624.493,1330.74 632.965,1329.31 641.437,1327.84 649.909,1326.33 
  658.381,1324.86 666.853,1323.46 675.325,1322.13 683.796,1320.85 692.268,1319.55 700.74,1318.22 709.212,1316.91 717.684,1315.58 726.156,1314.21 734.628,1312.81 
  743.1,1311.72 751.571,1310.6 760.043,1309.44 768.515,1308.25 776.987,1307.01 785.459,1305.74 793.931,1304.42 802.403,1303.03 810.875,1301.58 819.346,1300.08 
  827.818,1298.52 836.29,1296.89 844.762,1295.2 853.234,1293.46 861.706,1291.64 870.178,1289.74 878.65,1287.78 887.121,1285.75 895.593,1283.61 904.065,1281.39 
  912.537,1279.09 921.009,1276.69 929.481,1274.18 937.953,1271.57 946.425,1268.84 954.896,1265.97 963.368,1263.01 971.84,1259.85 980.312,1256.59 988.784,1253.14 
  997.256,1249.52 1005.73,1245.73 1014.2,1241.67 1022.67,1237.45 1031.14,1232.92 1039.62,1228.08 1048.09,1222.93 1056.56,1217.39 1065.03,1211.43 1073.5,1204.95 
  1081.97,1197.91 1090.45,1190.2 1098.92,1181.7 1107.39,1172.28 1115.86,1161.73 1124.33,1149.85 1132.81,1136.44 1141.28,1121.09 1149.75,1103.41 1158.22,1082.97 
  1166.69,1059.14 1175.17,1031.24 1183.64,998.495 1192.11,959.861 1200.58,914.393 1209.05,861.443 1217.52,801.271 1226,735.765 1234.47,706.701 1242.94,705.339 
  1251.41,703.903 1259.88,702.408 1268.36,700.843 1276.83,699.199 1285.3,697.498 1293.77,695.698 1302.24,693.814 1310.72,691.865 1319.19,689.771 1327.66,687.594 
  1336.13,685.294 1344.6,682.853 1353.07,680.297 1361.55,677.555 1370.02,674.624 1378.49,671.499 1386.96,668.143 1395.43,664.523 1403.91,660.576 1412.38,656.272 
  1420.85,651.548 1429.32,646.336 1437.79,640.531 1446.27,634.049 1454.74,626.715 1463.21,618.418 1471.68,608.909 1480.15,597.977 1488.62,585.316 1497.1,570.549 
  1505.57,553.201 1514.04,532.767 1522.51,508.654 1530.98,480.118 1539.46,446.571 1547.93,407.851 1556.4,364.709 1564.87,326.828 1573.34,326.57 1581.82,326.31 
  1590.29,326.043 1598.76,325.769 1607.23,325.485 1615.7,325.187 1624.17,324.882 1632.65,324.568 1641.12,324.246 1649.59,323.916 1658.06,323.574 1666.53,323.211 
  1675.01,322.836 1683.48,322.45 1691.95,322.051 1700.42,321.64 1708.89,321.218 1717.37,320.772 1725.84,320.308 1734.31,319.827 1742.78,319.329 1751.25,318.801 
  1759.72,318.254 1768.2,317.688 1776.67,317.1 1785.14,316.477 1793.61,315.832 1802.08,315.164 1810.56,314.464 1819.03,313.727 1827.5,312.963 1835.97,312.172 
  1844.44,311.332 1852.92,310.458 1861.39,309.549 1869.86,308.582 1878.33,307.581 1886.8,306.526 1895.27,305.412 1903.75,304.259 1912.22,303.017 1920.69,301.725 
  1929.16,300.353 1937.63,298.894 1946.11,297.36 1954.58,295.716 1963.05,293.947 1971.52,292.052 1979.99,290.009 1988.47,287.799 1996.94,285.383 2005.41,282.737 
  2013.88,279.824 2022.35,276.571 2030.82,272.954 2039.3,268.872 2047.77,264.246 2056.24,258.996 2064.71,252.933 2073.18,245.923 2081.66,237.781 2090.13,228.226 
  2098.6,216.958 2107.07,203.701 2115.54,187.986 2124.02,169.416 2132.49,147.727 2140.96,123.035 2149.43,96.1405 2157.9,85.3303 2166.37,85.3298 2174.85,85.3298 
  
  "/>
</svg>
