<?xml version="1.0" encoding="utf-8"?>
<svg xmlns="http://www.w3.org/2000/svg" xmlns:xlink="http://www.w3.org/1999/xlink" width="600" height="400" viewBox="0 0 2400 1600">
<defs>
  <clipPath id="clip200">
    <rect x="0" y="0" width="2400" height="1600"/>
  </clipPath>
</defs>
<path clip-path="url(#clip200)" d="
M0 1600 L2400 1600 L2400 0 L0 0  Z
  " fill="#ffffff" fill-rule="evenodd" fill-opacity="1"/>
<defs>
  <clipPath id="clip201">
    <rect x="480" y="0" width="1681" height="1600"/>
  </clipPath>
</defs>
<path clip-path="url(#clip200)" d="
M445.534 1392.94 L2352.76 1392.94 L2352.76 47.2441 L445.534 47.2441  Z
  " fill="#ffffff" fill-rule="evenodd" fill-opacity="1"/>
<defs>
  <clipPath id="clip202">
    <rect x="445" y="47" width="1908" height="1347"/>
  </clipPath>
</defs>
<polyline clip-path="url(#clip202)" style="stroke:#000000; stroke-linecap:butt; stroke-linejoin:round; stroke-width:2; stroke-opacity:0.1; fill:none" points="
  445.534,1392.94 445.534,47.2441 
  "/>
<polyline clip-path="url(#clip202)" style="stroke:#000000; stroke-linecap:butt; stroke-linejoin:round; stroke-width:2; stroke-opacity:0.1; fill:none" points="
  878.994,1392.94 878.994,47.2441 
  "/>
<polyline clip-path="url(#clip202)" style="stroke:#000000; stroke-linecap:butt; stroke-linejoin:round; stroke-width:2; stroke-opacity:0.1; fill:none" points="
  1312.45,1392.94 1312.45,47.2441 
  "/>
<polyline clip-path="url(#clip202)" style="stroke:#000000; stroke-linecap:butt; stroke-linejoin:round; stroke-width:2; stroke-opacity:0.1; fill:none" points="
  1745.91,1392.94 1745.91,47.2441 
  "/>
<polyline clip-path="url(#clip202)" style="stroke:#000000; stroke-linecap:butt; stroke-linejoin:round; stroke-width:2; stroke-opacity:0.1; fill:none" points="
  2179.37,1392.94 2179.37,47.2441 
  "/>
<polyline clip-path="url(#clip200)" style="stroke:#000000; stroke-linecap:butt; stroke-linejoin:round; stroke-width:4; stroke-opacity:1; fill:none" points="
  445.534,1392.94 2352.76,1392.94 
  "/>
<polyline clip-path="url(#clip200)" style="stroke:#000000; stroke-linecap:butt; stroke-linejoin:round; stroke-width:4; stroke-opacity:1; fill:none" points="
  445.534,1392.94 445.534,1376.79 
  "/>
<polyline clip-path="url(#clip200)" style="stroke:#000000; stroke-linecap:butt; stroke-linejoin:round; stroke-width:4; stroke-opacity:1; fill:none" points="
  878.994,1392.94 878.994,1376.79 
  "/>
<polyline clip-path="url(#clip200)" style="stroke:#000000; stroke-linecap:butt; stroke-linejoin:round; stroke-width:4; stroke-opacity:1; fill:none" points="
  1312.45,1392.94 1312.45,1376.79 
  "/>
<polyline clip-path="url(#clip200)" style="stroke:#000000; stroke-linecap:butt; stroke-linejoin:round; stroke-width:4; stroke-opacity:1; fill:none" points="
  1745.91,1392.94 1745.91,1376.79 
  "/>
<polyline clip-path="url(#clip200)" style="stroke:#000000; stroke-linecap:butt; stroke-linejoin:round; stroke-width:4; stroke-opacity:1; fill:none" points="
  2179.37,1392.94 2179.37,1376.79 
  "/>
<path clip-path="url(#clip200)" d="M445.534 1427.13 Q440.118 1427.13 437.375 1432.47 Q434.666 1437.79 434.666 1448.48 Q434.666 1459.14 437.375 1464.49 Q440.118 1469.8 445.534 1469.8 Q450.986 1469.8 453.694 1464.49 Q456.437 1459.14 456.437 1448.48 Q456.437 1437.79 453.694 1432.47 Q450.986 1427.13 445.534 1427.13 M445.534 1421.57 Q454.249 1421.57 458.833 1428.48 Q463.451 1435.35 463.451 1448.48 Q463.451 1461.57 458.833 1468.48 Q454.249 1475.35 445.534 1475.35 Q436.819 1475.35 432.201 1468.48 Q427.618 1461.57 427.618 1448.48 Q427.618 1435.35 432.201 1428.48 Q436.819 1421.57 445.534 1421.57 Z" fill="#000000" fill-rule="evenodd" fill-opacity="1" /><path clip-path="url(#clip200)" d="M824.532 1468.45 L849.011 1468.45 L849.011 1474.35 L816.095 1474.35 L816.095 1468.45 Q820.088 1464.31 826.963 1457.37 Q833.872 1450.39 835.643 1448.38 Q839.011 1444.59 840.331 1441.99 Q841.685 1439.35 841.685 1436.81 Q841.685 1432.68 838.768 1430.08 Q835.886 1427.47 831.234 1427.47 Q827.935 1427.47 824.254 1428.62 Q820.609 1429.76 816.442 1432.09 L816.442 1425.01 Q820.678 1423.31 824.359 1422.44 Q828.039 1421.57 831.095 1421.57 Q839.15 1421.57 843.942 1425.6 Q848.733 1429.63 848.733 1436.36 Q848.733 1439.56 847.518 1442.44 Q846.338 1445.29 843.178 1449.17 Q842.31 1450.18 837.657 1455.01 Q833.004 1459.8 824.532 1468.45 Z" fill="#000000" fill-rule="evenodd" fill-opacity="1" /><path clip-path="url(#clip200)" d="M863.803 1422.51 L891.337 1422.51 L891.337 1428.41 L870.226 1428.41 L870.226 1441.12 Q871.754 1440.6 873.282 1440.35 Q874.81 1440.08 876.337 1440.08 Q885.018 1440.08 890.087 1444.83 Q895.157 1449.59 895.157 1457.72 Q895.157 1466.08 889.948 1470.74 Q884.74 1475.35 875.261 1475.35 Q871.997 1475.35 868.594 1474.8 Q865.226 1474.24 861.615 1473.13 L861.615 1466.08 Q864.74 1467.79 868.074 1468.62 Q871.407 1469.45 875.122 1469.45 Q881.129 1469.45 884.636 1466.29 Q888.143 1463.13 888.143 1457.72 Q888.143 1452.3 884.636 1449.14 Q881.129 1445.98 875.122 1445.98 Q872.31 1445.98 869.497 1446.6 Q866.719 1447.23 863.803 1448.55 L863.803 1422.51 Z" fill="#000000" fill-rule="evenodd" fill-opacity="1" /><path clip-path="url(#clip200)" d="M923.976 1427.13 Q918.559 1427.13 915.816 1432.47 Q913.108 1437.79 913.108 1448.48 Q913.108 1459.14 915.816 1464.49 Q918.559 1469.8 923.976 1469.8 Q929.427 1469.8 932.136 1464.49 Q934.879 1459.14 934.879 1448.48 Q934.879 1437.79 932.136 1432.47 Q929.427 1427.13 923.976 1427.13 M923.976 1421.57 Q932.691 1421.57 937.275 1428.48 Q941.893 1435.35 941.893 1448.48 Q941.893 1461.57 937.275 1468.48 Q932.691 1475.35 923.976 1475.35 Q915.261 1475.35 910.643 1468.48 Q906.059 1461.57 906.059 1448.48 Q906.059 1435.35 910.643 1428.48 Q915.261 1421.57 923.976 1421.57 Z" fill="#000000" fill-rule="evenodd" fill-opacity="1" /><path clip-path="url(#clip200)" d="M1251.88 1422.51 L1279.42 1422.51 L1279.42 1428.41 L1258.3 1428.41 L1258.3 1441.12 Q1259.83 1440.6 1261.36 1440.35 Q1262.89 1440.08 1264.42 1440.08 Q1273.1 1440.08 1278.17 1444.83 Q1283.23 1449.59 1283.23 1457.72 Q1283.23 1466.08 1278.03 1470.74 Q1272.82 1475.35 1263.34 1475.35 Q1260.07 1475.35 1256.67 1474.8 Q1253.3 1474.24 1249.69 1473.13 L1249.69 1466.08 Q1252.82 1467.79 1256.15 1468.62 Q1259.48 1469.45 1263.2 1469.45 Q1269.21 1469.45 1272.71 1466.29 Q1276.22 1463.13 1276.22 1457.72 Q1276.22 1452.3 1272.71 1449.14 Q1269.21 1445.98 1263.2 1445.98 Q1260.39 1445.98 1257.57 1446.6 Q1254.8 1447.23 1251.88 1448.55 L1251.88 1422.51 Z" fill="#000000" fill-rule="evenodd" fill-opacity="1" /><path clip-path="url(#clip200)" d="M1312.05 1427.13 Q1306.64 1427.13 1303.89 1432.47 Q1301.19 1437.79 1301.19 1448.48 Q1301.19 1459.14 1303.89 1464.49 Q1306.64 1469.8 1312.05 1469.8 Q1317.51 1469.8 1320.21 1464.49 Q1322.96 1459.14 1322.96 1448.48 Q1322.96 1437.79 1320.21 1432.47 Q1317.51 1427.13 1312.05 1427.13 M1312.05 1421.57 Q1320.77 1421.57 1325.35 1428.48 Q1329.97 1435.35 1329.97 1448.48 Q1329.97 1461.57 1325.35 1468.48 Q1320.77 1475.35 1312.05 1475.35 Q1303.34 1475.35 1298.72 1468.48 Q1294.14 1461.57 1294.14 1448.48 Q1294.14 1435.35 1298.72 1428.48 Q1303.34 1421.57 1312.05 1421.57 Z" fill="#000000" fill-rule="evenodd" fill-opacity="1" /><path clip-path="url(#clip200)" d="M1357.3 1427.13 Q1351.88 1427.13 1349.14 1432.47 Q1346.43 1437.79 1346.43 1448.48 Q1346.43 1459.14 1349.14 1464.49 Q1351.88 1469.8 1357.3 1469.8 Q1362.75 1469.8 1365.46 1464.49 Q1368.2 1459.14 1368.2 1448.48 Q1368.2 1437.79 1365.46 1432.47 Q1362.75 1427.13 1357.3 1427.13 M1357.3 1421.57 Q1366.01 1421.57 1370.6 1428.48 Q1375.21 1435.35 1375.21 1448.48 Q1375.21 1461.57 1370.6 1468.48 Q1366.01 1475.35 1357.3 1475.35 Q1348.58 1475.35 1343.96 1468.48 Q1339.38 1461.57 1339.38 1448.48 Q1339.38 1435.35 1343.96 1428.48 Q1348.58 1421.57 1357.3 1421.57 Z" fill="#000000" fill-rule="evenodd" fill-opacity="1" /><path clip-path="url(#clip200)" d="M1683.33 1422.51 L1716.66 1422.51 L1716.66 1425.49 L1697.84 1474.35 L1690.51 1474.35 L1708.22 1428.41 L1683.33 1428.41 L1683.33 1422.51 Z" fill="#000000" fill-rule="evenodd" fill-opacity="1" /><path clip-path="url(#clip200)" d="M1730.41 1422.51 L1757.94 1422.51 L1757.94 1428.41 L1736.83 1428.41 L1736.83 1441.12 Q1738.36 1440.6 1739.89 1440.35 Q1741.42 1440.08 1742.94 1440.08 Q1751.62 1440.08 1756.69 1444.83 Q1761.76 1449.59 1761.76 1457.72 Q1761.76 1466.08 1756.55 1470.74 Q1751.35 1475.35 1741.87 1475.35 Q1738.6 1475.35 1735.2 1474.8 Q1731.83 1474.24 1728.22 1473.13 L1728.22 1466.08 Q1731.35 1467.79 1734.68 1468.62 Q1738.01 1469.45 1741.73 1469.45 Q1747.74 1469.45 1751.24 1466.29 Q1754.75 1463.13 1754.75 1457.72 Q1754.75 1452.3 1751.24 1449.14 Q1747.74 1445.98 1741.73 1445.98 Q1738.92 1445.98 1736.1 1446.6 Q1733.33 1447.23 1730.41 1448.55 L1730.41 1422.51 Z" fill="#000000" fill-rule="evenodd" fill-opacity="1" /><path clip-path="url(#clip200)" d="M1790.58 1427.13 Q1785.17 1427.13 1782.42 1432.47 Q1779.71 1437.79 1779.71 1448.48 Q1779.71 1459.14 1782.42 1464.49 Q1785.17 1469.8 1790.58 1469.8 Q1796.03 1469.8 1798.74 1464.49 Q1801.49 1459.14 1801.49 1448.48 Q1801.49 1437.79 1798.74 1432.47 Q1796.03 1427.13 1790.58 1427.13 M1790.58 1421.57 Q1799.3 1421.57 1803.88 1428.48 Q1808.5 1435.35 1808.5 1448.48 Q1808.5 1461.57 1803.88 1468.48 Q1799.3 1475.35 1790.58 1475.35 Q1781.87 1475.35 1777.25 1468.48 Q1772.67 1461.57 1772.67 1448.48 Q1772.67 1435.35 1777.25 1428.48 Q1781.87 1421.57 1790.58 1421.57 Z" fill="#000000" fill-rule="evenodd" fill-opacity="1" /><path clip-path="url(#clip200)" d="M2096.16 1468.45 L2107.62 1468.45 L2107.62 1428.9 L2095.15 1431.4 L2095.15 1425.01 L2107.55 1422.51 L2114.56 1422.51 L2114.56 1468.45 L2126.02 1468.45 L2126.02 1474.35 L2096.16 1474.35 L2096.16 1468.45 Z" fill="#000000" fill-rule="evenodd" fill-opacity="1" /><path clip-path="url(#clip200)" d="M2155.19 1427.13 Q2149.77 1427.13 2147.03 1432.47 Q2144.32 1437.79 2144.32 1448.48 Q2144.32 1459.14 2147.03 1464.49 Q2149.77 1469.8 2155.19 1469.8 Q2160.64 1469.8 2163.35 1464.49 Q2166.09 1459.14 2166.09 1448.48 Q2166.09 1437.79 2163.35 1432.47 Q2160.64 1427.13 2155.19 1427.13 M2155.19 1421.57 Q2163.9 1421.57 2168.49 1428.48 Q2173.1 1435.35 2173.1 1448.48 Q2173.1 1461.57 2168.49 1468.48 Q2163.9 1475.35 2155.19 1475.35 Q2146.47 1475.35 2141.85 1468.48 Q2137.27 1461.57 2137.27 1448.48 Q2137.27 1435.35 2141.85 1428.48 Q2146.47 1421.57 2155.19 1421.57 Z" fill="#000000" fill-rule="evenodd" fill-opacity="1" /><path clip-path="url(#clip200)" d="M2200.43 1427.13 Q2195.01 1427.13 2192.27 1432.47 Q2189.56 1437.79 2189.56 1448.48 Q2189.56 1459.14 2192.27 1464.49 Q2195.01 1469.8 2200.43 1469.8 Q2205.88 1469.8 2208.59 1464.49 Q2211.33 1459.14 2211.33 1448.48 Q2211.33 1437.79 2208.59 1432.47 Q2205.88 1427.13 2200.43 1427.13 M2200.43 1421.57 Q2209.15 1421.57 2213.73 1428.48 Q2218.35 1435.35 2218.35 1448.48 Q2218.35 1461.57 2213.73 1468.48 Q2209.15 1475.35 2200.43 1475.35 Q2191.72 1475.35 2187.1 1468.48 Q2182.51 1461.57 2182.51 1448.48 Q2182.51 1435.35 2187.1 1428.48 Q2191.72 1421.57 2200.43 1421.57 Z" fill="#000000" fill-rule="evenodd" fill-opacity="1" /><path clip-path="url(#clip200)" d="M2245.67 1427.13 Q2240.26 1427.13 2237.51 1432.47 Q2234.81 1437.79 2234.81 1448.48 Q2234.81 1459.14 2237.51 1464.49 Q2240.26 1469.8 2245.67 1469.8 Q2251.13 1469.8 2253.83 1464.49 Q2256.58 1459.14 2256.58 1448.48 Q2256.58 1437.79 2253.83 1432.47 Q2251.13 1427.13 2245.67 1427.13 M2245.67 1421.57 Q2254.39 1421.57 2258.97 1428.48 Q2263.59 1435.35 2263.59 1448.48 Q2263.59 1461.57 2258.97 1468.48 Q2254.39 1475.35 2245.67 1475.35 Q2236.96 1475.35 2232.34 1468.48 Q2227.76 1461.57 2227.76 1448.48 Q2227.76 1435.35 2232.34 1428.48 Q2236.96 1421.57 2245.67 1421.57 Z" fill="#000000" fill-rule="evenodd" fill-opacity="1" /><path clip-path="url(#clip200)" d="M1211.28 1518.8 L1262.45 1518.8 L1262.45 1525.68 L1240.98 1525.68 L1240.98 1579.28 L1232.75 1579.28 L1232.75 1525.68 L1211.28 1525.68 L1211.28 1518.8 Z" fill="#000000" fill-rule="evenodd" fill-opacity="1" /><path clip-path="url(#clip200)" d="M1267.47 1533.91 L1274.92 1533.91 L1274.92 1579.28 L1267.47 1579.28 L1267.47 1533.91 M1267.47 1516.24 L1274.92 1516.24 L1274.92 1525.68 L1267.47 1525.68 L1267.47 1516.24 Z" fill="#000000" fill-rule="evenodd" fill-opacity="1" /><path clip-path="url(#clip200)" d="M1325.84 1542.62 Q1328.64 1537.59 1332.53 1535.2 Q1336.42 1532.81 1341.68 1532.81 Q1348.77 1532.81 1352.62 1537.79 Q1356.47 1542.74 1356.47 1551.89 L1356.47 1579.28 L1348.97 1579.28 L1348.97 1552.13 Q1348.97 1545.61 1346.67 1542.45 Q1344.36 1539.29 1339.62 1539.29 Q1333.82 1539.29 1330.46 1543.14 Q1327.1 1546.99 1327.1 1553.63 L1327.1 1579.28 L1319.61 1579.28 L1319.61 1552.13 Q1319.61 1545.57 1317.3 1542.45 Q1314.99 1539.29 1310.17 1539.29 Q1304.46 1539.29 1301.09 1543.18 Q1297.73 1547.03 1297.73 1553.63 L1297.73 1579.28 L1290.24 1579.28 L1290.24 1533.91 L1297.73 1533.91 L1297.73 1540.95 Q1300.28 1536.78 1303.85 1534.8 Q1307.41 1532.81 1312.31 1532.81 Q1317.26 1532.81 1320.7 1535.32 Q1324.18 1537.84 1325.84 1542.62 Z" fill="#000000" fill-rule="evenodd" fill-opacity="1" /><path clip-path="url(#clip200)" d="M1410.14 1554.73 L1410.14 1558.37 L1375.87 1558.37 Q1376.36 1566.07 1380.49 1570.12 Q1384.66 1574.13 1392.08 1574.13 Q1396.37 1574.13 1400.38 1573.08 Q1404.43 1572.02 1408.4 1569.92 L1408.4 1576.97 Q1404.39 1578.67 1400.18 1579.56 Q1395.97 1580.45 1391.63 1580.45 Q1380.77 1580.45 1374.41 1574.13 Q1368.09 1567.81 1368.09 1557.04 Q1368.09 1545.9 1374.09 1539.37 Q1380.13 1532.81 1390.33 1532.81 Q1399.49 1532.81 1404.8 1538.73 Q1410.14 1544.6 1410.14 1554.73 M1402.69 1552.54 Q1402.61 1546.42 1399.25 1542.78 Q1395.92 1539.13 1390.42 1539.13 Q1384.18 1539.13 1380.41 1542.66 Q1376.68 1546.18 1376.12 1552.58 L1402.69 1552.54 Z" fill="#000000" fill-rule="evenodd" fill-opacity="1" /><path clip-path="url(#clip200)" d="M1461.99 1518.8 L1468.88 1518.8 L1447.82 1586.97 L1440.93 1586.97 L1461.99 1518.8 Z" fill="#000000" fill-rule="evenodd" fill-opacity="1" /><path clip-path="url(#clip200)" d="M1540.78 1551.89 L1540.78 1579.28 L1533.33 1579.28 L1533.33 1552.13 Q1533.33 1545.69 1530.82 1542.49 Q1528.31 1539.29 1523.29 1539.29 Q1517.25 1539.29 1513.77 1543.14 Q1510.28 1546.99 1510.28 1553.63 L1510.28 1579.28 L1502.79 1579.28 L1502.79 1533.91 L1510.28 1533.91 L1510.28 1540.95 Q1512.96 1536.86 1516.56 1534.84 Q1520.21 1532.81 1524.95 1532.81 Q1532.76 1532.81 1536.77 1537.67 Q1540.78 1542.49 1540.78 1551.89 Z" fill="#000000" fill-rule="evenodd" fill-opacity="1" /><path clip-path="url(#clip200)" d="M1584.58 1535.24 L1584.58 1542.29 Q1581.42 1540.67 1578.01 1539.86 Q1574.61 1539.05 1570.96 1539.05 Q1565.41 1539.05 1562.62 1540.75 Q1559.86 1542.45 1559.86 1545.86 Q1559.86 1548.45 1561.85 1549.95 Q1563.83 1551.41 1569.83 1552.74 L1572.38 1553.31 Q1580.32 1555.01 1583.64 1558.13 Q1587.01 1561.21 1587.01 1566.76 Q1587.01 1573.08 1581.98 1576.76 Q1577 1580.45 1568.25 1580.45 Q1564.6 1580.45 1560.63 1579.72 Q1556.7 1579.03 1552.33 1577.61 L1552.33 1569.92 Q1556.46 1572.07 1560.47 1573.16 Q1564.48 1574.21 1568.41 1574.21 Q1573.68 1574.21 1576.51 1572.43 Q1579.35 1570.61 1579.35 1567.33 Q1579.35 1564.29 1577.28 1562.67 Q1575.26 1561.05 1568.33 1559.55 L1565.74 1558.94 Q1558.81 1557.48 1555.73 1554.48 Q1552.65 1551.45 1552.65 1546.18 Q1552.65 1539.78 1557.19 1536.3 Q1561.73 1532.81 1570.07 1532.81 Q1574.2 1532.81 1577.85 1533.42 Q1581.5 1534.03 1584.58 1535.24 Z" fill="#000000" fill-rule="evenodd" fill-opacity="1" /><polyline clip-path="url(#clip202)" style="stroke:#000000; stroke-linecap:butt; stroke-linejoin:round; stroke-width:2; stroke-opacity:0.1; fill:none" points="
  445.534,1354.85 2352.76,1354.85 
  "/>
<polyline clip-path="url(#clip202)" style="stroke:#000000; stroke-linecap:butt; stroke-linejoin:round; stroke-width:2; stroke-opacity:0.1; fill:none" points="
  445.534,941.184 2352.76,941.184 
  "/>
<polyline clip-path="url(#clip202)" style="stroke:#000000; stroke-linecap:butt; stroke-linejoin:round; stroke-width:2; stroke-opacity:0.1; fill:none" points="
  445.534,527.513 2352.76,527.513 
  "/>
<polyline clip-path="url(#clip202)" style="stroke:#000000; stroke-linecap:butt; stroke-linejoin:round; stroke-width:2; stroke-opacity:0.1; fill:none" points="
  445.534,113.842 2352.76,113.842 
  "/>
<polyline clip-path="url(#clip200)" style="stroke:#000000; stroke-linecap:butt; stroke-linejoin:round; stroke-width:4; stroke-opacity:1; fill:none" points="
  445.534,1392.94 445.534,47.2441 
  "/>
<polyline clip-path="url(#clip200)" style="stroke:#000000; stroke-linecap:butt; stroke-linejoin:round; stroke-width:4; stroke-opacity:1; fill:none" points="
  445.534,1354.85 468.421,1354.85 
  "/>
<polyline clip-path="url(#clip200)" style="stroke:#000000; stroke-linecap:butt; stroke-linejoin:round; stroke-width:4; stroke-opacity:1; fill:none" points="
  445.534,941.184 468.421,941.184 
  "/>
<polyline clip-path="url(#clip200)" style="stroke:#000000; stroke-linecap:butt; stroke-linejoin:round; stroke-width:4; stroke-opacity:1; fill:none" points="
  445.534,527.513 468.421,527.513 
  "/>
<polyline clip-path="url(#clip200)" style="stroke:#000000; stroke-linecap:butt; stroke-linejoin:round; stroke-width:4; stroke-opacity:1; fill:none" points="
  445.534,113.842 468.421,113.842 
  "/>
<path clip-path="url(#clip200)" d="M391.618 1333.55 Q386.201 1333.55 383.458 1338.9 Q380.75 1344.21 380.75 1354.91 Q380.75 1365.57 383.458 1370.91 Q386.201 1376.23 391.618 1376.23 Q397.069 1376.23 399.777 1370.91 Q402.52 1365.57 402.52 1354.91 Q402.52 1344.21 399.777 1338.9 Q397.069 1333.55 391.618 1333.55 M391.618 1328 Q400.333 1328 404.916 1334.91 Q409.534 1341.78 409.534 1354.91 Q409.534 1368 404.916 1374.91 Q400.333 1381.78 391.618 1381.78 Q382.902 1381.78 378.284 1374.91 Q373.701 1368 373.701 1354.91 Q373.701 1341.78 378.284 1334.91 Q382.902 1328 391.618 1328 Z" fill="#000000" fill-rule="evenodd" fill-opacity="1" /><path clip-path="url(#clip200)" d="M130.831 970.872 L142.29 970.872 L142.29 931.324 L129.824 933.824 L129.824 927.435 L142.22 924.935 L149.234 924.935 L149.234 970.872 L160.692 970.872 L160.692 976.775 L130.831 976.775 L130.831 970.872 Z" fill="#000000" fill-rule="evenodd" fill-opacity="1" /><path clip-path="url(#clip200)" d="M174.859 967.956 L182.185 967.956 L182.185 976.775 L174.859 976.775 L174.859 967.956 Z" fill="#000000" fill-rule="evenodd" fill-opacity="1" /><path clip-path="url(#clip200)" d="M212.463 929.553 Q207.046 929.553 204.303 934.9 Q201.595 940.213 201.595 950.907 Q201.595 961.567 204.303 966.914 Q207.046 972.226 212.463 972.226 Q217.914 972.226 220.622 966.914 Q223.365 961.567 223.365 950.907 Q223.365 940.213 220.622 934.9 Q217.914 929.553 212.463 929.553 M212.463 923.997 Q221.178 923.997 225.761 930.907 Q230.379 937.782 230.379 950.907 Q230.379 963.997 225.761 970.907 Q221.178 977.782 212.463 977.782 Q203.748 977.782 199.129 970.907 Q194.546 963.997 194.546 950.907 Q194.546 937.782 199.129 930.907 Q203.748 923.997 212.463 923.997 Z" fill="#000000" fill-rule="evenodd" fill-opacity="1" /><path clip-path="url(#clip200)" d="M284.962 938.581 L269.094 954.518 L284.962 970.386 L280.83 974.587 L264.893 958.65 L248.956 974.587 L244.858 970.386 L260.692 954.518 L244.858 938.581 L248.956 934.379 L264.893 950.317 L280.83 934.379 L284.962 938.581 Z" fill="#000000" fill-rule="evenodd" fill-opacity="1" /><path clip-path="url(#clip200)" d="M303.504 970.872 L314.962 970.872 L314.962 931.324 L302.497 933.824 L302.497 927.435 L314.893 924.935 L321.907 924.935 L321.907 970.872 L333.365 970.872 L333.365 976.775 L303.504 976.775 L303.504 970.872 Z" fill="#000000" fill-rule="evenodd" fill-opacity="1" /><path clip-path="url(#clip200)" d="M362.531 929.553 Q357.115 929.553 354.372 934.9 Q351.663 940.213 351.663 950.907 Q351.663 961.567 354.372 966.914 Q357.115 972.226 362.531 972.226 Q367.983 972.226 370.691 966.914 Q373.434 961.567 373.434 950.907 Q373.434 940.213 370.691 934.9 Q367.983 929.553 362.531 929.553 M362.531 923.997 Q371.247 923.997 375.83 930.907 Q380.448 937.782 380.448 950.907 Q380.448 963.997 375.83 970.907 Q371.247 977.782 362.531 977.782 Q353.816 977.782 349.198 970.907 Q344.615 963.997 344.615 950.907 Q344.615 937.782 349.198 930.907 Q353.816 923.997 362.531 923.997 Z" fill="#000000" fill-rule="evenodd" fill-opacity="1" /><path clip-path="url(#clip200)" d="M395.485 912.328 Q391.648 912.328 389.391 914.952 Q387.162 917.576 387.162 922.146 Q387.162 926.688 389.391 929.34 Q391.648 931.964 395.485 931.964 Q399.322 931.964 401.55 929.34 Q403.807 926.688 403.807 922.146 Q403.807 917.576 401.55 914.952 Q399.322 912.328 395.485 912.328 M406.798 894.47 L406.798 899.661 Q404.654 898.646 402.453 898.11 Q400.281 897.574 398.137 897.574 Q392.494 897.574 389.504 901.382 Q386.542 905.191 386.119 912.893 Q387.783 910.438 390.294 909.14 Q392.805 907.814 395.823 907.814 Q402.171 907.814 405.838 911.679 Q409.534 915.516 409.534 922.146 Q409.534 928.635 405.697 932.556 Q401.861 936.477 395.485 936.477 Q388.178 936.477 384.313 930.892 Q380.448 925.277 380.448 914.642 Q380.448 904.655 385.188 898.73 Q389.927 892.778 397.911 892.778 Q400.055 892.778 402.227 893.201 Q404.428 893.624 406.798 894.47 Z" fill="#000000" fill-rule="evenodd" fill-opacity="1" /><path clip-path="url(#clip200)" d="M135.658 557.202 L160.137 557.202 L160.137 563.104 L127.22 563.104 L127.22 557.202 Q131.213 553.07 138.088 546.125 Q144.998 539.146 146.769 537.132 Q150.137 533.348 151.456 530.743 Q152.81 528.105 152.81 525.57 Q152.81 521.438 149.894 518.834 Q147.012 516.23 142.359 516.23 Q139.06 516.23 135.38 517.375 Q131.734 518.521 127.567 520.848 L127.567 513.764 Q131.803 512.063 135.484 511.195 Q139.165 510.327 142.22 510.327 Q150.276 510.327 155.067 514.355 Q159.859 518.382 159.859 525.118 Q159.859 528.313 158.644 531.195 Q157.463 534.042 154.303 537.931 Q153.435 538.938 148.783 543.764 Q144.13 548.556 135.658 557.202 Z" fill="#000000" fill-rule="evenodd" fill-opacity="1" /><path clip-path="url(#clip200)" d="M174.859 554.285 L182.185 554.285 L182.185 563.104 L174.859 563.104 L174.859 554.285 Z" fill="#000000" fill-rule="evenodd" fill-opacity="1" /><path clip-path="url(#clip200)" d="M212.463 515.882 Q207.046 515.882 204.303 521.23 Q201.595 526.542 201.595 537.236 Q201.595 547.896 204.303 553.243 Q207.046 558.556 212.463 558.556 Q217.914 558.556 220.622 553.243 Q223.365 547.896 223.365 537.236 Q223.365 526.542 220.622 521.23 Q217.914 515.882 212.463 515.882 M212.463 510.327 Q221.178 510.327 225.761 517.237 Q230.379 524.112 230.379 537.236 Q230.379 550.327 225.761 557.236 Q221.178 564.111 212.463 564.111 Q203.748 564.111 199.129 557.236 Q194.546 550.327 194.546 537.236 Q194.546 524.112 199.129 517.237 Q203.748 510.327 212.463 510.327 Z" fill="#000000" fill-rule="evenodd" fill-opacity="1" /><path clip-path="url(#clip200)" d="M284.962 524.91 L269.094 540.848 L284.962 556.716 L280.83 560.917 L264.893 544.979 L248.956 560.917 L244.858 556.716 L260.692 540.848 L244.858 524.91 L248.956 520.709 L264.893 536.646 L280.83 520.709 L284.962 524.91 Z" fill="#000000" fill-rule="evenodd" fill-opacity="1" /><path clip-path="url(#clip200)" d="M303.504 557.202 L314.962 557.202 L314.962 517.653 L302.497 520.153 L302.497 513.764 L314.893 511.264 L321.907 511.264 L321.907 557.202 L333.365 557.202 L333.365 563.104 L303.504 563.104 L303.504 557.202 Z" fill="#000000" fill-rule="evenodd" fill-opacity="1" /><path clip-path="url(#clip200)" d="M362.531 515.882 Q357.115 515.882 354.372 521.23 Q351.663 526.542 351.663 537.236 Q351.663 547.896 354.372 553.243 Q357.115 558.556 362.531 558.556 Q367.983 558.556 370.691 553.243 Q373.434 547.896 373.434 537.236 Q373.434 526.542 370.691 521.23 Q367.983 515.882 362.531 515.882 M362.531 510.327 Q371.247 510.327 375.83 517.237 Q380.448 524.112 380.448 537.236 Q380.448 550.327 375.83 557.236 Q371.247 564.111 362.531 564.111 Q353.816 564.111 349.198 557.236 Q344.615 550.327 344.615 537.236 Q344.615 524.112 349.198 517.237 Q353.816 510.327 362.531 510.327 Z" fill="#000000" fill-rule="evenodd" fill-opacity="1" /><path clip-path="url(#clip200)" d="M395.485 498.658 Q391.648 498.658 389.391 501.281 Q387.162 503.905 387.162 508.475 Q387.162 513.017 389.391 515.669 Q391.648 518.293 395.485 518.293 Q399.322 518.293 401.55 515.669 Q403.807 513.017 403.807 508.475 Q403.807 503.905 401.55 501.281 Q399.322 498.658 395.485 498.658 M406.798 480.8 L406.798 485.991 Q404.654 484.975 402.453 484.439 Q400.281 483.903 398.137 483.903 Q392.494 483.903 389.504 487.712 Q386.542 491.52 386.119 499.222 Q387.783 496.768 390.294 495.47 Q392.805 494.144 395.823 494.144 Q402.171 494.144 405.838 498.009 Q409.534 501.846 409.534 508.475 Q409.534 514.964 405.697 518.885 Q401.861 522.807 395.485 522.807 Q388.178 522.807 384.313 517.221 Q380.448 511.607 380.448 500.971 Q380.448 490.984 385.188 485.06 Q389.927 479.107 397.911 479.107 Q400.055 479.107 402.227 479.53 Q404.428 479.953 406.798 480.8 Z" fill="#000000" fill-rule="evenodd" fill-opacity="1" /><path clip-path="url(#clip200)" d="M150.866 121.483 Q155.901 122.559 158.713 125.962 Q161.56 129.364 161.56 134.364 Q161.56 142.038 156.283 146.239 Q151.005 150.441 141.283 150.441 Q138.019 150.441 134.547 149.781 Q131.109 149.156 127.428 147.871 L127.428 141.1 Q130.345 142.802 133.817 143.67 Q137.29 144.538 141.074 144.538 Q147.671 144.538 151.109 141.934 Q154.581 139.33 154.581 134.364 Q154.581 129.781 151.352 127.212 Q148.158 124.608 142.428 124.608 L136.387 124.608 L136.387 118.844 L142.706 118.844 Q147.88 118.844 150.623 116.795 Q153.366 114.712 153.366 110.823 Q153.366 106.83 150.519 104.712 Q147.706 102.559 142.428 102.559 Q139.546 102.559 136.248 103.184 Q132.949 103.809 128.991 105.128 L128.991 98.8785 Q132.984 97.7674 136.456 97.2118 Q139.963 96.6563 143.053 96.6563 Q151.039 96.6563 155.692 100.302 Q160.345 103.913 160.345 110.094 Q160.345 114.399 157.88 117.385 Q155.414 120.337 150.866 121.483 Z" fill="#000000" fill-rule="evenodd" fill-opacity="1" /><path clip-path="url(#clip200)" d="M174.859 140.614 L182.185 140.614 L182.185 149.434 L174.859 149.434 L174.859 140.614 Z" fill="#000000" fill-rule="evenodd" fill-opacity="1" /><path clip-path="url(#clip200)" d="M212.463 102.212 Q207.046 102.212 204.303 107.559 Q201.595 112.871 201.595 123.566 Q201.595 134.226 204.303 139.573 Q207.046 144.885 212.463 144.885 Q217.914 144.885 220.622 139.573 Q223.365 134.226 223.365 123.566 Q223.365 112.871 220.622 107.559 Q217.914 102.212 212.463 102.212 M212.463 96.6563 Q221.178 96.6563 225.761 103.566 Q230.379 110.441 230.379 123.566 Q230.379 136.656 225.761 143.566 Q221.178 150.441 212.463 150.441 Q203.748 150.441 199.129 143.566 Q194.546 136.656 194.546 123.566 Q194.546 110.441 199.129 103.566 Q203.748 96.6563 212.463 96.6563 Z" fill="#000000" fill-rule="evenodd" fill-opacity="1" /><path clip-path="url(#clip200)" d="M284.962 111.24 L269.094 127.177 L284.962 143.045 L280.83 147.246 L264.893 131.309 L248.956 147.246 L244.858 143.045 L260.692 127.177 L244.858 111.24 L248.956 107.038 L264.893 122.976 L280.83 107.038 L284.962 111.24 Z" fill="#000000" fill-rule="evenodd" fill-opacity="1" /><path clip-path="url(#clip200)" d="M303.504 143.531 L314.962 143.531 L314.962 103.983 L302.497 106.483 L302.497 100.094 L314.893 97.5938 L321.907 97.5938 L321.907 143.531 L333.365 143.531 L333.365 149.434 L303.504 149.434 L303.504 143.531 Z" fill="#000000" fill-rule="evenodd" fill-opacity="1" /><path clip-path="url(#clip200)" d="M362.531 102.212 Q357.115 102.212 354.372 107.559 Q351.663 112.871 351.663 123.566 Q351.663 134.226 354.372 139.573 Q357.115 144.885 362.531 144.885 Q367.983 144.885 370.691 139.573 Q373.434 134.226 373.434 123.566 Q373.434 112.871 370.691 107.559 Q367.983 102.212 362.531 102.212 M362.531 96.6563 Q371.247 96.6563 375.83 103.566 Q380.448 110.441 380.448 123.566 Q380.448 136.656 375.83 143.566 Q371.247 150.441 362.531 150.441 Q353.816 150.441 349.198 143.566 Q344.615 136.656 344.615 123.566 Q344.615 110.441 349.198 103.566 Q353.816 96.6563 362.531 96.6563 Z" fill="#000000" fill-rule="evenodd" fill-opacity="1" /><path clip-path="url(#clip200)" d="M395.485 84.9871 Q391.648 84.9871 389.391 87.6108 Q387.162 90.2345 387.162 94.8048 Q387.162 99.3469 389.391 101.999 Q391.648 104.622 395.485 104.622 Q399.322 104.622 401.55 101.999 Q403.807 99.3469 403.807 94.8048 Q403.807 90.2345 401.55 87.6108 Q399.322 84.9871 395.485 84.9871 M406.798 67.1292 L406.798 72.3201 Q404.654 71.3045 402.453 70.7685 Q400.281 70.2324 398.137 70.2324 Q392.494 70.2324 389.504 74.041 Q386.542 77.8496 386.119 85.5514 Q387.783 83.097 390.294 81.7992 Q392.805 80.4733 395.823 80.4733 Q402.171 80.4733 405.838 84.3383 Q409.534 88.1751 409.534 94.8048 Q409.534 101.293 405.697 105.215 Q401.861 109.136 395.485 109.136 Q388.178 109.136 384.313 103.55 Q380.448 97.9363 380.448 87.3005 Q380.448 77.3136 385.188 71.3891 Q389.927 65.4365 397.911 65.4365 Q400.055 65.4365 402.227 65.8596 Q404.428 66.2828 406.798 67.1292 Z" fill="#000000" fill-rule="evenodd" fill-opacity="1" /><path clip-path="url(#clip200)" d="M12.5962 955.146 L12.5962 916.905 L19.4827 916.905 L19.4827 946.963 L37.3877 946.963 L37.3877 918.161 L44.2742 918.161 L44.2742 946.963 L66.1896 946.963 L66.1896 916.176 L73.0762 916.176 L73.0762 955.146 L12.5962 955.146 Z" fill="#000000" fill-rule="evenodd" fill-opacity="1" /><path clip-path="url(#clip200)" d="M45.692 865.337 L73.0762 865.337 L73.0762 872.791 L45.9351 872.791 Q39.4942 872.791 36.2939 875.302 Q33.0937 877.814 33.0937 882.837 Q33.0937 888.873 36.9421 892.357 Q40.7905 895.84 47.4339 895.84 L73.0762 895.84 L73.0762 903.335 L27.706 903.335 L27.706 895.84 L34.7546 895.84 Q30.6632 893.167 28.6377 889.562 Q26.6123 885.916 26.6123 881.176 Q26.6123 873.358 31.4734 869.348 Q36.2939 865.337 45.692 865.337 Z" fill="#000000" fill-rule="evenodd" fill-opacity="1" /><path clip-path="url(#clip200)" d="M48.5277 811.663 L52.1735 811.663 L52.1735 845.933 Q59.8702 845.447 63.9211 841.315 Q67.9315 837.143 67.9315 829.73 Q67.9315 825.436 66.8783 821.425 Q65.825 817.374 63.7186 813.405 L70.7671 813.405 Q72.4685 817.415 73.3597 821.628 Q74.2509 825.841 74.2509 830.175 Q74.2509 841.032 67.9315 847.392 Q61.6121 853.711 50.8367 853.711 Q39.6967 853.711 33.1748 847.716 Q26.6123 841.68 26.6123 831.472 Q26.6123 822.317 32.5266 817.01 Q38.4004 811.663 48.5277 811.663 M46.3402 819.116 Q40.2233 819.197 36.5775 822.56 Q32.9317 825.881 32.9317 831.391 Q32.9317 837.629 36.456 841.396 Q39.9803 845.123 46.3807 845.69 L46.3402 819.116 Z" fill="#000000" fill-rule="evenodd" fill-opacity="1" /><path clip-path="url(#clip200)" d="M34.6736 773.139 Q33.9444 774.394 33.6204 775.893 Q33.2558 777.351 33.2558 779.134 Q33.2558 785.453 37.3877 788.856 Q41.4791 792.218 49.1758 792.218 L73.0762 792.218 L73.0762 799.712 L27.706 799.712 L27.706 792.218 L34.7546 792.218 Q30.6227 789.869 28.6377 786.101 Q26.6123 782.334 26.6123 776.946 Q26.6123 776.177 26.7338 775.245 Q26.8148 774.313 27.0174 773.179 L34.6736 773.139 Z" fill="#000000" fill-rule="evenodd" fill-opacity="1" /><path clip-path="url(#clip200)" d="M49.8645 736.923 Q41.7627 736.923 37.3067 740.286 Q32.8507 743.607 32.8507 749.643 Q32.8507 755.639 37.3067 759.001 Q41.7627 762.323 49.8645 762.323 Q57.9258 762.323 62.3818 759.001 Q66.8378 755.639 66.8378 749.643 Q66.8378 743.607 62.3818 740.286 Q57.9258 736.923 49.8645 736.923 M67.4454 729.47 Q79.031 729.47 84.6617 734.614 Q90.333 739.759 90.333 750.372 Q90.333 754.302 89.7254 757.786 Q89.1582 761.269 87.943 764.551 L80.6919 764.551 Q82.4743 761.269 83.3249 758.069 Q84.1756 754.869 84.1756 751.547 Q84.1756 744.215 80.3273 740.569 Q76.5194 736.923 68.7822 736.923 L65.0959 736.923 Q69.1063 739.232 71.0912 742.838 Q73.0762 746.443 73.0762 751.466 Q73.0762 759.811 66.7162 764.915 Q60.3563 770.019 49.8645 770.019 Q39.3321 770.019 32.9722 764.915 Q26.6123 759.811 26.6123 751.466 Q26.6123 746.443 28.5972 742.838 Q30.5822 739.232 34.5926 736.923 L27.706 736.923 L27.706 729.47 L67.4454 729.47 Z" fill="#000000" fill-rule="evenodd" fill-opacity="1" /><path clip-path="url(#clip200)" d="M77.2891 695.24 Q85.3909 698.399 87.862 701.397 Q90.333 704.395 90.333 709.418 L90.333 715.373 L84.0946 715.373 L84.0946 710.998 Q84.0946 707.919 82.6363 706.218 Q81.178 704.516 75.7498 702.45 L72.347 701.113 L27.706 719.464 L27.706 711.565 L63.192 697.387 L27.706 683.208 L27.706 675.309 L77.2891 695.24 Z" fill="#000000" fill-rule="evenodd" fill-opacity="1" /><path clip-path="url(#clip200)" d="M12.5962 625.402 L12.5962 618.516 L80.7729 639.58 L80.7729 646.467 L12.5962 625.402 Z" fill="#000000" fill-rule="evenodd" fill-opacity="1" /><path clip-path="url(#clip200)" d="M48.5277 545.518 L52.1735 545.518 L52.1735 579.789 Q59.8702 579.303 63.9211 575.171 Q67.9315 570.998 67.9315 563.585 Q67.9315 559.291 66.8783 555.281 Q65.825 551.23 63.7186 547.26 L70.7671 547.26 Q72.4685 551.271 73.3597 555.483 Q74.2509 559.696 74.2509 564.031 Q74.2509 574.887 67.9315 581.247 Q61.6121 587.567 50.8367 587.567 Q39.6967 587.567 33.1748 581.571 Q26.6123 575.535 26.6123 565.327 Q26.6123 556.172 32.5266 550.865 Q38.4004 545.518 48.5277 545.518 M46.3402 552.972 Q40.2233 553.053 36.5775 556.415 Q32.9317 559.737 32.9317 565.246 Q32.9317 571.485 36.456 575.252 Q39.9803 578.979 46.3807 579.546 L46.3402 552.972 Z" fill="#000000" fill-rule="evenodd" fill-opacity="1" /><path clip-path="url(#clip200)" d="M73.0762 517.364 L12.5962 540.455 L12.5962 531.907 L63.516 512.746 L12.5962 493.545 L12.5962 485.038 L73.0762 508.088 L73.0762 517.364 Z" fill="#000000" fill-rule="evenodd" fill-opacity="1" /><polyline clip-path="url(#clip202)" style="stroke:#009af9; stroke-linecap:butt; stroke-linejoin:round; stroke-width:6; stroke-opacity:1; fill:none" points="
  445.534,1354.85 454.203,1353.3 462.873,1351.73 471.542,1350.17 480.211,1348.6 488.88,1347.05 497.549,1345.5 506.219,1343.95 514.888,1342.42 523.557,1340.89 
  532.226,1339.39 540.895,1337.89 549.564,1336.41 558.234,1334.93 566.903,1333.46 575.572,1332.01 584.241,1330.56 592.91,1329.11 601.58,1327.65 610.249,1326.2 
  618.918,1324.73 627.587,1323.26 636.256,1322 644.926,1320.74 653.595,1319.46 662.264,1318.17 670.933,1316.82 679.602,1315.48 688.271,1314.12 696.941,1312.77 
  705.61,1311.6 714.279,1310.47 722.948,1309.31 731.617,1308.1 740.287,1306.86 748.956,1305.59 757.625,1304.26 766.294,1302.86 774.963,1301.41 783.633,1299.92 
  792.302,1298.37 800.971,1296.77 809.64,1295.1 818.309,1293.36 826.979,1291.51 835.648,1289.63 844.317,1287.69 852.986,1285.68 861.655,1283.55 870.324,1281.32 
  878.994,1279.01 887.663,1276.62 896.332,1274.15 905.001,1271.52 913.67,1268.75 922.34,1265.89 931.009,1262.91 939.678,1259.83 948.347,1256.53 957.016,1253.03 
  965.686,1249.4 974.355,1245.61 983.024,1241.67 991.693,1237.29 1000.36,1232.71 1009.03,1227.94 1017.7,1222.94 1026.37,1217.23 1035.04,1211.22 1043.71,1204.91 
  1052.38,1197.82 1061.05,1189.96 1069.72,1181.67 1078.39,1172.12 1087.05,1161.44 1095.72,1150.06 1104.39,1136.04 1113.06,1121.05 1121.73,1103.06 1130.4,1082.99 
  1139.07,1059.55 1147.74,1031.69 1156.41,999.174 1165.08,960.95 1173.75,916.175 1182.42,864.25 1191.08,805.208 1199.75,740.572 1208.42,706.831 1217.09,705.47 
  1225.76,704.064 1234.43,702.575 1243.1,700.997 1251.77,699.355 1260.44,697.66 1269.11,695.893 1277.78,694.055 1286.45,692.05 1295.11,689.954 1303.78,687.784 
  1312.45,685.522 1321.12,683.116 1329.79,680.483 1338.46,677.723 1347.13,674.837 1355.8,671.788 1364.47,668.312 1373.14,664.641 1381.81,660.781 1390.48,656.455 
  1399.15,651.603 1407.81,646.456 1416.48,640.655 1425.15,633.937 1433.82,626.814 1442.49,618.189 1451.16,608.684 1459.83,597.733 1468.5,584.768 1477.17,570.41 
  1485.84,552.951 1494.51,532.467 1503.18,508.379 1511.84,479.986 1520.51,446.699 1529.18,408.183 1537.85,365.348 1546.52,327.791 1555.19,327.56 1563.86,327.328 
  1572.53,327.092 1581.2,326.847 1589.87,326.593 1598.54,326.33 1607.21,326.061 1615.87,325.787 1624.54,325.507 1633.21,325.214 1641.88,324.908 1650.55,324.592 
  1659.22,324.268 1667.89,323.937 1676.56,323.596 1685.23,323.237 1693.9,322.862 1702.57,322.474 1711.24,322.075 1719.91,321.665 1728.57,321.238 1737.24,320.787 
  1745.91,320.32 1754.58,319.836 1763.25,319.334 1771.92,318.815 1780.59,318.273 1789.26,317.704 1797.93,317.109 1806.6,316.491 1815.27,315.852 1823.94,315.191 
  1832.6,314.493 1841.27,313.757 1849.94,312.988 1858.61,312.194 1867.28,311.368 1875.95,310.515 1884.62,309.589 1893.29,308.622 1901.96,307.62 1910.63,306.576 
  1919.3,305.504 1927.97,304.318 1936.63,303.076 1945.3,301.785 1953.97,300.437 1962.64,299.012 1971.31,297.434 1979.98,295.78 1988.65,294.053 1997.32,292.216 
  2005.99,290.115 2014.66,287.903 2023.33,285.577 2032,282.917 2040.67,279.961 2049.33,276.838 2058,273.192 2066.67,269.108 2075.34,264.747 2084.01,259.3 
  2092.68,253.465 2101.35,246.413 2110.02,238.489 2118.69,229.253 2127.36,218.153 2136.03,205.184 2144.7,189.866 2153.36,171.844 2162.03,150.805 2170.7,126.824 
  2179.37,100.455 2188.04,85.3301 2196.71,85.3298 2205.38,85.3298 
  "/>
</svg>
