<?xml version="1.0" encoding="utf-8"?>
<svg xmlns="http://www.w3.org/2000/svg" xmlns:xlink="http://www.w3.org/1999/xlink" width="600" height="400" viewBox="0 0 2400 1600">
<defs>
  <clipPath id="clip330">
    <rect x="0" y="0" width="2400" height="1600"/>
  </clipPath>
</defs>
<path clip-path="url(#clip330)" d="M0 1600 L2400 1600 L2400 0 L0 0  Z" fill="#ffffff" fill-rule="evenodd" fill-opacity="1"/>
<defs>
  <clipPath id="clip331">
    <rect x="480" y="0" width="1681" height="1600"/>
  </clipPath>
</defs>
<defs>
  <clipPath id="clip332">
    <rect x="211" y="47" width="2142" height="1377"/>
  </clipPath>
</defs>
<path clip-path="url(#clip332)" d="M1107.73 943.55 L1107.73 599.566 L1235.33 427.574 L1456.35 526.874 L1456.35 870.858 L1328.75 1042.85 L1107.73 943.55  Z" fill="#ffffff" fill-rule="evenodd" fill-opacity="1"/>
<polyline clip-path="url(#clip332)" style="stroke:#000000; stroke-linecap:round; stroke-linejoin:round; stroke-width:2; stroke-opacity:0.1; fill:none" points="751.911,1155.48 1149.11,811.499 1149.11,123.531 "/>
<polyline clip-path="url(#clip332)" style="stroke:#000000; stroke-linecap:round; stroke-linejoin:round; stroke-width:2; stroke-opacity:0.1; fill:none" points="862.421,1187.38 1259.62,843.401 1259.62,155.433 "/>
<polyline clip-path="url(#clip332)" style="stroke:#000000; stroke-linecap:round; stroke-linejoin:round; stroke-width:2; stroke-opacity:0.1; fill:none" points="972.931,1219.29 1370.13,875.302 1370.13,187.335 "/>
<polyline clip-path="url(#clip332)" style="stroke:#000000; stroke-linecap:round; stroke-linejoin:round; stroke-width:2; stroke-opacity:0.1; fill:none" points="1083.44,1251.19 1480.64,907.204 1480.64,219.236 "/>
<polyline clip-path="url(#clip332)" style="stroke:#000000; stroke-linecap:round; stroke-linejoin:round; stroke-width:2; stroke-opacity:0.1; fill:none" points="1193.95,1283.09 1591.15,939.105 1591.15,251.138 "/>
<polyline clip-path="url(#clip332)" style="stroke:#000000; stroke-linecap:round; stroke-linejoin:round; stroke-width:2; stroke-opacity:0.1; fill:none" points="1304.46,1314.99 1701.66,971.007 1701.66,283.039 "/>
<polyline clip-path="url(#clip332)" style="stroke:#000000; stroke-linecap:round; stroke-linejoin:round; stroke-width:2; stroke-opacity:0.1; fill:none" points="1414.97,1346.89 1812.17,1002.91 1812.17,314.941 "/>
<polyline clip-path="url(#clip330)" style="stroke:#000000; stroke-linecap:round; stroke-linejoin:round; stroke-width:4; stroke-opacity:1; fill:none" points="739.457,1151.89 1427.42,1350.49 "/>
<polyline clip-path="url(#clip330)" style="stroke:#000000; stroke-linecap:round; stroke-linejoin:round; stroke-width:4; stroke-opacity:1; fill:none" points="751.911,1155.48 756.677,1151.36 "/>
<polyline clip-path="url(#clip330)" style="stroke:#000000; stroke-linecap:round; stroke-linejoin:round; stroke-width:4; stroke-opacity:1; fill:none" points="862.421,1187.38 867.187,1183.26 "/>
<polyline clip-path="url(#clip330)" style="stroke:#000000; stroke-linecap:round; stroke-linejoin:round; stroke-width:4; stroke-opacity:1; fill:none" points="972.931,1219.29 977.697,1215.16 "/>
<polyline clip-path="url(#clip330)" style="stroke:#000000; stroke-linecap:round; stroke-linejoin:round; stroke-width:4; stroke-opacity:1; fill:none" points="1083.44,1251.19 1088.21,1247.06 "/>
<polyline clip-path="url(#clip330)" style="stroke:#000000; stroke-linecap:round; stroke-linejoin:round; stroke-width:4; stroke-opacity:1; fill:none" points="1193.95,1283.09 1198.72,1278.96 "/>
<polyline clip-path="url(#clip330)" style="stroke:#000000; stroke-linecap:round; stroke-linejoin:round; stroke-width:4; stroke-opacity:1; fill:none" points="1304.46,1314.99 1309.23,1310.86 "/>
<polyline clip-path="url(#clip330)" style="stroke:#000000; stroke-linecap:round; stroke-linejoin:round; stroke-width:4; stroke-opacity:1; fill:none" points="1414.97,1346.89 1419.74,1342.76 "/>
<path clip-path="url(#clip330)" d="M679.043 1182.21 L708.719 1182.21 L708.719 1186.14 L679.043 1186.14 L679.043 1182.21 Z" fill="#000000" fill-rule="nonzero" fill-opacity="1" /><path clip-path="url(#clip330)" d="M732.978 1180.4 Q736.335 1181.12 738.21 1183.39 Q740.108 1185.65 740.108 1188.99 Q740.108 1194.1 736.589 1196.9 Q733.071 1199.7 726.589 1199.7 Q724.414 1199.7 722.099 1199.27 Q719.807 1198.85 717.353 1197.99 L717.353 1193.48 Q719.298 1194.61 721.613 1195.19 Q723.927 1195.77 726.451 1195.77 Q730.849 1195.77 733.14 1194.03 Q735.455 1192.3 735.455 1188.99 Q735.455 1185.93 733.302 1184.22 Q731.173 1182.48 727.353 1182.48 L723.326 1182.48 L723.326 1178.64 L727.538 1178.64 Q730.988 1178.64 732.816 1177.27 Q734.645 1175.89 734.645 1173.29 Q734.645 1170.63 732.747 1169.22 Q730.872 1167.78 727.353 1167.78 Q725.432 1167.78 723.233 1168.2 Q721.034 1168.62 718.395 1169.5 L718.395 1165.33 Q721.057 1164.59 723.372 1164.22 Q725.71 1163.85 727.77 1163.85 Q733.094 1163.85 736.196 1166.28 Q739.298 1168.69 739.298 1172.81 Q739.298 1175.68 737.654 1177.67 Q736.011 1179.64 732.978 1180.4 Z" fill="#000000" fill-rule="nonzero" fill-opacity="1" /><path clip-path="url(#clip330)" d="M790.503 1214.11 L820.178 1214.11 L820.178 1218.04 L790.503 1218.04 L790.503 1214.11 Z" fill="#000000" fill-rule="nonzero" fill-opacity="1" /><path clip-path="url(#clip330)" d="M834.299 1227 L850.618 1227 L850.618 1230.94 L828.674 1230.94 L828.674 1227 Q831.336 1224.25 835.919 1219.62 Q840.525 1214.96 841.706 1213.62 Q843.951 1211.1 844.831 1209.36 Q845.734 1207.6 845.734 1205.91 Q845.734 1203.16 843.789 1201.42 Q841.868 1199.69 838.766 1199.69 Q836.567 1199.69 834.113 1200.45 Q831.683 1201.21 828.905 1202.76 L828.905 1198.04 Q831.729 1196.91 834.183 1196.33 Q836.637 1195.75 838.674 1195.75 Q844.044 1195.75 847.238 1198.44 Q850.433 1201.12 850.433 1205.61 Q850.433 1207.74 849.623 1209.66 Q848.836 1211.56 846.729 1214.15 Q846.15 1214.82 843.049 1218.04 Q839.947 1221.24 834.299 1227 Z" fill="#000000" fill-rule="nonzero" fill-opacity="1" /><path clip-path="url(#clip330)" d="M900.642 1246.01 L930.318 1246.01 L930.318 1249.94 L900.642 1249.94 L900.642 1246.01 Z" fill="#000000" fill-rule="nonzero" fill-opacity="1" /><path clip-path="url(#clip330)" d="M941.221 1258.9 L948.86 1258.9 L948.86 1232.54 L940.55 1234.2 L940.55 1229.94 L948.813 1228.28 L953.489 1228.28 L953.489 1258.9 L961.128 1258.9 L961.128 1262.84 L941.221 1262.84 L941.221 1258.9 Z" fill="#000000" fill-rule="nonzero" fill-opacity="1" /><path clip-path="url(#clip330)" d="M1059.69 1263.26 Q1056.08 1263.26 1054.25 1266.82 Q1052.45 1270.36 1052.45 1277.49 Q1052.45 1284.6 1054.25 1288.16 Q1056.08 1291.71 1059.69 1291.71 Q1063.33 1291.71 1065.13 1288.16 Q1066.96 1284.6 1066.96 1277.49 Q1066.96 1270.36 1065.13 1266.82 Q1063.33 1263.26 1059.69 1263.26 M1059.69 1259.55 Q1065.5 1259.55 1068.56 1264.16 Q1071.64 1268.74 1071.64 1277.49 Q1071.64 1286.22 1068.56 1290.83 Q1065.5 1295.41 1059.69 1295.41 Q1053.88 1295.41 1050.81 1290.83 Q1047.75 1286.22 1047.75 1277.49 Q1047.75 1268.74 1050.81 1264.16 Q1053.88 1259.55 1059.69 1259.55 Z" fill="#000000" fill-rule="nonzero" fill-opacity="1" /><path clip-path="url(#clip330)" d="M1162.24 1322.7 L1169.88 1322.7 L1169.88 1296.34 L1161.57 1298.01 L1161.57 1293.75 L1169.83 1292.08 L1174.51 1292.08 L1174.51 1322.7 L1182.15 1322.7 L1182.15 1326.64 L1162.24 1326.64 L1162.24 1322.7 Z" fill="#000000" fill-rule="nonzero" fill-opacity="1" /><path clip-path="url(#clip330)" d="M1276.34 1354.61 L1292.66 1354.61 L1292.66 1358.54 L1270.71 1358.54 L1270.71 1354.61 Q1273.38 1351.85 1277.96 1347.22 Q1282.57 1342.57 1283.75 1341.23 Q1285.99 1338.7 1286.87 1336.97 Q1287.77 1335.21 1287.77 1333.52 Q1287.77 1330.76 1285.83 1329.03 Q1283.91 1327.29 1280.81 1327.29 Q1278.61 1327.29 1276.15 1328.06 Q1273.72 1328.82 1270.95 1330.37 L1270.95 1325.65 Q1273.77 1324.51 1276.22 1323.94 Q1278.68 1323.36 1280.71 1323.36 Q1286.08 1323.36 1289.28 1326.04 Q1292.47 1328.73 1292.47 1333.22 Q1292.47 1335.35 1291.66 1337.27 Q1290.88 1339.17 1288.77 1341.76 Q1288.19 1342.43 1285.09 1345.65 Q1281.99 1348.84 1276.34 1354.61 Z" fill="#000000" fill-rule="nonzero" fill-opacity="1" /><path clip-path="url(#clip330)" d="M1396.04 1371.81 Q1399.4 1372.53 1401.27 1374.79 Q1403.17 1377.06 1403.17 1380.4 Q1403.17 1385.51 1399.65 1388.31 Q1396.13 1391.11 1389.65 1391.11 Q1387.47 1391.11 1385.16 1390.67 Q1382.87 1390.26 1380.41 1389.4 L1380.41 1384.89 Q1382.36 1386.02 1384.67 1386.6 Q1386.99 1387.18 1389.51 1387.18 Q1393.91 1387.18 1396.2 1385.44 Q1398.52 1383.71 1398.52 1380.4 Q1398.52 1377.34 1396.36 1375.63 Q1394.23 1373.89 1390.41 1373.89 L1386.39 1373.89 L1386.39 1370.05 L1390.6 1370.05 Q1394.05 1370.05 1395.88 1368.68 Q1397.71 1367.29 1397.71 1364.7 Q1397.71 1362.04 1395.81 1360.63 Q1393.93 1359.19 1390.41 1359.19 Q1388.49 1359.19 1386.29 1359.61 Q1384.09 1360.03 1381.46 1360.91 L1381.46 1356.74 Q1384.12 1356 1386.43 1355.63 Q1388.77 1355.26 1390.83 1355.26 Q1396.15 1355.26 1399.26 1357.69 Q1402.36 1360.1 1402.36 1364.22 Q1402.36 1367.09 1400.72 1369.08 Q1399.07 1371.04 1396.04 1371.81 Z" fill="#000000" fill-rule="nonzero" fill-opacity="1" /><path clip-path="url(#clip330)" d="M915.188 1395.68 L902.298 1413.03 L915.857 1431.33 L908.95 1431.33 L898.574 1417.33 L888.198 1431.33 L881.291 1431.33 L895.136 1412.68 L882.468 1395.68 L889.375 1395.68 L898.828 1408.38 L908.281 1395.68 L915.188 1395.68 Z" fill="#000000" fill-rule="nonzero" fill-opacity="1" /><path clip-path="url(#clip330)" d="M955.26 1383.81 L960.671 1383.81 L944.12 1437.38 L938.709 1437.38 L955.26 1383.81 Z" fill="#000000" fill-rule="nonzero" fill-opacity="1" /><path clip-path="url(#clip330)" d="M1015.29 1402.53 Q1017.49 1398.58 1020.54 1396.7 Q1023.6 1394.82 1027.73 1394.82 Q1033.3 1394.82 1036.33 1398.74 Q1039.35 1402.62 1039.35 1409.82 L1039.35 1431.33 L1033.46 1431.33 L1033.46 1410.01 Q1033.46 1404.88 1031.65 1402.4 Q1029.83 1399.92 1026.11 1399.92 Q1021.56 1399.92 1018.92 1402.94 Q1016.28 1405.96 1016.28 1411.18 L1016.28 1431.33 L1010.39 1431.33 L1010.39 1410.01 Q1010.39 1404.85 1008.57 1402.4 Q1006.76 1399.92 1002.97 1399.92 Q998.483 1399.92 995.842 1402.97 Q993.2 1406 993.2 1411.18 L993.2 1431.33 L987.312 1431.33 L987.312 1395.68 L993.2 1395.68 L993.2 1401.22 Q995.205 1397.94 998.006 1396.38 Q1000.81 1394.82 1004.66 1394.82 Q1008.54 1394.82 1011.25 1396.8 Q1013.98 1398.77 1015.29 1402.53 Z" fill="#000000" fill-rule="nonzero" fill-opacity="1" /><polyline clip-path="url(#clip332)" style="stroke:#000000; stroke-linecap:round; stroke-linejoin:round; stroke-width:2; stroke-opacity:0.1; fill:none" points="1427.42,1350.49 739.457,1151.89 739.457,463.92 "/>
<polyline clip-path="url(#clip332)" style="stroke:#000000; stroke-linecap:round; stroke-linejoin:round; stroke-width:2; stroke-opacity:0.1; fill:none" points="1526.72,1264.49 838.757,1065.89 838.757,377.924 "/>
<polyline clip-path="url(#clip332)" style="stroke:#000000; stroke-linecap:round; stroke-linejoin:round; stroke-width:2; stroke-opacity:0.1; fill:none" points="1626.02,1178.5 938.056,979.896 938.056,291.928 "/>
<polyline clip-path="url(#clip332)" style="stroke:#000000; stroke-linecap:round; stroke-linejoin:round; stroke-width:2; stroke-opacity:0.1; fill:none" points="1725.32,1092.5 1037.36,893.9 1037.36,205.932 "/>
<polyline clip-path="url(#clip332)" style="stroke:#000000; stroke-linecap:round; stroke-linejoin:round; stroke-width:2; stroke-opacity:0.1; fill:none" points="1824.62,1006.5 1136.66,807.904 1136.66,119.936 "/>
<polyline clip-path="url(#clip330)" style="stroke:#000000; stroke-linecap:round; stroke-linejoin:round; stroke-width:4; stroke-opacity:1; fill:none" points="1427.42,1350.49 1824.62,1006.5 "/>
<polyline clip-path="url(#clip330)" style="stroke:#000000; stroke-linecap:round; stroke-linejoin:round; stroke-width:4; stroke-opacity:1; fill:none" points="1427.42,1350.49 1419.17,1348.1 "/>
<polyline clip-path="url(#clip330)" style="stroke:#000000; stroke-linecap:round; stroke-linejoin:round; stroke-width:4; stroke-opacity:1; fill:none" points="1526.72,1264.49 1518.47,1262.11 "/>
<polyline clip-path="url(#clip330)" style="stroke:#000000; stroke-linecap:round; stroke-linejoin:round; stroke-width:4; stroke-opacity:1; fill:none" points="1626.02,1178.5 1617.77,1176.11 "/>
<polyline clip-path="url(#clip330)" style="stroke:#000000; stroke-linecap:round; stroke-linejoin:round; stroke-width:4; stroke-opacity:1; fill:none" points="1725.32,1092.5 1717.07,1090.12 "/>
<polyline clip-path="url(#clip330)" style="stroke:#000000; stroke-linecap:round; stroke-linejoin:round; stroke-width:4; stroke-opacity:1; fill:none" points="1824.62,1006.5 1816.37,1004.12 "/>
<path clip-path="url(#clip330)" d="M1450.55 1368.1 L1480.23 1368.1 L1480.23 1372.03 L1450.55 1372.03 L1450.55 1368.1 Z" fill="#000000" fill-rule="nonzero" fill-opacity="1" /><path clip-path="url(#clip330)" d="M1494.35 1380.99 L1510.67 1380.99 L1510.67 1384.93 L1488.73 1384.93 L1488.73 1380.99 Q1491.39 1378.24 1495.97 1373.61 Q1500.58 1368.96 1501.76 1367.61 Q1504 1365.09 1504.88 1363.35 Q1505.79 1361.59 1505.79 1359.9 Q1505.79 1357.15 1503.84 1355.41 Q1501.92 1353.68 1498.82 1353.68 Q1496.62 1353.68 1494.17 1354.44 Q1491.73 1355.21 1488.96 1356.76 L1488.96 1352.03 Q1491.78 1350.9 1494.23 1350.32 Q1496.69 1349.74 1498.73 1349.74 Q1504.1 1349.74 1507.29 1352.43 Q1510.48 1355.11 1510.48 1359.6 Q1510.48 1361.73 1509.67 1363.65 Q1508.89 1365.55 1506.78 1368.15 Q1506.2 1368.82 1503.1 1372.03 Q1500 1375.23 1494.35 1380.99 Z" fill="#000000" fill-rule="nonzero" fill-opacity="1" /><path clip-path="url(#clip330)" d="M1549.85 1282.1 L1579.53 1282.1 L1579.53 1286.04 L1549.85 1286.04 L1549.85 1282.1 Z" fill="#000000" fill-rule="nonzero" fill-opacity="1" /><path clip-path="url(#clip330)" d="M1590.43 1295 L1598.07 1295 L1598.07 1268.63 L1589.76 1270.3 L1589.76 1266.04 L1598.02 1264.37 L1602.7 1264.37 L1602.7 1295 L1610.34 1295 L1610.34 1298.93 L1590.43 1298.93 L1590.43 1295 Z" fill="#000000" fill-rule="nonzero" fill-opacity="1" /><path clip-path="url(#clip330)" d="M1661.1 1181.45 Q1657.49 1181.45 1655.66 1185.02 Q1653.85 1188.56 1653.85 1195.69 Q1653.85 1202.8 1655.66 1206.36 Q1657.49 1209.9 1661.1 1209.9 Q1664.73 1209.9 1666.54 1206.36 Q1668.37 1202.8 1668.37 1195.69 Q1668.37 1188.56 1666.54 1185.02 Q1664.73 1181.45 1661.1 1181.45 M1661.1 1177.75 Q1666.91 1177.75 1669.96 1182.36 Q1673.04 1186.94 1673.04 1195.69 Q1673.04 1204.42 1669.96 1209.02 Q1666.91 1213.61 1661.1 1213.61 Q1655.29 1213.61 1652.21 1209.02 Q1649.15 1204.42 1649.15 1195.69 Q1649.15 1186.94 1652.21 1182.36 Q1655.29 1177.75 1661.1 1177.75 Z" fill="#000000" fill-rule="nonzero" fill-opacity="1" /><path clip-path="url(#clip330)" d="M1749.12 1123 L1756.76 1123 L1756.76 1096.64 L1748.45 1098.31 L1748.45 1094.05 L1756.72 1092.38 L1761.39 1092.38 L1761.39 1123 L1769.03 1123 L1769.03 1126.94 L1749.12 1126.94 L1749.12 1123 Z" fill="#000000" fill-rule="nonzero" fill-opacity="1" /><path clip-path="url(#clip330)" d="M1853.38 1037.01 L1869.7 1037.01 L1869.7 1040.94 L1847.75 1040.94 L1847.75 1037.01 Q1850.41 1034.25 1855 1029.62 Q1859.6 1024.97 1860.79 1023.63 Q1863.03 1021.11 1863.91 1019.37 Q1864.81 1017.61 1864.81 1015.92 Q1864.81 1013.17 1862.87 1011.43 Q1860.95 1009.69 1857.85 1009.69 Q1855.65 1009.69 1853.19 1010.46 Q1850.76 1011.22 1847.98 1012.77 L1847.98 1008.05 Q1850.81 1006.92 1853.26 1006.34 Q1855.72 1005.76 1857.75 1005.76 Q1863.12 1005.76 1866.32 1008.44 Q1869.51 1011.13 1869.51 1015.62 Q1869.51 1017.75 1868.7 1019.67 Q1867.91 1021.57 1865.81 1024.16 Q1865.23 1024.83 1862.13 1028.05 Q1859.03 1031.24 1853.38 1037.01 Z" fill="#000000" fill-rule="nonzero" fill-opacity="1" /><path clip-path="url(#clip330)" d="M1689.18 1361.95 Q1686.7 1368.32 1684.34 1370.26 Q1681.99 1372.2 1678.04 1372.2 L1673.36 1372.2 L1673.36 1367.3 L1676.8 1367.3 Q1679.22 1367.3 1680.55 1366.15 Q1681.89 1365.01 1683.51 1360.74 L1684.56 1358.07 L1670.15 1322.99 L1676.35 1322.99 L1687.49 1350.87 L1698.63 1322.99 L1704.84 1322.99 L1689.18 1361.95 Z" fill="#000000" fill-rule="nonzero" fill-opacity="1" /><path clip-path="url(#clip330)" d="M1744.05 1311.12 L1749.46 1311.12 L1732.91 1364.69 L1727.5 1364.69 L1744.05 1311.12 Z" fill="#000000" fill-rule="nonzero" fill-opacity="1" /><path clip-path="url(#clip330)" d="M1804.08 1329.83 Q1806.28 1325.89 1809.33 1324.01 Q1812.39 1322.13 1816.53 1322.13 Q1822.1 1322.13 1825.12 1326.05 Q1828.14 1329.93 1828.14 1337.12 L1828.14 1358.64 L1822.25 1358.64 L1822.25 1337.31 Q1822.25 1332.19 1820.44 1329.71 Q1818.63 1327.22 1814.9 1327.22 Q1810.35 1327.22 1807.71 1330.25 Q1805.07 1333.27 1805.07 1338.49 L1805.07 1358.64 L1799.18 1358.64 L1799.18 1337.31 Q1799.18 1332.16 1797.36 1329.71 Q1795.55 1327.22 1791.76 1327.22 Q1787.27 1327.22 1784.63 1330.28 Q1781.99 1333.3 1781.99 1338.49 L1781.99 1358.64 L1776.1 1358.64 L1776.1 1322.99 L1781.99 1322.99 L1781.99 1328.53 Q1784 1325.25 1786.8 1323.69 Q1789.6 1322.13 1793.45 1322.13 Q1797.33 1322.13 1800.04 1324.11 Q1802.78 1326.08 1804.08 1329.83 Z" fill="#000000" fill-rule="nonzero" fill-opacity="1" /><polyline clip-path="url(#clip332)" style="stroke:#000000; stroke-linecap:round; stroke-linejoin:round; stroke-width:2; stroke-opacity:0.1; fill:none" points="739.457,1151.89 1136.66,807.904 1824.62,1006.5 "/>
<polyline clip-path="url(#clip332)" style="stroke:#000000; stroke-linecap:round; stroke-linejoin:round; stroke-width:2; stroke-opacity:0.1; fill:none" points="739.457,1037.23 1136.66,693.243 1824.62,891.842 "/>
<polyline clip-path="url(#clip332)" style="stroke:#000000; stroke-linecap:round; stroke-linejoin:round; stroke-width:2; stroke-opacity:0.1; fill:none" points="739.457,922.566 1136.66,578.582 1824.62,777.181 "/>
<polyline clip-path="url(#clip332)" style="stroke:#000000; stroke-linecap:round; stroke-linejoin:round; stroke-width:2; stroke-opacity:0.1; fill:none" points="739.457,807.904 1136.66,463.92 1824.62,662.52 "/>
<polyline clip-path="url(#clip332)" style="stroke:#000000; stroke-linecap:round; stroke-linejoin:round; stroke-width:2; stroke-opacity:0.1; fill:none" points="739.457,693.243 1136.66,349.259 1824.62,547.858 "/>
<polyline clip-path="url(#clip332)" style="stroke:#000000; stroke-linecap:round; stroke-linejoin:round; stroke-width:2; stroke-opacity:0.1; fill:none" points="739.457,578.582 1136.66,234.598 1824.62,433.197 "/>
<polyline clip-path="url(#clip332)" style="stroke:#000000; stroke-linecap:round; stroke-linejoin:round; stroke-width:2; stroke-opacity:0.1; fill:none" points="739.457,463.92 1136.66,119.936 1824.62,318.536 "/>
<polyline clip-path="url(#clip330)" style="stroke:#000000; stroke-linecap:round; stroke-linejoin:round; stroke-width:4; stroke-opacity:1; fill:none" points="739.457,1151.89 739.457,463.92 "/>
<polyline clip-path="url(#clip330)" style="stroke:#000000; stroke-linecap:round; stroke-linejoin:round; stroke-width:4; stroke-opacity:1; fill:none" points="739.457,1151.89 744.224,1147.76 "/>
<polyline clip-path="url(#clip330)" style="stroke:#000000; stroke-linecap:round; stroke-linejoin:round; stroke-width:4; stroke-opacity:1; fill:none" points="739.457,1037.23 744.224,1033.1 "/>
<polyline clip-path="url(#clip330)" style="stroke:#000000; stroke-linecap:round; stroke-linejoin:round; stroke-width:4; stroke-opacity:1; fill:none" points="739.457,922.566 744.224,918.438 "/>
<polyline clip-path="url(#clip330)" style="stroke:#000000; stroke-linecap:round; stroke-linejoin:round; stroke-width:4; stroke-opacity:1; fill:none" points="739.457,807.904 744.224,803.777 "/>
<polyline clip-path="url(#clip330)" style="stroke:#000000; stroke-linecap:round; stroke-linejoin:round; stroke-width:4; stroke-opacity:1; fill:none" points="739.457,693.243 744.224,689.115 "/>
<polyline clip-path="url(#clip330)" style="stroke:#000000; stroke-linecap:round; stroke-linejoin:round; stroke-width:4; stroke-opacity:1; fill:none" points="739.457,578.582 744.224,574.454 "/>
<polyline clip-path="url(#clip330)" style="stroke:#000000; stroke-linecap:round; stroke-linejoin:round; stroke-width:4; stroke-opacity:1; fill:none" points="739.457,463.92 744.224,459.793 "/>
<path clip-path="url(#clip330)" d="M649.593 1152.34 L679.268 1152.34 L679.268 1156.27 L649.593 1156.27 L649.593 1152.34 Z" fill="#000000" fill-rule="nonzero" fill-opacity="1" /><path clip-path="url(#clip330)" d="M703.528 1150.53 Q706.884 1151.25 708.759 1153.52 Q710.657 1155.79 710.657 1159.12 Q710.657 1164.24 707.139 1167.04 Q703.62 1169.84 697.139 1169.84 Q694.963 1169.84 692.648 1169.4 Q690.356 1168.98 687.903 1168.13 L687.903 1163.61 Q689.847 1164.75 692.162 1165.33 Q694.477 1165.9 697 1165.9 Q701.398 1165.9 703.69 1164.17 Q706.004 1162.43 706.004 1159.12 Q706.004 1156.07 703.852 1154.35 Q701.722 1152.62 697.903 1152.62 L693.875 1152.62 L693.875 1148.77 L698.088 1148.77 Q701.537 1148.77 703.365 1147.41 Q705.194 1146.02 705.194 1143.43 Q705.194 1140.77 703.296 1139.35 Q701.421 1137.92 697.903 1137.92 Q695.981 1137.92 693.782 1138.34 Q691.583 1138.75 688.944 1139.63 L688.944 1135.46 Q691.606 1134.72 693.921 1134.35 Q696.259 1133.98 698.319 1133.98 Q703.643 1133.98 706.745 1136.41 Q709.847 1138.82 709.847 1142.94 Q709.847 1145.81 708.203 1147.8 Q706.56 1149.77 703.528 1150.53 Z" fill="#000000" fill-rule="nonzero" fill-opacity="1" /><path clip-path="url(#clip330)" d="M650.542 1037.68 L680.217 1037.68 L680.217 1041.61 L650.542 1041.61 L650.542 1037.68 Z" fill="#000000" fill-rule="nonzero" fill-opacity="1" /><path clip-path="url(#clip330)" d="M694.338 1050.57 L710.657 1050.57 L710.657 1054.51 L688.713 1054.51 L688.713 1050.57 Q691.375 1047.82 695.958 1043.19 Q700.565 1038.53 701.745 1037.19 Q703.99 1034.67 704.87 1032.93 Q705.773 1031.17 705.773 1029.48 Q705.773 1026.73 703.828 1024.99 Q701.907 1023.26 698.805 1023.26 Q696.606 1023.26 694.153 1024.02 Q691.722 1024.78 688.944 1026.34 L688.944 1021.61 Q691.768 1020.48 694.222 1019.9 Q696.676 1019.32 698.713 1019.32 Q704.083 1019.32 707.278 1022.01 Q710.472 1024.69 710.472 1029.18 Q710.472 1031.31 709.662 1033.23 Q708.875 1035.13 706.768 1037.72 Q706.19 1038.4 703.088 1041.61 Q699.986 1044.81 694.338 1050.57 Z" fill="#000000" fill-rule="nonzero" fill-opacity="1" /><path clip-path="url(#clip330)" d="M650.171 923.017 L679.847 923.017 L679.847 926.952 L650.171 926.952 L650.171 923.017 Z" fill="#000000" fill-rule="nonzero" fill-opacity="1" /><path clip-path="url(#clip330)" d="M690.75 935.91 L698.389 935.91 L698.389 909.545 L690.079 911.212 L690.079 906.952 L698.342 905.286 L703.018 905.286 L703.018 935.91 L710.657 935.91 L710.657 939.846 L690.75 939.846 L690.75 935.91 Z" fill="#000000" fill-rule="nonzero" fill-opacity="1" /><path clip-path="url(#clip330)" d="M698.713 793.703 Q695.102 793.703 693.273 797.268 Q691.467 800.809 691.467 807.939 Q691.467 815.045 693.273 818.61 Q695.102 822.152 698.713 822.152 Q702.347 822.152 704.153 818.61 Q705.981 815.045 705.981 807.939 Q705.981 800.809 704.153 797.268 Q702.347 793.703 698.713 793.703 M698.713 789.999 Q704.523 789.999 707.578 794.606 Q710.657 799.189 710.657 807.939 Q710.657 816.666 707.578 821.272 Q704.523 825.856 698.713 825.856 Q692.903 825.856 689.824 821.272 Q686.768 816.666 686.768 807.939 Q686.768 799.189 689.824 794.606 Q692.903 789.999 698.713 789.999 Z" fill="#000000" fill-rule="nonzero" fill-opacity="1" /><path clip-path="url(#clip330)" d="M690.75 706.588 L698.389 706.588 L698.389 680.222 L690.079 681.889 L690.079 677.63 L698.342 675.963 L703.018 675.963 L703.018 706.588 L710.657 706.588 L710.657 710.523 L690.75 710.523 L690.75 706.588 Z" fill="#000000" fill-rule="nonzero" fill-opacity="1" /><path clip-path="url(#clip330)" d="M694.338 591.927 L710.657 591.927 L710.657 595.862 L688.713 595.862 L688.713 591.927 Q691.375 589.172 695.958 584.542 Q700.565 579.89 701.745 578.547 Q703.99 576.024 704.87 574.288 Q705.773 572.528 705.773 570.839 Q705.773 568.084 703.828 566.348 Q701.907 564.612 698.805 564.612 Q696.606 564.612 694.153 565.376 Q691.722 566.14 688.944 567.691 L688.944 562.968 Q691.768 561.834 694.222 561.255 Q696.676 560.677 698.713 560.677 Q704.083 560.677 707.278 563.362 Q710.472 566.047 710.472 570.538 Q710.472 572.667 709.662 574.589 Q708.875 576.487 706.768 579.079 Q706.19 579.751 703.088 582.968 Q699.986 586.163 694.338 591.927 Z" fill="#000000" fill-rule="nonzero" fill-opacity="1" /><path clip-path="url(#clip330)" d="M703.528 462.566 Q706.884 463.284 708.759 465.552 Q710.657 467.821 710.657 471.154 Q710.657 476.27 707.139 479.071 Q703.62 481.872 697.139 481.872 Q694.963 481.872 692.648 481.432 Q690.356 481.015 687.903 480.159 L687.903 475.645 Q689.847 476.779 692.162 477.358 Q694.477 477.937 697 477.937 Q701.398 477.937 703.69 476.2 Q706.004 474.464 706.004 471.154 Q706.004 468.099 703.852 466.386 Q701.722 464.65 697.903 464.65 L693.875 464.65 L693.875 460.807 L698.088 460.807 Q701.537 460.807 703.365 459.441 Q705.194 458.052 705.194 455.46 Q705.194 452.798 703.296 451.386 Q701.421 449.951 697.903 449.951 Q695.981 449.951 693.782 450.367 Q691.583 450.784 688.944 451.664 L688.944 447.497 Q691.606 446.756 693.921 446.386 Q696.259 446.015 698.319 446.015 Q703.643 446.015 706.745 448.446 Q709.847 450.853 709.847 454.974 Q709.847 457.844 708.203 459.835 Q706.56 461.802 703.528 462.566 Z" fill="#000000" fill-rule="nonzero" fill-opacity="1" /><path clip-path="url(#clip330)" d="M556.489 883.497 L556.489 855.679 L561.836 855.679 L587.458 877.704 L587.458 855.679 L592.137 855.679 L592.137 884.293 L586.789 884.293 L561.167 862.267 L561.167 883.497 L556.489 883.497 Z" fill="#000000" fill-rule="nonzero" fill-opacity="1" /><path clip-path="url(#clip330)" d="M544.617 815.607 L544.617 810.196 L598.184 826.747 L598.184 832.158 L544.617 815.607 Z" fill="#000000" fill-rule="nonzero" fill-opacity="1" /><path clip-path="url(#clip330)" d="M563.332 755.578 Q559.385 753.382 557.507 750.327 Q555.629 747.271 555.629 743.133 Q555.629 737.563 559.544 734.54 Q563.427 731.516 570.621 731.516 L592.137 731.516 L592.137 737.404 L570.812 737.404 Q565.687 737.404 563.204 739.218 Q560.722 741.033 560.722 744.757 Q560.722 749.308 563.746 751.95 Q566.769 754.592 571.989 754.592 L592.137 754.592 L592.137 760.48 L570.812 760.48 Q565.655 760.48 563.204 762.294 Q560.722 764.108 560.722 767.896 Q560.722 772.384 563.777 775.025 Q566.801 777.667 571.989 777.667 L592.137 777.667 L592.137 783.555 L556.489 783.555 L556.489 777.667 L562.027 777.667 Q558.749 775.662 557.189 772.861 Q555.629 770.06 555.629 766.209 Q555.629 762.326 557.603 759.62 Q559.576 756.883 563.332 755.578 Z" fill="#000000" fill-rule="nonzero" fill-opacity="1" /><path clip-path="url(#clip332)" d="M972.931 1219.29 L1193.95 1283.09 L1591.15 939.105 L1370.13 875.302 Z" fill="#009afa" fill-rule="evenodd" fill-opacity="0.501961" stroke="#000000" stroke-opacity="0.501961" stroke-linejoin="round" stroke-width="0" /><path clip-path="url(#clip332)" d="M972.931 1219.29 L1193.95 1283.09 Z" fill="#009afa" fill-rule="evenodd" fill-opacity="1" stroke="#000000" stroke-opacity="1" stroke-linejoin="round" stroke-width="6.4" /><path clip-path="url(#clip332)" d="M1193.95 1283.09 L1591.15 939.105 Z" fill="#009afa" fill-rule="evenodd" fill-opacity="1" stroke="#000000" stroke-opacity="1" stroke-linejoin="round" stroke-width="6.4" /><path clip-path="url(#clip332)" d="M1370.13 875.302 L972.931 1219.29 Z" fill="#009afa" fill-rule="evenodd" fill-opacity="1" stroke="#000000" stroke-opacity="1" stroke-linejoin="round" stroke-width="6.4" /><path clip-path="url(#clip332)" d="M1591.15 939.105 L1370.13 875.302 Z" fill="#009afa" fill-rule="evenodd" fill-opacity="1" stroke="#000000" stroke-opacity="1" stroke-linejoin="round" stroke-width="6.4" /><path clip-path="url(#clip332)" d="M972.931 531.318 L1193.95 595.122 L1193.95 1283.09 L972.931 1219.29 Z" fill="#009afa" fill-rule="evenodd" fill-opacity="0.501961" stroke="#000000" stroke-opacity="0.501961" stroke-linejoin="round" stroke-width="0" /><path clip-path="url(#clip332)" d="M972.931 531.318 L1193.95 595.122 Z" fill="#009afa" fill-rule="evenodd" fill-opacity="1" stroke="#000000" stroke-opacity="1" stroke-linejoin="round" stroke-width="6.4" /><path clip-path="url(#clip332)" d="M1193.95 595.122 L1193.95 1283.09 Z" fill="#009afa" fill-rule="evenodd" fill-opacity="1" stroke="#000000" stroke-opacity="1" stroke-linejoin="round" stroke-width="6.4" /><path clip-path="url(#clip332)" d="M972.931 1219.29 L972.931 531.318 Z" fill="#009afa" fill-rule="evenodd" fill-opacity="1" stroke="#000000" stroke-opacity="1" stroke-linejoin="round" stroke-width="6.4" /><path clip-path="url(#clip332)" d="M1193.95 1283.09 L972.931 1219.29 Z" fill="#009afa" fill-rule="evenodd" fill-opacity="1" stroke="#000000" stroke-opacity="1" stroke-linejoin="round" stroke-width="6.4" /><path clip-path="url(#clip332)" d="M1370.13 187.335 L1591.15 251.138 L1193.95 595.122 L972.931 531.318 Z" fill="#009afa" fill-rule="evenodd" fill-opacity="0.501961" stroke="#000000" stroke-opacity="0.501961" stroke-linejoin="round" stroke-width="0" /><path clip-path="url(#clip332)" d="M1193.95 595.122 L972.931 531.318 Z" fill="#009afa" fill-rule="evenodd" fill-opacity="1" stroke="#000000" stroke-opacity="1" stroke-linejoin="round" stroke-width="6.4" /><path clip-path="url(#clip332)" d="M1591.15 251.138 L1193.95 595.122 Z" fill="#009afa" fill-rule="evenodd" fill-opacity="1" stroke="#000000" stroke-opacity="1" stroke-linejoin="round" stroke-width="6.4" /><path clip-path="url(#clip332)" d="M972.931 531.318 L1370.13 187.335 Z" fill="#009afa" fill-rule="evenodd" fill-opacity="1" stroke="#000000" stroke-opacity="1" stroke-linejoin="round" stroke-width="6.4" /><path clip-path="url(#clip332)" d="M1370.13 187.335 L1591.15 251.138 Z" fill="#009afa" fill-rule="evenodd" fill-opacity="1" stroke="#000000" stroke-opacity="1" stroke-linejoin="round" stroke-width="6.4" /><path clip-path="url(#clip332)" d="M1193.95 595.122 L1591.15 251.138 L1591.15 939.105 L1193.95 1283.09 Z" fill="#009afa" fill-rule="evenodd" fill-opacity="0.501961" stroke="#000000" stroke-opacity="0.501961" stroke-linejoin="round" stroke-width="0" /><path clip-path="url(#clip332)" d="M1193.95 1283.09 L1193.95 595.122 Z" fill="#009afa" fill-rule="evenodd" fill-opacity="1" stroke="#000000" stroke-opacity="1" stroke-linejoin="round" stroke-width="6.4" /><path clip-path="url(#clip332)" d="M1193.95 595.122 L1591.15 251.138 Z" fill="#009afa" fill-rule="evenodd" fill-opacity="1" stroke="#000000" stroke-opacity="1" stroke-linejoin="round" stroke-width="6.4" /><path clip-path="url(#clip332)" d="M1591.15 939.105 L1193.95 1283.09 Z" fill="#009afa" fill-rule="evenodd" fill-opacity="1" stroke="#000000" stroke-opacity="1" stroke-linejoin="round" stroke-width="6.4" /><path clip-path="url(#clip332)" d="M1591.15 251.138 L1591.15 939.105 Z" fill="#009afa" fill-rule="evenodd" fill-opacity="1" stroke="#000000" stroke-opacity="1" stroke-linejoin="round" stroke-width="6.4" /><path clip-path="url(#clip332)" d="M1591.15 251.138 L1370.13 187.335 L1370.13 875.302 L1591.15 939.105 Z" fill="#009afa" fill-rule="evenodd" fill-opacity="0.501961" stroke="#000000" stroke-opacity="0.501961" stroke-linejoin="round" stroke-width="0" /><path clip-path="url(#clip332)" d="M1591.15 251.138 L1370.13 187.335 Z" fill="#009afa" fill-rule="evenodd" fill-opacity="1" stroke="#000000" stroke-opacity="1" stroke-linejoin="round" stroke-width="6.4" /><path clip-path="url(#clip332)" d="M1591.15 939.105 L1591.15 251.138 Z" fill="#009afa" fill-rule="evenodd" fill-opacity="1" stroke="#000000" stroke-opacity="1" stroke-linejoin="round" stroke-width="6.4" /><path clip-path="url(#clip332)" d="M1370.13 187.335 L1370.13 875.302 Z" fill="#009afa" fill-rule="evenodd" fill-opacity="1" stroke="#000000" stroke-opacity="1" stroke-linejoin="round" stroke-width="6.4" /><path clip-path="url(#clip332)" d="M1370.13 875.302 L1591.15 939.105 Z" fill="#009afa" fill-rule="evenodd" fill-opacity="1" stroke="#000000" stroke-opacity="1" stroke-linejoin="round" stroke-width="6.4" /><path clip-path="url(#clip332)" d="M1370.13 187.335 L972.931 531.318 L972.931 1219.29 L1370.13 875.302 Z" fill="#009afa" fill-rule="evenodd" fill-opacity="0.501961" stroke="#000000" stroke-opacity="0.501961" stroke-linejoin="round" stroke-width="0" /><path clip-path="url(#clip332)" d="M972.931 531.318 L972.931 1219.29 Z" fill="#009afa" fill-rule="evenodd" fill-opacity="1" stroke="#000000" stroke-opacity="1" stroke-linejoin="round" stroke-width="6.4" /><path clip-path="url(#clip332)" d="M1370.13 187.335 L972.931 531.318 Z" fill="#009afa" fill-rule="evenodd" fill-opacity="1" stroke="#000000" stroke-opacity="1" stroke-linejoin="round" stroke-width="6.4" /><path clip-path="url(#clip332)" d="M972.931 1219.29 L1370.13 875.302 Z" fill="#009afa" fill-rule="evenodd" fill-opacity="1" stroke="#000000" stroke-opacity="1" stroke-linejoin="round" stroke-width="6.4" /><path clip-path="url(#clip332)" d="M1370.13 875.302 L1370.13 187.335 Z" fill="#009afa" fill-rule="evenodd" fill-opacity="1" stroke="#000000" stroke-opacity="1" stroke-linejoin="round" stroke-width="6.4" /><path clip-path="url(#clip330)" d="M1985.31 196.789 L2281.37 196.789 L2281.37 93.1086 L1985.31 93.1086  Z" fill="#ffffff" fill-rule="evenodd" fill-opacity="1"/>
<polyline clip-path="url(#clip330)" style="stroke:#000000; stroke-linecap:round; stroke-linejoin:round; stroke-width:4; stroke-opacity:1; fill:none" points="1985.31,196.789 2281.37,196.789 2281.37,93.1086 1985.31,93.1086 1985.31,196.789 "/>
<path clip-path="url(#clip330)" d="M2180.34 145.724 L2180.34 158.386 L2187.84 158.386 Q2191.61 158.386 2193.41 156.835 Q2195.24 155.261 2195.24 152.043 Q2195.24 148.803 2193.41 147.275 Q2191.61 145.724 2187.84 145.724 L2180.34 145.724 M2180.34 131.511 L2180.34 141.928 L2187.26 141.928 Q2190.68 141.928 2192.35 140.655 Q2194.04 139.358 2194.04 136.719 Q2194.04 134.104 2192.35 132.807 Q2190.68 131.511 2187.26 131.511 L2180.34 131.511 M2175.66 127.669 L2187.6 127.669 Q2192.95 127.669 2195.85 129.891 Q2198.74 132.113 2198.74 136.21 Q2198.74 139.382 2197.26 141.257 Q2195.78 143.131 2192.91 143.594 Q2196.35 144.335 2198.25 146.696 Q2200.17 149.034 2200.17 152.553 Q2200.17 157.182 2197.03 159.705 Q2193.88 162.229 2188.07 162.229 L2175.66 162.229 L2175.66 127.669 Z" fill="#000000" fill-rule="nonzero" fill-opacity="1" /><path clip-path="url(#clip330)" d="M2218.04 139.289 Q2214.62 139.289 2212.63 141.974 Q2210.64 144.636 2210.64 149.289 Q2210.64 153.942 2212.6 156.627 Q2214.6 159.289 2218.04 159.289 Q2221.45 159.289 2223.44 156.604 Q2225.43 153.918 2225.43 149.289 Q2225.43 144.682 2223.44 141.997 Q2221.45 139.289 2218.04 139.289 M2218.04 135.678 Q2223.6 135.678 2226.77 139.289 Q2229.94 142.9 2229.94 149.289 Q2229.94 155.655 2226.77 159.289 Q2223.6 162.9 2218.04 162.9 Q2212.47 162.9 2209.29 159.289 Q2206.15 155.655 2206.15 149.289 Q2206.15 142.9 2209.29 139.289 Q2212.47 135.678 2218.04 135.678 Z" fill="#000000" fill-rule="nonzero" fill-opacity="1" /><path clip-path="url(#clip330)" d="M2257.1 136.303 L2247.72 148.919 L2257.58 162.229 L2252.56 162.229 L2245.01 152.043 L2237.47 162.229 L2232.44 162.229 L2242.51 148.664 L2233.3 136.303 L2238.32 136.303 L2245.2 145.539 L2252.07 136.303 L2257.1 136.303 Z" fill="#000000" fill-rule="nonzero" fill-opacity="1" /></svg>
