<?xml version="1.0" encoding="utf-8"?>
<svg xmlns="http://www.w3.org/2000/svg" xmlns:xlink="http://www.w3.org/1999/xlink" width="600" height="400" viewBox="0 0 2400 1600">
<defs>
  <clipPath id="clip630">
    <rect x="0" y="0" width="2400" height="1600"/>
  </clipPath>
</defs>
<path clip-path="url(#clip630)" d="M0 1600 L2400 1600 L2400 0 L0 0  Z" fill="#ffffff" fill-rule="evenodd" fill-opacity="1"/>
<defs>
  <clipPath id="clip631">
    <rect x="480" y="0" width="1681" height="1600"/>
  </clipPath>
</defs>
<defs>
  <clipPath id="clip632">
    <rect x="257" y="47" width="2097" height="1377"/>
  </clipPath>
</defs>
<path clip-path="url(#clip632)" d="M893.607 1216.35 L893.607 421.951 L1194.75 24.753 L1716.35 254.076 L1716.35 1048.47 L1415.21 1445.67 L893.607 1216.35  Z" fill="#ffffff" fill-rule="evenodd" fill-opacity="1"/>
<polyline clip-path="url(#clip632)" style="stroke:#000000; stroke-linecap:round; stroke-linejoin:round; stroke-width:2; stroke-opacity:0.1; fill:none" points="845.581,1175.9 1242.78,831.918 1242.78,143.95 "/>
<polyline clip-path="url(#clip632)" style="stroke:#000000; stroke-linecap:round; stroke-linejoin:round; stroke-width:2; stroke-opacity:0.1; fill:none" points="975.981,1213.54 1373.18,869.561 1373.18,181.593 "/>
<polyline clip-path="url(#clip632)" style="stroke:#000000; stroke-linecap:round; stroke-linejoin:round; stroke-width:2; stroke-opacity:0.1; fill:none" points="1106.38,1251.19 1503.58,907.204 1503.58,219.236 "/>
<polyline clip-path="url(#clip632)" style="stroke:#000000; stroke-linecap:round; stroke-linejoin:round; stroke-width:2; stroke-opacity:0.1; fill:none" points="1236.78,1288.83 1633.98,944.847 1633.98,256.879 "/>
<polyline clip-path="url(#clip632)" style="stroke:#000000; stroke-linecap:round; stroke-linejoin:round; stroke-width:2; stroke-opacity:0.1; fill:none" points="1367.18,1326.47 1764.38,982.49 1764.38,294.522 "/>
<polyline clip-path="url(#clip630)" style="stroke:#000000; stroke-linecap:round; stroke-linejoin:round; stroke-width:4; stroke-opacity:1; fill:none" points="762.397,1151.89 1450.36,1350.49 "/>
<polyline clip-path="url(#clip630)" style="stroke:#000000; stroke-linecap:round; stroke-linejoin:round; stroke-width:4; stroke-opacity:1; fill:none" points="845.581,1175.9 850.347,1171.77 "/>
<polyline clip-path="url(#clip630)" style="stroke:#000000; stroke-linecap:round; stroke-linejoin:round; stroke-width:4; stroke-opacity:1; fill:none" points="975.981,1213.54 980.747,1209.42 "/>
<polyline clip-path="url(#clip630)" style="stroke:#000000; stroke-linecap:round; stroke-linejoin:round; stroke-width:4; stroke-opacity:1; fill:none" points="1106.38,1251.19 1111.15,1247.06 "/>
<polyline clip-path="url(#clip630)" style="stroke:#000000; stroke-linecap:round; stroke-linejoin:round; stroke-width:4; stroke-opacity:1; fill:none" points="1236.78,1288.83 1241.55,1284.7 "/>
<polyline clip-path="url(#clip630)" style="stroke:#000000; stroke-linecap:round; stroke-linejoin:round; stroke-width:4; stroke-opacity:1; fill:none" points="1367.18,1326.47 1371.95,1322.35 "/>
<path clip-path="url(#clip630)" d="M727.046 1202.72 L756.722 1202.72 L756.722 1206.65 L727.046 1206.65 L727.046 1202.72 Z" fill="#000000" fill-rule="nonzero" fill-opacity="1" /><path clip-path="url(#clip630)" d="M767.624 1215.61 L775.263 1215.61 L775.263 1189.25 L766.953 1190.91 L766.953 1186.65 L775.217 1184.99 L779.893 1184.99 L779.893 1215.61 L787.532 1215.61 L787.532 1219.55 L767.624 1219.55 L767.624 1215.61 Z" fill="#000000" fill-rule="nonzero" fill-opacity="1" /><path clip-path="url(#clip630)" d="M796.976 1213.67 L801.86 1213.67 L801.86 1219.55 L796.976 1219.55 L796.976 1213.67 Z" fill="#000000" fill-rule="nonzero" fill-opacity="1" /><path clip-path="url(#clip630)" d="M822.045 1188.06 Q818.434 1188.06 816.606 1191.63 Q814.8 1195.17 814.8 1202.3 Q814.8 1209.41 816.606 1212.97 Q818.434 1216.51 822.045 1216.51 Q825.68 1216.51 827.485 1212.97 Q829.314 1209.41 829.314 1202.3 Q829.314 1195.17 827.485 1191.63 Q825.68 1188.06 822.045 1188.06 M822.045 1184.36 Q827.856 1184.36 830.911 1188.97 Q833.99 1193.55 833.99 1202.3 Q833.99 1211.03 830.911 1215.63 Q827.856 1220.22 822.045 1220.22 Q816.235 1220.22 813.157 1215.63 Q810.101 1211.03 810.101 1202.3 Q810.101 1193.55 813.157 1188.97 Q816.235 1184.36 822.045 1184.36 Z" fill="#000000" fill-rule="nonzero" fill-opacity="1" /><path clip-path="url(#clip630)" d="M858.441 1240.36 L888.117 1240.36 L888.117 1244.3 L858.441 1244.3 L858.441 1240.36 Z" fill="#000000" fill-rule="nonzero" fill-opacity="1" /><path clip-path="url(#clip630)" d="M908.209 1225.71 Q904.598 1225.71 902.77 1229.27 Q900.964 1232.81 900.964 1239.94 Q900.964 1247.05 902.77 1250.62 Q904.598 1254.16 908.209 1254.16 Q911.844 1254.16 913.649 1250.62 Q915.478 1247.05 915.478 1239.94 Q915.478 1232.81 913.649 1229.27 Q911.844 1225.71 908.209 1225.71 M908.209 1222 Q914.02 1222 917.075 1226.61 Q920.154 1231.19 920.154 1239.94 Q920.154 1248.67 917.075 1253.28 Q914.02 1257.86 908.209 1257.86 Q902.399 1257.86 899.321 1253.28 Q896.265 1248.67 896.265 1239.94 Q896.265 1231.19 899.321 1226.61 Q902.399 1222 908.209 1222 Z" fill="#000000" fill-rule="nonzero" fill-opacity="1" /><path clip-path="url(#clip630)" d="M928.371 1251.31 L933.256 1251.31 L933.256 1257.19 L928.371 1257.19 L928.371 1251.31 Z" fill="#000000" fill-rule="nonzero" fill-opacity="1" /><path clip-path="url(#clip630)" d="M943.487 1222.63 L961.843 1222.63 L961.843 1226.56 L947.769 1226.56 L947.769 1235.04 Q948.788 1234.69 949.806 1234.53 Q950.825 1234.34 951.843 1234.34 Q957.63 1234.34 961.01 1237.51 Q964.39 1240.68 964.39 1246.1 Q964.39 1251.68 960.917 1254.78 Q957.445 1257.86 951.126 1257.86 Q948.95 1257.86 946.681 1257.49 Q944.436 1257.12 942.029 1256.38 L942.029 1251.68 Q944.112 1252.81 946.334 1253.37 Q948.556 1253.93 951.033 1253.93 Q955.038 1253.93 957.376 1251.82 Q959.714 1249.71 959.714 1246.1 Q959.714 1242.49 957.376 1240.38 Q955.038 1238.28 951.033 1238.28 Q949.158 1238.28 947.283 1238.69 Q945.431 1239.11 943.487 1239.99 L943.487 1222.63 Z" fill="#000000" fill-rule="nonzero" fill-opacity="1" /><path clip-path="url(#clip630)" d="M1037.61 1263.35 Q1034 1263.35 1032.17 1266.92 Q1030.37 1270.46 1030.37 1277.59 Q1030.37 1284.69 1032.17 1288.26 Q1034 1291.8 1037.61 1291.8 Q1041.25 1291.8 1043.05 1288.26 Q1044.88 1284.69 1044.88 1277.59 Q1044.88 1270.46 1043.05 1266.92 Q1041.25 1263.35 1037.61 1263.35 M1037.61 1259.65 Q1043.42 1259.65 1046.48 1264.25 Q1049.56 1268.84 1049.56 1277.59 Q1049.56 1286.31 1046.48 1290.92 Q1043.42 1295.5 1037.61 1295.5 Q1031.8 1295.5 1028.73 1290.92 Q1025.67 1286.31 1025.67 1277.59 Q1025.67 1268.84 1028.73 1264.25 Q1031.8 1259.65 1037.61 1259.65 Z" fill="#000000" fill-rule="nonzero" fill-opacity="1" /><path clip-path="url(#clip630)" d="M1057.78 1288.95 L1062.66 1288.95 L1062.66 1294.83 L1057.78 1294.83 L1057.78 1288.95 Z" fill="#000000" fill-rule="nonzero" fill-opacity="1" /><path clip-path="url(#clip630)" d="M1082.85 1263.35 Q1079.23 1263.35 1077.41 1266.92 Q1075.6 1270.46 1075.6 1277.59 Q1075.6 1284.69 1077.41 1288.26 Q1079.23 1291.8 1082.85 1291.8 Q1086.48 1291.8 1088.28 1288.26 Q1090.11 1284.69 1090.11 1277.59 Q1090.11 1270.46 1088.28 1266.92 Q1086.48 1263.35 1082.85 1263.35 M1082.85 1259.65 Q1088.66 1259.65 1091.71 1264.25 Q1094.79 1268.84 1094.79 1277.59 Q1094.79 1286.31 1091.71 1290.92 Q1088.66 1295.5 1082.85 1295.5 Q1077.04 1295.5 1073.96 1290.92 Q1070.9 1286.31 1070.9 1277.59 Q1070.9 1268.84 1073.96 1264.25 Q1077.04 1259.65 1082.85 1259.65 Z" fill="#000000" fill-rule="nonzero" fill-opacity="1" /><path clip-path="url(#clip630)" d="M1169.01 1300.99 Q1165.4 1300.99 1163.57 1304.56 Q1161.76 1308.1 1161.76 1315.23 Q1161.76 1322.34 1163.57 1325.9 Q1165.4 1329.44 1169.01 1329.44 Q1172.64 1329.44 1174.45 1325.9 Q1176.28 1322.34 1176.28 1315.23 Q1176.28 1308.1 1174.45 1304.56 Q1172.64 1300.99 1169.01 1300.99 M1169.01 1297.29 Q1174.82 1297.29 1177.87 1301.9 Q1180.95 1306.48 1180.95 1315.23 Q1180.95 1323.96 1177.87 1328.56 Q1174.82 1333.15 1169.01 1333.15 Q1163.2 1333.15 1160.12 1328.56 Q1157.06 1323.96 1157.06 1315.23 Q1157.06 1306.48 1160.12 1301.9 Q1163.2 1297.29 1169.01 1297.29 Z" fill="#000000" fill-rule="nonzero" fill-opacity="1" /><path clip-path="url(#clip630)" d="M1189.17 1326.6 L1194.06 1326.6 L1194.06 1332.48 L1189.17 1332.48 L1189.17 1326.6 Z" fill="#000000" fill-rule="nonzero" fill-opacity="1" /><path clip-path="url(#clip630)" d="M1204.29 1297.92 L1222.64 1297.92 L1222.64 1301.85 L1208.57 1301.85 L1208.57 1310.32 Q1209.59 1309.98 1210.61 1309.81 Q1211.62 1309.63 1212.64 1309.63 Q1218.43 1309.63 1221.81 1312.8 Q1225.19 1315.97 1225.19 1321.39 Q1225.19 1326.97 1221.72 1330.07 Q1218.25 1333.15 1211.93 1333.15 Q1209.75 1333.15 1207.48 1332.78 Q1205.24 1332.41 1202.83 1331.67 L1202.83 1326.97 Q1204.91 1328.1 1207.13 1328.66 Q1209.36 1329.21 1211.83 1329.21 Q1215.84 1329.21 1218.18 1327.11 Q1220.51 1325 1220.51 1321.39 Q1220.51 1317.78 1218.18 1315.67 Q1215.84 1313.56 1211.83 1313.56 Q1209.96 1313.56 1208.08 1313.98 Q1206.23 1314.4 1204.29 1315.28 L1204.29 1297.92 Z" fill="#000000" fill-rule="nonzero" fill-opacity="1" /><path clip-path="url(#clip630)" d="M1289.22 1366.18 L1296.86 1366.18 L1296.86 1339.82 L1288.55 1341.48 L1288.55 1337.23 L1296.82 1335.56 L1301.49 1335.56 L1301.49 1366.18 L1309.13 1366.18 L1309.13 1370.12 L1289.22 1370.12 L1289.22 1366.18 Z" fill="#000000" fill-rule="nonzero" fill-opacity="1" /><path clip-path="url(#clip630)" d="M1318.58 1364.24 L1323.46 1364.24 L1323.46 1370.12 L1318.58 1370.12 L1318.58 1364.24 Z" fill="#000000" fill-rule="nonzero" fill-opacity="1" /><path clip-path="url(#clip630)" d="M1343.64 1338.64 Q1340.03 1338.64 1338.21 1342.2 Q1336.4 1345.74 1336.4 1352.87 Q1336.4 1359.98 1338.21 1363.54 Q1340.03 1367.09 1343.64 1367.09 Q1347.28 1367.09 1349.08 1363.54 Q1350.91 1359.98 1350.91 1352.87 Q1350.91 1345.74 1349.08 1342.2 Q1347.28 1338.64 1343.64 1338.64 M1343.64 1334.93 Q1349.46 1334.93 1352.51 1339.54 Q1355.59 1344.12 1355.59 1352.87 Q1355.59 1361.6 1352.51 1366.21 Q1349.46 1370.79 1343.64 1370.79 Q1337.83 1370.79 1334.76 1366.21 Q1331.7 1361.6 1331.7 1352.87 Q1331.7 1344.12 1334.76 1339.54 Q1337.83 1334.93 1343.64 1334.93 Z" fill="#000000" fill-rule="nonzero" fill-opacity="1" /><path clip-path="url(#clip630)" d="M938.128 1395.68 L925.237 1413.03 L938.796 1431.33 L931.889 1431.33 L921.513 1417.33 L911.137 1431.33 L904.231 1431.33 L918.076 1412.68 L905.408 1395.68 L912.315 1395.68 L921.768 1408.38 L931.221 1395.68 L938.128 1395.68 Z" fill="#000000" fill-rule="nonzero" fill-opacity="1" /><path clip-path="url(#clip630)" d="M978.2 1383.81 L983.611 1383.81 L967.06 1437.38 L961.649 1437.38 L978.2 1383.81 Z" fill="#000000" fill-rule="nonzero" fill-opacity="1" /><path clip-path="url(#clip630)" d="M1038.23 1402.53 Q1040.42 1398.58 1043.48 1396.7 Q1046.54 1394.82 1050.67 1394.82 Q1056.24 1394.82 1059.27 1398.74 Q1062.29 1402.62 1062.29 1409.82 L1062.29 1431.33 L1056.4 1431.33 L1056.4 1410.01 Q1056.4 1404.88 1054.59 1402.4 Q1052.77 1399.92 1049.05 1399.92 Q1044.5 1399.92 1041.86 1402.94 Q1039.22 1405.96 1039.22 1411.18 L1039.22 1431.33 L1033.33 1431.33 L1033.33 1410.01 Q1033.33 1404.85 1031.51 1402.4 Q1029.7 1399.92 1025.91 1399.92 Q1021.42 1399.92 1018.78 1402.97 Q1016.14 1406 1016.14 1411.18 L1016.14 1431.33 L1010.25 1431.33 L1010.25 1395.68 L1016.14 1395.68 L1016.14 1401.22 Q1018.14 1397.94 1020.95 1396.38 Q1023.75 1394.82 1027.6 1394.82 Q1031.48 1394.82 1034.19 1396.8 Q1036.92 1398.77 1038.23 1402.53 Z" fill="#000000" fill-rule="nonzero" fill-opacity="1" /><polyline clip-path="url(#clip632)" style="stroke:#000000; stroke-linecap:round; stroke-linejoin:round; stroke-width:2; stroke-opacity:0.1; fill:none" points="1511.37,1297.66 823.402,1099.06 823.402,411.088 "/>
<polyline clip-path="url(#clip632)" style="stroke:#000000; stroke-linecap:round; stroke-linejoin:round; stroke-width:2; stroke-opacity:0.1; fill:none" points="1580.17,1238.08 892.199,1039.48 892.199,351.508 "/>
<polyline clip-path="url(#clip632)" style="stroke:#000000; stroke-linecap:round; stroke-linejoin:round; stroke-width:2; stroke-opacity:0.1; fill:none" points="1648.96,1178.5 960.996,979.896 960.996,291.928 "/>
<polyline clip-path="url(#clip632)" style="stroke:#000000; stroke-linecap:round; stroke-linejoin:round; stroke-width:2; stroke-opacity:0.1; fill:none" points="1717.76,1118.92 1029.79,920.317 1029.79,232.349 "/>
<polyline clip-path="url(#clip632)" style="stroke:#000000; stroke-linecap:round; stroke-linejoin:round; stroke-width:2; stroke-opacity:0.1; fill:none" points="1786.56,1059.34 1098.59,860.737 1098.59,172.769 "/>
<polyline clip-path="url(#clip630)" style="stroke:#000000; stroke-linecap:round; stroke-linejoin:round; stroke-width:4; stroke-opacity:1; fill:none" points="1450.36,1350.49 1847.56,1006.5 "/>
<polyline clip-path="url(#clip630)" style="stroke:#000000; stroke-linecap:round; stroke-linejoin:round; stroke-width:4; stroke-opacity:1; fill:none" points="1511.37,1297.66 1503.11,1295.27 "/>
<polyline clip-path="url(#clip630)" style="stroke:#000000; stroke-linecap:round; stroke-linejoin:round; stroke-width:4; stroke-opacity:1; fill:none" points="1580.17,1238.08 1571.91,1235.69 "/>
<polyline clip-path="url(#clip630)" style="stroke:#000000; stroke-linecap:round; stroke-linejoin:round; stroke-width:4; stroke-opacity:1; fill:none" points="1648.96,1178.5 1640.71,1176.11 "/>
<polyline clip-path="url(#clip630)" style="stroke:#000000; stroke-linecap:round; stroke-linejoin:round; stroke-width:4; stroke-opacity:1; fill:none" points="1717.76,1118.92 1709.51,1116.53 "/>
<polyline clip-path="url(#clip630)" style="stroke:#000000; stroke-linecap:round; stroke-linejoin:round; stroke-width:4; stroke-opacity:1; fill:none" points="1786.56,1059.34 1778.3,1056.95 "/>
<path clip-path="url(#clip630)" d="M1534.32 1315.51 L1564 1315.51 L1564 1319.44 L1534.32 1319.44 L1534.32 1315.51 Z" fill="#000000" fill-rule="nonzero" fill-opacity="1" /><path clip-path="url(#clip630)" d="M1584.09 1300.85 Q1580.48 1300.85 1578.65 1304.42 Q1576.84 1307.96 1576.84 1315.09 Q1576.84 1322.2 1578.65 1325.76 Q1580.48 1329.3 1584.09 1329.3 Q1587.72 1329.3 1589.53 1325.76 Q1591.36 1322.2 1591.36 1315.09 Q1591.36 1307.96 1589.53 1304.42 Q1587.72 1300.85 1584.09 1300.85 M1584.09 1297.15 Q1589.9 1297.15 1592.95 1301.76 Q1596.03 1306.34 1596.03 1315.09 Q1596.03 1323.82 1592.95 1328.42 Q1589.9 1333.01 1584.09 1333.01 Q1578.28 1333.01 1575.2 1328.42 Q1572.14 1323.82 1572.14 1315.09 Q1572.14 1306.34 1575.2 1301.76 Q1578.28 1297.15 1584.09 1297.15 Z" fill="#000000" fill-rule="nonzero" fill-opacity="1" /><path clip-path="url(#clip630)" d="M1604.25 1326.46 L1609.13 1326.46 L1609.13 1332.33 L1604.25 1332.33 L1604.25 1326.46 Z" fill="#000000" fill-rule="nonzero" fill-opacity="1" /><path clip-path="url(#clip630)" d="M1629.9 1313.19 Q1626.75 1313.19 1624.9 1315.34 Q1623.07 1317.5 1623.07 1321.25 Q1623.07 1324.97 1624.9 1327.15 Q1626.75 1329.3 1629.9 1329.3 Q1633.05 1329.3 1634.87 1327.15 Q1636.73 1324.97 1636.73 1321.25 Q1636.73 1317.5 1634.87 1315.34 Q1633.05 1313.19 1629.9 1313.19 M1639.18 1298.54 L1639.18 1302.8 Q1637.42 1301.96 1635.62 1301.52 Q1633.83 1301.09 1632.07 1301.09 Q1627.44 1301.09 1624.99 1304.21 Q1622.56 1307.34 1622.21 1313.65 Q1623.58 1311.64 1625.64 1310.58 Q1627.7 1309.49 1630.18 1309.49 Q1635.38 1309.49 1638.39 1312.66 Q1641.43 1315.81 1641.43 1321.25 Q1641.43 1326.57 1638.28 1329.79 Q1635.13 1333.01 1629.9 1333.01 Q1623.9 1333.01 1620.73 1328.42 Q1617.56 1323.82 1617.56 1315.09 Q1617.56 1306.9 1621.45 1302.03 Q1625.34 1297.15 1631.89 1297.15 Q1633.65 1297.15 1635.43 1297.5 Q1637.24 1297.84 1639.18 1298.54 Z" fill="#000000" fill-rule="nonzero" fill-opacity="1" /><path clip-path="url(#clip630)" d="M1603.12 1255.93 L1632.79 1255.93 L1632.79 1259.86 L1603.12 1259.86 L1603.12 1255.93 Z" fill="#000000" fill-rule="nonzero" fill-opacity="1" /><path clip-path="url(#clip630)" d="M1652.89 1241.27 Q1649.27 1241.27 1647.45 1244.84 Q1645.64 1248.38 1645.64 1255.51 Q1645.64 1262.62 1647.45 1266.18 Q1649.27 1269.72 1652.89 1269.72 Q1656.52 1269.72 1658.32 1266.18 Q1660.15 1262.62 1660.15 1255.51 Q1660.15 1248.38 1658.32 1244.84 Q1656.52 1241.27 1652.89 1241.27 M1652.89 1237.57 Q1658.7 1237.57 1661.75 1242.18 Q1664.83 1246.76 1664.83 1255.51 Q1664.83 1264.24 1661.75 1268.84 Q1658.7 1273.43 1652.89 1273.43 Q1647.07 1273.43 1644 1268.84 Q1640.94 1264.24 1640.94 1255.51 Q1640.94 1246.76 1644 1242.18 Q1647.07 1237.57 1652.89 1237.57 Z" fill="#000000" fill-rule="nonzero" fill-opacity="1" /><path clip-path="url(#clip630)" d="M1673.05 1266.88 L1677.93 1266.88 L1677.93 1272.76 L1673.05 1272.76 L1673.05 1266.88 Z" fill="#000000" fill-rule="nonzero" fill-opacity="1" /><path clip-path="url(#clip630)" d="M1702.28 1254.12 Q1705.64 1254.84 1707.51 1257.11 Q1709.41 1259.38 1709.41 1262.71 Q1709.41 1267.82 1705.89 1270.63 Q1702.38 1273.43 1695.89 1273.43 Q1693.72 1273.43 1691.4 1272.99 Q1689.11 1272.57 1686.66 1271.71 L1686.66 1267.2 Q1688.6 1268.33 1690.92 1268.91 Q1693.23 1269.49 1695.76 1269.49 Q1700.15 1269.49 1702.44 1267.76 Q1704.76 1266.02 1704.76 1262.71 Q1704.76 1259.65 1702.61 1257.94 Q1700.48 1256.2 1696.66 1256.2 L1692.63 1256.2 L1692.63 1252.36 L1696.84 1252.36 Q1700.29 1252.36 1702.12 1251 Q1703.95 1249.61 1703.95 1247.01 Q1703.95 1244.35 1702.05 1242.94 Q1700.18 1241.51 1696.66 1241.51 Q1694.74 1241.51 1692.54 1241.92 Q1690.34 1242.34 1687.7 1243.22 L1687.7 1239.05 Q1690.36 1238.31 1692.68 1237.94 Q1695.01 1237.57 1697.07 1237.57 Q1702.4 1237.57 1705.5 1240 Q1708.6 1242.41 1708.6 1246.53 Q1708.6 1249.4 1706.96 1251.39 Q1705.32 1253.36 1702.28 1254.12 Z" fill="#000000" fill-rule="nonzero" fill-opacity="1" /><path clip-path="url(#clip630)" d="M1683.86 1181.69 Q1680.25 1181.69 1678.42 1185.26 Q1676.61 1188.8 1676.61 1195.93 Q1676.61 1203.04 1678.42 1206.6 Q1680.25 1210.14 1683.86 1210.14 Q1687.49 1210.14 1689.3 1206.6 Q1691.13 1203.04 1691.13 1195.93 Q1691.13 1188.8 1689.3 1185.26 Q1687.49 1181.69 1683.86 1181.69 M1683.86 1177.99 Q1689.67 1177.99 1692.72 1182.6 Q1695.8 1187.18 1695.8 1195.93 Q1695.8 1204.66 1692.72 1209.26 Q1689.67 1213.85 1683.86 1213.85 Q1678.05 1213.85 1674.97 1209.26 Q1671.91 1204.66 1671.91 1195.93 Q1671.91 1187.18 1674.97 1182.6 Q1678.05 1177.99 1683.86 1177.99 Z" fill="#000000" fill-rule="nonzero" fill-opacity="1" /><path clip-path="url(#clip630)" d="M1704.02 1207.3 L1708.9 1207.3 L1708.9 1213.18 L1704.02 1213.18 L1704.02 1207.3 Z" fill="#000000" fill-rule="nonzero" fill-opacity="1" /><path clip-path="url(#clip630)" d="M1729.09 1181.69 Q1725.48 1181.69 1723.65 1185.26 Q1721.84 1188.8 1721.84 1195.93 Q1721.84 1203.04 1723.65 1206.6 Q1725.48 1210.14 1729.09 1210.14 Q1732.72 1210.14 1734.53 1206.6 Q1736.36 1203.04 1736.36 1195.93 Q1736.36 1188.8 1734.53 1185.26 Q1732.72 1181.69 1729.09 1181.69 M1729.09 1177.99 Q1734.9 1177.99 1737.95 1182.6 Q1741.03 1187.18 1741.03 1195.93 Q1741.03 1204.66 1737.95 1209.26 Q1734.9 1213.85 1729.09 1213.85 Q1723.28 1213.85 1720.2 1209.26 Q1717.14 1204.66 1717.14 1195.93 Q1717.14 1187.18 1720.2 1182.6 Q1723.28 1177.99 1729.09 1177.99 Z" fill="#000000" fill-rule="nonzero" fill-opacity="1" /><path clip-path="url(#clip630)" d="M1752.65 1122.11 Q1749.04 1122.11 1747.21 1125.68 Q1745.41 1129.22 1745.41 1136.35 Q1745.41 1143.46 1747.21 1147.02 Q1749.04 1150.56 1752.65 1150.56 Q1756.29 1150.56 1758.09 1147.02 Q1759.92 1143.46 1759.92 1136.35 Q1759.92 1129.22 1758.09 1125.68 Q1756.29 1122.11 1752.65 1122.11 M1752.65 1118.41 Q1758.46 1118.41 1761.52 1123.02 Q1764.6 1127.6 1764.6 1136.35 Q1764.6 1145.08 1761.52 1149.68 Q1758.46 1154.27 1752.65 1154.27 Q1746.84 1154.27 1743.77 1149.68 Q1740.71 1145.08 1740.71 1136.35 Q1740.71 1127.6 1743.77 1123.02 Q1746.84 1118.41 1752.65 1118.41 Z" fill="#000000" fill-rule="nonzero" fill-opacity="1" /><path clip-path="url(#clip630)" d="M1772.82 1147.72 L1777.7 1147.72 L1777.7 1153.6 L1772.82 1153.6 L1772.82 1147.72 Z" fill="#000000" fill-rule="nonzero" fill-opacity="1" /><path clip-path="url(#clip630)" d="M1802.05 1134.96 Q1805.41 1135.68 1807.28 1137.95 Q1809.18 1140.22 1809.18 1143.55 Q1809.18 1148.67 1805.66 1151.47 Q1802.15 1154.27 1795.66 1154.27 Q1793.49 1154.27 1791.17 1153.83 Q1788.88 1153.41 1786.43 1152.55 L1786.43 1148.04 Q1788.37 1149.17 1790.69 1149.75 Q1793 1150.33 1795.52 1150.33 Q1799.92 1150.33 1802.21 1148.6 Q1804.53 1146.86 1804.53 1143.55 Q1804.53 1140.49 1802.38 1138.78 Q1800.25 1137.04 1796.43 1137.04 L1792.4 1137.04 L1792.4 1133.2 L1796.61 1133.2 Q1800.06 1133.2 1801.89 1131.84 Q1803.72 1130.45 1803.72 1127.85 Q1803.72 1125.19 1801.82 1123.78 Q1799.95 1122.35 1796.43 1122.35 Q1794.51 1122.35 1792.31 1122.76 Q1790.11 1123.18 1787.47 1124.06 L1787.47 1119.89 Q1790.13 1119.15 1792.45 1118.78 Q1794.78 1118.41 1796.84 1118.41 Q1802.17 1118.41 1805.27 1120.84 Q1808.37 1123.25 1808.37 1127.37 Q1808.37 1130.24 1806.73 1132.23 Q1805.08 1134.2 1802.05 1134.96 Z" fill="#000000" fill-rule="nonzero" fill-opacity="1" /><path clip-path="url(#clip630)" d="M1821.45 1062.53 Q1817.84 1062.53 1816.01 1066.1 Q1814.21 1069.64 1814.21 1076.77 Q1814.21 1083.88 1816.01 1087.44 Q1817.84 1090.98 1821.45 1090.98 Q1825.09 1090.98 1826.89 1087.44 Q1828.72 1083.88 1828.72 1076.77 Q1828.72 1069.64 1826.89 1066.1 Q1825.09 1062.53 1821.45 1062.53 M1821.45 1058.83 Q1827.26 1058.83 1830.32 1063.44 Q1833.4 1068.02 1833.4 1076.77 Q1833.4 1085.5 1830.32 1090.1 Q1827.26 1094.69 1821.45 1094.69 Q1815.64 1094.69 1812.56 1090.1 Q1809.51 1085.5 1809.51 1076.77 Q1809.51 1068.02 1812.56 1063.44 Q1815.64 1058.83 1821.45 1058.83 Z" fill="#000000" fill-rule="nonzero" fill-opacity="1" /><path clip-path="url(#clip630)" d="M1841.61 1088.14 L1846.5 1088.14 L1846.5 1094.02 L1841.61 1094.02 L1841.61 1088.14 Z" fill="#000000" fill-rule="nonzero" fill-opacity="1" /><path clip-path="url(#clip630)" d="M1867.26 1074.87 Q1864.11 1074.87 1862.26 1077.03 Q1860.43 1079.18 1860.43 1082.93 Q1860.43 1086.65 1862.26 1088.83 Q1864.11 1090.98 1867.26 1090.98 Q1870.41 1090.98 1872.24 1088.83 Q1874.09 1086.65 1874.09 1082.93 Q1874.09 1079.18 1872.24 1077.03 Q1870.41 1074.87 1867.26 1074.87 M1876.54 1060.22 L1876.54 1064.48 Q1874.78 1063.65 1872.98 1063.21 Q1871.2 1062.77 1869.44 1062.77 Q1864.81 1062.77 1862.35 1065.89 Q1859.92 1069.02 1859.58 1075.34 Q1860.94 1073.32 1863 1072.26 Q1865.06 1071.17 1867.54 1071.17 Q1872.75 1071.17 1875.76 1074.34 Q1878.79 1077.49 1878.79 1082.93 Q1878.79 1088.25 1875.64 1091.47 Q1872.49 1094.69 1867.26 1094.69 Q1861.27 1094.69 1858.09 1090.1 Q1854.92 1085.5 1854.92 1076.77 Q1854.92 1068.58 1858.81 1063.72 Q1862.7 1058.83 1869.25 1058.83 Q1871.01 1058.83 1872.79 1059.18 Q1874.6 1059.53 1876.54 1060.22 Z" fill="#000000" fill-rule="nonzero" fill-opacity="1" /><path clip-path="url(#clip630)" d="M1712.12 1361.95 Q1709.64 1368.32 1707.28 1370.26 Q1704.93 1372.2 1700.98 1372.2 L1696.3 1372.2 L1696.3 1367.3 L1699.74 1367.3 Q1702.16 1367.3 1703.49 1366.15 Q1704.83 1365.01 1706.45 1360.74 L1707.5 1358.07 L1693.09 1322.99 L1699.29 1322.99 L1710.43 1350.87 L1721.57 1322.99 L1727.78 1322.99 L1712.12 1361.95 Z" fill="#000000" fill-rule="nonzero" fill-opacity="1" /><path clip-path="url(#clip630)" d="M1766.99 1311.12 L1772.4 1311.12 L1755.85 1364.69 L1750.44 1364.69 L1766.99 1311.12 Z" fill="#000000" fill-rule="nonzero" fill-opacity="1" /><path clip-path="url(#clip630)" d="M1827.02 1329.83 Q1829.22 1325.89 1832.27 1324.01 Q1835.33 1322.13 1839.46 1322.13 Q1845.03 1322.13 1848.06 1326.05 Q1851.08 1329.93 1851.08 1337.12 L1851.08 1358.64 L1845.19 1358.64 L1845.19 1337.31 Q1845.19 1332.19 1843.38 1329.71 Q1841.57 1327.22 1837.84 1327.22 Q1833.29 1327.22 1830.65 1330.25 Q1828.01 1333.27 1828.01 1338.49 L1828.01 1358.64 L1822.12 1358.64 L1822.12 1337.31 Q1822.12 1332.16 1820.3 1329.71 Q1818.49 1327.22 1814.7 1327.22 Q1810.21 1327.22 1807.57 1330.28 Q1804.93 1333.3 1804.93 1338.49 L1804.93 1358.64 L1799.04 1358.64 L1799.04 1322.99 L1804.93 1322.99 L1804.93 1328.53 Q1806.94 1325.25 1809.74 1323.69 Q1812.54 1322.13 1816.39 1322.13 Q1820.27 1322.13 1822.98 1324.11 Q1825.71 1326.08 1827.02 1329.83 Z" fill="#000000" fill-rule="nonzero" fill-opacity="1" /><polyline clip-path="url(#clip632)" style="stroke:#000000; stroke-linecap:round; stroke-linejoin:round; stroke-width:2; stroke-opacity:0.1; fill:none" points="762.397,1151.89 1159.6,807.904 1847.56,1006.5 "/>
<polyline clip-path="url(#clip632)" style="stroke:#000000; stroke-linecap:round; stroke-linejoin:round; stroke-width:2; stroke-opacity:0.1; fill:none" points="762.397,979.896 1159.6,635.912 1847.56,834.512 "/>
<polyline clip-path="url(#clip632)" style="stroke:#000000; stroke-linecap:round; stroke-linejoin:round; stroke-width:2; stroke-opacity:0.1; fill:none" points="762.397,807.904 1159.6,463.92 1847.56,662.52 "/>
<polyline clip-path="url(#clip632)" style="stroke:#000000; stroke-linecap:round; stroke-linejoin:round; stroke-width:2; stroke-opacity:0.1; fill:none" points="762.397,635.912 1159.6,291.928 1847.56,490.528 "/>
<polyline clip-path="url(#clip632)" style="stroke:#000000; stroke-linecap:round; stroke-linejoin:round; stroke-width:2; stroke-opacity:0.1; fill:none" points="762.397,463.92 1159.6,119.936 1847.56,318.536 "/>
<polyline clip-path="url(#clip630)" style="stroke:#000000; stroke-linecap:round; stroke-linejoin:round; stroke-width:4; stroke-opacity:1; fill:none" points="762.397,1151.89 762.397,463.92 "/>
<polyline clip-path="url(#clip630)" style="stroke:#000000; stroke-linecap:round; stroke-linejoin:round; stroke-width:4; stroke-opacity:1; fill:none" points="762.397,1151.89 767.163,1147.76 "/>
<polyline clip-path="url(#clip630)" style="stroke:#000000; stroke-linecap:round; stroke-linejoin:round; stroke-width:4; stroke-opacity:1; fill:none" points="762.397,979.896 767.163,975.768 "/>
<polyline clip-path="url(#clip630)" style="stroke:#000000; stroke-linecap:round; stroke-linejoin:round; stroke-width:4; stroke-opacity:1; fill:none" points="762.397,807.904 767.163,803.777 "/>
<polyline clip-path="url(#clip630)" style="stroke:#000000; stroke-linecap:round; stroke-linejoin:round; stroke-width:4; stroke-opacity:1; fill:none" points="762.397,635.912 767.163,631.785 "/>
<polyline clip-path="url(#clip630)" style="stroke:#000000; stroke-linecap:round; stroke-linejoin:round; stroke-width:4; stroke-opacity:1; fill:none" points="762.397,463.92 767.163,459.793 "/>
<path clip-path="url(#clip630)" d="M626.653 1152.34 L656.329 1152.34 L656.329 1156.27 L626.653 1156.27 L626.653 1152.34 Z" fill="#000000" fill-rule="nonzero" fill-opacity="1" /><path clip-path="url(#clip630)" d="M667.231 1165.23 L674.87 1165.23 L674.87 1138.87 L666.56 1140.53 L666.56 1136.27 L674.824 1134.61 L679.5 1134.61 L679.5 1165.23 L687.139 1165.23 L687.139 1169.17 L667.231 1169.17 L667.231 1165.23 Z" fill="#000000" fill-rule="nonzero" fill-opacity="1" /><path clip-path="url(#clip630)" d="M696.583 1163.29 L701.467 1163.29 L701.467 1169.17 L696.583 1169.17 L696.583 1163.29 Z" fill="#000000" fill-rule="nonzero" fill-opacity="1" /><path clip-path="url(#clip630)" d="M721.652 1137.69 Q718.041 1137.69 716.213 1141.25 Q714.407 1144.79 714.407 1151.92 Q714.407 1159.03 716.213 1162.59 Q718.041 1166.14 721.652 1166.14 Q725.287 1166.14 727.092 1162.59 Q728.921 1159.03 728.921 1151.92 Q728.921 1144.79 727.092 1141.25 Q725.287 1137.69 721.652 1137.69 M721.652 1133.98 Q727.463 1133.98 730.518 1138.59 Q733.597 1143.17 733.597 1151.92 Q733.597 1160.65 730.518 1165.26 Q727.463 1169.84 721.652 1169.84 Q715.842 1169.84 712.764 1165.26 Q709.708 1160.65 709.708 1151.92 Q709.708 1143.17 712.764 1138.59 Q715.842 1133.98 721.652 1133.98 Z" fill="#000000" fill-rule="nonzero" fill-opacity="1" /><path clip-path="url(#clip630)" d="M627.648 980.348 L657.324 980.348 L657.324 984.283 L627.648 984.283 L627.648 980.348 Z" fill="#000000" fill-rule="nonzero" fill-opacity="1" /><path clip-path="url(#clip630)" d="M677.417 965.695 Q673.805 965.695 671.977 969.26 Q670.171 972.801 670.171 979.931 Q670.171 987.037 671.977 990.602 Q673.805 994.144 677.417 994.144 Q681.051 994.144 682.856 990.602 Q684.685 987.037 684.685 979.931 Q684.685 972.801 682.856 969.26 Q681.051 965.695 677.417 965.695 M677.417 961.991 Q683.227 961.991 686.282 966.598 Q689.361 971.181 689.361 979.931 Q689.361 988.658 686.282 993.264 Q683.227 997.848 677.417 997.848 Q671.606 997.848 668.528 993.264 Q665.472 988.658 665.472 979.931 Q665.472 971.181 668.528 966.598 Q671.606 961.991 677.417 961.991 Z" fill="#000000" fill-rule="nonzero" fill-opacity="1" /><path clip-path="url(#clip630)" d="M697.578 991.297 L702.463 991.297 L702.463 997.176 L697.578 997.176 L697.578 991.297 Z" fill="#000000" fill-rule="nonzero" fill-opacity="1" /><path clip-path="url(#clip630)" d="M712.694 962.616 L731.051 962.616 L731.051 966.551 L716.977 966.551 L716.977 975.024 Q717.995 974.676 719.014 974.514 Q720.032 974.329 721.051 974.329 Q726.838 974.329 730.217 977.5 Q733.597 980.672 733.597 986.088 Q733.597 991.667 730.125 994.769 Q726.652 997.848 720.333 997.848 Q718.157 997.848 715.889 997.477 Q713.643 997.107 711.236 996.366 L711.236 991.667 Q713.319 992.801 715.541 993.357 Q717.764 993.912 720.24 993.912 Q724.245 993.912 726.583 991.806 Q728.921 989.699 728.921 986.088 Q728.921 982.477 726.583 980.371 Q724.245 978.264 720.24 978.264 Q718.365 978.264 716.49 978.681 Q714.639 979.098 712.694 979.977 L712.694 962.616 Z" fill="#000000" fill-rule="nonzero" fill-opacity="1" /><path clip-path="url(#clip630)" d="M676.421 793.703 Q672.81 793.703 670.981 797.268 Q669.176 800.809 669.176 807.939 Q669.176 815.045 670.981 818.61 Q672.81 822.152 676.421 822.152 Q680.055 822.152 681.861 818.61 Q683.69 815.045 683.69 807.939 Q683.69 800.809 681.861 797.268 Q680.055 793.703 676.421 793.703 M676.421 789.999 Q682.231 789.999 685.287 794.606 Q688.366 799.189 688.366 807.939 Q688.366 816.666 685.287 821.272 Q682.231 825.856 676.421 825.856 Q670.611 825.856 667.532 821.272 Q664.477 816.666 664.477 807.939 Q664.477 799.189 667.532 794.606 Q670.611 789.999 676.421 789.999 Z" fill="#000000" fill-rule="nonzero" fill-opacity="1" /><path clip-path="url(#clip630)" d="M696.583 819.305 L701.467 819.305 L701.467 825.184 L696.583 825.184 L696.583 819.305 Z" fill="#000000" fill-rule="nonzero" fill-opacity="1" /><path clip-path="url(#clip630)" d="M721.652 793.703 Q718.041 793.703 716.213 797.268 Q714.407 800.809 714.407 807.939 Q714.407 815.045 716.213 818.61 Q718.041 822.152 721.652 822.152 Q725.287 822.152 727.092 818.61 Q728.921 815.045 728.921 807.939 Q728.921 800.809 727.092 797.268 Q725.287 793.703 721.652 793.703 M721.652 789.999 Q727.463 789.999 730.518 794.606 Q733.597 799.189 733.597 807.939 Q733.597 816.666 730.518 821.272 Q727.463 825.856 721.652 825.856 Q715.842 825.856 712.764 821.272 Q709.708 816.666 709.708 807.939 Q709.708 799.189 712.764 794.606 Q715.842 789.999 721.652 789.999 Z" fill="#000000" fill-rule="nonzero" fill-opacity="1" /><path clip-path="url(#clip630)" d="M677.417 621.711 Q673.805 621.711 671.977 625.276 Q670.171 628.817 670.171 635.947 Q670.171 643.054 671.977 646.618 Q673.805 650.16 677.417 650.16 Q681.051 650.16 682.856 646.618 Q684.685 643.054 684.685 635.947 Q684.685 628.817 682.856 625.276 Q681.051 621.711 677.417 621.711 M677.417 618.007 Q683.227 618.007 686.282 622.614 Q689.361 627.197 689.361 635.947 Q689.361 644.674 686.282 649.28 Q683.227 653.864 677.417 653.864 Q671.606 653.864 668.528 649.28 Q665.472 644.674 665.472 635.947 Q665.472 627.197 668.528 622.614 Q671.606 618.007 677.417 618.007 Z" fill="#000000" fill-rule="nonzero" fill-opacity="1" /><path clip-path="url(#clip630)" d="M697.578 647.313 L702.463 647.313 L702.463 653.192 L697.578 653.192 L697.578 647.313 Z" fill="#000000" fill-rule="nonzero" fill-opacity="1" /><path clip-path="url(#clip630)" d="M712.694 618.632 L731.051 618.632 L731.051 622.568 L716.977 622.568 L716.977 631.04 Q717.995 630.692 719.014 630.53 Q720.032 630.345 721.051 630.345 Q726.838 630.345 730.217 633.517 Q733.597 636.688 733.597 642.104 Q733.597 647.683 730.125 650.785 Q726.652 653.864 720.333 653.864 Q718.157 653.864 715.889 653.493 Q713.643 653.123 711.236 652.382 L711.236 647.683 Q713.319 648.817 715.541 649.373 Q717.764 649.928 720.24 649.928 Q724.245 649.928 726.583 647.822 Q728.921 645.716 728.921 642.104 Q728.921 638.493 726.583 636.387 Q724.245 634.28 720.24 634.28 Q718.365 634.28 716.49 634.697 Q714.639 635.114 712.694 635.993 L712.694 618.632 Z" fill="#000000" fill-rule="nonzero" fill-opacity="1" /><path clip-path="url(#clip630)" d="M667.231 477.265 L674.87 477.265 L674.87 450.9 L666.56 452.566 L666.56 448.307 L674.824 446.64 L679.5 446.64 L679.5 477.265 L687.139 477.265 L687.139 481.2 L667.231 481.2 L667.231 477.265 Z" fill="#000000" fill-rule="nonzero" fill-opacity="1" /><path clip-path="url(#clip630)" d="M696.583 475.321 L701.467 475.321 L701.467 481.2 L696.583 481.2 L696.583 475.321 Z" fill="#000000" fill-rule="nonzero" fill-opacity="1" /><path clip-path="url(#clip630)" d="M721.652 449.719 Q718.041 449.719 716.213 453.284 Q714.407 456.826 714.407 463.955 Q714.407 471.062 716.213 474.626 Q718.041 478.168 721.652 478.168 Q725.287 478.168 727.092 474.626 Q728.921 471.062 728.921 463.955 Q728.921 456.826 727.092 453.284 Q725.287 449.719 721.652 449.719 M721.652 446.015 Q727.463 446.015 730.518 450.622 Q733.597 455.205 733.597 463.955 Q733.597 472.682 730.518 477.288 Q727.463 481.872 721.652 481.872 Q715.842 481.872 712.764 477.288 Q709.708 472.682 709.708 463.955 Q709.708 455.205 712.764 450.622 Q715.842 446.015 721.652 446.015 Z" fill="#000000" fill-rule="nonzero" fill-opacity="1" /><path clip-path="url(#clip630)" d="M533.549 883.497 L533.549 855.679 L538.896 855.679 L564.518 877.704 L564.518 855.679 L569.197 855.679 L569.197 884.293 L563.85 884.293 L538.228 862.267 L538.228 883.497 L533.549 883.497 Z" fill="#000000" fill-rule="nonzero" fill-opacity="1" /><path clip-path="url(#clip630)" d="M521.677 815.607 L521.677 810.196 L575.244 826.747 L575.244 832.158 L521.677 815.607 Z" fill="#000000" fill-rule="nonzero" fill-opacity="1" /><path clip-path="url(#clip630)" d="M540.392 755.578 Q536.445 753.382 534.567 750.327 Q532.69 747.271 532.69 743.133 Q532.69 737.563 536.605 734.54 Q540.488 731.516 547.681 731.516 L569.197 731.516 L569.197 737.404 L547.872 737.404 Q542.747 737.404 540.265 739.218 Q537.782 741.033 537.782 744.757 Q537.782 749.308 540.806 751.95 Q543.83 754.592 549.049 754.592 L569.197 754.592 L569.197 760.48 L547.872 760.48 Q542.716 760.48 540.265 762.294 Q537.782 764.108 537.782 767.896 Q537.782 772.384 540.838 775.025 Q543.861 777.667 549.049 777.667 L569.197 777.667 L569.197 783.555 L533.549 783.555 L533.549 777.667 L539.087 777.667 Q535.809 775.662 534.249 772.861 Q532.69 770.06 532.69 766.209 Q532.69 762.326 534.663 759.62 Q536.636 756.883 540.392 755.578 Z" fill="#000000" fill-rule="nonzero" fill-opacity="1" /><path clip-path="url(#clip632)" d="M1565.78 1154.48 L1633.98 944.847 L1373.18 869.561 L1044.18 1003.91 L975.981 1213.54 L1236.78 1288.83 Z" fill="#009afa" fill-rule="evenodd" fill-opacity="0.501961" stroke="#000000" stroke-opacity="0.501961" stroke-linejoin="round" stroke-width="0" /><path clip-path="url(#clip632)" d="M975.981 1213.54 L1236.78 1288.83 Z" fill="#009afa" fill-rule="evenodd" fill-opacity="1" stroke="#000000" stroke-opacity="1" stroke-linejoin="round" stroke-width="6.4" /><path clip-path="url(#clip632)" d="M1236.78 1288.83 L1565.78 1154.48 Z" fill="#009afa" fill-rule="evenodd" fill-opacity="1" stroke="#000000" stroke-opacity="1" stroke-linejoin="round" stroke-width="6.4" /><path clip-path="url(#clip632)" d="M1044.18 1003.91 L975.981 1213.54 Z" fill="#009afa" fill-rule="evenodd" fill-opacity="1" stroke="#000000" stroke-opacity="1" stroke-linejoin="round" stroke-width="6.4" /><path clip-path="url(#clip632)" d="M1565.78 1154.48 L1633.98 944.847 Z" fill="#009afa" fill-rule="evenodd" fill-opacity="1" stroke="#000000" stroke-opacity="1" stroke-linejoin="round" stroke-width="6.4" /><path clip-path="url(#clip632)" d="M1373.18 869.561 L1044.18 1003.91 Z" fill="#009afa" fill-rule="evenodd" fill-opacity="1" stroke="#000000" stroke-opacity="1" stroke-linejoin="round" stroke-width="6.4" /><path clip-path="url(#clip632)" d="M1633.98 944.847 L1373.18 869.561 Z" fill="#009afa" fill-rule="evenodd" fill-opacity="1" stroke="#000000" stroke-opacity="1" stroke-linejoin="round" stroke-width="6.4" /><path clip-path="url(#clip632)" d="M1236.78 600.863 L975.981 525.577 L1044.18 315.942 L1373.18 181.593 L1633.98 256.879 L1565.78 466.514 Z" fill="#009afa" fill-rule="evenodd" fill-opacity="0.501961" stroke="#000000" stroke-opacity="0.501961" stroke-linejoin="round" stroke-width="0" /><path clip-path="url(#clip632)" d="M1236.78 600.863 L975.981 525.577 Z" fill="#009afa" fill-rule="evenodd" fill-opacity="1" stroke="#000000" stroke-opacity="1" stroke-linejoin="round" stroke-width="6.4" /><path clip-path="url(#clip632)" d="M1565.78 466.514 L1236.78 600.863 Z" fill="#009afa" fill-rule="evenodd" fill-opacity="1" stroke="#000000" stroke-opacity="1" stroke-linejoin="round" stroke-width="6.4" /><path clip-path="url(#clip632)" d="M975.981 525.577 L1044.18 315.942 Z" fill="#009afa" fill-rule="evenodd" fill-opacity="1" stroke="#000000" stroke-opacity="1" stroke-linejoin="round" stroke-width="6.4" /><path clip-path="url(#clip632)" d="M1633.98 256.879 L1565.78 466.514 Z" fill="#009afa" fill-rule="evenodd" fill-opacity="1" stroke="#000000" stroke-opacity="1" stroke-linejoin="round" stroke-width="6.4" /><path clip-path="url(#clip632)" d="M1044.18 315.942 L1373.18 181.593 Z" fill="#009afa" fill-rule="evenodd" fill-opacity="1" stroke="#000000" stroke-opacity="1" stroke-linejoin="round" stroke-width="6.4" /><path clip-path="url(#clip632)" d="M1373.18 181.593 L1633.98 256.879 Z" fill="#009afa" fill-rule="evenodd" fill-opacity="1" stroke="#000000" stroke-opacity="1" stroke-linejoin="round" stroke-width="6.4" /><path clip-path="url(#clip632)" d="M1565.78 1154.48 L1565.78 466.514 L1633.98 256.879 L1633.98 944.847 Z" fill="#009afa" fill-rule="evenodd" fill-opacity="0.501961" stroke="#000000" stroke-opacity="0.501961" stroke-linejoin="round" stroke-width="0" /><path clip-path="url(#clip632)" d="M1565.78 466.514 L1633.98 256.879 Z" fill="#009afa" fill-rule="evenodd" fill-opacity="1" stroke="#000000" stroke-opacity="1" stroke-linejoin="round" stroke-width="6.4" /><path clip-path="url(#clip632)" d="M1565.78 1154.48 L1565.78 466.514 Z" fill="#009afa" fill-rule="evenodd" fill-opacity="1" stroke="#000000" stroke-opacity="1" stroke-linejoin="round" stroke-width="6.4" /><path clip-path="url(#clip632)" d="M1633.98 256.879 L1633.98 944.847 Z" fill="#009afa" fill-rule="evenodd" fill-opacity="1" stroke="#000000" stroke-opacity="1" stroke-linejoin="round" stroke-width="6.4" /><path clip-path="url(#clip632)" d="M1633.98 944.847 L1565.78 1154.48 Z" fill="#009afa" fill-rule="evenodd" fill-opacity="1" stroke="#000000" stroke-opacity="1" stroke-linejoin="round" stroke-width="6.4" /><path clip-path="url(#clip632)" d="M1633.98 944.847 L1633.98 256.879 L1373.18 181.593 L1373.18 869.561 Z" fill="#009afa" fill-rule="evenodd" fill-opacity="0.501961" stroke="#000000" stroke-opacity="0.501961" stroke-linejoin="round" stroke-width="0" /><path clip-path="url(#clip632)" d="M1633.98 256.879 L1373.18 181.593 Z" fill="#009afa" fill-rule="evenodd" fill-opacity="1" stroke="#000000" stroke-opacity="1" stroke-linejoin="round" stroke-width="6.4" /><path clip-path="url(#clip632)" d="M1633.98 944.847 L1633.98 256.879 Z" fill="#009afa" fill-rule="evenodd" fill-opacity="1" stroke="#000000" stroke-opacity="1" stroke-linejoin="round" stroke-width="6.4" /><path clip-path="url(#clip632)" d="M1373.18 181.593 L1373.18 869.561 Z" fill="#009afa" fill-rule="evenodd" fill-opacity="1" stroke="#000000" stroke-opacity="1" stroke-linejoin="round" stroke-width="6.4" /><path clip-path="url(#clip632)" d="M1373.18 869.561 L1633.98 944.847 Z" fill="#009afa" fill-rule="evenodd" fill-opacity="1" stroke="#000000" stroke-opacity="1" stroke-linejoin="round" stroke-width="6.4" /><path clip-path="url(#clip632)" d="M1373.18 869.561 L1373.18 181.593 L1044.18 315.942 L1044.18 1003.91 Z" fill="#009afa" fill-rule="evenodd" fill-opacity="0.501961" stroke="#000000" stroke-opacity="0.501961" stroke-linejoin="round" stroke-width="0" /><path clip-path="url(#clip632)" d="M1373.18 181.593 L1044.18 315.942 Z" fill="#009afa" fill-rule="evenodd" fill-opacity="1" stroke="#000000" stroke-opacity="1" stroke-linejoin="round" stroke-width="6.4" /><path clip-path="url(#clip632)" d="M1044.18 315.942 L1044.18 1003.91 Z" fill="#009afa" fill-rule="evenodd" fill-opacity="1" stroke="#000000" stroke-opacity="1" stroke-linejoin="round" stroke-width="6.4" /><path clip-path="url(#clip632)" d="M1373.18 869.561 L1373.18 181.593 Z" fill="#009afa" fill-rule="evenodd" fill-opacity="1" stroke="#000000" stroke-opacity="1" stroke-linejoin="round" stroke-width="6.4" /><path clip-path="url(#clip632)" d="M1044.18 1003.91 L1373.18 869.561 Z" fill="#009afa" fill-rule="evenodd" fill-opacity="1" stroke="#000000" stroke-opacity="1" stroke-linejoin="round" stroke-width="6.4" /><path clip-path="url(#clip632)" d="M1044.18 1003.91 L1044.18 315.942 L975.981 525.577 L975.981 1213.54 Z" fill="#009afa" fill-rule="evenodd" fill-opacity="0.501961" stroke="#000000" stroke-opacity="0.501961" stroke-linejoin="round" stroke-width="0" /><path clip-path="url(#clip632)" d="M1044.18 315.942 L975.981 525.577 Z" fill="#009afa" fill-rule="evenodd" fill-opacity="1" stroke="#000000" stroke-opacity="1" stroke-linejoin="round" stroke-width="6.4" /><path clip-path="url(#clip632)" d="M975.981 525.577 L975.981 1213.54 Z" fill="#009afa" fill-rule="evenodd" fill-opacity="1" stroke="#000000" stroke-opacity="1" stroke-linejoin="round" stroke-width="6.4" /><path clip-path="url(#clip632)" d="M1044.18 1003.91 L1044.18 315.942 Z" fill="#009afa" fill-rule="evenodd" fill-opacity="1" stroke="#000000" stroke-opacity="1" stroke-linejoin="round" stroke-width="6.4" /><path clip-path="url(#clip632)" d="M975.981 1213.54 L1044.18 1003.91 Z" fill="#009afa" fill-rule="evenodd" fill-opacity="1" stroke="#000000" stroke-opacity="1" stroke-linejoin="round" stroke-width="6.4" /><path clip-path="url(#clip632)" d="M975.981 1213.54 L975.981 525.577 L1236.78 600.863 L1236.78 1288.83 Z" fill="#009afa" fill-rule="evenodd" fill-opacity="0.501961" stroke="#000000" stroke-opacity="0.501961" stroke-linejoin="round" stroke-width="0" /><path clip-path="url(#clip632)" d="M975.981 525.577 L1236.78 600.863 Z" fill="#009afa" fill-rule="evenodd" fill-opacity="1" stroke="#000000" stroke-opacity="1" stroke-linejoin="round" stroke-width="6.4" /><path clip-path="url(#clip632)" d="M1236.78 600.863 L1236.78 1288.83 Z" fill="#009afa" fill-rule="evenodd" fill-opacity="1" stroke="#000000" stroke-opacity="1" stroke-linejoin="round" stroke-width="6.4" /><path clip-path="url(#clip632)" d="M975.981 1213.54 L975.981 525.577 Z" fill="#009afa" fill-rule="evenodd" fill-opacity="1" stroke="#000000" stroke-opacity="1" stroke-linejoin="round" stroke-width="6.4" /><path clip-path="url(#clip632)" d="M1236.78 1288.83 L975.981 1213.54 Z" fill="#009afa" fill-rule="evenodd" fill-opacity="1" stroke="#000000" stroke-opacity="1" stroke-linejoin="round" stroke-width="6.4" /><path clip-path="url(#clip632)" d="M1236.78 1288.83 L1236.78 600.863 L1565.78 466.514 L1565.78 1154.48 Z" fill="#009afa" fill-rule="evenodd" fill-opacity="0.501961" stroke="#000000" stroke-opacity="0.501961" stroke-linejoin="round" stroke-width="0" /><path clip-path="url(#clip632)" d="M1236.78 600.863 L1565.78 466.514 Z" fill="#009afa" fill-rule="evenodd" fill-opacity="1" stroke="#000000" stroke-opacity="1" stroke-linejoin="round" stroke-width="6.4" /><path clip-path="url(#clip632)" d="M1236.78 1288.83 L1236.78 600.863 Z" fill="#009afa" fill-rule="evenodd" fill-opacity="1" stroke="#000000" stroke-opacity="1" stroke-linejoin="round" stroke-width="6.4" /><path clip-path="url(#clip632)" d="M1565.78 466.514 L1565.78 1154.48 Z" fill="#009afa" fill-rule="evenodd" fill-opacity="1" stroke="#000000" stroke-opacity="1" stroke-linejoin="round" stroke-width="6.4" /><path clip-path="url(#clip632)" d="M1565.78 1154.48 L1236.78 1288.83 Z" fill="#009afa" fill-rule="evenodd" fill-opacity="1" stroke="#000000" stroke-opacity="1" stroke-linejoin="round" stroke-width="6.4" /><path clip-path="url(#clip630)" d="M1768.91 196.789 L2282.9 196.789 L2282.9 93.1086 L1768.91 93.1086  Z" fill="#ffffff" fill-rule="evenodd" fill-opacity="1"/>
<polyline clip-path="url(#clip630)" style="stroke:#000000; stroke-linecap:round; stroke-linejoin:round; stroke-width:4; stroke-opacity:1; fill:none" points="1768.91,196.789 2282.9,196.789 2282.9,93.1086 1768.91,93.1086 1768.91,196.789 "/>
<path clip-path="url(#clip630)" d="M1971.57 146.025 Q1973.07 146.534 1974.48 148.201 Q1975.92 149.868 1977.35 152.784 L1982.1 162.229 L1977.08 162.229 L1972.65 153.363 Q1970.94 149.891 1969.32 148.756 Q1967.72 147.622 1964.95 147.622 L1959.85 147.622 L1959.85 162.229 L1955.18 162.229 L1955.18 127.669 L1965.73 127.669 Q1971.66 127.669 1974.58 130.145 Q1977.49 132.622 1977.49 137.622 Q1977.49 140.886 1975.96 143.039 Q1974.46 145.192 1971.57 146.025 M1959.85 131.511 L1959.85 143.78 L1965.73 143.78 Q1969.11 143.78 1970.83 142.229 Q1972.56 140.655 1972.56 137.622 Q1972.56 134.59 1970.83 133.062 Q1969.11 131.511 1965.73 131.511 L1959.85 131.511 Z" fill="#000000" fill-rule="nonzero" fill-opacity="1" /><path clip-path="url(#clip630)" d="M2007.98 148.201 L2007.98 150.284 L1988.39 150.284 Q1988.67 154.682 1991.03 156.997 Q1993.42 159.289 1997.65 159.289 Q2000.11 159.289 2002.4 158.687 Q2004.71 158.085 2006.98 156.881 L2006.98 160.909 Q2004.69 161.881 2002.28 162.391 Q1999.88 162.9 1997.4 162.9 Q1991.2 162.9 1987.56 159.289 Q1983.95 155.678 1983.95 149.52 Q1983.95 143.155 1987.38 139.428 Q1990.83 135.678 1996.66 135.678 Q2001.89 135.678 2004.92 139.057 Q2007.98 142.414 2007.98 148.201 M2003.72 146.951 Q2003.67 143.456 2001.75 141.372 Q1999.85 139.289 1996.71 139.289 Q1993.14 139.289 1990.99 141.303 Q1988.86 143.317 1988.53 146.974 L2003.72 146.951 Z" fill="#000000" fill-rule="nonzero" fill-opacity="1" /><path clip-path="url(#clip630)" d="M2032.03 148.965 Q2032.03 144.335 2030.11 141.789 Q2028.21 139.243 2024.76 139.243 Q2021.33 139.243 2019.41 141.789 Q2017.52 144.335 2017.52 148.965 Q2017.52 153.571 2019.41 156.118 Q2021.33 158.664 2024.76 158.664 Q2028.21 158.664 2030.11 156.118 Q2032.03 153.571 2032.03 148.965 M2036.29 159.011 Q2036.29 165.631 2033.35 168.849 Q2030.41 172.09 2024.34 172.09 Q2022.1 172.09 2020.11 171.742 Q2018.12 171.418 2016.24 170.724 L2016.24 166.58 Q2018.12 167.599 2019.95 168.085 Q2021.77 168.571 2023.67 168.571 Q2027.86 168.571 2029.95 166.372 Q2032.03 164.196 2032.03 159.775 L2032.03 157.668 Q2030.71 159.96 2028.65 161.094 Q2026.59 162.229 2023.72 162.229 Q2018.95 162.229 2016.03 158.594 Q2013.12 154.96 2013.12 148.965 Q2013.12 142.946 2016.03 139.312 Q2018.95 135.678 2023.72 135.678 Q2026.59 135.678 2028.65 136.812 Q2030.71 137.946 2032.03 140.238 L2032.03 136.303 L2036.29 136.303 L2036.29 159.011 Z" fill="#000000" fill-rule="nonzero" fill-opacity="1" /><path clip-path="url(#clip630)" d="M2044.62 151.997 L2044.62 136.303 L2048.88 136.303 L2048.88 151.835 Q2048.88 155.516 2050.32 157.368 Q2051.75 159.196 2054.62 159.196 Q2058.07 159.196 2060.06 156.997 Q2062.08 154.798 2062.08 151.002 L2062.08 136.303 L2066.33 136.303 L2066.33 162.229 L2062.08 162.229 L2062.08 158.247 Q2060.52 160.608 2058.46 161.766 Q2056.43 162.9 2053.72 162.9 Q2049.25 162.9 2046.94 160.122 Q2044.62 157.344 2044.62 151.997 M2055.34 135.678 L2055.34 135.678 Z" fill="#000000" fill-rule="nonzero" fill-opacity="1" /><path clip-path="url(#clip630)" d="M2075.11 126.21 L2079.37 126.21 L2079.37 162.229 L2075.11 162.229 L2075.11 126.21 Z" fill="#000000" fill-rule="nonzero" fill-opacity="1" /><path clip-path="url(#clip630)" d="M2100.06 149.196 Q2094.9 149.196 2092.91 150.377 Q2090.92 151.557 2090.92 154.405 Q2090.92 156.673 2092.4 158.016 Q2093.9 159.335 2096.47 159.335 Q2100.01 159.335 2102.14 156.835 Q2104.3 154.312 2104.3 150.145 L2104.3 149.196 L2100.06 149.196 M2108.56 147.437 L2108.56 162.229 L2104.3 162.229 L2104.3 158.293 Q2102.84 160.655 2100.66 161.789 Q2098.49 162.9 2095.34 162.9 Q2091.36 162.9 2089 160.678 Q2086.66 158.432 2086.66 154.682 Q2086.66 150.307 2089.57 148.085 Q2092.51 145.863 2098.32 145.863 L2104.3 145.863 L2104.3 145.446 Q2104.3 142.507 2102.35 140.909 Q2100.43 139.289 2096.94 139.289 Q2094.71 139.289 2092.61 139.821 Q2090.5 140.354 2088.56 141.419 L2088.56 137.483 Q2090.89 136.581 2093.09 136.141 Q2095.29 135.678 2097.38 135.678 Q2103 135.678 2105.78 138.594 Q2108.56 141.511 2108.56 147.437 Z" fill="#000000" fill-rule="nonzero" fill-opacity="1" /><path clip-path="url(#clip630)" d="M2132.35 140.284 Q2131.63 139.868 2130.78 139.682 Q2129.95 139.474 2128.93 139.474 Q2125.32 139.474 2123.37 141.835 Q2121.45 144.173 2121.45 148.571 L2121.45 162.229 L2117.17 162.229 L2117.17 136.303 L2121.45 136.303 L2121.45 140.331 Q2122.79 137.969 2124.95 136.835 Q2127.1 135.678 2130.18 135.678 Q2130.62 135.678 2131.15 135.747 Q2131.68 135.794 2132.33 135.909 L2132.35 140.284 Z" fill="#000000" fill-rule="nonzero" fill-opacity="1" /><path clip-path="url(#clip630)" d="M2141.68 131.511 L2141.68 144.497 L2147.56 144.497 Q2150.82 144.497 2152.61 142.807 Q2154.39 141.118 2154.39 137.993 Q2154.39 134.891 2152.61 133.201 Q2150.82 131.511 2147.56 131.511 L2141.68 131.511 M2137.01 127.669 L2147.56 127.669 Q2153.37 127.669 2156.33 130.307 Q2159.32 132.923 2159.32 137.993 Q2159.32 143.108 2156.33 145.724 Q2153.37 148.34 2147.56 148.34 L2141.68 148.34 L2141.68 162.229 L2137.01 162.229 L2137.01 127.669 Z" fill="#000000" fill-rule="nonzero" fill-opacity="1" /><path clip-path="url(#clip630)" d="M2179.6 140.284 Q2178.88 139.868 2178.02 139.682 Q2177.19 139.474 2176.17 139.474 Q2172.56 139.474 2170.62 141.835 Q2168.69 144.173 2168.69 148.571 L2168.69 162.229 L2164.41 162.229 L2164.41 136.303 L2168.69 136.303 L2168.69 140.331 Q2170.04 137.969 2172.19 136.835 Q2174.34 135.678 2177.42 135.678 Q2177.86 135.678 2178.39 135.747 Q2178.93 135.794 2179.57 135.909 L2179.6 140.284 Z" fill="#000000" fill-rule="nonzero" fill-opacity="1" /><path clip-path="url(#clip630)" d="M2184.07 136.303 L2188.32 136.303 L2188.32 162.229 L2184.07 162.229 L2184.07 136.303 M2184.07 126.21 L2188.32 126.21 L2188.32 131.604 L2184.07 131.604 L2184.07 126.21 Z" fill="#000000" fill-rule="nonzero" fill-opacity="1" /><path clip-path="url(#clip630)" d="M2213.76 137.067 L2213.76 141.094 Q2211.96 140.169 2210.01 139.706 Q2208.07 139.243 2205.99 139.243 Q2202.82 139.243 2201.22 140.215 Q2199.64 141.187 2199.64 143.131 Q2199.64 144.613 2200.78 145.469 Q2201.91 146.303 2205.34 147.067 L2206.8 147.391 Q2211.33 148.363 2213.23 150.145 Q2215.15 151.905 2215.15 155.076 Q2215.15 158.687 2212.28 160.793 Q2209.44 162.9 2204.44 162.9 Q2202.35 162.9 2200.08 162.483 Q2197.84 162.09 2195.34 161.28 L2195.34 156.881 Q2197.7 158.108 2199.99 158.733 Q2202.28 159.335 2204.53 159.335 Q2207.54 159.335 2209.16 158.317 Q2210.78 157.275 2210.78 155.4 Q2210.78 153.664 2209.6 152.738 Q2208.44 151.812 2204.48 150.956 L2203 150.608 Q2199.04 149.775 2197.28 148.062 Q2195.52 146.326 2195.52 143.317 Q2195.52 139.659 2198.12 137.669 Q2200.71 135.678 2205.48 135.678 Q2207.84 135.678 2209.92 136.025 Q2212 136.372 2213.76 137.067 Z" fill="#000000" fill-rule="nonzero" fill-opacity="1" /><path clip-path="url(#clip630)" d="M2242.12 141.28 Q2243.72 138.409 2245.94 137.044 Q2248.16 135.678 2251.17 135.678 Q2255.22 135.678 2257.42 138.525 Q2259.62 141.349 2259.62 146.581 L2259.62 162.229 L2255.34 162.229 L2255.34 146.719 Q2255.34 142.993 2254.02 141.187 Q2252.7 139.382 2249.99 139.382 Q2246.68 139.382 2244.76 141.581 Q2242.84 143.78 2242.84 147.576 L2242.84 162.229 L2238.56 162.229 L2238.56 146.719 Q2238.56 142.969 2237.24 141.187 Q2235.92 139.382 2233.16 139.382 Q2229.9 139.382 2227.98 141.604 Q2226.06 143.803 2226.06 147.576 L2226.06 162.229 L2221.77 162.229 L2221.77 136.303 L2226.06 136.303 L2226.06 140.331 Q2227.51 137.946 2229.55 136.812 Q2231.59 135.678 2234.39 135.678 Q2237.21 135.678 2239.18 137.113 Q2241.17 138.548 2242.12 141.28 Z" fill="#000000" fill-rule="nonzero" fill-opacity="1" /></svg>
