<?xml version="1.0" encoding="utf-8"?>
<svg xmlns="http://www.w3.org/2000/svg" xmlns:xlink="http://www.w3.org/1999/xlink" width="600" height="400" viewBox="0 0 2400 1600">
<defs>
  <clipPath id="clip570">
    <rect x="0" y="0" width="2400" height="1600"/>
  </clipPath>
</defs>
<path clip-path="url(#clip570)" d="M0 1600 L2400 1600 L2400 0 L0 0  Z" fill="#ffffff" fill-rule="evenodd" fill-opacity="1"/>
<defs>
  <clipPath id="clip571">
    <rect x="480" y="0" width="1681" height="1600"/>
  </clipPath>
</defs>
<defs>
  <clipPath id="clip572">
    <rect x="257" y="47" width="2097" height="1377"/>
  </clipPath>
</defs>
<path clip-path="url(#clip572)" d="M762.397 1216.35 L762.397 421.951 L1159.6 24.753 L1847.56 254.076 L1847.56 1048.47 L1450.36 1445.67 L762.397 1216.35  Z" fill="#ffffff" fill-rule="evenodd" fill-opacity="1"/>
<polyline clip-path="url(#clip572)" style="stroke:#000000; stroke-linecap:round; stroke-linejoin:round; stroke-width:2; stroke-opacity:0.1; fill:none" points="762.397,1151.89 1159.6,807.904 1159.6,119.936 "/>
<polyline clip-path="url(#clip572)" style="stroke:#000000; stroke-linecap:round; stroke-linejoin:round; stroke-width:2; stroke-opacity:0.1; fill:none" points="934.389,1201.54 1331.59,857.554 1331.59,169.586 "/>
<polyline clip-path="url(#clip572)" style="stroke:#000000; stroke-linecap:round; stroke-linejoin:round; stroke-width:2; stroke-opacity:0.1; fill:none" points="1106.38,1251.19 1503.58,907.204 1503.58,219.236 "/>
<polyline clip-path="url(#clip572)" style="stroke:#000000; stroke-linecap:round; stroke-linejoin:round; stroke-width:2; stroke-opacity:0.1; fill:none" points="1278.37,1300.84 1675.57,956.854 1675.57,268.886 "/>
<polyline clip-path="url(#clip572)" style="stroke:#000000; stroke-linecap:round; stroke-linejoin:round; stroke-width:2; stroke-opacity:0.1; fill:none" points="1450.36,1350.49 1847.56,1006.5 1847.56,318.536 "/>
<polyline clip-path="url(#clip572)" style="stroke:#000000; stroke-linecap:round; stroke-linejoin:round; stroke-width:2; stroke-opacity:0.1; fill:none" points="1511.37,1297.66 823.402,1099.06 823.402,411.088 "/>
<polyline clip-path="url(#clip572)" style="stroke:#000000; stroke-linecap:round; stroke-linejoin:round; stroke-width:2; stroke-opacity:0.1; fill:none" points="1580.17,1238.08 892.199,1039.48 892.199,351.508 "/>
<polyline clip-path="url(#clip572)" style="stroke:#000000; stroke-linecap:round; stroke-linejoin:round; stroke-width:2; stroke-opacity:0.1; fill:none" points="1648.96,1178.5 960.996,979.896 960.996,291.928 "/>
<polyline clip-path="url(#clip572)" style="stroke:#000000; stroke-linecap:round; stroke-linejoin:round; stroke-width:2; stroke-opacity:0.1; fill:none" points="1717.76,1118.92 1029.79,920.317 1029.79,232.349 "/>
<polyline clip-path="url(#clip572)" style="stroke:#000000; stroke-linecap:round; stroke-linejoin:round; stroke-width:2; stroke-opacity:0.1; fill:none" points="1786.56,1059.34 1098.59,860.737 1098.59,172.769 "/>
<polyline clip-path="url(#clip572)" style="stroke:#000000; stroke-linecap:round; stroke-linejoin:round; stroke-width:2; stroke-opacity:0.1; fill:none" points="762.397,1151.89 1159.6,807.904 1847.56,1006.5 "/>
<polyline clip-path="url(#clip572)" style="stroke:#000000; stroke-linecap:round; stroke-linejoin:round; stroke-width:2; stroke-opacity:0.1; fill:none" points="762.397,979.896 1159.6,635.912 1847.56,834.512 "/>
<polyline clip-path="url(#clip572)" style="stroke:#000000; stroke-linecap:round; stroke-linejoin:round; stroke-width:2; stroke-opacity:0.1; fill:none" points="762.397,807.904 1159.6,463.92 1847.56,662.52 "/>
<polyline clip-path="url(#clip572)" style="stroke:#000000; stroke-linecap:round; stroke-linejoin:round; stroke-width:2; stroke-opacity:0.1; fill:none" points="762.397,635.912 1159.6,291.928 1847.56,490.528 "/>
<polyline clip-path="url(#clip572)" style="stroke:#000000; stroke-linecap:round; stroke-linejoin:round; stroke-width:2; stroke-opacity:0.1; fill:none" points="762.397,463.92 1159.6,119.936 1847.56,318.536 "/>
<polyline clip-path="url(#clip570)" style="stroke:#000000; stroke-linecap:round; stroke-linejoin:round; stroke-width:4; stroke-opacity:1; fill:none" points="762.397,1151.89 1450.36,1350.49 "/>
<polyline clip-path="url(#clip570)" style="stroke:#000000; stroke-linecap:round; stroke-linejoin:round; stroke-width:4; stroke-opacity:1; fill:none" points="762.397,1151.89 767.163,1147.76 "/>
<polyline clip-path="url(#clip570)" style="stroke:#000000; stroke-linecap:round; stroke-linejoin:round; stroke-width:4; stroke-opacity:1; fill:none" points="934.389,1201.54 939.155,1197.41 "/>
<polyline clip-path="url(#clip570)" style="stroke:#000000; stroke-linecap:round; stroke-linejoin:round; stroke-width:4; stroke-opacity:1; fill:none" points="1106.38,1251.19 1111.15,1247.06 "/>
<polyline clip-path="url(#clip570)" style="stroke:#000000; stroke-linecap:round; stroke-linejoin:round; stroke-width:4; stroke-opacity:1; fill:none" points="1278.37,1300.84 1283.14,1296.71 "/>
<polyline clip-path="url(#clip570)" style="stroke:#000000; stroke-linecap:round; stroke-linejoin:round; stroke-width:4; stroke-opacity:1; fill:none" points="1450.36,1350.49 1455.13,1346.36 "/>
<path clip-path="url(#clip570)" d="M646.346 1179.66 L676.021 1179.66 L676.021 1183.6 L646.346 1183.6 L646.346 1179.66 Z" fill="#000000" fill-rule="nonzero" fill-opacity="1" /><path clip-path="url(#clip570)" d="M686.924 1192.56 L694.563 1192.56 L694.563 1166.19 L686.253 1167.86 L686.253 1163.6 L694.517 1161.93 L699.193 1161.93 L699.193 1192.56 L706.831 1192.56 L706.831 1196.49 L686.924 1196.49 L686.924 1192.56 Z" fill="#000000" fill-rule="nonzero" fill-opacity="1" /><path clip-path="url(#clip570)" d="M716.276 1190.61 L721.16 1190.61 L721.16 1196.49 L716.276 1196.49 L716.276 1190.61 Z" fill="#000000" fill-rule="nonzero" fill-opacity="1" /><path clip-path="url(#clip570)" d="M741.345 1165.01 Q737.734 1165.01 735.905 1168.57 Q734.1 1172.12 734.1 1179.25 Q734.1 1186.35 735.905 1189.92 Q737.734 1193.46 741.345 1193.46 Q744.979 1193.46 746.785 1189.92 Q748.614 1186.35 748.614 1179.25 Q748.614 1172.12 746.785 1168.57 Q744.979 1165.01 741.345 1165.01 M741.345 1161.31 Q747.155 1161.31 750.211 1165.91 Q753.289 1170.5 753.289 1179.25 Q753.289 1187.97 750.211 1192.58 Q747.155 1197.16 741.345 1197.16 Q735.535 1197.16 732.456 1192.58 Q729.401 1187.97 729.401 1179.25 Q729.401 1170.5 732.456 1165.91 Q735.535 1161.31 741.345 1161.31 Z" fill="#000000" fill-rule="nonzero" fill-opacity="1" /><path clip-path="url(#clip570)" d="M819.333 1229.31 L849.009 1229.31 L849.009 1233.25 L819.333 1233.25 L819.333 1229.31 Z" fill="#000000" fill-rule="nonzero" fill-opacity="1" /><path clip-path="url(#clip570)" d="M869.101 1214.66 Q865.49 1214.66 863.661 1218.22 Q861.856 1221.77 861.856 1228.89 Q861.856 1236 863.661 1239.57 Q865.49 1243.11 869.101 1243.11 Q872.735 1243.11 874.541 1239.57 Q876.37 1236 876.37 1228.89 Q876.37 1221.77 874.541 1218.22 Q872.735 1214.66 869.101 1214.66 M869.101 1210.96 Q874.911 1210.96 877.967 1215.56 Q881.046 1220.14 881.046 1228.89 Q881.046 1237.62 877.967 1242.23 Q874.911 1246.81 869.101 1246.81 Q863.291 1246.81 860.212 1242.23 Q857.157 1237.62 857.157 1228.89 Q857.157 1220.14 860.212 1215.56 Q863.291 1210.96 869.101 1210.96 Z" fill="#000000" fill-rule="nonzero" fill-opacity="1" /><path clip-path="url(#clip570)" d="M889.263 1240.26 L894.147 1240.26 L894.147 1246.14 L889.263 1246.14 L889.263 1240.26 Z" fill="#000000" fill-rule="nonzero" fill-opacity="1" /><path clip-path="url(#clip570)" d="M904.379 1211.58 L922.735 1211.58 L922.735 1215.52 L908.661 1215.52 L908.661 1223.99 Q909.68 1223.64 910.698 1223.48 Q911.717 1223.29 912.735 1223.29 Q918.522 1223.29 921.902 1226.46 Q925.281 1229.64 925.281 1235.05 Q925.281 1240.63 921.809 1243.73 Q918.337 1246.81 912.018 1246.81 Q909.842 1246.81 907.573 1246.44 Q905.328 1246.07 902.92 1245.33 L902.92 1240.63 Q905.004 1241.77 907.226 1242.32 Q909.448 1242.88 911.925 1242.88 Q915.93 1242.88 918.268 1240.77 Q920.606 1238.66 920.606 1235.05 Q920.606 1231.44 918.268 1229.33 Q915.93 1227.23 911.925 1227.23 Q910.05 1227.23 908.175 1227.64 Q906.323 1228.06 904.379 1228.94 L904.379 1211.58 Z" fill="#000000" fill-rule="nonzero" fill-opacity="1" /><path clip-path="url(#clip570)" d="M1040.1 1264.31 Q1036.49 1264.31 1034.66 1267.87 Q1032.85 1271.42 1032.85 1278.54 Q1032.85 1285.65 1034.66 1289.22 Q1036.49 1292.76 1040.1 1292.76 Q1043.73 1292.76 1045.54 1289.22 Q1047.37 1285.65 1047.37 1278.54 Q1047.37 1271.42 1045.54 1267.87 Q1043.73 1264.31 1040.1 1264.31 M1040.1 1260.6 Q1045.91 1260.6 1048.96 1265.21 Q1052.04 1269.79 1052.04 1278.54 Q1052.04 1287.27 1048.96 1291.88 Q1045.91 1296.46 1040.1 1296.46 Q1034.29 1296.46 1031.21 1291.88 Q1028.15 1287.27 1028.15 1278.54 Q1028.15 1269.79 1031.21 1265.21 Q1034.29 1260.6 1040.1 1260.6 Z" fill="#000000" fill-rule="nonzero" fill-opacity="1" /><path clip-path="url(#clip570)" d="M1060.26 1289.91 L1065.14 1289.91 L1065.14 1295.79 L1060.26 1295.79 L1060.26 1289.91 Z" fill="#000000" fill-rule="nonzero" fill-opacity="1" /><path clip-path="url(#clip570)" d="M1085.33 1264.31 Q1081.72 1264.31 1079.89 1267.87 Q1078.08 1271.42 1078.08 1278.54 Q1078.08 1285.65 1079.89 1289.22 Q1081.72 1292.76 1085.33 1292.76 Q1088.96 1292.76 1090.77 1289.22 Q1092.6 1285.65 1092.6 1278.54 Q1092.6 1271.42 1090.77 1267.87 Q1088.96 1264.31 1085.33 1264.31 M1085.33 1260.6 Q1091.14 1260.6 1094.19 1265.21 Q1097.27 1269.79 1097.27 1278.54 Q1097.27 1287.27 1094.19 1291.88 Q1091.14 1296.46 1085.33 1296.46 Q1079.52 1296.46 1076.44 1291.88 Q1073.38 1287.27 1073.38 1278.54 Q1073.38 1269.79 1076.44 1265.21 Q1079.52 1260.6 1085.33 1260.6 Z" fill="#000000" fill-rule="nonzero" fill-opacity="1" /><path clip-path="url(#clip570)" d="M1213.09 1313.96 Q1209.47 1313.96 1207.65 1317.52 Q1205.84 1321.06 1205.84 1328.19 Q1205.84 1335.3 1207.65 1338.87 Q1209.47 1342.41 1213.09 1342.41 Q1216.72 1342.41 1218.52 1338.87 Q1220.35 1335.3 1220.35 1328.19 Q1220.35 1321.06 1218.52 1317.52 Q1216.72 1313.96 1213.09 1313.96 M1213.09 1310.25 Q1218.9 1310.25 1221.95 1314.86 Q1225.03 1319.44 1225.03 1328.19 Q1225.03 1336.92 1221.95 1341.53 Q1218.9 1346.11 1213.09 1346.11 Q1207.27 1346.11 1204.2 1341.53 Q1201.14 1336.92 1201.14 1328.19 Q1201.14 1319.44 1204.2 1314.86 Q1207.27 1310.25 1213.09 1310.25 Z" fill="#000000" fill-rule="nonzero" fill-opacity="1" /><path clip-path="url(#clip570)" d="M1233.25 1339.56 L1238.13 1339.56 L1238.13 1345.44 L1233.25 1345.44 L1233.25 1339.56 Z" fill="#000000" fill-rule="nonzero" fill-opacity="1" /><path clip-path="url(#clip570)" d="M1248.36 1310.88 L1266.72 1310.88 L1266.72 1314.81 L1252.65 1314.81 L1252.65 1323.29 Q1253.66 1322.94 1254.68 1322.78 Q1255.7 1322.59 1256.72 1322.59 Q1262.51 1322.59 1265.89 1325.76 Q1269.27 1328.94 1269.27 1334.35 Q1269.27 1339.93 1265.79 1343.03 Q1262.32 1346.11 1256 1346.11 Q1253.83 1346.11 1251.56 1345.74 Q1249.31 1345.37 1246.9 1344.63 L1246.9 1339.93 Q1248.99 1341.06 1251.21 1341.62 Q1253.43 1342.18 1255.91 1342.18 Q1259.91 1342.18 1262.25 1340.07 Q1264.59 1337.96 1264.59 1334.35 Q1264.59 1330.74 1262.25 1328.63 Q1259.91 1326.53 1255.91 1326.53 Q1254.03 1326.53 1252.16 1326.94 Q1250.31 1327.36 1248.36 1328.24 L1248.36 1310.88 Z" fill="#000000" fill-rule="nonzero" fill-opacity="1" /><path clip-path="url(#clip570)" d="M1374.89 1391.15 L1382.53 1391.15 L1382.53 1364.79 L1374.22 1366.46 L1374.22 1362.2 L1382.48 1360.53 L1387.16 1360.53 L1387.16 1391.15 L1394.8 1391.15 L1394.8 1395.09 L1374.89 1395.09 L1374.89 1391.15 Z" fill="#000000" fill-rule="nonzero" fill-opacity="1" /><path clip-path="url(#clip570)" d="M1404.24 1389.21 L1409.13 1389.21 L1409.13 1395.09 L1404.24 1395.09 L1404.24 1389.21 Z" fill="#000000" fill-rule="nonzero" fill-opacity="1" /><path clip-path="url(#clip570)" d="M1429.31 1363.61 Q1425.7 1363.61 1423.87 1367.17 Q1422.07 1370.71 1422.07 1377.84 Q1422.07 1384.95 1423.87 1388.52 Q1425.7 1392.06 1429.31 1392.06 Q1432.95 1392.06 1434.75 1388.52 Q1436.58 1384.95 1436.58 1377.84 Q1436.58 1370.71 1434.75 1367.17 Q1432.95 1363.61 1429.31 1363.61 M1429.31 1359.9 Q1435.12 1359.9 1438.18 1364.51 Q1441.26 1369.09 1441.26 1377.84 Q1441.26 1386.57 1438.18 1391.18 Q1435.12 1395.76 1429.31 1395.76 Q1423.5 1395.76 1420.42 1391.18 Q1417.37 1386.57 1417.37 1377.84 Q1417.37 1369.09 1420.42 1364.51 Q1423.5 1359.9 1429.31 1359.9 Z" fill="#000000" fill-rule="nonzero" fill-opacity="1" /><path clip-path="url(#clip570)" d="M938.128 1395.68 L925.237 1413.03 L938.796 1431.33 L931.889 1431.33 L921.513 1417.33 L911.137 1431.33 L904.231 1431.33 L918.076 1412.68 L905.408 1395.68 L912.315 1395.68 L921.768 1408.38 L931.221 1395.68 L938.128 1395.68 Z" fill="#000000" fill-rule="nonzero" fill-opacity="1" /><path clip-path="url(#clip570)" d="M978.2 1383.81 L983.611 1383.81 L967.06 1437.38 L961.649 1437.38 L978.2 1383.81 Z" fill="#000000" fill-rule="nonzero" fill-opacity="1" /><path clip-path="url(#clip570)" d="M1038.23 1402.53 Q1040.42 1398.58 1043.48 1396.7 Q1046.54 1394.82 1050.67 1394.82 Q1056.24 1394.82 1059.27 1398.74 Q1062.29 1402.62 1062.29 1409.82 L1062.29 1431.33 L1056.4 1431.33 L1056.4 1410.01 Q1056.4 1404.88 1054.59 1402.4 Q1052.77 1399.92 1049.05 1399.92 Q1044.5 1399.92 1041.86 1402.94 Q1039.22 1405.96 1039.22 1411.18 L1039.22 1431.33 L1033.33 1431.33 L1033.33 1410.01 Q1033.33 1404.85 1031.51 1402.4 Q1029.7 1399.92 1025.91 1399.92 Q1021.42 1399.92 1018.78 1402.97 Q1016.14 1406 1016.14 1411.18 L1016.14 1431.33 L1010.25 1431.33 L1010.25 1395.68 L1016.14 1395.68 L1016.14 1401.22 Q1018.14 1397.94 1020.95 1396.38 Q1023.75 1394.82 1027.6 1394.82 Q1031.48 1394.82 1034.19 1396.8 Q1036.92 1398.77 1038.23 1402.53 Z" fill="#000000" fill-rule="nonzero" fill-opacity="1" /><polyline clip-path="url(#clip570)" style="stroke:#000000; stroke-linecap:round; stroke-linejoin:round; stroke-width:4; stroke-opacity:1; fill:none" points="1450.36,1350.49 1847.56,1006.5 "/>
<polyline clip-path="url(#clip570)" style="stroke:#000000; stroke-linecap:round; stroke-linejoin:round; stroke-width:4; stroke-opacity:1; fill:none" points="1511.37,1297.66 1503.11,1295.27 "/>
<polyline clip-path="url(#clip570)" style="stroke:#000000; stroke-linecap:round; stroke-linejoin:round; stroke-width:4; stroke-opacity:1; fill:none" points="1580.17,1238.08 1571.91,1235.69 "/>
<polyline clip-path="url(#clip570)" style="stroke:#000000; stroke-linecap:round; stroke-linejoin:round; stroke-width:4; stroke-opacity:1; fill:none" points="1648.96,1178.5 1640.71,1176.11 "/>
<polyline clip-path="url(#clip570)" style="stroke:#000000; stroke-linecap:round; stroke-linejoin:round; stroke-width:4; stroke-opacity:1; fill:none" points="1717.76,1118.92 1709.51,1116.53 "/>
<polyline clip-path="url(#clip570)" style="stroke:#000000; stroke-linecap:round; stroke-linejoin:round; stroke-width:4; stroke-opacity:1; fill:none" points="1786.56,1059.34 1778.3,1056.95 "/>
<path clip-path="url(#clip570)" d="M1531.74 1318.47 L1561.41 1318.47 L1561.41 1322.41 L1531.74 1322.41 L1531.74 1318.47 Z" fill="#000000" fill-rule="nonzero" fill-opacity="1" /><path clip-path="url(#clip570)" d="M1581.5 1303.82 Q1577.89 1303.82 1576.06 1307.38 Q1574.26 1310.92 1574.26 1318.05 Q1574.26 1325.16 1576.06 1328.73 Q1577.89 1332.27 1581.5 1332.27 Q1585.14 1332.27 1586.94 1328.73 Q1588.77 1325.16 1588.77 1318.05 Q1588.77 1310.92 1586.94 1307.38 Q1585.14 1303.82 1581.5 1303.82 M1581.5 1300.11 Q1587.31 1300.11 1590.37 1304.72 Q1593.45 1309.3 1593.45 1318.05 Q1593.45 1326.78 1590.37 1331.39 Q1587.31 1335.97 1581.5 1335.97 Q1575.69 1335.97 1572.61 1331.39 Q1569.56 1326.78 1569.56 1318.05 Q1569.56 1309.3 1572.61 1304.72 Q1575.69 1300.11 1581.5 1300.11 Z" fill="#000000" fill-rule="nonzero" fill-opacity="1" /><path clip-path="url(#clip570)" d="M1601.67 1329.42 L1606.55 1329.42 L1606.55 1335.3 L1601.67 1335.3 L1601.67 1329.42 Z" fill="#000000" fill-rule="nonzero" fill-opacity="1" /><path clip-path="url(#clip570)" d="M1627.31 1316.16 Q1624.17 1316.16 1622.31 1318.31 Q1620.48 1320.46 1620.48 1324.21 Q1620.48 1327.94 1622.31 1330.11 Q1624.17 1332.27 1627.31 1332.27 Q1630.46 1332.27 1632.29 1330.11 Q1634.14 1327.94 1634.14 1324.21 Q1634.14 1320.46 1632.29 1318.31 Q1630.46 1316.16 1627.31 1316.16 M1636.6 1301.5 L1636.6 1305.76 Q1634.84 1304.93 1633.03 1304.49 Q1631.25 1304.05 1629.49 1304.05 Q1624.86 1304.05 1622.41 1307.17 Q1619.98 1310.3 1619.63 1316.62 Q1620.99 1314.61 1623.05 1313.54 Q1625.11 1312.45 1627.59 1312.45 Q1632.8 1312.45 1635.81 1315.62 Q1638.84 1318.77 1638.84 1324.21 Q1638.84 1329.54 1635.69 1332.75 Q1632.54 1335.97 1627.31 1335.97 Q1621.32 1335.97 1618.15 1331.39 Q1614.98 1326.78 1614.98 1318.05 Q1614.98 1309.86 1618.86 1305 Q1622.75 1300.11 1629.3 1300.11 Q1631.06 1300.11 1632.85 1300.46 Q1634.65 1300.81 1636.6 1301.5 Z" fill="#000000" fill-rule="nonzero" fill-opacity="1" /><path clip-path="url(#clip570)" d="M1600.53 1258.89 L1630.21 1258.89 L1630.21 1262.83 L1600.53 1262.83 L1600.53 1258.89 Z" fill="#000000" fill-rule="nonzero" fill-opacity="1" /><path clip-path="url(#clip570)" d="M1650.3 1244.24 Q1646.69 1244.24 1644.86 1247.8 Q1643.05 1251.35 1643.05 1258.47 Q1643.05 1265.58 1644.86 1269.15 Q1646.69 1272.69 1650.3 1272.69 Q1653.93 1272.69 1655.74 1269.15 Q1657.57 1265.58 1657.57 1258.47 Q1657.57 1251.35 1655.74 1247.8 Q1653.93 1244.24 1650.3 1244.24 M1650.3 1240.53 Q1656.11 1240.53 1659.17 1245.14 Q1662.24 1249.72 1662.24 1258.47 Q1662.24 1267.2 1659.17 1271.81 Q1656.11 1276.39 1650.3 1276.39 Q1644.49 1276.39 1641.41 1271.81 Q1638.36 1267.2 1638.36 1258.47 Q1638.36 1249.72 1641.41 1245.14 Q1644.49 1240.53 1650.3 1240.53 Z" fill="#000000" fill-rule="nonzero" fill-opacity="1" /><path clip-path="url(#clip570)" d="M1670.46 1269.84 L1675.35 1269.84 L1675.35 1275.72 L1670.46 1275.72 L1670.46 1269.84 Z" fill="#000000" fill-rule="nonzero" fill-opacity="1" /><path clip-path="url(#clip570)" d="M1699.7 1257.09 Q1703.05 1257.8 1704.93 1260.07 Q1706.83 1262.34 1706.83 1265.67 Q1706.83 1270.79 1703.31 1273.59 Q1699.79 1276.39 1693.31 1276.39 Q1691.13 1276.39 1688.82 1275.95 Q1686.53 1275.53 1684.07 1274.68 L1684.07 1270.16 Q1686.02 1271.3 1688.33 1271.88 Q1690.65 1272.46 1693.17 1272.46 Q1697.57 1272.46 1699.86 1270.72 Q1702.17 1268.98 1702.17 1265.67 Q1702.17 1262.62 1700.02 1260.91 Q1697.89 1259.17 1694.07 1259.17 L1690.05 1259.17 L1690.05 1255.33 L1694.26 1255.33 Q1697.71 1255.33 1699.54 1253.96 Q1701.36 1252.57 1701.36 1249.98 Q1701.36 1247.32 1699.47 1245.91 Q1697.59 1244.47 1694.07 1244.47 Q1692.15 1244.47 1689.95 1244.89 Q1687.75 1245.3 1685.11 1246.18 L1685.11 1242.02 Q1687.78 1241.28 1690.09 1240.91 Q1692.43 1240.53 1694.49 1240.53 Q1699.81 1240.53 1702.92 1242.97 Q1706.02 1245.37 1706.02 1249.49 Q1706.02 1252.36 1704.37 1254.35 Q1702.73 1256.32 1699.7 1257.09 Z" fill="#000000" fill-rule="nonzero" fill-opacity="1" /><path clip-path="url(#clip570)" d="M1681.27 1184.66 Q1677.66 1184.66 1675.83 1188.22 Q1674.03 1191.77 1674.03 1198.89 Q1674.03 1206 1675.83 1209.57 Q1677.66 1213.11 1681.27 1213.11 Q1684.91 1213.11 1686.71 1209.57 Q1688.54 1206 1688.54 1198.89 Q1688.54 1191.77 1686.71 1188.22 Q1684.91 1184.66 1681.27 1184.66 M1681.27 1180.96 Q1687.08 1180.96 1690.14 1185.56 Q1693.22 1190.14 1693.22 1198.89 Q1693.22 1207.62 1690.14 1212.23 Q1687.08 1216.81 1681.27 1216.81 Q1675.46 1216.81 1672.38 1212.23 Q1669.33 1207.62 1669.33 1198.89 Q1669.33 1190.14 1672.38 1185.56 Q1675.46 1180.96 1681.27 1180.96 Z" fill="#000000" fill-rule="nonzero" fill-opacity="1" /><path clip-path="url(#clip570)" d="M1701.43 1210.26 L1706.32 1210.26 L1706.32 1216.14 L1701.43 1216.14 L1701.43 1210.26 Z" fill="#000000" fill-rule="nonzero" fill-opacity="1" /><path clip-path="url(#clip570)" d="M1726.5 1184.66 Q1722.89 1184.66 1721.06 1188.22 Q1719.26 1191.77 1719.26 1198.89 Q1719.26 1206 1721.06 1209.57 Q1722.89 1213.11 1726.5 1213.11 Q1730.14 1213.11 1731.94 1209.57 Q1733.77 1206 1733.77 1198.89 Q1733.77 1191.77 1731.94 1188.22 Q1730.14 1184.66 1726.5 1184.66 M1726.5 1180.96 Q1732.31 1180.96 1735.37 1185.56 Q1738.45 1190.14 1738.45 1198.89 Q1738.45 1207.62 1735.37 1212.23 Q1732.31 1216.81 1726.5 1216.81 Q1720.69 1216.81 1717.62 1212.23 Q1714.56 1207.62 1714.56 1198.89 Q1714.56 1190.14 1717.62 1185.56 Q1720.69 1180.96 1726.5 1180.96 Z" fill="#000000" fill-rule="nonzero" fill-opacity="1" /><path clip-path="url(#clip570)" d="M1750.07 1125.08 Q1746.46 1125.08 1744.63 1128.64 Q1742.82 1132.19 1742.82 1139.32 Q1742.82 1146.42 1744.63 1149.99 Q1746.46 1153.53 1750.07 1153.53 Q1753.7 1153.53 1755.51 1149.99 Q1757.34 1146.42 1757.34 1139.32 Q1757.34 1132.19 1755.51 1128.64 Q1753.7 1125.08 1750.07 1125.08 M1750.07 1121.38 Q1755.88 1121.38 1758.94 1125.98 Q1762.01 1130.57 1762.01 1139.32 Q1762.01 1148.04 1758.94 1152.65 Q1755.88 1157.23 1750.07 1157.23 Q1744.26 1157.23 1741.18 1152.65 Q1738.13 1148.04 1738.13 1139.32 Q1738.13 1130.57 1741.18 1125.98 Q1744.26 1121.38 1750.07 1121.38 Z" fill="#000000" fill-rule="nonzero" fill-opacity="1" /><path clip-path="url(#clip570)" d="M1770.23 1150.68 L1775.12 1150.68 L1775.12 1156.56 L1770.23 1156.56 L1770.23 1150.68 Z" fill="#000000" fill-rule="nonzero" fill-opacity="1" /><path clip-path="url(#clip570)" d="M1799.47 1137.93 Q1802.82 1138.64 1804.7 1140.91 Q1806.6 1143.18 1806.6 1146.51 Q1806.6 1151.63 1803.08 1154.43 Q1799.56 1157.23 1793.08 1157.23 Q1790.9 1157.23 1788.59 1156.79 Q1786.3 1156.38 1783.84 1155.52 L1783.84 1151 Q1785.79 1152.14 1788.1 1152.72 Q1790.42 1153.3 1792.94 1153.3 Q1797.34 1153.3 1799.63 1151.56 Q1801.94 1149.82 1801.94 1146.51 Q1801.94 1143.46 1799.79 1141.75 Q1797.66 1140.01 1793.84 1140.01 L1789.81 1140.01 L1789.81 1136.17 L1794.03 1136.17 Q1797.48 1136.17 1799.31 1134.8 Q1801.13 1133.41 1801.13 1130.82 Q1801.13 1128.16 1799.24 1126.75 Q1797.36 1125.31 1793.84 1125.31 Q1791.92 1125.31 1789.72 1125.73 Q1787.52 1126.14 1784.88 1127.02 L1784.88 1122.86 Q1787.55 1122.12 1789.86 1121.75 Q1792.2 1121.38 1794.26 1121.38 Q1799.58 1121.38 1802.69 1123.81 Q1805.79 1126.21 1805.79 1130.33 Q1805.79 1133.2 1804.14 1135.19 Q1802.5 1137.16 1799.47 1137.93 Z" fill="#000000" fill-rule="nonzero" fill-opacity="1" /><path clip-path="url(#clip570)" d="M1818.87 1065.5 Q1815.26 1065.5 1813.43 1069.06 Q1811.62 1072.61 1811.62 1079.74 Q1811.62 1086.84 1813.43 1090.41 Q1815.26 1093.95 1818.87 1093.95 Q1822.5 1093.95 1824.31 1090.41 Q1826.14 1086.84 1826.14 1079.74 Q1826.14 1072.61 1824.31 1069.06 Q1822.5 1065.5 1818.87 1065.5 M1818.87 1061.8 Q1824.68 1061.8 1827.73 1066.4 Q1830.81 1070.99 1830.81 1079.74 Q1830.81 1088.46 1827.73 1093.07 Q1824.68 1097.65 1818.87 1097.65 Q1813.06 1097.65 1809.98 1093.07 Q1806.92 1088.46 1806.92 1079.74 Q1806.92 1070.99 1809.98 1066.4 Q1813.06 1061.8 1818.87 1061.8 Z" fill="#000000" fill-rule="nonzero" fill-opacity="1" /><path clip-path="url(#clip570)" d="M1839.03 1091.1 L1843.91 1091.1 L1843.91 1096.98 L1839.03 1096.98 L1839.03 1091.1 Z" fill="#000000" fill-rule="nonzero" fill-opacity="1" /><path clip-path="url(#clip570)" d="M1864.68 1077.84 Q1861.53 1077.84 1859.68 1079.99 Q1857.85 1082.14 1857.85 1085.89 Q1857.85 1089.62 1859.68 1091.8 Q1861.53 1093.95 1864.68 1093.95 Q1867.82 1093.95 1869.65 1091.8 Q1871.51 1089.62 1871.51 1085.89 Q1871.51 1082.14 1869.65 1079.99 Q1867.82 1077.84 1864.68 1077.84 M1873.96 1063.18 L1873.96 1067.44 Q1872.2 1066.61 1870.39 1066.17 Q1868.61 1065.73 1866.85 1065.73 Q1862.22 1065.73 1859.77 1068.86 Q1857.34 1071.98 1856.99 1078.3 Q1858.36 1076.29 1860.42 1075.22 Q1862.48 1074.13 1864.95 1074.13 Q1870.16 1074.13 1873.17 1077.3 Q1876.2 1080.45 1876.2 1085.89 Q1876.2 1091.22 1873.06 1094.43 Q1869.91 1097.65 1864.68 1097.65 Q1858.68 1097.65 1855.51 1093.07 Q1852.34 1088.46 1852.34 1079.74 Q1852.34 1071.54 1856.23 1066.68 Q1860.12 1061.8 1866.67 1061.8 Q1868.43 1061.8 1870.21 1062.14 Q1872.01 1062.49 1873.96 1063.18 Z" fill="#000000" fill-rule="nonzero" fill-opacity="1" /><path clip-path="url(#clip570)" d="M1712.12 1361.95 Q1709.64 1368.32 1707.28 1370.26 Q1704.93 1372.2 1700.98 1372.2 L1696.3 1372.2 L1696.3 1367.3 L1699.74 1367.3 Q1702.16 1367.3 1703.49 1366.15 Q1704.83 1365.01 1706.45 1360.74 L1707.5 1358.07 L1693.09 1322.99 L1699.29 1322.99 L1710.43 1350.87 L1721.57 1322.99 L1727.78 1322.99 L1712.12 1361.95 Z" fill="#000000" fill-rule="nonzero" fill-opacity="1" /><path clip-path="url(#clip570)" d="M1766.99 1311.12 L1772.4 1311.12 L1755.85 1364.69 L1750.44 1364.69 L1766.99 1311.12 Z" fill="#000000" fill-rule="nonzero" fill-opacity="1" /><path clip-path="url(#clip570)" d="M1827.02 1329.83 Q1829.22 1325.89 1832.27 1324.01 Q1835.33 1322.13 1839.46 1322.13 Q1845.03 1322.13 1848.06 1326.05 Q1851.08 1329.93 1851.08 1337.12 L1851.08 1358.64 L1845.19 1358.64 L1845.19 1337.31 Q1845.19 1332.19 1843.38 1329.71 Q1841.57 1327.22 1837.84 1327.22 Q1833.29 1327.22 1830.65 1330.25 Q1828.01 1333.27 1828.01 1338.49 L1828.01 1358.64 L1822.12 1358.64 L1822.12 1337.31 Q1822.12 1332.16 1820.3 1329.71 Q1818.49 1327.22 1814.7 1327.22 Q1810.21 1327.22 1807.57 1330.28 Q1804.93 1333.3 1804.93 1338.49 L1804.93 1358.64 L1799.04 1358.64 L1799.04 1322.99 L1804.93 1322.99 L1804.93 1328.53 Q1806.94 1325.25 1809.74 1323.69 Q1812.54 1322.13 1816.39 1322.13 Q1820.27 1322.13 1822.98 1324.11 Q1825.71 1326.08 1827.02 1329.83 Z" fill="#000000" fill-rule="nonzero" fill-opacity="1" /><polyline clip-path="url(#clip570)" style="stroke:#000000; stroke-linecap:round; stroke-linejoin:round; stroke-width:4; stroke-opacity:1; fill:none" points="762.397,1151.89 762.397,463.92 "/>
<polyline clip-path="url(#clip570)" style="stroke:#000000; stroke-linecap:round; stroke-linejoin:round; stroke-width:4; stroke-opacity:1; fill:none" points="762.397,1151.89 767.163,1147.76 "/>
<polyline clip-path="url(#clip570)" style="stroke:#000000; stroke-linecap:round; stroke-linejoin:round; stroke-width:4; stroke-opacity:1; fill:none" points="762.397,979.896 767.163,975.768 "/>
<polyline clip-path="url(#clip570)" style="stroke:#000000; stroke-linecap:round; stroke-linejoin:round; stroke-width:4; stroke-opacity:1; fill:none" points="762.397,807.904 767.163,803.777 "/>
<polyline clip-path="url(#clip570)" style="stroke:#000000; stroke-linecap:round; stroke-linejoin:round; stroke-width:4; stroke-opacity:1; fill:none" points="762.397,635.912 767.163,631.785 "/>
<polyline clip-path="url(#clip570)" style="stroke:#000000; stroke-linecap:round; stroke-linejoin:round; stroke-width:4; stroke-opacity:1; fill:none" points="762.397,463.92 767.163,459.793 "/>
<path clip-path="url(#clip570)" d="M626.653 1152.34 L656.329 1152.34 L656.329 1156.27 L626.653 1156.27 L626.653 1152.34 Z" fill="#000000" fill-rule="nonzero" fill-opacity="1" /><path clip-path="url(#clip570)" d="M667.231 1165.23 L674.87 1165.23 L674.87 1138.87 L666.56 1140.53 L666.56 1136.27 L674.824 1134.61 L679.5 1134.61 L679.5 1165.23 L687.139 1165.23 L687.139 1169.17 L667.231 1169.17 L667.231 1165.23 Z" fill="#000000" fill-rule="nonzero" fill-opacity="1" /><path clip-path="url(#clip570)" d="M696.583 1163.29 L701.467 1163.29 L701.467 1169.17 L696.583 1169.17 L696.583 1163.29 Z" fill="#000000" fill-rule="nonzero" fill-opacity="1" /><path clip-path="url(#clip570)" d="M721.652 1137.69 Q718.041 1137.69 716.213 1141.25 Q714.407 1144.79 714.407 1151.92 Q714.407 1159.03 716.213 1162.59 Q718.041 1166.14 721.652 1166.14 Q725.287 1166.14 727.092 1162.59 Q728.921 1159.03 728.921 1151.92 Q728.921 1144.79 727.092 1141.25 Q725.287 1137.69 721.652 1137.69 M721.652 1133.98 Q727.463 1133.98 730.518 1138.59 Q733.597 1143.17 733.597 1151.92 Q733.597 1160.65 730.518 1165.26 Q727.463 1169.84 721.652 1169.84 Q715.842 1169.84 712.764 1165.26 Q709.708 1160.65 709.708 1151.92 Q709.708 1143.17 712.764 1138.59 Q715.842 1133.98 721.652 1133.98 Z" fill="#000000" fill-rule="nonzero" fill-opacity="1" /><path clip-path="url(#clip570)" d="M627.648 980.348 L657.324 980.348 L657.324 984.283 L627.648 984.283 L627.648 980.348 Z" fill="#000000" fill-rule="nonzero" fill-opacity="1" /><path clip-path="url(#clip570)" d="M677.417 965.695 Q673.805 965.695 671.977 969.26 Q670.171 972.801 670.171 979.931 Q670.171 987.037 671.977 990.602 Q673.805 994.144 677.417 994.144 Q681.051 994.144 682.856 990.602 Q684.685 987.037 684.685 979.931 Q684.685 972.801 682.856 969.26 Q681.051 965.695 677.417 965.695 M677.417 961.991 Q683.227 961.991 686.282 966.598 Q689.361 971.181 689.361 979.931 Q689.361 988.658 686.282 993.264 Q683.227 997.848 677.417 997.848 Q671.606 997.848 668.528 993.264 Q665.472 988.658 665.472 979.931 Q665.472 971.181 668.528 966.598 Q671.606 961.991 677.417 961.991 Z" fill="#000000" fill-rule="nonzero" fill-opacity="1" /><path clip-path="url(#clip570)" d="M697.578 991.297 L702.463 991.297 L702.463 997.176 L697.578 997.176 L697.578 991.297 Z" fill="#000000" fill-rule="nonzero" fill-opacity="1" /><path clip-path="url(#clip570)" d="M712.694 962.616 L731.051 962.616 L731.051 966.551 L716.977 966.551 L716.977 975.024 Q717.995 974.676 719.014 974.514 Q720.032 974.329 721.051 974.329 Q726.838 974.329 730.217 977.5 Q733.597 980.672 733.597 986.088 Q733.597 991.667 730.125 994.769 Q726.652 997.848 720.333 997.848 Q718.157 997.848 715.889 997.477 Q713.643 997.107 711.236 996.366 L711.236 991.667 Q713.319 992.801 715.541 993.357 Q717.764 993.912 720.24 993.912 Q724.245 993.912 726.583 991.806 Q728.921 989.699 728.921 986.088 Q728.921 982.477 726.583 980.371 Q724.245 978.264 720.24 978.264 Q718.365 978.264 716.49 978.681 Q714.639 979.098 712.694 979.977 L712.694 962.616 Z" fill="#000000" fill-rule="nonzero" fill-opacity="1" /><path clip-path="url(#clip570)" d="M676.421 793.703 Q672.81 793.703 670.981 797.268 Q669.176 800.809 669.176 807.939 Q669.176 815.045 670.981 818.61 Q672.81 822.152 676.421 822.152 Q680.055 822.152 681.861 818.61 Q683.69 815.045 683.69 807.939 Q683.69 800.809 681.861 797.268 Q680.055 793.703 676.421 793.703 M676.421 789.999 Q682.231 789.999 685.287 794.606 Q688.366 799.189 688.366 807.939 Q688.366 816.666 685.287 821.272 Q682.231 825.856 676.421 825.856 Q670.611 825.856 667.532 821.272 Q664.477 816.666 664.477 807.939 Q664.477 799.189 667.532 794.606 Q670.611 789.999 676.421 789.999 Z" fill="#000000" fill-rule="nonzero" fill-opacity="1" /><path clip-path="url(#clip570)" d="M696.583 819.305 L701.467 819.305 L701.467 825.184 L696.583 825.184 L696.583 819.305 Z" fill="#000000" fill-rule="nonzero" fill-opacity="1" /><path clip-path="url(#clip570)" d="M721.652 793.703 Q718.041 793.703 716.213 797.268 Q714.407 800.809 714.407 807.939 Q714.407 815.045 716.213 818.61 Q718.041 822.152 721.652 822.152 Q725.287 822.152 727.092 818.61 Q728.921 815.045 728.921 807.939 Q728.921 800.809 727.092 797.268 Q725.287 793.703 721.652 793.703 M721.652 789.999 Q727.463 789.999 730.518 794.606 Q733.597 799.189 733.597 807.939 Q733.597 816.666 730.518 821.272 Q727.463 825.856 721.652 825.856 Q715.842 825.856 712.764 821.272 Q709.708 816.666 709.708 807.939 Q709.708 799.189 712.764 794.606 Q715.842 789.999 721.652 789.999 Z" fill="#000000" fill-rule="nonzero" fill-opacity="1" /><path clip-path="url(#clip570)" d="M677.417 621.711 Q673.805 621.711 671.977 625.276 Q670.171 628.817 670.171 635.947 Q670.171 643.054 671.977 646.618 Q673.805 650.16 677.417 650.16 Q681.051 650.16 682.856 646.618 Q684.685 643.054 684.685 635.947 Q684.685 628.817 682.856 625.276 Q681.051 621.711 677.417 621.711 M677.417 618.007 Q683.227 618.007 686.282 622.614 Q689.361 627.197 689.361 635.947 Q689.361 644.674 686.282 649.28 Q683.227 653.864 677.417 653.864 Q671.606 653.864 668.528 649.28 Q665.472 644.674 665.472 635.947 Q665.472 627.197 668.528 622.614 Q671.606 618.007 677.417 618.007 Z" fill="#000000" fill-rule="nonzero" fill-opacity="1" /><path clip-path="url(#clip570)" d="M697.578 647.313 L702.463 647.313 L702.463 653.192 L697.578 653.192 L697.578 647.313 Z" fill="#000000" fill-rule="nonzero" fill-opacity="1" /><path clip-path="url(#clip570)" d="M712.694 618.632 L731.051 618.632 L731.051 622.568 L716.977 622.568 L716.977 631.04 Q717.995 630.692 719.014 630.53 Q720.032 630.345 721.051 630.345 Q726.838 630.345 730.217 633.517 Q733.597 636.688 733.597 642.104 Q733.597 647.683 730.125 650.785 Q726.652 653.864 720.333 653.864 Q718.157 653.864 715.889 653.493 Q713.643 653.123 711.236 652.382 L711.236 647.683 Q713.319 648.817 715.541 649.373 Q717.764 649.928 720.24 649.928 Q724.245 649.928 726.583 647.822 Q728.921 645.716 728.921 642.104 Q728.921 638.493 726.583 636.387 Q724.245 634.28 720.24 634.28 Q718.365 634.28 716.49 634.697 Q714.639 635.114 712.694 635.993 L712.694 618.632 Z" fill="#000000" fill-rule="nonzero" fill-opacity="1" /><path clip-path="url(#clip570)" d="M667.231 477.265 L674.87 477.265 L674.87 450.9 L666.56 452.566 L666.56 448.307 L674.824 446.64 L679.5 446.64 L679.5 477.265 L687.139 477.265 L687.139 481.2 L667.231 481.2 L667.231 477.265 Z" fill="#000000" fill-rule="nonzero" fill-opacity="1" /><path clip-path="url(#clip570)" d="M696.583 475.321 L701.467 475.321 L701.467 481.2 L696.583 481.2 L696.583 475.321 Z" fill="#000000" fill-rule="nonzero" fill-opacity="1" /><path clip-path="url(#clip570)" d="M721.652 449.719 Q718.041 449.719 716.213 453.284 Q714.407 456.826 714.407 463.955 Q714.407 471.062 716.213 474.626 Q718.041 478.168 721.652 478.168 Q725.287 478.168 727.092 474.626 Q728.921 471.062 728.921 463.955 Q728.921 456.826 727.092 453.284 Q725.287 449.719 721.652 449.719 M721.652 446.015 Q727.463 446.015 730.518 450.622 Q733.597 455.205 733.597 463.955 Q733.597 472.682 730.518 477.288 Q727.463 481.872 721.652 481.872 Q715.842 481.872 712.764 477.288 Q709.708 472.682 709.708 463.955 Q709.708 455.205 712.764 450.622 Q715.842 446.015 721.652 446.015 Z" fill="#000000" fill-rule="nonzero" fill-opacity="1" /><path clip-path="url(#clip570)" d="M533.549 883.497 L533.549 855.679 L538.896 855.679 L564.518 877.704 L564.518 855.679 L569.197 855.679 L569.197 884.293 L563.85 884.293 L538.228 862.267 L538.228 883.497 L533.549 883.497 Z" fill="#000000" fill-rule="nonzero" fill-opacity="1" /><path clip-path="url(#clip570)" d="M521.677 815.607 L521.677 810.196 L575.244 826.747 L575.244 832.158 L521.677 815.607 Z" fill="#000000" fill-rule="nonzero" fill-opacity="1" /><path clip-path="url(#clip570)" d="M540.392 755.578 Q536.445 753.382 534.567 750.327 Q532.69 747.271 532.69 743.133 Q532.69 737.563 536.605 734.54 Q540.488 731.516 547.681 731.516 L569.197 731.516 L569.197 737.404 L547.872 737.404 Q542.747 737.404 540.265 739.218 Q537.782 741.033 537.782 744.757 Q537.782 749.308 540.806 751.95 Q543.83 754.592 549.049 754.592 L569.197 754.592 L569.197 760.48 L547.872 760.48 Q542.716 760.48 540.265 762.294 Q537.782 764.108 537.782 767.896 Q537.782 772.384 540.838 775.025 Q543.861 777.667 549.049 777.667 L569.197 777.667 L569.197 783.555 L533.549 783.555 L533.549 777.667 L539.087 777.667 Q535.809 775.662 534.249 772.861 Q532.69 770.06 532.69 766.209 Q532.69 762.326 534.663 759.62 Q536.636 756.883 540.392 755.578 Z" fill="#000000" fill-rule="nonzero" fill-opacity="1" /><path clip-path="url(#clip572)" d="M1648.96 1178.5 L1675.57 956.854 L1331.59 857.554 L960.996 979.896 L934.389 1201.54 L1278.37 1300.84 Z" fill="#009afa" fill-rule="evenodd" fill-opacity="0.501961" stroke="#000000" stroke-opacity="0.501961" stroke-linejoin="round" stroke-width="0" /><path clip-path="url(#clip572)" d="M934.389 1201.54 L1278.37 1300.84 Z" fill="#009afa" fill-rule="evenodd" fill-opacity="1" stroke="#000000" stroke-opacity="1" stroke-linejoin="round" stroke-width="3.2" /><path clip-path="url(#clip572)" d="M1278.37 1300.84 L1648.96 1178.5 Z" fill="#009afa" fill-rule="evenodd" fill-opacity="1" stroke="#000000" stroke-opacity="1" stroke-linejoin="round" stroke-width="3.2" /><path clip-path="url(#clip572)" d="M960.996 979.896 L934.389 1201.54 Z" fill="#009afa" fill-rule="evenodd" fill-opacity="1" stroke="#000000" stroke-opacity="1" stroke-linejoin="round" stroke-width="3.2" /><path clip-path="url(#clip572)" d="M1648.96 1178.5 L1675.57 956.854 Z" fill="#009afa" fill-rule="evenodd" fill-opacity="1" stroke="#000000" stroke-opacity="1" stroke-linejoin="round" stroke-width="3.2" /><path clip-path="url(#clip572)" d="M1331.59 857.554 L960.996 979.896 Z" fill="#009afa" fill-rule="evenodd" fill-opacity="1" stroke="#000000" stroke-opacity="1" stroke-linejoin="round" stroke-width="3.2" /><path clip-path="url(#clip572)" d="M1675.57 956.854 L1331.59 857.554 Z" fill="#009afa" fill-rule="evenodd" fill-opacity="1" stroke="#000000" stroke-opacity="1" stroke-linejoin="round" stroke-width="3.2" /><path clip-path="url(#clip572)" d="M1278.37 612.87 L934.389 513.57 L960.996 291.928 L1331.59 169.586 L1675.57 268.886 L1648.96 490.528 Z" fill="#009afa" fill-rule="evenodd" fill-opacity="0.501961" stroke="#000000" stroke-opacity="0.501961" stroke-linejoin="round" stroke-width="0" /><path clip-path="url(#clip572)" d="M1278.37 612.87 L934.389 513.57 Z" fill="#009afa" fill-rule="evenodd" fill-opacity="1" stroke="#000000" stroke-opacity="1" stroke-linejoin="round" stroke-width="3.2" /><path clip-path="url(#clip572)" d="M1648.96 490.528 L1278.37 612.87 Z" fill="#009afa" fill-rule="evenodd" fill-opacity="1" stroke="#000000" stroke-opacity="1" stroke-linejoin="round" stroke-width="3.2" /><path clip-path="url(#clip572)" d="M934.389 513.57 L960.996 291.928 Z" fill="#009afa" fill-rule="evenodd" fill-opacity="1" stroke="#000000" stroke-opacity="1" stroke-linejoin="round" stroke-width="3.2" /><path clip-path="url(#clip572)" d="M1675.57 268.886 L1648.96 490.528 Z" fill="#009afa" fill-rule="evenodd" fill-opacity="1" stroke="#000000" stroke-opacity="1" stroke-linejoin="round" stroke-width="3.2" /><path clip-path="url(#clip572)" d="M960.996 291.928 L1331.59 169.586 Z" fill="#009afa" fill-rule="evenodd" fill-opacity="1" stroke="#000000" stroke-opacity="1" stroke-linejoin="round" stroke-width="3.2" /><path clip-path="url(#clip572)" d="M1331.59 169.586 L1675.57 268.886 Z" fill="#009afa" fill-rule="evenodd" fill-opacity="1" stroke="#000000" stroke-opacity="1" stroke-linejoin="round" stroke-width="3.2" /><path clip-path="url(#clip572)" d="M1648.96 1178.5 L1648.96 490.528 L1675.57 268.886 L1675.57 956.854 Z" fill="#009afa" fill-rule="evenodd" fill-opacity="0.501961" stroke="#000000" stroke-opacity="0.501961" stroke-linejoin="round" stroke-width="0" /><path clip-path="url(#clip572)" d="M1648.96 490.528 L1675.57 268.886 Z" fill="#009afa" fill-rule="evenodd" fill-opacity="1" stroke="#000000" stroke-opacity="1" stroke-linejoin="round" stroke-width="3.2" /><path clip-path="url(#clip572)" d="M1648.96 1178.5 L1648.96 490.528 Z" fill="#009afa" fill-rule="evenodd" fill-opacity="1" stroke="#000000" stroke-opacity="1" stroke-linejoin="round" stroke-width="3.2" /><path clip-path="url(#clip572)" d="M1675.57 268.886 L1675.57 956.854 Z" fill="#009afa" fill-rule="evenodd" fill-opacity="1" stroke="#000000" stroke-opacity="1" stroke-linejoin="round" stroke-width="3.2" /><path clip-path="url(#clip572)" d="M1675.57 956.854 L1648.96 1178.5 Z" fill="#009afa" fill-rule="evenodd" fill-opacity="1" stroke="#000000" stroke-opacity="1" stroke-linejoin="round" stroke-width="3.2" /><path clip-path="url(#clip572)" d="M1675.57 956.854 L1675.57 268.886 L1331.59 169.586 L1331.59 857.554 Z" fill="#009afa" fill-rule="evenodd" fill-opacity="0.501961" stroke="#000000" stroke-opacity="0.501961" stroke-linejoin="round" stroke-width="0" /><path clip-path="url(#clip572)" d="M1675.57 268.886 L1331.59 169.586 Z" fill="#009afa" fill-rule="evenodd" fill-opacity="1" stroke="#000000" stroke-opacity="1" stroke-linejoin="round" stroke-width="3.2" /><path clip-path="url(#clip572)" d="M1675.57 956.854 L1675.57 268.886 Z" fill="#009afa" fill-rule="evenodd" fill-opacity="1" stroke="#000000" stroke-opacity="1" stroke-linejoin="round" stroke-width="3.2" /><path clip-path="url(#clip572)" d="M1331.59 169.586 L1331.59 857.554 Z" fill="#009afa" fill-rule="evenodd" fill-opacity="1" stroke="#000000" stroke-opacity="1" stroke-linejoin="round" stroke-width="3.2" /><path clip-path="url(#clip572)" d="M1331.59 857.554 L1675.57 956.854 Z" fill="#009afa" fill-rule="evenodd" fill-opacity="1" stroke="#000000" stroke-opacity="1" stroke-linejoin="round" stroke-width="3.2" /><path clip-path="url(#clip572)" d="M1331.59 857.554 L1331.59 169.586 L960.996 291.928 L960.996 979.896 Z" fill="#009afa" fill-rule="evenodd" fill-opacity="0.501961" stroke="#000000" stroke-opacity="0.501961" stroke-linejoin="round" stroke-width="0" /><path clip-path="url(#clip572)" d="M1331.59 169.586 L960.996 291.928 Z" fill="#009afa" fill-rule="evenodd" fill-opacity="1" stroke="#000000" stroke-opacity="1" stroke-linejoin="round" stroke-width="3.2" /><path clip-path="url(#clip572)" d="M960.996 291.928 L960.996 979.896 Z" fill="#009afa" fill-rule="evenodd" fill-opacity="1" stroke="#000000" stroke-opacity="1" stroke-linejoin="round" stroke-width="3.2" /><path clip-path="url(#clip572)" d="M1331.59 857.554 L1331.59 169.586 Z" fill="#009afa" fill-rule="evenodd" fill-opacity="1" stroke="#000000" stroke-opacity="1" stroke-linejoin="round" stroke-width="3.2" /><path clip-path="url(#clip572)" d="M960.996 979.896 L1331.59 857.554 Z" fill="#009afa" fill-rule="evenodd" fill-opacity="1" stroke="#000000" stroke-opacity="1" stroke-linejoin="round" stroke-width="3.2" /><path clip-path="url(#clip572)" d="M960.996 979.896 L960.996 291.928 L934.389 513.57 L934.389 1201.54 Z" fill="#009afa" fill-rule="evenodd" fill-opacity="0.501961" stroke="#000000" stroke-opacity="0.501961" stroke-linejoin="round" stroke-width="0" /><path clip-path="url(#clip572)" d="M960.996 291.928 L934.389 513.57 Z" fill="#009afa" fill-rule="evenodd" fill-opacity="1" stroke="#000000" stroke-opacity="1" stroke-linejoin="round" stroke-width="3.2" /><path clip-path="url(#clip572)" d="M934.389 513.57 L934.389 1201.54 Z" fill="#009afa" fill-rule="evenodd" fill-opacity="1" stroke="#000000" stroke-opacity="1" stroke-linejoin="round" stroke-width="3.2" /><path clip-path="url(#clip572)" d="M960.996 979.896 L960.996 291.928 Z" fill="#009afa" fill-rule="evenodd" fill-opacity="1" stroke="#000000" stroke-opacity="1" stroke-linejoin="round" stroke-width="3.2" /><path clip-path="url(#clip572)" d="M934.389 1201.54 L960.996 979.896 Z" fill="#009afa" fill-rule="evenodd" fill-opacity="1" stroke="#000000" stroke-opacity="1" stroke-linejoin="round" stroke-width="3.2" /><path clip-path="url(#clip572)" d="M934.389 1201.54 L934.389 513.57 L1278.37 612.87 L1278.37 1300.84 Z" fill="#009afa" fill-rule="evenodd" fill-opacity="0.501961" stroke="#000000" stroke-opacity="0.501961" stroke-linejoin="round" stroke-width="0" /><path clip-path="url(#clip572)" d="M934.389 513.57 L1278.37 612.87 Z" fill="#009afa" fill-rule="evenodd" fill-opacity="1" stroke="#000000" stroke-opacity="1" stroke-linejoin="round" stroke-width="3.2" /><path clip-path="url(#clip572)" d="M1278.37 612.87 L1278.37 1300.84 Z" fill="#009afa" fill-rule="evenodd" fill-opacity="1" stroke="#000000" stroke-opacity="1" stroke-linejoin="round" stroke-width="3.2" /><path clip-path="url(#clip572)" d="M934.389 1201.54 L934.389 513.57 Z" fill="#009afa" fill-rule="evenodd" fill-opacity="1" stroke="#000000" stroke-opacity="1" stroke-linejoin="round" stroke-width="3.2" /><path clip-path="url(#clip572)" d="M1278.37 1300.84 L934.389 1201.54 Z" fill="#009afa" fill-rule="evenodd" fill-opacity="1" stroke="#000000" stroke-opacity="1" stroke-linejoin="round" stroke-width="3.2" /><path clip-path="url(#clip572)" d="M1278.37 1300.84 L1278.37 612.87 L1648.96 490.528 L1648.96 1178.5 Z" fill="#009afa" fill-rule="evenodd" fill-opacity="0.501961" stroke="#000000" stroke-opacity="0.501961" stroke-linejoin="round" stroke-width="0" /><path clip-path="url(#clip572)" d="M1278.37 612.87 L1648.96 490.528 Z" fill="#009afa" fill-rule="evenodd" fill-opacity="1" stroke="#000000" stroke-opacity="1" stroke-linejoin="round" stroke-width="3.2" /><path clip-path="url(#clip572)" d="M1278.37 1300.84 L1278.37 612.87 Z" fill="#009afa" fill-rule="evenodd" fill-opacity="1" stroke="#000000" stroke-opacity="1" stroke-linejoin="round" stroke-width="3.2" /><path clip-path="url(#clip572)" d="M1648.96 490.528 L1648.96 1178.5 Z" fill="#009afa" fill-rule="evenodd" fill-opacity="1" stroke="#000000" stroke-opacity="1" stroke-linejoin="round" stroke-width="3.2" /><path clip-path="url(#clip572)" d="M1648.96 1178.5 L1278.37 1300.84 Z" fill="#009afa" fill-rule="evenodd" fill-opacity="1" stroke="#000000" stroke-opacity="1" stroke-linejoin="round" stroke-width="3.2" /><path clip-path="url(#clip570)" d="M327.056 196.789 L841.054 196.789 L841.054 93.1086 L327.056 93.1086  Z" fill="#ffffff" fill-rule="evenodd" fill-opacity="1"/>
<polyline clip-path="url(#clip570)" style="stroke:#000000; stroke-linecap:round; stroke-linejoin:round; stroke-width:4; stroke-opacity:1; fill:none" points="327.056,196.789 841.054,196.789 841.054,93.1086 327.056,93.1086 327.056,196.789 "/>
<path clip-path="url(#clip570)" d="M529.716 146.025 Q531.22 146.534 532.632 148.201 Q534.068 149.868 535.503 152.784 L540.248 162.229 L535.225 162.229 L530.804 153.363 Q529.091 149.891 527.47 148.756 Q525.873 147.622 523.096 147.622 L518.003 147.622 L518.003 162.229 L513.327 162.229 L513.327 127.669 L523.883 127.669 Q529.808 127.669 532.725 130.145 Q535.642 132.622 535.642 137.622 Q535.642 140.886 534.114 143.039 Q532.609 145.192 529.716 146.025 M518.003 131.511 L518.003 143.78 L523.883 143.78 Q527.262 143.78 528.975 142.229 Q530.711 140.655 530.711 137.622 Q530.711 134.59 528.975 133.062 Q527.262 131.511 523.883 131.511 L518.003 131.511 Z" fill="#000000" fill-rule="nonzero" fill-opacity="1" /><path clip-path="url(#clip570)" d="M566.128 148.201 L566.128 150.284 L546.544 150.284 Q546.822 154.682 549.183 156.997 Q551.568 159.289 555.804 159.289 Q558.257 159.289 560.549 158.687 Q562.864 158.085 565.132 156.881 L565.132 160.909 Q562.841 161.881 560.433 162.391 Q558.026 162.9 555.549 162.9 Q549.345 162.9 545.711 159.289 Q542.1 155.678 542.1 149.52 Q542.1 143.155 545.526 139.428 Q548.975 135.678 554.808 135.678 Q560.04 135.678 563.072 139.057 Q566.128 142.414 566.128 148.201 M561.868 146.951 Q561.822 143.456 559.901 141.372 Q558.003 139.289 554.855 139.289 Q551.29 139.289 549.137 141.303 Q547.007 143.317 546.683 146.974 L561.868 146.951 Z" fill="#000000" fill-rule="nonzero" fill-opacity="1" /><path clip-path="url(#clip570)" d="M590.178 148.965 Q590.178 144.335 588.257 141.789 Q586.359 139.243 582.91 139.243 Q579.484 139.243 577.563 141.789 Q575.665 144.335 575.665 148.965 Q575.665 153.571 577.563 156.118 Q579.484 158.664 582.91 158.664 Q586.359 158.664 588.257 156.118 Q590.178 153.571 590.178 148.965 M594.438 159.011 Q594.438 165.631 591.498 168.849 Q588.558 172.09 582.493 172.09 Q580.248 172.09 578.257 171.742 Q576.267 171.418 574.392 170.724 L574.392 166.58 Q576.267 167.599 578.095 168.085 Q579.924 168.571 581.822 168.571 Q586.012 168.571 588.095 166.372 Q590.178 164.196 590.178 159.775 L590.178 157.668 Q588.859 159.96 586.799 161.094 Q584.739 162.229 581.868 162.229 Q577.1 162.229 574.183 158.594 Q571.267 154.96 571.267 148.965 Q571.267 142.946 574.183 139.312 Q577.1 135.678 581.868 135.678 Q584.739 135.678 586.799 136.812 Q588.859 137.946 590.178 140.238 L590.178 136.303 L594.438 136.303 L594.438 159.011 Z" fill="#000000" fill-rule="nonzero" fill-opacity="1" /><path clip-path="url(#clip570)" d="M602.771 151.997 L602.771 136.303 L607.03 136.303 L607.03 151.835 Q607.03 155.516 608.465 157.368 Q609.901 159.196 612.771 159.196 Q616.22 159.196 618.211 156.997 Q620.225 154.798 620.225 151.002 L620.225 136.303 L624.484 136.303 L624.484 162.229 L620.225 162.229 L620.225 158.247 Q618.674 160.608 616.614 161.766 Q614.576 162.9 611.868 162.9 Q607.401 162.9 605.086 160.122 Q602.771 157.344 602.771 151.997 M613.489 135.678 L613.489 135.678 Z" fill="#000000" fill-rule="nonzero" fill-opacity="1" /><path clip-path="url(#clip570)" d="M633.257 126.21 L637.516 126.21 L637.516 162.229 L633.257 162.229 L633.257 126.21 Z" fill="#000000" fill-rule="nonzero" fill-opacity="1" /><path clip-path="url(#clip570)" d="M658.211 149.196 Q653.049 149.196 651.058 150.377 Q649.067 151.557 649.067 154.405 Q649.067 156.673 650.549 158.016 Q652.053 159.335 654.623 159.335 Q658.164 159.335 660.294 156.835 Q662.447 154.312 662.447 150.145 L662.447 149.196 L658.211 149.196 M666.706 147.437 L666.706 162.229 L662.447 162.229 L662.447 158.293 Q660.988 160.655 658.812 161.789 Q656.636 162.9 653.488 162.9 Q649.507 162.9 647.146 160.678 Q644.808 158.432 644.808 154.682 Q644.808 150.307 647.724 148.085 Q650.664 145.863 656.474 145.863 L662.447 145.863 L662.447 145.446 Q662.447 142.507 660.502 140.909 Q658.581 139.289 655.086 139.289 Q652.863 139.289 650.757 139.821 Q648.65 140.354 646.706 141.419 L646.706 137.483 Q649.044 136.581 651.243 136.141 Q653.442 135.678 655.525 135.678 Q661.15 135.678 663.928 138.594 Q666.706 141.511 666.706 147.437 Z" fill="#000000" fill-rule="nonzero" fill-opacity="1" /><path clip-path="url(#clip570)" d="M690.502 140.284 Q689.784 139.868 688.928 139.682 Q688.095 139.474 687.076 139.474 Q683.465 139.474 681.521 141.835 Q679.599 144.173 679.599 148.571 L679.599 162.229 L675.317 162.229 L675.317 136.303 L679.599 136.303 L679.599 140.331 Q680.942 137.969 683.095 136.835 Q685.247 135.678 688.326 135.678 Q688.766 135.678 689.298 135.747 Q689.831 135.794 690.479 135.909 L690.502 140.284 Z" fill="#000000" fill-rule="nonzero" fill-opacity="1" /><path clip-path="url(#clip570)" d="M699.831 131.511 L699.831 144.497 L705.71 144.497 Q708.974 144.497 710.757 142.807 Q712.539 141.118 712.539 137.993 Q712.539 134.891 710.757 133.201 Q708.974 131.511 705.71 131.511 L699.831 131.511 M695.155 127.669 L705.71 127.669 Q711.52 127.669 714.483 130.307 Q717.469 132.923 717.469 137.993 Q717.469 143.108 714.483 145.724 Q711.52 148.34 705.71 148.34 L699.831 148.34 L699.831 162.229 L695.155 162.229 L695.155 127.669 Z" fill="#000000" fill-rule="nonzero" fill-opacity="1" /><path clip-path="url(#clip570)" d="M737.747 140.284 Q737.03 139.868 736.173 139.682 Q735.34 139.474 734.321 139.474 Q730.71 139.474 728.766 141.835 Q726.844 144.173 726.844 148.571 L726.844 162.229 L722.562 162.229 L722.562 136.303 L726.844 136.303 L726.844 140.331 Q728.187 137.969 730.34 136.835 Q732.493 135.678 735.571 135.678 Q736.011 135.678 736.543 135.747 Q737.076 135.794 737.724 135.909 L737.747 140.284 Z" fill="#000000" fill-rule="nonzero" fill-opacity="1" /><path clip-path="url(#clip570)" d="M742.215 136.303 L746.474 136.303 L746.474 162.229 L742.215 162.229 L742.215 136.303 M742.215 126.21 L746.474 126.21 L746.474 131.604 L742.215 131.604 L742.215 126.21 Z" fill="#000000" fill-rule="nonzero" fill-opacity="1" /><path clip-path="url(#clip570)" d="M771.914 137.067 L771.914 141.094 Q770.108 140.169 768.164 139.706 Q766.219 139.243 764.136 139.243 Q760.965 139.243 759.367 140.215 Q757.793 141.187 757.793 143.131 Q757.793 144.613 758.928 145.469 Q760.062 146.303 763.488 147.067 L764.946 147.391 Q769.483 148.363 771.381 150.145 Q773.302 151.905 773.302 155.076 Q773.302 158.687 770.432 160.793 Q767.585 162.9 762.585 162.9 Q760.502 162.9 758.233 162.483 Q755.988 162.09 753.488 161.28 L753.488 156.881 Q755.849 158.108 758.141 158.733 Q760.432 159.335 762.678 159.335 Q765.687 159.335 767.307 158.317 Q768.928 157.275 768.928 155.4 Q768.928 153.664 767.747 152.738 Q766.59 151.812 762.631 150.956 L761.15 150.608 Q757.191 149.775 755.432 148.062 Q753.673 146.326 753.673 143.317 Q753.673 139.659 756.266 137.669 Q758.858 135.678 763.627 135.678 Q765.988 135.678 768.071 136.025 Q770.154 136.372 771.914 137.067 Z" fill="#000000" fill-rule="nonzero" fill-opacity="1" /><path clip-path="url(#clip570)" d="M800.27 141.28 Q801.867 138.409 804.089 137.044 Q806.312 135.678 809.321 135.678 Q813.372 135.678 815.571 138.525 Q817.77 141.349 817.77 146.581 L817.77 162.229 L813.487 162.229 L813.487 146.719 Q813.487 142.993 812.168 141.187 Q810.849 139.382 808.14 139.382 Q804.83 139.382 802.909 141.581 Q800.988 143.78 800.988 147.576 L800.988 162.229 L796.705 162.229 L796.705 146.719 Q796.705 142.969 795.386 141.187 Q794.066 139.382 791.312 139.382 Q788.048 139.382 786.127 141.604 Q784.205 143.803 784.205 147.576 L784.205 162.229 L779.923 162.229 L779.923 136.303 L784.205 136.303 L784.205 140.331 Q785.664 137.946 787.701 136.812 Q789.738 135.678 792.539 135.678 Q795.363 135.678 797.33 137.113 Q799.321 138.548 800.27 141.28 Z" fill="#000000" fill-rule="nonzero" fill-opacity="1" /></svg>
