<?xml version="1.0" encoding="utf-8"?>
<svg xmlns="http://www.w3.org/2000/svg" xmlns:xlink="http://www.w3.org/1999/xlink" width="600" height="400" viewBox="0 0 2400 1600">
<defs>
  <clipPath id="clip270">
    <rect x="0" y="0" width="2400" height="1600"/>
  </clipPath>
</defs>
<path clip-path="url(#clip270)" d="M0 1600 L2400 1600 L2400 0 L0 0  Z" fill="#ffffff" fill-rule="evenodd" fill-opacity="1"/>
<defs>
  <clipPath id="clip271">
    <rect x="480" y="0" width="1681" height="1600"/>
  </clipPath>
</defs>
<defs>
  <clipPath id="clip272">
    <rect x="211" y="47" width="2142" height="1377"/>
  </clipPath>
</defs>
<path clip-path="url(#clip272)" d="M739.457 943.55 L739.457 599.566 L1136.66 427.574 L1824.62 526.874 L1824.62 870.858 L1427.42 1042.85 L739.457 943.55  Z" fill="#ffffff" fill-rule="evenodd" fill-opacity="1"/>
<polyline clip-path="url(#clip272)" style="stroke:#000000; stroke-linecap:round; stroke-linejoin:round; stroke-width:2; stroke-opacity:0.1; fill:none" points="739.457,1151.89 1136.66,807.904 1136.66,119.936 "/>
<polyline clip-path="url(#clip272)" style="stroke:#000000; stroke-linecap:round; stroke-linejoin:round; stroke-width:2; stroke-opacity:0.1; fill:none" points="911.449,1201.54 1308.65,857.554 1308.65,169.586 "/>
<polyline clip-path="url(#clip272)" style="stroke:#000000; stroke-linecap:round; stroke-linejoin:round; stroke-width:2; stroke-opacity:0.1; fill:none" points="1083.44,1251.19 1480.64,907.204 1480.64,219.236 "/>
<polyline clip-path="url(#clip272)" style="stroke:#000000; stroke-linecap:round; stroke-linejoin:round; stroke-width:2; stroke-opacity:0.1; fill:none" points="1255.43,1300.84 1652.63,956.854 1652.63,268.886 "/>
<polyline clip-path="url(#clip272)" style="stroke:#000000; stroke-linecap:round; stroke-linejoin:round; stroke-width:2; stroke-opacity:0.1; fill:none" points="1427.42,1350.49 1824.62,1006.5 1824.62,318.536 "/>
<polyline clip-path="url(#clip272)" style="stroke:#000000; stroke-linecap:round; stroke-linejoin:round; stroke-width:2; stroke-opacity:0.1; fill:none" points="1427.42,1350.49 739.457,1151.89 739.457,463.92 "/>
<polyline clip-path="url(#clip272)" style="stroke:#000000; stroke-linecap:round; stroke-linejoin:round; stroke-width:2; stroke-opacity:0.1; fill:none" points="1526.72,1264.49 838.757,1065.89 838.757,377.924 "/>
<polyline clip-path="url(#clip272)" style="stroke:#000000; stroke-linecap:round; stroke-linejoin:round; stroke-width:2; stroke-opacity:0.1; fill:none" points="1626.02,1178.5 938.056,979.896 938.056,291.928 "/>
<polyline clip-path="url(#clip272)" style="stroke:#000000; stroke-linecap:round; stroke-linejoin:round; stroke-width:2; stroke-opacity:0.1; fill:none" points="1725.32,1092.5 1037.36,893.9 1037.36,205.932 "/>
<polyline clip-path="url(#clip272)" style="stroke:#000000; stroke-linecap:round; stroke-linejoin:round; stroke-width:2; stroke-opacity:0.1; fill:none" points="1824.62,1006.5 1136.66,807.904 1136.66,119.936 "/>
<polyline clip-path="url(#clip272)" style="stroke:#000000; stroke-linecap:round; stroke-linejoin:round; stroke-width:2; stroke-opacity:0.1; fill:none" points="739.457,1151.89 1136.66,807.904 1824.62,1006.5 "/>
<polyline clip-path="url(#clip272)" style="stroke:#000000; stroke-linecap:round; stroke-linejoin:round; stroke-width:2; stroke-opacity:0.1; fill:none" points="739.457,1037.23 1136.66,693.243 1824.62,891.842 "/>
<polyline clip-path="url(#clip272)" style="stroke:#000000; stroke-linecap:round; stroke-linejoin:round; stroke-width:2; stroke-opacity:0.1; fill:none" points="739.457,922.566 1136.66,578.582 1824.62,777.181 "/>
<polyline clip-path="url(#clip272)" style="stroke:#000000; stroke-linecap:round; stroke-linejoin:round; stroke-width:2; stroke-opacity:0.1; fill:none" points="739.457,807.904 1136.66,463.92 1824.62,662.52 "/>
<polyline clip-path="url(#clip272)" style="stroke:#000000; stroke-linecap:round; stroke-linejoin:round; stroke-width:2; stroke-opacity:0.1; fill:none" points="739.457,693.243 1136.66,349.259 1824.62,547.858 "/>
<polyline clip-path="url(#clip272)" style="stroke:#000000; stroke-linecap:round; stroke-linejoin:round; stroke-width:2; stroke-opacity:0.1; fill:none" points="739.457,578.582 1136.66,234.598 1824.62,433.197 "/>
<polyline clip-path="url(#clip272)" style="stroke:#000000; stroke-linecap:round; stroke-linejoin:round; stroke-width:2; stroke-opacity:0.1; fill:none" points="739.457,463.92 1136.66,119.936 1824.62,318.536 "/>
<polyline clip-path="url(#clip270)" style="stroke:#000000; stroke-linecap:round; stroke-linejoin:round; stroke-width:4; stroke-opacity:1; fill:none" points="739.457,1151.89 1427.42,1350.49 "/>
<polyline clip-path="url(#clip270)" style="stroke:#000000; stroke-linecap:round; stroke-linejoin:round; stroke-width:4; stroke-opacity:1; fill:none" points="739.457,1151.89 744.224,1147.76 "/>
<polyline clip-path="url(#clip270)" style="stroke:#000000; stroke-linecap:round; stroke-linejoin:round; stroke-width:4; stroke-opacity:1; fill:none" points="911.449,1201.54 916.215,1197.41 "/>
<polyline clip-path="url(#clip270)" style="stroke:#000000; stroke-linecap:round; stroke-linejoin:round; stroke-width:4; stroke-opacity:1; fill:none" points="1083.44,1251.19 1088.21,1247.06 "/>
<polyline clip-path="url(#clip270)" style="stroke:#000000; stroke-linecap:round; stroke-linejoin:round; stroke-width:4; stroke-opacity:1; fill:none" points="1255.43,1300.84 1260.2,1296.71 "/>
<polyline clip-path="url(#clip270)" style="stroke:#000000; stroke-linecap:round; stroke-linejoin:round; stroke-width:4; stroke-opacity:1; fill:none" points="1427.42,1350.49 1432.19,1346.36 "/>
<path clip-path="url(#clip270)" d="M628.399 1180.84 L658.075 1180.84 L658.075 1184.78 L628.399 1184.78 L628.399 1180.84 Z" fill="#000000" fill-rule="nonzero" fill-opacity="1" /><path clip-path="url(#clip270)" d="M668.977 1193.74 L676.616 1193.74 L676.616 1167.37 L668.306 1169.04 L668.306 1164.78 L676.57 1163.11 L681.246 1163.11 L681.246 1193.74 L688.885 1193.74 L688.885 1197.67 L668.977 1197.67 L668.977 1193.74 Z" fill="#000000" fill-rule="nonzero" fill-opacity="1" /><path clip-path="url(#clip270)" d="M698.329 1191.79 L703.213 1191.79 L703.213 1197.67 L698.329 1197.67 L698.329 1191.79 Z" fill="#000000" fill-rule="nonzero" fill-opacity="1" /><path clip-path="url(#clip270)" d="M723.398 1166.19 Q719.787 1166.19 717.959 1169.76 Q716.153 1173.3 716.153 1180.43 Q716.153 1187.53 717.959 1191.1 Q719.787 1194.64 723.398 1194.64 Q727.033 1194.64 728.838 1191.1 Q730.667 1187.53 730.667 1180.43 Q730.667 1173.3 728.838 1169.76 Q727.033 1166.19 723.398 1166.19 M723.398 1162.49 Q729.209 1162.49 732.264 1167.09 Q735.343 1171.68 735.343 1180.43 Q735.343 1189.15 732.264 1193.76 Q729.209 1198.34 723.398 1198.34 Q717.588 1198.34 714.51 1193.76 Q711.454 1189.15 711.454 1180.43 Q711.454 1171.68 714.51 1167.09 Q717.588 1162.49 723.398 1162.49 Z" fill="#000000" fill-rule="nonzero" fill-opacity="1" /><path clip-path="url(#clip270)" d="M801.386 1230.49 L831.062 1230.49 L831.062 1234.43 L801.386 1234.43 L801.386 1230.49 Z" fill="#000000" fill-rule="nonzero" fill-opacity="1" /><path clip-path="url(#clip270)" d="M851.155 1215.84 Q847.543 1215.84 845.715 1219.41 Q843.909 1222.95 843.909 1230.08 Q843.909 1237.18 845.715 1240.75 Q847.543 1244.29 851.155 1244.29 Q854.789 1244.29 856.594 1240.75 Q858.423 1237.18 858.423 1230.08 Q858.423 1222.95 856.594 1219.41 Q854.789 1215.84 851.155 1215.84 M851.155 1212.14 Q856.965 1212.14 860.02 1216.74 Q863.099 1221.33 863.099 1230.08 Q863.099 1238.8 860.02 1243.41 Q856.965 1247.99 851.155 1247.99 Q845.344 1247.99 842.266 1243.41 Q839.21 1238.8 839.21 1230.08 Q839.21 1221.33 842.266 1216.74 Q845.344 1212.14 851.155 1212.14 Z" fill="#000000" fill-rule="nonzero" fill-opacity="1" /><path clip-path="url(#clip270)" d="M871.316 1241.44 L876.201 1241.44 L876.201 1247.32 L871.316 1247.32 L871.316 1241.44 Z" fill="#000000" fill-rule="nonzero" fill-opacity="1" /><path clip-path="url(#clip270)" d="M886.432 1212.76 L904.789 1212.76 L904.789 1216.7 L890.715 1216.7 L890.715 1225.17 Q891.733 1224.82 892.752 1224.66 Q893.77 1224.48 894.789 1224.48 Q900.576 1224.48 903.955 1227.65 Q907.335 1230.82 907.335 1236.23 Q907.335 1241.81 903.863 1244.92 Q900.39 1247.99 894.071 1247.99 Q891.895 1247.99 889.627 1247.62 Q887.381 1247.25 884.974 1246.51 L884.974 1241.81 Q887.057 1242.95 889.279 1243.5 Q891.502 1244.06 893.978 1244.06 Q897.983 1244.06 900.321 1241.95 Q902.659 1239.85 902.659 1236.23 Q902.659 1232.62 900.321 1230.52 Q897.983 1228.41 893.978 1228.41 Q892.103 1228.41 890.228 1228.83 Q888.377 1229.24 886.432 1230.12 L886.432 1212.76 Z" fill="#000000" fill-rule="nonzero" fill-opacity="1" /><path clip-path="url(#clip270)" d="M1022.15 1265.49 Q1018.54 1265.49 1016.71 1269.06 Q1014.91 1272.6 1014.91 1279.73 Q1014.91 1286.83 1016.71 1290.4 Q1018.54 1293.94 1022.15 1293.94 Q1025.79 1293.94 1027.59 1290.4 Q1029.42 1286.83 1029.42 1279.73 Q1029.42 1272.6 1027.59 1269.06 Q1025.79 1265.49 1022.15 1265.49 M1022.15 1261.79 Q1027.96 1261.79 1031.02 1266.39 Q1034.1 1270.98 1034.1 1279.73 Q1034.1 1288.45 1031.02 1293.06 Q1027.96 1297.64 1022.15 1297.64 Q1016.34 1297.64 1013.26 1293.06 Q1010.21 1288.45 1010.21 1279.73 Q1010.21 1270.98 1013.26 1266.39 Q1016.34 1261.79 1022.15 1261.79 Z" fill="#000000" fill-rule="nonzero" fill-opacity="1" /><path clip-path="url(#clip270)" d="M1042.31 1291.09 L1047.2 1291.09 L1047.2 1296.97 L1042.31 1296.97 L1042.31 1291.09 Z" fill="#000000" fill-rule="nonzero" fill-opacity="1" /><path clip-path="url(#clip270)" d="M1067.38 1265.49 Q1063.77 1265.49 1061.94 1269.06 Q1060.14 1272.6 1060.14 1279.73 Q1060.14 1286.83 1061.94 1290.4 Q1063.77 1293.94 1067.38 1293.94 Q1071.02 1293.94 1072.82 1290.4 Q1074.65 1286.83 1074.65 1279.73 Q1074.65 1272.6 1072.82 1269.06 Q1071.02 1265.49 1067.38 1265.49 M1067.38 1261.79 Q1073.19 1261.79 1076.25 1266.39 Q1079.33 1270.98 1079.33 1279.73 Q1079.33 1288.45 1076.25 1293.06 Q1073.19 1297.64 1067.38 1297.64 Q1061.57 1297.64 1058.49 1293.06 Q1055.44 1288.45 1055.44 1279.73 Q1055.44 1270.98 1058.49 1266.39 Q1061.57 1261.79 1067.38 1261.79 Z" fill="#000000" fill-rule="nonzero" fill-opacity="1" /><path clip-path="url(#clip270)" d="M1195.14 1315.14 Q1191.53 1315.14 1189.7 1318.71 Q1187.89 1322.25 1187.89 1329.38 Q1187.89 1336.48 1189.7 1340.05 Q1191.53 1343.59 1195.14 1343.59 Q1198.77 1343.59 1200.58 1340.05 Q1202.41 1336.48 1202.41 1329.38 Q1202.41 1322.25 1200.58 1318.71 Q1198.77 1315.14 1195.14 1315.14 M1195.14 1311.44 Q1200.95 1311.44 1204 1316.04 Q1207.08 1320.63 1207.08 1329.38 Q1207.08 1338.1 1204 1342.71 Q1200.95 1347.29 1195.14 1347.29 Q1189.33 1347.29 1186.25 1342.71 Q1183.19 1338.1 1183.19 1329.38 Q1183.19 1320.63 1186.25 1316.04 Q1189.33 1311.44 1195.14 1311.44 Z" fill="#000000" fill-rule="nonzero" fill-opacity="1" /><path clip-path="url(#clip270)" d="M1215.3 1340.74 L1220.18 1340.74 L1220.18 1346.62 L1215.3 1346.62 L1215.3 1340.74 Z" fill="#000000" fill-rule="nonzero" fill-opacity="1" /><path clip-path="url(#clip270)" d="M1230.42 1312.06 L1248.77 1312.06 L1248.77 1316 L1234.7 1316 L1234.7 1324.47 Q1235.72 1324.12 1236.74 1323.96 Q1237.75 1323.78 1238.77 1323.78 Q1244.56 1323.78 1247.94 1326.95 Q1251.32 1330.12 1251.32 1335.53 Q1251.32 1341.11 1247.85 1344.21 Q1244.37 1347.29 1238.05 1347.29 Q1235.88 1347.29 1233.61 1346.92 Q1231.37 1346.55 1228.96 1345.81 L1228.96 1341.11 Q1231.04 1342.25 1233.26 1342.8 Q1235.49 1343.36 1237.96 1343.36 Q1241.97 1343.36 1244.3 1341.25 Q1246.64 1339.15 1246.64 1335.53 Q1246.64 1331.92 1244.3 1329.82 Q1241.97 1327.71 1237.96 1327.71 Q1236.09 1327.71 1234.21 1328.13 Q1232.36 1328.54 1230.42 1329.42 L1230.42 1312.06 Z" fill="#000000" fill-rule="nonzero" fill-opacity="1" /><path clip-path="url(#clip270)" d="M1356.95 1392.34 L1364.58 1392.34 L1364.58 1365.97 L1356.27 1367.64 L1356.27 1363.38 L1364.54 1361.71 L1369.21 1361.71 L1369.21 1392.34 L1376.85 1392.34 L1376.85 1396.27 L1356.95 1396.27 L1356.95 1392.34 Z" fill="#000000" fill-rule="nonzero" fill-opacity="1" /><path clip-path="url(#clip270)" d="M1386.3 1390.39 L1391.18 1390.39 L1391.18 1396.27 L1386.3 1396.27 L1386.3 1390.39 Z" fill="#000000" fill-rule="nonzero" fill-opacity="1" /><path clip-path="url(#clip270)" d="M1411.37 1364.79 Q1407.76 1364.79 1405.93 1368.36 Q1404.12 1371.9 1404.12 1379.03 Q1404.12 1386.13 1405.93 1389.7 Q1407.76 1393.24 1411.37 1393.24 Q1415 1393.24 1416.81 1389.7 Q1418.63 1386.13 1418.63 1379.03 Q1418.63 1371.9 1416.81 1368.36 Q1415 1364.79 1411.37 1364.79 M1411.37 1361.09 Q1417.18 1361.09 1420.23 1365.69 Q1423.31 1370.28 1423.31 1379.03 Q1423.31 1387.75 1420.23 1392.36 Q1417.18 1396.94 1411.37 1396.94 Q1405.56 1396.94 1402.48 1392.36 Q1399.42 1387.75 1399.42 1379.03 Q1399.42 1370.28 1402.48 1365.69 Q1405.56 1361.09 1411.37 1361.09 Z" fill="#000000" fill-rule="nonzero" fill-opacity="1" /><path clip-path="url(#clip270)" d="M915.188 1395.68 L902.298 1413.03 L915.857 1431.33 L908.95 1431.33 L898.574 1417.33 L888.198 1431.33 L881.291 1431.33 L895.136 1412.68 L882.468 1395.68 L889.375 1395.68 L898.828 1408.38 L908.281 1395.68 L915.188 1395.68 Z" fill="#000000" fill-rule="nonzero" fill-opacity="1" /><path clip-path="url(#clip270)" d="M955.26 1383.81 L960.671 1383.81 L944.12 1437.38 L938.709 1437.38 L955.26 1383.81 Z" fill="#000000" fill-rule="nonzero" fill-opacity="1" /><path clip-path="url(#clip270)" d="M1015.29 1402.53 Q1017.49 1398.58 1020.54 1396.7 Q1023.6 1394.82 1027.73 1394.82 Q1033.3 1394.82 1036.33 1398.74 Q1039.35 1402.62 1039.35 1409.82 L1039.35 1431.33 L1033.46 1431.33 L1033.46 1410.01 Q1033.46 1404.88 1031.65 1402.4 Q1029.83 1399.92 1026.11 1399.92 Q1021.56 1399.92 1018.92 1402.94 Q1016.28 1405.96 1016.28 1411.18 L1016.28 1431.33 L1010.39 1431.33 L1010.39 1410.01 Q1010.39 1404.85 1008.57 1402.4 Q1006.76 1399.92 1002.97 1399.92 Q998.483 1399.92 995.842 1402.97 Q993.2 1406 993.2 1411.18 L993.2 1431.33 L987.312 1431.33 L987.312 1395.68 L993.2 1395.68 L993.2 1401.22 Q995.205 1397.94 998.006 1396.38 Q1000.81 1394.82 1004.66 1394.82 Q1008.54 1394.82 1011.25 1396.8 Q1013.98 1398.77 1015.29 1402.53 Z" fill="#000000" fill-rule="nonzero" fill-opacity="1" /><polyline clip-path="url(#clip270)" style="stroke:#000000; stroke-linecap:round; stroke-linejoin:round; stroke-width:4; stroke-opacity:1; fill:none" points="1427.42,1350.49 1824.62,1006.5 "/>
<polyline clip-path="url(#clip270)" style="stroke:#000000; stroke-linecap:round; stroke-linejoin:round; stroke-width:4; stroke-opacity:1; fill:none" points="1427.42,1350.49 1419.17,1348.1 "/>
<polyline clip-path="url(#clip270)" style="stroke:#000000; stroke-linecap:round; stroke-linejoin:round; stroke-width:4; stroke-opacity:1; fill:none" points="1526.72,1264.49 1518.47,1262.11 "/>
<polyline clip-path="url(#clip270)" style="stroke:#000000; stroke-linecap:round; stroke-linejoin:round; stroke-width:4; stroke-opacity:1; fill:none" points="1626.02,1178.5 1617.77,1176.11 "/>
<polyline clip-path="url(#clip270)" style="stroke:#000000; stroke-linecap:round; stroke-linejoin:round; stroke-width:4; stroke-opacity:1; fill:none" points="1725.32,1092.5 1717.07,1090.12 "/>
<polyline clip-path="url(#clip270)" style="stroke:#000000; stroke-linecap:round; stroke-linejoin:round; stroke-width:4; stroke-opacity:1; fill:none" points="1824.62,1006.5 1816.37,1004.12 "/>
<path clip-path="url(#clip270)" d="M1438.87 1377.37 L1468.54 1377.37 L1468.54 1381.3 L1438.87 1381.3 L1438.87 1377.37 Z" fill="#000000" fill-rule="nonzero" fill-opacity="1" /><path clip-path="url(#clip270)" d="M1482.67 1390.26 L1498.98 1390.26 L1498.98 1394.2 L1477.04 1394.2 L1477.04 1390.26 Q1479.7 1387.51 1484.29 1382.88 Q1488.89 1378.22 1490.07 1376.88 Q1492.32 1374.36 1493.2 1372.62 Q1494.1 1370.86 1494.1 1369.17 Q1494.1 1366.42 1492.16 1364.68 Q1490.23 1362.95 1487.13 1362.95 Q1484.93 1362.95 1482.48 1363.71 Q1480.05 1364.47 1477.27 1366.03 L1477.27 1361.3 Q1480.1 1360.17 1482.55 1359.59 Q1485 1359.01 1487.04 1359.01 Q1492.41 1359.01 1495.6 1361.7 Q1498.8 1364.38 1498.8 1368.87 Q1498.8 1371 1497.99 1372.92 Q1497.2 1374.82 1495.1 1377.41 Q1494.52 1378.09 1491.41 1381.3 Q1488.31 1384.5 1482.67 1390.26 Z" fill="#000000" fill-rule="nonzero" fill-opacity="1" /><path clip-path="url(#clip270)" d="M1538.17 1291.37 L1567.84 1291.37 L1567.84 1295.31 L1538.17 1295.31 L1538.17 1291.37 Z" fill="#000000" fill-rule="nonzero" fill-opacity="1" /><path clip-path="url(#clip270)" d="M1578.75 1304.27 L1586.39 1304.27 L1586.39 1277.9 L1578.08 1279.57 L1578.08 1275.31 L1586.34 1273.64 L1591.02 1273.64 L1591.02 1304.27 L1598.65 1304.27 L1598.65 1308.2 L1578.75 1308.2 L1578.75 1304.27 Z" fill="#000000" fill-rule="nonzero" fill-opacity="1" /><path clip-path="url(#clip270)" d="M1649.41 1190.72 Q1645.8 1190.72 1643.97 1194.29 Q1642.17 1197.83 1642.17 1204.96 Q1642.17 1212.07 1643.97 1215.63 Q1645.8 1219.17 1649.41 1219.17 Q1653.05 1219.17 1654.85 1215.63 Q1656.68 1212.07 1656.68 1204.96 Q1656.68 1197.83 1654.85 1194.29 Q1653.05 1190.72 1649.41 1190.72 M1649.41 1187.02 Q1655.22 1187.02 1658.28 1191.63 Q1661.36 1196.21 1661.36 1204.96 Q1661.36 1213.69 1658.28 1218.29 Q1655.22 1222.88 1649.41 1222.88 Q1643.6 1222.88 1640.52 1218.29 Q1637.47 1213.69 1637.47 1204.96 Q1637.47 1196.21 1640.52 1191.63 Q1643.6 1187.02 1649.41 1187.02 Z" fill="#000000" fill-rule="nonzero" fill-opacity="1" /><path clip-path="url(#clip270)" d="M1737.44 1132.27 L1745.08 1132.27 L1745.08 1105.91 L1736.77 1107.57 L1736.77 1103.31 L1745.03 1101.65 L1749.71 1101.65 L1749.71 1132.27 L1757.35 1132.27 L1757.35 1136.21 L1737.44 1136.21 L1737.44 1132.27 Z" fill="#000000" fill-rule="nonzero" fill-opacity="1" /><path clip-path="url(#clip270)" d="M1841.69 1046.28 L1858.01 1046.28 L1858.01 1050.21 L1836.07 1050.21 L1836.07 1046.28 Q1838.73 1043.52 1843.31 1038.89 Q1847.92 1034.24 1849.1 1032.9 Q1851.35 1030.37 1852.22 1028.64 Q1853.13 1026.88 1853.13 1025.19 Q1853.13 1022.43 1851.18 1020.7 Q1849.26 1018.96 1846.16 1018.96 Q1843.96 1018.96 1841.51 1019.73 Q1839.08 1020.49 1836.3 1022.04 L1836.3 1017.32 Q1839.12 1016.18 1841.58 1015.61 Q1844.03 1015.03 1846.07 1015.03 Q1851.44 1015.03 1854.63 1017.71 Q1857.83 1020.4 1857.83 1024.89 Q1857.83 1027.02 1857.02 1028.94 Q1856.23 1030.84 1854.12 1033.43 Q1853.54 1034.1 1850.44 1037.32 Q1847.34 1040.51 1841.69 1046.28 Z" fill="#000000" fill-rule="nonzero" fill-opacity="1" /><path clip-path="url(#clip270)" d="M1689.18 1361.95 Q1686.7 1368.32 1684.34 1370.26 Q1681.99 1372.2 1678.04 1372.2 L1673.36 1372.2 L1673.36 1367.3 L1676.8 1367.3 Q1679.22 1367.3 1680.55 1366.15 Q1681.89 1365.01 1683.51 1360.74 L1684.56 1358.07 L1670.15 1322.99 L1676.35 1322.99 L1687.49 1350.87 L1698.63 1322.99 L1704.84 1322.99 L1689.18 1361.95 Z" fill="#000000" fill-rule="nonzero" fill-opacity="1" /><path clip-path="url(#clip270)" d="M1744.05 1311.12 L1749.46 1311.12 L1732.91 1364.69 L1727.5 1364.69 L1744.05 1311.12 Z" fill="#000000" fill-rule="nonzero" fill-opacity="1" /><path clip-path="url(#clip270)" d="M1804.08 1329.83 Q1806.28 1325.89 1809.33 1324.01 Q1812.39 1322.13 1816.53 1322.13 Q1822.1 1322.13 1825.12 1326.05 Q1828.14 1329.93 1828.14 1337.12 L1828.14 1358.64 L1822.25 1358.64 L1822.25 1337.31 Q1822.25 1332.19 1820.44 1329.71 Q1818.63 1327.22 1814.9 1327.22 Q1810.35 1327.22 1807.71 1330.25 Q1805.07 1333.27 1805.07 1338.49 L1805.07 1358.64 L1799.18 1358.64 L1799.18 1337.31 Q1799.18 1332.16 1797.36 1329.71 Q1795.55 1327.22 1791.76 1327.22 Q1787.27 1327.22 1784.63 1330.28 Q1781.99 1333.3 1781.99 1338.49 L1781.99 1358.64 L1776.1 1358.64 L1776.1 1322.99 L1781.99 1322.99 L1781.99 1328.53 Q1784 1325.25 1786.8 1323.69 Q1789.6 1322.13 1793.45 1322.13 Q1797.33 1322.13 1800.04 1324.11 Q1802.78 1326.08 1804.08 1329.83 Z" fill="#000000" fill-rule="nonzero" fill-opacity="1" /><polyline clip-path="url(#clip270)" style="stroke:#000000; stroke-linecap:round; stroke-linejoin:round; stroke-width:4; stroke-opacity:1; fill:none" points="739.457,1151.89 739.457,463.92 "/>
<polyline clip-path="url(#clip270)" style="stroke:#000000; stroke-linecap:round; stroke-linejoin:round; stroke-width:4; stroke-opacity:1; fill:none" points="739.457,1151.89 744.224,1147.76 "/>
<polyline clip-path="url(#clip270)" style="stroke:#000000; stroke-linecap:round; stroke-linejoin:round; stroke-width:4; stroke-opacity:1; fill:none" points="739.457,1037.23 744.224,1033.1 "/>
<polyline clip-path="url(#clip270)" style="stroke:#000000; stroke-linecap:round; stroke-linejoin:round; stroke-width:4; stroke-opacity:1; fill:none" points="739.457,922.566 744.224,918.438 "/>
<polyline clip-path="url(#clip270)" style="stroke:#000000; stroke-linecap:round; stroke-linejoin:round; stroke-width:4; stroke-opacity:1; fill:none" points="739.457,807.904 744.224,803.777 "/>
<polyline clip-path="url(#clip270)" style="stroke:#000000; stroke-linecap:round; stroke-linejoin:round; stroke-width:4; stroke-opacity:1; fill:none" points="739.457,693.243 744.224,689.115 "/>
<polyline clip-path="url(#clip270)" style="stroke:#000000; stroke-linecap:round; stroke-linejoin:round; stroke-width:4; stroke-opacity:1; fill:none" points="739.457,578.582 744.224,574.454 "/>
<polyline clip-path="url(#clip270)" style="stroke:#000000; stroke-linecap:round; stroke-linejoin:round; stroke-width:4; stroke-opacity:1; fill:none" points="739.457,463.92 744.224,459.793 "/>
<path clip-path="url(#clip270)" d="M649.593 1152.34 L679.268 1152.34 L679.268 1156.27 L649.593 1156.27 L649.593 1152.34 Z" fill="#000000" fill-rule="nonzero" fill-opacity="1" /><path clip-path="url(#clip270)" d="M703.528 1150.53 Q706.884 1151.25 708.759 1153.52 Q710.657 1155.79 710.657 1159.12 Q710.657 1164.24 707.139 1167.04 Q703.62 1169.84 697.139 1169.84 Q694.963 1169.84 692.648 1169.4 Q690.356 1168.98 687.903 1168.13 L687.903 1163.61 Q689.847 1164.75 692.162 1165.33 Q694.477 1165.9 697 1165.9 Q701.398 1165.9 703.69 1164.17 Q706.004 1162.43 706.004 1159.12 Q706.004 1156.07 703.852 1154.35 Q701.722 1152.62 697.903 1152.62 L693.875 1152.62 L693.875 1148.77 L698.088 1148.77 Q701.537 1148.77 703.365 1147.41 Q705.194 1146.02 705.194 1143.43 Q705.194 1140.77 703.296 1139.35 Q701.421 1137.92 697.903 1137.92 Q695.981 1137.92 693.782 1138.34 Q691.583 1138.75 688.944 1139.63 L688.944 1135.46 Q691.606 1134.72 693.921 1134.35 Q696.259 1133.98 698.319 1133.98 Q703.643 1133.98 706.745 1136.41 Q709.847 1138.82 709.847 1142.94 Q709.847 1145.81 708.203 1147.8 Q706.56 1149.77 703.528 1150.53 Z" fill="#000000" fill-rule="nonzero" fill-opacity="1" /><path clip-path="url(#clip270)" d="M650.542 1037.68 L680.217 1037.68 L680.217 1041.61 L650.542 1041.61 L650.542 1037.68 Z" fill="#000000" fill-rule="nonzero" fill-opacity="1" /><path clip-path="url(#clip270)" d="M694.338 1050.57 L710.657 1050.57 L710.657 1054.51 L688.713 1054.51 L688.713 1050.57 Q691.375 1047.82 695.958 1043.19 Q700.565 1038.53 701.745 1037.19 Q703.99 1034.67 704.87 1032.93 Q705.773 1031.17 705.773 1029.48 Q705.773 1026.73 703.828 1024.99 Q701.907 1023.26 698.805 1023.26 Q696.606 1023.26 694.153 1024.02 Q691.722 1024.78 688.944 1026.34 L688.944 1021.61 Q691.768 1020.48 694.222 1019.9 Q696.676 1019.32 698.713 1019.32 Q704.083 1019.32 707.278 1022.01 Q710.472 1024.69 710.472 1029.18 Q710.472 1031.31 709.662 1033.23 Q708.875 1035.13 706.768 1037.72 Q706.19 1038.4 703.088 1041.61 Q699.986 1044.81 694.338 1050.57 Z" fill="#000000" fill-rule="nonzero" fill-opacity="1" /><path clip-path="url(#clip270)" d="M650.171 923.017 L679.847 923.017 L679.847 926.952 L650.171 926.952 L650.171 923.017 Z" fill="#000000" fill-rule="nonzero" fill-opacity="1" /><path clip-path="url(#clip270)" d="M690.75 935.91 L698.389 935.91 L698.389 909.545 L690.079 911.212 L690.079 906.952 L698.342 905.286 L703.018 905.286 L703.018 935.91 L710.657 935.91 L710.657 939.846 L690.75 939.846 L690.75 935.91 Z" fill="#000000" fill-rule="nonzero" fill-opacity="1" /><path clip-path="url(#clip270)" d="M698.713 793.703 Q695.102 793.703 693.273 797.268 Q691.467 800.809 691.467 807.939 Q691.467 815.045 693.273 818.61 Q695.102 822.152 698.713 822.152 Q702.347 822.152 704.153 818.61 Q705.981 815.045 705.981 807.939 Q705.981 800.809 704.153 797.268 Q702.347 793.703 698.713 793.703 M698.713 789.999 Q704.523 789.999 707.578 794.606 Q710.657 799.189 710.657 807.939 Q710.657 816.666 707.578 821.272 Q704.523 825.856 698.713 825.856 Q692.903 825.856 689.824 821.272 Q686.768 816.666 686.768 807.939 Q686.768 799.189 689.824 794.606 Q692.903 789.999 698.713 789.999 Z" fill="#000000" fill-rule="nonzero" fill-opacity="1" /><path clip-path="url(#clip270)" d="M690.75 706.588 L698.389 706.588 L698.389 680.222 L690.079 681.889 L690.079 677.63 L698.342 675.963 L703.018 675.963 L703.018 706.588 L710.657 706.588 L710.657 710.523 L690.75 710.523 L690.75 706.588 Z" fill="#000000" fill-rule="nonzero" fill-opacity="1" /><path clip-path="url(#clip270)" d="M694.338 591.927 L710.657 591.927 L710.657 595.862 L688.713 595.862 L688.713 591.927 Q691.375 589.172 695.958 584.542 Q700.565 579.89 701.745 578.547 Q703.99 576.024 704.87 574.288 Q705.773 572.528 705.773 570.839 Q705.773 568.084 703.828 566.348 Q701.907 564.612 698.805 564.612 Q696.606 564.612 694.153 565.376 Q691.722 566.14 688.944 567.691 L688.944 562.968 Q691.768 561.834 694.222 561.255 Q696.676 560.677 698.713 560.677 Q704.083 560.677 707.278 563.362 Q710.472 566.047 710.472 570.538 Q710.472 572.667 709.662 574.589 Q708.875 576.487 706.768 579.079 Q706.19 579.751 703.088 582.968 Q699.986 586.163 694.338 591.927 Z" fill="#000000" fill-rule="nonzero" fill-opacity="1" /><path clip-path="url(#clip270)" d="M703.528 462.566 Q706.884 463.284 708.759 465.552 Q710.657 467.821 710.657 471.154 Q710.657 476.27 707.139 479.071 Q703.62 481.872 697.139 481.872 Q694.963 481.872 692.648 481.432 Q690.356 481.015 687.903 480.159 L687.903 475.645 Q689.847 476.779 692.162 477.358 Q694.477 477.937 697 477.937 Q701.398 477.937 703.69 476.2 Q706.004 474.464 706.004 471.154 Q706.004 468.099 703.852 466.386 Q701.722 464.65 697.903 464.65 L693.875 464.65 L693.875 460.807 L698.088 460.807 Q701.537 460.807 703.365 459.441 Q705.194 458.052 705.194 455.46 Q705.194 452.798 703.296 451.386 Q701.421 449.951 697.903 449.951 Q695.981 449.951 693.782 450.367 Q691.583 450.784 688.944 451.664 L688.944 447.497 Q691.606 446.756 693.921 446.386 Q696.259 446.015 698.319 446.015 Q703.643 446.015 706.745 448.446 Q709.847 450.853 709.847 454.974 Q709.847 457.844 708.203 459.835 Q706.56 461.802 703.528 462.566 Z" fill="#000000" fill-rule="nonzero" fill-opacity="1" /><path clip-path="url(#clip270)" d="M556.489 883.497 L556.489 855.679 L561.836 855.679 L587.458 877.704 L587.458 855.679 L592.137 855.679 L592.137 884.293 L586.789 884.293 L561.167 862.267 L561.167 883.497 L556.489 883.497 Z" fill="#000000" fill-rule="nonzero" fill-opacity="1" /><path clip-path="url(#clip270)" d="M544.617 815.607 L544.617 810.196 L598.184 826.747 L598.184 832.158 L544.617 815.607 Z" fill="#000000" fill-rule="nonzero" fill-opacity="1" /><path clip-path="url(#clip270)" d="M563.332 755.578 Q559.385 753.382 557.507 750.327 Q555.629 747.271 555.629 743.133 Q555.629 737.563 559.544 734.54 Q563.427 731.516 570.621 731.516 L592.137 731.516 L592.137 737.404 L570.812 737.404 Q565.687 737.404 563.204 739.218 Q560.722 741.033 560.722 744.757 Q560.722 749.308 563.746 751.95 Q566.769 754.592 571.989 754.592 L592.137 754.592 L592.137 760.48 L570.812 760.48 Q565.655 760.48 563.204 762.294 Q560.722 764.108 560.722 767.896 Q560.722 772.384 563.777 775.025 Q566.801 777.667 571.989 777.667 L592.137 777.667 L592.137 783.555 L556.489 783.555 L556.489 777.667 L562.027 777.667 Q558.749 775.662 557.189 772.861 Q555.629 770.06 555.629 766.209 Q555.629 762.326 557.603 759.62 Q559.576 756.883 563.332 755.578 Z" fill="#000000" fill-rule="nonzero" fill-opacity="1" /><path clip-path="url(#clip272)" d="M739.457 1151.89 L1427.42 1350.49 L1824.62 1006.5 L1136.66 807.904 Z" fill="#009afa" fill-rule="evenodd" fill-opacity="0.501961" stroke="#000000" stroke-opacity="0.501961" stroke-linejoin="round" stroke-width="0" /><path clip-path="url(#clip272)" d="M739.457 1151.89 L1427.42 1350.49 Z" fill="#009afa" fill-rule="evenodd" fill-opacity="1" stroke="#000000" stroke-opacity="1" stroke-linejoin="round" stroke-width="3.2" /><path clip-path="url(#clip272)" d="M1427.42 1350.49 L1824.62 1006.5 Z" fill="#009afa" fill-rule="evenodd" fill-opacity="1" stroke="#000000" stroke-opacity="1" stroke-linejoin="round" stroke-width="3.2" /><path clip-path="url(#clip272)" d="M1136.66 807.904 L739.457 1151.89 Z" fill="#009afa" fill-rule="evenodd" fill-opacity="1" stroke="#000000" stroke-opacity="1" stroke-linejoin="round" stroke-width="3.2" /><path clip-path="url(#clip272)" d="M1824.62 1006.5 L1136.66 807.904 Z" fill="#009afa" fill-rule="evenodd" fill-opacity="1" stroke="#000000" stroke-opacity="1" stroke-linejoin="round" stroke-width="3.2" /><path clip-path="url(#clip272)" d="M739.457 463.92 L1427.42 662.52 L1427.42 1350.49 L739.457 1151.89 Z" fill="#009afa" fill-rule="evenodd" fill-opacity="0.501961" stroke="#000000" stroke-opacity="0.501961" stroke-linejoin="round" stroke-width="0" /><path clip-path="url(#clip272)" d="M739.457 463.92 L1427.42 662.52 Z" fill="#009afa" fill-rule="evenodd" fill-opacity="1" stroke="#000000" stroke-opacity="1" stroke-linejoin="round" stroke-width="3.2" /><path clip-path="url(#clip272)" d="M1427.42 662.52 L1427.42 1350.49 Z" fill="#009afa" fill-rule="evenodd" fill-opacity="1" stroke="#000000" stroke-opacity="1" stroke-linejoin="round" stroke-width="3.2" /><path clip-path="url(#clip272)" d="M739.457 1151.89 L739.457 463.92 Z" fill="#009afa" fill-rule="evenodd" fill-opacity="1" stroke="#000000" stroke-opacity="1" stroke-linejoin="round" stroke-width="3.2" /><path clip-path="url(#clip272)" d="M1427.42 1350.49 L739.457 1151.89 Z" fill="#009afa" fill-rule="evenodd" fill-opacity="1" stroke="#000000" stroke-opacity="1" stroke-linejoin="round" stroke-width="3.2" /><path clip-path="url(#clip272)" d="M1136.66 119.936 L1824.62 318.536 L1427.42 662.52 L739.457 463.92 Z" fill="#009afa" fill-rule="evenodd" fill-opacity="0.501961" stroke="#000000" stroke-opacity="0.501961" stroke-linejoin="round" stroke-width="0" /><path clip-path="url(#clip272)" d="M1427.42 662.52 L739.457 463.92 Z" fill="#009afa" fill-rule="evenodd" fill-opacity="1" stroke="#000000" stroke-opacity="1" stroke-linejoin="round" stroke-width="3.2" /><path clip-path="url(#clip272)" d="M1824.62 318.536 L1427.42 662.52 Z" fill="#009afa" fill-rule="evenodd" fill-opacity="1" stroke="#000000" stroke-opacity="1" stroke-linejoin="round" stroke-width="3.2" /><path clip-path="url(#clip272)" d="M739.457 463.92 L1136.66 119.936 Z" fill="#009afa" fill-rule="evenodd" fill-opacity="1" stroke="#000000" stroke-opacity="1" stroke-linejoin="round" stroke-width="3.2" /><path clip-path="url(#clip272)" d="M1136.66 119.936 L1824.62 318.536 Z" fill="#009afa" fill-rule="evenodd" fill-opacity="1" stroke="#000000" stroke-opacity="1" stroke-linejoin="round" stroke-width="3.2" /><path clip-path="url(#clip272)" d="M1427.42 662.52 L1824.62 318.536 L1824.62 1006.5 L1427.42 1350.49 Z" fill="#009afa" fill-rule="evenodd" fill-opacity="0.501961" stroke="#000000" stroke-opacity="0.501961" stroke-linejoin="round" stroke-width="0" /><path clip-path="url(#clip272)" d="M1427.42 1350.49 L1427.42 662.52 Z" fill="#009afa" fill-rule="evenodd" fill-opacity="1" stroke="#000000" stroke-opacity="1" stroke-linejoin="round" stroke-width="3.2" /><path clip-path="url(#clip272)" d="M1427.42 662.52 L1824.62 318.536 Z" fill="#009afa" fill-rule="evenodd" fill-opacity="1" stroke="#000000" stroke-opacity="1" stroke-linejoin="round" stroke-width="3.2" /><path clip-path="url(#clip272)" d="M1824.62 1006.5 L1427.42 1350.49 Z" fill="#009afa" fill-rule="evenodd" fill-opacity="1" stroke="#000000" stroke-opacity="1" stroke-linejoin="round" stroke-width="3.2" /><path clip-path="url(#clip272)" d="M1824.62 318.536 L1824.62 1006.5 Z" fill="#009afa" fill-rule="evenodd" fill-opacity="1" stroke="#000000" stroke-opacity="1" stroke-linejoin="round" stroke-width="3.2" /><path clip-path="url(#clip272)" d="M1824.62 318.536 L1136.66 119.936 L1136.66 807.904 L1824.62 1006.5 Z" fill="#009afa" fill-rule="evenodd" fill-opacity="0.501961" stroke="#000000" stroke-opacity="0.501961" stroke-linejoin="round" stroke-width="0" /><path clip-path="url(#clip272)" d="M1824.62 318.536 L1136.66 119.936 Z" fill="#009afa" fill-rule="evenodd" fill-opacity="1" stroke="#000000" stroke-opacity="1" stroke-linejoin="round" stroke-width="3.2" /><path clip-path="url(#clip272)" d="M1824.62 1006.5 L1824.62 318.536 Z" fill="#009afa" fill-rule="evenodd" fill-opacity="1" stroke="#000000" stroke-opacity="1" stroke-linejoin="round" stroke-width="3.2" /><path clip-path="url(#clip272)" d="M1136.66 119.936 L1136.66 807.904 Z" fill="#009afa" fill-rule="evenodd" fill-opacity="1" stroke="#000000" stroke-opacity="1" stroke-linejoin="round" stroke-width="3.2" /><path clip-path="url(#clip272)" d="M1136.66 807.904 L1824.62 1006.5 Z" fill="#009afa" fill-rule="evenodd" fill-opacity="1" stroke="#000000" stroke-opacity="1" stroke-linejoin="round" stroke-width="3.2" /><path clip-path="url(#clip272)" d="M1136.66 119.936 L739.457 463.92 L739.457 1151.89 L1136.66 807.904 Z" fill="#009afa" fill-rule="evenodd" fill-opacity="0.501961" stroke="#000000" stroke-opacity="0.501961" stroke-linejoin="round" stroke-width="0" /><path clip-path="url(#clip272)" d="M739.457 463.92 L739.457 1151.89 Z" fill="#009afa" fill-rule="evenodd" fill-opacity="1" stroke="#000000" stroke-opacity="1" stroke-linejoin="round" stroke-width="3.2" /><path clip-path="url(#clip272)" d="M1136.66 119.936 L739.457 463.92 Z" fill="#009afa" fill-rule="evenodd" fill-opacity="1" stroke="#000000" stroke-opacity="1" stroke-linejoin="round" stroke-width="3.2" /><path clip-path="url(#clip272)" d="M739.457 1151.89 L1136.66 807.904 Z" fill="#009afa" fill-rule="evenodd" fill-opacity="1" stroke="#000000" stroke-opacity="1" stroke-linejoin="round" stroke-width="3.2" /><path clip-path="url(#clip272)" d="M1136.66 807.904 L1136.66 119.936 Z" fill="#009afa" fill-rule="evenodd" fill-opacity="1" stroke="#000000" stroke-opacity="1" stroke-linejoin="round" stroke-width="3.2" /><path clip-path="url(#clip270)" d="M1985.31 196.789 L2281.37 196.789 L2281.37 93.1086 L1985.31 93.1086  Z" fill="#ffffff" fill-rule="evenodd" fill-opacity="1"/>
<polyline clip-path="url(#clip270)" style="stroke:#000000; stroke-linecap:round; stroke-linejoin:round; stroke-width:4; stroke-opacity:1; fill:none" points="1985.31,196.789 2281.37,196.789 2281.37,93.1086 1985.31,93.1086 1985.31,196.789 "/>
<path clip-path="url(#clip270)" d="M2180.34 145.724 L2180.34 158.386 L2187.84 158.386 Q2191.61 158.386 2193.41 156.835 Q2195.24 155.261 2195.24 152.043 Q2195.24 148.803 2193.41 147.275 Q2191.61 145.724 2187.84 145.724 L2180.34 145.724 M2180.34 131.511 L2180.34 141.928 L2187.26 141.928 Q2190.68 141.928 2192.35 140.655 Q2194.04 139.358 2194.04 136.719 Q2194.04 134.104 2192.35 132.807 Q2190.68 131.511 2187.26 131.511 L2180.34 131.511 M2175.66 127.669 L2187.6 127.669 Q2192.95 127.669 2195.85 129.891 Q2198.74 132.113 2198.74 136.21 Q2198.74 139.382 2197.26 141.257 Q2195.78 143.131 2192.91 143.594 Q2196.35 144.335 2198.25 146.696 Q2200.17 149.034 2200.17 152.553 Q2200.17 157.182 2197.03 159.705 Q2193.88 162.229 2188.07 162.229 L2175.66 162.229 L2175.66 127.669 Z" fill="#000000" fill-rule="nonzero" fill-opacity="1" /><path clip-path="url(#clip270)" d="M2218.04 139.289 Q2214.62 139.289 2212.63 141.974 Q2210.64 144.636 2210.64 149.289 Q2210.64 153.942 2212.6 156.627 Q2214.6 159.289 2218.04 159.289 Q2221.45 159.289 2223.44 156.604 Q2225.43 153.918 2225.43 149.289 Q2225.43 144.682 2223.44 141.997 Q2221.45 139.289 2218.04 139.289 M2218.04 135.678 Q2223.6 135.678 2226.77 139.289 Q2229.94 142.9 2229.94 149.289 Q2229.94 155.655 2226.77 159.289 Q2223.6 162.9 2218.04 162.9 Q2212.47 162.9 2209.29 159.289 Q2206.15 155.655 2206.15 149.289 Q2206.15 142.9 2209.29 139.289 Q2212.47 135.678 2218.04 135.678 Z" fill="#000000" fill-rule="nonzero" fill-opacity="1" /><path clip-path="url(#clip270)" d="M2257.1 136.303 L2247.72 148.919 L2257.58 162.229 L2252.56 162.229 L2245.01 152.043 L2237.47 162.229 L2232.44 162.229 L2242.51 148.664 L2233.3 136.303 L2238.32 136.303 L2245.2 145.539 L2252.07 136.303 L2257.1 136.303 Z" fill="#000000" fill-rule="nonzero" fill-opacity="1" /></svg>
