<?xml version="1.0" encoding="utf-8"?>
<svg xmlns="http://www.w3.org/2000/svg" xmlns:xlink="http://www.w3.org/1999/xlink" width="600" height="400" viewBox="0 0 2400 1600">
<defs>
  <clipPath id="clip490">
    <rect x="0" y="0" width="2400" height="1600"/>
  </clipPath>
</defs>
<path clip-path="url(#clip490)" d="M0 1600 L2400 1600 L2400 0 L0 0  Z" fill="#ffffff" fill-rule="evenodd" fill-opacity="1"/>
<defs>
  <clipPath id="clip491">
    <rect x="480" y="0" width="1681" height="1600"/>
  </clipPath>
</defs>
<path clip-path="url(#clip490)" d="M488.943 1392.94 L2352.76 1392.94 L2352.76 47.2441 L488.943 47.2441  Z" fill="#ffffff" fill-rule="evenodd" fill-opacity="1"/>
<defs>
  <clipPath id="clip492">
    <rect x="488" y="47" width="1865" height="1347"/>
  </clipPath>
</defs>
<polyline clip-path="url(#clip492)" style="stroke:#000000; stroke-linecap:round; stroke-linejoin:round; stroke-width:2; stroke-opacity:0.1; fill:none" points="488.943,1392.94 488.943,47.2441 "/>
<polyline clip-path="url(#clip492)" style="stroke:#000000; stroke-linecap:round; stroke-linejoin:round; stroke-width:2; stroke-opacity:0.1; fill:none" points="912.537,1392.94 912.537,47.2441 "/>
<polyline clip-path="url(#clip492)" style="stroke:#000000; stroke-linecap:round; stroke-linejoin:round; stroke-width:2; stroke-opacity:0.1; fill:none" points="1336.13,1392.94 1336.13,47.2441 "/>
<polyline clip-path="url(#clip492)" style="stroke:#000000; stroke-linecap:round; stroke-linejoin:round; stroke-width:2; stroke-opacity:0.1; fill:none" points="1759.72,1392.94 1759.72,47.2441 "/>
<polyline clip-path="url(#clip492)" style="stroke:#000000; stroke-linecap:round; stroke-linejoin:round; stroke-width:2; stroke-opacity:0.1; fill:none" points="2183.32,1392.94 2183.32,47.2441 "/>
<polyline clip-path="url(#clip490)" style="stroke:#000000; stroke-linecap:round; stroke-linejoin:round; stroke-width:4; stroke-opacity:1; fill:none" points="488.943,1392.94 2352.76,1392.94 "/>
<polyline clip-path="url(#clip490)" style="stroke:#000000; stroke-linecap:round; stroke-linejoin:round; stroke-width:4; stroke-opacity:1; fill:none" points="488.943,1392.94 488.943,1374.04 "/>
<polyline clip-path="url(#clip490)" style="stroke:#000000; stroke-linecap:round; stroke-linejoin:round; stroke-width:4; stroke-opacity:1; fill:none" points="912.537,1392.94 912.537,1374.04 "/>
<polyline clip-path="url(#clip490)" style="stroke:#000000; stroke-linecap:round; stroke-linejoin:round; stroke-width:4; stroke-opacity:1; fill:none" points="1336.13,1392.94 1336.13,1374.04 "/>
<polyline clip-path="url(#clip490)" style="stroke:#000000; stroke-linecap:round; stroke-linejoin:round; stroke-width:4; stroke-opacity:1; fill:none" points="1759.72,1392.94 1759.72,1374.04 "/>
<polyline clip-path="url(#clip490)" style="stroke:#000000; stroke-linecap:round; stroke-linejoin:round; stroke-width:4; stroke-opacity:1; fill:none" points="2183.32,1392.94 2183.32,1374.04 "/>
<path clip-path="url(#clip490)" d="M488.943 1429.72 Q483.527 1429.72 480.784 1435.07 Q478.075 1440.38 478.075 1451.07 Q478.075 1461.73 480.784 1467.08 Q483.527 1472.39 488.943 1472.39 Q494.395 1472.39 497.103 1467.08 Q499.846 1461.73 499.846 1451.07 Q499.846 1440.38 497.103 1435.07 Q494.395 1429.72 488.943 1429.72 M488.943 1424.16 Q497.658 1424.16 502.242 1431.07 Q506.86 1437.95 506.86 1451.07 Q506.86 1464.16 502.242 1471.07 Q497.658 1477.95 488.943 1477.95 Q480.228 1477.95 475.61 1471.07 Q471.027 1464.16 471.027 1451.07 Q471.027 1437.95 475.61 1431.07 Q480.228 1424.16 488.943 1424.16 Z" fill="#000000" fill-rule="nonzero" fill-opacity="1" /><path clip-path="url(#clip490)" d="M858.076 1471.04 L882.555 1471.04 L882.555 1476.94 L849.638 1476.94 L849.638 1471.04 Q853.631 1466.91 860.506 1459.96 Q867.416 1452.98 869.187 1450.97 Q872.555 1447.18 873.874 1444.58 Q875.228 1441.94 875.228 1439.41 Q875.228 1435.27 872.312 1432.67 Q869.43 1430.07 864.777 1430.07 Q861.478 1430.07 857.798 1431.21 Q854.152 1432.36 849.985 1434.68 L849.985 1427.6 Q854.221 1425.9 857.902 1425.03 Q861.582 1424.16 864.638 1424.16 Q872.693 1424.16 877.485 1428.19 Q882.277 1432.22 882.277 1438.95 Q882.277 1442.15 881.062 1445.03 Q879.881 1447.88 876.721 1451.77 Q875.853 1452.77 871.2 1457.6 Q866.548 1462.39 858.076 1471.04 Z" fill="#000000" fill-rule="nonzero" fill-opacity="1" /><path clip-path="url(#clip490)" d="M897.346 1425.1 L924.881 1425.1 L924.881 1431 L903.77 1431 L903.77 1443.71 Q905.297 1443.19 906.825 1442.95 Q908.353 1442.67 909.881 1442.67 Q918.561 1442.67 923.631 1447.43 Q928.7 1452.18 928.7 1460.31 Q928.7 1468.68 923.492 1473.33 Q918.284 1477.95 908.804 1477.95 Q905.541 1477.95 902.138 1477.39 Q898.77 1476.84 895.159 1475.72 L895.159 1468.68 Q898.284 1470.38 901.617 1471.21 Q904.95 1472.04 908.666 1472.04 Q914.672 1472.04 918.179 1468.88 Q921.686 1465.72 921.686 1460.31 Q921.686 1454.89 918.179 1451.73 Q914.672 1448.57 908.666 1448.57 Q905.853 1448.57 903.041 1449.2 Q900.263 1449.82 897.346 1451.14 L897.346 1425.1 Z" fill="#000000" fill-rule="nonzero" fill-opacity="1" /><path clip-path="url(#clip490)" d="M957.519 1429.72 Q952.103 1429.72 949.36 1435.07 Q946.651 1440.38 946.651 1451.07 Q946.651 1461.73 949.36 1467.08 Q952.103 1472.39 957.519 1472.39 Q962.971 1472.39 965.679 1467.08 Q968.422 1461.73 968.422 1451.07 Q968.422 1440.38 965.679 1435.07 Q962.971 1429.72 957.519 1429.72 M957.519 1424.16 Q966.235 1424.16 970.818 1431.07 Q975.436 1437.95 975.436 1451.07 Q975.436 1464.16 970.818 1471.07 Q966.235 1477.95 957.519 1477.95 Q948.804 1477.95 944.186 1471.07 Q939.603 1464.16 939.603 1451.07 Q939.603 1437.95 944.186 1431.07 Q948.804 1424.16 957.519 1424.16 Z" fill="#000000" fill-rule="nonzero" fill-opacity="1" /><path clip-path="url(#clip490)" d="M1275.56 1425.1 L1303.09 1425.1 L1303.09 1431 L1281.98 1431 L1281.98 1443.71 Q1283.51 1443.19 1285.04 1442.95 Q1286.57 1442.67 1288.09 1442.67 Q1296.77 1442.67 1301.84 1447.43 Q1306.91 1452.18 1306.91 1460.31 Q1306.91 1468.68 1301.7 1473.33 Q1296.5 1477.95 1287.02 1477.95 Q1283.75 1477.95 1280.35 1477.39 Q1276.98 1476.84 1273.37 1475.72 L1273.37 1468.68 Q1276.5 1470.38 1279.83 1471.21 Q1283.16 1472.04 1286.88 1472.04 Q1292.88 1472.04 1296.39 1468.88 Q1299.9 1465.72 1299.9 1460.31 Q1299.9 1454.89 1296.39 1451.73 Q1292.88 1448.57 1286.88 1448.57 Q1284.07 1448.57 1281.25 1449.2 Q1278.47 1449.82 1275.56 1451.14 L1275.56 1425.1 Z" fill="#000000" fill-rule="nonzero" fill-opacity="1" /><path clip-path="url(#clip490)" d="M1335.73 1429.72 Q1330.31 1429.72 1327.57 1435.07 Q1324.86 1440.38 1324.86 1451.07 Q1324.86 1461.73 1327.57 1467.08 Q1330.31 1472.39 1335.73 1472.39 Q1341.18 1472.39 1343.89 1467.08 Q1346.63 1461.73 1346.63 1451.07 Q1346.63 1440.38 1343.89 1435.07 Q1341.18 1429.72 1335.73 1429.72 M1335.73 1424.16 Q1344.45 1424.16 1349.03 1431.07 Q1353.65 1437.95 1353.65 1451.07 Q1353.65 1464.16 1349.03 1471.07 Q1344.45 1477.95 1335.73 1477.95 Q1327.02 1477.95 1322.4 1471.07 Q1317.81 1464.16 1317.81 1451.07 Q1317.81 1437.95 1322.4 1431.07 Q1327.02 1424.16 1335.73 1424.16 Z" fill="#000000" fill-rule="nonzero" fill-opacity="1" /><path clip-path="url(#clip490)" d="M1380.97 1429.72 Q1375.56 1429.72 1372.81 1435.07 Q1370.11 1440.38 1370.11 1451.07 Q1370.11 1461.73 1372.81 1467.08 Q1375.56 1472.39 1380.97 1472.39 Q1386.43 1472.39 1389.13 1467.08 Q1391.88 1461.73 1391.88 1451.07 Q1391.88 1440.38 1389.13 1435.07 Q1386.43 1429.72 1380.97 1429.72 M1380.97 1424.16 Q1389.69 1424.16 1394.27 1431.07 Q1398.89 1437.95 1398.89 1451.07 Q1398.89 1464.16 1394.27 1471.07 Q1389.69 1477.95 1380.97 1477.95 Q1372.26 1477.95 1367.64 1471.07 Q1363.06 1464.16 1363.06 1451.07 Q1363.06 1437.95 1367.64 1431.07 Q1372.26 1424.16 1380.97 1424.16 Z" fill="#000000" fill-rule="nonzero" fill-opacity="1" /><path clip-path="url(#clip490)" d="M1697.14 1425.1 L1730.47 1425.1 L1730.47 1428.09 L1711.65 1476.94 L1704.33 1476.94 L1722.03 1431 L1697.14 1431 L1697.14 1425.1 Z" fill="#000000" fill-rule="nonzero" fill-opacity="1" /><path clip-path="url(#clip490)" d="M1744.22 1425.1 L1771.76 1425.1 L1771.76 1431 L1750.64 1431 L1750.64 1443.71 Q1752.17 1443.19 1753.7 1442.95 Q1755.23 1442.67 1756.76 1442.67 Q1765.44 1442.67 1770.51 1447.43 Q1775.58 1452.18 1775.58 1460.31 Q1775.58 1468.68 1770.37 1473.33 Q1765.16 1477.95 1755.68 1477.95 Q1752.42 1477.95 1749.01 1477.39 Q1745.64 1476.84 1742.03 1475.72 L1742.03 1468.68 Q1745.16 1470.38 1748.49 1471.21 Q1751.83 1472.04 1755.54 1472.04 Q1761.55 1472.04 1765.05 1468.88 Q1768.56 1465.72 1768.56 1460.31 Q1768.56 1454.89 1765.05 1451.73 Q1761.55 1448.57 1755.54 1448.57 Q1752.73 1448.57 1749.92 1449.2 Q1747.14 1449.82 1744.22 1451.14 L1744.22 1425.1 Z" fill="#000000" fill-rule="nonzero" fill-opacity="1" /><path clip-path="url(#clip490)" d="M1804.39 1429.72 Q1798.98 1429.72 1796.23 1435.07 Q1793.53 1440.38 1793.53 1451.07 Q1793.53 1461.73 1796.23 1467.08 Q1798.98 1472.39 1804.39 1472.39 Q1809.85 1472.39 1812.55 1467.08 Q1815.3 1461.73 1815.3 1451.07 Q1815.3 1440.38 1812.55 1435.07 Q1809.85 1429.72 1804.39 1429.72 M1804.39 1424.16 Q1813.11 1424.16 1817.69 1431.07 Q1822.31 1437.95 1822.31 1451.07 Q1822.31 1464.16 1817.69 1471.07 Q1813.11 1477.95 1804.39 1477.95 Q1795.68 1477.95 1791.06 1471.07 Q1786.48 1464.16 1786.48 1451.07 Q1786.48 1437.95 1791.06 1431.07 Q1795.68 1424.16 1804.39 1424.16 Z" fill="#000000" fill-rule="nonzero" fill-opacity="1" /><path clip-path="url(#clip490)" d="M2100.11 1471.04 L2111.57 1471.04 L2111.57 1431.49 L2099.1 1433.99 L2099.1 1427.6 L2111.5 1425.1 L2118.51 1425.1 L2118.51 1471.04 L2129.97 1471.04 L2129.97 1476.94 L2100.11 1476.94 L2100.11 1471.04 Z" fill="#000000" fill-rule="nonzero" fill-opacity="1" /><path clip-path="url(#clip490)" d="M2159.13 1429.72 Q2153.72 1429.72 2150.97 1435.07 Q2148.27 1440.38 2148.27 1451.07 Q2148.27 1461.73 2150.97 1467.08 Q2153.72 1472.39 2159.13 1472.39 Q2164.59 1472.39 2167.29 1467.08 Q2170.04 1461.73 2170.04 1451.07 Q2170.04 1440.38 2167.29 1435.07 Q2164.59 1429.72 2159.13 1429.72 M2159.13 1424.16 Q2167.85 1424.16 2172.43 1431.07 Q2177.05 1437.95 2177.05 1451.07 Q2177.05 1464.16 2172.43 1471.07 Q2167.85 1477.95 2159.13 1477.95 Q2150.42 1477.95 2145.8 1471.07 Q2141.22 1464.16 2141.22 1451.07 Q2141.22 1437.95 2145.8 1431.07 Q2150.42 1424.16 2159.13 1424.16 Z" fill="#000000" fill-rule="nonzero" fill-opacity="1" /><path clip-path="url(#clip490)" d="M2204.38 1429.72 Q2198.96 1429.72 2196.22 1435.07 Q2193.51 1440.38 2193.51 1451.07 Q2193.51 1461.73 2196.22 1467.08 Q2198.96 1472.39 2204.38 1472.39 Q2209.83 1472.39 2212.54 1467.08 Q2215.28 1461.73 2215.28 1451.07 Q2215.28 1440.38 2212.54 1435.07 Q2209.83 1429.72 2204.38 1429.72 M2204.38 1424.16 Q2213.09 1424.16 2217.68 1431.07 Q2222.29 1437.95 2222.29 1451.07 Q2222.29 1464.16 2217.68 1471.07 Q2213.09 1477.95 2204.38 1477.95 Q2195.66 1477.95 2191.04 1471.07 Q2186.46 1464.16 2186.46 1451.07 Q2186.46 1437.95 2191.04 1431.07 Q2195.66 1424.16 2204.38 1424.16 Z" fill="#000000" fill-rule="nonzero" fill-opacity="1" /><path clip-path="url(#clip490)" d="M2249.62 1429.72 Q2244.2 1429.72 2241.46 1435.07 Q2238.75 1440.38 2238.75 1451.07 Q2238.75 1461.73 2241.46 1467.08 Q2244.2 1472.39 2249.62 1472.39 Q2255.07 1472.39 2257.78 1467.08 Q2260.52 1461.73 2260.52 1451.07 Q2260.52 1440.38 2257.78 1435.07 Q2255.07 1429.72 2249.62 1429.72 M2249.62 1424.16 Q2258.34 1424.16 2262.92 1431.07 Q2267.54 1437.95 2267.54 1451.07 Q2267.54 1464.16 2262.92 1471.07 Q2258.34 1477.95 2249.62 1477.95 Q2240.9 1477.95 2236.29 1471.07 Q2231.7 1464.16 2231.7 1451.07 Q2231.7 1437.95 2236.29 1431.07 Q2240.9 1424.16 2249.62 1424.16 Z" fill="#000000" fill-rule="nonzero" fill-opacity="1" /><path clip-path="url(#clip490)" d="M1232.99 1518.8 L1284.15 1518.8 L1284.15 1525.68 L1262.68 1525.68 L1262.68 1579.28 L1254.46 1579.28 L1254.46 1525.68 L1232.99 1525.68 L1232.99 1518.8 Z" fill="#000000" fill-rule="nonzero" fill-opacity="1" /><path clip-path="url(#clip490)" d="M1289.17 1533.91 L1296.63 1533.91 L1296.63 1579.28 L1289.17 1579.28 L1289.17 1533.91 M1289.17 1516.24 L1296.63 1516.24 L1296.63 1525.68 L1289.17 1525.68 L1289.17 1516.24 Z" fill="#000000" fill-rule="nonzero" fill-opacity="1" /><path clip-path="url(#clip490)" d="M1347.55 1542.62 Q1350.34 1537.59 1354.23 1535.2 Q1358.12 1532.81 1363.39 1532.81 Q1370.48 1532.81 1374.32 1537.79 Q1378.17 1542.74 1378.17 1551.89 L1378.17 1579.28 L1370.68 1579.28 L1370.68 1552.13 Q1370.68 1545.61 1368.37 1542.45 Q1366.06 1539.29 1361.32 1539.29 Q1355.53 1539.29 1352.17 1543.14 Q1348.8 1546.99 1348.8 1553.63 L1348.8 1579.28 L1341.31 1579.28 L1341.31 1552.13 Q1341.31 1545.57 1339 1542.45 Q1336.69 1539.29 1331.87 1539.29 Q1326.16 1539.29 1322.8 1543.18 Q1319.44 1547.03 1319.44 1553.63 L1319.44 1579.28 L1311.94 1579.28 L1311.94 1533.91 L1319.44 1533.91 L1319.44 1540.95 Q1321.99 1536.78 1325.55 1534.8 Q1329.12 1532.81 1334.02 1532.81 Q1338.96 1532.81 1342.4 1535.32 Q1345.89 1537.84 1347.55 1542.62 Z" fill="#000000" fill-rule="nonzero" fill-opacity="1" /><path clip-path="url(#clip490)" d="M1431.85 1554.73 L1431.85 1558.37 L1397.58 1558.37 Q1398.06 1566.07 1402.2 1570.12 Q1406.37 1574.13 1413.78 1574.13 Q1418.07 1574.13 1422.09 1573.08 Q1426.14 1572.02 1430.11 1569.92 L1430.11 1576.97 Q1426.1 1578.67 1421.88 1579.56 Q1417.67 1580.45 1413.34 1580.45 Q1402.48 1580.45 1396.12 1574.13 Q1389.8 1567.81 1389.8 1557.04 Q1389.8 1545.9 1395.79 1539.37 Q1401.83 1532.81 1412.04 1532.81 Q1421.19 1532.81 1426.5 1538.73 Q1431.85 1544.6 1431.85 1554.73 M1424.39 1552.54 Q1424.31 1546.42 1420.95 1542.78 Q1417.63 1539.13 1412.12 1539.13 Q1405.88 1539.13 1402.11 1542.66 Q1398.39 1546.18 1397.82 1552.58 L1424.39 1552.54 Z" fill="#000000" fill-rule="nonzero" fill-opacity="1" /><path clip-path="url(#clip490)" d="M1483.7 1518.8 L1490.59 1518.8 L1469.52 1586.97 L1462.63 1586.97 L1483.7 1518.8 Z" fill="#000000" fill-rule="nonzero" fill-opacity="1" /><path clip-path="url(#clip490)" d="M1562.49 1551.89 L1562.49 1579.28 L1555.04 1579.28 L1555.04 1552.13 Q1555.04 1545.69 1552.52 1542.49 Q1550.01 1539.29 1544.99 1539.29 Q1538.95 1539.29 1535.47 1543.14 Q1531.99 1546.99 1531.99 1553.63 L1531.99 1579.28 L1524.49 1579.28 L1524.49 1533.91 L1531.99 1533.91 L1531.99 1540.95 Q1534.66 1536.86 1538.27 1534.84 Q1541.91 1532.81 1546.65 1532.81 Q1554.47 1532.81 1558.48 1537.67 Q1562.49 1542.49 1562.49 1551.89 Z" fill="#000000" fill-rule="nonzero" fill-opacity="1" /><path clip-path="url(#clip490)" d="M1606.28 1535.24 L1606.28 1542.29 Q1603.12 1540.67 1599.72 1539.86 Q1596.31 1539.05 1592.67 1539.05 Q1587.12 1539.05 1584.32 1540.75 Q1581.57 1542.45 1581.57 1545.86 Q1581.57 1548.45 1583.55 1549.95 Q1585.54 1551.41 1591.53 1552.74 L1594.09 1553.31 Q1602.03 1555.01 1605.35 1558.13 Q1608.71 1561.21 1608.71 1566.76 Q1608.71 1573.08 1603.69 1576.76 Q1598.7 1580.45 1589.95 1580.45 Q1586.31 1580.45 1582.34 1579.72 Q1578.41 1579.03 1574.03 1577.61 L1574.03 1569.92 Q1578.17 1572.07 1582.18 1573.16 Q1586.19 1574.21 1590.12 1574.21 Q1595.38 1574.21 1598.22 1572.43 Q1601.05 1570.61 1601.05 1567.33 Q1601.05 1564.29 1598.99 1562.67 Q1596.96 1561.05 1590.04 1559.55 L1587.44 1558.94 Q1580.52 1557.48 1577.44 1554.48 Q1574.36 1551.45 1574.36 1546.18 Q1574.36 1539.78 1578.9 1536.3 Q1583.43 1532.81 1591.78 1532.81 Q1595.91 1532.81 1599.56 1533.42 Q1603.2 1534.03 1606.28 1535.24 Z" fill="#000000" fill-rule="nonzero" fill-opacity="1" /><polyline clip-path="url(#clip492)" style="stroke:#000000; stroke-linecap:round; stroke-linejoin:round; stroke-width:2; stroke-opacity:0.1; fill:none" points="488.943,1354.85 2352.76,1354.85 "/>
<polyline clip-path="url(#clip492)" style="stroke:#000000; stroke-linecap:round; stroke-linejoin:round; stroke-width:2; stroke-opacity:0.1; fill:none" points="488.943,1049.69 2352.76,1049.69 "/>
<polyline clip-path="url(#clip492)" style="stroke:#000000; stroke-linecap:round; stroke-linejoin:round; stroke-width:2; stroke-opacity:0.1; fill:none" points="488.943,744.534 2352.76,744.534 "/>
<polyline clip-path="url(#clip492)" style="stroke:#000000; stroke-linecap:round; stroke-linejoin:round; stroke-width:2; stroke-opacity:0.1; fill:none" points="488.943,439.374 2352.76,439.374 "/>
<polyline clip-path="url(#clip492)" style="stroke:#000000; stroke-linecap:round; stroke-linejoin:round; stroke-width:2; stroke-opacity:0.1; fill:none" points="488.943,134.213 2352.76,134.213 "/>
<polyline clip-path="url(#clip490)" style="stroke:#000000; stroke-linecap:round; stroke-linejoin:round; stroke-width:4; stroke-opacity:1; fill:none" points="488.943,1392.94 488.943,47.2441 "/>
<polyline clip-path="url(#clip490)" style="stroke:#000000; stroke-linecap:round; stroke-linejoin:round; stroke-width:4; stroke-opacity:1; fill:none" points="488.943,1354.85 507.841,1354.85 "/>
<polyline clip-path="url(#clip490)" style="stroke:#000000; stroke-linecap:round; stroke-linejoin:round; stroke-width:4; stroke-opacity:1; fill:none" points="488.943,1049.69 507.841,1049.69 "/>
<polyline clip-path="url(#clip490)" style="stroke:#000000; stroke-linecap:round; stroke-linejoin:round; stroke-width:4; stroke-opacity:1; fill:none" points="488.943,744.534 507.841,744.534 "/>
<polyline clip-path="url(#clip490)" style="stroke:#000000; stroke-linecap:round; stroke-linejoin:round; stroke-width:4; stroke-opacity:1; fill:none" points="488.943,439.374 507.841,439.374 "/>
<polyline clip-path="url(#clip490)" style="stroke:#000000; stroke-linecap:round; stroke-linejoin:round; stroke-width:4; stroke-opacity:1; fill:none" points="488.943,134.213 507.841,134.213 "/>
<path clip-path="url(#clip490)" d="M435.027 1333.55 Q429.61 1333.55 426.867 1338.9 Q424.159 1344.21 424.159 1354.91 Q424.159 1365.57 426.867 1370.91 Q429.61 1376.23 435.027 1376.23 Q440.478 1376.23 443.186 1370.91 Q445.929 1365.57 445.929 1354.91 Q445.929 1344.21 443.186 1338.9 Q440.478 1333.55 435.027 1333.55 M435.027 1328 Q443.742 1328 448.325 1334.91 Q452.943 1341.78 452.943 1354.91 Q452.943 1368 448.325 1374.91 Q443.742 1381.78 435.027 1381.78 Q426.311 1381.78 421.693 1374.91 Q417.11 1368 417.11 1354.91 Q417.11 1341.78 421.693 1334.91 Q426.311 1328 435.027 1328 Z" fill="#000000" fill-rule="nonzero" fill-opacity="1" /><path clip-path="url(#clip490)" d="M135.658 1079.38 L160.137 1079.38 L160.137 1085.29 L127.22 1085.29 L127.22 1079.38 Q131.213 1075.25 138.088 1068.31 Q144.998 1061.33 146.769 1059.31 Q150.137 1055.53 151.456 1052.92 Q152.81 1050.29 152.81 1047.75 Q152.81 1043.62 149.894 1041.01 Q147.012 1038.41 142.359 1038.41 Q139.06 1038.41 135.38 1039.56 Q131.734 1040.7 127.567 1043.03 L127.567 1035.95 Q131.803 1034.24 135.484 1033.38 Q139.165 1032.51 142.22 1032.51 Q150.276 1032.51 155.067 1036.54 Q159.859 1040.56 159.859 1047.3 Q159.859 1050.49 158.644 1053.38 Q157.463 1056.22 154.303 1060.11 Q153.435 1061.12 148.783 1065.95 Q144.13 1070.74 135.658 1079.38 Z" fill="#000000" fill-rule="nonzero" fill-opacity="1" /><path clip-path="url(#clip490)" d="M174.859 1076.47 L182.185 1076.47 L182.185 1085.29 L174.859 1085.29 L174.859 1076.47 Z" fill="#000000" fill-rule="nonzero" fill-opacity="1" /><path clip-path="url(#clip490)" d="M197.532 1033.45 L225.067 1033.45 L225.067 1039.35 L203.956 1039.35 L203.956 1052.06 Q205.484 1051.54 207.011 1051.29 Q208.539 1051.01 210.067 1051.01 Q218.747 1051.01 223.817 1055.77 Q228.886 1060.53 228.886 1068.65 Q228.886 1077.02 223.678 1081.67 Q218.47 1086.29 208.991 1086.29 Q205.727 1086.29 202.324 1085.74 Q198.956 1085.18 195.345 1084.07 L195.345 1077.02 Q198.47 1078.72 201.803 1079.56 Q205.136 1080.39 208.852 1080.39 Q214.859 1080.39 218.366 1077.23 Q221.872 1074.07 221.872 1068.65 Q221.872 1063.24 218.366 1060.08 Q214.859 1056.92 208.852 1056.92 Q206.039 1056.92 203.227 1057.54 Q200.449 1058.17 197.532 1059.49 L197.532 1033.45 Z" fill="#000000" fill-rule="nonzero" fill-opacity="1" /><path clip-path="url(#clip490)" d="M257.706 1038.06 Q252.289 1038.06 249.546 1043.41 Q246.838 1048.72 246.838 1059.42 Q246.838 1070.08 249.546 1075.42 Q252.289 1080.74 257.706 1080.74 Q263.157 1080.74 265.865 1075.42 Q268.608 1070.08 268.608 1059.42 Q268.608 1048.72 265.865 1043.41 Q263.157 1038.06 257.706 1038.06 M257.706 1032.51 Q266.421 1032.51 271.004 1039.42 Q275.622 1046.29 275.622 1059.42 Q275.622 1072.51 271.004 1079.42 Q266.421 1086.29 257.706 1086.29 Q248.99 1086.29 244.372 1079.42 Q239.789 1072.51 239.789 1059.42 Q239.789 1046.29 244.372 1039.42 Q248.99 1032.51 257.706 1032.51 Z" fill="#000000" fill-rule="nonzero" fill-opacity="1" /><path clip-path="url(#clip490)" d="M330.205 1047.09 L314.337 1063.03 L330.205 1078.9 L326.073 1083.1 L310.136 1067.16 L294.198 1083.1 L290.101 1078.9 L305.934 1063.03 L290.101 1047.09 L294.198 1042.89 L310.136 1058.83 L326.073 1042.89 L330.205 1047.09 Z" fill="#000000" fill-rule="nonzero" fill-opacity="1" /><path clip-path="url(#clip490)" d="M348.747 1079.38 L360.205 1079.38 L360.205 1039.83 L347.74 1042.33 L347.74 1035.95 L360.136 1033.45 L367.149 1033.45 L367.149 1079.38 L378.608 1079.38 L378.608 1085.29 L348.747 1085.29 L348.747 1079.38 Z" fill="#000000" fill-rule="nonzero" fill-opacity="1" /><path clip-path="url(#clip490)" d="M407.774 1038.06 Q402.358 1038.06 399.615 1043.41 Q396.906 1048.72 396.906 1059.42 Q396.906 1070.08 399.615 1075.42 Q402.358 1080.74 407.774 1080.74 Q413.226 1080.74 415.934 1075.42 Q418.677 1070.08 418.677 1059.42 Q418.677 1048.72 415.934 1043.41 Q413.226 1038.06 407.774 1038.06 M407.774 1032.51 Q416.489 1032.51 421.073 1039.42 Q425.691 1046.29 425.691 1059.42 Q425.691 1072.51 421.073 1079.42 Q416.489 1086.29 407.774 1086.29 Q399.059 1086.29 394.441 1079.42 Q389.858 1072.51 389.858 1059.42 Q389.858 1046.29 394.441 1039.42 Q399.059 1032.51 407.774 1032.51 Z" fill="#000000" fill-rule="nonzero" fill-opacity="1" /><path clip-path="url(#clip490)" d="M427.468 1002.05 L449.84 1002.05 L449.84 1006.85 L432.687 1006.85 L432.687 1017.17 Q433.929 1016.75 435.17 1016.55 Q436.411 1016.32 437.653 1016.32 Q444.705 1016.32 448.824 1020.19 Q452.943 1024.05 452.943 1030.66 Q452.943 1037.46 448.711 1041.24 Q444.48 1044.99 436.778 1044.99 Q434.126 1044.99 431.361 1044.54 Q428.625 1044.09 425.691 1043.18 L425.691 1037.46 Q428.23 1038.84 430.938 1039.51 Q433.646 1040.19 436.665 1040.19 Q441.546 1040.19 444.395 1037.62 Q447.244 1035.06 447.244 1030.66 Q447.244 1026.26 444.395 1023.69 Q441.546 1021.12 436.665 1021.12 Q434.38 1021.12 432.095 1021.63 Q429.838 1022.14 427.468 1023.21 L427.468 1002.05 Z" fill="#000000" fill-rule="nonzero" fill-opacity="1" /><path clip-path="url(#clip490)" d="M129.685 728.285 L157.22 728.285 L157.22 734.188 L136.109 734.188 L136.109 746.896 Q137.637 746.375 139.165 746.132 Q140.692 745.854 142.22 745.854 Q150.901 745.854 155.97 750.611 Q161.039 755.368 161.039 763.493 Q161.039 771.861 155.831 776.514 Q150.623 781.132 141.144 781.132 Q137.88 781.132 134.477 780.577 Q131.109 780.021 127.498 778.91 L127.498 771.861 Q130.623 773.563 133.956 774.396 Q137.29 775.229 141.005 775.229 Q147.012 775.229 150.519 772.07 Q154.026 768.91 154.026 763.493 Q154.026 758.077 150.519 754.917 Q147.012 751.757 141.005 751.757 Q138.192 751.757 135.38 752.382 Q132.602 753.007 129.685 754.327 L129.685 728.285 Z" fill="#000000" fill-rule="nonzero" fill-opacity="1" /><path clip-path="url(#clip490)" d="M174.859 771.306 L182.185 771.306 L182.185 780.125 L174.859 780.125 L174.859 771.306 Z" fill="#000000" fill-rule="nonzero" fill-opacity="1" /><path clip-path="url(#clip490)" d="M212.463 732.903 Q207.046 732.903 204.303 738.25 Q201.595 743.563 201.595 754.257 Q201.595 764.917 204.303 770.264 Q207.046 775.577 212.463 775.577 Q217.914 775.577 220.622 770.264 Q223.365 764.917 223.365 754.257 Q223.365 743.563 220.622 738.25 Q217.914 732.903 212.463 732.903 M212.463 727.348 Q221.178 727.348 225.761 734.257 Q230.379 741.132 230.379 754.257 Q230.379 767.347 225.761 774.257 Q221.178 781.132 212.463 781.132 Q203.748 781.132 199.129 774.257 Q194.546 767.347 194.546 754.257 Q194.546 741.132 199.129 734.257 Q203.748 727.348 212.463 727.348 Z" fill="#000000" fill-rule="nonzero" fill-opacity="1" /><path clip-path="url(#clip490)" d="M257.706 732.903 Q252.289 732.903 249.546 738.25 Q246.838 743.563 246.838 754.257 Q246.838 764.917 249.546 770.264 Q252.289 775.577 257.706 775.577 Q263.157 775.577 265.865 770.264 Q268.608 764.917 268.608 754.257 Q268.608 743.563 265.865 738.25 Q263.157 732.903 257.706 732.903 M257.706 727.348 Q266.421 727.348 271.004 734.257 Q275.622 741.132 275.622 754.257 Q275.622 767.347 271.004 774.257 Q266.421 781.132 257.706 781.132 Q248.99 781.132 244.372 774.257 Q239.789 767.347 239.789 754.257 Q239.789 741.132 244.372 734.257 Q248.99 727.348 257.706 727.348 Z" fill="#000000" fill-rule="nonzero" fill-opacity="1" /><path clip-path="url(#clip490)" d="M330.205 741.931 L314.337 757.868 L330.205 773.736 L326.073 777.938 L310.136 762 L294.198 777.938 L290.101 773.736 L305.934 757.868 L290.101 741.931 L294.198 737.73 L310.136 753.667 L326.073 737.73 L330.205 741.931 Z" fill="#000000" fill-rule="nonzero" fill-opacity="1" /><path clip-path="url(#clip490)" d="M348.747 774.222 L360.205 774.222 L360.205 734.674 L347.74 737.174 L347.74 730.785 L360.136 728.285 L367.149 728.285 L367.149 774.222 L378.608 774.222 L378.608 780.125 L348.747 780.125 L348.747 774.222 Z" fill="#000000" fill-rule="nonzero" fill-opacity="1" /><path clip-path="url(#clip490)" d="M407.774 732.903 Q402.358 732.903 399.615 738.25 Q396.906 743.563 396.906 754.257 Q396.906 764.917 399.615 770.264 Q402.358 775.577 407.774 775.577 Q413.226 775.577 415.934 770.264 Q418.677 764.917 418.677 754.257 Q418.677 743.563 415.934 738.25 Q413.226 732.903 407.774 732.903 M407.774 727.348 Q416.489 727.348 421.073 734.257 Q425.691 741.132 425.691 754.257 Q425.691 767.347 421.073 774.257 Q416.489 781.132 407.774 781.132 Q399.059 781.132 394.441 774.257 Q389.858 767.347 389.858 754.257 Q389.858 741.132 394.441 734.257 Q399.059 727.348 407.774 727.348 Z" fill="#000000" fill-rule="nonzero" fill-opacity="1" /><path clip-path="url(#clip490)" d="M427.468 696.89 L449.84 696.89 L449.84 701.686 L432.687 701.686 L432.687 712.011 Q433.929 711.588 435.17 711.39 Q436.411 711.165 437.653 711.165 Q444.705 711.165 448.824 715.03 Q452.943 718.895 452.943 725.496 Q452.943 732.295 448.711 736.076 Q444.48 739.828 436.778 739.828 Q434.126 739.828 431.361 739.376 Q428.625 738.925 425.691 738.022 L425.691 732.295 Q428.23 733.678 430.938 734.355 Q433.646 735.032 436.665 735.032 Q441.546 735.032 444.395 732.464 Q447.244 729.897 447.244 725.496 Q447.244 721.095 444.395 718.528 Q441.546 715.961 436.665 715.961 Q434.38 715.961 432.095 716.468 Q429.838 716.976 427.468 718.048 L427.468 696.89 Z" fill="#000000" fill-rule="nonzero" fill-opacity="1" /><path clip-path="url(#clip490)" d="M127.845 423.125 L161.178 423.125 L161.178 426.111 L142.359 474.965 L135.033 474.965 L152.741 429.028 L127.845 429.028 L127.845 423.125 Z" fill="#000000" fill-rule="nonzero" fill-opacity="1" /><path clip-path="url(#clip490)" d="M174.859 466.146 L182.185 466.146 L182.185 474.965 L174.859 474.965 L174.859 466.146 Z" fill="#000000" fill-rule="nonzero" fill-opacity="1" /><path clip-path="url(#clip490)" d="M197.532 423.125 L225.067 423.125 L225.067 429.028 L203.956 429.028 L203.956 441.736 Q205.484 441.215 207.011 440.972 Q208.539 440.694 210.067 440.694 Q218.747 440.694 223.817 445.451 Q228.886 450.208 228.886 458.333 Q228.886 466.701 223.678 471.354 Q218.47 475.972 208.991 475.972 Q205.727 475.972 202.324 475.416 Q198.956 474.861 195.345 473.75 L195.345 466.701 Q198.47 468.402 201.803 469.236 Q205.136 470.069 208.852 470.069 Q214.859 470.069 218.366 466.909 Q221.872 463.75 221.872 458.333 Q221.872 452.916 218.366 449.757 Q214.859 446.597 208.852 446.597 Q206.039 446.597 203.227 447.222 Q200.449 447.847 197.532 449.166 L197.532 423.125 Z" fill="#000000" fill-rule="nonzero" fill-opacity="1" /><path clip-path="url(#clip490)" d="M257.706 427.743 Q252.289 427.743 249.546 433.09 Q246.838 438.403 246.838 449.097 Q246.838 459.757 249.546 465.104 Q252.289 470.416 257.706 470.416 Q263.157 470.416 265.865 465.104 Q268.608 459.757 268.608 449.097 Q268.608 438.403 265.865 433.09 Q263.157 427.743 257.706 427.743 M257.706 422.187 Q266.421 422.187 271.004 429.097 Q275.622 435.972 275.622 449.097 Q275.622 462.187 271.004 469.097 Q266.421 475.972 257.706 475.972 Q248.99 475.972 244.372 469.097 Q239.789 462.187 239.789 449.097 Q239.789 435.972 244.372 429.097 Q248.99 422.187 257.706 422.187 Z" fill="#000000" fill-rule="nonzero" fill-opacity="1" /><path clip-path="url(#clip490)" d="M330.205 436.771 L314.337 452.708 L330.205 468.576 L326.073 472.777 L310.136 456.84 L294.198 472.777 L290.101 468.576 L305.934 452.708 L290.101 436.771 L294.198 432.569 L310.136 448.507 L326.073 432.569 L330.205 436.771 Z" fill="#000000" fill-rule="nonzero" fill-opacity="1" /><path clip-path="url(#clip490)" d="M348.747 469.062 L360.205 469.062 L360.205 429.514 L347.74 432.014 L347.74 425.625 L360.136 423.125 L367.149 423.125 L367.149 469.062 L378.608 469.062 L378.608 474.965 L348.747 474.965 L348.747 469.062 Z" fill="#000000" fill-rule="nonzero" fill-opacity="1" /><path clip-path="url(#clip490)" d="M407.774 427.743 Q402.358 427.743 399.615 433.09 Q396.906 438.403 396.906 449.097 Q396.906 459.757 399.615 465.104 Q402.358 470.416 407.774 470.416 Q413.226 470.416 415.934 465.104 Q418.677 459.757 418.677 449.097 Q418.677 438.403 415.934 433.09 Q413.226 427.743 407.774 427.743 M407.774 422.187 Q416.489 422.187 421.073 429.097 Q425.691 435.972 425.691 449.097 Q425.691 462.187 421.073 469.097 Q416.489 475.972 407.774 475.972 Q399.059 475.972 394.441 469.097 Q389.858 462.187 389.858 449.097 Q389.858 435.972 394.441 429.097 Q399.059 422.187 407.774 422.187 Z" fill="#000000" fill-rule="nonzero" fill-opacity="1" /><path clip-path="url(#clip490)" d="M427.468 391.729 L449.84 391.729 L449.84 396.525 L432.687 396.525 L432.687 406.851 Q433.929 406.428 435.17 406.23 Q436.411 406.004 437.653 406.004 Q444.705 406.004 448.824 409.869 Q452.943 413.734 452.943 420.336 Q452.943 427.135 448.711 430.915 Q444.48 434.668 436.778 434.668 Q434.126 434.668 431.361 434.216 Q428.625 433.765 425.691 432.862 L425.691 427.135 Q428.23 428.517 430.938 429.194 Q433.646 429.872 436.665 429.872 Q441.546 429.872 444.395 427.304 Q447.244 424.737 447.244 420.336 Q447.244 415.935 444.395 413.368 Q441.546 410.8 436.665 410.8 Q434.38 410.8 432.095 411.308 Q429.838 411.816 427.468 412.888 L427.468 391.729 Z" fill="#000000" fill-rule="nonzero" fill-opacity="1" /><path clip-path="url(#clip490)" d="M128.997 163.902 L140.456 163.902 L140.456 124.354 L127.991 126.854 L127.991 120.465 L140.386 117.965 L147.4 117.965 L147.4 163.902 L158.858 163.902 L158.858 169.805 L128.997 169.805 L128.997 163.902 Z" fill="#000000" fill-rule="nonzero" fill-opacity="1" /><path clip-path="url(#clip490)" d="M173.025 160.985 L180.351 160.985 L180.351 169.805 L173.025 169.805 L173.025 160.985 Z" fill="#000000" fill-rule="nonzero" fill-opacity="1" /><path clip-path="url(#clip490)" d="M210.629 122.583 Q205.212 122.583 202.469 127.93 Q199.761 133.242 199.761 143.937 Q199.761 154.597 202.469 159.944 Q205.212 165.256 210.629 165.256 Q216.08 165.256 218.789 159.944 Q221.532 154.597 221.532 143.937 Q221.532 133.242 218.789 127.93 Q216.08 122.583 210.629 122.583 M210.629 117.027 Q219.344 117.027 223.928 123.937 Q228.546 130.812 228.546 143.937 Q228.546 157.027 223.928 163.937 Q219.344 170.812 210.629 170.812 Q201.914 170.812 197.296 163.937 Q192.712 157.027 192.712 143.937 Q192.712 130.812 197.296 123.937 Q201.914 117.027 210.629 117.027 Z" fill="#000000" fill-rule="nonzero" fill-opacity="1" /><path clip-path="url(#clip490)" d="M255.872 122.583 Q250.455 122.583 247.712 127.93 Q245.004 133.242 245.004 143.937 Q245.004 154.597 247.712 159.944 Q250.455 165.256 255.872 165.256 Q261.323 165.256 264.031 159.944 Q266.775 154.597 266.775 143.937 Q266.775 133.242 264.031 127.93 Q261.323 122.583 255.872 122.583 M255.872 117.027 Q264.587 117.027 269.17 123.937 Q273.788 130.812 273.788 143.937 Q273.788 157.027 269.17 163.937 Q264.587 170.812 255.872 170.812 Q247.157 170.812 242.539 163.937 Q237.955 157.027 237.955 143.937 Q237.955 130.812 242.539 123.937 Q247.157 117.027 255.872 117.027 Z" fill="#000000" fill-rule="nonzero" fill-opacity="1" /><path clip-path="url(#clip490)" d="M328.371 131.611 L312.503 147.548 L328.371 163.416 L324.24 167.617 L308.302 151.68 L292.365 167.617 L288.267 163.416 L304.101 147.548 L288.267 131.611 L292.365 127.409 L308.302 143.347 L324.24 127.409 L328.371 131.611 Z" fill="#000000" fill-rule="nonzero" fill-opacity="1" /><path clip-path="url(#clip490)" d="M346.913 163.902 L358.371 163.902 L358.371 124.354 L345.906 126.854 L345.906 120.465 L358.302 117.965 L365.316 117.965 L365.316 163.902 L376.774 163.902 L376.774 169.805 L346.913 169.805 L346.913 163.902 Z" fill="#000000" fill-rule="nonzero" fill-opacity="1" /><path clip-path="url(#clip490)" d="M405.94 122.583 Q400.524 122.583 397.781 127.93 Q395.072 133.242 395.072 143.937 Q395.072 154.597 397.781 159.944 Q400.524 165.256 405.94 165.256 Q411.392 165.256 414.1 159.944 Q416.843 154.597 416.843 143.937 Q416.843 133.242 414.1 127.93 Q411.392 122.583 405.94 122.583 M405.94 117.027 Q414.656 117.027 419.239 123.937 Q423.857 130.812 423.857 143.937 Q423.857 157.027 419.239 163.937 Q414.656 170.812 405.94 170.812 Q397.225 170.812 392.607 163.937 Q388.024 157.027 388.024 143.937 Q388.024 130.812 392.607 123.937 Q397.225 117.027 405.94 117.027 Z" fill="#000000" fill-rule="nonzero" fill-opacity="1" /><path clip-path="url(#clip490)" d="M438.894 105.358 Q435.057 105.358 432.8 107.982 Q430.571 110.606 430.571 115.176 Q430.571 119.718 432.8 122.37 Q435.057 124.993 438.894 124.993 Q442.731 124.993 444.959 122.37 Q447.216 119.718 447.216 115.176 Q447.216 110.606 444.959 107.982 Q442.731 105.358 438.894 105.358 M450.207 87.5002 L450.207 92.6911 Q448.063 91.6755 445.862 91.1395 Q443.69 90.6034 441.546 90.6034 Q435.903 90.6034 432.913 94.412 Q429.951 98.2206 429.528 105.922 Q431.192 103.468 433.703 102.17 Q436.214 100.844 439.232 100.844 Q445.58 100.844 449.248 104.709 Q452.943 108.546 452.943 115.176 Q452.943 121.664 449.106 125.586 Q445.27 129.507 438.894 129.507 Q431.587 129.507 427.722 123.921 Q423.857 118.307 423.857 107.671 Q423.857 97.6846 428.597 91.7601 Q433.336 85.8075 441.32 85.8075 Q443.464 85.8075 445.636 86.2306 Q447.837 86.6538 450.207 87.5002 Z" fill="#000000" fill-rule="nonzero" fill-opacity="1" /><path clip-path="url(#clip490)" d="M17.2547 881.5 L25.8831 881.5 Q22.0348 885.632 20.1308 890.331 Q18.2269 894.99 18.2269 900.256 Q18.2269 910.626 24.5868 916.135 Q30.9062 921.645 42.8969 921.645 Q54.8471 921.645 61.207 916.135 Q67.5264 910.626 67.5264 900.256 Q67.5264 894.99 65.6225 890.331 Q63.7186 885.632 59.8702 881.5 L68.4176 881.5 Q71.3343 885.794 72.7926 890.615 Q74.2509 895.395 74.2509 900.742 Q74.2509 914.475 65.8655 922.374 Q57.4397 930.273 42.8969 930.273 Q28.3137 930.273 19.9283 922.374 Q11.5024 914.475 11.5024 900.742 Q11.5024 895.314 12.9607 890.534 Q14.3786 885.713 17.2547 881.5 Z" fill="#000000" fill-rule="nonzero" fill-opacity="1" /><path clip-path="url(#clip490)" d="M45.692 831.472 L73.0762 831.472 L73.0762 838.925 L45.9351 838.925 Q39.4942 838.925 36.2939 841.437 Q33.0937 843.948 33.0937 848.971 Q33.0937 855.007 36.9421 858.491 Q40.7905 861.975 47.4339 861.975 L73.0762 861.975 L73.0762 869.469 L10.0441 869.469 L10.0441 861.975 L34.7546 861.975 Q30.6632 859.301 28.6377 855.696 Q26.6123 852.05 26.6123 847.311 Q26.6123 839.492 31.4734 835.482 Q36.2939 831.472 45.692 831.472 Z" fill="#000000" fill-rule="nonzero" fill-opacity="1" /><path clip-path="url(#clip490)" d="M50.2696 795.986 Q50.2696 805.019 52.3355 808.503 Q54.4015 811.987 59.3841 811.987 Q63.354 811.987 65.7035 809.394 Q68.0125 806.761 68.0125 802.265 Q68.0125 796.067 63.6376 792.34 Q59.2221 788.573 51.9304 788.573 L50.2696 788.573 L50.2696 795.986 M47.1909 781.119 L73.0762 781.119 L73.0762 788.573 L66.1896 788.573 Q70.3215 791.125 72.3065 794.932 Q74.2509 798.74 74.2509 804.25 Q74.2509 811.217 70.3621 815.349 Q66.4327 819.44 59.8702 819.44 Q52.214 819.44 48.3251 814.336 Q44.4363 809.192 44.4363 799.024 L44.4363 788.573 L43.7071 788.573 Q38.5625 788.573 35.7673 791.975 Q32.9317 795.338 32.9317 801.454 Q32.9317 805.343 33.8634 809.03 Q34.7951 812.716 36.6585 816.119 L29.772 816.119 Q28.1921 812.027 27.4225 808.179 Q26.6123 804.331 26.6123 800.685 Q26.6123 790.841 31.7164 785.98 Q36.8206 781.119 47.1909 781.119 Z" fill="#000000" fill-rule="nonzero" fill-opacity="1" /><path clip-path="url(#clip490)" d="M34.6736 739.476 Q33.9444 740.731 33.6204 742.23 Q33.2558 743.688 33.2558 745.471 Q33.2558 751.79 37.3877 755.193 Q41.4791 758.555 49.1758 758.555 L73.0762 758.555 L73.0762 766.049 L27.706 766.049 L27.706 758.555 L34.7546 758.555 Q30.6227 756.206 28.6377 752.438 Q26.6123 748.671 26.6123 743.283 Q26.6123 742.514 26.7338 741.582 Q26.8148 740.65 27.0174 739.516 L34.6736 739.476 Z" fill="#000000" fill-rule="nonzero" fill-opacity="1" /><path clip-path="url(#clip490)" d="M49.8645 703.26 Q41.7627 703.26 37.3067 706.623 Q32.8507 709.944 32.8507 715.98 Q32.8507 721.976 37.3067 725.338 Q41.7627 728.66 49.8645 728.66 Q57.9258 728.66 62.3818 725.338 Q66.8378 721.976 66.8378 715.98 Q66.8378 709.944 62.3818 706.623 Q57.9258 703.26 49.8645 703.26 M67.4454 695.807 Q79.031 695.807 84.6617 700.951 Q90.333 706.096 90.333 716.709 Q90.333 720.639 89.7254 724.123 Q89.1582 727.606 87.943 730.888 L80.6919 730.888 Q82.4743 727.606 83.3249 724.406 Q84.1756 721.206 84.1756 717.884 Q84.1756 710.552 80.3273 706.906 Q76.5194 703.26 68.7822 703.26 L65.0959 703.26 Q69.1063 705.569 71.0912 709.175 Q73.0762 712.78 73.0762 717.803 Q73.0762 726.148 66.7162 731.252 Q60.3563 736.356 49.8645 736.356 Q39.3321 736.356 32.9722 731.252 Q26.6123 726.148 26.6123 717.803 Q26.6123 712.78 28.5972 709.175 Q30.5822 705.569 34.5926 703.26 L27.706 703.26 L27.706 695.807 L67.4454 695.807 Z" fill="#000000" fill-rule="nonzero" fill-opacity="1" /><path clip-path="url(#clip490)" d="M48.5277 641.646 L52.1735 641.646 L52.1735 675.917 Q59.8702 675.431 63.9211 671.299 Q67.9315 667.126 67.9315 659.713 Q67.9315 655.419 66.8783 651.409 Q65.825 647.358 63.7186 643.388 L70.7671 643.388 Q72.4685 647.398 73.3597 651.611 Q74.2509 655.824 74.2509 660.159 Q74.2509 671.015 67.9315 677.375 Q61.6121 683.695 50.8367 683.695 Q39.6967 683.695 33.1748 677.699 Q26.6123 671.663 26.6123 661.455 Q26.6123 652.3 32.5266 646.993 Q38.4004 641.646 48.5277 641.646 M46.3402 649.1 Q40.2233 649.181 36.5775 652.543 Q32.9317 655.865 32.9317 661.374 Q32.9317 667.613 36.456 671.38 Q39.9803 675.107 46.3807 675.674 L46.3402 649.1 Z" fill="#000000" fill-rule="nonzero" fill-opacity="1" /><path clip-path="url(#clip490)" d="M12.5962 589.795 L12.5962 582.908 L80.7729 603.973 L80.7729 610.859 L12.5962 589.795 Z" fill="#000000" fill-rule="nonzero" fill-opacity="1" /><path clip-path="url(#clip490)" d="M48.5277 509.911 L52.1735 509.911 L52.1735 544.181 Q59.8702 543.695 63.9211 539.563 Q67.9315 535.391 67.9315 527.978 Q67.9315 523.684 66.8783 519.673 Q65.825 515.623 63.7186 511.653 L70.7671 511.653 Q72.4685 515.663 73.3597 519.876 Q74.2509 524.089 74.2509 528.423 Q74.2509 539.28 67.9315 545.64 Q61.6121 551.959 50.8367 551.959 Q39.6967 551.959 33.1748 545.964 Q26.6123 539.928 26.6123 529.72 Q26.6123 520.565 32.5266 515.258 Q38.4004 509.911 48.5277 509.911 M46.3402 517.364 Q40.2233 517.445 36.5775 520.808 Q32.9317 524.129 32.9317 529.639 Q32.9317 535.877 36.456 539.644 Q39.9803 543.371 46.3807 543.938 L46.3402 517.364 Z" fill="#000000" fill-rule="nonzero" fill-opacity="1" /><polyline clip-path="url(#clip492)" style="stroke:#009af9; stroke-linecap:round; stroke-linejoin:round; stroke-width:6; stroke-opacity:1; fill:none" points="488.943,1354.85 497.415,1353.31 505.887,1351.79 514.359,1350.25 522.831,1348.7 531.303,1347.2 539.774,1345.69 548.246,1344.16 556.718,1342.63 565.19,1341.12 573.662,1339.65 582.134,1338.21 590.606,1336.76 599.078,1335.31 607.549,1333.89 616.021,1332.5 624.493,1331.1 632.965,1329.69 641.437,1328.34 649.909,1326.96 658.381,1325.43 666.853,1323.91 675.325,1322.51 683.796,1321.25 692.268,1319.97 700.74,1318.66 709.212,1317.36 717.684,1316.04 726.156,1314.68 734.628,1313.28 743.1,1312.21 751.571,1311.11 760.043,1309.96 768.515,1308.78 776.987,1307.56 785.459,1306.3 793.931,1305 802.403,1303.64 810.875,1302.24 819.346,1300.77 827.818,1299.26 836.29,1297.68 844.762,1296.04 853.234,1294.34 861.706,1292.58 870.178,1290.73 878.65,1288.82 887.121,1286.84 895.593,1284.78 904.065,1282.6 912.537,1280.34 921.009,1278.01 929.481,1275.54 937.953,1272.98 946.425,1270.32 954.896,1267.51 963.368,1264.6 971.84,1261.54 980.312,1258.34 988.784,1255.01 997.256,1251.46 1005.73,1247.77 1014.2,1243.83 1022.67,1239.71 1031.14,1235.34 1039.62,1230.69 1048.09,1225.74 1056.56,1220.42 1065.03,1214.68 1073.5,1208.5 1081.97,1201.77 1090.45,1194.39 1098.92,1186.25 1107.39,1177.31 1115.86,1167.31 1124.33,1156.09 1132.81,1143.45 1141.28,1129.07 1149.75,1112.56 1158.22,1093.51 1166.69,1071.41 1175.17,1045.55 1183.64,1015.37 1192.11,979.751 1200.58,937.731 1209.05,888.476 1217.52,831.746 1226,768.611 1234.47,707.461 1242.94,706.146 1251.41,704.759 1259.88,703.295 1268.36,701.784 1276.83,700.185 1285.3,698.524 1293.77,696.798 1302.24,694.961 1310.72,693.061 1319.19,691.059 1327.66,688.938 1336.13,686.742 1344.6,684.376 1353.07,681.903 1361.55,679.274 1370.02,676.478 1378.49,673.489 1386.96,670.269 1395.43,666.804 1403.91,663.068 1412.38,658.995 1420.85,654.539 1429.32,649.641 1437.79,644.171 1446.27,638.12 1454.74,631.296 1463.21,623.584 1471.68,614.849 1480.15,604.775 1488.62,593.15 1497.1,579.691 1505.57,563.924 1514.04,545.355 1522.51,523.583 1530.98,497.789 1539.46,467.309 1547.93,431.672 1556.4,391.053 1564.87,346.715 1573.34,326.612 1581.82,326.352 1590.29,326.089 1598.76,325.818 1607.23,325.536 1615.7,325.242 1624.17,324.94 1632.65,324.63 1641.12,324.311 1649.59,323.985 1658.06,323.647 1666.53,323.288 1675.01,322.918 1683.48,322.535 1691.95,322.141 1700.42,321.735 1708.89,321.318 1717.37,320.878 1725.84,320.42 1734.31,319.945 1742.78,319.453 1751.25,318.932 1759.72,318.391 1768.2,317.832 1776.67,317.252 1785.14,316.638 1793.61,316 1802.08,315.341 1810.56,314.652 1819.03,313.924 1827.5,313.17 1835.97,312.389 1844.44,311.563 1852.92,310.7 1861.39,309.806 1869.86,308.853 1878.33,307.865 1886.8,306.831 1895.27,305.732 1903.75,304.594 1912.22,303.378 1920.69,302.102 1929.16,300.76 1937.63,299.322 1946.11,297.821 1954.58,296.2 1963.05,294.467 1971.52,292.612 1979.99,290.613 1988.47,288.451 1996.94,286.085 2005.41,283.495 2013.88,280.643 2022.35,277.477 2030.82,273.947 2039.3,269.982 2047.77,265.494 2056.24,260.383 2064.71,254.52 2073.18,247.734 2081.66,239.856 2090.13,230.637 2098.6,219.789 2107.07,207.05 2115.54,191.951 2124.02,174.068 2132.49,153.108 2140.96,129.089 2149.43,102.645 2157.9,85.3305 2166.37,85.3298 "/>
</svg>
