<?xml version="1.0" encoding="utf-8"?>
<svg xmlns="http://www.w3.org/2000/svg" xmlns:xlink="http://www.w3.org/1999/xlink" width="600" height="400" viewBox="0 0 2400 1600">
<defs>
  <clipPath id="clip190">
    <rect x="0" y="0" width="2400" height="1600"/>
  </clipPath>
</defs>
<path clip-path="url(#clip190)" d="M0 1600 L2400 1600 L2400 0 L0 0  Z" fill="#ffffff" fill-rule="evenodd" fill-opacity="1"/>
<defs>
  <clipPath id="clip191">
    <rect x="480" y="0" width="1681" height="1600"/>
  </clipPath>
</defs>
<path clip-path="url(#clip190)" d="M222.69 1423.18 L2352.76 1423.18 L2352.76 123.472 L222.69 123.472  Z" fill="#ffffff" fill-rule="evenodd" fill-opacity="1"/>
<defs>
  <clipPath id="clip192">
    <rect x="222" y="123" width="2131" height="1301"/>
  </clipPath>
</defs>
<polyline clip-path="url(#clip192)" style="stroke:#000000; stroke-linecap:round; stroke-linejoin:round; stroke-width:2; stroke-opacity:0.1; fill:none" points="222.69,1423.18 222.69,123.472 "/>
<polyline clip-path="url(#clip192)" style="stroke:#000000; stroke-linecap:round; stroke-linejoin:round; stroke-width:2; stroke-opacity:0.1; fill:none" points="932.712,1423.18 932.712,123.472 "/>
<polyline clip-path="url(#clip192)" style="stroke:#000000; stroke-linecap:round; stroke-linejoin:round; stroke-width:2; stroke-opacity:0.1; fill:none" points="1642.73,1423.18 1642.73,123.472 "/>
<polyline clip-path="url(#clip192)" style="stroke:#000000; stroke-linecap:round; stroke-linejoin:round; stroke-width:2; stroke-opacity:0.1; fill:none" points="2352.76,1423.18 2352.76,123.472 "/>
<polyline clip-path="url(#clip192)" style="stroke:#000000; stroke-linecap:round; stroke-linejoin:round; stroke-width:2; stroke-opacity:0.1; fill:none" points="222.69,1083.61 2352.76,1083.61 "/>
<polyline clip-path="url(#clip192)" style="stroke:#000000; stroke-linecap:round; stroke-linejoin:round; stroke-width:2; stroke-opacity:0.1; fill:none" points="222.69,478.038 2352.76,478.038 "/>
<polyline clip-path="url(#clip190)" style="stroke:#000000; stroke-linecap:round; stroke-linejoin:round; stroke-width:4; stroke-opacity:1; fill:none" points="222.69,1423.18 2352.76,1423.18 "/>
<polyline clip-path="url(#clip190)" style="stroke:#000000; stroke-linecap:round; stroke-linejoin:round; stroke-width:4; stroke-opacity:1; fill:none" points="222.69,1423.18 222.69,1404.28 "/>
<polyline clip-path="url(#clip190)" style="stroke:#000000; stroke-linecap:round; stroke-linejoin:round; stroke-width:4; stroke-opacity:1; fill:none" points="932.712,1423.18 932.712,1404.28 "/>
<polyline clip-path="url(#clip190)" style="stroke:#000000; stroke-linecap:round; stroke-linejoin:round; stroke-width:4; stroke-opacity:1; fill:none" points="1642.73,1423.18 1642.73,1404.28 "/>
<polyline clip-path="url(#clip190)" style="stroke:#000000; stroke-linecap:round; stroke-linejoin:round; stroke-width:4; stroke-opacity:1; fill:none" points="2352.76,1423.18 2352.76,1404.28 "/>
<path clip-path="url(#clip190)" d="M222.69 1454.1 Q219.079 1454.1 217.251 1457.66 Q215.445 1461.2 215.445 1468.33 Q215.445 1475.44 217.251 1479.01 Q219.079 1482.55 222.69 1482.55 Q226.325 1482.55 228.13 1479.01 Q229.959 1475.44 229.959 1468.33 Q229.959 1461.2 228.13 1457.66 Q226.325 1454.1 222.69 1454.1 M222.69 1450.39 Q228.5 1450.39 231.556 1455 Q234.635 1459.58 234.635 1468.33 Q234.635 1477.06 231.556 1481.67 Q228.5 1486.25 222.69 1486.25 Q216.88 1486.25 213.801 1481.67 Q210.746 1477.06 210.746 1468.33 Q210.746 1459.58 213.801 1455 Q216.88 1450.39 222.69 1450.39 Z" fill="#000000" fill-rule="nonzero" fill-opacity="1" /><path clip-path="url(#clip190)" d="M877.238 1481.64 L884.877 1481.64 L884.877 1455.28 L876.567 1456.95 L876.567 1452.69 L884.83 1451.02 L889.506 1451.02 L889.506 1481.64 L897.145 1481.64 L897.145 1485.58 L877.238 1485.58 L877.238 1481.64 Z" fill="#000000" fill-rule="nonzero" fill-opacity="1" /><path clip-path="url(#clip190)" d="M916.59 1454.1 Q912.978 1454.1 911.15 1457.66 Q909.344 1461.2 909.344 1468.33 Q909.344 1475.44 911.15 1479.01 Q912.978 1482.55 916.59 1482.55 Q920.224 1482.55 922.029 1479.01 Q923.858 1475.44 923.858 1468.33 Q923.858 1461.2 922.029 1457.66 Q920.224 1454.1 916.59 1454.1 M916.59 1450.39 Q922.4 1450.39 925.455 1455 Q928.534 1459.58 928.534 1468.33 Q928.534 1477.06 925.455 1481.67 Q922.4 1486.25 916.59 1486.25 Q910.779 1486.25 907.701 1481.67 Q904.645 1477.06 904.645 1468.33 Q904.645 1459.58 907.701 1455 Q910.779 1450.39 916.59 1450.39 Z" fill="#000000" fill-rule="nonzero" fill-opacity="1" /><path clip-path="url(#clip190)" d="M946.751 1454.1 Q943.14 1454.1 941.312 1457.66 Q939.506 1461.2 939.506 1468.33 Q939.506 1475.44 941.312 1479.01 Q943.14 1482.55 946.751 1482.55 Q950.386 1482.55 952.191 1479.01 Q954.02 1475.44 954.02 1468.33 Q954.02 1461.2 952.191 1457.66 Q950.386 1454.1 946.751 1454.1 M946.751 1450.39 Q952.562 1450.39 955.617 1455 Q958.696 1459.58 958.696 1468.33 Q958.696 1477.06 955.617 1481.67 Q952.562 1486.25 946.751 1486.25 Q940.941 1486.25 937.863 1481.67 Q934.807 1477.06 934.807 1468.33 Q934.807 1459.58 937.863 1455 Q940.941 1450.39 946.751 1450.39 Z" fill="#000000" fill-rule="nonzero" fill-opacity="1" /><path clip-path="url(#clip190)" d="M976.913 1454.1 Q973.302 1454.1 971.474 1457.66 Q969.668 1461.2 969.668 1468.33 Q969.668 1475.44 971.474 1479.01 Q973.302 1482.55 976.913 1482.55 Q980.548 1482.55 982.353 1479.01 Q984.182 1475.44 984.182 1468.33 Q984.182 1461.2 982.353 1457.66 Q980.548 1454.1 976.913 1454.1 M976.913 1450.39 Q982.723 1450.39 985.779 1455 Q988.858 1459.58 988.858 1468.33 Q988.858 1477.06 985.779 1481.67 Q982.723 1486.25 976.913 1486.25 Q971.103 1486.25 968.024 1481.67 Q964.969 1477.06 964.969 1468.33 Q964.969 1459.58 968.024 1455 Q971.103 1450.39 976.913 1450.39 Z" fill="#000000" fill-rule="nonzero" fill-opacity="1" /><path clip-path="url(#clip190)" d="M1591.35 1481.64 L1607.66 1481.64 L1607.66 1485.58 L1585.72 1485.58 L1585.72 1481.64 Q1588.38 1478.89 1592.97 1474.26 Q1597.57 1469.61 1598.75 1468.27 Q1601 1465.74 1601.88 1464.01 Q1602.78 1462.25 1602.78 1460.56 Q1602.78 1457.8 1600.84 1456.07 Q1598.91 1454.33 1595.81 1454.33 Q1593.61 1454.33 1591.16 1455.09 Q1588.73 1455.86 1585.95 1457.41 L1585.95 1452.69 Q1588.78 1451.55 1591.23 1450.97 Q1593.68 1450.39 1595.72 1450.39 Q1601.09 1450.39 1604.29 1453.08 Q1607.48 1455.77 1607.48 1460.26 Q1607.48 1462.39 1606.67 1464.31 Q1605.88 1466.2 1603.78 1468.8 Q1603.2 1469.47 1600.1 1472.69 Q1596.99 1475.88 1591.35 1481.64 Z" fill="#000000" fill-rule="nonzero" fill-opacity="1" /><path clip-path="url(#clip190)" d="M1627.48 1454.1 Q1623.87 1454.1 1622.04 1457.66 Q1620.23 1461.2 1620.23 1468.33 Q1620.23 1475.44 1622.04 1479.01 Q1623.87 1482.55 1627.48 1482.55 Q1631.11 1482.55 1632.92 1479.01 Q1634.75 1475.44 1634.75 1468.33 Q1634.75 1461.2 1632.92 1457.66 Q1631.11 1454.1 1627.48 1454.1 M1627.48 1450.39 Q1633.29 1450.39 1636.35 1455 Q1639.42 1459.58 1639.42 1468.33 Q1639.42 1477.06 1636.35 1481.67 Q1633.29 1486.25 1627.48 1486.25 Q1621.67 1486.25 1618.59 1481.67 Q1615.54 1477.06 1615.54 1468.33 Q1615.54 1459.58 1618.59 1455 Q1621.67 1450.39 1627.48 1450.39 Z" fill="#000000" fill-rule="nonzero" fill-opacity="1" /><path clip-path="url(#clip190)" d="M1657.64 1454.1 Q1654.03 1454.1 1652.2 1457.66 Q1650.4 1461.2 1650.4 1468.33 Q1650.4 1475.44 1652.2 1479.01 Q1654.03 1482.55 1657.64 1482.55 Q1661.28 1482.55 1663.08 1479.01 Q1664.91 1475.44 1664.91 1468.33 Q1664.91 1461.2 1663.08 1457.66 Q1661.28 1454.1 1657.64 1454.1 M1657.64 1450.39 Q1663.45 1450.39 1666.51 1455 Q1669.59 1459.58 1669.59 1468.33 Q1669.59 1477.06 1666.51 1481.67 Q1663.45 1486.25 1657.64 1486.25 Q1651.83 1486.25 1648.75 1481.67 Q1645.7 1477.06 1645.7 1468.33 Q1645.7 1459.58 1648.75 1455 Q1651.83 1450.39 1657.64 1450.39 Z" fill="#000000" fill-rule="nonzero" fill-opacity="1" /><path clip-path="url(#clip190)" d="M1687.8 1454.1 Q1684.19 1454.1 1682.36 1457.66 Q1680.56 1461.2 1680.56 1468.33 Q1680.56 1475.44 1682.36 1479.01 Q1684.19 1482.55 1687.8 1482.55 Q1691.44 1482.55 1693.24 1479.01 Q1695.07 1475.44 1695.07 1468.33 Q1695.07 1461.2 1693.24 1457.66 Q1691.44 1454.1 1687.8 1454.1 M1687.8 1450.39 Q1693.61 1450.39 1696.67 1455 Q1699.75 1459.58 1699.75 1468.33 Q1699.75 1477.06 1696.67 1481.67 Q1693.61 1486.25 1687.8 1486.25 Q1681.99 1486.25 1678.91 1481.67 Q1675.86 1477.06 1675.86 1468.33 Q1675.86 1459.58 1678.91 1455 Q1681.99 1450.39 1687.8 1450.39 Z" fill="#000000" fill-rule="nonzero" fill-opacity="1" /><path clip-path="url(#clip190)" d="M2311.44 1466.95 Q2314.79 1467.66 2316.67 1469.93 Q2318.57 1472.2 2318.57 1475.53 Q2318.57 1480.65 2315.05 1483.45 Q2311.53 1486.25 2305.05 1486.25 Q2302.87 1486.25 2300.56 1485.81 Q2298.27 1485.39 2295.81 1484.54 L2295.81 1480.02 Q2297.76 1481.16 2300.07 1481.74 Q2302.39 1482.32 2304.91 1482.32 Q2309.31 1482.32 2311.6 1480.58 Q2313.91 1478.84 2313.91 1475.53 Q2313.91 1472.48 2311.76 1470.77 Q2309.63 1469.03 2305.81 1469.03 L2301.78 1469.03 L2301.78 1465.19 L2306 1465.19 Q2309.45 1465.19 2311.27 1463.82 Q2313.1 1462.43 2313.1 1459.84 Q2313.1 1457.18 2311.21 1455.77 Q2309.33 1454.33 2305.81 1454.33 Q2303.89 1454.33 2301.69 1454.75 Q2299.49 1455.16 2296.85 1456.04 L2296.85 1451.88 Q2299.52 1451.14 2301.83 1450.77 Q2304.17 1450.39 2306.23 1450.39 Q2311.55 1450.39 2314.65 1452.83 Q2317.76 1455.23 2317.76 1459.35 Q2317.76 1462.22 2316.11 1464.21 Q2314.47 1466.18 2311.44 1466.95 Z" fill="#000000" fill-rule="nonzero" fill-opacity="1" /><path clip-path="url(#clip190)" d="M2337.43 1454.1 Q2333.82 1454.1 2331.99 1457.66 Q2330.19 1461.2 2330.19 1468.33 Q2330.19 1475.44 2331.99 1479.01 Q2333.82 1482.55 2337.43 1482.55 Q2341.07 1482.55 2342.87 1479.01 Q2344.7 1475.44 2344.7 1468.33 Q2344.7 1461.2 2342.87 1457.66 Q2341.07 1454.1 2337.43 1454.1 M2337.43 1450.39 Q2343.24 1450.39 2346.3 1455 Q2349.38 1459.58 2349.38 1468.33 Q2349.38 1477.06 2346.3 1481.67 Q2343.24 1486.25 2337.43 1486.25 Q2331.62 1486.25 2328.54 1481.67 Q2325.49 1477.06 2325.49 1468.33 Q2325.49 1459.58 2328.54 1455 Q2331.62 1450.39 2337.43 1450.39 Z" fill="#000000" fill-rule="nonzero" fill-opacity="1" /><path clip-path="url(#clip190)" d="M2367.59 1454.1 Q2363.98 1454.1 2362.15 1457.66 Q2360.35 1461.2 2360.35 1468.33 Q2360.35 1475.44 2362.15 1479.01 Q2363.98 1482.55 2367.59 1482.55 Q2371.23 1482.55 2373.03 1479.01 Q2374.86 1475.44 2374.86 1468.33 Q2374.86 1461.2 2373.03 1457.66 Q2371.23 1454.1 2367.59 1454.1 M2367.59 1450.39 Q2373.4 1450.39 2376.46 1455 Q2379.54 1459.58 2379.54 1468.33 Q2379.54 1477.06 2376.46 1481.67 Q2373.4 1486.25 2367.59 1486.25 Q2361.78 1486.25 2358.7 1481.67 Q2355.65 1477.06 2355.65 1468.33 Q2355.65 1459.58 2358.7 1455 Q2361.78 1450.39 2367.59 1450.39 Z" fill="#000000" fill-rule="nonzero" fill-opacity="1" /><path clip-path="url(#clip190)" d="M2397.76 1454.1 Q2394.14 1454.1 2392.32 1457.66 Q2390.51 1461.2 2390.51 1468.33 Q2390.51 1475.44 2392.32 1479.01 Q2394.14 1482.55 2397.76 1482.55 Q2401.39 1482.55 2403.2 1479.01 Q2405.02 1475.44 2405.02 1468.33 Q2405.02 1461.2 2403.2 1457.66 Q2401.39 1454.1 2397.76 1454.1 M2397.76 1450.39 Q2403.57 1450.39 2406.62 1455 Q2409.7 1459.58 2409.7 1468.33 Q2409.7 1477.06 2406.62 1481.67 Q2403.57 1486.25 2397.76 1486.25 Q2391.95 1486.25 2388.87 1481.67 Q2385.81 1477.06 2385.81 1468.33 Q2385.81 1459.58 2388.87 1455 Q2391.95 1450.39 2397.76 1450.39 Z" fill="#000000" fill-rule="nonzero" fill-opacity="1" /><path clip-path="url(#clip190)" d="M1160.11 1520.52 L1190.15 1520.52 L1190.15 1525.93 L1166.54 1525.93 L1166.54 1540 L1189.17 1540 L1189.17 1545.41 L1166.54 1545.41 L1166.54 1562.63 L1190.73 1562.63 L1190.73 1568.04 L1160.11 1568.04 L1160.11 1520.52 Z" fill="#000000" fill-rule="nonzero" fill-opacity="1" /><path clip-path="url(#clip190)" d="M1221.76 1532.4 L1227.61 1532.4 L1227.61 1568.04 L1221.76 1568.04 L1221.76 1532.4 M1221.76 1518.52 L1227.61 1518.52 L1227.61 1525.93 L1221.76 1525.93 L1221.76 1518.52 Z" fill="#000000" fill-rule="nonzero" fill-opacity="1" /><path clip-path="url(#clip190)" d="M1269.5 1546.53 L1269.5 1568.04 L1263.64 1568.04 L1263.64 1546.72 Q1263.64 1541.66 1261.67 1539.14 Q1259.7 1536.63 1255.75 1536.63 Q1251.01 1536.63 1248.27 1539.65 Q1245.53 1542.68 1245.53 1547.9 L1245.53 1568.04 L1239.65 1568.04 L1239.65 1532.4 L1245.53 1532.4 L1245.53 1537.93 Q1247.64 1534.72 1250.47 1533.13 Q1253.33 1531.54 1257.06 1531.54 Q1263.2 1531.54 1266.35 1535.36 Q1269.5 1539.14 1269.5 1546.53 Z" fill="#000000" fill-rule="nonzero" fill-opacity="1" /><path clip-path="url(#clip190)" d="M1301.68 1518.52 L1307.57 1518.52 L1307.57 1547.77 L1325.04 1532.4 L1332.52 1532.4 L1313.62 1549.07 L1333.32 1568.04 L1325.68 1568.04 L1307.57 1550.63 L1307.57 1568.04 L1301.68 1568.04 L1301.68 1518.52 Z" fill="#000000" fill-rule="nonzero" fill-opacity="1" /><path clip-path="url(#clip190)" d="M1367.82 1548.76 L1367.82 1551.62 L1340.89 1551.62 Q1341.27 1557.67 1344.52 1560.85 Q1347.8 1564 1353.62 1564 Q1357 1564 1360.15 1563.17 Q1363.33 1562.35 1366.45 1560.69 L1366.45 1566.23 Q1363.3 1567.57 1359.99 1568.27 Q1356.68 1568.97 1353.27 1568.97 Q1344.74 1568.97 1339.75 1564 Q1334.78 1559.04 1334.78 1550.57 Q1334.78 1541.82 1339.49 1536.69 Q1344.23 1531.54 1352.26 1531.54 Q1359.45 1531.54 1363.62 1536.18 Q1367.82 1540.8 1367.82 1548.76 M1361.96 1547.04 Q1361.9 1542.23 1359.26 1539.37 Q1356.65 1536.5 1352.32 1536.5 Q1347.42 1536.5 1344.46 1539.27 Q1341.53 1542.04 1341.08 1547.07 L1361.96 1547.04 Z" fill="#000000" fill-rule="nonzero" fill-opacity="1" /><path clip-path="url(#clip190)" d="M1389.94 1568.04 L1371.8 1520.52 L1378.51 1520.52 L1393.57 1560.53 L1408.66 1520.52 L1415.34 1520.52 L1397.23 1568.04 L1389.94 1568.04 Z" fill="#000000" fill-rule="nonzero" fill-opacity="1" /><polyline clip-path="url(#clip190)" style="stroke:#000000; stroke-linecap:round; stroke-linejoin:round; stroke-width:4; stroke-opacity:1; fill:none" points="222.69,1423.18 222.69,123.472 "/>
<polyline clip-path="url(#clip190)" style="stroke:#000000; stroke-linecap:round; stroke-linejoin:round; stroke-width:4; stroke-opacity:1; fill:none" points="222.69,1083.61 241.588,1083.61 "/>
<polyline clip-path="url(#clip190)" style="stroke:#000000; stroke-linecap:round; stroke-linejoin:round; stroke-width:4; stroke-opacity:1; fill:none" points="222.69,478.038 241.588,478.038 "/>
<path clip-path="url(#clip190)" d="M117.565 1103.4 L125.203 1103.4 L125.203 1077.04 L116.893 1078.7 L116.893 1074.44 L125.157 1072.78 L129.833 1072.78 L129.833 1103.4 L137.472 1103.4 L137.472 1107.34 L117.565 1107.34 L117.565 1103.4 Z" fill="#000000" fill-rule="nonzero" fill-opacity="1" /><path clip-path="url(#clip190)" d="M156.916 1075.86 Q153.305 1075.86 151.476 1079.42 Q149.671 1082.96 149.671 1090.09 Q149.671 1097.2 151.476 1100.76 Q153.305 1104.31 156.916 1104.31 Q160.55 1104.31 162.356 1100.76 Q164.185 1097.2 164.185 1090.09 Q164.185 1082.96 162.356 1079.42 Q160.55 1075.86 156.916 1075.86 M156.916 1072.15 Q162.726 1072.15 165.782 1076.76 Q168.861 1081.34 168.861 1090.09 Q168.861 1098.82 165.782 1103.43 Q162.726 1108.01 156.916 1108.01 Q151.106 1108.01 148.027 1103.43 Q144.972 1098.82 144.972 1090.09 Q144.972 1081.34 148.027 1076.76 Q151.106 1072.15 156.916 1072.15 Z" fill="#000000" fill-rule="nonzero" fill-opacity="1" /><path clip-path="url(#clip190)" d="M173.431 1076.73 L186.69 1076.73 L186.69 1079.93 L168.861 1079.93 L168.861 1076.73 Q171.023 1074.49 174.747 1070.73 Q178.49 1066.95 179.449 1065.86 Q181.274 1063.81 181.988 1062.4 Q182.722 1060.97 182.722 1059.6 Q182.722 1057.36 181.142 1055.95 Q179.581 1054.54 177.061 1054.54 Q175.274 1054.54 173.28 1055.16 Q171.306 1055.78 169.049 1057.04 L169.049 1053.2 Q171.343 1052.28 173.337 1051.81 Q175.33 1051.34 176.986 1051.34 Q181.349 1051.34 183.944 1053.52 Q186.54 1055.7 186.54 1059.35 Q186.54 1061.08 185.882 1062.64 Q185.242 1064.19 183.531 1066.29 Q183.06 1066.84 180.54 1069.45 Q178.02 1072.05 173.431 1076.73 Z" fill="#000000" fill-rule="nonzero" fill-opacity="1" /><path clip-path="url(#clip190)" d="M114.931 497.831 L122.57 497.831 L122.57 471.465 L114.26 473.132 L114.26 468.873 L122.524 467.206 L127.2 467.206 L127.2 497.831 L134.839 497.831 L134.839 501.766 L114.931 501.766 L114.931 497.831 Z" fill="#000000" fill-rule="nonzero" fill-opacity="1" /><path clip-path="url(#clip190)" d="M154.283 470.285 Q150.672 470.285 148.843 473.85 Q147.038 477.391 147.038 484.521 Q147.038 491.627 148.843 495.192 Q150.672 498.734 154.283 498.734 Q157.917 498.734 159.723 495.192 Q161.552 491.627 161.552 484.521 Q161.552 477.391 159.723 473.85 Q157.917 470.285 154.283 470.285 M154.283 466.581 Q160.093 466.581 163.149 471.188 Q166.227 475.771 166.227 484.521 Q166.227 493.248 163.149 497.854 Q160.093 502.437 154.283 502.437 Q148.473 502.437 145.394 497.854 Q142.339 493.248 142.339 484.521 Q142.339 475.771 145.394 471.188 Q148.473 466.581 154.283 466.581 Z" fill="#000000" fill-rule="nonzero" fill-opacity="1" /><path clip-path="url(#clip190)" d="M178.904 449.586 L169.312 464.576 L178.904 464.576 L178.904 449.586 M177.907 446.276 L182.684 446.276 L182.684 464.576 L186.69 464.576 L186.69 467.735 L182.684 467.735 L182.684 474.356 L178.904 474.356 L178.904 467.735 L166.227 467.735 L166.227 464.068 L177.907 446.276 Z" fill="#000000" fill-rule="nonzero" fill-opacity="1" /><path clip-path="url(#clip190)" d="M29.7248 850.669 L35.1993 850.669 Q33.8307 853.152 33.1623 855.666 Q32.4621 858.149 32.4621 860.695 Q32.4621 866.393 36.0905 869.544 Q39.6872 872.695 46.212 872.695 Q52.7369 872.695 56.3653 869.544 Q59.9619 866.393 59.9619 860.695 Q59.9619 858.149 59.2935 855.666 Q58.5933 853.152 57.2247 850.669 L62.6355 850.669 Q63.7814 853.12 64.3543 855.762 Q64.9272 858.372 64.9272 861.332 Q64.9272 869.384 59.8664 874.127 Q54.8057 878.869 46.212 878.869 Q37.491 878.869 32.4939 874.095 Q27.4968 869.289 27.4968 860.95 Q27.4968 858.245 28.0697 855.666 Q28.6108 853.088 29.7248 850.669 Z" fill="#000000" fill-rule="nonzero" fill-opacity="1" /><path clip-path="url(#clip190)" d="M32.4621 826.671 Q32.4621 831.381 36.1542 834.118 Q39.8145 836.856 46.212 836.856 Q52.6095 836.856 56.3017 834.15 Q59.9619 831.413 59.9619 826.671 Q59.9619 821.992 56.2698 819.255 Q52.5777 816.517 46.212 816.517 Q39.8781 816.517 36.186 819.255 Q32.4621 821.992 32.4621 826.671 M27.4968 826.671 Q27.4968 819.032 32.4621 814.671 Q37.4273 810.311 46.212 810.311 Q54.9649 810.311 59.9619 814.671 Q64.9272 819.032 64.9272 826.671 Q64.9272 834.341 59.9619 838.702 Q54.9649 843.03 46.212 843.03 Q37.4273 843.03 32.4621 838.702 Q27.4968 834.341 27.4968 826.671 Z" fill="#000000" fill-rule="nonzero" fill-opacity="1" /><path clip-path="url(#clip190)" d="M49.9359 801.208 L28.3562 801.208 L28.3562 795.351 L49.7131 795.351 Q54.7739 795.351 57.3202 793.378 Q59.8346 791.405 59.8346 787.458 Q59.8346 782.715 56.8109 779.978 Q53.7872 777.209 48.5673 777.209 L28.3562 777.209 L28.3562 771.353 L64.0042 771.353 L64.0042 777.209 L58.5296 777.209 Q61.7762 779.342 63.3676 782.174 Q64.9272 784.975 64.9272 788.699 Q64.9272 794.842 61.1078 798.025 Q57.2883 801.208 49.9359 801.208 M27.4968 786.471 L27.4968 786.471 Z" fill="#000000" fill-rule="nonzero" fill-opacity="1" /><path clip-path="url(#clip190)" d="M42.4881 729.657 L64.0042 729.657 L64.0042 735.514 L42.679 735.514 Q37.6183 735.514 35.1038 737.487 Q32.5894 739.46 32.5894 743.407 Q32.5894 748.15 35.6131 750.887 Q38.6368 753.624 43.8567 753.624 L64.0042 753.624 L64.0042 759.512 L28.3562 759.512 L28.3562 753.624 L33.8944 753.624 Q30.6797 751.523 29.0883 748.691 Q27.4968 745.826 27.4968 742.102 Q27.4968 735.959 31.3163 732.808 Q35.1038 729.657 42.4881 729.657 Z" fill="#000000" fill-rule="nonzero" fill-opacity="1" /><path clip-path="url(#clip190)" d="M18.2347 712.183 L28.3562 712.183 L28.3562 700.12 L32.9077 700.12 L32.9077 712.183 L52.2594 712.183 Q56.6199 712.183 57.8613 711.006 Q59.1026 709.796 59.1026 706.136 L59.1026 700.12 L64.0042 700.12 L64.0042 706.136 Q64.0042 712.915 61.4897 715.494 Q58.9434 718.072 52.2594 718.072 L32.9077 718.072 L32.9077 722.369 L28.3562 722.369 L28.3562 718.072 L18.2347 718.072 L18.2347 712.183 Z" fill="#000000" fill-rule="nonzero" fill-opacity="1" /><path clip-path="url(#clip190)" d="M29.4065 669.692 L34.9447 669.692 Q33.6716 672.175 33.035 674.849 Q32.3984 677.522 32.3984 680.387 Q32.3984 684.747 33.7352 686.943 Q35.072 689.108 37.7456 689.108 Q39.7826 689.108 40.9603 687.548 Q42.1061 685.988 43.1565 681.278 L43.6021 679.273 Q44.9389 673.034 47.3897 670.424 Q49.8086 667.783 54.1691 667.783 Q59.1344 667.783 62.0308 671.729 Q64.9272 675.644 64.9272 682.519 Q64.9272 685.384 64.3543 688.503 Q63.8132 691.59 62.6992 695.028 L56.6518 695.028 Q58.3387 691.781 59.198 688.63 Q60.0256 685.479 60.0256 682.392 Q60.0256 678.254 58.6251 676.026 Q57.1929 673.798 54.6147 673.798 Q52.2276 673.798 50.9545 675.421 Q49.6813 677.013 48.5037 682.456 L48.0262 684.493 Q46.8804 689.935 44.5251 692.354 Q42.138 694.773 38.0002 694.773 Q32.9713 694.773 30.2341 691.208 Q27.4968 687.644 27.4968 681.087 Q27.4968 677.84 27.9743 674.976 Q28.4517 672.111 29.4065 669.692 Z" fill="#000000" fill-rule="nonzero" fill-opacity="1" /><path clip-path="url(#clip190)" d="M940.621 12.096 L978.862 12.096 L978.862 18.9825 L948.804 18.9825 L948.804 36.8875 L977.606 36.8875 L977.606 43.7741 L948.804 43.7741 L948.804 65.6895 L979.591 65.6895 L979.591 72.576 L940.621 72.576 L940.621 12.096 Z" fill="#000000" fill-rule="nonzero" fill-opacity="1" /><path clip-path="url(#clip190)" d="M1030.43 45.1919 L1030.43 72.576 L1022.98 72.576 L1022.98 45.4349 Q1022.98 38.994 1020.46 35.7938 Q1017.95 32.5936 1012.93 32.5936 Q1006.89 32.5936 1003.41 36.4419 Q999.927 40.2903 999.927 46.9338 L999.927 72.576 L992.432 72.576 L992.432 27.2059 L999.927 27.2059 L999.927 34.2544 Q1002.6 30.163 1006.21 28.1376 Q1009.85 26.1121 1014.59 26.1121 Q1022.41 26.1121 1026.42 30.9732 Q1030.43 35.7938 1030.43 45.1919 Z" fill="#000000" fill-rule="nonzero" fill-opacity="1" /><path clip-path="url(#clip190)" d="M1084.1 48.0275 L1084.1 51.6733 L1049.83 51.6733 Q1050.32 59.3701 1054.45 63.421 Q1058.62 67.4314 1066.04 67.4314 Q1070.33 67.4314 1074.34 66.3781 Q1078.39 65.3249 1082.36 63.2184 L1082.36 70.267 Q1078.35 71.9684 1074.14 72.8596 Q1069.93 73.7508 1065.59 73.7508 Q1054.74 73.7508 1048.38 67.4314 Q1042.06 61.1119 1042.06 50.3365 Q1042.06 39.1965 1048.05 32.6746 Q1054.09 26.1121 1064.3 26.1121 Q1073.45 26.1121 1078.76 32.0264 Q1084.1 37.9003 1084.1 48.0275 M1076.65 45.84 Q1076.57 39.7232 1073.21 36.0774 Q1069.89 32.4315 1064.38 32.4315 Q1058.14 32.4315 1054.37 35.9558 Q1050.64 39.4801 1050.08 45.8805 L1076.65 45.84 Z" fill="#000000" fill-rule="nonzero" fill-opacity="1" /><path clip-path="url(#clip190)" d="M1122.63 34.1734 Q1121.37 33.4443 1119.87 33.1202 Q1118.42 32.7556 1116.63 32.7556 Q1110.31 32.7556 1106.91 36.8875 Q1103.55 40.9789 1103.55 48.6757 L1103.55 72.576 L1096.05 72.576 L1096.05 27.2059 L1103.55 27.2059 L1103.55 34.2544 Q1105.9 30.1225 1109.67 28.1376 Q1113.43 26.1121 1118.82 26.1121 Q1119.59 26.1121 1120.52 26.2337 Q1121.45 26.3147 1122.59 26.5172 L1122.63 34.1734 Z" fill="#000000" fill-rule="nonzero" fill-opacity="1" /><path clip-path="url(#clip190)" d="M1158.84 49.3643 Q1158.84 41.2625 1155.48 36.8065 Q1152.16 32.3505 1146.12 32.3505 Q1140.13 32.3505 1136.77 36.8065 Q1133.44 41.2625 1133.44 49.3643 Q1133.44 57.4256 1136.77 61.8816 Q1140.13 66.3376 1146.12 66.3376 Q1152.16 66.3376 1155.48 61.8816 Q1158.84 57.4256 1158.84 49.3643 M1166.3 66.9452 Q1166.3 78.5308 1161.15 84.1616 Q1156.01 89.8329 1145.39 89.8329 Q1141.47 89.8329 1137.98 89.2252 Q1134.5 88.6581 1131.22 87.4428 L1131.22 80.1917 Q1134.5 81.9741 1137.7 82.8248 Q1140.9 83.6755 1144.22 83.6755 Q1151.55 83.6755 1155.2 79.8271 Q1158.84 76.0193 1158.84 68.282 L1158.84 64.5957 Q1156.53 68.6061 1152.93 70.5911 Q1149.32 72.576 1144.3 72.576 Q1135.96 72.576 1130.85 66.2161 Q1125.75 59.8562 1125.75 49.3643 Q1125.75 38.832 1130.85 32.472 Q1135.96 26.1121 1144.3 26.1121 Q1149.32 26.1121 1152.93 28.0971 Q1156.53 30.082 1158.84 34.0924 L1158.84 27.2059 L1166.3 27.2059 L1166.3 66.9452 Z" fill="#000000" fill-rule="nonzero" fill-opacity="1" /><path clip-path="url(#clip190)" d="M1200.53 76.7889 Q1197.37 84.8907 1194.37 87.3618 Q1191.37 89.8329 1186.35 89.8329 L1180.39 89.8329 L1180.39 83.5945 L1184.77 83.5945 Q1187.85 83.5945 1189.55 82.1361 Q1191.25 80.6778 1193.32 75.2496 L1194.65 71.8468 L1176.3 27.2059 L1184.2 27.2059 L1198.38 62.6918 L1212.56 27.2059 L1220.46 27.2059 L1200.53 76.7889 Z" fill="#000000" fill-rule="nonzero" fill-opacity="1" /><path clip-path="url(#clip190)" d="M1286.04 28.5427 L1286.04 35.5912 Q1282.88 33.9709 1279.48 33.1607 Q1276.08 32.3505 1272.43 32.3505 Q1266.88 32.3505 1264.09 34.0519 Q1261.33 35.7533 1261.33 39.156 Q1261.33 41.7486 1263.32 43.2475 Q1265.3 44.7058 1271.3 46.0426 L1273.85 46.6097 Q1281.79 48.3111 1285.11 51.4303 Q1288.47 54.509 1288.47 60.0587 Q1288.47 66.3781 1283.45 70.0644 Q1278.47 73.7508 1269.72 73.7508 Q1266.07 73.7508 1262.1 73.0216 Q1258.17 72.3329 1253.8 70.9151 L1253.8 63.2184 Q1257.93 65.3654 1261.94 66.4591 Q1265.95 67.5124 1269.88 67.5124 Q1275.15 67.5124 1277.98 65.73 Q1280.82 63.9071 1280.82 60.6258 Q1280.82 57.5877 1278.75 55.9673 Q1276.72 54.3469 1269.8 52.8481 L1267.21 52.2405 Q1260.28 50.7821 1257.2 47.7845 Q1254.12 44.7463 1254.12 39.4801 Q1254.12 33.0797 1258.66 29.5959 Q1263.19 26.1121 1271.54 26.1121 Q1275.67 26.1121 1279.32 26.7198 Q1282.96 27.3274 1286.04 28.5427 Z" fill="#000000" fill-rule="nonzero" fill-opacity="1" /><path clip-path="url(#clip190)" d="M1307.55 65.7705 L1307.55 89.8329 L1300.06 89.8329 L1300.06 27.2059 L1307.55 27.2059 L1307.55 34.0924 Q1309.9 30.0415 1313.47 28.0971 Q1317.07 26.1121 1322.05 26.1121 Q1330.32 26.1121 1335.46 32.6746 Q1340.65 39.2371 1340.65 49.9314 Q1340.65 60.6258 1335.46 67.1883 Q1330.32 73.7508 1322.05 73.7508 Q1317.07 73.7508 1313.47 71.8063 Q1309.9 69.8214 1307.55 65.7705 M1332.91 49.9314 Q1332.91 41.7081 1329.51 37.0496 Q1326.15 32.3505 1320.23 32.3505 Q1314.32 32.3505 1310.91 37.0496 Q1307.55 41.7081 1307.55 49.9314 Q1307.55 58.1548 1310.91 62.8538 Q1314.32 67.5124 1320.23 67.5124 Q1326.15 67.5124 1329.51 62.8538 Q1332.91 58.1548 1332.91 49.9314 Z" fill="#000000" fill-rule="nonzero" fill-opacity="1" /><path clip-path="url(#clip190)" d="M1391.81 48.0275 L1391.81 51.6733 L1357.54 51.6733 Q1358.03 59.3701 1362.16 63.421 Q1366.33 67.4314 1373.74 67.4314 Q1378.04 67.4314 1382.05 66.3781 Q1386.1 65.3249 1390.07 63.2184 L1390.07 70.267 Q1386.06 71.9684 1381.85 72.8596 Q1377.63 73.7508 1373.3 73.7508 Q1362.44 73.7508 1356.08 67.4314 Q1349.76 61.1119 1349.76 50.3365 Q1349.76 39.1965 1355.76 32.6746 Q1361.79 26.1121 1372 26.1121 Q1381.16 26.1121 1386.46 32.0264 Q1391.81 37.9003 1391.81 48.0275 M1384.36 45.84 Q1384.28 39.7232 1380.91 36.0774 Q1377.59 32.4315 1372.08 32.4315 Q1365.84 32.4315 1362.08 35.9558 Q1358.35 39.4801 1357.78 45.8805 L1384.36 45.84 Z" fill="#000000" fill-rule="nonzero" fill-opacity="1" /><path clip-path="url(#clip190)" d="M1436.7 28.9478 L1436.7 35.9153 Q1433.54 34.1734 1430.34 33.3227 Q1427.18 32.4315 1423.93 32.4315 Q1416.68 32.4315 1412.67 37.0496 Q1408.66 41.6271 1408.66 49.9314 Q1408.66 58.2358 1412.67 62.8538 Q1416.68 67.4314 1423.93 67.4314 Q1427.18 67.4314 1430.34 66.5807 Q1433.54 65.6895 1436.7 63.9476 L1436.7 70.8341 Q1433.58 72.2924 1430.21 73.0216 Q1426.89 73.7508 1423.12 73.7508 Q1412.88 73.7508 1406.84 67.3098 Q1400.8 60.8689 1400.8 49.9314 Q1400.8 38.832 1406.88 32.472 Q1413 26.1121 1423.61 26.1121 Q1427.05 26.1121 1430.34 26.8413 Q1433.62 27.5299 1436.7 28.9478 Z" fill="#000000" fill-rule="nonzero" fill-opacity="1" /><path clip-path="url(#clip190)" d="M1457.03 14.324 L1457.03 27.2059 L1472.38 27.2059 L1472.38 32.9987 L1457.03 32.9987 L1457.03 57.6282 Q1457.03 63.1779 1458.53 64.7578 Q1460.07 66.3376 1464.73 66.3376 L1472.38 66.3376 L1472.38 72.576 L1464.73 72.576 Q1456.1 72.576 1452.82 69.3758 Q1449.54 66.1351 1449.54 57.6282 L1449.54 32.9987 L1444.07 32.9987 L1444.07 27.2059 L1449.54 27.2059 L1449.54 14.324 L1457.03 14.324 Z" fill="#000000" fill-rule="nonzero" fill-opacity="1" /><path clip-path="url(#clip190)" d="M1508.48 34.1734 Q1507.22 33.4443 1505.72 33.1202 Q1504.26 32.7556 1502.48 32.7556 Q1496.16 32.7556 1492.76 36.8875 Q1489.4 40.9789 1489.4 48.6757 L1489.4 72.576 L1481.9 72.576 L1481.9 27.2059 L1489.4 27.2059 L1489.4 34.2544 Q1491.75 30.1225 1495.51 28.1376 Q1499.28 26.1121 1504.67 26.1121 Q1505.44 26.1121 1506.37 26.2337 Q1507.3 26.3147 1508.44 26.5172 L1508.48 34.1734 Z" fill="#000000" fill-rule="nonzero" fill-opacity="1" /><path clip-path="url(#clip190)" d="M1515.53 54.671 L1515.53 27.2059 L1522.98 27.2059 L1522.98 54.3874 Q1522.98 60.8284 1525.49 64.0691 Q1528 67.2693 1533.03 67.2693 Q1539.06 67.2693 1542.55 63.421 Q1546.07 59.5726 1546.07 52.9291 L1546.07 27.2059 L1553.52 27.2059 L1553.52 72.576 L1546.07 72.576 L1546.07 65.6084 Q1543.36 69.7404 1539.75 71.7658 Q1536.19 73.7508 1531.45 73.7508 Q1523.63 73.7508 1519.58 68.8897 Q1515.53 64.0286 1515.53 54.671 M1534.28 26.1121 L1534.28 26.1121 Z" fill="#000000" fill-rule="nonzero" fill-opacity="1" /><path clip-path="url(#clip190)" d="M1604.2 35.9153 Q1607 30.8922 1610.88 28.5022 Q1614.77 26.1121 1620.04 26.1121 Q1627.13 26.1121 1630.98 31.0947 Q1634.82 36.0368 1634.82 45.1919 L1634.82 72.576 L1627.33 72.576 L1627.33 45.4349 Q1627.33 38.913 1625.02 35.7533 Q1622.71 32.5936 1617.97 32.5936 Q1612.18 32.5936 1608.82 36.4419 Q1605.46 40.2903 1605.46 46.9338 L1605.46 72.576 L1597.96 72.576 L1597.96 45.4349 Q1597.96 38.8725 1595.65 35.7533 Q1593.34 32.5936 1588.52 32.5936 Q1582.81 32.5936 1579.45 36.4824 Q1576.09 40.3308 1576.09 46.9338 L1576.09 72.576 L1568.59 72.576 L1568.59 27.2059 L1576.09 27.2059 L1576.09 34.2544 Q1578.64 30.082 1582.2 28.0971 Q1585.77 26.1121 1590.67 26.1121 Q1595.61 26.1121 1599.06 28.6237 Q1602.54 31.1352 1604.2 35.9153 Z" fill="#000000" fill-rule="nonzero" fill-opacity="1" /><polyline clip-path="url(#clip192)" style="stroke:#009af9; stroke-linecap:round; stroke-linejoin:round; stroke-width:4; stroke-opacity:1; fill:none" points="222.69,1386.4 222.69,799.137 229.791,799.137 229.791,802.195 236.891,802.195 236.891,818.654 243.991,818.654 243.991,790.367 251.091,790.367 251.091,800.657 258.191,800.657 258.191,799.137 265.292,799.137 265.292,790.367 272.392,790.367 272.392,800.657 279.492,800.657 279.492,803.751 286.592,803.751 286.592,811.821 293.693,811.821 293.693,803.751 300.793,803.751 300.793,805.326 307.893,805.326 307.893,816.912 314.993,816.912 314.993,803.751 322.093,803.751 322.093,831.538 329.194,831.538 329.194,815.193 336.294,815.193 336.294,788.961 343.394,788.961 343.394,813.496 350.494,813.496 350.494,810.167 357.594,810.167 357.594,787.569 364.695,787.569 364.695,771.927 371.795,771.927 371.795,803.751 378.895,803.751 378.895,799.137 385.995,799.137 385.995,774.408 393.096,774.408 393.096,788.961 400.196,788.961 400.196,805.326 407.296,805.326 407.296,793.226 414.396,793.226 414.396,810.167 421.496,810.167 421.496,784.83 428.597,784.83 428.597,806.92 435.697,806.92 435.697,810.167 442.797,810.167 442.797,791.789 449.897,791.789 449.897,797.634 456.998,797.634 456.998,816.912 464.098,816.912 464.098,818.654 471.198,818.654 471.198,831.538 478.298,831.538 478.298,787.569 485.398,787.569 485.398,805.326 492.499,805.326 492.499,806.92 499.599,806.92 499.599,803.751 506.699,803.751 506.699,793.226 513.799,793.226 513.799,813.496 520.9,813.496 520.9,803.751 528,803.751 528,797.634 535.1,797.634 535.1,791.789 542.2,791.789 542.2,829.618 549.3,829.618 549.3,802.195 556.401,802.195 556.401,818.654 563.501,818.654 570.601,818.654 570.601,794.679 577.701,794.679 577.701,800.657 584.801,800.657 584.801,776.937 591.902,776.937 591.902,816.912 599.002,816.912 599.002,797.634 606.102,797.634 613.202,797.634 613.202,811.821 620.303,811.821 620.303,806.92 627.403,806.92 627.403,796.148 634.503,796.148 634.503,799.137 641.603,799.137 641.603,813.496 648.703,813.496 648.703,806.92 655.804,806.92 655.804,802.195 662.904,802.195 662.904,816.912 670.004,816.912 670.004,813.496 677.104,813.496 677.104,774.408 684.205,774.408 684.205,803.751 691.305,803.751 691.305,778.22 698.405,778.22 698.405,831.538 705.505,831.538 705.505,802.195 712.605,802.195 712.605,800.657 719.706,800.657 719.706,805.326 726.806,805.326 726.806,791.789 733.906,791.789 733.906,811.821 741.006,811.821 741.006,796.148 748.107,796.148 748.107,820.419 755.207,820.419 755.207,787.569 762.307,787.569 762.307,790.367 769.407,790.367 769.407,802.195 776.507,802.195 776.507,791.789 783.608,791.789 783.608,815.193 790.708,815.193 790.708,786.192 797.808,786.192 797.808,800.657 804.908,800.657 804.908,831.538 812.008,831.538 812.008,803.751 819.109,803.751 819.109,815.193 826.209,815.193 826.209,771.927 833.309,771.927 833.309,788.961 840.409,788.961 840.409,773.162 847.51,773.162 847.51,810.167 854.61,810.167 854.61,774.408 861.71,774.408 861.71,791.789 868.81,791.789 868.81,806.92 875.91,806.92 875.91,839.51 883.011,839.51 883.011,773.162 890.111,773.162 890.111,806.92 897.211,806.92 897.211,786.192 904.311,786.192 904.311,799.137 911.412,799.137 911.412,793.226 918.512,793.226 918.512,800.657 925.612,800.657 925.612,778.22 932.712,778.22 932.712,780.824 939.812,780.824 939.812,793.226 946.913,793.226 946.913,796.148 954.013,796.148 954.013,774.408 961.113,774.408 961.113,799.137 968.213,799.137 968.213,811.821 975.313,811.821 975.313,800.657 982.414,800.657 982.414,835.464 989.514,835.464 989.514,783.481 996.614,783.481 996.614,770.704 1003.71,770.704 1003.71,786.192 1010.81,786.192 1010.81,794.679 1017.91,794.679 1017.91,768.291 1025.02,768.291 1025.02,790.367 1032.12,790.367 1032.12,782.146 1039.22,782.146 1039.22,796.148 1046.32,796.148 1046.32,764.753 1053.42,764.753 1053.42,780.824 1060.52,780.824 1060.52,771.927 1067.62,771.927 1074.72,771.927 1074.72,787.569 1081.82,787.569 1081.82,764.753 1088.92,764.753 1088.92,803.751 1096.02,803.751 1096.02,764.753 1103.12,764.753 1103.12,783.481 1110.22,783.481 1110.22,767.101 1117.32,767.101 1117.32,802.195 1124.42,802.195 1124.42,793.226 1131.52,793.226 1131.52,791.789 1138.62,791.789 1138.62,782.146 1145.72,782.146 1145.72,768.291 1152.82,768.291 1152.82,780.824 1159.92,780.824 1159.92,787.569 1167.02,787.569 1167.02,755.758 1174.12,755.758 1174.12,769.492 1181.22,769.492 1181.22,776.937 1188.32,776.937 1188.32,768.291 1195.42,768.291 1195.42,786.192 1202.52,786.192 1202.52,767.101 1209.62,767.101 1209.62,754.676 1216.72,754.676 1216.72,759.059 1223.82,759.059 1223.82,775.667 1230.92,775.667 1230.92,778.22 1238.02,778.22 1238.02,769.492 1245.12,769.492 1245.12,755.758 1252.22,755.758 1252.22,756.849 1259.32,756.849 1259.32,765.922 1266.42,765.922 1266.42,759.059 1273.52,759.059 1273.52,782.146 1280.62,782.146 1280.62,760.178 1287.72,760.178 1294.82,760.178 1294.82,776.937 1301.92,776.937 1301.92,761.307 1309.02,761.307 1309.02,764.753 1316.12,764.753 1316.12,782.146 1323.22,782.146 1323.22,756.849 1330.32,756.849 1330.32,764.753 1337.42,764.753 1337.42,749.394 1344.52,749.394 1344.52,773.162 1351.63,773.162 1351.63,548.54 1358.73,548.54 1358.73,748.363 1365.83,748.363 1365.83,732.874 1372.93,732.874 1372.93,734.713 1380.03,734.713 1380.03,730.163 1387.13,730.163 1387.13,723.194 1394.23,723.194 1394.23,717.386 1401.33,717.386 1401.33,723.194 1408.43,723.194 1408.43,720.674 1415.53,720.674 1415.53,714.973 1422.63,714.973 1422.63,715.773 1429.73,715.773 1429.73,712.604 1436.83,712.604 1436.83,717.386 1443.93,717.386 1443.93,718.2 1451.03,718.2 1451.03,705.741 1458.13,705.741 1458.13,709.51 1465.23,709.51 1465.23,693.682 1472.33,693.682 1472.33,711.048 1479.43,711.048 1479.43,721.509 1486.53,721.509 1486.53,714.179 1493.63,714.179 1493.63,711.048 1500.73,711.048 1500.73,707.236 1507.83,707.236 1507.83,706.486 1514.93,706.486 1514.93,695.045 1522.03,695.045 1522.03,721.509 1529.13,721.509 1529.13,706.486 1536.23,706.486 1536.23,693.006 1543.33,693.006 1543.33,699.928 1550.43,699.928 1550.43,697.813 1557.53,697.813 1557.53,690.336 1564.63,690.336 1564.63,671.298 1571.73,671.298 1571.73,704.264 1578.83,704.264 1578.83,702.803 1585.93,702.803 1585.93,695.045 1593.03,695.045 1593.03,690.336 1600.13,690.336 1600.13,691.664 1607.23,691.664 1607.23,674.188 1614.33,674.188 1614.33,686.43 1621.43,686.43 1621.43,711.048 1628.53,711.048 1635.63,711.048 1635.63,683.888 1642.73,683.888 1642.73,685.79 1649.83,685.79 1649.83,674.188 1656.93,674.188 1656.93,683.888 1664.03,683.888 1664.03,684.519 1671.13,684.519 1671.13,685.79 1678.24,685.79 1678.24,677.743 1685.34,677.743 1685.34,686.43 1692.44,686.43 1692.44,675.953 1699.54,675.953 1699.54,683.888 1706.64,683.888 1706.64,675.953 1713.74,675.953 1713.74,439.259 1720.84,439.259 1720.84,646.848 1727.94,646.848 1727.94,643.566 1735.04,643.566 1735.04,663.528 1742.14,663.528 1742.14,658.765 1749.24,658.765 1749.24,650.701 1756.34,650.701 1756.34,642.643 1763.44,642.643 1763.44,647.801 1770.54,647.801 1770.54,644.962 1777.64,644.962 1777.64,630.361 1784.74,630.361 1784.74,627.872 1791.84,627.872 1791.84,628.696 1798.94,628.696 1798.94,625.026 1806.04,625.026 1806.04,623.428 1813.14,623.428 1813.14,623.826 1820.24,623.826 1820.24,608.072 1827.34,608.072 1827.34,604.584 1834.44,604.584 1834.44,602.196 1841.54,602.196 1841.54,618.362 1848.64,618.362 1848.64,611.292 1855.74,611.292 1855.74,585.102 1862.84,585.102 1862.84,581.588 1869.94,581.588 1869.94,590.248 1877.04,590.248 1877.04,573.735 1884.14,573.735 1884.14,563.776 1891.24,563.776 1891.24,572.921 1898.34,572.921 1898.34,554.519 1905.44,554.519 1905.44,564.789 1912.54,564.789 1912.54,596.571 1919.64,596.571 1919.64,604.928 1926.74,604.928 1926.74,623.031 1933.84,623.031 1933.84,631.201 1940.94,631.201 1940.94,646.374 1948.04,646.374 1948.04,651.191 1955.14,651.191 1955.14,658.765 1962.24,658.765 1962.24,672.447 1969.34,672.447 1969.34,702.803 1976.44,702.803 1976.44,731.06 1983.54,731.06 1983.54,765.922 1990.64,765.922 1990.64,791.789 1997.74,791.789 1997.74,871.972 2004.85,871.972 2004.85,894.899 2011.95,894.899 2011.95,979.929 2019.05,979.929 2019.05,952.999 2026.15,952.999 2026.15,1083.61 2033.25,1083.61 2033.25,1150.78 2040.35,1150.78 2040.35,1083.61 2047.45,1083.61 2047.45,1241.93 2054.55,1241.93 2054.55,1150.78 2061.65,1150.78 2061.65,1241.93 2068.75,1241.93 2075.85,1241.93 2075.85,160.256 2082.95,160.256 2082.95,1386.4 "/>
</svg>
