<?xml version="1.0" encoding="utf-8"?>
<svg xmlns="http://www.w3.org/2000/svg" xmlns:xlink="http://www.w3.org/1999/xlink" width="600" height="400" viewBox="0 0 2400 1600">
<defs>
  <clipPath id="clip710">
    <rect x="0" y="0" width="2400" height="1600"/>
  </clipPath>
</defs>
<path clip-path="url(#clip710)" d="M0 1600 L2400 1600 L2400 0 L0 0  Z" fill="#ffffff" fill-rule="evenodd" fill-opacity="1"/>
<defs>
  <clipPath id="clip711">
    <rect x="404" y="47" width="1949" height="1377"/>
  </clipPath>
</defs>
<path clip-path="url(#clip710)" d="M404.386 1423.18 L2352.76 1423.18 L2352.76 47.2441 L404.386 47.2441  Z" fill="#ffffff" fill-rule="evenodd" fill-opacity="1"/>
<polyline clip-path="url(#clip711)" style="stroke:#000000; stroke-linecap:round; stroke-linejoin:round; stroke-width:2; stroke-opacity:0.1; fill:none" points="404.386,1423.18 404.386,47.2441 "/>
<polyline clip-path="url(#clip711)" style="stroke:#000000; stroke-linecap:round; stroke-linejoin:round; stroke-width:2; stroke-opacity:0.1; fill:none" points="794.06,1423.18 794.06,47.2441 "/>
<polyline clip-path="url(#clip711)" style="stroke:#000000; stroke-linecap:round; stroke-linejoin:round; stroke-width:2; stroke-opacity:0.1; fill:none" points="1183.73,1423.18 1183.73,47.2441 "/>
<polyline clip-path="url(#clip711)" style="stroke:#000000; stroke-linecap:round; stroke-linejoin:round; stroke-width:2; stroke-opacity:0.1; fill:none" points="1573.41,1423.18 1573.41,47.2441 "/>
<polyline clip-path="url(#clip711)" style="stroke:#000000; stroke-linecap:round; stroke-linejoin:round; stroke-width:2; stroke-opacity:0.1; fill:none" points="1963.08,1423.18 1963.08,47.2441 "/>
<polyline clip-path="url(#clip711)" style="stroke:#000000; stroke-linecap:round; stroke-linejoin:round; stroke-width:2; stroke-opacity:0.1; fill:none" points="2352.76,1423.18 2352.76,47.2441 "/>
<polyline clip-path="url(#clip711)" style="stroke:#000000; stroke-linecap:round; stroke-linejoin:round; stroke-width:2; stroke-opacity:0.1; fill:none" points="404.386,1423.18 2352.76,1423.18 "/>
<polyline clip-path="url(#clip711)" style="stroke:#000000; stroke-linecap:round; stroke-linejoin:round; stroke-width:2; stroke-opacity:0.1; fill:none" points="404.386,1193.86 2352.76,1193.86 "/>
<polyline clip-path="url(#clip711)" style="stroke:#000000; stroke-linecap:round; stroke-linejoin:round; stroke-width:2; stroke-opacity:0.1; fill:none" points="404.386,964.535 2352.76,964.535 "/>
<polyline clip-path="url(#clip711)" style="stroke:#000000; stroke-linecap:round; stroke-linejoin:round; stroke-width:2; stroke-opacity:0.1; fill:none" points="404.386,735.212 2352.76,735.212 "/>
<polyline clip-path="url(#clip711)" style="stroke:#000000; stroke-linecap:round; stroke-linejoin:round; stroke-width:2; stroke-opacity:0.1; fill:none" points="404.386,505.889 2352.76,505.889 "/>
<polyline clip-path="url(#clip711)" style="stroke:#000000; stroke-linecap:round; stroke-linejoin:round; stroke-width:2; stroke-opacity:0.1; fill:none" points="404.386,276.567 2352.76,276.567 "/>
<polyline clip-path="url(#clip711)" style="stroke:#000000; stroke-linecap:round; stroke-linejoin:round; stroke-width:2; stroke-opacity:0.1; fill:none" points="404.386,47.2441 2352.76,47.2441 "/>
<polyline clip-path="url(#clip710)" style="stroke:#000000; stroke-linecap:round; stroke-linejoin:round; stroke-width:4; stroke-opacity:1; fill:none" points="404.386,1423.18 2352.76,1423.18 "/>
<polyline clip-path="url(#clip710)" style="stroke:#000000; stroke-linecap:round; stroke-linejoin:round; stroke-width:4; stroke-opacity:1; fill:none" points="404.386,1423.18 404.386,1404.28 "/>
<polyline clip-path="url(#clip710)" style="stroke:#000000; stroke-linecap:round; stroke-linejoin:round; stroke-width:4; stroke-opacity:1; fill:none" points="794.06,1423.18 794.06,1404.28 "/>
<polyline clip-path="url(#clip710)" style="stroke:#000000; stroke-linecap:round; stroke-linejoin:round; stroke-width:4; stroke-opacity:1; fill:none" points="1183.73,1423.18 1183.73,1404.28 "/>
<polyline clip-path="url(#clip710)" style="stroke:#000000; stroke-linecap:round; stroke-linejoin:round; stroke-width:4; stroke-opacity:1; fill:none" points="1573.41,1423.18 1573.41,1404.28 "/>
<polyline clip-path="url(#clip710)" style="stroke:#000000; stroke-linecap:round; stroke-linejoin:round; stroke-width:4; stroke-opacity:1; fill:none" points="1963.08,1423.18 1963.08,1404.28 "/>
<polyline clip-path="url(#clip710)" style="stroke:#000000; stroke-linecap:round; stroke-linejoin:round; stroke-width:4; stroke-opacity:1; fill:none" points="2352.76,1423.18 2352.76,1404.28 "/>
<path clip-path="url(#clip710)" d="M404.386 1454.1 Q400.775 1454.1 398.946 1457.66 Q397.141 1461.2 397.141 1468.33 Q397.141 1475.44 398.946 1479.01 Q400.775 1482.55 404.386 1482.55 Q408.02 1482.55 409.826 1479.01 Q411.654 1475.44 411.654 1468.33 Q411.654 1461.2 409.826 1457.66 Q408.02 1454.1 404.386 1454.1 M404.386 1450.39 Q410.196 1450.39 413.252 1455 Q416.33 1459.58 416.33 1468.33 Q416.33 1477.06 413.252 1481.67 Q410.196 1486.25 404.386 1486.25 Q398.576 1486.25 395.497 1481.67 Q392.441 1477.06 392.441 1468.33 Q392.441 1459.58 395.497 1455 Q398.576 1450.39 404.386 1450.39 Z" fill="#000000" fill-rule="nonzero" fill-opacity="1" /><path clip-path="url(#clip710)" d="M788.713 1481.64 L805.032 1481.64 L805.032 1485.58 L783.088 1485.58 L783.088 1481.64 Q785.75 1478.89 790.333 1474.26 Q794.939 1469.61 796.12 1468.27 Q798.365 1465.74 799.245 1464.01 Q800.148 1462.25 800.148 1460.56 Q800.148 1457.8 798.203 1456.07 Q796.282 1454.33 793.18 1454.33 Q790.981 1454.33 788.527 1455.09 Q786.097 1455.86 783.319 1457.41 L783.319 1452.69 Q786.143 1451.55 788.597 1450.97 Q791.051 1450.39 793.088 1450.39 Q798.458 1450.39 801.652 1453.08 Q804.847 1455.77 804.847 1460.26 Q804.847 1462.39 804.037 1464.31 Q803.25 1466.2 801.143 1468.8 Q800.564 1469.47 797.463 1472.69 Q794.361 1475.88 788.713 1481.64 Z" fill="#000000" fill-rule="nonzero" fill-opacity="1" /><path clip-path="url(#clip710)" d="M1186.74 1455.09 L1174.94 1473.54 L1186.74 1473.54 L1186.74 1455.09 M1185.52 1451.02 L1191.4 1451.02 L1191.4 1473.54 L1196.33 1473.54 L1196.33 1477.43 L1191.4 1477.43 L1191.4 1485.58 L1186.74 1485.58 L1186.74 1477.43 L1171.14 1477.43 L1171.14 1472.92 L1185.52 1451.02 Z" fill="#000000" fill-rule="nonzero" fill-opacity="1" /><path clip-path="url(#clip710)" d="M1573.81 1466.44 Q1570.66 1466.44 1568.81 1468.59 Q1566.98 1470.74 1566.98 1474.49 Q1566.98 1478.22 1568.81 1480.39 Q1570.66 1482.55 1573.81 1482.55 Q1576.96 1482.55 1578.79 1480.39 Q1580.64 1478.22 1580.64 1474.49 Q1580.64 1470.74 1578.79 1468.59 Q1576.96 1466.44 1573.81 1466.44 M1583.1 1451.78 L1583.1 1456.04 Q1581.34 1455.21 1579.53 1454.77 Q1577.75 1454.33 1575.99 1454.33 Q1571.36 1454.33 1568.91 1457.45 Q1566.48 1460.58 1566.13 1466.9 Q1567.49 1464.89 1569.55 1463.82 Q1571.61 1462.73 1574.09 1462.73 Q1579.3 1462.73 1582.31 1465.9 Q1585.34 1469.05 1585.34 1474.49 Q1585.34 1479.82 1582.19 1483.03 Q1579.04 1486.25 1573.81 1486.25 Q1567.82 1486.25 1564.65 1481.67 Q1561.48 1477.06 1561.48 1468.33 Q1561.48 1460.14 1565.36 1455.28 Q1569.25 1450.39 1575.8 1450.39 Q1577.56 1450.39 1579.35 1450.74 Q1581.15 1451.09 1583.1 1451.78 Z" fill="#000000" fill-rule="nonzero" fill-opacity="1" /><path clip-path="url(#clip710)" d="M1963.08 1469.17 Q1959.75 1469.17 1957.83 1470.95 Q1955.93 1472.73 1955.93 1475.86 Q1955.93 1478.98 1957.83 1480.77 Q1959.75 1482.55 1963.08 1482.55 Q1966.42 1482.55 1968.34 1480.77 Q1970.26 1478.96 1970.26 1475.86 Q1970.26 1472.73 1968.34 1470.95 Q1966.44 1469.17 1963.08 1469.17 M1958.41 1467.18 Q1955.4 1466.44 1953.71 1464.38 Q1952.04 1462.32 1952.04 1459.35 Q1952.04 1455.21 1954.98 1452.8 Q1957.94 1450.39 1963.08 1450.39 Q1968.24 1450.39 1971.18 1452.8 Q1974.12 1455.21 1974.12 1459.35 Q1974.12 1462.32 1972.43 1464.38 Q1970.77 1466.44 1967.78 1467.18 Q1971.16 1467.96 1973.04 1470.26 Q1974.93 1472.55 1974.93 1475.86 Q1974.93 1480.88 1971.85 1483.57 Q1968.8 1486.25 1963.08 1486.25 Q1957.36 1486.25 1954.29 1483.57 Q1951.23 1480.88 1951.23 1475.86 Q1951.23 1472.55 1953.13 1470.26 Q1955.03 1467.96 1958.41 1467.18 M1956.69 1459.79 Q1956.69 1462.48 1958.36 1463.98 Q1960.05 1465.49 1963.08 1465.49 Q1966.09 1465.49 1967.78 1463.98 Q1969.49 1462.48 1969.49 1459.79 Q1969.49 1457.11 1967.78 1455.6 Q1966.09 1454.1 1963.08 1454.1 Q1960.05 1454.1 1958.36 1455.6 Q1956.69 1457.11 1956.69 1459.79 Z" fill="#000000" fill-rule="nonzero" fill-opacity="1" /><path clip-path="url(#clip710)" d="M2327.44 1481.64 L2335.08 1481.64 L2335.08 1455.28 L2326.77 1456.95 L2326.77 1452.69 L2335.04 1451.02 L2339.71 1451.02 L2339.71 1481.64 L2347.35 1481.64 L2347.35 1485.58 L2327.44 1485.58 L2327.44 1481.64 Z" fill="#000000" fill-rule="nonzero" fill-opacity="1" /><path clip-path="url(#clip710)" d="M2366.8 1454.1 Q2363.18 1454.1 2361.36 1457.66 Q2359.55 1461.2 2359.55 1468.33 Q2359.55 1475.44 2361.36 1479.01 Q2363.18 1482.55 2366.8 1482.55 Q2370.43 1482.55 2372.23 1479.01 Q2374.06 1475.44 2374.06 1468.33 Q2374.06 1461.2 2372.23 1457.66 Q2370.43 1454.1 2366.8 1454.1 M2366.8 1450.39 Q2372.61 1450.39 2375.66 1455 Q2378.74 1459.58 2378.74 1468.33 Q2378.74 1477.06 2375.66 1481.67 Q2372.61 1486.25 2366.8 1486.25 Q2360.99 1486.25 2357.91 1481.67 Q2354.85 1477.06 2354.85 1468.33 Q2354.85 1459.58 2357.91 1455 Q2360.99 1450.39 2366.8 1450.39 Z" fill="#000000" fill-rule="nonzero" fill-opacity="1" /><path clip-path="url(#clip710)" d="M1296.58 1537.87 Q1295.59 1537.3 1294.42 1537.04 Q1293.27 1536.76 1291.87 1536.76 Q1286.9 1536.76 1284.23 1540 Q1281.59 1543.22 1281.59 1549.27 L1281.59 1568.04 L1275.7 1568.04 L1275.7 1532.4 L1281.59 1532.4 L1281.59 1537.93 Q1283.44 1534.69 1286.4 1533.13 Q1289.36 1531.54 1293.59 1531.54 Q1294.19 1531.54 1294.93 1531.63 Q1295.66 1531.7 1296.55 1531.85 L1296.58 1537.87 Z" fill="#000000" fill-rule="nonzero" fill-opacity="1" /><path clip-path="url(#clip710)" d="M1333.85 1520.52 L1339.26 1520.52 L1322.71 1574.09 L1317.3 1574.09 L1333.85 1520.52 Z" fill="#000000" fill-rule="nonzero" fill-opacity="1" /><path clip-path="url(#clip710)" d="M1393.88 1539.24 Q1396.08 1535.29 1399.13 1533.41 Q1402.19 1531.54 1406.33 1531.54 Q1411.9 1531.54 1414.92 1535.45 Q1417.94 1539.33 1417.94 1546.53 L1417.94 1568.04 L1412.05 1568.04 L1412.05 1546.72 Q1412.05 1541.59 1410.24 1539.11 Q1408.43 1536.63 1404.7 1536.63 Q1400.15 1536.63 1397.51 1539.65 Q1394.87 1542.68 1394.87 1547.9 L1394.87 1568.04 L1388.98 1568.04 L1388.98 1546.72 Q1388.98 1541.56 1387.16 1539.11 Q1385.35 1536.63 1381.56 1536.63 Q1377.07 1536.63 1374.43 1539.68 Q1371.79 1542.71 1371.79 1547.9 L1371.79 1568.04 L1365.9 1568.04 L1365.9 1532.4 L1371.79 1532.4 L1371.79 1537.93 Q1373.8 1534.66 1376.6 1533.1 Q1379.4 1531.54 1383.25 1531.54 Q1387.13 1531.54 1389.84 1533.51 Q1392.58 1535.48 1393.88 1539.24 Z" fill="#000000" fill-rule="nonzero" fill-opacity="1" /><path clip-path="url(#clip710)" d="M1457.38 1539.24 Q1459.57 1535.29 1462.63 1533.41 Q1465.69 1531.54 1469.82 1531.54 Q1475.39 1531.54 1478.42 1535.45 Q1481.44 1539.33 1481.44 1546.53 L1481.44 1568.04 L1475.55 1568.04 L1475.55 1546.72 Q1475.55 1541.59 1473.74 1539.11 Q1471.92 1536.63 1468.2 1536.63 Q1463.65 1536.63 1461.01 1539.65 Q1458.37 1542.68 1458.37 1547.9 L1458.37 1568.04 L1452.48 1568.04 L1452.48 1546.72 Q1452.48 1541.56 1450.66 1539.11 Q1448.85 1536.63 1445.06 1536.63 Q1440.57 1536.63 1437.93 1539.68 Q1435.29 1542.71 1435.29 1547.9 L1435.29 1568.04 L1429.4 1568.04 L1429.4 1532.4 L1435.29 1532.4 L1435.29 1537.93 Q1437.29 1534.66 1440.1 1533.1 Q1442.9 1531.54 1446.75 1531.54 Q1450.63 1531.54 1453.34 1533.51 Q1456.07 1535.48 1457.38 1539.24 Z" fill="#000000" fill-rule="nonzero" fill-opacity="1" /><polyline clip-path="url(#clip710)" style="stroke:#000000; stroke-linecap:round; stroke-linejoin:round; stroke-width:4; stroke-opacity:1; fill:none" points="404.386,1423.18 404.386,47.2441 "/>
<polyline clip-path="url(#clip710)" style="stroke:#000000; stroke-linecap:round; stroke-linejoin:round; stroke-width:4; stroke-opacity:1; fill:none" points="404.386,1423.18 423.283,1423.18 "/>
<polyline clip-path="url(#clip710)" style="stroke:#000000; stroke-linecap:round; stroke-linejoin:round; stroke-width:4; stroke-opacity:1; fill:none" points="404.386,1193.86 423.283,1193.86 "/>
<polyline clip-path="url(#clip710)" style="stroke:#000000; stroke-linecap:round; stroke-linejoin:round; stroke-width:4; stroke-opacity:1; fill:none" points="404.386,964.535 423.283,964.535 "/>
<polyline clip-path="url(#clip710)" style="stroke:#000000; stroke-linecap:round; stroke-linejoin:round; stroke-width:4; stroke-opacity:1; fill:none" points="404.386,735.212 423.283,735.212 "/>
<polyline clip-path="url(#clip710)" style="stroke:#000000; stroke-linecap:round; stroke-linejoin:round; stroke-width:4; stroke-opacity:1; fill:none" points="404.386,505.889 423.283,505.889 "/>
<polyline clip-path="url(#clip710)" style="stroke:#000000; stroke-linecap:round; stroke-linejoin:round; stroke-width:4; stroke-opacity:1; fill:none" points="404.386,276.567 423.283,276.567 "/>
<polyline clip-path="url(#clip710)" style="stroke:#000000; stroke-linecap:round; stroke-linejoin:round; stroke-width:4; stroke-opacity:1; fill:none" points="404.386,47.2441 423.283,47.2441 "/>
<path clip-path="url(#clip710)" d="M119.173 1430.08 L148.849 1430.08 L148.849 1434.01 L119.173 1434.01 L119.173 1430.08 Z" fill="#000000" fill-rule="nonzero" fill-opacity="1" /><path clip-path="url(#clip710)" d="M162.969 1442.97 L179.288 1442.97 L179.288 1446.91 L157.344 1446.91 L157.344 1442.97 Q160.006 1440.22 164.589 1435.59 Q169.196 1430.94 170.376 1429.59 Q172.622 1427.07 173.501 1425.33 Q174.404 1423.57 174.404 1421.88 Q174.404 1419.13 172.46 1417.39 Q170.538 1415.66 167.436 1415.66 Q165.237 1415.66 162.784 1416.42 Q160.353 1417.19 157.575 1418.74 L157.575 1414.01 Q160.399 1412.88 162.853 1412.3 Q165.307 1411.72 167.344 1411.72 Q172.714 1411.72 175.909 1414.41 Q179.103 1417.09 179.103 1421.58 Q179.103 1423.71 178.293 1425.63 Q177.506 1427.53 175.399 1430.13 Q174.821 1430.8 171.719 1434.01 Q168.617 1437.21 162.969 1442.97 Z" fill="#000000" fill-rule="nonzero" fill-opacity="1" /><path clip-path="url(#clip710)" d="M189.103 1441.03 L193.987 1441.03 L193.987 1446.91 L189.103 1446.91 L189.103 1441.03 Z" fill="#000000" fill-rule="nonzero" fill-opacity="1" /><path clip-path="url(#clip710)" d="M214.172 1415.43 Q210.561 1415.43 208.732 1418.99 Q206.927 1422.53 206.927 1429.66 Q206.927 1436.77 208.732 1440.33 Q210.561 1443.88 214.172 1443.88 Q217.806 1443.88 219.612 1440.33 Q221.441 1436.77 221.441 1429.66 Q221.441 1422.53 219.612 1418.99 Q217.806 1415.43 214.172 1415.43 M214.172 1411.72 Q219.982 1411.72 223.038 1416.33 Q226.117 1420.91 226.117 1429.66 Q226.117 1438.39 223.038 1443 Q219.982 1447.58 214.172 1447.58 Q208.362 1447.58 205.283 1443 Q202.228 1438.39 202.228 1429.66 Q202.228 1420.91 205.283 1416.33 Q208.362 1411.72 214.172 1411.72 Z" fill="#000000" fill-rule="nonzero" fill-opacity="1" /><path clip-path="url(#clip710)" d="M262.505 1421.44 L251.927 1432.07 L262.505 1442.65 L259.751 1445.45 L249.126 1434.82 L238.501 1445.45 L235.769 1442.65 L246.325 1432.07 L235.769 1421.44 L238.501 1418.64 L249.126 1429.27 L259.751 1418.64 L262.505 1421.44 Z" fill="#000000" fill-rule="nonzero" fill-opacity="1" /><path clip-path="url(#clip710)" d="M274.866 1442.97 L282.505 1442.97 L282.505 1416.61 L274.195 1418.27 L274.195 1414.01 L282.459 1412.35 L287.135 1412.35 L287.135 1442.97 L294.774 1442.97 L294.774 1446.91 L274.866 1446.91 L274.866 1442.97 Z" fill="#000000" fill-rule="nonzero" fill-opacity="1" /><path clip-path="url(#clip710)" d="M314.218 1415.43 Q310.607 1415.43 308.778 1418.99 Q306.973 1422.53 306.973 1429.66 Q306.973 1436.77 308.778 1440.33 Q310.607 1443.88 314.218 1443.88 Q317.852 1443.88 319.658 1440.33 Q321.486 1436.77 321.486 1429.66 Q321.486 1422.53 319.658 1418.99 Q317.852 1415.43 314.218 1415.43 M314.218 1411.72 Q320.028 1411.72 323.084 1416.33 Q326.162 1420.91 326.162 1429.66 Q326.162 1438.39 323.084 1443 Q320.028 1447.58 314.218 1447.58 Q308.408 1447.58 305.329 1443 Q302.274 1438.39 302.274 1429.66 Q302.274 1420.91 305.329 1416.33 Q308.408 1411.72 314.218 1411.72 Z" fill="#000000" fill-rule="nonzero" fill-opacity="1" /><path clip-path="url(#clip710)" d="M326.708 1416.3 L332.914 1416.3 L332.914 1394.88 L326.162 1396.23 L326.162 1392.77 L332.877 1391.42 L336.676 1391.42 L336.676 1416.3 L342.883 1416.3 L342.883 1419.5 L326.708 1419.5 L326.708 1416.3 Z" fill="#000000" fill-rule="nonzero" fill-opacity="1" /><path clip-path="url(#clip710)" d="M358.681 1393.92 Q355.747 1393.92 354.261 1396.81 Q352.794 1399.69 352.794 1405.49 Q352.794 1411.26 354.261 1414.16 Q355.747 1417.03 358.681 1417.03 Q361.634 1417.03 363.101 1414.16 Q364.587 1411.26 364.587 1405.49 Q364.587 1399.69 363.101 1396.81 Q361.634 1393.92 358.681 1393.92 M358.681 1390.91 Q363.402 1390.91 365.884 1394.65 Q368.386 1398.38 368.386 1405.49 Q368.386 1412.58 365.884 1416.32 Q363.402 1420.04 358.681 1420.04 Q353.96 1420.04 351.459 1416.32 Q348.976 1412.58 348.976 1405.49 Q348.976 1398.38 351.459 1394.65 Q353.96 1390.91 358.681 1390.91 Z" fill="#000000" fill-rule="nonzero" fill-opacity="1" /><path clip-path="url(#clip710)" d="M356.441 1179.66 Q352.83 1179.66 351.002 1183.22 Q349.196 1186.76 349.196 1193.89 Q349.196 1201 351.002 1204.56 Q352.83 1208.1 356.441 1208.1 Q360.076 1208.1 361.881 1204.56 Q363.71 1201 363.71 1193.89 Q363.71 1186.76 361.881 1183.22 Q360.076 1179.66 356.441 1179.66 M356.441 1175.95 Q362.252 1175.95 365.307 1180.56 Q368.386 1185.14 368.386 1193.89 Q368.386 1202.62 365.307 1207.23 Q362.252 1211.81 356.441 1211.81 Q350.631 1211.81 347.553 1207.23 Q344.497 1202.62 344.497 1193.89 Q344.497 1185.14 347.553 1180.56 Q350.631 1175.95 356.441 1175.95 Z" fill="#000000" fill-rule="nonzero" fill-opacity="1" /><path clip-path="url(#clip710)" d="M162.969 984.327 L179.288 984.327 L179.288 988.262 L157.344 988.262 L157.344 984.327 Q160.006 981.572 164.589 976.943 Q169.196 972.29 170.376 970.947 Q172.622 968.424 173.501 966.688 Q174.404 964.929 174.404 963.239 Q174.404 960.485 172.46 958.748 Q170.538 957.012 167.436 957.012 Q165.237 957.012 162.784 957.776 Q160.353 958.54 157.575 960.091 L157.575 955.369 Q160.399 954.235 162.853 953.656 Q165.307 953.077 167.344 953.077 Q172.714 953.077 175.909 955.762 Q179.103 958.448 179.103 962.938 Q179.103 965.068 178.293 966.989 Q177.506 968.887 175.399 971.48 Q174.821 972.151 171.719 975.369 Q168.617 978.563 162.969 984.327 Z" fill="#000000" fill-rule="nonzero" fill-opacity="1" /><path clip-path="url(#clip710)" d="M189.103 982.383 L193.987 982.383 L193.987 988.262 L189.103 988.262 L189.103 982.383 Z" fill="#000000" fill-rule="nonzero" fill-opacity="1" /><path clip-path="url(#clip710)" d="M214.172 956.781 Q210.561 956.781 208.732 960.346 Q206.927 963.887 206.927 971.017 Q206.927 978.123 208.732 981.688 Q210.561 985.23 214.172 985.23 Q217.806 985.23 219.612 981.688 Q221.441 978.123 221.441 971.017 Q221.441 963.887 219.612 960.346 Q217.806 956.781 214.172 956.781 M214.172 953.077 Q219.982 953.077 223.038 957.684 Q226.117 962.267 226.117 971.017 Q226.117 979.744 223.038 984.35 Q219.982 988.933 214.172 988.933 Q208.362 988.933 205.283 984.35 Q202.228 979.744 202.228 971.017 Q202.228 962.267 205.283 957.684 Q208.362 953.077 214.172 953.077 Z" fill="#000000" fill-rule="nonzero" fill-opacity="1" /><path clip-path="url(#clip710)" d="M262.505 962.799 L251.927 973.424 L262.505 984.003 L259.751 986.804 L249.126 976.179 L238.501 986.804 L235.769 984.003 L246.325 973.424 L235.769 962.799 L238.501 959.998 L249.126 970.623 L259.751 959.998 L262.505 962.799 Z" fill="#000000" fill-rule="nonzero" fill-opacity="1" /><path clip-path="url(#clip710)" d="M274.866 984.327 L282.505 984.327 L282.505 957.961 L274.195 959.628 L274.195 955.369 L282.459 953.702 L287.135 953.702 L287.135 984.327 L294.774 984.327 L294.774 988.262 L274.866 988.262 L274.866 984.327 Z" fill="#000000" fill-rule="nonzero" fill-opacity="1" /><path clip-path="url(#clip710)" d="M314.218 956.781 Q310.607 956.781 308.778 960.346 Q306.973 963.887 306.973 971.017 Q306.973 978.123 308.778 981.688 Q310.607 985.23 314.218 985.23 Q317.852 985.23 319.658 981.688 Q321.486 978.123 321.486 971.017 Q321.486 963.887 319.658 960.346 Q317.852 956.781 314.218 956.781 M314.218 953.077 Q320.028 953.077 323.084 957.684 Q326.162 962.267 326.162 971.017 Q326.162 979.744 323.084 984.35 Q320.028 988.933 314.218 988.933 Q308.408 988.933 305.329 984.35 Q302.274 979.744 302.274 971.017 Q302.274 962.267 305.329 957.684 Q308.408 953.077 314.218 953.077 Z" fill="#000000" fill-rule="nonzero" fill-opacity="1" /><path clip-path="url(#clip710)" d="M326.708 957.654 L332.914 957.654 L332.914 936.232 L326.162 937.587 L326.162 934.126 L332.877 932.772 L336.676 932.772 L336.676 957.654 L342.883 957.654 L342.883 960.852 L326.708 960.852 L326.708 957.654 Z" fill="#000000" fill-rule="nonzero" fill-opacity="1" /><path clip-path="url(#clip710)" d="M358.681 935.273 Q355.747 935.273 354.261 938.17 Q352.794 941.047 352.794 946.84 Q352.794 952.614 354.261 955.51 Q355.747 958.388 358.681 958.388 Q361.634 958.388 363.101 955.51 Q364.587 952.614 364.587 946.84 Q364.587 941.047 363.101 938.17 Q361.634 935.273 358.681 935.273 M358.681 932.264 Q363.402 932.264 365.884 936.007 Q368.386 939.731 368.386 946.84 Q368.386 953.931 365.884 957.673 Q363.402 961.397 358.681 961.397 Q353.96 961.397 351.459 957.673 Q348.976 953.931 348.976 946.84 Q348.976 939.731 351.459 936.007 Q353.96 932.264 358.681 932.264 Z" fill="#000000" fill-rule="nonzero" fill-opacity="1" /><path clip-path="url(#clip710)" d="M171.788 728.454 L159.983 746.903 L171.788 746.903 L171.788 728.454 M170.561 724.38 L176.441 724.38 L176.441 746.903 L181.372 746.903 L181.372 750.791 L176.441 750.791 L176.441 758.94 L171.788 758.94 L171.788 750.791 L156.186 750.791 L156.186 746.278 L170.561 724.38 Z" fill="#000000" fill-rule="nonzero" fill-opacity="1" /><path clip-path="url(#clip710)" d="M189.103 753.06 L193.987 753.06 L193.987 758.94 L189.103 758.94 L189.103 753.06 Z" fill="#000000" fill-rule="nonzero" fill-opacity="1" /><path clip-path="url(#clip710)" d="M214.172 727.458 Q210.561 727.458 208.732 731.023 Q206.927 734.565 206.927 741.694 Q206.927 748.801 208.732 752.366 Q210.561 755.907 214.172 755.907 Q217.806 755.907 219.612 752.366 Q221.441 748.801 221.441 741.694 Q221.441 734.565 219.612 731.023 Q217.806 727.458 214.172 727.458 M214.172 723.755 Q219.982 723.755 223.038 728.361 Q226.117 732.944 226.117 741.694 Q226.117 750.421 223.038 755.028 Q219.982 759.611 214.172 759.611 Q208.362 759.611 205.283 755.028 Q202.228 750.421 202.228 741.694 Q202.228 732.944 205.283 728.361 Q208.362 723.755 214.172 723.755 Z" fill="#000000" fill-rule="nonzero" fill-opacity="1" /><path clip-path="url(#clip710)" d="M262.505 733.477 L251.927 744.102 L262.505 754.68 L259.751 757.481 L249.126 746.856 L238.501 757.481 L235.769 754.68 L246.325 744.102 L235.769 733.477 L238.501 730.676 L249.126 741.301 L259.751 730.676 L262.505 733.477 Z" fill="#000000" fill-rule="nonzero" fill-opacity="1" /><path clip-path="url(#clip710)" d="M274.866 755.004 L282.505 755.004 L282.505 728.639 L274.195 730.305 L274.195 726.046 L282.459 724.38 L287.135 724.38 L287.135 755.004 L294.774 755.004 L294.774 758.94 L274.866 758.94 L274.866 755.004 Z" fill="#000000" fill-rule="nonzero" fill-opacity="1" /><path clip-path="url(#clip710)" d="M314.218 727.458 Q310.607 727.458 308.778 731.023 Q306.973 734.565 306.973 741.694 Q306.973 748.801 308.778 752.366 Q310.607 755.907 314.218 755.907 Q317.852 755.907 319.658 752.366 Q321.486 748.801 321.486 741.694 Q321.486 734.565 319.658 731.023 Q317.852 727.458 314.218 727.458 M314.218 723.755 Q320.028 723.755 323.084 728.361 Q326.162 732.944 326.162 741.694 Q326.162 750.421 323.084 755.028 Q320.028 759.611 314.218 759.611 Q308.408 759.611 305.329 755.028 Q302.274 750.421 302.274 741.694 Q302.274 732.944 305.329 728.361 Q308.408 723.755 314.218 723.755 Z" fill="#000000" fill-rule="nonzero" fill-opacity="1" /><path clip-path="url(#clip710)" d="M326.708 728.332 L332.914 728.332 L332.914 706.91 L326.162 708.264 L326.162 704.803 L332.877 703.449 L336.676 703.449 L336.676 728.332 L342.883 728.332 L342.883 731.529 L326.708 731.529 L326.708 728.332 Z" fill="#000000" fill-rule="nonzero" fill-opacity="1" /><path clip-path="url(#clip710)" d="M358.681 705.951 Q355.747 705.951 354.261 708.847 Q352.794 711.725 352.794 717.517 Q352.794 723.291 354.261 726.188 Q355.747 729.065 358.681 729.065 Q361.634 729.065 363.101 726.188 Q364.587 723.291 364.587 717.517 Q364.587 711.725 363.101 708.847 Q361.634 705.951 358.681 705.951 M358.681 702.941 Q363.402 702.941 365.884 706.684 Q368.386 710.408 368.386 717.517 Q368.386 724.608 365.884 728.351 Q363.402 732.075 358.681 732.075 Q353.96 732.075 351.459 728.351 Q348.976 724.608 348.976 717.517 Q348.976 710.408 351.459 706.684 Q353.96 702.941 358.681 702.941 Z" fill="#000000" fill-rule="nonzero" fill-opacity="1" /><path clip-path="url(#clip710)" d="M169.52 510.474 Q166.372 510.474 164.52 512.626 Q162.691 514.779 162.691 518.529 Q162.691 522.256 164.52 524.432 Q166.372 526.585 169.52 526.585 Q172.668 526.585 174.497 524.432 Q176.348 522.256 176.348 518.529 Q176.348 514.779 174.497 512.626 Q172.668 510.474 169.52 510.474 M178.802 495.821 L178.802 500.08 Q177.043 499.247 175.237 498.807 Q173.455 498.367 171.696 498.367 Q167.066 498.367 164.612 501.492 Q162.182 504.617 161.835 510.936 Q163.2 508.923 165.26 507.858 Q167.321 506.77 169.797 506.77 Q175.006 506.77 178.015 509.941 Q181.047 513.089 181.047 518.529 Q181.047 523.853 177.899 527.071 Q174.751 530.288 169.52 530.288 Q163.524 530.288 160.353 525.705 Q157.182 521.098 157.182 512.372 Q157.182 504.177 161.071 499.316 Q164.96 494.432 171.51 494.432 Q173.27 494.432 175.052 494.779 Q176.858 495.126 178.802 495.821 Z" fill="#000000" fill-rule="nonzero" fill-opacity="1" /><path clip-path="url(#clip710)" d="M189.103 523.737 L193.987 523.737 L193.987 529.617 L189.103 529.617 L189.103 523.737 Z" fill="#000000" fill-rule="nonzero" fill-opacity="1" /><path clip-path="url(#clip710)" d="M214.172 498.136 Q210.561 498.136 208.732 501.7 Q206.927 505.242 206.927 512.372 Q206.927 519.478 208.732 523.043 Q210.561 526.585 214.172 526.585 Q217.806 526.585 219.612 523.043 Q221.441 519.478 221.441 512.372 Q221.441 505.242 219.612 501.7 Q217.806 498.136 214.172 498.136 M214.172 494.432 Q219.982 494.432 223.038 499.038 Q226.117 503.622 226.117 512.372 Q226.117 521.098 223.038 525.705 Q219.982 530.288 214.172 530.288 Q208.362 530.288 205.283 525.705 Q202.228 521.098 202.228 512.372 Q202.228 503.622 205.283 499.038 Q208.362 494.432 214.172 494.432 Z" fill="#000000" fill-rule="nonzero" fill-opacity="1" /><path clip-path="url(#clip710)" d="M262.505 504.154 L251.927 514.779 L262.505 525.358 L259.751 528.159 L249.126 517.534 L238.501 528.159 L235.769 525.358 L246.325 514.779 L235.769 504.154 L238.501 501.353 L249.126 511.978 L259.751 501.353 L262.505 504.154 Z" fill="#000000" fill-rule="nonzero" fill-opacity="1" /><path clip-path="url(#clip710)" d="M274.866 525.682 L282.505 525.682 L282.505 499.316 L274.195 500.983 L274.195 496.724 L282.459 495.057 L287.135 495.057 L287.135 525.682 L294.774 525.682 L294.774 529.617 L274.866 529.617 L274.866 525.682 Z" fill="#000000" fill-rule="nonzero" fill-opacity="1" /><path clip-path="url(#clip710)" d="M314.218 498.136 Q310.607 498.136 308.778 501.7 Q306.973 505.242 306.973 512.372 Q306.973 519.478 308.778 523.043 Q310.607 526.585 314.218 526.585 Q317.852 526.585 319.658 523.043 Q321.486 519.478 321.486 512.372 Q321.486 505.242 319.658 501.7 Q317.852 498.136 314.218 498.136 M314.218 494.432 Q320.028 494.432 323.084 499.038 Q326.162 503.622 326.162 512.372 Q326.162 521.098 323.084 525.705 Q320.028 530.288 314.218 530.288 Q308.408 530.288 305.329 525.705 Q302.274 521.098 302.274 512.372 Q302.274 503.622 305.329 499.038 Q308.408 494.432 314.218 494.432 Z" fill="#000000" fill-rule="nonzero" fill-opacity="1" /><path clip-path="url(#clip710)" d="M326.708 499.009 L332.914 499.009 L332.914 477.587 L326.162 478.941 L326.162 475.481 L332.877 474.127 L336.676 474.127 L336.676 499.009 L342.883 499.009 L342.883 502.207 L326.708 502.207 L326.708 499.009 Z" fill="#000000" fill-rule="nonzero" fill-opacity="1" /><path clip-path="url(#clip710)" d="M358.681 476.628 Q355.747 476.628 354.261 479.524 Q352.794 482.402 352.794 488.195 Q352.794 493.969 354.261 496.865 Q355.747 499.743 358.681 499.743 Q361.634 499.743 363.101 496.865 Q364.587 493.969 364.587 488.195 Q364.587 482.402 363.101 479.524 Q361.634 476.628 358.681 476.628 M358.681 473.619 Q363.402 473.619 365.884 477.361 Q368.386 481.085 368.386 488.195 Q368.386 495.285 365.884 499.028 Q363.402 502.752 358.681 502.752 Q353.96 502.752 351.459 499.028 Q348.976 495.285 348.976 488.195 Q348.976 481.085 351.459 477.361 Q353.96 473.619 358.681 473.619 Z" fill="#000000" fill-rule="nonzero" fill-opacity="1" /><path clip-path="url(#clip710)" d="M168.941 283.882 Q165.608 283.882 163.686 285.665 Q161.788 287.447 161.788 290.572 Q161.788 293.697 163.686 295.48 Q165.608 297.262 168.941 297.262 Q172.274 297.262 174.196 295.48 Q176.117 293.674 176.117 290.572 Q176.117 287.447 174.196 285.665 Q172.297 283.882 168.941 283.882 M164.265 281.892 Q161.256 281.151 159.566 279.091 Q157.899 277.031 157.899 274.068 Q157.899 269.924 160.839 267.517 Q163.802 265.109 168.941 265.109 Q174.103 265.109 177.043 267.517 Q179.983 269.924 179.983 274.068 Q179.983 277.031 178.293 279.091 Q176.626 281.151 173.64 281.892 Q177.02 282.679 178.895 284.97 Q180.793 287.262 180.793 290.572 Q180.793 295.595 177.714 298.28 Q174.659 300.966 168.941 300.966 Q163.223 300.966 160.145 298.28 Q157.089 295.595 157.089 290.572 Q157.089 287.262 158.987 284.97 Q160.886 282.679 164.265 281.892 M162.552 274.507 Q162.552 277.193 164.219 278.697 Q165.909 280.202 168.941 280.202 Q171.95 280.202 173.64 278.697 Q175.353 277.193 175.353 274.507 Q175.353 271.822 173.64 270.318 Q171.95 268.813 168.941 268.813 Q165.909 268.813 164.219 270.318 Q162.552 271.822 162.552 274.507 Z" fill="#000000" fill-rule="nonzero" fill-opacity="1" /><path clip-path="url(#clip710)" d="M189.103 294.415 L193.987 294.415 L193.987 300.294 L189.103 300.294 L189.103 294.415 Z" fill="#000000" fill-rule="nonzero" fill-opacity="1" /><path clip-path="url(#clip710)" d="M214.172 268.813 Q210.561 268.813 208.732 272.378 Q206.927 275.919 206.927 283.049 Q206.927 290.155 208.732 293.72 Q210.561 297.262 214.172 297.262 Q217.806 297.262 219.612 293.72 Q221.441 290.155 221.441 283.049 Q221.441 275.919 219.612 272.378 Q217.806 268.813 214.172 268.813 M214.172 265.109 Q219.982 265.109 223.038 269.716 Q226.117 274.299 226.117 283.049 Q226.117 291.776 223.038 296.382 Q219.982 300.966 214.172 300.966 Q208.362 300.966 205.283 296.382 Q202.228 291.776 202.228 283.049 Q202.228 274.299 205.283 269.716 Q208.362 265.109 214.172 265.109 Z" fill="#000000" fill-rule="nonzero" fill-opacity="1" /><path clip-path="url(#clip710)" d="M262.505 274.831 L251.927 285.456 L262.505 296.035 L259.751 298.836 L249.126 288.211 L238.501 298.836 L235.769 296.035 L246.325 285.456 L235.769 274.831 L238.501 272.031 L249.126 282.656 L259.751 272.031 L262.505 274.831 Z" fill="#000000" fill-rule="nonzero" fill-opacity="1" /><path clip-path="url(#clip710)" d="M274.866 296.359 L282.505 296.359 L282.505 269.994 L274.195 271.66 L274.195 267.401 L282.459 265.734 L287.135 265.734 L287.135 296.359 L294.774 296.359 L294.774 300.294 L274.866 300.294 L274.866 296.359 Z" fill="#000000" fill-rule="nonzero" fill-opacity="1" /><path clip-path="url(#clip710)" d="M314.218 268.813 Q310.607 268.813 308.778 272.378 Q306.973 275.919 306.973 283.049 Q306.973 290.155 308.778 293.72 Q310.607 297.262 314.218 297.262 Q317.852 297.262 319.658 293.72 Q321.486 290.155 321.486 283.049 Q321.486 275.919 319.658 272.378 Q317.852 268.813 314.218 268.813 M314.218 265.109 Q320.028 265.109 323.084 269.716 Q326.162 274.299 326.162 283.049 Q326.162 291.776 323.084 296.382 Q320.028 300.966 314.218 300.966 Q308.408 300.966 305.329 296.382 Q302.274 291.776 302.274 283.049 Q302.274 274.299 305.329 269.716 Q308.408 265.109 314.218 265.109 Z" fill="#000000" fill-rule="nonzero" fill-opacity="1" /><path clip-path="url(#clip710)" d="M326.708 269.687 L332.914 269.687 L332.914 248.265 L326.162 249.619 L326.162 246.158 L332.877 244.804 L336.676 244.804 L336.676 269.687 L342.883 269.687 L342.883 272.884 L326.708 272.884 L326.708 269.687 Z" fill="#000000" fill-rule="nonzero" fill-opacity="1" /><path clip-path="url(#clip710)" d="M358.681 247.305 Q355.747 247.305 354.261 250.202 Q352.794 253.079 352.794 258.872 Q352.794 264.646 354.261 267.543 Q355.747 270.42 358.681 270.42 Q361.634 270.42 363.101 267.543 Q364.587 264.646 364.587 258.872 Q364.587 253.079 363.101 250.202 Q361.634 247.305 358.681 247.305 M358.681 244.296 Q363.402 244.296 365.884 248.039 Q368.386 251.763 368.386 258.872 Q368.386 265.963 365.884 269.705 Q363.402 273.429 358.681 273.429 Q353.96 273.429 351.459 269.705 Q348.976 265.963 348.976 258.872 Q348.976 251.763 351.459 248.039 Q353.96 244.296 358.681 244.296 Z" fill="#000000" fill-rule="nonzero" fill-opacity="1" /><path clip-path="url(#clip710)" d="M160.748 67.0365 L168.387 67.0365 L168.387 40.6709 L160.077 42.3376 L160.077 38.0784 L168.341 36.4117 L173.017 36.4117 L173.017 67.0365 L180.655 67.0365 L180.655 70.9717 L160.748 70.9717 L160.748 67.0365 Z" fill="#000000" fill-rule="nonzero" fill-opacity="1" /><path clip-path="url(#clip710)" d="M190.1 65.0921 L194.984 65.0921 L194.984 70.9717 L190.1 70.9717 L190.1 65.0921 Z" fill="#000000" fill-rule="nonzero" fill-opacity="1" /><path clip-path="url(#clip710)" d="M215.169 39.4904 Q211.558 39.4904 209.729 43.0552 Q207.924 46.5968 207.924 53.7264 Q207.924 60.8329 209.729 64.3977 Q211.558 67.9393 215.169 67.9393 Q218.803 67.9393 220.609 64.3977 Q222.438 60.8329 222.438 53.7264 Q222.438 46.5968 220.609 43.0552 Q218.803 39.4904 215.169 39.4904 M215.169 35.7867 Q220.979 35.7867 224.035 40.3932 Q227.113 44.9765 227.113 53.7264 Q227.113 62.4532 224.035 67.0597 Q220.979 71.643 215.169 71.643 Q209.359 71.643 206.28 67.0597 Q203.225 62.4532 203.225 53.7264 Q203.225 44.9765 206.28 40.3932 Q209.359 35.7867 215.169 35.7867 Z" fill="#000000" fill-rule="nonzero" fill-opacity="1" /><path clip-path="url(#clip710)" d="M263.502 45.5089 L252.923 56.1338 L263.502 66.7125 L260.748 69.5134 L250.123 58.8884 L239.498 69.5134 L236.766 66.7125 L247.322 56.1338 L236.766 45.5089 L239.498 42.708 L250.123 53.3329 L260.748 42.708 L263.502 45.5089 Z" fill="#000000" fill-rule="nonzero" fill-opacity="1" /><path clip-path="url(#clip710)" d="M275.863 67.0365 L283.502 67.0365 L283.502 40.6709 L275.192 42.3376 L275.192 38.0784 L283.456 36.4117 L288.132 36.4117 L288.132 67.0365 L295.77 67.0365 L295.77 70.9717 L275.863 70.9717 L275.863 67.0365 Z" fill="#000000" fill-rule="nonzero" fill-opacity="1" /><path clip-path="url(#clip710)" d="M315.215 39.4904 Q311.604 39.4904 309.775 43.0552 Q307.969 46.5968 307.969 53.7264 Q307.969 60.8329 309.775 64.3977 Q311.604 67.9393 315.215 67.9393 Q318.849 67.9393 320.655 64.3977 Q322.483 60.8329 322.483 53.7264 Q322.483 46.5968 320.655 43.0552 Q318.849 39.4904 315.215 39.4904 M315.215 35.7867 Q321.025 35.7867 324.081 40.3932 Q327.159 44.9765 327.159 53.7264 Q327.159 62.4532 324.081 67.0597 Q321.025 71.643 315.215 71.643 Q309.405 71.643 306.326 67.0597 Q303.27 62.4532 303.27 53.7264 Q303.27 44.9765 306.326 40.3932 Q309.405 35.7867 315.215 35.7867 Z" fill="#000000" fill-rule="nonzero" fill-opacity="1" /><path clip-path="url(#clip710)" d="M327.705 40.364 L333.911 40.364 L333.911 18.9419 L327.159 20.2961 L327.159 16.8355 L333.874 15.4813 L337.673 15.4813 L337.673 40.364 L343.879 40.364 L343.879 43.5613 L327.705 43.5613 L327.705 40.364 Z" fill="#000000" fill-rule="nonzero" fill-opacity="1" /><path clip-path="url(#clip710)" d="M352.211 40.364 L358.418 40.364 L358.418 18.9419 L351.666 20.2961 L351.666 16.8355 L358.38 15.4813 L362.179 15.4813 L362.179 40.364 L368.386 40.364 L368.386 43.5613 L352.211 43.5613 L352.211 40.364 Z" fill="#000000" fill-rule="nonzero" fill-opacity="1" /><path clip-path="url(#clip710)" d="M43.5177 1113.96 L43.5177 1107.53 L91.0377 1107.53 L91.0377 1113.96 L43.5177 1113.96 Z" fill="#000000" fill-rule="nonzero" fill-opacity="1" /><path clip-path="url(#clip710)" d="M62.2328 1067.24 Q58.2861 1065.04 56.4082 1061.98 Q54.5303 1058.93 54.5303 1054.79 Q54.5303 1049.22 58.4452 1046.2 Q62.3283 1043.17 69.5216 1043.17 L91.0377 1043.17 L91.0377 1049.06 L69.7125 1049.06 Q64.5881 1049.06 62.1055 1050.88 Q59.6229 1052.69 59.6229 1056.41 Q59.6229 1060.97 62.6466 1063.61 Q65.6703 1066.25 70.8902 1066.25 L91.0377 1066.25 L91.0377 1072.14 L69.7125 1072.14 Q64.5563 1072.14 62.1055 1073.95 Q59.6229 1075.77 59.6229 1079.55 Q59.6229 1084.04 62.6784 1086.68 Q65.7021 1089.33 70.8902 1089.33 L91.0377 1089.33 L91.0377 1095.21 L55.3897 1095.21 L55.3897 1089.33 L60.9279 1089.33 Q57.6495 1087.32 56.0899 1084.52 Q54.5303 1081.72 54.5303 1077.87 Q54.5303 1073.98 56.5037 1071.28 Q58.4771 1068.54 62.2328 1067.24 Z" fill="#000000" fill-rule="nonzero" fill-opacity="1" /><path clip-path="url(#clip710)" d="M85.6905 1025.83 L104.597 1025.83 L104.597 1031.72 L55.3897 1031.72 L55.3897 1025.83 L60.8005 1025.83 Q57.6177 1023.98 56.0899 1021.18 Q54.5303 1018.35 54.5303 1014.43 Q54.5303 1007.94 59.6865 1003.9 Q64.8428 999.823 73.2455 999.823 Q81.6482 999.823 86.8045 1003.9 Q91.9607 1007.94 91.9607 1014.43 Q91.9607 1018.35 90.4329 1021.18 Q88.8733 1023.98 85.6905 1025.83 M73.2455 1005.9 Q66.7843 1005.9 63.124 1008.58 Q59.4319 1011.22 59.4319 1015.86 Q59.4319 1020.51 63.124 1023.19 Q66.7843 1025.83 73.2455 1025.83 Q79.7067 1025.83 83.3988 1023.19 Q87.0591 1020.51 87.0591 1015.86 Q87.0591 1011.22 83.3988 1008.58 Q79.7067 1005.9 73.2455 1005.9 Z" fill="#000000" fill-rule="nonzero" fill-opacity="1" /><path clip-path="url(#clip710)" d="M76.9694 990.72 L55.3897 990.72 L55.3897 984.864 L76.7466 984.864 Q81.8074 984.864 84.3537 982.89 Q86.8681 980.917 86.8681 976.97 Q86.8681 972.228 83.8444 969.491 Q80.8207 966.722 75.6008 966.722 L55.3897 966.722 L55.3897 960.865 L91.0377 960.865 L91.0377 966.722 L85.5631 966.722 Q88.8097 968.854 90.4011 971.687 Q91.9607 974.488 91.9607 978.212 Q91.9607 984.355 88.1413 987.537 Q84.3218 990.72 76.9694 990.72 M54.5303 975.984 L54.5303 975.984 Z" fill="#000000" fill-rule="nonzero" fill-opacity="1" /><path clip-path="url(#clip710)" d="M60.8642 928.145 Q60.2913 929.132 60.0367 930.31 Q59.7502 931.456 59.7502 932.856 Q59.7502 937.821 62.9967 940.495 Q66.2114 943.137 72.2588 943.137 L91.0377 943.137 L91.0377 949.025 L55.3897 949.025 L55.3897 943.137 L60.9279 943.137 Q57.6813 941.291 56.1218 938.33 Q54.5303 935.37 54.5303 931.137 Q54.5303 930.532 54.6258 929.8 Q54.6895 929.068 54.8486 928.177 L60.8642 928.145 Z" fill="#000000" fill-rule="nonzero" fill-opacity="1" /><path clip-path="url(#clip710)" d="M55.3897 922.002 L55.3897 916.146 L91.0377 916.146 L91.0377 922.002 L55.3897 922.002 M41.5125 922.002 L41.5125 916.146 L48.9285 916.146 L48.9285 922.002 L41.5125 922.002 Z" fill="#000000" fill-rule="nonzero" fill-opacity="1" /><path clip-path="url(#clip710)" d="M45.2682 898.099 L55.3897 898.099 L55.3897 886.036 L59.9412 886.036 L59.9412 898.099 L79.2929 898.099 Q83.6534 898.099 84.8947 896.922 Q86.1361 895.712 86.1361 892.052 L86.1361 886.036 L91.0377 886.036 L91.0377 892.052 Q91.0377 898.831 88.5232 901.409 Q85.9769 903.987 79.2929 903.987 L59.9412 903.987 L59.9412 908.284 L55.3897 908.284 L55.3897 903.987 L45.2682 903.987 L45.2682 898.099 Z" fill="#000000" fill-rule="nonzero" fill-opacity="1" /><path clip-path="url(#clip710)" d="M94.3478 863.502 Q100.714 865.984 102.655 868.34 Q104.597 870.695 104.597 874.642 L104.597 879.32 L99.695 879.32 L99.695 875.883 Q99.695 873.464 98.5492 872.127 Q97.4034 870.79 93.1383 869.167 L90.4647 868.117 L55.3897 882.535 L55.3897 876.328 L83.2715 865.189 L55.3897 854.049 L55.3897 847.842 L94.3478 863.502 Z" fill="#000000" fill-rule="nonzero" fill-opacity="1" /><path clip-path="url(#clip710)" d="M60.8005 795.58 L41.5125 795.58 L41.5125 789.723 L91.0377 789.723 L91.0377 795.58 L85.6905 795.58 Q88.8733 797.426 90.4329 800.258 Q91.9607 803.059 91.9607 807.006 Q91.9607 813.467 86.8045 817.541 Q81.6482 821.583 73.2455 821.583 Q64.8428 821.583 59.6865 817.541 Q54.5303 813.467 54.5303 807.006 Q54.5303 803.059 56.0899 800.258 Q57.6177 797.426 60.8005 795.58 M73.2455 815.536 Q79.7067 815.536 83.3988 812.894 Q87.0591 810.221 87.0591 805.574 Q87.0591 800.927 83.3988 798.253 Q79.7067 795.58 73.2455 795.58 Q66.7843 795.58 63.124 798.253 Q59.4319 800.927 59.4319 805.574 Q59.4319 810.221 63.124 812.894 Q66.7843 815.536 73.2455 815.536 Z" fill="#000000" fill-rule="nonzero" fill-opacity="1" /><path clip-path="url(#clip710)" d="M71.7496 747.168 L74.6141 747.168 L74.6141 774.095 Q80.6616 773.713 83.8444 770.467 Q86.9954 767.188 86.9954 761.364 Q86.9954 757.99 86.1679 754.839 Q85.3403 751.656 83.6853 748.537 L89.2234 748.537 Q90.5602 751.688 91.2605 754.998 Q91.9607 758.308 91.9607 761.714 Q91.9607 770.244 86.9954 775.241 Q82.0302 780.206 73.5638 780.206 Q64.8109 780.206 59.6865 775.496 Q54.5303 770.753 54.5303 762.732 Q54.5303 755.539 59.1773 751.37 Q63.7924 747.168 71.7496 747.168 M70.0308 753.025 Q65.2247 753.088 62.3601 755.73 Q59.4956 758.34 59.4956 762.669 Q59.4956 767.57 62.2647 770.53 Q65.0337 773.459 70.0626 773.904 L70.0308 753.025 Z" fill="#000000" fill-rule="nonzero" fill-opacity="1" /><path clip-path="url(#clip710)" d="M69.5216 707.924 L91.0377 707.924 L91.0377 713.78 L69.7125 713.78 Q64.6518 713.78 62.1373 715.754 Q59.6229 717.727 59.6229 721.674 Q59.6229 726.416 62.6466 729.153 Q65.6703 731.891 70.8902 731.891 L91.0377 731.891 L91.0377 737.779 L55.3897 737.779 L55.3897 731.891 L60.9279 731.891 Q57.7132 729.79 56.1218 726.957 Q54.5303 724.093 54.5303 720.369 Q54.5303 714.226 58.3497 711.075 Q62.1373 707.924 69.5216 707.924 Z" fill="#000000" fill-rule="nonzero" fill-opacity="1" /><path clip-path="url(#clip710)" d="M56.44 673.517 L61.9782 673.517 Q60.7051 676 60.0685 678.673 Q59.4319 681.347 59.4319 684.211 Q59.4319 688.572 60.7687 690.768 Q62.1055 692.932 64.7791 692.932 Q66.8161 692.932 67.9938 691.373 Q69.1396 689.813 70.19 685.103 L70.6356 683.097 Q71.9724 676.859 74.4232 674.249 Q76.8421 671.607 81.2026 671.607 Q86.1679 671.607 89.0643 675.554 Q91.9607 679.469 91.9607 686.344 Q91.9607 689.209 91.3878 692.328 Q90.8467 695.415 89.7327 698.853 L83.6853 698.853 Q85.3722 695.606 86.2315 692.455 Q87.0591 689.304 87.0591 686.217 Q87.0591 682.079 85.6586 679.851 Q84.2263 677.623 81.6482 677.623 Q79.2611 677.623 77.988 679.246 Q76.7148 680.838 75.5372 686.28 L75.0597 688.317 Q73.9139 693.76 71.5586 696.179 Q69.1714 698.598 65.0337 698.598 Q60.0048 698.598 57.2676 695.033 Q54.5303 691.468 54.5303 684.912 Q54.5303 681.665 55.0078 678.801 Q55.4852 675.936 56.44 673.517 Z" fill="#000000" fill-rule="nonzero" fill-opacity="1" /><path clip-path="url(#clip710)" d="M55.3897 662.282 L55.3897 656.425 L91.0377 656.425 L91.0377 662.282 L55.3897 662.282 M41.5125 662.282 L41.5125 656.425 L48.9285 656.425 L48.9285 662.282 L41.5125 662.282 Z" fill="#000000" fill-rule="nonzero" fill-opacity="1" /><path clip-path="url(#clip710)" d="M45.2682 638.378 L55.3897 638.378 L55.3897 626.315 L59.9412 626.315 L59.9412 638.378 L79.2929 638.378 Q83.6534 638.378 84.8947 637.201 Q86.1361 635.991 86.1361 632.331 L86.1361 626.315 L91.0377 626.315 L91.0377 632.331 Q91.0377 639.11 88.5232 641.689 Q85.9769 644.267 79.2929 644.267 L59.9412 644.267 L59.9412 648.564 L55.3897 648.564 L55.3897 644.267 L45.2682 644.267 L45.2682 638.378 Z" fill="#000000" fill-rule="nonzero" fill-opacity="1" /><path clip-path="url(#clip710)" d="M94.3478 603.781 Q100.714 606.263 102.655 608.619 Q104.597 610.974 104.597 614.921 L104.597 619.6 L99.695 619.6 L99.695 616.162 Q99.695 613.743 98.5492 612.406 Q97.4034 611.07 93.1383 609.446 L90.4647 608.396 L55.3897 622.814 L55.3897 616.608 L83.2715 605.468 L55.3897 594.328 L55.3897 588.121 L94.3478 603.781 Z" fill="#000000" fill-rule="nonzero" fill-opacity="1" /><path clip-path="url(#clip710)" d="M43.5177 548.908 L43.5177 543.498 L97.0851 560.048 L97.0851 565.459 L43.5177 548.908 Z" fill="#000000" fill-rule="nonzero" fill-opacity="1" /><path clip-path="url(#clip710)" d="M56.7583 490.98 L62.2328 490.98 Q60.8642 493.463 60.1958 495.978 Q59.4956 498.46 59.4956 501.006 Q59.4956 506.704 63.124 509.855 Q66.7207 513.006 73.2455 513.006 Q79.7704 513.006 83.3988 509.855 Q86.9954 506.704 86.9954 501.006 Q86.9954 498.46 86.327 495.978 Q85.6268 493.463 84.2582 490.98 L89.669 490.98 Q90.8149 493.431 91.3878 496.073 Q91.9607 498.683 91.9607 501.643 Q91.9607 509.696 86.8999 514.438 Q81.8392 519.181 73.2455 519.181 Q64.5245 519.181 59.5274 514.406 Q54.5303 509.6 54.5303 501.261 Q54.5303 498.556 55.1032 495.978 Q55.6443 493.399 56.7583 490.98 Z" fill="#000000" fill-rule="nonzero" fill-opacity="1" /><path clip-path="url(#clip710)" d="M62.2328 453.041 Q58.2861 450.845 56.4082 447.789 Q54.5303 444.734 54.5303 440.596 Q54.5303 435.026 58.4452 432.002 Q62.3283 428.978 69.5216 428.978 L91.0377 428.978 L91.0377 434.867 L69.7125 434.867 Q64.5881 434.867 62.1055 436.681 Q59.6229 438.495 59.6229 442.219 Q59.6229 446.771 62.6466 449.412 Q65.6703 452.054 70.8902 452.054 L91.0377 452.054 L91.0377 457.942 L69.7125 457.942 Q64.5563 457.942 62.1055 459.757 Q59.6229 461.571 59.6229 465.358 Q59.6229 469.846 62.6784 472.488 Q65.7021 475.13 70.8902 475.13 L91.0377 475.13 L91.0377 481.018 L55.3897 481.018 L55.3897 475.13 L60.9279 475.13 Q57.6495 473.125 56.0899 470.324 Q54.5303 467.523 54.5303 463.672 Q54.5303 459.788 56.5037 457.083 Q58.4771 454.346 62.2328 453.041 Z" fill="#000000" fill-rule="nonzero" fill-opacity="1" /><path clip-path="url(#clip710)" d="M30.6533 391.459 Q30.9239 391.188 31.3071 391.188 Q31.6904 391.188 31.9609 391.459 Q32.2314 391.729 32.2314 392.113 L32.2314 421.014 Q32.2314 421.397 31.9609 421.668 Q31.6904 421.938 31.3071 421.938 Q30.9239 421.938 30.6533 421.668 Q30.3828 421.397 30.3828 421.014 L30.3828 392.113 Q30.3828 391.729 30.6533 391.459 Z" fill="#000000" fill-rule="nonzero" fill-opacity="1" /><path clip-path="url(#clip710)" d="M36.6275 386.368 Q35.2523 386.368 34.5985 385.579 Q33.9448 384.79 33.9448 383.776 Q33.9448 382.716 34.6436 381.972 Q35.32 381.206 36.5148 381.206 Q37.7998 381.206 38.5212 382.108 Q39.2426 382.987 39.0623 384.249 Q40.9109 383.145 41.745 381.116 Q42.5792 379.064 42.5792 377.17 Q42.5792 375.187 40.8658 373.586 Q39.1525 371.963 34.9592 371.963 Q31.3973 371.963 29.3458 373.361 Q27.2943 374.736 27.2943 377.464 L27.2943 379.493 Q27.2943 380.191 27.2266 380.394 Q27.159 380.597 26.7757 380.597 Q26.3249 380.597 26.2347 379.898 Q26.2347 379.199 26.0994 378.095 Q26.0092 375.412 23.6872 373.992 Q21.523 372.707 18.4344 372.707 Q15.6164 372.707 14.4441 374.059 Q13.2493 375.389 13.2493 377.125 Q13.2493 378.749 13.9256 380.53 Q14.6019 382.311 16.1124 383.28 Q16.1124 380.417 18.4344 380.417 Q19.4489 380.417 20.1252 381.071 Q20.779 381.702 20.779 382.761 Q20.779 383.776 20.1478 384.452 Q19.494 385.129 18.3893 385.129 Q15.7517 385.129 13.9256 382.784 Q12.0995 380.417 12.0995 376.945 Q12.0995 373.518 13.9031 370.993 Q15.7066 368.446 18.4795 368.446 Q21.2073 368.446 23.4392 370.249 Q25.6711 372.053 26.5954 374.916 Q27.2943 371.399 29.6839 369.303 Q32.0511 367.206 34.9592 367.206 Q38.5663 367.206 41.2265 370.047 Q43.8642 372.887 43.8642 377.035 Q43.8642 380.868 41.7901 383.618 Q39.7161 386.368 36.6275 386.368 Z" fill="#000000" fill-rule="nonzero" fill-opacity="1" /><polyline clip-path="url(#clip711)" style="stroke:#00008b; stroke-linecap:round; stroke-linejoin:round; stroke-width:8; stroke-opacity:1; fill:none" points="404.386,1308.52 406.334,1308.52 408.283,1308.52 410.231,1308.52 412.179,1308.52 414.128,1308.52 416.076,1308.52 418.024,1308.52 419.973,1308.52 421.921,1308.52 423.87,1308.52 425.818,1308.52 427.766,1308.52 429.715,1308.52 431.663,1308.52 433.611,1308.52 435.56,1308.52 437.508,1308.52 439.456,1308.52 441.405,1308.52 443.353,1308.52 445.302,1308.52 447.25,1308.52 449.198,1308.52 451.147,1308.52 453.095,1308.52 455.043,1308.52 456.992,1308.52 458.94,1308.52 460.889,1308.52 462.837,1308.52 464.785,1308.52 466.734,1308.52 468.682,1308.52 470.63,1308.52 472.579,1308.52 474.527,1308.52 476.476,1308.52 478.424,1308.52 480.372,1308.52 482.321,1308.52 484.269,1308.52 486.217,1308.52 488.166,1308.52 490.114,1308.52 492.062,1308.52 494.011,1308.52 495.959,1308.52 497.908,1308.52 499.856,1308.52 501.804,1308.52 503.753,1308.52 505.701,1308.52 507.649,1308.52 509.598,1308.52 511.546,1308.52 513.495,1308.52 515.443,1308.52 517.391,1308.52 519.34,1308.52 521.288,1308.52 523.236,1308.52 525.185,1308.52 527.133,1308.52 529.082,1308.52 531.03,1308.52 532.978,1308.52 534.927,1308.52 536.875,1308.52 538.823,1308.52 540.772,1308.52 542.72,1308.52 544.668,1308.52 546.617,1308.52 548.565,1308.52 550.514,1308.52 552.462,1308.52 554.41,1308.52 556.359,1308.52 558.307,1308.52 560.255,1308.52 562.204,1308.52 564.152,1308.52 566.101,1308.52 568.049,1308.52 569.997,1308.52 571.946,1308.52 573.894,1308.52 575.842,1308.52 577.791,1308.52 579.739,1308.52 581.688,1308.52 583.636,1308.52 585.584,1308.52 587.533,1308.52 589.481,1308.52 591.429,1308.52 593.378,1308.52 595.326,1308.52 597.274,1308.52 599.223,1308.52 601.171,1308.52 603.12,1308.52 605.068,1308.52 607.016,1308.52 608.965,1308.52 610.913,1308.52 612.861,1308.52 614.81,1308.52 616.758,1308.52 618.707,1308.52 620.655,1308.52 622.603,1308.52 624.552,1308.52 626.5,1308.52 628.448,1308.52 630.397,1308.52 632.345,1308.52 634.294,1308.52 636.242,1308.52 638.19,1308.52 640.139,1308.52 642.087,1308.52 644.035,1308.52 645.984,1308.52 647.932,1308.52 649.88,1308.52 651.829,1308.52 653.777,1308.52 655.726,1308.52 657.674,1308.52 659.622,1308.52 661.571,1308.52 663.519,1308.52 665.467,1308.52 667.416,1308.52 669.364,1308.52 671.313,1308.52 673.261,1308.52 675.209,1308.52 677.158,1308.52 679.106,1308.52 681.054,1308.52 683.003,1308.52 684.951,1308.52 686.899,1308.52 688.848,1308.52 690.796,1308.52 692.745,1308.52 694.693,1308.52 696.641,1308.52 698.59,1308.52 700.538,1308.52 702.486,1308.52 704.435,1308.52 706.383,1308.52 708.332,1308.52 710.28,1308.52 712.228,1308.52 714.177,1308.52 716.125,1308.52 718.073,1308.52 720.022,1308.52 721.97,1308.52 723.919,1308.52 725.867,1308.52 727.815,1308.52 729.764,1308.52 731.712,1308.52 733.66,1308.52 735.609,1308.52 737.557,1308.52 739.505,1308.52 741.454,1308.52 743.402,1308.52 745.351,1308.52 747.299,1308.52 749.247,1308.52 751.196,1308.52 753.144,1308.52 755.092,1308.52 757.041,1308.52 758.989,1308.52 760.938,1308.52 762.886,1308.52 764.834,1308.52 766.783,1308.52 768.731,1308.52 770.679,1308.52 772.628,1308.52 774.576,1308.52 776.525,1308.52 778.473,1308.52 780.421,1308.52 782.37,1308.52 784.318,1308.52 786.266,1308.52 788.215,1308.52 790.163,1308.52 792.111,1308.52 794.06,1308.52 796.008,1308.52 797.957,1308.52 799.905,1308.52 801.853,1308.52 803.802,1308.52 805.75,1308.52 807.698,1308.52 809.647,1308.52 811.595,1308.52 813.544,1308.52 815.492,1308.52 817.44,1308.52 819.389,1308.52 821.337,1308.52 823.285,1308.52 825.234,1308.52 827.182,1308.52 829.131,1308.52 831.079,1308.52 833.027,1308.52 834.976,1308.52 836.924,1308.52 838.872,1308.52 840.821,1308.52 842.769,1308.52 844.717,1308.52 846.666,1308.52 848.614,1308.52 850.563,1308.52 852.511,1308.52 854.459,1308.52 856.408,1308.52 858.356,1308.52 860.304,1308.52 862.253,1308.52 864.201,1308.52 866.15,1308.52 868.098,1308.52 870.046,1308.52 871.995,1308.52 873.943,1308.52 875.891,1308.52 877.84,1308.52 879.788,1308.52 881.737,1308.52 883.685,1308.52 885.633,1308.52 887.582,1308.52 889.53,1308.52 891.478,1308.52 893.427,1308.52 895.375,1308.52 897.323,1308.52 899.272,1308.52 901.22,1308.52 903.169,1308.52 905.117,1308.52 907.065,1308.52 909.014,1308.52 910.962,1308.52 912.91,1308.52 914.859,1308.52 916.807,1308.52 918.756,1308.52 920.704,1308.52 922.652,1308.52 924.601,1308.52 926.549,1308.52 928.497,1308.52 930.446,1308.52 932.394,1308.52 934.342,1308.52 936.291,1308.52 938.239,1308.52 940.188,1308.52 942.136,1308.52 944.084,1308.52 946.033,1308.52 947.981,1308.52 949.929,1308.52 951.878,1308.52 953.826,1308.52 955.775,1308.52 957.723,1308.52 959.671,1308.52 961.62,1308.52 963.568,1308.52 965.516,1308.52 967.465,1308.52 969.413,1308.52 971.362,1308.52 973.31,1308.52 975.258,1308.52 977.207,1308.52 979.155,1308.52 981.103,1308.52 983.052,1308.52 985,1308.52 986.948,1308.52 988.897,1308.52 990.845,1308.52 992.794,1308.52 994.742,1308.52 996.69,1308.52 998.639,1308.52 1000.59,1308.52 1002.54,1308.52 1004.48,1308.52 1006.43,1308.52 1008.38,1308.52 1010.33,1308.52 1012.28,1308.52 1014.23,1308.52 1016.17,1308.52 1018.12,1308.52 1020.07,1308.52 1022.02,1308.52 1023.97,1308.52 1025.92,1308.52 1027.86,1308.52 1029.81,1308.52 1031.76,1308.52 1033.71,1308.52 1035.66,1308.52 1037.61,1308.52 1039.55,1308.52 1041.5,1308.52 1043.45,1308.52 1045.4,1308.52 1047.35,1308.52 1049.3,1308.52 1051.24,1308.52 1053.19,1308.52 1055.14,1308.52 1057.09,1308.52 1059.04,1308.52 1060.99,1308.52 1062.93,1308.52 1064.88,1308.52 1066.83,1308.52 1068.78,1308.52 1070.73,1308.52 1072.68,1308.52 1074.63,1308.52 1076.57,1308.52 1078.52,1308.52 1080.47,1308.52 1082.42,1308.52 1084.37,1308.52 1086.32,1308.52 1088.26,1308.52 1090.21,1308.52 1092.16,1308.52 1094.11,1308.52 1096.06,1308.52 1098.01,1308.52 1099.95,1308.52 1101.9,1308.52 1103.85,1308.52 1105.8,1308.52 1107.75,1308.52 1109.7,1308.52 1111.64,1308.52 1113.59,1308.52 1115.54,1308.52 1117.49,1308.52 1119.44,1308.52 1121.39,1308.52 1123.33,1308.52 1125.28,1308.52 1127.23,1308.52 1129.18,1308.52 1131.13,1308.52 1133.08,1308.52 1135.02,1308.52 1136.97,1308.52 1138.92,1308.52 1140.87,1308.52 1142.82,1308.52 1144.77,1308.52 1146.71,1308.52 1148.66,1308.52 1150.61,1308.52 1152.56,1308.52 1154.51,1308.52 1156.46,1308.52 1158.41,1308.52 1160.35,1308.52 1162.3,1308.52 1164.25,1308.52 1166.2,1308.52 1168.15,1308.52 1170.1,1308.52 1172.04,1308.52 1173.99,1308.52 1175.94,1308.52 1177.89,1308.52 1179.84,1308.52 1181.79,1308.52 1183.73,1308.52 1185.68,1308.52 1187.63,1308.52 1189.58,1308.52 1191.53,1308.52 1193.48,1308.52 1195.42,1308.52 1197.37,1308.52 1199.32,1308.52 1201.27,1308.52 1203.22,1308.52 1205.17,1308.52 1207.11,1308.52 1209.06,1308.52 1211.01,1308.52 1212.96,1308.52 1214.91,1308.52 1216.86,1308.52 1218.8,1308.52 1220.75,1308.52 1222.7,1308.52 1224.65,1308.52 1226.6,1308.52 1228.55,1308.52 1230.49,1308.52 1232.44,1308.52 1234.39,1308.52 1236.34,1308.52 1238.29,1308.52 1240.24,1308.52 1242.18,1308.52 1244.13,1308.52 1246.08,1308.52 1248.03,1308.52 1249.98,1308.52 1251.93,1308.52 1253.88,1308.52 1255.82,1308.52 1257.77,1308.52 1259.72,1308.52 1261.67,1308.52 1263.62,1308.52 1265.57,1308.52 1267.51,1308.52 1269.46,1308.52 1271.41,1308.52 1273.36,1308.52 1275.31,1308.52 1277.26,1308.52 1279.2,1308.52 1281.15,1308.52 1283.1,1308.52 1285.05,1308.52 1287,1308.52 1288.95,1308.52 1290.89,1308.52 1292.84,1308.52 1294.79,1308.52 1296.74,1308.52 1298.69,1308.52 1300.64,1308.52 1302.58,1308.52 1304.53,1308.52 1306.48,1308.52 1308.43,1308.52 1310.38,1308.52 1312.33,1308.52 1314.27,1308.52 1316.22,1308.52 1318.17,1308.52 1320.12,1308.52 1322.07,1308.52 1324.02,1308.52 1325.96,1308.52 1327.91,1308.52 1329.86,1308.52 1331.81,1308.52 1333.76,1308.52 1335.71,1308.52 1337.66,1308.52 1339.6,1308.52 1341.55,1308.52 1343.5,1308.52 1345.45,1308.52 1347.4,1308.52 1349.35,1308.52 1351.29,1308.52 1353.24,1308.52 1355.19,1308.52 1357.14,1308.52 1359.09,1308.52 1361.04,1308.52 1362.98,1308.52 1364.93,1308.52 1366.88,1308.52 1368.83,1308.52 1370.78,1308.52 1372.73,1308.52 1374.67,1308.52 1376.62,1308.52 1378.57,1308.52 1380.52,1308.52 1382.47,1308.52 1384.42,1308.52 1386.36,1308.52 1388.31,1308.52 1390.26,1308.52 1392.21,1308.52 1394.16,1308.52 1396.11,1308.52 1398.05,1308.52 1400,1308.52 1401.95,1308.52 1403.9,1308.52 1405.85,1308.52 1407.8,1308.52 1409.74,1308.52 1411.69,1308.52 1413.64,1308.52 1415.59,1308.52 1417.54,1308.52 1419.49,1308.52 1421.44,1308.52 1423.38,1308.52 1425.33,1308.52 1427.28,1308.52 1429.23,1308.52 1431.18,1308.52 1433.13,1308.52 1435.07,1308.52 1437.02,1308.52 1438.97,1308.52 1440.92,1308.52 1442.87,1308.52 1444.82,1308.52 1446.76,1308.52 1448.71,1308.52 1450.66,1308.52 1452.61,1308.52 1454.56,1308.52 1456.51,1308.52 1458.45,1308.52 1460.4,1308.52 1462.35,1308.52 1464.3,1308.52 1466.25,1308.52 1468.2,1308.52 1470.14,1308.52 1472.09,1308.52 1474.04,1308.52 1475.99,1308.52 1477.94,1308.52 1479.89,1308.52 1481.83,1308.52 1483.78,1308.52 1485.73,1308.52 1487.68,1308.52 1489.63,1308.52 1491.58,1308.52 1493.52,1308.52 1495.47,1308.52 1497.42,1308.52 1499.37,1308.52 1501.32,1308.52 1503.27,1308.52 1505.21,1308.52 1507.16,1308.52 1509.11,1308.52 1511.06,1308.52 1513.01,1308.52 1514.96,1308.52 1516.91,1308.52 1518.85,1308.52 1520.8,1308.52 1522.75,1308.52 1524.7,1308.52 1526.65,1308.52 1528.6,1308.52 1530.54,1308.52 1532.49,1308.52 1534.44,1308.52 1536.39,1308.52 1538.34,1308.52 1540.29,1308.52 1542.23,1308.52 1544.18,1308.52 1546.13,1308.52 1548.08,1308.52 1550.03,1308.52 1551.98,1308.52 1553.92,1308.52 1555.87,1308.52 1557.82,1308.52 1559.77,1308.52 1561.72,1308.52 1563.67,1308.52 1565.61,1308.52 1567.56,1308.52 1569.51,1308.52 1571.46,1308.52 1573.41,1308.52 1575.36,1308.52 1577.3,1308.52 1579.25,1308.52 1581.2,1308.52 1583.15,1308.52 1585.1,1308.52 1587.05,1308.52 1588.99,1308.52 1590.94,1308.52 1592.89,1308.52 1594.84,1308.52 1596.79,1308.52 1598.74,1308.52 1600.69,1308.52 1602.63,1308.52 1604.58,1308.52 1606.53,1308.52 1608.48,1308.52 1610.43,1308.52 1612.38,1308.52 1614.32,1308.52 1616.27,1308.52 1618.22,1308.52 1620.17,1308.52 1622.12,1308.52 1624.07,1308.52 1626.01,1308.52 1627.96,1308.52 1629.91,1308.52 1631.86,1308.52 1633.81,1308.52 1635.76,1308.52 1637.7,1308.52 1639.65,1308.52 1641.6,1308.52 1643.55,1308.52 1645.5,1308.52 1647.45,1308.52 1649.39,1308.52 1651.34,1308.52 1653.29,1308.52 1655.24,1308.52 1657.19,1308.52 1659.14,1308.52 1661.08,1308.52 1663.03,1308.52 1664.98,1308.52 1666.93,1308.52 1668.88,1308.52 1670.83,1308.52 1672.77,1308.52 1674.72,1308.52 1676.67,1308.52 1678.62,1308.52 1680.57,1308.52 1682.52,1308.52 1684.46,1308.52 1686.41,1308.52 1688.36,1308.52 1690.31,1308.52 1692.26,1308.52 1694.21,1308.52 1696.16,1308.52 1698.1,1308.52 1700.05,1308.52 1702,1308.52 1703.95,1308.52 1705.9,1308.52 1707.85,1308.52 1709.79,1308.52 1711.74,1308.52 1713.69,1308.52 1715.64,1308.52 1717.59,1308.52 1719.54,1308.52 1721.48,1308.52 1723.43,1308.52 1725.38,1308.52 1727.33,1308.52 1729.28,1308.52 1731.23,1308.52 1733.17,1308.52 1735.12,1308.52 1737.07,1308.52 1739.02,1308.52 1740.97,1308.52 1742.92,1308.52 1744.86,1308.52 1746.81,1308.52 1748.76,1308.52 1750.71,1308.52 1752.66,1308.52 1754.61,1308.52 1756.55,1308.52 1758.5,1308.52 1760.45,1308.52 1762.4,1308.52 1764.35,1308.52 1766.3,1308.52 1768.24,1308.52 1770.19,1308.52 1772.14,1308.52 1774.09,1308.52 1776.04,1308.52 1777.99,1308.52 1779.94,1308.52 1781.88,1308.52 1783.83,1308.52 1785.78,1308.52 1787.73,1308.52 1789.68,1308.52 1791.63,1308.52 1793.57,1308.52 1795.52,1308.52 1797.47,1308.52 1799.42,1308.52 1801.37,1308.52 1803.32,1308.52 1805.26,1308.52 1807.21,1308.52 1809.16,1308.52 1811.11,1308.52 1813.06,1308.52 1815.01,1308.52 1816.95,1308.52 1818.9,1308.52 1820.85,1308.52 1822.8,1308.52 1824.75,1308.52 1826.7,1308.52 1828.64,1308.52 1830.59,1308.52 1832.54,1308.52 1834.49,1308.52 1836.44,1308.52 1838.39,1308.52 1840.33,1308.52 1842.28,1308.52 1844.23,1308.52 1846.18,1308.52 1848.13,1308.52 1850.08,1308.52 1852.02,1308.52 1853.97,1308.52 1855.92,1308.52 1857.87,1308.52 1859.82,1308.52 1861.77,1308.52 1863.72,1308.52 1865.66,1308.52 1867.61,1308.52 1869.56,1308.52 1871.51,1308.52 1873.46,1308.52 1875.41,1308.52 1877.35,1308.52 1879.3,1308.52 1881.25,1308.52 1883.2,1308.52 1885.15,1308.52 1887.1,1308.52 1889.04,1308.52 1890.99,1308.52 1892.94,1308.52 1894.89,1308.52 1896.84,1308.52 1898.79,1308.52 1900.73,1308.52 1902.68,1308.52 1904.63,1308.52 1906.58,1308.52 1908.53,1308.52 1910.48,1308.52 1912.42,1308.52 1914.37,1308.52 1916.32,1308.52 1918.27,1308.52 1920.22,1308.52 1922.17,1308.52 1924.11,1308.52 1926.06,1308.52 1928.01,1308.52 1929.96,1308.52 1931.91,1308.52 1933.86,1308.52 1935.8,1308.52 1937.75,1308.52 1939.7,1308.52 1941.65,1308.52 1943.6,1308.52 1945.55,1308.52 1947.49,1308.52 1949.44,1308.52 1951.39,1308.52 1953.34,1308.52 1955.29,1308.52 1957.24,1308.52 1959.19,1308.52 1961.13,1308.52 1963.08,1308.52 1965.03,1308.52 1966.98,1308.52 1968.93,1308.52 1970.88,1308.52 1972.82,1308.52 1974.77,1308.52 1976.72,1308.52 1978.67,1308.52 1980.62,1308.52 1982.57,1308.52 1984.51,1308.52 1986.46,1308.52 1988.41,1308.52 1990.36,1308.52 1992.31,1308.52 1994.26,1308.52 1996.2,1308.52 1998.15,1308.52 2000.1,1308.52 2002.05,1308.52 2004,1308.52 2005.95,1308.52 2007.89,1308.52 2009.84,1308.52 2011.79,1308.52 2013.74,1308.52 2015.69,1308.52 2017.64,1308.52 2019.58,1308.52 2021.53,1308.52 2023.48,1308.52 2025.43,1308.52 2027.38,1308.52 2029.33,1308.52 2031.27,1308.52 2033.22,1308.52 2035.17,1308.52 2037.12,1308.52 2039.07,1308.52 2041.02,1308.52 2042.97,1308.52 2044.91,1308.52 2046.86,1308.52 2048.81,1308.52 2050.76,1308.52 2052.71,1308.52 2054.66,1308.52 2056.6,1308.52 2058.55,1308.52 2060.5,1308.52 2062.45,1308.52 2064.4,1308.52 2066.35,1308.52 2068.29,1308.52 2070.24,1308.52 2072.19,1308.52 2074.14,1308.52 2076.09,1308.52 2078.04,1308.52 2079.98,1308.52 2081.93,1308.52 2083.88,1308.51 2085.83,1308.51 2087.78,1308.51 2089.73,1308.51 2091.67,1308.5 2093.62,1308.49 2095.57,1308.48 2097.52,1308.47 2099.47,1308.45 2101.42,1308.42 2103.36,1308.38 2105.31,1308.33 2107.26,1308.25 2109.21,1308.15 2111.16,1308 2113.11,1307.81 2115.05,1307.54 2117,1307.17 2118.95,1306.67 2120.9,1305.99 2122.85,1305.07 2124.8,1303.83 2126.74,1302.16 2128.69,1299.91 2130.64,1296.89 2132.59,1292.85 2134.54,1287.46 2136.49,1280.29 2138.44,1270.76 2140.38,1258.16 2142.33,1241.51 2144.28,1219.57 2146.23,1190.75 2148.18,1152.97 2150.13,1103.59 2152.07,1039.19 2154.02,955.437 2155.97,846.776 2157.92,706.164 2159.87,524.673 2161.82,291.012 2163.76,-9.04503 2165.71,-393.385 2167.66,-884.427 2169.61,-1510.2 2171.56,-2305.62 2173.51,-3314.13 2175.45,-4589.53 2177.4,-6198.35 2179.35,-8222.59 2181.3,-10763 2183.25,-13943.1 2185.2,-17913.8 2187.14,-22859.1 2189.09,-29002.4 2191.04,-36614.4 2192.99,-46022.4 2194.94,-57620.4 2196.89,-71881.8 2198.83,-89373.3 2200.78,-110772 2202.73,-136884 2204.68,-168667 2206.63,-207252 2208.58,-253977 2210.52,-310415 2212.47,-378410 2214.42,-460121 2216.37,-558065 2218.32,-675166 2220.27,-814815 2222.22,-980929 2224.16,-1.17802e+06 2226.11,-1.41127e+06 2228.06,-1.68661e+06 2230.01,-2.01079e+06 2231.96,-2.39153e+06 2233.91,-2.83754e+06 2235.85,-3.35868e+06 2237.8,-3.96606e+06 2239.75,-4.1943e+06 2241.7,-4.1943e+06 2243.65,-4.1943e+06 2245.6,-4.1943e+06 2247.54,-4.1943e+06 2249.49,-4.1943e+06 2251.44,-4.1943e+06 2253.39,-4.1943e+06 2255.34,-4.1943e+06 2257.29,-4.1943e+06 2259.23,-4.1943e+06 2261.18,-4.1943e+06 2263.13,-4.1943e+06 2265.08,-4.1943e+06 2267.03,-4.1943e+06 2268.98,-4.1943e+06 2270.92,-4.1943e+06 2272.87,-4.1943e+06 2274.82,-4.1943e+06 2276.77,-4.1943e+06 2278.72,-4.1943e+06 2280.67,-4.1943e+06 2282.61,-4.1943e+06 2284.56,-4.1943e+06 2286.51,-4.1943e+06 2288.46,-4.1943e+06 2290.41,-4.1943e+06 2292.36,-4.1943e+06 2294.3,-4.1943e+06 2296.25,-4.1943e+06 2298.2,-4.1943e+06 2300.15,-4.1943e+06 2302.1,-4.1943e+06 2304.05,-4.1943e+06 2306,-4.1943e+06 2307.94,-4.1943e+06 2309.89,-4.1943e+06 2311.84,-4.1943e+06 2313.79,-4.1943e+06 2315.74,-4.1943e+06 2317.69,-4.1943e+06 2319.63,-4.1943e+06 2321.58,-4.1943e+06 2323.53,-4.1943e+06 2325.48,-4.1943e+06 2327.43,-4.1943e+06 2329.38,-4.1943e+06 2331.32,-4.1943e+06 2333.27,-4.1943e+06 2335.22,-4.1943e+06 2337.17,-4.1943e+06 2339.12,-4.1943e+06 2341.07,-4.1943e+06 2343.01,-4.1943e+06 2344.96,-4.1943e+06 2346.91,-4.1943e+06 2348.86,-4.1943e+06 2350.81,-4.1943e+06 2352.76,-4.1943e+06 "/>
<polyline clip-path="url(#clip711)" style="stroke:#8b0000; stroke-linecap:round; stroke-linejoin:round; stroke-width:8; stroke-opacity:1; fill:none" stroke-dasharray="32, 20" points="2149.6,2799.12 2149.6,-1328.69 "/>
<path clip-path="url(#clip710)" d="M469.332 196.789 L1168.31 196.789 L1168.31 93.1086 L469.332 93.1086  Z" fill="#ffffff" fill-rule="evenodd" fill-opacity="1"/>
<polyline clip-path="url(#clip710)" style="stroke:#000000; stroke-linecap:round; stroke-linejoin:round; stroke-width:4; stroke-opacity:1; fill:none" points="469.332,196.789 1168.31,196.789 1168.31,93.1086 469.332,93.1086 469.332,196.789 "/>
<polyline clip-path="url(#clip710)" style="stroke:#8b0000; stroke-linecap:round; stroke-linejoin:round; stroke-width:8; stroke-opacity:1; fill:none" stroke-dasharray="32, 20" points="490.98,144.949 620.871,144.949 "/>
<path clip-path="url(#clip710)" d="M647.196 131.511 L647.196 144.497 L653.075 144.497 Q656.339 144.497 658.122 142.807 Q659.904 141.118 659.904 137.993 Q659.904 134.891 658.122 133.201 Q656.339 131.511 653.075 131.511 L647.196 131.511 M642.52 127.669 L653.075 127.669 Q658.886 127.669 661.849 130.307 Q664.835 132.923 664.835 137.993 Q664.835 143.108 661.849 145.724 Q658.886 148.34 653.075 148.34 L647.196 148.34 L647.196 162.229 L642.52 162.229 L642.52 127.669 Z" fill="#000000" fill-rule="nonzero" fill-opacity="1" /><path clip-path="url(#clip710)" d="M671.108 127.669 L677.404 127.669 L692.728 156.581 L692.728 127.669 L697.265 127.669 L697.265 162.229 L690.969 162.229 L675.645 133.317 L675.645 162.229 L671.108 162.229 L671.108 127.669 Z" fill="#000000" fill-rule="nonzero" fill-opacity="1" /><path clip-path="url(#clip710)" d="M721.455 136.303 L725.714 136.303 L725.714 162.692 Q725.714 167.645 723.816 169.867 Q721.941 172.09 717.751 172.09 L716.131 172.09 L716.131 168.479 L717.265 168.479 Q719.695 168.479 720.575 167.344 Q721.455 166.233 721.455 162.692 L721.455 136.303 M721.455 126.21 L725.714 126.21 L725.714 131.604 L721.455 131.604 L721.455 126.21 Z" fill="#000000" fill-rule="nonzero" fill-opacity="1" /><path clip-path="url(#clip710)" d="M734.186 151.997 L734.186 136.303 L738.445 136.303 L738.445 151.835 Q738.445 155.516 739.881 157.368 Q741.316 159.196 744.186 159.196 Q747.635 159.196 749.626 156.997 Q751.64 154.798 751.64 151.002 L751.64 136.303 L755.899 136.303 L755.899 162.229 L751.64 162.229 L751.64 158.247 Q750.089 160.608 748.029 161.766 Q745.992 162.9 743.283 162.9 Q738.816 162.9 736.501 160.122 Q734.186 157.344 734.186 151.997 M744.904 135.678 L744.904 135.678 Z" fill="#000000" fill-rule="nonzero" fill-opacity="1" /><path clip-path="url(#clip710)" d="M786.223 146.581 L786.223 162.229 L781.964 162.229 L781.964 146.719 Q781.964 143.039 780.528 141.21 Q779.093 139.382 776.223 139.382 Q772.774 139.382 770.783 141.581 Q768.792 143.78 768.792 147.576 L768.792 162.229 L764.51 162.229 L764.51 136.303 L768.792 136.303 L768.792 140.331 Q770.32 137.993 772.38 136.835 Q774.464 135.678 777.172 135.678 Q781.64 135.678 783.931 138.456 Q786.223 141.21 786.223 146.581 Z" fill="#000000" fill-rule="nonzero" fill-opacity="1" /><path clip-path="url(#clip710)" d="M813.376 137.298 L813.376 141.28 Q811.57 140.284 809.741 139.798 Q807.936 139.289 806.084 139.289 Q801.94 139.289 799.649 141.928 Q797.357 144.544 797.357 149.289 Q797.357 154.034 799.649 156.673 Q801.94 159.289 806.084 159.289 Q807.936 159.289 809.741 158.803 Q811.57 158.293 813.376 157.298 L813.376 161.233 Q811.593 162.067 809.672 162.483 Q807.774 162.9 805.621 162.9 Q799.764 162.9 796.315 159.219 Q792.866 155.539 792.866 149.289 Q792.866 142.946 796.339 139.312 Q799.834 135.678 805.899 135.678 Q807.866 135.678 809.741 136.095 Q811.616 136.488 813.376 137.298 Z" fill="#000000" fill-rule="nonzero" fill-opacity="1" /><path clip-path="url(#clip710)" d="M824.996 128.942 L824.996 136.303 L833.769 136.303 L833.769 139.613 L824.996 139.613 L824.996 153.687 Q824.996 156.858 825.852 157.761 Q826.732 158.664 829.394 158.664 L833.769 158.664 L833.769 162.229 L829.394 162.229 Q824.463 162.229 822.588 160.4 Q820.713 158.548 820.713 153.687 L820.713 139.613 L817.588 139.613 L817.588 136.303 L820.713 136.303 L820.713 128.942 L824.996 128.942 Z" fill="#000000" fill-rule="nonzero" fill-opacity="1" /><path clip-path="url(#clip710)" d="M839.371 136.303 L843.63 136.303 L843.63 162.229 L839.371 162.229 L839.371 136.303 M839.371 126.21 L843.63 126.21 L843.63 131.604 L839.371 131.604 L839.371 126.21 Z" fill="#000000" fill-rule="nonzero" fill-opacity="1" /><path clip-path="url(#clip710)" d="M862.588 139.289 Q859.162 139.289 857.172 141.974 Q855.181 144.636 855.181 149.289 Q855.181 153.942 857.148 156.627 Q859.139 159.289 862.588 159.289 Q865.991 159.289 867.982 156.604 Q869.972 153.918 869.972 149.289 Q869.972 144.682 867.982 141.997 Q865.991 139.289 862.588 139.289 M862.588 135.678 Q868.144 135.678 871.315 139.289 Q874.486 142.9 874.486 149.289 Q874.486 155.655 871.315 159.289 Q868.144 162.9 862.588 162.9 Q857.01 162.9 853.838 159.289 Q850.69 155.655 850.69 149.289 Q850.69 142.9 853.838 139.289 Q857.01 135.678 862.588 135.678 Z" fill="#000000" fill-rule="nonzero" fill-opacity="1" /><path clip-path="url(#clip710)" d="M903.097 146.581 L903.097 162.229 L898.838 162.229 L898.838 146.719 Q898.838 143.039 897.403 141.21 Q895.968 139.382 893.097 139.382 Q889.648 139.382 887.658 141.581 Q885.667 143.78 885.667 147.576 L885.667 162.229 L881.384 162.229 L881.384 136.303 L885.667 136.303 L885.667 140.331 Q887.195 137.993 889.255 136.835 Q891.338 135.678 894.046 135.678 Q898.514 135.678 900.806 138.456 Q903.097 141.21 903.097 146.581 Z" fill="#000000" fill-rule="nonzero" fill-opacity="1" /><path clip-path="url(#clip710)" d="M945.273 149.289 Q945.273 144.59 943.329 141.928 Q941.407 139.243 938.028 139.243 Q934.648 139.243 932.704 141.928 Q930.782 144.59 930.782 149.289 Q930.782 153.988 932.704 156.673 Q934.648 159.335 938.028 159.335 Q941.407 159.335 943.329 156.673 Q945.273 153.988 945.273 149.289 M930.782 140.238 Q932.125 137.923 934.162 136.812 Q936.222 135.678 939.069 135.678 Q943.791 135.678 946.731 139.428 Q949.694 143.178 949.694 149.289 Q949.694 155.4 946.731 159.15 Q943.791 162.9 939.069 162.9 Q936.222 162.9 934.162 161.789 Q932.125 160.655 930.782 158.34 L930.782 162.229 L926.5 162.229 L926.5 126.21 L930.782 126.21 L930.782 140.238 Z" fill="#000000" fill-rule="nonzero" fill-opacity="1" /><path clip-path="url(#clip710)" d="M966.801 139.289 Q963.375 139.289 961.384 141.974 Q959.393 144.636 959.393 149.289 Q959.393 153.942 961.361 156.627 Q963.352 159.289 966.801 159.289 Q970.203 159.289 972.194 156.604 Q974.185 153.918 974.185 149.289 Q974.185 144.682 972.194 141.997 Q970.203 139.289 966.801 139.289 M966.801 135.678 Q972.356 135.678 975.527 139.289 Q978.699 142.9 978.699 149.289 Q978.699 155.655 975.527 159.289 Q972.356 162.9 966.801 162.9 Q961.222 162.9 958.051 159.289 Q954.903 155.655 954.903 149.289 Q954.903 142.9 958.051 139.289 Q961.222 135.678 966.801 135.678 Z" fill="#000000" fill-rule="nonzero" fill-opacity="1" /><path clip-path="url(#clip710)" d="M985.319 151.997 L985.319 136.303 L989.578 136.303 L989.578 151.835 Q989.578 155.516 991.013 157.368 Q992.449 159.196 995.319 159.196 Q998.768 159.196 1000.76 156.997 Q1002.77 154.798 1002.77 151.002 L1002.77 136.303 L1007.03 136.303 L1007.03 162.229 L1002.77 162.229 L1002.77 158.247 Q1001.22 160.608 999.162 161.766 Q997.125 162.9 994.416 162.9 Q989.949 162.9 987.634 160.122 Q985.319 157.344 985.319 151.997 M996.037 135.678 L996.037 135.678 Z" fill="#000000" fill-rule="nonzero" fill-opacity="1" /><path clip-path="url(#clip710)" d="M1037.36 146.581 L1037.36 162.229 L1033.1 162.229 L1033.1 146.719 Q1033.1 143.039 1031.66 141.21 Q1030.23 139.382 1027.36 139.382 Q1023.91 139.382 1021.92 141.581 Q1019.93 143.78 1019.93 147.576 L1019.93 162.229 L1015.64 162.229 L1015.64 136.303 L1019.93 136.303 L1019.93 140.331 Q1021.45 137.993 1023.51 136.835 Q1025.6 135.678 1028.3 135.678 Q1032.77 135.678 1035.06 138.456 Q1037.36 141.21 1037.36 146.581 Z" fill="#000000" fill-rule="nonzero" fill-opacity="1" /><path clip-path="url(#clip710)" d="M1062.91 140.238 L1062.91 126.21 L1067.17 126.21 L1067.17 162.229 L1062.91 162.229 L1062.91 158.34 Q1061.57 160.655 1059.51 161.789 Q1057.47 162.9 1054.6 162.9 Q1049.9 162.9 1046.94 159.15 Q1044 155.4 1044 149.289 Q1044 143.178 1046.94 139.428 Q1049.9 135.678 1054.6 135.678 Q1057.47 135.678 1059.51 136.812 Q1061.57 137.923 1062.91 140.238 M1048.4 149.289 Q1048.4 153.988 1050.32 156.673 Q1052.26 159.335 1055.64 159.335 Q1059.02 159.335 1060.97 156.673 Q1062.91 153.988 1062.91 149.289 Q1062.91 144.59 1060.97 141.928 Q1059.02 139.243 1055.64 139.243 Q1052.26 139.243 1050.32 141.928 Q1048.4 144.59 1048.4 149.289 Z" fill="#000000" fill-rule="nonzero" fill-opacity="1" /><path clip-path="url(#clip710)" d="M1087.73 149.196 Q1082.56 149.196 1080.57 150.377 Q1078.58 151.557 1078.58 154.405 Q1078.58 156.673 1080.06 158.016 Q1081.57 159.335 1084.14 159.335 Q1087.68 159.335 1089.81 156.835 Q1091.96 154.312 1091.96 150.145 L1091.96 149.196 L1087.73 149.196 M1096.22 147.437 L1096.22 162.229 L1091.96 162.229 L1091.96 158.293 Q1090.5 160.655 1088.33 161.789 Q1086.15 162.9 1083 162.9 Q1079.02 162.9 1076.66 160.678 Q1074.32 158.432 1074.32 154.682 Q1074.32 150.307 1077.24 148.085 Q1080.18 145.863 1085.99 145.863 L1091.96 145.863 L1091.96 145.446 Q1091.96 142.507 1090.02 140.909 Q1088.1 139.289 1084.6 139.289 Q1082.38 139.289 1080.27 139.821 Q1078.17 140.354 1076.22 141.419 L1076.22 137.483 Q1078.56 136.581 1080.76 136.141 Q1082.96 135.678 1085.04 135.678 Q1090.67 135.678 1093.44 138.594 Q1096.22 141.511 1096.22 147.437 Z" fill="#000000" fill-rule="nonzero" fill-opacity="1" /><path clip-path="url(#clip710)" d="M1120.02 140.284 Q1119.3 139.868 1118.44 139.682 Q1117.61 139.474 1116.59 139.474 Q1112.98 139.474 1111.04 141.835 Q1109.11 144.173 1109.11 148.571 L1109.11 162.229 L1104.83 162.229 L1104.83 136.303 L1109.11 136.303 L1109.11 140.331 Q1110.46 137.969 1112.61 136.835 Q1114.76 135.678 1117.84 135.678 Q1118.28 135.678 1118.81 135.747 Q1119.35 135.794 1119.99 135.909 L1120.02 140.284 Z" fill="#000000" fill-rule="nonzero" fill-opacity="1" /><path clip-path="url(#clip710)" d="M1135.27 164.636 Q1133.47 169.266 1131.75 170.678 Q1130.04 172.09 1127.17 172.09 L1123.77 172.09 L1123.77 168.525 L1126.27 168.525 Q1128.03 168.525 1129 167.692 Q1129.97 166.858 1131.15 163.756 L1131.92 161.812 L1121.43 136.303 L1125.94 136.303 L1134.05 156.581 L1142.15 136.303 L1146.66 136.303 L1135.27 164.636 Z" fill="#000000" fill-rule="nonzero" fill-opacity="1" /></svg>
