<?xml version="1.0" encoding="UTF-8" standalone="no"?>
<!-- Created with Inkscape (http://www.inkscape.org/) -->

<svg
   xmlns:dc="http://purl.org/dc/elements/1.1/"
   xmlns:cc="http://creativecommons.org/ns#"
   xmlns:rdf="http://www.w3.org/1999/02/22-rdf-syntax-ns#"
   xmlns:svg="http://www.w3.org/2000/svg"
   xmlns="http://www.w3.org/2000/svg"
   xmlns:xlink="http://www.w3.org/1999/xlink"
   xmlns:sodipodi="http://sodipodi.sourceforge.net/DTD/sodipodi-0.dtd"
   xmlns:inkscape="http://www.inkscape.org/namespaces/inkscape"
   width="900"
   height="900"
   viewBox="0 0 119.0625 119.0625"
   version="1.1"
   id="svg8"
   inkscape:version="0.92.4 (f8dce91, 2019-08-02)"
   sodipodi:docname="logo.svg">
  <defs
     id="defs2"
     style="stroke-linecap:butt;stroke-linejoin:round">
    <style
       id="style10"
       type="text/css">
*{stroke-linecap:butt;stroke-linejoin:round;}
  </style>
    <path
       style="stroke:#9558b2;stroke-width:5;stroke-linecap:butt;stroke-linejoin:round"
       id="m87998c3c64"
       d="M 0,37.5 C 9.945116,37.5 19.484245,33.548763 26.516504,26.516504 33.548763,19.484245 37.5,9.945116 37.5,0 37.5,-9.945116 33.548763,-19.484245 26.516504,-26.516504 19.484245,-33.548763 9.945116,-37.5 0,-37.5 c -9.945116,0 -19.484245,3.951237 -26.516504,10.983496 C -33.548763,-19.484245 -37.5,-9.945116 -37.5,0 c 0,9.945116 3.951237,19.484245 10.983496,26.516504 C -19.484245,33.548763 -9.945116,37.5 0,37.5 Z"
       inkscape:connector-curvature="0" />
    <path
       style="stroke:#cb3c33;stroke-width:5;stroke-linecap:butt;stroke-linejoin:round"
       id="m0533d26529"
       d="M 0,37.5 C 9.945116,37.5 19.484245,33.548763 26.516504,26.516504 33.548763,19.484245 37.5,9.945116 37.5,0 37.5,-9.945116 33.548763,-19.484245 26.516504,-26.516504 19.484245,-33.548763 9.945116,-37.5 0,-37.5 c -9.945116,0 -19.484245,3.951237 -26.516504,10.983496 C -33.548763,-19.484245 -37.5,-9.945116 -37.5,0 c 0,9.945116 3.951237,19.484245 10.983496,26.516504 C -19.484245,33.548763 -9.945116,37.5 0,37.5 Z"
       inkscape:connector-curvature="0" />
    <path
       style="stroke:#389826;stroke-width:5;stroke-linecap:butt;stroke-linejoin:round"
       id="m8b38c17542"
       d="M 0,37.5 C 9.945116,37.5 19.484245,33.548763 26.516504,26.516504 33.548763,19.484245 37.5,9.945116 37.5,0 37.5,-9.945116 33.548763,-19.484245 26.516504,-26.516504 19.484245,-33.548763 9.945116,-37.5 0,-37.5 c -9.945116,0 -19.484245,3.951237 -26.516504,10.983496 C -33.548763,-19.484245 -37.5,-9.945116 -37.5,0 c 0,9.945116 3.951237,19.484245 10.983496,26.516504 C -19.484245,33.548763 -9.945116,37.5 0,37.5 Z"
       inkscape:connector-curvature="0" />
    <clipPath
       id="p4d685da1c6"
       style="stroke-linecap:butt;stroke-linejoin:round">
      <rect
         id="rect141"
         y="2.834646"
         x="2.834646"
         width="426.33072"
         height="426.33072"
         style="stroke-linecap:butt;stroke-linejoin:round" />
    </clipPath>
    <style
       id="style251"
       type="text/css">
*{stroke-linecap:butt;stroke-linejoin:round;}
  </style>
    <path
       style="stroke:#9558b2;stroke-width:5;stroke-linecap:butt;stroke-linejoin:round"
       id="m87998c3c64-3"
       d="M 0,37.5 C 9.945116,37.5 19.484245,33.548763 26.516504,26.516504 33.548763,19.484245 37.5,9.945116 37.5,0 37.5,-9.945116 33.548763,-19.484245 26.516504,-26.516504 19.484245,-33.548763 9.945116,-37.5 0,-37.5 c -9.945116,0 -19.484245,3.951237 -26.516504,10.983496 C -33.548763,-19.484245 -37.5,-9.945116 -37.5,0 c 0,9.945116 3.951237,19.484245 10.983496,26.516504 C -19.484245,33.548763 -9.945116,37.5 0,37.5 Z"
       inkscape:connector-curvature="0" />
    <path
       style="stroke:#cb3c33;stroke-width:5;stroke-linecap:butt;stroke-linejoin:round"
       id="m0533d26529-6"
       d="M 0,37.5 C 9.945116,37.5 19.484245,33.548763 26.516504,26.516504 33.548763,19.484245 37.5,9.945116 37.5,0 37.5,-9.945116 33.548763,-19.484245 26.516504,-26.516504 19.484245,-33.548763 9.945116,-37.5 0,-37.5 c -9.945116,0 -19.484245,3.951237 -26.516504,10.983496 C -33.548763,-19.484245 -37.5,-9.945116 -37.5,0 c 0,9.945116 3.951237,19.484245 10.983496,26.516504 C -19.484245,33.548763 -9.945116,37.5 0,37.5 Z"
       inkscape:connector-curvature="0" />
    <path
       style="stroke:#389826;stroke-width:5;stroke-linecap:butt;stroke-linejoin:round"
       id="m8b38c17542-7"
       d="M 0,37.5 C 9.945116,37.5 19.484245,33.548763 26.516504,26.516504 33.548763,19.484245 37.5,9.945116 37.5,0 37.5,-9.945116 33.548763,-19.484245 26.516504,-26.516504 19.484245,-33.548763 9.945116,-37.5 0,-37.5 c -9.945116,0 -19.484245,3.951237 -26.516504,10.983496 C -33.548763,-19.484245 -37.5,-9.945116 -37.5,0 c 0,9.945116 3.951237,19.484245 10.983496,26.516504 C -19.484245,33.548763 -9.945116,37.5 0,37.5 Z"
       inkscape:connector-curvature="0" />
    <clipPath
       id="p4d685da1c6-5"
       style="stroke-linecap:butt;stroke-linejoin:round">
      <rect
         id="rect382"
         y="2.834646"
         x="2.834646"
         width="426.33072"
         height="426.33072"
         style="stroke-linecap:butt;stroke-linejoin:round" />
    </clipPath>
    <style
       id="style492"
       type="text/css">
*{stroke-linecap:butt;stroke-linejoin:round;}
  </style>
    <path
       style="stroke:#9558b2;stroke-width:5;stroke-linecap:butt;stroke-linejoin:round"
       id="m87998c3c64-35"
       d="M 0,37.5 C 9.945116,37.5 19.484245,33.548763 26.516504,26.516504 33.548763,19.484245 37.5,9.945116 37.5,0 37.5,-9.945116 33.548763,-19.484245 26.516504,-26.516504 19.484245,-33.548763 9.945116,-37.5 0,-37.5 c -9.945116,0 -19.484245,3.951237 -26.516504,10.983496 C -33.548763,-19.484245 -37.5,-9.945116 -37.5,0 c 0,9.945116 3.951237,19.484245 10.983496,26.516504 C -19.484245,33.548763 -9.945116,37.5 0,37.5 Z"
       inkscape:connector-curvature="0" />
    <path
       style="stroke:#cb3c33;stroke-width:5;stroke-linecap:butt;stroke-linejoin:round"
       id="m0533d26529-62"
       d="M 0,37.5 C 9.945116,37.5 19.484245,33.548763 26.516504,26.516504 33.548763,19.484245 37.5,9.945116 37.5,0 37.5,-9.945116 33.548763,-19.484245 26.516504,-26.516504 19.484245,-33.548763 9.945116,-37.5 0,-37.5 c -9.945116,0 -19.484245,3.951237 -26.516504,10.983496 C -33.548763,-19.484245 -37.5,-9.945116 -37.5,0 c 0,9.945116 3.951237,19.484245 10.983496,26.516504 C -19.484245,33.548763 -9.945116,37.5 0,37.5 Z"
       inkscape:connector-curvature="0" />
    <path
       style="stroke:#389826;stroke-width:5;stroke-linecap:butt;stroke-linejoin:round"
       id="m8b38c17542-9"
       d="M 0,37.5 C 9.945116,37.5 19.484245,33.548763 26.516504,26.516504 33.548763,19.484245 37.5,9.945116 37.5,0 37.5,-9.945116 33.548763,-19.484245 26.516504,-26.516504 19.484245,-33.548763 9.945116,-37.5 0,-37.5 c -9.945116,0 -19.484245,3.951237 -26.516504,10.983496 C -33.548763,-19.484245 -37.5,-9.945116 -37.5,0 c 0,9.945116 3.951237,19.484245 10.983496,26.516504 C -19.484245,33.548763 -9.945116,37.5 0,37.5 Z"
       inkscape:connector-curvature="0" />
    <clipPath
       id="p4d685da1c6-1"
       style="stroke-linecap:butt;stroke-linejoin:round">
      <rect
         id="rect623"
         y="2.834646"
         x="2.834646"
         width="426.33072"
         height="426.33072"
         style="stroke-linecap:butt;stroke-linejoin:round" />
    </clipPath>
    <style
       id="style731"
       type="text/css">
*{stroke-linecap:butt;stroke-linejoin:round;}
  </style>
    <path
       style="stroke:#9558b2;stroke-width:5;stroke-linecap:butt;stroke-linejoin:round"
       id="m2e39f5bb87"
       d="M 0,37.5 C 9.945116,37.5 19.484245,33.548763 26.516504,26.516504 33.548763,19.484245 37.5,9.945116 37.5,0 37.5,-9.945116 33.548763,-19.484245 26.516504,-26.516504 19.484245,-33.548763 9.945116,-37.5 0,-37.5 c -9.945116,0 -19.484245,3.951237 -26.516504,10.983496 C -33.548763,-19.484245 -37.5,-9.945116 -37.5,0 c 0,9.945116 3.951237,19.484245 10.983496,26.516504 C -19.484245,33.548763 -9.945116,37.5 0,37.5 Z"
       inkscape:connector-curvature="0" />
    <path
       style="stroke:#cb3c33;stroke-width:5;stroke-linecap:butt;stroke-linejoin:round"
       id="m3e7c70f1eb"
       d="M 0,37.5 C 9.945116,37.5 19.484245,33.548763 26.516504,26.516504 33.548763,19.484245 37.5,9.945116 37.5,0 37.5,-9.945116 33.548763,-19.484245 26.516504,-26.516504 19.484245,-33.548763 9.945116,-37.5 0,-37.5 c -9.945116,0 -19.484245,3.951237 -26.516504,10.983496 C -33.548763,-19.484245 -37.5,-9.945116 -37.5,0 c 0,9.945116 3.951237,19.484245 10.983496,26.516504 C -19.484245,33.548763 -9.945116,37.5 0,37.5 Z"
       inkscape:connector-curvature="0" />
    <path
       style="stroke:#389826;stroke-width:5;stroke-linecap:butt;stroke-linejoin:round"
       id="m7985e21a0c"
       d="M 0,37.5 C 9.945116,37.5 19.484245,33.548763 26.516504,26.516504 33.548763,19.484245 37.5,9.945116 37.5,0 37.5,-9.945116 33.548763,-19.484245 26.516504,-26.516504 19.484245,-33.548763 9.945116,-37.5 0,-37.5 c -9.945116,0 -19.484245,3.951237 -26.516504,10.983496 C -33.548763,-19.484245 -37.5,-9.945116 -37.5,0 c 0,9.945116 3.951237,19.484245 10.983496,26.516504 C -19.484245,33.548763 -9.945116,37.5 0,37.5 Z"
       inkscape:connector-curvature="0" />
    <clipPath
       id="p8ee4444af0"
       style="stroke-linecap:butt;stroke-linejoin:round">
      <rect
         id="rect862"
         y="2.834646"
         x="2.834646"
         width="426.33072"
         height="426.33072"
         style="stroke-linecap:butt;stroke-linejoin:round" />
    </clipPath>
  </defs>
  <sodipodi:namedview
     id="base"
     pagecolor="#ffffff"
     bordercolor="#666666"
     borderopacity="1.0"
     inkscape:pageopacity="0.0"
     inkscape:pageshadow="2"
     inkscape:zoom="0.52787981"
     inkscape:cx="696.22397"
     inkscape:cy="342.23265"
     inkscape:document-units="mm"
     inkscape:current-layer="layer1"
     showgrid="false"
     inkscape:pagecheckerboard="true"
     inkscape:window-width="1850"
     inkscape:window-height="1016"
     inkscape:window-x="70"
     inkscape:window-y="27"
     inkscape:window-maximized="1"
     units="px"
     scale-x="0.2" />
  <metadata
     id="metadata5">
    <rdf:RDF>
      <cc:Work
         rdf:about="">
        <dc:format>image/svg+xml</dc:format>
        <dc:type
           rdf:resource="http://purl.org/dc/dcmitype/StillImage" />
        <dc:title></dc:title>
      </cc:Work>
    </rdf:RDF>
  </metadata>
  <g
     inkscape:label="Layer 1"
     inkscape:groupmode="layer"
     id="layer1"
     transform="translate(-59.896183,127.90186)"
     style="stroke-linecap:butt;stroke-linejoin:round">
    <g
       id="figure_1"
       transform="matrix(0.39206019,0,0,0.3812051,28.345767,-147.9453)"
       style="stroke-linecap:butt;stroke-linejoin:round">
      <g
         id="patch_1"
         style="stroke-linecap:butt;stroke-linejoin:round">
        <path
           id="path735"
           style="fill:none;stroke-linecap:butt;stroke-linejoin:round"
           d="M 0,432 H 432 V 0 H 0 Z"
           inkscape:connector-curvature="0" />
      </g>
      <g
         id="axes_1"
         style="stroke-linecap:butt;stroke-linejoin:round">
        <g
           id="patch_2"
           style="stroke-linecap:butt;stroke-linejoin:round">
          <path
             id="path738"
             style="fill:none;stroke-linecap:butt;stroke-linejoin:round"
             d="M 2.834646,429.16535 H 429.16535 V 2.834646 H 2.834646 Z"
             inkscape:connector-curvature="0" />
        </g>
        <g
           id="line2d_1"
           style="stroke-linecap:butt;stroke-linejoin:round">
          <path
             id="path741"
             style="fill:none;stroke:#389826;stroke-width:5;stroke-linecap:round;stroke-linejoin:round"
             d="M 216,188.99648 V 104.34196"
             clip-path="url(#p8ee4444af0)"
             inkscape:connector-curvature="0" />
        </g>
        <g
           id="matplotlib.axis_1"
           style="stroke-linecap:butt;stroke-linejoin:round">
          <g
             id="xtick_1"
             style="stroke-linecap:butt;stroke-linejoin:round" />
          <g
             id="xtick_2"
             style="stroke-linecap:butt;stroke-linejoin:round" />
          <g
             id="xtick_3"
             style="stroke-linecap:butt;stroke-linejoin:round" />
          <g
             id="xtick_4"
             style="stroke-linecap:butt;stroke-linejoin:round" />
          <g
             id="xtick_5"
             style="stroke-linecap:butt;stroke-linejoin:round" />
        </g>
        <g
           id="matplotlib.axis_2"
           style="stroke-linecap:butt;stroke-linejoin:round">
          <g
             id="ytick_1"
             style="stroke-linecap:butt;stroke-linejoin:round" />
          <g
             id="ytick_2"
             style="stroke-linecap:butt;stroke-linejoin:round" />
          <g
             id="ytick_3"
             style="stroke-linecap:butt;stroke-linejoin:round" />
          <g
             id="ytick_4"
             style="stroke-linecap:butt;stroke-linejoin:round" />
        </g>
        <g
           id="line2d_2"
           style="stroke-linecap:butt;stroke-linejoin:round">
          <path
             id="path755"
             style="fill:none;stroke:#cb3c33;stroke-width:5;stroke-linecap:round;stroke-linejoin:round"
             d="m 88.100787,248.48234 0.06311,1.00435 0.189269,1.00336 0.315242,1.00138 0.440902,0.99841 0.566128,0.99446 0.690795,0.98952 0.814781,0.98361 0.937961,0.97672 1.060218,0.96888 1.181426,0.96007 1.301471,0.95032 1.420229,0.93963 1.537586,0.92801 1.653425,0.91549 1.76764,0.90205 1.8801,0.88772 1.9907,0.87252 2.09935,0.85646 2.20593,0.83954 2.31031,0.82182 2.41244,0.80326 2.51216,0.78393 2.60943,0.76381 2.7041,0.74294 2.79611,0.72134 2.88536,0.69903 2.97177,0.67602 3.05524,0.65236 3.1357,0.62804 3.21306,0.60311 3.28725,0.57758 3.35819,0.55148 3.42583,0.52484"
             clip-path="url(#p8ee4444af0)"
             inkscape:connector-curvature="0" />
        </g>
        <g
           id="line2d_3"
           style="stroke-linecap:butt;stroke-linejoin:round">
          <path
             id="path758"
             style="fill:none;stroke:#9558b2;stroke-width:5;stroke-linecap:round;stroke-linejoin:round"
             d="m 304.31643,197.88082 0.95325,-0.0805 0.95531,-0.0506 0.95642,-0.0205 0.9566,0.01 0.95583,0.0396 0.95411,0.0696 0.95145,0.0995 0.94786,0.12935 0.94333,0.15905 0.93787,0.1886 0.93148,0.21797 0.92418,0.24712 0.91596,0.27603 0.90683,0.30466 0.89682,0.333 0.88591,0.361 0.87414,0.38865 0.8615,0.41592 0.84801,0.44277 0.83369,0.46919 0.81853,0.49515 0.80258,0.52061 0.78583,0.54556 0.76831,0.56998 0.75002,0.59383 0.731,0.6171 0.71125,0.63975 0.69081,0.66178 0.66969,0.68315 0.64789,0.70385 0.62546,0.72385 0.60242,0.74314 0.57878,0.7617 0.55457,0.7795 0.52981,0.79654 0.50453,0.81278 0.47875,0.82823 0.4525,0.84286 0.4258,0.85666 0.39868,0.86961 0.37117,0.88171 0.34329,0.89292 0.31508,0.90327 0.28655,0.91272 0.25773,0.92128 0.22867,0.92891 0.19938,0.93564 0.1699,0.94143 0.14023,0.94631 0.11045,0.95025 0.0805,0.95325 0.0506,0.95531 0.0205,0.95642 -0.01,0.9566 -0.0396,0.95582 -0.0696,0.95411 -0.0995,0.95146 -0.12934,0.94786 -0.15905,0.94333 -0.1886,0.93787 -0.21797,0.93148 -0.24712,0.92418 -0.27603,0.91595 -0.30467,0.90684 -0.33299,0.89682 -0.361,0.88591 -0.38866,0.87414 -0.41591,0.8615 -0.44277,0.84801 -0.46919,0.83368 -0.49515,0.81854 -0.52061,0.80258 -0.54556,0.78583 -0.56998,0.7683 -0.59383,0.75003 -0.6171,0.731 -0.63975,0.71125 -0.66178,0.69081 -0.68315,0.66968 -0.70385,0.6479 -0.72385,0.62546 -0.74315,0.60242 -0.76169,0.57878 -0.7795,0.55457 -0.79654,0.52981 -0.81278,0.50453 -0.82824,0.47875 -0.84286,0.4525 -0.85666,0.4258 -0.8696,0.39868 -0.88171,0.37117 -0.89293,0.34329 -0.90327,0.31508 -0.91272,0.28654 -0.92127,0.25774 -0.92891,0.22867 -0.93564,0.19938 -0.94144,0.16989 -0.94631,0.14024 -0.95024,0.11045 -0.95325,0.0805 -0.95531,0.0506 -0.95642,0.0205 -0.9566,-0.01 -0.95583,-0.0396 -0.95411,-0.0696 -0.95145,-0.0995 -0.94786,-0.12934 -0.94333,-0.15905 -0.93787,-0.18861 -0.93148,-0.21797 -0.92418,-0.24712 -0.91596,-0.27603 -0.90683,-0.30466 -0.89682,-0.33299 -0.88591,-0.36101 -0.87414,-0.38865 -0.8615,-0.41591 -0.84801,-0.44278"
             clip-path="url(#p8ee4444af0)"
             inkscape:connector-curvature="0" />
        </g>
        <g
           id="PathCollection_1"
           style="stroke-linecap:butt;stroke-linejoin:round">
          <defs
             id="defs762">
            <path
               style="stroke:#9558b2;stroke-width:5;stroke-linecap:butt;stroke-linejoin:round"
               id="path900"
               d="M 0,37.5 C 9.945116,37.5 19.484245,33.548763 26.516504,26.516504 33.548763,19.484245 37.5,9.945116 37.5,0 37.5,-9.945116 33.548763,-19.484245 26.516504,-26.516504 19.484245,-33.548763 9.945116,-37.5 0,-37.5 c -9.945116,0 -19.484245,3.951237 -26.516504,10.983496 C -33.548763,-19.484245 -37.5,-9.945116 -37.5,0 c 0,9.945116 3.951237,19.484245 10.983496,26.516504 C -19.484245,33.548763 -9.945116,37.5 0,37.5 Z"
               inkscape:connector-curvature="0" />
          </defs>
          <g
             id="g766"
             clip-path="url(#p8ee4444af0)"
             style="stroke-linecap:butt;stroke-linejoin:round">
            <use
               id="use764"
               y="276.90439"
               xlink:href="#m2e39f5bb87"
               x="266.75366"
               style="fill:#aa79c1;stroke:#9558b2;stroke-width:5;stroke-linecap:butt;stroke-linejoin:round"
               width="100%"
               height="100%" />
          </g>
        </g>
        <g
           id="PathCollection_2"
           style="stroke-linecap:butt;stroke-linejoin:round">
          <defs
             id="defs770">
            <path
               style="stroke:#cb3c33;stroke-width:5;stroke-linecap:butt;stroke-linejoin:round"
               id="path906"
               d="M 0,37.5 C 9.945116,37.5 19.484245,33.548763 26.516504,26.516504 33.548763,19.484245 37.5,9.945116 37.5,0 37.5,-9.945116 33.548763,-19.484245 26.516504,-26.516504 19.484245,-33.548763 9.945116,-37.5 0,-37.5 c -9.945116,0 -19.484245,3.951237 -26.516504,10.983496 C -33.548763,-19.484245 -37.5,-9.945116 -37.5,0 c 0,9.945116 3.951237,19.484245 10.983496,26.516504 C -19.484245,33.548763 -9.945116,37.5 0,37.5 Z"
               inkscape:connector-curvature="0" />
          </defs>
          <g
             id="g774"
             clip-path="url(#p8ee4444af0)"
             style="stroke-linecap:butt;stroke-linejoin:round">
            <use
               id="use772"
               y="276.90439"
               xlink:href="#m3e7c70f1eb"
               x="165.24634"
               style="fill:#d5635c;stroke:#cb3c33;stroke-width:5;stroke-linecap:butt;stroke-linejoin:round"
               width="100%"
               height="100%" />
          </g>
        </g>
        <g
           id="PathCollection_3"
           style="stroke-linecap:butt;stroke-linejoin:round">
          <defs
             id="defs778">
            <path
               style="stroke:#389826;stroke-width:5;stroke-linecap:butt;stroke-linejoin:round"
               id="path912"
               d="M 0,37.5 C 9.945116,37.5 19.484245,33.548763 26.516504,26.516504 33.548763,19.484245 37.5,9.945116 37.5,0 37.5,-9.945116 33.548763,-19.484245 26.516504,-26.516504 19.484245,-33.548763 9.945116,-37.5 0,-37.5 c -9.945116,0 -19.484245,3.951237 -26.516504,10.983496 C -33.548763,-19.484245 -37.5,-9.945116 -37.5,0 c 0,9.945116 3.951237,19.484245 10.983496,26.516504 C -19.484245,33.548763 -9.945116,37.5 0,37.5 Z"
               inkscape:connector-curvature="0" />
          </defs>
          <g
             id="g782"
             clip-path="url(#p8ee4444af0)"
             style="stroke-linecap:butt;stroke-linejoin:round">
            <use
               id="use780"
               y="188.99648"
               xlink:href="#m7985e21a0c"
               x="216"
               style="fill:#60ad51;stroke:#389826;stroke-width:5;stroke-linecap:butt;stroke-linejoin:round"
               width="100%"
               height="100%" />
          </g>
        </g>
        <g
           id="line2d_4"
           style="stroke-linecap:butt;stroke-linejoin:round">
          <path
             id="path785"
             style="fill:none;stroke:#6682e9;stroke-width:3;stroke-linecap:round;stroke-linejoin:round"
             d="M 216,98.251519 V 88.100787 108.40225 98.570361"
             clip-path="url(#p8ee4444af0)"
             inkscape:connector-curvature="0" />
        </g>
        <g
           id="line2d_5"
           style="stroke-linecap:butt;stroke-linejoin:round">
          <path
             id="path788"
             style="fill:none;stroke:#6682e9;stroke-width:3;stroke-linecap:round;stroke-linejoin:round"
             d="m 218.03015,98.251519 -0.12002,-3.438438 -0.306,-2.783017 -0.41084,-1.990659 -0.44594,-1.225798 L 216.31758,88.22576 216,88.100787 l -0.31759,0.124973 -0.30976,0.37184 -0.35068,0.758765 -0.4117,1.495589 -0.3577,2.232422 -0.23382,2.952829 -0.0399,3.169582 0.18421,3.366703 0.35702,2.62668 0.44648,1.78851 0.46704,1.01052 0.37534,0.358 0.31852,0.025 0.31539,-0.22443 0.36341,-0.59039 0.38702,-1.10377 0.37096,-1.74179 0.29893,-2.43898 0.15796,-3.076073 0.008,-0.636426 v 0"
             clip-path="url(#p8ee4444af0)"
             inkscape:connector-curvature="0" />
        </g>
        <g
           id="line2d_6"
           style="stroke-linecap:butt;stroke-linejoin:round">
          <path
             id="path791"
             style="fill:none;stroke:#6682e9;stroke-width:3;stroke-linecap:round;stroke-linejoin:round"
             d="m 220.06029,98.251519 -0.0978,-2.214314 -0.28865,-2.107658 -0.4656,-1.899483 -0.62013,-1.599818 -0.63207,-1.073881 L 217.2547,88.5976 216.63517,88.22576 216,88.100787 l -0.63517,0.124973 -0.61953,0.37184 -0.58863,0.609551 -0.64525,1.023716 -0.55709,1.307853 -0.51239,1.822647 -0.34101,2.058188 -0.15321,2.194594 0.042,2.225294 0.23514,2.148807 0.41697,1.96883 0.57873,1.694 0.60385,1.17098 0.68092,0.86737 0.60896,0.46836 0.63078,0.22443 0.63706,-0.025 0.62764,-0.27385 0.60279,-0.51595 0.66968,-0.92041 0.58884,-1.21782 0.55716,-1.73862 0.39203,-2.00059 0.20803,-2.166217 0.03,-0.953382 v 0"
             clip-path="url(#p8ee4444af0)"
             inkscape:connector-curvature="0" />
        </g>
        <g
           id="line2d_7"
           style="stroke-linecap:butt;stroke-linejoin:round">
          <path
             id="path794"
             style="fill:none;stroke:#6682e9;stroke-width:3;stroke-linecap:round;stroke-linejoin:round"
             d="m 222.09044,98.251519 -0.10788,-1.902058 -0.31981,-1.834676 -0.52042,-1.7023 -0.70259,-1.50962 -0.85987,-1.26346 L 218.765,89.207151 217.88205,88.5976 216.95275,88.22576 216,88.100787 l -0.95276,0.124973 -0.92929,0.37184 -0.88295,0.609551 -0.81487,0.832254 -0.72672,1.034463 -0.73069,1.472093 -0.55225,1.674216 -0.35423,1.817028 -0.14367,1.895471 0.072,1.906767 0.28508,1.850517 0.48808,1.7287 0.67379,1.54566 0.83564,1.30785 0.79878,0.8745 0.87103,0.65548 0.92183,0.4203 0.94992,0.17479 0.95464,-0.075 0.93585,-0.32301 0.894,-0.56302 0.83015,-0.78919 0.74586,-0.99591 0.75808,-1.43311 0.58352,-1.64448 0.38831,-1.79759 0.17932,-1.887012 0.009,-0.318527 v 0"
             clip-path="url(#p8ee4444af0)"
             inkscape:connector-curvature="0" />
        </g>
        <g
           id="line2d_8"
           style="stroke-linecap:butt;stroke-linejoin:round">
          <path
             id="path797"
             style="fill:none;stroke:#6682e9;stroke-width:3;stroke-linecap:round;stroke-linejoin:round"
             d="m 224.12058,98.251519 -0.1,-1.587925 -0.29747,-1.548824 -0.48765,-1.471587 -0.6658,-1.358115 -0.82757,-1.2112 -0.96896,-1.034463 -1.08649,-0.832254 L 218.5094,88.5976 217.27034,88.22576 216,88.100787 l -1.27034,0.124973 -1.23906,0.37184 -1.17727,0.609551 -1.08649,0.832254 -0.96896,1.034463 -0.82757,1.2112 -0.6658,1.358115 -0.48765,1.471587 -0.29747,1.548824 -0.1,1.587925 0.1,1.587924 0.29747,1.548827 0.48765,1.47158 0.6658,1.35812 0.82757,1.2112 0.96896,1.03446 1.08649,0.83226 1.17727,0.60955 1.23906,0.37184 1.27034,0.12497 1.27034,-0.12497 1.23906,-0.37184 1.17727,-0.60955 1.08649,-0.83226 0.96896,-1.03446 0.82757,-1.2112 0.6658,-1.35812 0.48765,-1.47158 0.29747,-1.548827 0.096,-1.269082 v 0"
             clip-path="url(#p8ee4444af0)"
             inkscape:connector-curvature="0" />
        </g>
        <g
           id="line2d_9"
           style="stroke-linecap:butt;stroke-linejoin:round">
          <path
             id="path800"
             style="fill:none;stroke:#6682e9;stroke-width:3;stroke-linecap:round;stroke-linejoin:round"
             d="m 226.15073,98.251519 -0.12497,-1.587925 -0.37184,-1.548824 -0.60955,-1.471587 -0.83226,-1.358115 -1.03446,-1.2112 -1.2112,-1.034463 -1.35811,-0.832254 L 219.13675,88.5976 217.58792,88.22576 216,88.100787 l -1.58792,0.124973 -1.54883,0.37184 -1.47159,0.609551 -1.35811,0.832254 -1.2112,1.034463 -1.03446,1.2112 -0.83226,1.358115 -0.60955,1.471587 -0.37184,1.548824 -0.12497,1.587925 0.12497,1.587924 0.37184,1.548827 0.60955,1.47158 0.83226,1.35812 1.03446,1.2112 1.2112,1.03446 1.35811,0.83226 1.47159,0.60955 1.54883,0.37184 1.58792,0.12497 1.58792,-0.12497 1.54883,-0.37184 1.47159,-0.60955 1.35811,-0.83226 1.2112,-1.03446 1.03446,-1.2112 0.83226,-1.35812 0.60955,-1.47158 0.37184,-1.548827 0.11996,-1.269082 v 0"
             clip-path="url(#p8ee4444af0)"
             inkscape:connector-curvature="0" />
        </g>
        <g
           id="line2d_10"
           style="stroke-linecap:butt;stroke-linejoin:round">
          <path
             id="path803"
             style="fill:none;stroke:#6682e9;stroke-width:3;stroke-linecap:round;stroke-linejoin:round"
             d="m 228.18088,98.251519 -0.096,-1.272224 -0.28664,-1.252161 -0.4727,-1.212349 -0.65131,-1.153418 -0.81964,-1.076299 -0.97506,-0.982203 -1.41373,-1.071998 -1.59757,-0.874502 -1.74206,-0.655474 -1.84365,-0.420306 -1.89986,-0.174789 -1.90928,0.07503 -1.87169,0.323007 -1.78801,0.563026 -1.6603,0.789184 -1.49171,0.995908 -1.2864,1.17811 -0.85981,1.054312 -0.69447,1.135801 -0.51816,1.199378 -0.33369,1.244039 -0.14396,1.269082 0.048,1.274111 0.2393,1.259046 0.42677,1.22413 0.60751,1.16989 0.77867,1.09723 0.93756,1.00724 1.37263,1.10847 1.56381,0.91589 1.71649,0.70075 1.8269,0.46836 1.89234,0.22443 1.91116,-0.025 1.88294,-0.27385 1.80835,-0.51595 1.68923,-0.74534 1.52852,-0.95637 1.33017,-1.14385 1.09906,-1.30318 0.69447,-1.1358 0.51816,-1.19938 0.33369,-1.24404 0.14396,-1.269082 v 0"
             clip-path="url(#p8ee4444af0)"
             inkscape:connector-curvature="0" />
        </g>
        <g
           id="line2d_11"
           style="stroke-linecap:butt;stroke-linejoin:round">
          <path
             id="path806"
             style="fill:none;stroke:#6682e9;stroke-width:3;stroke-linecap:round;stroke-linejoin:round"
             d="m 230.21102,98.251519 -0.11206,-1.272224 -0.3344,-1.252161 -0.55148,-1.212349 -0.75987,-1.153418 -0.95625,-1.076299 -1.13757,-0.982203 -1.30094,-0.872619 -1.4438,-0.749273 -1.97077,-0.745335 -2.10974,-0.515947 -2.19677,-0.273854 -2.22969,-0.02502 -2.20772,0.224432 -2.13139,0.468357 -2.00257,0.700751 -1.82445,0.915888 -1.30094,0.872619 -1.13757,0.982203 -0.95626,1.076299 -0.75986,1.153418 -0.55148,1.212349 -0.33441,1.252161 -0.11205,1.272224 0.11205,1.272224 0.33441,1.252158 0.55148,1.21235 0.75986,1.15342 0.95626,1.0763 1.13757,0.9822 1.30094,0.87262 1.4438,0.74927 1.97077,0.74534 2.10974,0.51595 2.19676,0.27385 2.2297,0.025 2.20772,-0.22443 2.13139,-0.46836 2.00257,-0.70075 1.82445,-0.91589 1.30094,-0.87262 1.13757,-0.9822 0.95625,-1.0763 0.75987,-1.15342 0.55148,-1.21235 0.3344,-1.252158 0.10505,-0.953382 v 0"
             clip-path="url(#p8ee4444af0)"
             inkscape:connector-curvature="0" />
        </g>
        <g
           id="line2d_12"
           style="stroke-linecap:butt;stroke-linejoin:round">
          <path
             id="path809"
             style="fill:none;stroke:#6682e9;stroke-width:3;stroke-linecap:round;stroke-linejoin:round"
             d="m 232.24117,98.251519 -0.12807,-1.272224 -0.38218,-1.252161 -0.63026,-1.212349 -0.86841,-1.153418 -1.09287,-1.076299 -1.30008,-0.982203 -1.48679,-0.872619 -1.65006,-0.749273 -2.2523,-0.745335 -2.41114,-0.515947 -2.51058,-0.273854 -2.54822,-0.02502 -2.52311,0.224432 -2.43587,0.468357 -2.28866,0.700751 -2.08508,0.915888 -1.48679,0.872619 -1.30008,0.982203 -1.09287,1.076299 -0.86841,1.153418 -0.63026,1.212349 -0.38218,1.252161 -0.12807,1.272224 0.12807,1.272224 0.38218,1.252158 0.63026,1.21235 0.86841,1.15342 1.09287,1.0763 1.30008,0.9822 1.48679,0.87262 1.65006,0.74927 2.2523,0.74534 2.41113,0.51595 2.51059,0.27385 2.54822,0.025 2.52311,-0.22443 2.43587,-0.46836 2.28866,-0.70075 2.08508,-0.91589 1.48679,-0.87262 1.30008,-0.9822 1.09287,-1.0763 0.86841,-1.15342 0.63026,-1.21235 0.38218,-1.252158 0.12006,-0.953382 v 0"
             clip-path="url(#p8ee4444af0)"
             inkscape:connector-curvature="0" />
        </g>
        <g
           id="line2d_13"
           style="stroke-linecap:butt;stroke-linejoin:round">
          <path
             id="path812"
             style="fill:none;stroke:#6682e9;stroke-width:3;stroke-linecap:round;stroke-linejoin:round"
             d="m 234.27132,98.251519 -0.14408,-1.272224 -0.42995,-1.252161 -0.70905,-1.212349 -0.97696,-1.153418 -1.22948,-1.076299 -1.46258,-0.982203 -1.67264,-0.872619 -1.85632,-0.749273 -2.53385,-0.745335 -2.71252,-0.515947 -2.82441,-0.273854 -2.86675,-0.02502 -2.83849,0.224432 -2.74036,0.468357 -2.57474,0.700751 -2.34572,0.915888 -1.67264,0.872619 -1.46259,0.982203 -1.22947,1.076299 -0.97696,1.153418 -0.70905,1.212349 -0.42995,1.252161 -0.14408,1.272224 0.14408,1.272224 0.42995,1.252158 0.70905,1.21235 0.97696,1.15342 1.22947,1.0763 1.46259,0.9822 1.67264,0.87262 1.85632,0.74927 2.53384,0.74534 2.71253,0.51595 2.82441,0.27385 2.86674,0.025 2.8385,-0.22443 2.74036,-0.46836 2.57474,-0.70075 2.34572,-0.91589 1.67264,-0.87262 1.46258,-0.9822 1.22948,-1.0763 0.97696,-1.15342 0.70905,-1.21235 0.42995,-1.252158 0.13506,-0.953382 v 0"
             clip-path="url(#p8ee4444af0)"
             inkscape:connector-curvature="0" />
        </g>
        <g
           id="line2d_14"
           style="stroke-linecap:butt;stroke-linejoin:round">
          <path
             id="path815"
             style="fill:none;stroke:#6682e9;stroke-width:3;stroke-linecap:round;stroke-linejoin:round"
             d="m 236.30146,98.251519 -0.0901,-0.955269 -0.26949,-0.946789 -0.4465,-0.929906 -0.86361,-1.199378 -1.15744,-1.135801 -1.43302,-1.054312 -1.686,-0.956196 -1.91239,-0.843001 -2.10863,-0.716509 -2.86081,-0.700751 -3.04484,-0.468357 -3.15389,-0.224432 -3.18528,0.02502 -3.13823,0.273854 -3.01391,0.515947 -2.81539,0.745335 -2.06257,0.749273 -1.85849,0.872619 -1.6251,0.982203 -1.36608,1.076299 -1.08551,1.153418 -0.78784,1.212349 -0.38786,0.93646 -0.20988,0.950555 -0.03,0.956212 0.15007,0.953382 0.32884,0.942086 0.5047,0.92244 0.93853,1.18522 1.22822,1.11706 1.49854,1.03129 1.74524,0.92924 1.96441,0.81255 2.1526,0.68304 2.90342,0.65548 3.07276,0.4203 3.16644,0.17479 3.18213,-0.075 3.11948,-0.32301 2.98001,-0.56302 2.76717,-0.78919 2.01449,-0.7813 1.80275,-0.90137 1.56259,-1.00724 1.2978,-1.09723 1.01251,-1.16989 0.71129,-1.22413 0.32884,-0.942086 0.15006,-0.953382 v 0"
             clip-path="url(#p8ee4444af0)"
             inkscape:connector-curvature="0" />
        </g>
        <g
           id="line2d_15"
           style="stroke-linecap:butt;stroke-linejoin:round">
          <path
             id="path818"
             style="fill:none;stroke:#6682e9;stroke-width:3;stroke-linecap:round;stroke-linejoin:round"
             d="m 238.33161,98.251519 -0.0991,-0.955269 -0.29645,-0.946789 -0.49115,-0.929906 -0.6815,-0.90477 -1.19406,-1.153418 -1.50269,-1.076299 -1.78761,-0.982203 -2.04434,-0.872619 -2.26883,-0.749273 -2.45753,-0.614111 -3.27802,-0.563026 -3.43143,-0.323007 -3.50034,-0.07503 -3.48308,0.174789 -3.38003,0.420306 -3.19377,0.655474 -2.36786,0.68304 -2.16085,0.812549 -1.91976,0.929245 -1.6484,1.031286 -1.35104,1.117062 -1.03238,1.185223 -0.55517,0.922435 -0.36173,0.94209 -0.16507,0.953381 0.0331,0.956212 0.23087,0.950555 0.42665,0.936454 0.61864,0.91406 1.11377,1.16989 1.42757,1.09723 1.71885,1.00724 1.98303,0.90137 2.21593,0.7813 2.41389,0.6489 3.23749,0.60955 3.40742,0.37184 3.49343,0.12497 3.49343,-0.12497 3.40742,-0.37184 3.23749,-0.60955 2.98785,-0.83226 2.16085,-0.81255 1.91976,-0.92924 1.6484,-1.03129 1.35104,-1.11706 1.03238,-1.18522 0.55517,-0.92244 0.36173,-0.942084 0.16507,-0.953382 v 0"
             clip-path="url(#p8ee4444af0)"
             inkscape:connector-curvature="0" />
        </g>
        <g
           id="line2d_16"
           style="stroke-linecap:butt;stroke-linejoin:round">
          <path
             id="path821"
             style="fill:none;stroke:#6682e9;stroke-width:3;stroke-linecap:round;stroke-linejoin:round"
             d="m 240.36175,98.251519 -0.10811,-0.955269 -0.3234,-0.946789 -0.5358,-0.929906 -0.74345,-0.90477 -1.30262,-1.153418 -1.6393,-1.076299 -1.95012,-0.982203 -2.23018,-0.872619 -2.47509,-0.749273 -2.68095,-0.614111 -3.57602,-0.563026 -3.74337,-0.323007 -3.81856,-0.07503 -3.79972,0.174789 -3.68731,0.420306 -3.48412,0.655474 -2.58311,0.68304 -2.35729,0.812549 -2.09429,0.929245 -1.79825,1.031286 -1.47387,1.117062 -1.12623,1.185223 -0.60564,0.922435 -0.39461,0.94209 -0.18007,0.953381 0.036,0.956212 0.25186,0.950555 0.46543,0.936454 0.67488,0.91406 0.87833,0.88353 1.47387,1.11706 1.79825,1.03129 2.09429,0.92924 2.35729,0.81255 2.58311,0.68304 3.48412,0.65548 3.68731,0.4203 3.79972,0.17479 3.81856,-0.075 3.74337,-0.32301 3.57602,-0.56302 3.32061,-0.78919 2.41738,-0.7813 2.1633,-0.90137 1.87511,-1.00724 1.55735,-1.09723 1.21503,-1.16989 0.67487,-0.91406 0.46544,-0.936454 0.25186,-0.950555 0.036,-0.318527 v 0"
             clip-path="url(#p8ee4444af0)"
             inkscape:connector-curvature="0" />
        </g>
        <g
           id="line2d_17"
           style="stroke-linecap:butt;stroke-linejoin:round">
          <path
             id="path824"
             style="fill:none;stroke:#6682e9;stroke-width:3;stroke-linecap:round;stroke-linejoin:round"
             d="m 242.3919,98.251519 -0.11713,-0.955269 -0.35034,-0.946789 -0.58045,-0.929906 -0.80541,-0.90477 -1.02321,-0.871602 -1.68713,-1.097222 -2.03137,-1.007241 -2.34358,-0.901377 -2.61883,-0.781297 -2.85278,-0.648895 L 224.15555,88.5976 220.1286,88.22576 216,88.100787 l -4.1286,0.124973 -4.02695,0.37184 -3.82612,0.609551 -3.5311,0.832254 -2.55373,0.812549 -2.26881,0.929245 -1.94811,1.031286 -1.59669,1.117062 -1.22008,1.185223 -0.65611,0.922435 -0.42749,0.94209 -0.19509,0.953381 0.0391,0.956212 0.27285,0.950555 0.50422,0.936457 0.73112,0.91406 0.95152,0.88353 1.59669,1.11706 1.94811,1.03129 2.26881,0.92924 2.55373,0.81255 2.79837,0.68304 3.77446,0.65548 3.99459,0.4203 4.11636,0.17479 4.13677,-0.075 4.05533,-0.32301 3.87401,-0.56302 3.59733,-0.78919 2.61883,-0.7813 2.34358,-0.90137 2.03137,-1.00724 1.68713,-1.09723 1.31627,-1.16989 0.73112,-0.91406 0.50422,-0.936457 0.27285,-0.950555 0.0391,-0.318527 v 0"
             clip-path="url(#p8ee4444af0)"
             inkscape:connector-curvature="0" />
        </g>
        <g
           id="line2d_18"
           style="stroke-linecap:butt;stroke-linejoin:round">
          <path
             id="path827"
             style="fill:none;stroke:#6682e9;stroke-width:3;stroke-linecap:round;stroke-linejoin:round"
             d="m 244.42205,98.251519 -0.12614,-0.955269 -0.3773,-0.946789 -0.6251,-0.929906 -0.86736,-0.90477 -1.10192,-0.871602 -1.81691,-1.097222 -2.18763,-1.007241 -2.52385,-0.901377 -2.82028,-0.781297 -3.07222,-0.648895 L 224.7829,88.5976 220.44619,88.22576 216,88.100787 l -4.44619,0.124973 -4.33671,0.37184 -4.12044,0.609551 -3.07222,0.648895 -2.82028,0.781297 -2.52385,0.901377 -2.18763,1.007241 -1.81691,1.097222 -1.41753,1.169898 -0.78736,0.914053 -0.54301,0.93646 -0.29383,0.950555 -0.0421,0.956212 0.21009,0.953382 0.46038,0.942087 0.70658,0.92244 0.9465,0.89459 1.17804,0.85881 1.91251,1.0763 2.27514,0.9822 2.60188,0.87262 2.88761,0.74927 3.12777,0.61412 4.17202,0.56302 4.36727,0.32301 4.45499,0.075 4.433,-0.17479 4.30186,-0.4203 4.06481,-0.65548 3.01363,-0.68304 2.75017,-0.81255 2.44333,-0.92924 2.09797,-1.03129 1.71951,-1.11706 1.02472,-0.88353 0.78736,-0.91406 0.543,-0.936457 0.29384,-0.950555 0.0421,-0.318527 v 0"
             clip-path="url(#p8ee4444af0)"
             inkscape:connector-curvature="0" />
        </g>
        <g
           id="line2d_19"
           style="stroke-linecap:butt;stroke-linejoin:round">
          <path
             id="path830"
             style="fill:none;stroke:#6682e9;stroke-width:3;stroke-linecap:round;stroke-linejoin:round"
             d="m 246.45219,98.251519 -0.13514,-0.955269 -0.40425,-0.946789 -0.66975,-0.929906 -0.92932,-0.90477 -1.18063,-0.871602 -1.94668,-1.097222 -2.34389,-1.007241 -2.70413,-0.901377 -3.02173,-0.781297 -3.29166,-0.648895 L 225.41024,88.5976 220.76377,88.22576 216,88.100787 l -4.76377,0.124973 -4.64648,0.37184 -4.41476,0.609551 -3.29166,0.648895 -3.02173,0.781297 -2.70413,0.901377 -2.34389,1.007241 -1.94668,1.097222 -1.18063,0.871602 -0.92932,0.90477 -0.66975,0.929906 -0.40425,0.946789 -0.13514,0.955269 0.13514,0.955268 0.40425,0.946793 0.66975,0.9299 0.92932,0.90477 1.18063,0.8716 1.94668,1.09723 2.34389,1.00724 2.70413,0.90137 3.02173,0.7813 3.29166,0.6489 4.41476,0.60955 4.64648,0.37184 4.76377,0.12497 4.76377,-0.12497 4.64647,-0.37184 4.41477,-0.60955 3.29166,-0.6489 3.02173,-0.7813 2.70413,-0.90137 2.34389,-1.00724 1.94668,-1.09723 1.18063,-0.8716 0.92932,-0.90477 0.66975,-0.9299 0.40425,-0.946793 0.12012,-0.636426 v 0"
             clip-path="url(#p8ee4444af0)"
             inkscape:connector-curvature="0" />
        </g>
        <g
           id="line2d_20"
           style="stroke-linecap:butt;stroke-linejoin:round">
          <path
             id="path833"
             style="fill:none;stroke:#6682e9;stroke-width:3;stroke-linecap:round;stroke-linejoin:round"
             d="m 248.48234,98.251519 -0.14416,-0.955269 -0.43119,-0.946789 -0.7144,-0.929906 -0.99127,-0.90477 -1.25934,-0.871602 -2.07647,-1.097222 -2.50015,-1.007241 -2.8844,-0.901377 -3.22318,-0.781297 -3.51111,-0.648895 L 226.03759,88.5976 221.08136,88.22576 216,88.100787 l -5.08136,0.124973 -4.95624,0.37184 -4.70907,0.609551 -3.51111,0.648895 -3.22318,0.781297 -2.8844,0.901377 -2.50015,1.007241 -2.07647,1.097222 -1.25934,0.871602 -0.99127,0.90477 -0.7144,0.929906 -0.43119,0.946789 -0.14416,0.955269 0.14416,0.955268 0.43119,0.946793 0.7144,0.9299 0.99127,0.90477 1.25934,0.8716 2.07647,1.09723 2.50015,1.00724 2.8844,0.90137 3.22318,0.7813 3.51111,0.6489 4.70907,0.60955 4.95624,0.37184 5.08136,0.12497 5.08136,-0.12497 4.95623,-0.37184 4.70908,-0.60955 3.51111,-0.6489 3.22318,-0.7813 2.8844,-0.90137 2.50015,-1.00724 2.07647,-1.09723 1.25934,-0.8716 0.99127,-0.90477 0.7144,-0.9299 0.43119,-0.946793 0.12813,-0.636426 v 0"
             clip-path="url(#p8ee4444af0)"
             inkscape:connector-curvature="0" />
        </g>
        <g
           id="line2d_21"
           style="stroke-linecap:butt;stroke-linejoin:round">
          <path
             id="path836"
             style="fill:none;stroke:#6682e9;stroke-width:3;stroke-linecap:round;stroke-linejoin:round"
             d="m 250.51249,98.251519 -0.15317,-0.955269 -0.45815,-0.946789 -0.75905,-0.929906 -1.05322,-0.90477 -1.33805,-0.871602 -1.61099,-0.830698 -2.54753,-1.031286 -2.96691,-0.929245 -3.33949,-0.812549 -3.65941,-0.68304 -3.92163,-0.542758 -5.17622,-0.468357 -5.36161,-0.224432 -5.41497,0.02502 -5.335,0.273854 -5.12365,0.515947 -4.78616,0.745335 -3.50637,0.749273 -3.15943,0.872619 -2.76267,0.982203 -2.32233,1.076299 -1.43047,0.85881 -1.14934,0.894593 -0.85798,0.922435 -0.55904,0.94209 -0.25511,0.953381 0.0511,0.956212 0.3568,0.950555 0.65937,0.936456 0.95608,0.91406 1.2443,0.88353 1.52148,0.84517 2.43614,1.05431 2.8662,0.9562 3.25106,0.843 3.58466,0.71651 3.86173,0.57872 5.12365,0.51595 5.335,0.27385 5.41497,0.025 5.36161,-0.22443 5.17622,-0.46836 4.86339,-0.70075 3.58467,-0.71651 3.25106,-0.843 2.8662,-0.9562 2.43614,-1.05431 1.96764,-1.1358 1.14933,-0.89459 0.85799,-0.92244 0.55903,-0.942086 0.25512,-0.953382 v 0"
             clip-path="url(#p8ee4444af0)"
             inkscape:connector-curvature="0" />
        </g>
        <g
           id="line2d_22"
           style="stroke-linecap:butt;stroke-linejoin:round">
          <path
             id="path839"
             style="fill:none;stroke:#6682e9;stroke-width:3;stroke-linecap:round;stroke-linejoin:round"
             d="m 252.54263,98.251519 -0.16218,-0.955269 -0.48509,-0.946789 -0.8037,-0.929906 -1.11518,-0.90477 -1.41676,-0.871602 -1.70576,-0.830698 -2.69738,-1.031286 -3.14143,-0.929245 -3.53593,-0.812549 -3.87467,-0.68304 -4.15231,-0.542758 -5.48071,-0.468357 -5.677,-0.224432 -5.7335,0.02502 -5.64881,0.273854 -5.42505,0.515947 -5.06769,0.745335 -3.71263,0.749273 -3.34528,0.872619 -2.92518,0.982203 -2.45894,1.076299 -1.51462,0.85881 -1.21694,0.894593 -0.90846,0.922435 -0.59191,0.94209 -0.27012,0.953381 0.0541,0.956212 0.37779,0.950555 0.69815,0.936456 1.01232,0.91406 1.3175,0.88353 1.61098,0.84517 2.57944,1.05431 3.0348,0.9562 3.4423,0.843 3.79553,0.71651 4.08888,0.57872 5.42505,0.51595 5.64881,0.27385 5.7335,0.025 5.677,-0.22443 5.48071,-0.46836 5.14947,-0.70075 3.79553,-0.71651 3.4423,-0.843 3.0348,-0.9562 2.57944,-1.05431 2.08339,-1.1358 1.21694,-0.89459 0.90846,-0.92244 0.59191,-0.942086 0.27012,-0.953382 v 0"
             clip-path="url(#p8ee4444af0)"
             inkscape:connector-curvature="0" />
        </g>
        <g
           id="line2d_23"
           style="stroke-linecap:butt;stroke-linejoin:round">
          <path
             id="path842"
             style="fill:none;stroke:#6682e9;stroke-width:3;stroke-linecap:round;stroke-linejoin:round"
             d="m 254.57278,98.251519 -0.0761,-0.63737 -0.39878,-0.950555 -0.73694,-0.93646 -1.06856,-0.914053 -1.39069,-0.883534 -1.70048,-0.845171 -2.72274,-1.054312 -3.2034,-0.956196 -3.63354,-0.843001 -4.00639,-0.716509 -4.31604,-0.57872 -5.72644,-0.515947 -5.96264,-0.273854 -6.05203,-0.02502 -5.99238,0.224432 -5.7852,0.468357 -5.43555,0.700751 -4.00639,0.716509 -3.63354,0.843001 -3.2034,0.956196 -2.72274,1.054312 -2.19914,1.135801 -1.28454,0.894593 -0.95893,0.922435 -0.6248,0.94209 -0.28513,0.953381 v 0.637685 l 0.15216,0.636426 0.51204,0.946794 0.84835,0.9299 1.17714,0.90477 1.49546,0.8716 1.80053,0.8307 2.84723,1.03129 3.31596,0.92924 3.73237,0.81255 4.08993,0.68304 4.38299,0.54276 5.7852,0.46836 5.99238,0.22443 6.05203,-0.025 5.96264,-0.27385 5.72644,-0.51595 5.34923,-0.74534 3.91888,-0.74927 3.53113,-0.87262 3.08769,-0.9822 2.59555,-1.0763 1.59877,-0.85881 1.28454,-0.89459 0.95893,-0.92244 0.6248,-0.942088 0.28512,-0.953382 v 0"
             clip-path="url(#p8ee4444af0)"
             inkscape:connector-curvature="0" />
        </g>
        <g
           id="line2d_24"
           style="stroke-linecap:butt;stroke-linejoin:round">
          <path
             id="path845"
             style="fill:none;stroke:#4063d8;stroke-width:5;stroke-linecap:round;stroke-linejoin:round"
             d="m 256.60293,98.251519 -0.0801,-0.63737 -0.24004,-0.634854 -0.65769,-0.94209 -1.00939,-0.922435 -1.35216,-0.894593 -1.68291,-0.85881 -2.73215,-1.076299 -3.2502,-0.982203 -3.71698,-0.872619 -4.12515,-0.749273 -4.46825,-0.614111 -5.96003,-0.563026 -6.23895,-0.323007 -6.36427,-0.07503 -6.33286,0.174789 -6.14552,0.420306 -5.80686,0.655474 -4.30519,0.68304 -3.92882,0.812549 -3.49047,0.929245 -2.99709,1.031286 -2.45645,1.117062 -1.46388,0.883534 -1.1248,0.914053 -0.77573,0.93646 -0.41976,0.950555 -0.0801,0.63737 0.0801,0.637369 0.24004,0.634855 0.65768,0.942084 1.0094,0.92244 1.35216,0.89459 1.68291,0.85881 2.73215,1.0763 3.2502,0.9822 3.71698,0.87262 4.12514,0.74927 4.46826,0.61412 5.96002,0.56302 6.23896,0.32301 6.36427,0.075 6.33286,-0.17479 6.14552,-0.4203 5.80686,-0.65548 4.30519,-0.68304 3.92881,-0.81255 3.49048,-0.92924 2.99709,-1.03129 2.45645,-1.11706 1.46388,-0.88353 1.1248,-0.91406 0.77572,-0.936454 0.41977,-0.950555 0.0601,-0.318527 v 0"
             clip-path="url(#p8ee4444af0)"
             inkscape:connector-curvature="0" />
        </g>
        <g
           id="line2d_25"
           style="stroke-linecap:butt;stroke-linejoin:round">
          <path
             id="path848"
             style="fill:none;stroke:#d3d3d3;stroke-width:5;stroke-linecap:round;stroke-linejoin:round"
             d="m 297.20585,98.251519 -0.16024,-1.27474 -0.48009,-1.269708 -0.79805,-1.259667 -1.11285,-1.244654 -1.42327,-1.224728 -1.72806,-1.19997 -2.02604,-1.170476 -2.31602,-1.136362 -3.99745,-1.63081 -4.5936,-1.529525 -5.14897,-1.414662 -5.65865,-1.287244 -6.1181,-1.1484 -6.52324,-0.999361 -6.87049,-0.841454 -7.15674,-0.676077 -7.37948,-0.5047 -7.53672,-0.328842 -7.62705,-0.150065 -7.6497,0.03004 -7.60443,0.209884 -7.49168,0.387863 -7.31243,0.562399 -7.06827,0.731943 -6.76137,0.894991 -6.39446,1.050094 -5.97079,1.195876 -5.49413,1.331044 -4.96869,1.454398 -4.39916,1.564842 -3.79057,1.661397 -2.1721,1.153988 -1.87798,1.185807 -1.57644,1.212948 -1.26869,1.235301 -0.95592,1.252778 -0.63938,1.265312 -0.32033,1.272852 V 98.8892 l 0.32033,1.27285 0.63938,1.26532 0.95592,1.25277 1.26869,1.23531 1.57644,1.21294 1.87798,1.18581 2.1721,1.15399 2.45765,1.11761 4.20038,1.59862 4.7835,1.4927 5.32418,1.37353 5.81759,1.24217 6.25937,1.09979 6.64559,0.94764 6.97281,0.78709 7.23816,0.61955 7.43925,0.4465 7.57431,0.26949 7.64215,0.0901 7.64215,-0.0901 7.57431,-0.26949 7.43925,-0.4465 7.23816,-0.61955 6.97281,-0.78709 6.64559,-0.94764 6.25937,-1.09979 5.81759,-1.24217 5.32418,-1.37353 4.7835,-1.4927 4.20038,-1.59862 3.57996,-1.69034 2.02604,-1.17047 1.72806,-1.19998 1.42327,-1.22472 1.11285,-1.24466 0.79805,-1.25966 0.48009,-1.269715 0.12017,-0.637055 v 0"
             clip-path="url(#p8ee4444af0)"
             inkscape:connector-curvature="0" />
        </g>
        <g
           id="line2d_26"
           style="stroke-linecap:butt;stroke-linejoin:round">
          <path
             id="path851"
             style="fill:none;stroke:#d3d3d3;stroke-width:5;stroke-linecap:round;stroke-linejoin:round"
             d="m 343.89921,98.251519 -0.0631,-1.004353 -0.18927,-1.003362 -0.31524,-1.00138 -0.4409,-0.998411 -1.25692,-1.983975 -1.75275,-1.96033 -2.24164,-1.928947 -2.7217,-1.889953 -3.19101,-1.843498 -3.64774,-1.78977 -4.09005,-1.728978 -4.51624,-1.661361 -4.9246,-1.587189 -5.31353,-1.506752 -5.68147,-1.42037 -6.02701,-1.328381 -6.34876,-1.23115 -6.64544,-1.12906 -10.4668,-1.492539 -10.98219,-1.239662 -11.4001,-0.975781 -11.71682,-0.70324 L 228.03638,66.418621 216,66.276715 l -12.03638,0.141906 -11.92954,0.424456 -11.71682,0.70324 -11.4001,0.975781 -10.98219,1.239662 -10.4668,1.492539 -6.64544,1.12906 -6.34876,1.23115 -6.02701,1.328381 -5.68147,1.42037 -5.31353,1.506752 -4.9246,1.587189 -4.51624,1.661361 -4.09005,1.728978 -3.64774,1.78977 -3.19101,1.843498 -2.7217,1.889953 -2.241644,1.928947 -1.752742,1.96033 -1.256923,1.983975 -0.440902,0.998411 -0.315242,1.00138 -0.189269,1.003362 -0.06311,1.004353 0.06311,1.004352 0.189269,1.003359 0.315242,1.00138 0.440902,0.99841 1.256923,1.98398 1.752742,1.96033 2.241644,1.92895 2.7217,1.88995 3.19101,1.8435 3.64774,1.78977 4.09005,1.72897 4.51624,1.66137 4.9246,1.58719 5.31353,1.50675 5.68147,1.42037 6.02701,1.32838 6.34876,1.23115 6.64544,1.12906 10.4668,1.49254 10.98219,1.23966 11.4001,0.97578 11.71682,0.70324 11.92954,0.42446 12.03638,0.1419 12.03638,-0.1419 11.92954,-0.42446 11.71682,-0.70324 11.4001,-0.97578 10.98219,-1.23966 10.4668,-1.49254 6.64544,-1.12906 6.34876,-1.23115 6.02701,-1.32838 5.68147,-1.42037 5.31353,-1.50675 4.9246,-1.58719 4.51624,-1.66137 4.09005,-1.72897 3.64774,-1.78977 3.19101,-1.8435 2.7217,-1.88995 2.24164,-1.92895 1.75275,-1.96033 1.25692,-1.98398 0.4409,-0.99841 0.31524,-1.00138 0.18927,-1.003359 v 0"
             clip-path="url(#p8ee4444af0)"
             inkscape:connector-curvature="0" />
        </g>
        <g
           id="line2d_27"
           style="stroke-linecap:butt;stroke-linejoin:round">
          <path
             id="path854"
             style="fill:none;stroke:#d3d3d3;stroke-width:5;stroke-linecap:round;stroke-linejoin:round"
             d="M 88.100787,98.251519 V 313.44702 l 0.06311,1.00435 0.189269,1.00336 0.315242,1.00138 0.440902,0.99841 0.566128,0.99446 0.690795,0.98952 0.814781,0.98361 0.937961,0.97672 1.060218,0.96887 1.181426,0.96008 1.301471,0.95032 1.420229,0.93963 1.537586,0.92801 1.653425,0.91549 1.76764,0.90205 1.8801,0.88772 1.9907,0.87252 2.09935,0.85645 2.20593,0.83955 2.31031,0.82182 2.41244,0.80326 2.51216,0.78393 2.60943,0.76381 2.7041,0.74294 2.79611,0.72134 2.88536,0.69903 2.97177,0.67602 3.05524,0.65236 3.1357,0.62804 3.21306,0.60311 3.28725,0.57758 3.35819,0.55148 3.42583,0.52484 3.49008,0.49767 3.55089,0.47003 3.60819,0.44191 3.66194,0.41335 3.71206,0.3844 3.75853,0.35506 3.80128,0.32536 3.84029,0.29536 3.8755,0.26506 3.90689,0.23448 3.93443,0.2037 3.95807,0.1727 3.97783,0.14153 3.99364,0.11023 4.00552,0.0788 4.01345,0.0473 4.01741,0.0158 4.01741,-0.0158 4.01345,-0.0473 4.00552,-0.0788 3.99364,-0.11023 3.97782,-0.14153 3.95808,-0.1727 3.93443,-0.2037 3.90689,-0.23448 3.8755,-0.26506 3.84029,-0.29536 3.80128,-0.32536 3.75853,-0.35506 3.71206,-0.3844 3.66194,-0.41335 3.60819,-0.44191 3.55089,-0.47003 3.49008,-0.49767 3.42583,-0.52484 3.35819,-0.55148 3.28725,-0.57758 3.21306,-0.60311 3.1357,-0.62804 3.05524,-0.65236 2.97177,-0.67602 2.88536,-0.69903 2.79611,-0.72134 2.70411,-0.74294 2.60942,-0.76381 2.51216,-0.78393 2.41244,-0.80326 2.31031,-0.82182 2.20593,-0.83955 2.09935,-0.85645 1.9907,-0.87252 1.8801,-0.88772 1.76764,-0.90205 1.65342,-0.91549 1.53759,-0.92801 1.42023,-0.93963 1.30147,-0.95032 1.18143,-0.96008 1.06021,-0.96887 0.93796,-0.97672 0.81479,-0.98361 0.69079,-0.98952 0.56613,-0.99446 0.4409,-0.99841 0.31524,-1.00138 0.18927,-1.00336 0.0631,-216.199851"
             clip-path="url(#p8ee4444af0)"
             inkscape:connector-curvature="0" />
        </g>
        <g
           id="line2d_28"
           style="stroke-linecap:butt;stroke-linejoin:round">
          <path
             id="path857"
             style="fill:none;stroke:#9558b2;stroke-width:5;stroke-linecap:round;stroke-linejoin:round"
             d="m 312.92653,197.70148 4.43062,-0.11962 6.70474,0.0742 10.56892,0.13248 4.35301,-0.157 3.11301,-0.30349 2.70339,-0.50074 1.72108,-0.52315 1.43493,-0.66095 1.13303,-0.80634 0.82061,-0.95679 0.37077,-0.72276 0.2294,-0.79084 0.0814,-1.31277 -0.22648,-1.46104 -0.52126,-1.603 -0.7978,-1.73617 -1.45338,-2.50255 -1.83688,-2.68723 -2.71491,-3.56072 -4.89574,-5.96293 -5.46561,-6.68803 -2.62867,-3.51919 -1.74333,-2.64218 -1.34112,-2.44848 -0.70336,-1.6907 -0.41988,-1.55418 -0.1199,-1.40971 0.19134,-1.25984 0.30359,-0.75511 0.44502,-0.687 0.58573,-0.61925 1.13819,-0.80385 1.43988,-0.65857 1.72571,-0.52091 1.99075,-0.39329 3.02205,-0.34729 4.26584,-0.19897 5.617,10e-4 15.26902,0.14263 4.148,-0.25572 2.90206,-0.40507 1.88814,-0.4427 1.61425,-0.57459 1.3215,-0.71558 1.01495,-0.8632 0.50194,-0.65959 0.36066,-0.72763 0.21934,-0.7957 0.0665,-1.31993 -0.24085,-1.46796 -0.53489,-1.60956 -0.81042,-1.74226 -1.46831,-2.50973 -1.84918,-2.69315 -2.72605,-3.56609 -4.90262,-5.96625 -5.45654,-6.68365 -2.61634,-3.51326 -1.73021,-2.63586 -1.3255,-2.44096 -0.69031,-1.68441 -0.40593,-1.54746 -0.1053,-1.402686 0.20635,-1.252602 0.3137,-0.750249 0.45511,-0.682148 0.59573,-0.61443 1.15283,-0.796798 1.45389,-0.651821 1.73884,-0.514591 2.00277,-0.387493 3.036,-0.340576 4.27933,-0.192472 5.62658,0.0057 6.8392,0.138971 v 0"
             clip-path="url(#p8ee4444af0)"
             inkscape:connector-curvature="0" />
        </g>
      </g>
    </g>
  </g>
</svg>
