<?xml version="1.0" encoding="utf-8"?>
<svg xmlns="http://www.w3.org/2000/svg" xmlns:xlink="http://www.w3.org/1999/xlink" width="600" height="400" viewBox="0 0 2400 1600">
<defs>
  <clipPath id="clip050">
    <rect x="0" y="0" width="2400" height="1600"/>
  </clipPath>
</defs>
<path clip-path="url(#clip050)" d="M0 1600 L2400 1600 L2400 0 L0 0  Z" fill="#ffffff" fill-rule="evenodd" fill-opacity="1"/>
<defs>
  <clipPath id="clip051">
    <rect x="480" y="0" width="1681" height="1600"/>
  </clipPath>
</defs>
<path clip-path="url(#clip050)" d="M272.297 1423.18 L2352.76 1423.18 L2352.76 47.2441 L272.297 47.2441  Z" fill="#ffffff" fill-rule="evenodd" fill-opacity="1"/>
<defs>
  <clipPath id="clip052">
    <rect x="272" y="47" width="2081" height="1377"/>
  </clipPath>
</defs>
<polyline clip-path="url(#clip052)" style="stroke:#000000; stroke-linecap:round; stroke-linejoin:round; stroke-width:2; stroke-opacity:0.1; fill:none" points="331.177,1423.18 331.177,47.2441 "/>
<polyline clip-path="url(#clip052)" style="stroke:#000000; stroke-linecap:round; stroke-linejoin:round; stroke-width:2; stroke-opacity:0.1; fill:none" points="823.082,1423.18 823.082,47.2441 "/>
<polyline clip-path="url(#clip052)" style="stroke:#000000; stroke-linecap:round; stroke-linejoin:round; stroke-width:2; stroke-opacity:0.1; fill:none" points="1314.99,1423.18 1314.99,47.2441 "/>
<polyline clip-path="url(#clip052)" style="stroke:#000000; stroke-linecap:round; stroke-linejoin:round; stroke-width:2; stroke-opacity:0.1; fill:none" points="1806.89,1423.18 1806.89,47.2441 "/>
<polyline clip-path="url(#clip052)" style="stroke:#000000; stroke-linecap:round; stroke-linejoin:round; stroke-width:2; stroke-opacity:0.1; fill:none" points="2298.79,1423.18 2298.79,47.2441 "/>
<polyline clip-path="url(#clip050)" style="stroke:#000000; stroke-linecap:round; stroke-linejoin:round; stroke-width:4; stroke-opacity:1; fill:none" points="272.297,1423.18 2352.76,1423.18 "/>
<polyline clip-path="url(#clip050)" style="stroke:#000000; stroke-linecap:round; stroke-linejoin:round; stroke-width:4; stroke-opacity:1; fill:none" points="331.177,1423.18 331.177,1404.28 "/>
<polyline clip-path="url(#clip050)" style="stroke:#000000; stroke-linecap:round; stroke-linejoin:round; stroke-width:4; stroke-opacity:1; fill:none" points="823.082,1423.18 823.082,1404.28 "/>
<polyline clip-path="url(#clip050)" style="stroke:#000000; stroke-linecap:round; stroke-linejoin:round; stroke-width:4; stroke-opacity:1; fill:none" points="1314.99,1423.18 1314.99,1404.28 "/>
<polyline clip-path="url(#clip050)" style="stroke:#000000; stroke-linecap:round; stroke-linejoin:round; stroke-width:4; stroke-opacity:1; fill:none" points="1806.89,1423.18 1806.89,1404.28 "/>
<polyline clip-path="url(#clip050)" style="stroke:#000000; stroke-linecap:round; stroke-linejoin:round; stroke-width:4; stroke-opacity:1; fill:none" points="2298.79,1423.18 2298.79,1404.28 "/>
<path clip-path="url(#clip050)" d="M308.562 1454.1 Q304.951 1454.1 303.122 1457.66 Q301.317 1461.2 301.317 1468.33 Q301.317 1475.44 303.122 1479.01 Q304.951 1482.55 308.562 1482.55 Q312.196 1482.55 314.002 1479.01 Q315.83 1475.44 315.83 1468.33 Q315.83 1461.2 314.002 1457.66 Q312.196 1454.1 308.562 1454.1 M308.562 1450.39 Q314.372 1450.39 317.428 1455 Q320.506 1459.58 320.506 1468.33 Q320.506 1477.06 317.428 1481.67 Q314.372 1486.25 308.562 1486.25 Q302.752 1486.25 299.673 1481.67 Q296.617 1477.06 296.617 1468.33 Q296.617 1459.58 299.673 1455 Q302.752 1450.39 308.562 1450.39 Z" fill="#000000" fill-rule="nonzero" fill-opacity="1" /><path clip-path="url(#clip050)" d="M328.724 1479.7 L333.608 1479.7 L333.608 1485.58 L328.724 1485.58 L328.724 1479.7 Z" fill="#000000" fill-rule="nonzero" fill-opacity="1" /><path clip-path="url(#clip050)" d="M353.793 1454.1 Q350.182 1454.1 348.353 1457.66 Q346.548 1461.2 346.548 1468.33 Q346.548 1475.44 348.353 1479.01 Q350.182 1482.55 353.793 1482.55 Q357.427 1482.55 359.233 1479.01 Q361.062 1475.44 361.062 1468.33 Q361.062 1461.2 359.233 1457.66 Q357.427 1454.1 353.793 1454.1 M353.793 1450.39 Q359.603 1450.39 362.659 1455 Q365.737 1459.58 365.737 1468.33 Q365.737 1477.06 362.659 1481.67 Q359.603 1486.25 353.793 1486.25 Q347.983 1486.25 344.904 1481.67 Q341.849 1477.06 341.849 1468.33 Q341.849 1459.58 344.904 1455 Q347.983 1450.39 353.793 1450.39 Z" fill="#000000" fill-rule="nonzero" fill-opacity="1" /><path clip-path="url(#clip050)" d="M800.964 1454.1 Q797.353 1454.1 795.524 1457.66 Q793.718 1461.2 793.718 1468.33 Q793.718 1475.44 795.524 1479.01 Q797.353 1482.55 800.964 1482.55 Q804.598 1482.55 806.403 1479.01 Q808.232 1475.44 808.232 1468.33 Q808.232 1461.2 806.403 1457.66 Q804.598 1454.1 800.964 1454.1 M800.964 1450.39 Q806.774 1450.39 809.829 1455 Q812.908 1459.58 812.908 1468.33 Q812.908 1477.06 809.829 1481.67 Q806.774 1486.25 800.964 1486.25 Q795.154 1486.25 792.075 1481.67 Q789.019 1477.06 789.019 1468.33 Q789.019 1459.58 792.075 1455 Q795.154 1450.39 800.964 1450.39 Z" fill="#000000" fill-rule="nonzero" fill-opacity="1" /><path clip-path="url(#clip050)" d="M821.126 1479.7 L826.01 1479.7 L826.01 1485.58 L821.126 1485.58 L821.126 1479.7 Z" fill="#000000" fill-rule="nonzero" fill-opacity="1" /><path clip-path="url(#clip050)" d="M836.241 1451.02 L854.598 1451.02 L854.598 1454.96 L840.524 1454.96 L840.524 1463.43 Q841.542 1463.08 842.561 1462.92 Q843.579 1462.73 844.598 1462.73 Q850.385 1462.73 853.764 1465.9 Q857.144 1469.08 857.144 1474.49 Q857.144 1480.07 853.672 1483.17 Q850.2 1486.25 843.88 1486.25 Q841.704 1486.25 839.436 1485.88 Q837.19 1485.51 834.783 1484.77 L834.783 1480.07 Q836.866 1481.2 839.088 1481.76 Q841.311 1482.32 843.788 1482.32 Q847.792 1482.32 850.13 1480.21 Q852.468 1478.1 852.468 1474.49 Q852.468 1470.88 850.13 1468.77 Q847.792 1466.67 843.788 1466.67 Q841.913 1466.67 840.038 1467.08 Q838.186 1467.5 836.241 1468.38 L836.241 1451.02 Z" fill="#000000" fill-rule="nonzero" fill-opacity="1" /><path clip-path="url(#clip050)" d="M1282.14 1481.64 L1289.78 1481.64 L1289.78 1455.28 L1281.47 1456.95 L1281.47 1452.69 L1289.73 1451.02 L1294.41 1451.02 L1294.41 1481.64 L1302.05 1481.64 L1302.05 1485.58 L1282.14 1485.58 L1282.14 1481.64 Z" fill="#000000" fill-rule="nonzero" fill-opacity="1" /><path clip-path="url(#clip050)" d="M1311.49 1479.7 L1316.37 1479.7 L1316.37 1485.58 L1311.49 1485.58 L1311.49 1479.7 Z" fill="#000000" fill-rule="nonzero" fill-opacity="1" /><path clip-path="url(#clip050)" d="M1336.56 1454.1 Q1332.95 1454.1 1331.12 1457.66 Q1329.31 1461.2 1329.31 1468.33 Q1329.31 1475.44 1331.12 1479.01 Q1332.95 1482.55 1336.56 1482.55 Q1340.19 1482.55 1342 1479.01 Q1343.83 1475.44 1343.83 1468.33 Q1343.83 1461.2 1342 1457.66 Q1340.19 1454.1 1336.56 1454.1 M1336.56 1450.39 Q1342.37 1450.39 1345.43 1455 Q1348.5 1459.58 1348.5 1468.33 Q1348.5 1477.06 1345.43 1481.67 Q1342.37 1486.25 1336.56 1486.25 Q1330.75 1486.25 1327.67 1481.67 Q1324.62 1477.06 1324.62 1468.33 Q1324.62 1459.58 1327.67 1455 Q1330.75 1450.39 1336.56 1450.39 Z" fill="#000000" fill-rule="nonzero" fill-opacity="1" /><path clip-path="url(#clip050)" d="M1774.54 1481.64 L1782.18 1481.64 L1782.18 1455.28 L1773.87 1456.95 L1773.87 1452.69 L1782.13 1451.02 L1786.81 1451.02 L1786.81 1481.64 L1794.45 1481.64 L1794.45 1485.58 L1774.54 1485.58 L1774.54 1481.64 Z" fill="#000000" fill-rule="nonzero" fill-opacity="1" /><path clip-path="url(#clip050)" d="M1803.89 1479.7 L1808.78 1479.7 L1808.78 1485.58 L1803.89 1485.58 L1803.89 1479.7 Z" fill="#000000" fill-rule="nonzero" fill-opacity="1" /><path clip-path="url(#clip050)" d="M1819.01 1451.02 L1837.36 1451.02 L1837.36 1454.96 L1823.29 1454.96 L1823.29 1463.43 Q1824.31 1463.08 1825.33 1462.92 Q1826.35 1462.73 1827.36 1462.73 Q1833.15 1462.73 1836.53 1465.9 Q1839.91 1469.08 1839.91 1474.49 Q1839.91 1480.07 1836.44 1483.17 Q1832.97 1486.25 1826.65 1486.25 Q1824.47 1486.25 1822.2 1485.88 Q1819.96 1485.51 1817.55 1484.77 L1817.55 1480.07 Q1819.63 1481.2 1821.86 1481.76 Q1824.08 1482.32 1826.55 1482.32 Q1830.56 1482.32 1832.9 1480.21 Q1835.23 1478.1 1835.23 1474.49 Q1835.23 1470.88 1832.9 1468.77 Q1830.56 1466.67 1826.55 1466.67 Q1824.68 1466.67 1822.8 1467.08 Q1820.95 1467.5 1819.01 1468.38 L1819.01 1451.02 Z" fill="#000000" fill-rule="nonzero" fill-opacity="1" /><path clip-path="url(#clip050)" d="M2270.03 1481.64 L2286.35 1481.64 L2286.35 1485.58 L2264.41 1485.58 L2264.41 1481.64 Q2267.07 1478.89 2271.65 1474.26 Q2276.26 1469.61 2277.44 1468.27 Q2279.69 1465.74 2280.56 1464.01 Q2281.47 1462.25 2281.47 1460.56 Q2281.47 1457.8 2279.52 1456.07 Q2277.6 1454.33 2274.5 1454.33 Q2272.3 1454.33 2269.85 1455.09 Q2267.42 1455.86 2264.64 1457.41 L2264.64 1452.69 Q2267.46 1451.55 2269.92 1450.97 Q2272.37 1450.39 2274.41 1450.39 Q2279.78 1450.39 2282.97 1453.08 Q2286.17 1455.77 2286.17 1460.26 Q2286.17 1462.39 2285.36 1464.31 Q2284.57 1466.2 2282.46 1468.8 Q2281.88 1469.47 2278.78 1472.69 Q2275.68 1475.88 2270.03 1481.64 Z" fill="#000000" fill-rule="nonzero" fill-opacity="1" /><path clip-path="url(#clip050)" d="M2296.17 1479.7 L2301.05 1479.7 L2301.05 1485.58 L2296.17 1485.58 L2296.17 1479.7 Z" fill="#000000" fill-rule="nonzero" fill-opacity="1" /><path clip-path="url(#clip050)" d="M2321.24 1454.1 Q2317.62 1454.1 2315.8 1457.66 Q2313.99 1461.2 2313.99 1468.33 Q2313.99 1475.44 2315.8 1479.01 Q2317.62 1482.55 2321.24 1482.55 Q2324.87 1482.55 2326.68 1479.01 Q2328.5 1475.44 2328.5 1468.33 Q2328.5 1461.2 2326.68 1457.66 Q2324.87 1454.1 2321.24 1454.1 M2321.24 1450.39 Q2327.05 1450.39 2330.1 1455 Q2333.18 1459.58 2333.18 1468.33 Q2333.18 1477.06 2330.1 1481.67 Q2327.05 1486.25 2321.24 1486.25 Q2315.43 1486.25 2312.35 1481.67 Q2309.29 1477.06 2309.29 1468.33 Q2309.29 1459.58 2312.35 1455 Q2315.43 1450.39 2321.24 1450.39 Z" fill="#000000" fill-rule="nonzero" fill-opacity="1" /><path clip-path="url(#clip050)" d="M1242.98 1522.27 L1242.98 1532.4 L1255.04 1532.4 L1255.04 1536.95 L1242.98 1536.95 L1242.98 1556.3 Q1242.98 1560.66 1244.16 1561.9 Q1245.37 1563.14 1249.03 1563.14 L1255.04 1563.14 L1255.04 1568.04 L1249.03 1568.04 Q1242.25 1568.04 1239.67 1565.53 Q1237.09 1562.98 1237.09 1556.3 L1237.09 1536.95 L1232.8 1536.95 L1232.8 1532.4 L1237.09 1532.4 L1237.09 1522.27 L1242.98 1522.27 Z" fill="#000000" fill-rule="nonzero" fill-opacity="1" /><path clip-path="url(#clip050)" d="M1293.87 1520.52 L1299.29 1520.52 L1282.73 1574.09 L1277.32 1574.09 L1293.87 1520.52 Z" fill="#000000" fill-rule="nonzero" fill-opacity="1" /><path clip-path="url(#clip050)" d="M1325.54 1581.6 L1325.54 1532.4 L1331.4 1532.4 L1331.4 1554.55 Q1331.4 1559.16 1333.6 1561.52 Q1335.79 1563.87 1340.09 1563.87 Q1344.8 1563.87 1347.16 1561.2 Q1349.54 1558.53 1349.54 1553.18 L1349.54 1532.4 L1355.4 1532.4 L1355.4 1559.83 Q1355.4 1561.74 1355.94 1562.66 Q1356.51 1563.56 1357.69 1563.56 Q1357.98 1563.56 1358.49 1563.4 Q1359 1563.21 1359.89 1562.82 L1359.89 1567.53 Q1358.58 1568.27 1357.4 1568.62 Q1356.26 1568.97 1355.14 1568.97 Q1352.95 1568.97 1351.64 1567.73 Q1350.34 1566.48 1349.86 1563.94 Q1348.27 1566.45 1345.95 1567.73 Q1343.65 1568.97 1340.54 1568.97 Q1337.29 1568.97 1335 1567.73 Q1332.74 1566.48 1331.4 1564 L1331.4 1581.6 L1325.54 1581.6 Z" fill="#000000" fill-rule="nonzero" fill-opacity="1" /><path clip-path="url(#clip050)" d="M1390.35 1533.45 L1390.35 1538.98 Q1387.86 1537.71 1385.19 1537.07 Q1382.52 1536.44 1379.65 1536.44 Q1375.29 1536.44 1373.1 1537.77 Q1370.93 1539.11 1370.93 1541.79 Q1370.93 1543.82 1372.49 1545 Q1374.05 1546.15 1378.76 1547.2 L1380.77 1547.64 Q1387 1548.98 1389.61 1551.43 Q1392.26 1553.85 1392.26 1558.21 Q1392.26 1563.17 1388.31 1566.07 Q1384.4 1568.97 1377.52 1568.97 Q1374.66 1568.97 1371.54 1568.39 Q1368.45 1567.85 1365.01 1566.74 L1365.01 1560.69 Q1368.26 1562.38 1371.41 1563.24 Q1374.56 1564.07 1377.65 1564.07 Q1381.79 1564.07 1384.01 1562.66 Q1386.24 1561.23 1386.24 1558.65 Q1386.24 1556.27 1384.62 1554.99 Q1383.03 1553.72 1377.58 1552.54 L1375.55 1552.07 Q1370.1 1550.92 1367.69 1548.56 Q1365.27 1546.18 1365.27 1542.04 Q1365.27 1537.01 1368.83 1534.27 Q1372.4 1531.54 1378.95 1531.54 Q1382.2 1531.54 1385.06 1532.01 Q1387.93 1532.49 1390.35 1533.45 Z" fill="#000000" fill-rule="nonzero" fill-opacity="1" /><polyline clip-path="url(#clip052)" style="stroke:#000000; stroke-linecap:round; stroke-linejoin:round; stroke-width:2; stroke-opacity:0.1; fill:none" points="272.297,1332.72 2352.76,1332.72 "/>
<polyline clip-path="url(#clip052)" style="stroke:#000000; stroke-linecap:round; stroke-linejoin:round; stroke-width:2; stroke-opacity:0.1; fill:none" points="272.297,1033.97 2352.76,1033.97 "/>
<polyline clip-path="url(#clip052)" style="stroke:#000000; stroke-linecap:round; stroke-linejoin:round; stroke-width:2; stroke-opacity:0.1; fill:none" points="272.297,735.212 2352.76,735.212 "/>
<polyline clip-path="url(#clip052)" style="stroke:#000000; stroke-linecap:round; stroke-linejoin:round; stroke-width:2; stroke-opacity:0.1; fill:none" points="272.297,436.458 2352.76,436.458 "/>
<polyline clip-path="url(#clip052)" style="stroke:#000000; stroke-linecap:round; stroke-linejoin:round; stroke-width:2; stroke-opacity:0.1; fill:none" points="272.297,137.704 2352.76,137.704 "/>
<polyline clip-path="url(#clip050)" style="stroke:#000000; stroke-linecap:round; stroke-linejoin:round; stroke-width:4; stroke-opacity:1; fill:none" points="272.297,1423.18 272.297,47.2441 "/>
<polyline clip-path="url(#clip050)" style="stroke:#000000; stroke-linecap:round; stroke-linejoin:round; stroke-width:4; stroke-opacity:1; fill:none" points="272.297,1332.72 291.194,1332.72 "/>
<polyline clip-path="url(#clip050)" style="stroke:#000000; stroke-linecap:round; stroke-linejoin:round; stroke-width:4; stroke-opacity:1; fill:none" points="272.297,1033.97 291.194,1033.97 "/>
<polyline clip-path="url(#clip050)" style="stroke:#000000; stroke-linecap:round; stroke-linejoin:round; stroke-width:4; stroke-opacity:1; fill:none" points="272.297,735.212 291.194,735.212 "/>
<polyline clip-path="url(#clip050)" style="stroke:#000000; stroke-linecap:round; stroke-linejoin:round; stroke-width:4; stroke-opacity:1; fill:none" points="272.297,436.458 291.194,436.458 "/>
<polyline clip-path="url(#clip050)" style="stroke:#000000; stroke-linecap:round; stroke-linejoin:round; stroke-width:4; stroke-opacity:1; fill:none" points="272.297,137.704 291.194,137.704 "/>
<path clip-path="url(#clip050)" d="M114.26 1333.17 L143.936 1333.17 L143.936 1337.11 L114.26 1337.11 L114.26 1333.17 Z" fill="#000000" fill-rule="nonzero" fill-opacity="1" /><path clip-path="url(#clip050)" d="M154.839 1346.07 L162.477 1346.07 L162.477 1319.7 L154.167 1321.37 L154.167 1317.11 L162.431 1315.44 L167.107 1315.44 L167.107 1346.07 L174.746 1346.07 L174.746 1350 L154.839 1350 L154.839 1346.07 Z" fill="#000000" fill-rule="nonzero" fill-opacity="1" /><path clip-path="url(#clip050)" d="M194.19 1318.52 Q190.579 1318.52 188.75 1322.08 Q186.945 1325.63 186.945 1332.75 Q186.945 1339.86 188.75 1343.43 Q190.579 1346.97 194.19 1346.97 Q197.825 1346.97 199.63 1343.43 Q201.459 1339.86 201.459 1332.75 Q201.459 1325.63 199.63 1322.08 Q197.825 1318.52 194.19 1318.52 M194.19 1314.82 Q200 1314.82 203.056 1319.42 Q206.135 1324.01 206.135 1332.75 Q206.135 1341.48 203.056 1346.09 Q200 1350.67 194.19 1350.67 Q188.38 1350.67 185.301 1346.09 Q182.246 1341.48 182.246 1332.75 Q182.246 1324.01 185.301 1319.42 Q188.38 1314.82 194.19 1314.82 Z" fill="#000000" fill-rule="nonzero" fill-opacity="1" /><path clip-path="url(#clip050)" d="M224.352 1318.52 Q220.741 1318.52 218.912 1322.08 Q217.107 1325.63 217.107 1332.75 Q217.107 1339.86 218.912 1343.43 Q220.741 1346.97 224.352 1346.97 Q227.986 1346.97 229.792 1343.43 Q231.621 1339.86 231.621 1332.75 Q231.621 1325.63 229.792 1322.08 Q227.986 1318.52 224.352 1318.52 M224.352 1314.82 Q230.162 1314.82 233.218 1319.42 Q236.297 1324.01 236.297 1332.75 Q236.297 1341.48 233.218 1346.09 Q230.162 1350.67 224.352 1350.67 Q218.542 1350.67 215.463 1346.09 Q212.408 1341.48 212.408 1332.75 Q212.408 1324.01 215.463 1319.42 Q218.542 1314.82 224.352 1314.82 Z" fill="#000000" fill-rule="nonzero" fill-opacity="1" /><path clip-path="url(#clip050)" d="M144.422 1034.42 L174.098 1034.42 L174.098 1038.35 L144.422 1038.35 L144.422 1034.42 Z" fill="#000000" fill-rule="nonzero" fill-opacity="1" /><path clip-path="url(#clip050)" d="M184.237 1016.69 L202.593 1016.69 L202.593 1020.62 L188.519 1020.62 L188.519 1029.09 Q189.538 1028.75 190.556 1028.58 Q191.575 1028.4 192.593 1028.4 Q198.38 1028.4 201.76 1031.57 Q205.139 1034.74 205.139 1040.16 Q205.139 1045.74 201.667 1048.84 Q198.195 1051.92 191.875 1051.92 Q189.7 1051.92 187.431 1051.55 Q185.186 1051.18 182.778 1050.44 L182.778 1045.74 Q184.862 1046.87 187.084 1047.43 Q189.306 1047.98 191.783 1047.98 Q195.787 1047.98 198.125 1045.88 Q200.463 1043.77 200.463 1040.16 Q200.463 1036.55 198.125 1034.44 Q195.787 1032.33 191.783 1032.33 Q189.908 1032.33 188.033 1032.75 Q186.181 1033.17 184.237 1034.05 L184.237 1016.69 Z" fill="#000000" fill-rule="nonzero" fill-opacity="1" /><path clip-path="url(#clip050)" d="M224.352 1019.76 Q220.741 1019.76 218.912 1023.33 Q217.107 1026.87 217.107 1034 Q217.107 1041.11 218.912 1044.67 Q220.741 1048.21 224.352 1048.21 Q227.986 1048.21 229.792 1044.67 Q231.621 1041.11 231.621 1034 Q231.621 1026.87 229.792 1023.33 Q227.986 1019.76 224.352 1019.76 M224.352 1016.06 Q230.162 1016.06 233.218 1020.67 Q236.297 1025.25 236.297 1034 Q236.297 1042.73 233.218 1047.33 Q230.162 1051.92 224.352 1051.92 Q218.542 1051.92 215.463 1047.33 Q212.408 1042.73 212.408 1034 Q212.408 1025.25 215.463 1020.67 Q218.542 1016.06 224.352 1016.06 Z" fill="#000000" fill-rule="nonzero" fill-opacity="1" /><path clip-path="url(#clip050)" d="M224.352 721.011 Q220.741 721.011 218.912 724.575 Q217.107 728.117 217.107 735.247 Q217.107 742.353 218.912 745.918 Q220.741 749.46 224.352 749.46 Q227.986 749.46 229.792 745.918 Q231.621 742.353 231.621 735.247 Q231.621 728.117 229.792 724.575 Q227.986 721.011 224.352 721.011 M224.352 717.307 Q230.162 717.307 233.218 721.913 Q236.297 726.497 236.297 735.247 Q236.297 743.973 233.218 748.58 Q230.162 753.163 224.352 753.163 Q218.542 753.163 215.463 748.58 Q212.408 743.973 212.408 735.247 Q212.408 726.497 215.463 721.913 Q218.542 717.307 224.352 717.307 Z" fill="#000000" fill-rule="nonzero" fill-opacity="1" /><path clip-path="url(#clip050)" d="M184.237 419.178 L202.593 419.178 L202.593 423.113 L188.519 423.113 L188.519 431.585 Q189.538 431.238 190.556 431.076 Q191.575 430.891 192.593 430.891 Q198.38 430.891 201.76 434.062 Q205.139 437.233 205.139 442.65 Q205.139 448.229 201.667 451.33 Q198.195 454.409 191.875 454.409 Q189.7 454.409 187.431 454.039 Q185.186 453.668 182.778 452.928 L182.778 448.229 Q184.862 449.363 187.084 449.918 Q189.306 450.474 191.783 450.474 Q195.787 450.474 198.125 448.367 Q200.463 446.261 200.463 442.65 Q200.463 439.039 198.125 436.932 Q195.787 434.826 191.783 434.826 Q189.908 434.826 188.033 435.243 Q186.181 435.659 184.237 436.539 L184.237 419.178 Z" fill="#000000" fill-rule="nonzero" fill-opacity="1" /><path clip-path="url(#clip050)" d="M224.352 422.257 Q220.741 422.257 218.912 425.821 Q217.107 429.363 217.107 436.493 Q217.107 443.599 218.912 447.164 Q220.741 450.705 224.352 450.705 Q227.986 450.705 229.792 447.164 Q231.621 443.599 231.621 436.493 Q231.621 429.363 229.792 425.821 Q227.986 422.257 224.352 422.257 M224.352 418.553 Q230.162 418.553 233.218 423.159 Q236.297 427.743 236.297 436.493 Q236.297 445.219 233.218 449.826 Q230.162 454.409 224.352 454.409 Q218.542 454.409 215.463 449.826 Q212.408 445.219 212.408 436.493 Q212.408 427.743 215.463 423.159 Q218.542 418.553 224.352 418.553 Z" fill="#000000" fill-rule="nonzero" fill-opacity="1" /><path clip-path="url(#clip050)" d="M154.839 151.049 L162.477 151.049 L162.477 124.683 L154.167 126.35 L154.167 122.09 L162.431 120.424 L167.107 120.424 L167.107 151.049 L174.746 151.049 L174.746 154.984 L154.839 154.984 L154.839 151.049 Z" fill="#000000" fill-rule="nonzero" fill-opacity="1" /><path clip-path="url(#clip050)" d="M194.19 123.502 Q190.579 123.502 188.75 127.067 Q186.945 130.609 186.945 137.738 Q186.945 144.845 188.75 148.41 Q190.579 151.951 194.19 151.951 Q197.825 151.951 199.63 148.41 Q201.459 144.845 201.459 137.738 Q201.459 130.609 199.63 127.067 Q197.825 123.502 194.19 123.502 M194.19 119.799 Q200 119.799 203.056 124.405 Q206.135 128.988 206.135 137.738 Q206.135 146.465 203.056 151.072 Q200 155.655 194.19 155.655 Q188.38 155.655 185.301 151.072 Q182.246 146.465 182.246 137.738 Q182.246 128.988 185.301 124.405 Q188.38 119.799 194.19 119.799 Z" fill="#000000" fill-rule="nonzero" fill-opacity="1" /><path clip-path="url(#clip050)" d="M224.352 123.502 Q220.741 123.502 218.912 127.067 Q217.107 130.609 217.107 137.738 Q217.107 144.845 218.912 148.41 Q220.741 151.951 224.352 151.951 Q227.986 151.951 229.792 148.41 Q231.621 144.845 231.621 137.738 Q231.621 130.609 229.792 127.067 Q227.986 123.502 224.352 123.502 M224.352 119.799 Q230.162 119.799 233.218 124.405 Q236.297 128.988 236.297 137.738 Q236.297 146.465 233.218 151.072 Q230.162 155.655 224.352 155.655 Q218.542 155.655 215.463 151.072 Q212.408 146.465 212.408 137.738 Q212.408 128.988 215.463 124.405 Q218.542 119.799 224.352 119.799 Z" fill="#000000" fill-rule="nonzero" fill-opacity="1" /><path clip-path="url(#clip050)" d="M29.4065 868.685 L34.9447 868.685 Q33.6716 871.168 33.035 873.841 Q32.3984 876.515 32.3984 879.379 Q32.3984 883.74 33.7352 885.936 Q35.072 888.1 37.7456 888.1 Q39.7826 888.1 40.9603 886.541 Q42.1061 884.981 43.1565 880.271 L43.6021 878.265 Q44.9389 872.027 47.3897 869.417 Q49.8086 866.775 54.1691 866.775 Q59.1344 866.775 62.0308 870.722 Q64.9272 874.637 64.9272 881.512 Q64.9272 884.376 64.3543 887.496 Q63.8132 890.583 62.6992 894.02 L56.6518 894.02 Q58.3387 890.774 59.198 887.623 Q60.0256 884.472 60.0256 881.385 Q60.0256 877.247 58.6251 875.019 Q57.1929 872.791 54.6147 872.791 Q52.2276 872.791 50.9545 874.414 Q49.6813 876.005 48.5037 881.448 L48.0262 883.485 Q46.8804 888.928 44.5251 891.347 Q42.138 893.766 38.0002 893.766 Q32.9713 893.766 30.2341 890.201 Q27.4968 886.636 27.4968 880.08 Q27.4968 876.833 27.9743 873.968 Q28.4517 871.104 29.4065 868.685 Z" fill="#000000" fill-rule="nonzero" fill-opacity="1" /><path clip-path="url(#clip050)" d="M28.3562 857.449 L28.3562 851.593 L64.0042 851.593 L64.0042 857.449 L28.3562 857.449 M14.479 857.449 L14.479 851.593 L21.895 851.593 L21.895 857.449 L14.479 857.449 Z" fill="#000000" fill-rule="nonzero" fill-opacity="1" /><path clip-path="url(#clip050)" d="M45.7664 815.881 Q39.4007 815.881 35.8996 818.523 Q32.3984 821.133 32.3984 825.876 Q32.3984 830.586 35.8996 833.228 Q39.4007 835.838 45.7664 835.838 Q52.1003 835.838 55.6014 833.228 Q59.1026 830.586 59.1026 825.876 Q59.1026 821.133 55.6014 818.523 Q52.1003 815.881 45.7664 815.881 M59.58 810.025 Q68.683 810.025 73.1071 814.067 Q77.5631 818.109 77.5631 826.448 Q77.5631 829.536 77.0857 832.273 Q76.6401 835.01 75.6852 837.588 L69.9879 837.588 Q71.3884 835.01 72.0568 832.496 Q72.7252 829.981 72.7252 827.371 Q72.7252 821.611 69.7015 818.746 Q66.7096 815.881 60.6303 815.881 L57.7339 815.881 Q60.885 817.696 62.4446 820.528 Q64.0042 823.361 64.0042 827.308 Q64.0042 833.865 59.0071 837.875 Q54.01 841.885 45.7664 841.885 Q37.491 841.885 32.4939 837.875 Q27.4968 833.865 27.4968 827.308 Q27.4968 823.361 29.0564 820.528 Q30.616 817.696 33.7671 815.881 L28.3562 815.881 L28.3562 810.025 L59.58 810.025 Z" fill="#000000" fill-rule="nonzero" fill-opacity="1" /><path clip-path="url(#clip050)" d="M42.4881 768.33 L64.0042 768.33 L64.0042 774.186 L42.679 774.186 Q37.6183 774.186 35.1038 776.159 Q32.5894 778.133 32.5894 782.079 Q32.5894 786.822 35.6131 789.559 Q38.6368 792.296 43.8567 792.296 L64.0042 792.296 L64.0042 798.185 L28.3562 798.185 L28.3562 792.296 L33.8944 792.296 Q30.6797 790.196 29.0883 787.363 Q27.4968 784.498 27.4968 780.775 Q27.4968 774.632 31.3163 771.481 Q35.1038 768.33 42.4881 768.33 Z" fill="#000000" fill-rule="nonzero" fill-opacity="1" /><path clip-path="url(#clip050)" d="M46.0847 740.448 Q46.0847 747.546 47.7079 750.283 Q49.3312 753.02 53.2461 753.02 Q56.3653 753.02 58.2114 750.983 Q60.0256 748.914 60.0256 745.381 Q60.0256 740.511 56.5881 737.583 Q53.1188 734.623 47.3897 734.623 L46.0847 734.623 L46.0847 740.448 M43.6657 728.767 L64.0042 728.767 L64.0042 734.623 L58.5933 734.623 Q61.8398 736.628 63.3994 739.62 Q64.9272 742.612 64.9272 746.941 Q64.9272 752.415 61.8716 755.662 Q58.7843 758.876 53.6281 758.876 Q47.6125 758.876 44.5569 754.866 Q41.5014 750.824 41.5014 742.835 L41.5014 734.623 L40.9285 734.623 Q36.8862 734.623 34.6901 737.297 Q32.4621 739.939 32.4621 744.745 Q32.4621 747.8 33.1941 750.697 Q33.9262 753.593 35.3903 756.267 L29.9795 756.267 Q28.7381 753.052 28.1334 750.028 Q27.4968 747.004 27.4968 744.14 Q27.4968 736.406 31.5072 732.586 Q35.5176 728.767 43.6657 728.767 Z" fill="#000000" fill-rule="nonzero" fill-opacity="1" /><path clip-path="url(#clip050)" d="M14.479 716.704 L14.479 710.847 L64.0042 710.847 L64.0042 716.704 L14.479 716.704 Z" fill="#000000" fill-rule="nonzero" fill-opacity="1" /><path clip-path="url(#clip050)" d="M16.4842 667.465 L16.4842 662.054 L70.0516 678.605 L70.0516 684.016 L16.4842 667.465 Z" fill="#000000" fill-rule="nonzero" fill-opacity="1" /><path clip-path="url(#clip050)" d="M14.479 617.144 L19.3487 617.144 L19.3487 622.746 Q19.3487 625.897 20.6219 627.138 Q21.895 628.348 25.2052 628.348 L28.3562 628.348 L28.3562 618.704 L32.9077 618.704 L32.9077 628.348 L64.0042 628.348 L64.0042 634.236 L32.9077 634.236 L32.9077 639.838 L28.3562 639.838 L28.3562 634.236 L25.8736 634.236 Q19.9216 634.236 17.2162 631.467 Q14.479 628.698 14.479 622.682 L14.479 617.144 Z" fill="#000000" fill-rule="nonzero" fill-opacity="1" /><path clip-path="url(#clip050)" d="M20.1444 576.404 L26.9239 576.404 Q23.9002 579.65 22.4043 583.342 Q20.9083 587.002 20.9083 591.14 Q20.9083 599.288 25.9054 603.617 Q30.8707 607.946 40.2919 607.946 Q49.6813 607.946 54.6784 603.617 Q59.6436 599.288 59.6436 591.14 Q59.6436 587.002 58.1477 583.342 Q56.6518 579.65 53.6281 576.404 L60.3439 576.404 Q62.6355 579.777 63.7814 583.565 Q64.9272 587.321 64.9272 591.522 Q64.9272 602.312 58.3387 608.518 Q51.7183 614.725 40.2919 614.725 Q28.8336 614.725 22.2451 608.518 Q15.6248 602.312 15.6248 591.522 Q15.6248 587.257 16.7706 583.501 Q17.8846 579.714 20.1444 576.404 Z" fill="#000000" fill-rule="nonzero" fill-opacity="1" /><polyline clip-path="url(#clip052)" style="stroke:#009af9; stroke-linecap:round; stroke-linejoin:round; stroke-width:16; stroke-opacity:1; fill:none" stroke-dasharray="64, 40" points="331.177,735.212 336.097,735.207 341.016,735.202 345.935,735.197 350.854,735.193 355.773,735.188 360.692,735.182 365.611,735.177 370.53,735.172 375.449,735.167 380.368,735.162 385.287,735.158 390.206,735.154 395.125,735.15 400.044,735.146 404.963,735.142 409.882,735.138 414.801,735.134 419.72,735.13 424.639,735.126 429.558,735.122 434.477,735.119 439.396,735.115 444.315,735.111 449.234,735.108 454.154,735.104 459.073,735.101 463.992,735.097 468.911,735.094 473.83,735.09 478.749,735.087 483.668,735.084 488.587,735.081 493.506,735.074 498.425,735.067 503.344,735.06 508.263,735.053 513.182,735.046 518.101,735.039 523.02,735.032 527.939,735.025 532.858,735.018 537.777,735.012 542.696,735.005 547.615,734.999 552.534,734.992 557.453,734.986 562.372,734.979 567.291,734.973 572.21,734.967 577.13,734.96 582.049,734.954 586.968,734.942 591.887,734.931 596.806,734.92 601.725,734.909 606.644,734.898 611.563,734.888 616.482,734.877 621.401,734.866 626.32,734.855 631.239,734.845 636.158,734.834 641.077,734.824 645.996,734.813 650.915,734.803 655.834,734.792 660.753,734.782 665.672,734.772 670.591,734.761 675.51,734.751 680.429,734.741 685.348,734.73 690.267,734.713 695.187,734.694 700.106,734.675 705.025,734.657 709.944,734.638 714.863,734.619 719.782,734.6 724.701,734.581 729.62,734.563 734.539,734.544 739.458,734.525 744.377,734.507 749.296,734.488 754.215,734.47 759.134,734.451 764.053,734.433 768.972,734.414 773.891,734.396 778.81,734.377 783.729,734.359 788.648,734.34 793.567,734.322 798.486,734.303 803.405,734.285 808.324,734.267 813.244,734.248 818.163,734.222 823.082,734.186 828.001,734.15 832.92,734.114 837.839,734.077 842.758,734.041 847.677,734.005 852.596,733.969 857.515,733.933 862.434,733.897 867.353,733.861 872.272,733.825 877.191,733.789 882.11,733.753 887.029,733.717 891.948,733.681 896.867,733.645 901.786,733.608 906.705,733.572 911.624,733.536 916.543,733.5 921.462,733.464 926.381,733.428 931.301,733.392 936.22,733.356 941.139,733.319 946.058,733.283 950.977,733.221 955.896,733.152 960.815,733.083 965.734,733.014 970.653,732.945 975.572,732.876 980.491,732.806 985.41,732.737 990.329,732.668 995.248,732.599 1000.17,732.53 1005.09,732.46 1010.01,732.391 1014.92,732.322 1019.84,732.252 1024.76,732.183 1029.68,732.113 1034.6,732.043 1039.52,731.974 1044.44,731.904 1049.36,731.834 1054.28,731.763 1059.2,731.693 1064.11,731.623 1069.03,731.541 1073.95,731.416 1078.87,731.291 1083.79,731.166 1088.71,731.041 1093.63,730.915 1098.55,730.79 1103.47,730.663 1108.39,730.537 1113.31,730.41 1118.22,730.284 1123.14,730.156 1128.06,730.029 1132.98,729.901 1137.9,729.773 1142.82,729.644 1147.74,729.515 1152.66,729.386 1157.58,729.256 1162.5,729.126 1167.41,728.995 1172.33,728.803 1177.25,728.592 1182.17,728.379 1187.09,728.166 1192.01,727.952 1196.93,727.737 1201.85,727.521 1206.77,727.305 1211.69,727.088 1216.6,726.869 1221.52,726.65 1226.44,726.43 1231.36,726.209 1236.28,725.986 1241.2,725.764 1246.12,725.54 1251.04,725.315 1255.96,725.09 1260.88,724.864 1265.8,724.637 1270.71,724.391 1275.63,724.102 1280.55,723.812 1285.47,723.522 1290.39,723.22 1295.31,722.909 1300.23,722.597 1305.15,722.282 1310.07,721.954 1314.99,721.62 1319.9,721.283 1324.82,720.944 1329.74,720.592 1334.66,720.232 1339.58,719.871 1344.5,719.507 1349.42,719.135 1354.34,718.751 1359.26,718.364 1364.18,717.974 1369.1,717.58 1374.01,717.171 1378.93,716.754 1383.85,716.333 1388.77,715.908 1393.69,715.477 1398.61,715.03 1403.53,714.573 1408.45,714.111 1413.37,713.642 1418.29,713.167 1423.2,712.684 1428.12,712.179 1433.04,711.665 1437.96,711.144 1442.88,710.612 1447.8,710.071 1452.72,709.52 1457.64,708.944 1462.56,708.353 1467.48,707.751 1472.4,707.137 1477.31,706.509 1482.23,705.866 1487.15,705.201 1492.07,704.506 1496.99,703.794 1501.91,703.063 1506.83,702.314 1511.75,701.548 1516.67,700.763 1521.59,699.94 1526.5,699.079 1531.42,698.192 1536.34,697.28 1541.26,696.34 1546.18,695.374 1551.1,694.384 1556.02,693.346 1560.94,692.265 1565.86,691.146 1570.78,689.988 1575.69,688.776 1580.61,687.508 1585.53,686.197 1590.45,684.844 1595.37,683.433 1600.29,681.951 1605.21,680.417 1610.13,678.832 1615.05,677.175 1619.97,675.431 1624.89,673.625 1629.8,671.757 1634.72,669.793 1639.64,667.732 1644.56,665.599 1649.48,663.348 1654.4,660.993 1659.32,658.55 1664.24,655.948 1669.16,653.233 1674.08,650.403 1678.99,647.365 1683.91,644.209 1688.83,640.845 1693.75,637.28 1698.67,633.533 1703.59,629.51 1708.51,625.189 1713.43,620.568 1718.35,615.588 1723.27,610.205 1728.19,604.308 1733.1,597.849 1738.02,590.728 1742.94,582.848 1747.86,574.037 1752.78,564.164 1757.7,552.961 1762.62,540.243 1767.54,525.661 1772.46,508.832 1777.38,489.293 1782.29,466.467 1787.21,439.644 1792.13,407.95 1797.05,370.544 1801.97,326.25 1806.89,274.112 1811.81,213.849 1816.73,146.592 1821.65,86.1857 1826.57,86.1857 1831.49,86.1857 1836.4,86.1857 1841.32,86.1857 1846.24,86.1857 1851.16,86.1857 1856.08,86.1857 1861,86.1857 1865.92,86.1857 1870.84,86.1857 1875.76,86.1857 1880.68,86.1857 1885.59,86.1857 1890.51,86.1857 1895.43,86.1857 1900.35,86.1857 1905.27,86.1857 1910.19,86.1857 1915.11,86.1857 1920.03,86.1857 1924.95,86.1857 1929.87,86.1857 1934.78,86.1857 1939.7,86.1857 1944.62,86.1857 1949.54,86.1857 1954.46,86.1857 1959.38,86.1857 1964.3,86.1857 1969.22,86.1857 1974.14,86.1857 1979.06,86.1857 1983.98,86.1857 1988.89,86.1857 1993.81,86.1857 1998.73,86.1857 2003.65,86.1857 2008.57,86.1857 2013.49,86.1857 2018.41,86.1857 2023.33,86.1857 2028.25,86.1857 2033.17,86.1857 2038.08,86.1857 2043,86.1857 2047.92,86.1857 2052.84,86.1857 2057.76,86.1857 2062.68,86.1857 2067.6,86.1857 2072.52,86.1857 2077.44,86.1857 2082.36,86.1857 2087.28,86.1857 2092.19,86.1857 2097.11,86.1857 2102.03,86.1857 2106.95,86.1857 2111.87,86.1857 2116.79,86.1857 2121.71,86.1857 2126.63,86.1857 2131.55,86.1857 2136.47,86.1857 2141.38,86.1857 2146.3,86.1857 2151.22,86.1857 2156.14,86.1857 2161.06,86.1857 2165.98,86.1857 2170.9,86.1857 2175.82,86.1857 2180.74,86.1857 2185.66,86.1857 2190.58,86.1857 2195.49,86.1857 2200.41,86.1857 2205.33,86.1857 2210.25,86.1857 2215.17,86.1857 2220.09,86.1857 2225.01,86.1857 2229.93,86.1857 2234.85,86.1857 2239.77,86.1857 2244.68,86.1857 2249.6,86.1857 2254.52,86.1857 2259.44,86.1857 2264.36,86.1857 2269.28,86.1857 2274.2,86.1857 2279.12,86.1857 2284.04,86.1857 2288.96,86.1857 2293.87,86.1857 "/>
<polyline clip-path="url(#clip052)" style="stroke:#e26f46; stroke-linecap:round; stroke-linejoin:round; stroke-width:16; stroke-opacity:1; fill:none" stroke-dasharray="64, 40" points="331.177,735.212 336.097,735.217 341.016,735.222 345.935,735.226 350.854,735.23 355.773,735.234 360.692,735.239 365.611,735.243 370.53,735.248 375.449,735.251 380.368,735.254 385.287,735.256 390.206,735.259 395.125,735.261 400.044,735.264 404.963,735.267 409.882,735.269 414.801,735.272 419.72,735.276 424.639,735.279 429.558,735.282 434.477,735.286 439.396,735.289 444.315,735.293 449.234,735.297 454.154,735.301 459.073,735.306 463.992,735.31 468.911,735.315 473.83,735.32 478.749,735.325 483.668,735.33 488.587,735.335 493.506,735.341 498.425,735.347 503.344,735.353 508.263,735.358 513.182,735.364 518.101,735.37 523.02,735.376 527.939,735.383 532.858,735.389 537.777,735.396 542.696,735.402 547.615,735.408 552.534,735.416 557.453,735.423 562.372,735.431 567.291,735.438 572.21,735.445 577.13,735.453 582.049,735.46 586.968,735.469 591.887,735.478 596.806,735.486 601.725,735.495 606.644,735.504 611.563,735.512 616.482,735.521 621.401,735.531 626.32,735.542 631.239,735.552 636.158,735.562 641.077,735.572 645.996,735.582 650.915,735.592 655.834,735.605 660.753,735.617 665.672,735.629 670.591,735.641 675.51,735.653 680.429,735.665 685.348,735.677 690.267,735.691 695.187,735.706 700.106,735.721 705.025,735.736 709.944,735.75 714.863,735.765 719.782,735.78 724.701,735.794 729.62,735.809 734.539,735.828 739.458,735.846 744.377,735.865 749.296,735.883 754.215,735.901 759.134,735.92 764.053,735.938 768.972,735.957 773.891,735.976 778.81,735.999 783.729,736.022 788.648,736.046 793.567,736.069 798.486,736.092 803.405,736.115 808.324,736.138 813.244,736.161 818.163,736.186 823.082,736.214 828.001,736.243 832.92,736.271 837.839,736.299 842.758,736.327 847.677,736.356 852.596,736.388 857.515,736.421 862.434,736.455 867.353,736.488 872.272,736.522 877.191,736.555 882.11,736.589 887.029,736.628 891.948,736.667 896.867,736.705 901.786,736.744 906.705,736.786 911.624,736.829 916.543,736.872 921.462,736.916 926.381,736.96 931.301,737.009 936.22,737.058 941.139,737.106 946.058,737.155 950.977,737.212 955.896,737.272 960.815,737.331 965.734,737.39 970.653,737.449 975.572,737.509 980.491,737.568 985.41,737.627 990.329,737.686 995.248,737.746 1000.17,737.805 1005.09,737.864 1010.01,737.932 1014.92,738.014 1019.84,738.095 1024.76,738.177 1029.68,738.259 1034.6,738.34 1039.52,738.422 1044.44,738.504 1049.36,738.586 1054.28,738.668 1059.2,738.751 1064.11,738.833 1069.03,738.921 1073.95,739.027 1078.87,739.133 1083.79,739.24 1088.71,739.347 1093.63,739.453 1098.55,739.561 1103.47,739.674 1108.39,739.803 1113.31,739.931 1118.22,740.06 1123.14,740.188 1128.06,740.318 1132.98,740.448 1137.9,740.59 1142.82,740.744 1147.74,740.899 1152.66,741.054 1157.58,741.21 1162.5,741.367 1167.41,741.524 1172.33,741.707 1177.25,741.899 1182.17,742.092 1187.09,742.286 1192.01,742.48 1196.93,742.676 1201.85,742.872 1206.77,743.068 1211.69,743.266 1216.6,743.465 1221.52,743.695 1226.44,743.944 1231.36,744.193 1236.28,744.442 1241.2,744.691 1246.12,744.942 1251.04,745.194 1255.96,745.447 1260.88,745.701 1265.8,745.956 1270.71,746.222 1275.63,746.513 1280.55,746.806 1285.47,747.101 1290.39,747.407 1295.31,747.722 1300.23,748.039 1305.15,748.358 1310.07,748.69 1314.99,749.029 1319.9,749.369 1324.82,749.712 1329.74,750.068 1334.66,750.431 1339.58,750.796 1344.5,751.163 1349.42,751.538 1354.34,751.926 1359.26,752.316 1364.18,752.71 1369.1,753.107 1374.01,753.519 1378.93,753.939 1383.85,754.363 1388.77,754.792 1393.69,755.225 1398.61,755.676 1403.53,756.135 1408.45,756.601 1413.37,757.073 1418.29,757.551 1423.2,758.037 1428.12,758.546 1433.04,759.062 1437.96,759.587 1442.88,760.122 1447.8,760.666 1452.72,761.22 1457.64,761.8 1462.56,762.393 1467.48,762.999 1472.4,763.616 1477.31,764.248 1482.23,764.894 1487.15,765.562 1492.07,766.26 1496.99,766.976 1501.91,767.71 1506.83,768.462 1511.75,769.231 1516.67,770.02 1521.59,770.846 1526.5,771.71 1531.42,772.6 1536.34,773.516 1541.26,774.459 1546.18,775.428 1551.1,776.422 1556.02,777.463 1560.94,778.548 1565.86,779.671 1570.78,780.832 1575.69,782.048 1580.61,783.32 1585.53,784.634 1590.45,785.99 1595.37,787.406 1600.29,788.892 1605.21,790.429 1610.13,792.017 1615.05,793.679 1619.97,795.427 1624.89,797.237 1629.8,799.109 1634.72,801.078 1639.64,803.143 1644.56,805.28 1649.48,807.536 1654.4,809.897 1659.32,812.345 1664.24,814.953 1669.16,817.674 1674.08,820.51 1678.99,823.555 1683.91,826.717 1688.83,830.088 1693.75,833.66 1698.67,837.414 1703.59,841.443 1708.51,845.771 1713.43,850.401 1718.35,855.388 1723.27,860.781 1728.19,866.687 1733.1,873.153 1738.02,880.284 1742.94,888.179 1747.86,897.005 1752.78,906.894 1757.7,918.111 1762.62,930.843 1767.54,945.439 1772.46,962.279 1777.38,981.823 1782.29,1004.65 1787.21,1031.46 1792.13,1063.13 1797.05,1100.49 1801.97,1144.72 1806.89,1196.77 1811.81,1256.9 1816.73,1323.99 1821.65,1384.24 1826.57,1384.24 1831.49,1384.24 1836.4,1384.24 1841.32,1384.24 1846.24,1384.24 1851.16,1384.24 1856.08,1384.24 1861,1384.24 1865.92,1384.24 1870.84,1384.24 1875.76,1384.24 1880.68,1384.24 1885.59,1384.24 1890.51,1384.24 1895.43,1384.24 1900.35,1384.24 1905.27,1384.24 1910.19,1384.24 1915.11,1384.24 1920.03,1384.24 1924.95,1384.24 1929.87,1384.24 1934.78,1384.24 1939.7,1384.24 1944.62,1384.24 1949.54,1384.24 1954.46,1384.24 1959.38,1384.24 1964.3,1384.24 1969.22,1384.24 1974.14,1384.24 1979.06,1384.24 1983.98,1384.24 1988.89,1384.24 1993.81,1384.24 1998.73,1384.24 2003.65,1384.24 2008.57,1384.24 2013.49,1384.24 2018.41,1384.24 2023.33,1384.24 2028.25,1384.24 2033.17,1384.24 2038.08,1384.24 2043,1384.24 2047.92,1384.24 2052.84,1384.24 2057.76,1384.24 2062.68,1384.24 2067.6,1384.24 2072.52,1384.24 2077.44,1384.24 2082.36,1384.24 2087.28,1384.24 2092.19,1384.24 2097.11,1384.24 2102.03,1384.24 2106.95,1384.24 2111.87,1384.24 2116.79,1384.24 2121.71,1384.24 2126.63,1384.24 2131.55,1384.24 2136.47,1384.24 2141.38,1384.24 2146.3,1384.24 2151.22,1384.24 2156.14,1384.24 2161.06,1384.24 2165.98,1384.24 2170.9,1384.24 2175.82,1384.24 2180.74,1384.24 2185.66,1384.24 2190.58,1384.24 2195.49,1384.24 2200.41,1384.24 2205.33,1384.24 2210.25,1384.24 2215.17,1384.24 2220.09,1384.24 2225.01,1384.24 2229.93,1384.24 2234.85,1384.24 2239.77,1384.24 2244.68,1384.24 2249.6,1384.24 2254.52,1384.24 2259.44,1384.24 2264.36,1384.24 2269.28,1384.24 2274.2,1384.24 2279.12,1384.24 2284.04,1384.24 2288.96,1384.24 2293.87,1384.24 "/>
</svg>
