<?xml version="1.0" encoding="utf-8"?>
<svg xmlns="http://www.w3.org/2000/svg" xmlns:xlink="http://www.w3.org/1999/xlink" width="600" height="400" viewBox="0 0 2400 1600">
<defs>
  <clipPath id="clip020">
    <rect x="0" y="0" width="2400" height="1600"/>
  </clipPath>
</defs>
<path clip-path="url(#clip020)" d="M0 1600 L2400 1600 L2400 0 L0 0  Z" fill="#ffffff" fill-rule="evenodd" fill-opacity="1"/>
<defs>
  <clipPath id="clip021">
    <rect x="480" y="0" width="1681" height="1600"/>
  </clipPath>
</defs>
<path clip-path="url(#clip020)" d="M405.58 1423.18 L2352.76 1423.18 L2352.76 47.2441 L405.58 47.2441  Z" fill="#ffffff" fill-rule="evenodd" fill-opacity="1"/>
<defs>
  <clipPath id="clip022">
    <rect x="405" y="47" width="1948" height="1377"/>
  </clipPath>
</defs>
<polyline clip-path="url(#clip022)" style="stroke:#000000; stroke-linecap:round; stroke-linejoin:round; stroke-width:2; stroke-opacity:0.1; fill:none" points="460.689,1423.18 460.689,47.2441 "/>
<polyline clip-path="url(#clip022)" style="stroke:#000000; stroke-linecap:round; stroke-linejoin:round; stroke-width:2; stroke-opacity:0.1; fill:none" points="1066.95,1423.18 1066.95,47.2441 "/>
<polyline clip-path="url(#clip022)" style="stroke:#000000; stroke-linecap:round; stroke-linejoin:round; stroke-width:2; stroke-opacity:0.1; fill:none" points="1673.2,1423.18 1673.2,47.2441 "/>
<polyline clip-path="url(#clip022)" style="stroke:#000000; stroke-linecap:round; stroke-linejoin:round; stroke-width:2; stroke-opacity:0.1; fill:none" points="2279.46,1423.18 2279.46,47.2441 "/>
<polyline clip-path="url(#clip020)" style="stroke:#000000; stroke-linecap:round; stroke-linejoin:round; stroke-width:4; stroke-opacity:1; fill:none" points="405.58,1423.18 2352.76,1423.18 "/>
<polyline clip-path="url(#clip020)" style="stroke:#000000; stroke-linecap:round; stroke-linejoin:round; stroke-width:4; stroke-opacity:1; fill:none" points="460.689,1423.18 460.689,1404.28 "/>
<polyline clip-path="url(#clip020)" style="stroke:#000000; stroke-linecap:round; stroke-linejoin:round; stroke-width:4; stroke-opacity:1; fill:none" points="1066.95,1423.18 1066.95,1404.28 "/>
<polyline clip-path="url(#clip020)" style="stroke:#000000; stroke-linecap:round; stroke-linejoin:round; stroke-width:4; stroke-opacity:1; fill:none" points="1673.2,1423.18 1673.2,1404.28 "/>
<polyline clip-path="url(#clip020)" style="stroke:#000000; stroke-linecap:round; stroke-linejoin:round; stroke-width:4; stroke-opacity:1; fill:none" points="2279.46,1423.18 2279.46,1404.28 "/>
<path clip-path="url(#clip020)" d="M460.689 1454.1 Q457.078 1454.1 455.249 1457.66 Q453.443 1461.2 453.443 1468.33 Q453.443 1475.44 455.249 1479.01 Q457.078 1482.55 460.689 1482.55 Q464.323 1482.55 466.129 1479.01 Q467.957 1475.44 467.957 1468.33 Q467.957 1461.2 466.129 1457.66 Q464.323 1454.1 460.689 1454.1 M460.689 1450.39 Q466.499 1450.39 469.554 1455 Q472.633 1459.58 472.633 1468.33 Q472.633 1477.06 469.554 1481.67 Q466.499 1486.25 460.689 1486.25 Q454.879 1486.25 451.8 1481.67 Q448.744 1477.06 448.744 1468.33 Q448.744 1459.58 451.8 1455 Q454.879 1450.39 460.689 1450.39 Z" fill="#000000" fill-rule="nonzero" fill-opacity="1" /><path clip-path="url(#clip020)" d="M1026.56 1451.02 L1044.92 1451.02 L1044.92 1454.96 L1030.85 1454.96 L1030.85 1463.43 Q1031.86 1463.08 1032.88 1462.92 Q1033.9 1462.73 1034.92 1462.73 Q1040.71 1462.73 1044.09 1465.9 Q1047.47 1469.08 1047.47 1474.49 Q1047.47 1480.07 1043.99 1483.17 Q1040.52 1486.25 1034.2 1486.25 Q1032.03 1486.25 1029.76 1485.88 Q1027.51 1485.51 1025.11 1484.77 L1025.11 1480.07 Q1027.19 1481.2 1029.41 1481.76 Q1031.63 1482.32 1034.11 1482.32 Q1038.11 1482.32 1040.45 1480.21 Q1042.79 1478.1 1042.79 1474.49 Q1042.79 1470.88 1040.45 1468.77 Q1038.11 1466.67 1034.11 1466.67 Q1032.24 1466.67 1030.36 1467.08 Q1028.51 1467.5 1026.56 1468.38 L1026.56 1451.02 Z" fill="#000000" fill-rule="nonzero" fill-opacity="1" /><path clip-path="url(#clip020)" d="M1066.68 1454.1 Q1063.07 1454.1 1061.24 1457.66 Q1059.43 1461.2 1059.43 1468.33 Q1059.43 1475.44 1061.24 1479.01 Q1063.07 1482.55 1066.68 1482.55 Q1070.31 1482.55 1072.12 1479.01 Q1073.95 1475.44 1073.95 1468.33 Q1073.95 1461.2 1072.12 1457.66 Q1070.31 1454.1 1066.68 1454.1 M1066.68 1450.39 Q1072.49 1450.39 1075.55 1455 Q1078.62 1459.58 1078.62 1468.33 Q1078.62 1477.06 1075.55 1481.67 Q1072.49 1486.25 1066.68 1486.25 Q1060.87 1486.25 1057.79 1481.67 Q1054.74 1477.06 1054.74 1468.33 Q1054.74 1459.58 1057.79 1455 Q1060.87 1450.39 1066.68 1450.39 Z" fill="#000000" fill-rule="nonzero" fill-opacity="1" /><path clip-path="url(#clip020)" d="M1096.84 1454.1 Q1093.23 1454.1 1091.4 1457.66 Q1089.6 1461.2 1089.6 1468.33 Q1089.6 1475.44 1091.4 1479.01 Q1093.23 1482.55 1096.84 1482.55 Q1100.48 1482.55 1102.28 1479.01 Q1104.11 1475.44 1104.11 1468.33 Q1104.11 1461.2 1102.28 1457.66 Q1100.48 1454.1 1096.84 1454.1 M1096.84 1450.39 Q1102.65 1450.39 1105.71 1455 Q1108.79 1459.58 1108.79 1468.33 Q1108.79 1477.06 1105.71 1481.67 Q1102.65 1486.25 1096.84 1486.25 Q1091.03 1486.25 1087.95 1481.67 Q1084.9 1477.06 1084.9 1468.33 Q1084.9 1459.58 1087.95 1455 Q1091.03 1450.39 1096.84 1450.39 Z" fill="#000000" fill-rule="nonzero" fill-opacity="1" /><path clip-path="url(#clip020)" d="M1617.73 1481.64 L1625.37 1481.64 L1625.37 1455.28 L1617.06 1456.95 L1617.06 1452.69 L1625.32 1451.02 L1630 1451.02 L1630 1481.64 L1637.64 1481.64 L1637.64 1485.58 L1617.73 1485.58 L1617.73 1481.64 Z" fill="#000000" fill-rule="nonzero" fill-opacity="1" /><path clip-path="url(#clip020)" d="M1657.08 1454.1 Q1653.47 1454.1 1651.64 1457.66 Q1649.83 1461.2 1649.83 1468.33 Q1649.83 1475.44 1651.64 1479.01 Q1653.47 1482.55 1657.08 1482.55 Q1660.71 1482.55 1662.52 1479.01 Q1664.35 1475.44 1664.35 1468.33 Q1664.35 1461.2 1662.52 1457.66 Q1660.71 1454.1 1657.08 1454.1 M1657.08 1450.39 Q1662.89 1450.39 1665.95 1455 Q1669.02 1459.58 1669.02 1468.33 Q1669.02 1477.06 1665.95 1481.67 Q1662.89 1486.25 1657.08 1486.25 Q1651.27 1486.25 1648.19 1481.67 Q1645.14 1477.06 1645.14 1468.33 Q1645.14 1459.58 1648.19 1455 Q1651.27 1450.39 1657.08 1450.39 Z" fill="#000000" fill-rule="nonzero" fill-opacity="1" /><path clip-path="url(#clip020)" d="M1687.24 1454.1 Q1683.63 1454.1 1681.8 1457.66 Q1680 1461.2 1680 1468.33 Q1680 1475.44 1681.8 1479.01 Q1683.63 1482.55 1687.24 1482.55 Q1690.88 1482.55 1692.68 1479.01 Q1694.51 1475.44 1694.51 1468.33 Q1694.51 1461.2 1692.68 1457.66 Q1690.88 1454.1 1687.24 1454.1 M1687.24 1450.39 Q1693.05 1450.39 1696.11 1455 Q1699.19 1459.58 1699.19 1468.33 Q1699.19 1477.06 1696.11 1481.67 Q1693.05 1486.25 1687.24 1486.25 Q1681.43 1486.25 1678.35 1481.67 Q1675.3 1477.06 1675.3 1468.33 Q1675.3 1459.58 1678.35 1455 Q1681.43 1450.39 1687.24 1450.39 Z" fill="#000000" fill-rule="nonzero" fill-opacity="1" /><path clip-path="url(#clip020)" d="M1717.4 1454.1 Q1713.79 1454.1 1711.96 1457.66 Q1710.16 1461.2 1710.16 1468.33 Q1710.16 1475.44 1711.96 1479.01 Q1713.79 1482.55 1717.4 1482.55 Q1721.04 1482.55 1722.84 1479.01 Q1724.67 1475.44 1724.67 1468.33 Q1724.67 1461.2 1722.84 1457.66 Q1721.04 1454.1 1717.4 1454.1 M1717.4 1450.39 Q1723.21 1450.39 1726.27 1455 Q1729.35 1459.58 1729.35 1468.33 Q1729.35 1477.06 1726.27 1481.67 Q1723.21 1486.25 1717.4 1486.25 Q1711.59 1486.25 1708.51 1481.67 Q1705.46 1477.06 1705.46 1468.33 Q1705.46 1459.58 1708.51 1455 Q1711.59 1450.39 1717.4 1450.39 Z" fill="#000000" fill-rule="nonzero" fill-opacity="1" /><path clip-path="url(#clip020)" d="M2223.99 1481.64 L2231.62 1481.64 L2231.62 1455.28 L2223.31 1456.95 L2223.31 1452.69 L2231.58 1451.02 L2236.25 1451.02 L2236.25 1481.64 L2243.89 1481.64 L2243.89 1485.58 L2223.99 1485.58 L2223.99 1481.64 Z" fill="#000000" fill-rule="nonzero" fill-opacity="1" /><path clip-path="url(#clip020)" d="M2253.38 1451.02 L2271.74 1451.02 L2271.74 1454.96 L2257.67 1454.96 L2257.67 1463.43 Q2258.68 1463.08 2259.7 1462.92 Q2260.72 1462.73 2261.74 1462.73 Q2267.53 1462.73 2270.91 1465.9 Q2274.29 1469.08 2274.29 1474.49 Q2274.29 1480.07 2270.81 1483.17 Q2267.34 1486.25 2261.02 1486.25 Q2258.85 1486.25 2256.58 1485.88 Q2254.33 1485.51 2251.92 1484.77 L2251.92 1480.07 Q2254.01 1481.2 2256.23 1481.76 Q2258.45 1482.32 2260.93 1482.32 Q2264.93 1482.32 2267.27 1480.21 Q2269.61 1478.1 2269.61 1474.49 Q2269.61 1470.88 2267.27 1468.77 Q2264.93 1466.67 2260.93 1466.67 Q2259.05 1466.67 2257.18 1467.08 Q2255.33 1467.5 2253.38 1468.38 L2253.38 1451.02 Z" fill="#000000" fill-rule="nonzero" fill-opacity="1" /><path clip-path="url(#clip020)" d="M2293.5 1454.1 Q2289.89 1454.1 2288.06 1457.66 Q2286.25 1461.2 2286.25 1468.33 Q2286.25 1475.44 2288.06 1479.01 Q2289.89 1482.55 2293.5 1482.55 Q2297.13 1482.55 2298.94 1479.01 Q2300.77 1475.44 2300.77 1468.33 Q2300.77 1461.2 2298.94 1457.66 Q2297.13 1454.1 2293.5 1454.1 M2293.5 1450.39 Q2299.31 1450.39 2302.36 1455 Q2305.44 1459.58 2305.44 1468.33 Q2305.44 1477.06 2302.36 1481.67 Q2299.31 1486.25 2293.5 1486.25 Q2287.69 1486.25 2284.61 1481.67 Q2281.55 1477.06 2281.55 1468.33 Q2281.55 1459.58 2284.61 1455 Q2287.69 1450.39 2293.5 1450.39 Z" fill="#000000" fill-rule="nonzero" fill-opacity="1" /><path clip-path="url(#clip020)" d="M2323.66 1454.1 Q2320.05 1454.1 2318.22 1457.66 Q2316.42 1461.2 2316.42 1468.33 Q2316.42 1475.44 2318.22 1479.01 Q2320.05 1482.55 2323.66 1482.55 Q2327.29 1482.55 2329.1 1479.01 Q2330.93 1475.44 2330.93 1468.33 Q2330.93 1461.2 2329.1 1457.66 Q2327.29 1454.1 2323.66 1454.1 M2323.66 1450.39 Q2329.47 1450.39 2332.53 1455 Q2335.6 1459.58 2335.6 1468.33 Q2335.6 1477.06 2332.53 1481.67 Q2329.47 1486.25 2323.66 1486.25 Q2317.85 1486.25 2314.77 1481.67 Q2311.72 1477.06 2311.72 1468.33 Q2311.72 1459.58 2314.77 1455 Q2317.85 1450.39 2323.66 1450.39 Z" fill="#000000" fill-rule="nonzero" fill-opacity="1" /><path clip-path="url(#clip020)" d="M1309.7 1522.27 L1309.7 1532.4 L1321.77 1532.4 L1321.77 1536.95 L1309.7 1536.95 L1309.7 1556.3 Q1309.7 1560.66 1310.88 1561.9 Q1312.09 1563.14 1315.75 1563.14 L1321.77 1563.14 L1321.77 1568.04 L1315.75 1568.04 Q1308.97 1568.04 1306.39 1565.53 Q1303.81 1562.98 1303.81 1556.3 L1303.81 1536.95 L1299.52 1536.95 L1299.52 1532.4 L1303.81 1532.4 L1303.81 1522.27 L1309.7 1522.27 Z" fill="#000000" fill-rule="nonzero" fill-opacity="1" /><path clip-path="url(#clip020)" d="M1360.6 1520.52 L1366.01 1520.52 L1349.46 1574.09 L1344.05 1574.09 L1360.6 1520.52 Z" fill="#000000" fill-rule="nonzero" fill-opacity="1" /><path clip-path="url(#clip020)" d="M1422.5 1546.53 L1422.5 1568.04 L1416.65 1568.04 L1416.65 1546.72 Q1416.65 1541.66 1414.67 1539.14 Q1412.7 1536.63 1408.75 1536.63 Q1404.01 1536.63 1401.27 1539.65 Q1398.54 1542.68 1398.54 1547.9 L1398.54 1568.04 L1392.65 1568.04 L1392.65 1532.4 L1398.54 1532.4 L1398.54 1537.93 Q1400.64 1534.72 1403.47 1533.13 Q1406.33 1531.54 1410.06 1531.54 Q1416.2 1531.54 1419.35 1535.36 Q1422.5 1539.14 1422.5 1546.53 Z" fill="#000000" fill-rule="nonzero" fill-opacity="1" /><path clip-path="url(#clip020)" d="M1456.91 1533.45 L1456.91 1538.98 Q1454.43 1537.71 1451.75 1537.07 Q1449.08 1536.44 1446.21 1536.44 Q1441.85 1536.44 1439.66 1537.77 Q1437.49 1539.11 1437.49 1541.79 Q1437.49 1543.82 1439.05 1545 Q1440.61 1546.15 1445.32 1547.2 L1447.33 1547.64 Q1453.57 1548.98 1456.18 1551.43 Q1458.82 1553.85 1458.82 1558.21 Q1458.82 1563.17 1454.87 1566.07 Q1450.96 1568.97 1444.08 1568.97 Q1441.22 1568.97 1438.1 1568.39 Q1435.01 1567.85 1431.57 1566.74 L1431.57 1560.69 Q1434.82 1562.38 1437.97 1563.24 Q1441.12 1564.07 1444.21 1564.07 Q1448.35 1564.07 1450.58 1562.66 Q1452.8 1561.23 1452.8 1558.65 Q1452.8 1556.27 1451.18 1554.99 Q1449.59 1553.72 1444.15 1552.54 L1442.11 1552.07 Q1436.67 1550.92 1434.25 1548.56 Q1431.83 1546.18 1431.83 1542.04 Q1431.83 1537.01 1435.39 1534.27 Q1438.96 1531.54 1445.51 1531.54 Q1448.76 1531.54 1451.63 1532.01 Q1454.49 1532.49 1456.91 1533.45 Z" fill="#000000" fill-rule="nonzero" fill-opacity="1" /><polyline clip-path="url(#clip022)" style="stroke:#000000; stroke-linecap:round; stroke-linejoin:round; stroke-width:2; stroke-opacity:0.1; fill:none" points="405.58,1213.87 2352.76,1213.87 "/>
<polyline clip-path="url(#clip022)" style="stroke:#000000; stroke-linecap:round; stroke-linejoin:round; stroke-width:2; stroke-opacity:0.1; fill:none" points="405.58,974.54 2352.76,974.54 "/>
<polyline clip-path="url(#clip022)" style="stroke:#000000; stroke-linecap:round; stroke-linejoin:round; stroke-width:2; stroke-opacity:0.1; fill:none" points="405.58,735.212 2352.76,735.212 "/>
<polyline clip-path="url(#clip022)" style="stroke:#000000; stroke-linecap:round; stroke-linejoin:round; stroke-width:2; stroke-opacity:0.1; fill:none" points="405.58,495.884 2352.76,495.884 "/>
<polyline clip-path="url(#clip022)" style="stroke:#000000; stroke-linecap:round; stroke-linejoin:round; stroke-width:2; stroke-opacity:0.1; fill:none" points="405.58,256.555 2352.76,256.555 "/>
<polyline clip-path="url(#clip020)" style="stroke:#000000; stroke-linecap:round; stroke-linejoin:round; stroke-width:4; stroke-opacity:1; fill:none" points="405.58,1423.18 405.58,47.2441 "/>
<polyline clip-path="url(#clip020)" style="stroke:#000000; stroke-linecap:round; stroke-linejoin:round; stroke-width:4; stroke-opacity:1; fill:none" points="405.58,1213.87 424.478,1213.87 "/>
<polyline clip-path="url(#clip020)" style="stroke:#000000; stroke-linecap:round; stroke-linejoin:round; stroke-width:4; stroke-opacity:1; fill:none" points="405.58,974.54 424.478,974.54 "/>
<polyline clip-path="url(#clip020)" style="stroke:#000000; stroke-linecap:round; stroke-linejoin:round; stroke-width:4; stroke-opacity:1; fill:none" points="405.58,735.212 424.478,735.212 "/>
<polyline clip-path="url(#clip020)" style="stroke:#000000; stroke-linecap:round; stroke-linejoin:round; stroke-width:4; stroke-opacity:1; fill:none" points="405.58,495.884 424.478,495.884 "/>
<polyline clip-path="url(#clip020)" style="stroke:#000000; stroke-linecap:round; stroke-linejoin:round; stroke-width:4; stroke-opacity:1; fill:none" points="405.58,256.555 424.478,256.555 "/>
<path clip-path="url(#clip020)" d="M114.26 1220.77 L143.936 1220.77 L143.936 1224.7 L114.26 1224.7 L114.26 1220.77 Z" fill="#000000" fill-rule="nonzero" fill-opacity="1" /><path clip-path="url(#clip020)" d="M154.075 1203.04 L172.431 1203.04 L172.431 1206.97 L158.357 1206.97 L158.357 1215.44 Q159.376 1215.1 160.394 1214.93 Q161.413 1214.75 162.431 1214.75 Q168.218 1214.75 171.598 1217.92 Q174.977 1221.09 174.977 1226.51 Q174.977 1232.09 171.505 1235.19 Q168.033 1238.27 161.714 1238.27 Q159.538 1238.27 157.269 1237.9 Q155.024 1237.53 152.616 1236.79 L152.616 1232.09 Q154.7 1233.22 156.922 1233.78 Q159.144 1234.33 161.621 1234.33 Q165.626 1234.33 167.964 1232.23 Q170.302 1230.12 170.302 1226.51 Q170.302 1222.9 167.964 1220.79 Q165.626 1218.68 161.621 1218.68 Q159.746 1218.68 157.871 1219.1 Q156.019 1219.52 154.075 1220.4 L154.075 1203.04 Z" fill="#000000" fill-rule="nonzero" fill-opacity="1" /><path clip-path="url(#clip020)" d="M184.19 1231.72 L189.075 1231.72 L189.075 1237.6 L184.19 1237.6 L184.19 1231.72 Z" fill="#000000" fill-rule="nonzero" fill-opacity="1" /><path clip-path="url(#clip020)" d="M209.26 1206.12 Q205.649 1206.12 203.82 1209.68 Q202.014 1213.22 202.014 1220.35 Q202.014 1227.46 203.82 1231.02 Q205.649 1234.56 209.26 1234.56 Q212.894 1234.56 214.699 1231.02 Q216.528 1227.46 216.528 1220.35 Q216.528 1213.22 214.699 1209.68 Q212.894 1206.12 209.26 1206.12 M209.26 1202.41 Q215.07 1202.41 218.125 1207.02 Q221.204 1211.6 221.204 1220.35 Q221.204 1229.08 218.125 1233.68 Q215.07 1238.27 209.26 1238.27 Q203.449 1238.27 200.371 1233.68 Q197.315 1229.08 197.315 1220.35 Q197.315 1211.6 200.371 1207.02 Q203.449 1202.41 209.26 1202.41 Z" fill="#000000" fill-rule="nonzero" fill-opacity="1" /><path clip-path="url(#clip020)" d="M239.422 1206.12 Q235.81 1206.12 233.982 1209.68 Q232.176 1213.22 232.176 1220.35 Q232.176 1227.46 233.982 1231.02 Q235.81 1234.56 239.422 1234.56 Q243.056 1234.56 244.861 1231.02 Q246.69 1227.46 246.69 1220.35 Q246.69 1213.22 244.861 1209.68 Q243.056 1206.12 239.422 1206.12 M239.422 1202.41 Q245.232 1202.41 248.287 1207.02 Q251.366 1211.6 251.366 1220.35 Q251.366 1229.08 248.287 1233.68 Q245.232 1238.27 239.422 1238.27 Q233.611 1238.27 230.533 1233.68 Q227.477 1229.08 227.477 1220.35 Q227.477 1211.6 230.533 1207.02 Q233.611 1202.41 239.422 1202.41 Z" fill="#000000" fill-rule="nonzero" fill-opacity="1" /><path clip-path="url(#clip020)" d="M287.755 1212.13 L277.176 1222.76 L287.755 1233.34 L285 1236.14 L274.375 1225.51 L263.75 1236.14 L261.019 1233.34 L271.574 1222.76 L261.019 1212.13 L263.75 1209.33 L274.375 1219.96 L285 1209.33 L287.755 1212.13 Z" fill="#000000" fill-rule="nonzero" fill-opacity="1" /><path clip-path="url(#clip020)" d="M300.116 1233.66 L307.754 1233.66 L307.754 1207.3 L299.444 1208.96 L299.444 1204.7 L307.708 1203.04 L312.384 1203.04 L312.384 1233.66 L320.023 1233.66 L320.023 1237.6 L300.116 1237.6 L300.116 1233.66 Z" fill="#000000" fill-rule="nonzero" fill-opacity="1" /><path clip-path="url(#clip020)" d="M339.467 1206.12 Q335.856 1206.12 334.027 1209.68 Q332.222 1213.22 332.222 1220.35 Q332.222 1227.46 334.027 1231.02 Q335.856 1234.56 339.467 1234.56 Q343.102 1234.56 344.907 1231.02 Q346.736 1227.46 346.736 1220.35 Q346.736 1213.22 344.907 1209.68 Q343.102 1206.12 339.467 1206.12 M339.467 1202.41 Q345.277 1202.41 348.333 1207.02 Q351.412 1211.6 351.412 1220.35 Q351.412 1229.08 348.333 1233.68 Q345.277 1238.27 339.467 1238.27 Q333.657 1238.27 330.578 1233.68 Q327.523 1229.08 327.523 1220.35 Q327.523 1211.6 330.578 1207.02 Q333.657 1202.41 339.467 1202.41 Z" fill="#000000" fill-rule="nonzero" fill-opacity="1" /><path clip-path="url(#clip020)" d="M352.597 1182.11 L367.511 1182.11 L367.511 1185.3 L356.076 1185.3 L356.076 1192.19 Q356.904 1191.9 357.731 1191.77 Q358.559 1191.62 359.386 1191.62 Q364.088 1191.62 366.834 1194.2 Q369.58 1196.78 369.58 1201.18 Q369.58 1205.71 366.759 1208.23 Q363.938 1210.73 358.803 1210.73 Q357.035 1210.73 355.192 1210.43 Q353.368 1210.13 351.412 1209.53 L351.412 1205.71 Q353.104 1206.63 354.91 1207.08 Q356.715 1207.53 358.728 1207.53 Q361.982 1207.53 363.881 1205.82 Q365.781 1204.11 365.781 1201.18 Q365.781 1198.24 363.881 1196.53 Q361.982 1194.82 358.728 1194.82 Q357.204 1194.82 355.681 1195.16 Q354.176 1195.5 352.597 1196.21 L352.597 1182.11 Z" fill="#000000" fill-rule="nonzero" fill-opacity="1" /><path clip-path="url(#clip020)" d="M114.26 981.439 L143.936 981.439 L143.936 985.375 L114.26 985.375 L114.26 981.439 Z" fill="#000000" fill-rule="nonzero" fill-opacity="1" /><path clip-path="url(#clip020)" d="M158.056 994.333 L174.376 994.333 L174.376 998.268 L152.431 998.268 L152.431 994.333 Q155.093 991.578 159.677 986.949 Q164.283 982.296 165.464 980.953 Q167.709 978.43 168.589 976.694 Q169.491 974.935 169.491 973.245 Q169.491 970.49 167.547 968.754 Q165.626 967.018 162.524 967.018 Q160.325 967.018 157.871 967.782 Q155.44 968.546 152.663 970.097 L152.663 965.375 Q155.487 964.24 157.94 963.662 Q160.394 963.083 162.431 963.083 Q167.802 963.083 170.996 965.768 Q174.19 968.453 174.19 972.944 Q174.19 975.074 173.38 976.995 Q172.593 978.893 170.487 981.486 Q169.908 982.157 166.806 985.375 Q163.704 988.569 158.056 994.333 Z" fill="#000000" fill-rule="nonzero" fill-opacity="1" /><path clip-path="url(#clip020)" d="M184.19 992.388 L189.075 992.388 L189.075 998.268 L184.19 998.268 L184.19 992.388 Z" fill="#000000" fill-rule="nonzero" fill-opacity="1" /><path clip-path="url(#clip020)" d="M199.306 963.708 L217.662 963.708 L217.662 967.643 L203.588 967.643 L203.588 976.115 Q204.607 975.768 205.625 975.606 Q206.644 975.421 207.662 975.421 Q213.449 975.421 216.829 978.592 Q220.209 981.763 220.209 987.18 Q220.209 992.759 216.736 995.861 Q213.264 998.939 206.945 998.939 Q204.769 998.939 202.5 998.569 Q200.255 998.199 197.848 997.458 L197.848 992.759 Q199.931 993.893 202.153 994.449 Q204.375 995.004 206.852 995.004 Q210.857 995.004 213.195 992.898 Q215.533 990.791 215.533 987.18 Q215.533 983.569 213.195 981.463 Q210.857 979.356 206.852 979.356 Q204.977 979.356 203.102 979.773 Q201.25 980.189 199.306 981.069 L199.306 963.708 Z" fill="#000000" fill-rule="nonzero" fill-opacity="1" /><path clip-path="url(#clip020)" d="M239.422 966.787 Q235.81 966.787 233.982 970.351 Q232.176 973.893 232.176 981.023 Q232.176 988.129 233.982 991.694 Q235.81 995.236 239.422 995.236 Q243.056 995.236 244.861 991.694 Q246.69 988.129 246.69 981.023 Q246.69 973.893 244.861 970.351 Q243.056 966.787 239.422 966.787 M239.422 963.083 Q245.232 963.083 248.287 967.689 Q251.366 972.273 251.366 981.023 Q251.366 989.75 248.287 994.356 Q245.232 998.939 239.422 998.939 Q233.611 998.939 230.533 994.356 Q227.477 989.75 227.477 981.023 Q227.477 972.273 230.533 967.689 Q233.611 963.083 239.422 963.083 Z" fill="#000000" fill-rule="nonzero" fill-opacity="1" /><path clip-path="url(#clip020)" d="M287.755 972.805 L277.176 983.43 L287.755 994.009 L285 996.81 L274.375 986.185 L263.75 996.81 L261.019 994.009 L271.574 983.43 L261.019 972.805 L263.75 970.004 L274.375 980.629 L285 970.004 L287.755 972.805 Z" fill="#000000" fill-rule="nonzero" fill-opacity="1" /><path clip-path="url(#clip020)" d="M300.116 994.333 L307.754 994.333 L307.754 967.967 L299.444 969.634 L299.444 965.375 L307.708 963.708 L312.384 963.708 L312.384 994.333 L320.023 994.333 L320.023 998.268 L300.116 998.268 L300.116 994.333 Z" fill="#000000" fill-rule="nonzero" fill-opacity="1" /><path clip-path="url(#clip020)" d="M339.467 966.787 Q335.856 966.787 334.027 970.351 Q332.222 973.893 332.222 981.023 Q332.222 988.129 334.027 991.694 Q335.856 995.236 339.467 995.236 Q343.102 995.236 344.907 991.694 Q346.736 988.129 346.736 981.023 Q346.736 973.893 344.907 970.351 Q343.102 966.787 339.467 966.787 M339.467 963.083 Q345.277 963.083 348.333 967.689 Q351.412 972.273 351.412 981.023 Q351.412 989.75 348.333 994.356 Q345.277 998.939 339.467 998.939 Q333.657 998.939 330.578 994.356 Q327.523 989.75 327.523 981.023 Q327.523 972.273 330.578 967.689 Q333.657 963.083 339.467 963.083 Z" fill="#000000" fill-rule="nonzero" fill-opacity="1" /><path clip-path="url(#clip020)" d="M352.597 942.778 L367.511 942.778 L367.511 945.975 L356.076 945.975 L356.076 952.859 Q356.904 952.576 357.731 952.445 Q358.559 952.294 359.386 952.294 Q364.088 952.294 366.834 954.871 Q369.58 957.448 369.58 961.849 Q369.58 966.381 366.759 968.902 Q363.938 971.403 358.803 971.403 Q357.035 971.403 355.192 971.102 Q353.368 970.801 351.412 970.199 L351.412 966.381 Q353.104 967.303 354.91 967.754 Q356.715 968.206 358.728 968.206 Q361.982 968.206 363.881 966.494 Q365.781 964.783 365.781 961.849 Q365.781 958.915 363.881 957.203 Q361.982 955.492 358.728 955.492 Q357.204 955.492 355.681 955.83 Q354.176 956.169 352.597 956.883 L352.597 942.778 Z" fill="#000000" fill-rule="nonzero" fill-opacity="1" /><path clip-path="url(#clip020)" d="M357.636 721.011 Q354.024 721.011 352.196 724.575 Q350.39 728.117 350.39 735.247 Q350.39 742.353 352.196 745.918 Q354.024 749.46 357.636 749.46 Q361.27 749.46 363.075 745.918 Q364.904 742.353 364.904 735.247 Q364.904 728.117 363.075 724.575 Q361.27 721.011 357.636 721.011 M357.636 717.307 Q363.446 717.307 366.501 721.913 Q369.58 726.497 369.58 735.247 Q369.58 743.973 366.501 748.58 Q363.446 753.163 357.636 753.163 Q351.825 753.163 348.747 748.58 Q345.691 743.973 345.691 735.247 Q345.691 726.497 348.747 721.913 Q351.825 717.307 357.636 717.307 Z" fill="#000000" fill-rule="nonzero" fill-opacity="1" /><path clip-path="url(#clip020)" d="M158.056 515.676 L174.376 515.676 L174.376 519.611 L152.431 519.611 L152.431 515.676 Q155.093 512.921 159.677 508.292 Q164.283 503.639 165.464 502.296 Q167.709 499.773 168.589 498.037 Q169.491 496.278 169.491 494.588 Q169.491 491.833 167.547 490.097 Q165.626 488.361 162.524 488.361 Q160.325 488.361 157.871 489.125 Q155.44 489.889 152.663 491.44 L152.663 486.718 Q155.487 485.584 157.94 485.005 Q160.394 484.426 162.431 484.426 Q167.802 484.426 170.996 487.111 Q174.19 489.796 174.19 494.287 Q174.19 496.417 173.38 498.338 Q172.593 500.236 170.487 502.829 Q169.908 503.5 166.806 506.718 Q163.704 509.912 158.056 515.676 Z" fill="#000000" fill-rule="nonzero" fill-opacity="1" /><path clip-path="url(#clip020)" d="M184.19 513.732 L189.075 513.732 L189.075 519.611 L184.19 519.611 L184.19 513.732 Z" fill="#000000" fill-rule="nonzero" fill-opacity="1" /><path clip-path="url(#clip020)" d="M199.306 485.051 L217.662 485.051 L217.662 488.986 L203.588 488.986 L203.588 497.458 Q204.607 497.111 205.625 496.949 Q206.644 496.764 207.662 496.764 Q213.449 496.764 216.829 499.935 Q220.209 503.107 220.209 508.523 Q220.209 514.102 216.736 517.204 Q213.264 520.282 206.945 520.282 Q204.769 520.282 202.5 519.912 Q200.255 519.542 197.848 518.801 L197.848 514.102 Q199.931 515.236 202.153 515.792 Q204.375 516.347 206.852 516.347 Q210.857 516.347 213.195 514.241 Q215.533 512.134 215.533 508.523 Q215.533 504.912 213.195 502.806 Q210.857 500.699 206.852 500.699 Q204.977 500.699 203.102 501.116 Q201.25 501.533 199.306 502.412 L199.306 485.051 Z" fill="#000000" fill-rule="nonzero" fill-opacity="1" /><path clip-path="url(#clip020)" d="M239.422 488.13 Q235.81 488.13 233.982 491.695 Q232.176 495.236 232.176 502.366 Q232.176 509.472 233.982 513.037 Q235.81 516.579 239.422 516.579 Q243.056 516.579 244.861 513.037 Q246.69 509.472 246.69 502.366 Q246.69 495.236 244.861 491.695 Q243.056 488.13 239.422 488.13 M239.422 484.426 Q245.232 484.426 248.287 489.033 Q251.366 493.616 251.366 502.366 Q251.366 511.093 248.287 515.699 Q245.232 520.282 239.422 520.282 Q233.611 520.282 230.533 515.699 Q227.477 511.093 227.477 502.366 Q227.477 493.616 230.533 489.033 Q233.611 484.426 239.422 484.426 Z" fill="#000000" fill-rule="nonzero" fill-opacity="1" /><path clip-path="url(#clip020)" d="M287.755 494.148 L277.176 504.773 L287.755 515.352 L285 518.153 L274.375 507.528 L263.75 518.153 L261.019 515.352 L271.574 504.773 L261.019 494.148 L263.75 491.347 L274.375 501.972 L285 491.347 L287.755 494.148 Z" fill="#000000" fill-rule="nonzero" fill-opacity="1" /><path clip-path="url(#clip020)" d="M300.116 515.676 L307.754 515.676 L307.754 489.31 L299.444 490.977 L299.444 486.718 L307.708 485.051 L312.384 485.051 L312.384 515.676 L320.023 515.676 L320.023 519.611 L300.116 519.611 L300.116 515.676 Z" fill="#000000" fill-rule="nonzero" fill-opacity="1" /><path clip-path="url(#clip020)" d="M339.467 488.13 Q335.856 488.13 334.027 491.695 Q332.222 495.236 332.222 502.366 Q332.222 509.472 334.027 513.037 Q335.856 516.579 339.467 516.579 Q343.102 516.579 344.907 513.037 Q346.736 509.472 346.736 502.366 Q346.736 495.236 344.907 491.695 Q343.102 488.13 339.467 488.13 M339.467 484.426 Q345.277 484.426 348.333 489.033 Q351.412 493.616 351.412 502.366 Q351.412 511.093 348.333 515.699 Q345.277 520.282 339.467 520.282 Q333.657 520.282 330.578 515.699 Q327.523 511.093 327.523 502.366 Q327.523 493.616 330.578 489.033 Q333.657 484.426 339.467 484.426 Z" fill="#000000" fill-rule="nonzero" fill-opacity="1" /><path clip-path="url(#clip020)" d="M352.597 464.121 L367.511 464.121 L367.511 467.318 L356.076 467.318 L356.076 474.202 Q356.904 473.92 357.731 473.788 Q358.559 473.637 359.386 473.637 Q364.088 473.637 366.834 476.214 Q369.58 478.791 369.58 483.192 Q369.58 487.724 366.759 490.245 Q363.938 492.746 358.803 492.746 Q357.035 492.746 355.192 492.445 Q353.368 492.144 351.412 491.542 L351.412 487.724 Q353.104 488.646 354.91 489.097 Q356.715 489.549 358.728 489.549 Q361.982 489.549 363.881 487.837 Q365.781 486.126 365.781 483.192 Q365.781 480.258 363.881 478.546 Q361.982 476.835 358.728 476.835 Q357.204 476.835 355.681 477.173 Q354.176 477.512 352.597 478.227 L352.597 464.121 Z" fill="#000000" fill-rule="nonzero" fill-opacity="1" /><path clip-path="url(#clip020)" d="M154.075 245.723 L172.431 245.723 L172.431 249.658 L158.357 249.658 L158.357 258.13 Q159.376 257.783 160.394 257.621 Q161.413 257.436 162.431 257.436 Q168.218 257.436 171.598 260.607 Q174.977 263.778 174.977 269.195 Q174.977 274.773 171.505 277.875 Q168.033 280.954 161.714 280.954 Q159.538 280.954 157.269 280.584 Q155.024 280.213 152.616 279.472 L152.616 274.773 Q154.7 275.908 156.922 276.463 Q159.144 277.019 161.621 277.019 Q165.626 277.019 167.964 274.912 Q170.302 272.806 170.302 269.195 Q170.302 265.584 167.964 263.477 Q165.626 261.371 161.621 261.371 Q159.746 261.371 157.871 261.787 Q156.019 262.204 154.075 263.084 L154.075 245.723 Z" fill="#000000" fill-rule="nonzero" fill-opacity="1" /><path clip-path="url(#clip020)" d="M184.19 274.403 L189.075 274.403 L189.075 280.283 L184.19 280.283 L184.19 274.403 Z" fill="#000000" fill-rule="nonzero" fill-opacity="1" /><path clip-path="url(#clip020)" d="M209.26 248.801 Q205.649 248.801 203.82 252.366 Q202.014 255.908 202.014 263.037 Q202.014 270.144 203.82 273.709 Q205.649 277.25 209.26 277.25 Q212.894 277.25 214.699 273.709 Q216.528 270.144 216.528 263.037 Q216.528 255.908 214.699 252.366 Q212.894 248.801 209.26 248.801 M209.26 245.098 Q215.07 245.098 218.125 249.704 Q221.204 254.287 221.204 263.037 Q221.204 271.764 218.125 276.371 Q215.07 280.954 209.26 280.954 Q203.449 280.954 200.371 276.371 Q197.315 271.764 197.315 263.037 Q197.315 254.287 200.371 249.704 Q203.449 245.098 209.26 245.098 Z" fill="#000000" fill-rule="nonzero" fill-opacity="1" /><path clip-path="url(#clip020)" d="M239.422 248.801 Q235.81 248.801 233.982 252.366 Q232.176 255.908 232.176 263.037 Q232.176 270.144 233.982 273.709 Q235.81 277.25 239.422 277.25 Q243.056 277.25 244.861 273.709 Q246.69 270.144 246.69 263.037 Q246.69 255.908 244.861 252.366 Q243.056 248.801 239.422 248.801 M239.422 245.098 Q245.232 245.098 248.287 249.704 Q251.366 254.287 251.366 263.037 Q251.366 271.764 248.287 276.371 Q245.232 280.954 239.422 280.954 Q233.611 280.954 230.533 276.371 Q227.477 271.764 227.477 263.037 Q227.477 254.287 230.533 249.704 Q233.611 245.098 239.422 245.098 Z" fill="#000000" fill-rule="nonzero" fill-opacity="1" /><path clip-path="url(#clip020)" d="M287.755 254.82 L277.176 265.445 L287.755 276.023 L285 278.824 L274.375 268.199 L263.75 278.824 L261.019 276.023 L271.574 265.445 L261.019 254.82 L263.75 252.019 L274.375 262.644 L285 252.019 L287.755 254.82 Z" fill="#000000" fill-rule="nonzero" fill-opacity="1" /><path clip-path="url(#clip020)" d="M300.116 276.348 L307.754 276.348 L307.754 249.982 L299.444 251.649 L299.444 247.389 L307.708 245.723 L312.384 245.723 L312.384 276.348 L320.023 276.348 L320.023 280.283 L300.116 280.283 L300.116 276.348 Z" fill="#000000" fill-rule="nonzero" fill-opacity="1" /><path clip-path="url(#clip020)" d="M339.467 248.801 Q335.856 248.801 334.027 252.366 Q332.222 255.908 332.222 263.037 Q332.222 270.144 334.027 273.709 Q335.856 277.25 339.467 277.25 Q343.102 277.25 344.907 273.709 Q346.736 270.144 346.736 263.037 Q346.736 255.908 344.907 252.366 Q343.102 248.801 339.467 248.801 M339.467 245.098 Q345.277 245.098 348.333 249.704 Q351.412 254.287 351.412 263.037 Q351.412 271.764 348.333 276.371 Q345.277 280.954 339.467 280.954 Q333.657 280.954 330.578 276.371 Q327.523 271.764 327.523 263.037 Q327.523 254.287 330.578 249.704 Q333.657 245.098 339.467 245.098 Z" fill="#000000" fill-rule="nonzero" fill-opacity="1" /><path clip-path="url(#clip020)" d="M352.597 224.792 L367.511 224.792 L367.511 227.99 L356.076 227.99 L356.076 234.873 Q356.904 234.591 357.731 234.459 Q358.559 234.309 359.386 234.309 Q364.088 234.309 366.834 236.886 Q369.58 239.462 369.58 243.863 Q369.58 248.396 366.759 250.916 Q363.938 253.418 358.803 253.418 Q357.035 253.418 355.192 253.117 Q353.368 252.816 351.412 252.214 L351.412 248.396 Q353.104 249.318 354.91 249.769 Q356.715 250.22 358.728 250.22 Q361.982 250.22 363.881 248.509 Q365.781 246.797 365.781 243.863 Q365.781 240.929 363.881 239.218 Q361.982 237.506 358.728 237.506 Q357.204 237.506 355.681 237.845 Q354.176 238.183 352.597 238.898 L352.597 224.792 Z" fill="#000000" fill-rule="nonzero" fill-opacity="1" /><path clip-path="url(#clip020)" d="M29.4065 854.537 L34.9447 854.537 Q33.6716 857.02 33.035 859.693 Q32.3984 862.367 32.3984 865.232 Q32.3984 869.592 33.7352 871.788 Q35.072 873.953 37.7456 873.953 Q39.7826 873.953 40.9603 872.393 Q42.1061 870.833 43.1565 866.123 L43.6021 864.118 Q44.9389 857.879 47.3897 855.269 Q49.8086 852.627 54.1691 852.627 Q59.1344 852.627 62.0308 856.574 Q64.9272 860.489 64.9272 867.364 Q64.9272 870.229 64.3543 873.348 Q63.8132 876.435 62.6992 879.873 L56.6518 879.873 Q58.3387 876.626 59.198 873.475 Q60.0256 870.324 60.0256 867.237 Q60.0256 863.099 58.6251 860.871 Q57.1929 858.643 54.6147 858.643 Q52.2276 858.643 50.9545 860.266 Q49.6813 861.858 48.5037 867.3 L48.0262 869.337 Q46.8804 874.78 44.5251 877.199 Q42.138 879.618 38.0002 879.618 Q32.9713 879.618 30.2341 876.053 Q27.4968 872.488 27.4968 865.932 Q27.4968 862.685 27.9743 859.821 Q28.4517 856.956 29.4065 854.537 Z" fill="#000000" fill-rule="nonzero" fill-opacity="1" /><path clip-path="url(#clip020)" d="M28.3562 843.302 L28.3562 837.445 L64.0042 837.445 L64.0042 843.302 L28.3562 843.302 M14.479 843.302 L14.479 837.445 L21.895 837.445 L21.895 843.302 L14.479 843.302 Z" fill="#000000" fill-rule="nonzero" fill-opacity="1" /><path clip-path="url(#clip020)" d="M45.7664 801.734 Q39.4007 801.734 35.8996 804.375 Q32.3984 806.985 32.3984 811.728 Q32.3984 816.438 35.8996 819.08 Q39.4007 821.69 45.7664 821.69 Q52.1003 821.69 55.6014 819.08 Q59.1026 816.438 59.1026 811.728 Q59.1026 806.985 55.6014 804.375 Q52.1003 801.734 45.7664 801.734 M59.58 795.877 Q68.683 795.877 73.1071 799.919 Q77.5631 803.962 77.5631 812.301 Q77.5631 815.388 77.0857 818.125 Q76.6401 820.863 75.6852 823.441 L69.9879 823.441 Q71.3884 820.863 72.0568 818.348 Q72.7252 815.834 72.7252 813.224 Q72.7252 807.463 69.7015 804.598 Q66.7096 801.734 60.6303 801.734 L57.7339 801.734 Q60.885 803.548 62.4446 806.381 Q64.0042 809.213 64.0042 813.16 Q64.0042 819.717 59.0071 823.727 Q54.01 827.738 45.7664 827.738 Q37.491 827.738 32.4939 823.727 Q27.4968 819.717 27.4968 813.16 Q27.4968 809.213 29.0564 806.381 Q30.616 803.548 33.7671 801.734 L28.3562 801.734 L28.3562 795.877 L59.58 795.877 Z" fill="#000000" fill-rule="nonzero" fill-opacity="1" /><path clip-path="url(#clip020)" d="M42.4881 754.182 L64.0042 754.182 L64.0042 760.038 L42.679 760.038 Q37.6183 760.038 35.1038 762.012 Q32.5894 763.985 32.5894 767.932 Q32.5894 772.674 35.6131 775.411 Q38.6368 778.149 43.8567 778.149 L64.0042 778.149 L64.0042 784.037 L28.3562 784.037 L28.3562 778.149 L33.8944 778.149 Q30.6797 776.048 29.0883 773.215 Q27.4968 770.351 27.4968 766.627 Q27.4968 760.484 31.3163 757.333 Q35.1038 754.182 42.4881 754.182 Z" fill="#000000" fill-rule="nonzero" fill-opacity="1" /><path clip-path="url(#clip020)" d="M46.0847 726.3 Q46.0847 733.398 47.7079 736.135 Q49.3312 738.872 53.2461 738.872 Q56.3653 738.872 58.2114 736.835 Q60.0256 734.766 60.0256 731.233 Q60.0256 726.364 56.5881 723.435 Q53.1188 720.475 47.3897 720.475 L46.0847 720.475 L46.0847 726.3 M43.6657 714.619 L64.0042 714.619 L64.0042 720.475 L58.5933 720.475 Q61.8398 722.481 63.3994 725.472 Q64.9272 728.464 64.9272 732.793 Q64.9272 738.268 61.8716 741.514 Q58.7843 744.729 53.6281 744.729 Q47.6125 744.729 44.5569 740.718 Q41.5014 736.676 41.5014 728.687 L41.5014 720.475 L40.9285 720.475 Q36.8862 720.475 34.6901 723.149 Q32.4621 725.791 32.4621 730.597 Q32.4621 733.652 33.1941 736.549 Q33.9262 739.445 35.3903 742.119 L29.9795 742.119 Q28.7381 738.904 28.1334 735.88 Q27.4968 732.857 27.4968 729.992 Q27.4968 722.258 31.5072 718.438 Q35.5176 714.619 43.6657 714.619 Z" fill="#000000" fill-rule="nonzero" fill-opacity="1" /><path clip-path="url(#clip020)" d="M14.479 702.556 L14.479 696.699 L64.0042 696.699 L64.0042 702.556 L14.479 702.556 Z" fill="#000000" fill-rule="nonzero" fill-opacity="1" /><path clip-path="url(#clip020)" d="M16.4842 653.317 L16.4842 647.906 L70.0516 664.457 L70.0516 669.868 L16.4842 653.317 Z" fill="#000000" fill-rule="nonzero" fill-opacity="1" /><path clip-path="url(#clip020)" d="M44.7161 590.551 L47.5806 590.551 L47.5806 617.478 Q53.6281 617.096 56.8109 613.85 Q59.9619 610.571 59.9619 604.747 Q59.9619 601.373 59.1344 598.222 Q58.3069 595.039 56.6518 591.92 L62.1899 591.92 Q63.5267 595.071 64.227 598.381 Q64.9272 601.691 64.9272 605.097 Q64.9272 613.627 59.9619 618.624 Q54.9967 623.589 46.5303 623.589 Q37.7774 623.589 32.6531 618.879 Q27.4968 614.136 27.4968 606.115 Q27.4968 598.922 32.1438 594.753 Q36.7589 590.551 44.7161 590.551 M42.9973 596.408 Q38.1912 596.471 35.3266 599.113 Q32.4621 601.723 32.4621 606.052 Q32.4621 610.953 35.2312 613.913 Q38.0002 616.842 43.0292 617.287 L42.9973 596.408 Z" fill="#000000" fill-rule="nonzero" fill-opacity="1" /><polyline clip-path="url(#clip022)" style="stroke:#009af9; stroke-linecap:round; stroke-linejoin:round; stroke-width:4; stroke-opacity:1; fill:none" points="460.689,735.212 466.751,735.207 472.814,735.202 478.876,735.197 484.939,735.193 491.002,735.188 497.064,735.182 503.127,735.177 509.189,735.172 515.252,735.167 521.314,735.162 527.377,735.158 533.44,735.154 539.502,735.15 545.565,735.146 551.627,735.142 557.69,735.138 563.752,735.134 569.815,735.13 575.878,735.126 581.94,735.122 588.003,735.119 594.065,735.115 600.128,735.111 606.19,735.108 612.253,735.104 618.316,735.101 624.378,735.097 630.441,735.094 636.503,735.09 642.566,735.087 648.628,735.084 654.691,735.081 660.754,735.074 666.816,735.067 672.879,735.06 678.941,735.053 685.004,735.046 691.066,735.039 697.129,735.032 703.191,735.025 709.254,735.018 715.317,735.012 721.379,735.005 727.442,734.999 733.504,734.992 739.567,734.986 745.629,734.979 751.692,734.973 757.755,734.967 763.817,734.96 769.88,734.954 775.942,734.942 782.005,734.931 788.067,734.92 794.13,734.909 800.193,734.898 806.255,734.888 812.318,734.877 818.38,734.866 824.443,734.855 830.505,734.845 836.568,734.834 842.631,734.824 848.693,734.813 854.756,734.803 860.818,734.792 866.881,734.782 872.943,734.772 879.006,734.761 885.069,734.751 891.131,734.741 897.194,734.73 903.256,734.713 909.319,734.694 915.381,734.675 921.444,734.657 927.507,734.638 933.569,734.619 939.632,734.6 945.694,734.581 951.757,734.563 957.819,734.544 963.882,734.525 969.945,734.507 976.007,734.488 982.07,734.47 988.132,734.451 994.195,734.433 1000.26,734.414 1006.32,734.396 1012.38,734.377 1018.45,734.359 1024.51,734.34 1030.57,734.322 1036.63,734.303 1042.7,734.285 1048.76,734.267 1054.82,734.248 1060.88,734.222 1066.95,734.186 1073.01,734.15 1079.07,734.114 1085.13,734.077 1091.2,734.041 1097.26,734.005 1103.32,733.969 1109.38,733.933 1115.45,733.897 1121.51,733.861 1127.57,733.825 1133.63,733.789 1139.7,733.753 1145.76,733.717 1151.82,733.681 1157.88,733.645 1163.95,733.608 1170.01,733.572 1176.07,733.536 1182.13,733.5 1188.2,733.464 1194.26,733.428 1200.32,733.392 1206.38,733.356 1212.45,733.319 1218.51,733.283 1224.57,733.221 1230.63,733.152 1236.7,733.083 1242.76,733.014 1248.82,732.945 1254.89,732.876 1260.95,732.806 1267.01,732.737 1273.07,732.668 1279.14,732.599 1285.2,732.53 1291.26,732.46 1297.32,732.391 1303.39,732.322 1309.45,732.252 1315.51,732.183 1321.57,732.113 1327.64,732.043 1333.7,731.974 1339.76,731.904 1345.82,731.834 1351.89,731.763 1357.95,731.693 1364.01,731.623 1370.07,731.541 1376.14,731.416 1382.2,731.291 1388.26,731.166 1394.32,731.041 1400.39,730.915 1406.45,730.79 1412.51,730.663 1418.57,730.537 1424.64,730.41 1430.7,730.284 1436.76,730.156 1442.82,730.029 1448.89,729.901 1454.95,729.773 1461.01,729.644 1467.08,729.515 1473.14,729.386 1479.2,729.256 1485.26,729.126 1491.33,728.995 1497.39,728.803 1503.45,728.592 1509.51,728.379 1515.58,728.166 1521.64,727.952 1527.7,727.737 1533.76,727.521 1539.83,727.305 1545.89,727.088 1551.95,726.869 1558.01,726.65 1564.08,726.43 1570.14,726.209 1576.2,725.986 1582.26,725.764 1588.33,725.54 1594.39,725.315 1600.45,725.09 1606.51,724.864 1612.58,724.637 1618.64,724.391 1624.7,724.102 1630.76,723.812 1636.83,723.522 1642.89,723.22 1648.95,722.909 1655.01,722.597 1661.08,722.282 1667.14,721.954 1673.2,721.62 1679.27,721.283 1685.33,720.944 1691.39,720.592 1697.45,720.232 1703.52,719.871 1709.58,719.507 1715.64,719.135 1721.7,718.751 1727.77,718.364 1733.83,717.974 1739.89,717.58 1745.95,717.171 1752.02,716.754 1758.08,716.333 1764.14,715.908 1770.2,715.477 1776.27,715.03 1782.33,714.573 1788.39,714.111 1794.45,713.642 1800.52,713.167 1806.58,712.684 1812.64,712.179 1818.7,711.665 1824.77,711.144 1830.83,710.612 1836.89,710.071 1842.95,709.52 1849.02,708.944 1855.08,708.353 1861.14,707.751 1867.2,707.137 1873.27,706.509 1879.33,705.866 1885.39,705.201 1891.46,704.506 1897.52,703.794 1903.58,703.063 1909.64,702.314 1915.71,701.548 1921.77,700.763 1927.83,699.94 1933.89,699.079 1939.96,698.192 1946.02,697.28 1952.08,696.34 1958.14,695.374 1964.21,694.384 1970.27,693.346 1976.33,692.265 1982.39,691.146 1988.46,689.988 1994.52,688.776 2000.58,687.508 2006.64,686.197 2012.71,684.844 2018.77,683.433 2024.83,681.951 2030.89,680.417 2036.96,678.832 2043.02,677.175 2049.08,675.431 2055.14,673.625 2061.21,671.757 2067.27,669.793 2073.33,667.732 2079.39,665.599 2085.46,663.348 2091.52,660.993 2097.58,658.55 2103.64,655.948 2109.71,653.233 2115.77,650.403 2121.83,647.365 2127.9,644.209 2133.96,640.845 2140.02,637.28 2146.08,633.533 2152.15,629.51 2158.21,625.189 2164.27,620.568 2170.33,615.588 2176.4,610.205 2182.46,604.308 2188.52,597.849 2194.58,590.728 2200.65,582.848 2206.71,574.037 2212.77,564.164 2218.83,552.961 2224.9,540.243 2230.96,525.661 2237.02,508.832 2243.08,489.293 2249.15,466.467 2255.21,439.644 2261.27,407.95 2267.33,370.544 2273.4,326.25 2279.46,274.112 2285.52,213.849 2291.58,146.592 2297.65,86.1857 "/>
<polyline clip-path="url(#clip022)" style="stroke:#e26f46; stroke-linecap:round; stroke-linejoin:round; stroke-width:4; stroke-opacity:1; fill:none" points="460.689,735.212 466.751,735.217 472.814,735.222 478.876,735.226 484.939,735.23 491.002,735.234 497.064,735.239 503.127,735.243 509.189,735.248 515.252,735.251 521.314,735.254 527.377,735.256 533.44,735.259 539.502,735.261 545.565,735.264 551.627,735.267 557.69,735.269 563.752,735.272 569.815,735.276 575.878,735.279 581.94,735.282 588.003,735.286 594.065,735.289 600.128,735.293 606.19,735.297 612.253,735.301 618.316,735.306 624.378,735.31 630.441,735.315 636.503,735.32 642.566,735.325 648.628,735.33 654.691,735.335 660.754,735.341 666.816,735.347 672.879,735.353 678.941,735.358 685.004,735.364 691.066,735.37 697.129,735.376 703.191,735.383 709.254,735.389 715.317,735.396 721.379,735.402 727.442,735.408 733.504,735.416 739.567,735.423 745.629,735.431 751.692,735.438 757.755,735.445 763.817,735.453 769.88,735.46 775.942,735.469 782.005,735.478 788.067,735.486 794.13,735.495 800.193,735.504 806.255,735.512 812.318,735.521 818.38,735.531 824.443,735.542 830.505,735.552 836.568,735.562 842.631,735.572 848.693,735.582 854.756,735.592 860.818,735.605 866.881,735.617 872.943,735.629 879.006,735.641 885.069,735.653 891.131,735.665 897.194,735.677 903.256,735.691 909.319,735.706 915.381,735.721 921.444,735.736 927.507,735.75 933.569,735.765 939.632,735.78 945.694,735.794 951.757,735.809 957.819,735.828 963.882,735.846 969.945,735.865 976.007,735.883 982.07,735.901 988.132,735.92 994.195,735.938 1000.26,735.957 1006.32,735.976 1012.38,735.999 1018.45,736.022 1024.51,736.046 1030.57,736.069 1036.63,736.092 1042.7,736.115 1048.76,736.138 1054.82,736.161 1060.88,736.186 1066.95,736.214 1073.01,736.243 1079.07,736.271 1085.13,736.299 1091.2,736.327 1097.26,736.356 1103.32,736.388 1109.38,736.421 1115.45,736.455 1121.51,736.488 1127.57,736.522 1133.63,736.555 1139.7,736.589 1145.76,736.628 1151.82,736.667 1157.88,736.705 1163.95,736.744 1170.01,736.786 1176.07,736.829 1182.13,736.872 1188.2,736.916 1194.26,736.96 1200.32,737.009 1206.38,737.058 1212.45,737.106 1218.51,737.155 1224.57,737.212 1230.63,737.272 1236.7,737.331 1242.76,737.39 1248.82,737.449 1254.89,737.509 1260.95,737.568 1267.01,737.627 1273.07,737.686 1279.14,737.746 1285.2,737.805 1291.26,737.864 1297.32,737.932 1303.39,738.014 1309.45,738.095 1315.51,738.177 1321.57,738.259 1327.64,738.34 1333.7,738.422 1339.76,738.504 1345.82,738.586 1351.89,738.668 1357.95,738.751 1364.01,738.833 1370.07,738.921 1376.14,739.027 1382.2,739.133 1388.26,739.24 1394.32,739.347 1400.39,739.453 1406.45,739.561 1412.51,739.674 1418.57,739.803 1424.64,739.931 1430.7,740.06 1436.76,740.188 1442.82,740.318 1448.89,740.448 1454.95,740.59 1461.01,740.744 1467.08,740.899 1473.14,741.054 1479.2,741.21 1485.26,741.367 1491.33,741.524 1497.39,741.707 1503.45,741.899 1509.51,742.092 1515.58,742.286 1521.64,742.48 1527.7,742.676 1533.76,742.872 1539.83,743.068 1545.89,743.266 1551.95,743.465 1558.01,743.695 1564.08,743.944 1570.14,744.193 1576.2,744.442 1582.26,744.691 1588.33,744.942 1594.39,745.194 1600.45,745.447 1606.51,745.701 1612.58,745.956 1618.64,746.222 1624.7,746.513 1630.76,746.806 1636.83,747.101 1642.89,747.407 1648.95,747.722 1655.01,748.039 1661.08,748.358 1667.14,748.69 1673.2,749.029 1679.27,749.369 1685.33,749.712 1691.39,750.068 1697.45,750.431 1703.52,750.796 1709.58,751.163 1715.64,751.538 1721.7,751.926 1727.77,752.316 1733.83,752.71 1739.89,753.107 1745.95,753.519 1752.02,753.939 1758.08,754.363 1764.14,754.792 1770.2,755.225 1776.27,755.676 1782.33,756.135 1788.39,756.601 1794.45,757.073 1800.52,757.551 1806.58,758.037 1812.64,758.546 1818.7,759.062 1824.77,759.587 1830.83,760.122 1836.89,760.666 1842.95,761.22 1849.02,761.8 1855.08,762.393 1861.14,762.999 1867.2,763.616 1873.27,764.248 1879.33,764.894 1885.39,765.562 1891.46,766.26 1897.52,766.976 1903.58,767.71 1909.64,768.462 1915.71,769.231 1921.77,770.02 1927.83,770.846 1933.89,771.71 1939.96,772.6 1946.02,773.516 1952.08,774.459 1958.14,775.428 1964.21,776.422 1970.27,777.463 1976.33,778.548 1982.39,779.671 1988.46,780.832 1994.52,782.048 2000.58,783.32 2006.64,784.634 2012.71,785.99 2018.77,787.406 2024.83,788.892 2030.89,790.429 2036.96,792.017 2043.02,793.679 2049.08,795.427 2055.14,797.237 2061.21,799.109 2067.27,801.078 2073.33,803.143 2079.39,805.28 2085.46,807.536 2091.52,809.897 2097.58,812.345 2103.64,814.953 2109.71,817.674 2115.77,820.51 2121.83,823.555 2127.9,826.717 2133.96,830.088 2140.02,833.66 2146.08,837.414 2152.15,841.443 2158.21,845.771 2164.27,850.401 2170.33,855.388 2176.4,860.781 2182.46,866.687 2188.52,873.153 2194.58,880.284 2200.65,888.179 2206.71,897.005 2212.77,906.894 2218.83,918.111 2224.9,930.843 2230.96,945.439 2237.02,962.279 2243.08,981.823 2249.15,1004.65 2255.21,1031.46 2261.27,1063.13 2267.33,1100.49 2273.4,1144.72 2279.46,1196.77 2285.52,1256.9 2291.58,1323.99 2297.65,1384.24 "/>
<path clip-path="url(#clip020)" d="M470.486 248.629 L887.841 248.629 L887.841 93.1086 L470.486 93.1086  Z" fill="#ffffff" fill-rule="evenodd" fill-opacity="1"/>
<polyline clip-path="url(#clip020)" style="stroke:#000000; stroke-linecap:round; stroke-linejoin:round; stroke-width:4; stroke-opacity:1; fill:none" points="470.486,248.629 887.841,248.629 887.841,93.1086 470.486,93.1086 470.486,248.629 "/>
<polyline clip-path="url(#clip020)" style="stroke:#009af9; stroke-linecap:round; stroke-linejoin:round; stroke-width:4; stroke-opacity:1; fill:none" points="492.121,144.949 621.933,144.949 "/>
<path clip-path="url(#clip020)" d="M671.438 130.331 L671.438 135.261 Q669.077 133.062 666.392 131.974 Q663.73 130.886 660.721 130.886 Q654.795 130.886 651.647 134.52 Q648.499 138.132 648.499 144.983 Q648.499 151.812 651.647 155.446 Q654.795 159.057 660.721 159.057 Q663.73 159.057 666.392 157.969 Q669.077 156.881 671.438 154.682 L671.438 159.567 Q668.985 161.233 666.23 162.067 Q663.499 162.9 660.443 162.9 Q652.596 162.9 648.082 158.108 Q643.568 153.293 643.568 144.983 Q643.568 136.65 648.082 131.858 Q652.596 127.044 660.443 127.044 Q663.545 127.044 666.276 127.877 Q669.031 128.687 671.438 130.331 Z" fill="#000000" fill-rule="nonzero" fill-opacity="1" /><path clip-path="url(#clip020)" d="M688.522 139.289 Q685.096 139.289 683.105 141.974 Q681.114 144.636 681.114 149.289 Q681.114 153.942 683.082 156.627 Q685.073 159.289 688.522 159.289 Q691.924 159.289 693.915 156.604 Q695.906 153.918 695.906 149.289 Q695.906 144.682 693.915 141.997 Q691.924 139.289 688.522 139.289 M688.522 135.678 Q694.077 135.678 697.248 139.289 Q700.42 142.9 700.42 149.289 Q700.42 155.655 697.248 159.289 Q694.077 162.9 688.522 162.9 Q682.943 162.9 679.772 159.289 Q676.624 155.655 676.624 149.289 Q676.624 142.9 679.772 139.289 Q682.943 135.678 688.522 135.678 Z" fill="#000000" fill-rule="nonzero" fill-opacity="1" /><path clip-path="url(#clip020)" d="M729.031 146.581 L729.031 162.229 L724.771 162.229 L724.771 146.719 Q724.771 143.039 723.336 141.21 Q721.901 139.382 719.031 139.382 Q715.582 139.382 713.591 141.581 Q711.6 143.78 711.6 147.576 L711.6 162.229 L707.318 162.229 L707.318 136.303 L711.6 136.303 L711.6 140.331 Q713.128 137.993 715.188 136.835 Q717.271 135.678 719.98 135.678 Q724.447 135.678 726.739 138.456 Q729.031 141.21 729.031 146.581 Z" fill="#000000" fill-rule="nonzero" fill-opacity="1" /><path clip-path="url(#clip020)" d="M741.739 128.942 L741.739 136.303 L750.512 136.303 L750.512 139.613 L741.739 139.613 L741.739 153.687 Q741.739 156.858 742.595 157.761 Q743.475 158.664 746.137 158.664 L750.512 158.664 L750.512 162.229 L746.137 162.229 Q741.207 162.229 739.332 160.4 Q737.457 158.548 737.457 153.687 L737.457 139.613 L734.332 139.613 L734.332 136.303 L737.457 136.303 L737.457 128.942 L741.739 128.942 Z" fill="#000000" fill-rule="nonzero" fill-opacity="1" /><path clip-path="url(#clip020)" d="M767.896 149.196 Q762.734 149.196 760.743 150.377 Q758.753 151.557 758.753 154.405 Q758.753 156.673 760.234 158.016 Q761.739 159.335 764.308 159.335 Q767.85 159.335 769.979 156.835 Q772.132 154.312 772.132 150.145 L772.132 149.196 L767.896 149.196 M776.392 147.437 L776.392 162.229 L772.132 162.229 L772.132 158.293 Q770.674 160.655 768.498 161.789 Q766.322 162.9 763.174 162.9 Q759.193 162.9 756.831 160.678 Q754.493 158.432 754.493 154.682 Q754.493 150.307 757.41 148.085 Q760.35 145.863 766.16 145.863 L772.132 145.863 L772.132 145.446 Q772.132 142.507 770.188 140.909 Q768.267 139.289 764.771 139.289 Q762.549 139.289 760.443 139.821 Q758.336 140.354 756.392 141.419 L756.392 137.483 Q758.73 136.581 760.929 136.141 Q763.128 135.678 765.211 135.678 Q770.836 135.678 773.614 138.594 Q776.392 141.511 776.392 147.437 Z" fill="#000000" fill-rule="nonzero" fill-opacity="1" /><path clip-path="url(#clip020)" d="M803.822 137.298 L803.822 141.28 Q802.016 140.284 800.188 139.798 Q798.382 139.289 796.53 139.289 Q792.387 139.289 790.095 141.928 Q787.803 144.544 787.803 149.289 Q787.803 154.034 790.095 156.673 Q792.387 159.289 796.53 159.289 Q798.382 159.289 800.188 158.803 Q802.016 158.293 803.822 157.298 L803.822 161.233 Q802.04 162.067 800.118 162.483 Q798.22 162.9 796.067 162.9 Q790.211 162.9 786.762 159.219 Q783.313 155.539 783.313 149.289 Q783.313 142.946 786.785 139.312 Q790.28 135.678 796.345 135.678 Q798.313 135.678 800.188 136.095 Q802.063 136.488 803.822 137.298 Z" fill="#000000" fill-rule="nonzero" fill-opacity="1" /><path clip-path="url(#clip020)" d="M815.442 128.942 L815.442 136.303 L824.215 136.303 L824.215 139.613 L815.442 139.613 L815.442 153.687 Q815.442 156.858 816.299 157.761 Q817.178 158.664 819.84 158.664 L824.215 158.664 L824.215 162.229 L819.84 162.229 Q814.91 162.229 813.035 160.4 Q811.16 158.548 811.16 153.687 L811.16 139.613 L808.035 139.613 L808.035 136.303 L811.16 136.303 L811.16 128.942 L815.442 128.942 Z" fill="#000000" fill-rule="nonzero" fill-opacity="1" /><path clip-path="url(#clip020)" d="M846.299 158.293 L853.937 158.293 L853.937 131.928 L845.627 133.595 L845.627 129.335 L853.891 127.669 L858.567 127.669 L858.567 158.293 L866.206 158.293 L866.206 162.229 L846.299 162.229 L846.299 158.293 Z" fill="#000000" fill-rule="nonzero" fill-opacity="1" /><polyline clip-path="url(#clip020)" style="stroke:#e26f46; stroke-linecap:round; stroke-linejoin:round; stroke-width:4; stroke-opacity:1; fill:none" points="492.121,196.789 621.933,196.789 "/>
<path clip-path="url(#clip020)" d="M671.438 182.171 L671.438 187.101 Q669.077 184.902 666.392 183.814 Q663.73 182.726 660.721 182.726 Q654.795 182.726 651.647 186.36 Q648.499 189.972 648.499 196.823 Q648.499 203.652 651.647 207.286 Q654.795 210.897 660.721 210.897 Q663.73 210.897 666.392 209.809 Q669.077 208.721 671.438 206.522 L671.438 211.407 Q668.985 213.073 666.23 213.907 Q663.499 214.74 660.443 214.74 Q652.596 214.74 648.082 209.948 Q643.568 205.133 643.568 196.823 Q643.568 188.49 648.082 183.698 Q652.596 178.884 660.443 178.884 Q663.545 178.884 666.276 179.717 Q669.031 180.527 671.438 182.171 Z" fill="#000000" fill-rule="nonzero" fill-opacity="1" /><path clip-path="url(#clip020)" d="M688.522 191.129 Q685.096 191.129 683.105 193.814 Q681.114 196.476 681.114 201.129 Q681.114 205.782 683.082 208.467 Q685.073 211.129 688.522 211.129 Q691.924 211.129 693.915 208.444 Q695.906 205.758 695.906 201.129 Q695.906 196.522 693.915 193.837 Q691.924 191.129 688.522 191.129 M688.522 187.518 Q694.077 187.518 697.248 191.129 Q700.42 194.74 700.42 201.129 Q700.42 207.495 697.248 211.129 Q694.077 214.74 688.522 214.74 Q682.943 214.74 679.772 211.129 Q676.624 207.495 676.624 201.129 Q676.624 194.74 679.772 191.129 Q682.943 187.518 688.522 187.518 Z" fill="#000000" fill-rule="nonzero" fill-opacity="1" /><path clip-path="url(#clip020)" d="M729.031 198.421 L729.031 214.069 L724.771 214.069 L724.771 198.559 Q724.771 194.879 723.336 193.05 Q721.901 191.222 719.031 191.222 Q715.582 191.222 713.591 193.421 Q711.6 195.62 711.6 199.416 L711.6 214.069 L707.318 214.069 L707.318 188.143 L711.6 188.143 L711.6 192.171 Q713.128 189.833 715.188 188.675 Q717.271 187.518 719.98 187.518 Q724.447 187.518 726.739 190.296 Q729.031 193.05 729.031 198.421 Z" fill="#000000" fill-rule="nonzero" fill-opacity="1" /><path clip-path="url(#clip020)" d="M741.739 180.782 L741.739 188.143 L750.512 188.143 L750.512 191.453 L741.739 191.453 L741.739 205.527 Q741.739 208.698 742.595 209.601 Q743.475 210.504 746.137 210.504 L750.512 210.504 L750.512 214.069 L746.137 214.069 Q741.207 214.069 739.332 212.24 Q737.457 210.388 737.457 205.527 L737.457 191.453 L734.332 191.453 L734.332 188.143 L737.457 188.143 L737.457 180.782 L741.739 180.782 Z" fill="#000000" fill-rule="nonzero" fill-opacity="1" /><path clip-path="url(#clip020)" d="M767.896 201.036 Q762.734 201.036 760.743 202.217 Q758.753 203.397 758.753 206.245 Q758.753 208.513 760.234 209.856 Q761.739 211.175 764.308 211.175 Q767.85 211.175 769.979 208.675 Q772.132 206.152 772.132 201.985 L772.132 201.036 L767.896 201.036 M776.392 199.277 L776.392 214.069 L772.132 214.069 L772.132 210.133 Q770.674 212.495 768.498 213.629 Q766.322 214.74 763.174 214.74 Q759.193 214.74 756.831 212.518 Q754.493 210.272 754.493 206.522 Q754.493 202.147 757.41 199.925 Q760.35 197.703 766.16 197.703 L772.132 197.703 L772.132 197.286 Q772.132 194.347 770.188 192.749 Q768.267 191.129 764.771 191.129 Q762.549 191.129 760.443 191.661 Q758.336 192.194 756.392 193.259 L756.392 189.323 Q758.73 188.421 760.929 187.981 Q763.128 187.518 765.211 187.518 Q770.836 187.518 773.614 190.434 Q776.392 193.351 776.392 199.277 Z" fill="#000000" fill-rule="nonzero" fill-opacity="1" /><path clip-path="url(#clip020)" d="M803.822 189.138 L803.822 193.12 Q802.016 192.124 800.188 191.638 Q798.382 191.129 796.53 191.129 Q792.387 191.129 790.095 193.768 Q787.803 196.384 787.803 201.129 Q787.803 205.874 790.095 208.513 Q792.387 211.129 796.53 211.129 Q798.382 211.129 800.188 210.643 Q802.016 210.133 803.822 209.138 L803.822 213.073 Q802.04 213.907 800.118 214.323 Q798.22 214.74 796.067 214.74 Q790.211 214.74 786.762 211.059 Q783.313 207.379 783.313 201.129 Q783.313 194.786 786.785 191.152 Q790.28 187.518 796.345 187.518 Q798.313 187.518 800.188 187.935 Q802.063 188.328 803.822 189.138 Z" fill="#000000" fill-rule="nonzero" fill-opacity="1" /><path clip-path="url(#clip020)" d="M815.442 180.782 L815.442 188.143 L824.215 188.143 L824.215 191.453 L815.442 191.453 L815.442 205.527 Q815.442 208.698 816.299 209.601 Q817.178 210.504 819.84 210.504 L824.215 210.504 L824.215 214.069 L819.84 214.069 Q814.91 214.069 813.035 212.24 Q811.16 210.388 811.16 205.527 L811.16 191.453 L808.035 191.453 L808.035 188.143 L811.16 188.143 L811.16 180.782 L815.442 180.782 Z" fill="#000000" fill-rule="nonzero" fill-opacity="1" /><path clip-path="url(#clip020)" d="M849.516 210.133 L865.835 210.133 L865.835 214.069 L843.891 214.069 L843.891 210.133 Q846.553 207.379 851.136 202.749 Q855.743 198.096 856.923 196.754 Q859.169 194.231 860.048 192.495 Q860.951 190.735 860.951 189.046 Q860.951 186.291 859.007 184.555 Q857.086 182.819 853.984 182.819 Q851.785 182.819 849.331 183.583 Q846.9 184.347 844.123 185.897 L844.123 181.175 Q846.947 180.041 849.4 179.462 Q851.854 178.884 853.891 178.884 Q859.261 178.884 862.456 181.569 Q865.65 184.254 865.65 188.745 Q865.65 190.874 864.84 192.796 Q864.053 194.694 861.947 197.286 Q861.368 197.958 858.266 201.175 Q855.164 204.37 849.516 210.133 Z" fill="#000000" fill-rule="nonzero" fill-opacity="1" /></svg>
