<?xml version="1.0" encoding="utf-8"?>
<svg xmlns="http://www.w3.org/2000/svg" xmlns:xlink="http://www.w3.org/1999/xlink" width="600" height="400" viewBox="0 0 2400 1600">
<defs>
  <clipPath id="clip270">
    <rect x="0" y="0" width="2400" height="1600"/>
  </clipPath>
</defs>
<path clip-path="url(#clip270)" d="
M0 1600 L2400 1600 L2400 0 L0 0  Z
  " fill="#ffffff" fill-rule="evenodd" fill-opacity="1"/>
<defs>
  <clipPath id="clip271">
    <rect x="480" y="0" width="1681" height="1600"/>
  </clipPath>
</defs>
<path clip-path="url(#clip270)" d="
M445.534 1392.94 L2352.76 1392.94 L2352.76 47.2441 L445.534 47.2441  Z
  " fill="#ffffff" fill-rule="evenodd" fill-opacity="1"/>
<defs>
  <clipPath id="clip272">
    <rect x="445" y="47" width="1908" height="1347"/>
  </clipPath>
</defs>
<polyline clip-path="url(#clip272)" style="stroke:#000000; stroke-linecap:butt; stroke-linejoin:round; stroke-width:2; stroke-opacity:0.1; fill:none" points="
  445.534,1392.94 445.534,47.2441 
  "/>
<polyline clip-path="url(#clip272)" style="stroke:#000000; stroke-linecap:butt; stroke-linejoin:round; stroke-width:2; stroke-opacity:0.1; fill:none" points="
  878.994,1392.94 878.994,47.2441 
  "/>
<polyline clip-path="url(#clip272)" style="stroke:#000000; stroke-linecap:butt; stroke-linejoin:round; stroke-width:2; stroke-opacity:0.1; fill:none" points="
  1312.45,1392.94 1312.45,47.2441 
  "/>
<polyline clip-path="url(#clip272)" style="stroke:#000000; stroke-linecap:butt; stroke-linejoin:round; stroke-width:2; stroke-opacity:0.1; fill:none" points="
  1745.91,1392.94 1745.91,47.2441 
  "/>
<polyline clip-path="url(#clip272)" style="stroke:#000000; stroke-linecap:butt; stroke-linejoin:round; stroke-width:2; stroke-opacity:0.1; fill:none" points="
  2179.37,1392.94 2179.37,47.2441 
  "/>
<polyline clip-path="url(#clip270)" style="stroke:#000000; stroke-linecap:butt; stroke-linejoin:round; stroke-width:4; stroke-opacity:1; fill:none" points="
  445.534,1392.94 2352.76,1392.94 
  "/>
<polyline clip-path="url(#clip270)" style="stroke:#000000; stroke-linecap:butt; stroke-linejoin:round; stroke-width:4; stroke-opacity:1; fill:none" points="
  445.534,1392.94 445.534,1374.04 
  "/>
<polyline clip-path="url(#clip270)" style="stroke:#000000; stroke-linecap:butt; stroke-linejoin:round; stroke-width:4; stroke-opacity:1; fill:none" points="
  878.994,1392.94 878.994,1374.04 
  "/>
<polyline clip-path="url(#clip270)" style="stroke:#000000; stroke-linecap:butt; stroke-linejoin:round; stroke-width:4; stroke-opacity:1; fill:none" points="
  1312.45,1392.94 1312.45,1374.04 
  "/>
<polyline clip-path="url(#clip270)" style="stroke:#000000; stroke-linecap:butt; stroke-linejoin:round; stroke-width:4; stroke-opacity:1; fill:none" points="
  1745.91,1392.94 1745.91,1374.04 
  "/>
<polyline clip-path="url(#clip270)" style="stroke:#000000; stroke-linecap:butt; stroke-linejoin:round; stroke-width:4; stroke-opacity:1; fill:none" points="
  2179.37,1392.94 2179.37,1374.04 
  "/>
<path clip-path="url(#clip270)" d="M445.534 1429.72 Q440.118 1429.72 437.375 1435.07 Q434.666 1440.38 434.666 1451.07 Q434.666 1461.73 437.375 1467.08 Q440.118 1472.39 445.534 1472.39 Q450.986 1472.39 453.694 1467.08 Q456.437 1461.73 456.437 1451.07 Q456.437 1440.38 453.694 1435.07 Q450.986 1429.72 445.534 1429.72 M445.534 1424.16 Q454.249 1424.16 458.833 1431.07 Q463.451 1437.95 463.451 1451.07 Q463.451 1464.16 458.833 1471.07 Q454.249 1477.95 445.534 1477.95 Q436.819 1477.95 432.201 1471.07 Q427.618 1464.16 427.618 1451.07 Q427.618 1437.95 432.201 1431.07 Q436.819 1424.16 445.534 1424.16 Z" fill="#000000" fill-rule="evenodd" fill-opacity="1" /><path clip-path="url(#clip270)" d="M824.532 1471.04 L849.011 1471.04 L849.011 1476.94 L816.095 1476.94 L816.095 1471.04 Q820.088 1466.91 826.963 1459.96 Q833.872 1452.98 835.643 1450.97 Q839.011 1447.18 840.331 1444.58 Q841.685 1441.94 841.685 1439.41 Q841.685 1435.27 838.768 1432.67 Q835.886 1430.07 831.234 1430.07 Q827.935 1430.07 824.254 1431.21 Q820.609 1432.36 816.442 1434.68 L816.442 1427.6 Q820.678 1425.9 824.359 1425.03 Q828.039 1424.16 831.095 1424.16 Q839.15 1424.16 843.942 1428.19 Q848.733 1432.22 848.733 1438.95 Q848.733 1442.15 847.518 1445.03 Q846.338 1447.88 843.178 1451.77 Q842.31 1452.77 837.657 1457.6 Q833.004 1462.39 824.532 1471.04 Z" fill="#000000" fill-rule="evenodd" fill-opacity="1" /><path clip-path="url(#clip270)" d="M863.803 1425.1 L891.337 1425.1 L891.337 1431 L870.226 1431 L870.226 1443.71 Q871.754 1443.19 873.282 1442.95 Q874.81 1442.67 876.337 1442.67 Q885.018 1442.67 890.087 1447.43 Q895.157 1452.18 895.157 1460.31 Q895.157 1468.68 889.948 1473.33 Q884.74 1477.95 875.261 1477.95 Q871.997 1477.95 868.594 1477.39 Q865.226 1476.84 861.615 1475.72 L861.615 1468.68 Q864.74 1470.38 868.074 1471.21 Q871.407 1472.04 875.122 1472.04 Q881.129 1472.04 884.636 1468.88 Q888.143 1465.72 888.143 1460.31 Q888.143 1454.89 884.636 1451.73 Q881.129 1448.57 875.122 1448.57 Q872.31 1448.57 869.497 1449.2 Q866.719 1449.82 863.803 1451.14 L863.803 1425.1 Z" fill="#000000" fill-rule="evenodd" fill-opacity="1" /><path clip-path="url(#clip270)" d="M923.976 1429.72 Q918.559 1429.72 915.816 1435.07 Q913.108 1440.38 913.108 1451.07 Q913.108 1461.73 915.816 1467.08 Q918.559 1472.39 923.976 1472.39 Q929.427 1472.39 932.136 1467.08 Q934.879 1461.73 934.879 1451.07 Q934.879 1440.38 932.136 1435.07 Q929.427 1429.72 923.976 1429.72 M923.976 1424.16 Q932.691 1424.16 937.275 1431.07 Q941.893 1437.95 941.893 1451.07 Q941.893 1464.16 937.275 1471.07 Q932.691 1477.95 923.976 1477.95 Q915.261 1477.95 910.643 1471.07 Q906.059 1464.16 906.059 1451.07 Q906.059 1437.95 910.643 1431.07 Q915.261 1424.16 923.976 1424.16 Z" fill="#000000" fill-rule="evenodd" fill-opacity="1" /><path clip-path="url(#clip270)" d="M1251.88 1425.1 L1279.42 1425.1 L1279.42 1431 L1258.3 1431 L1258.3 1443.71 Q1259.83 1443.19 1261.36 1442.95 Q1262.89 1442.67 1264.42 1442.67 Q1273.1 1442.67 1278.17 1447.43 Q1283.23 1452.18 1283.23 1460.31 Q1283.23 1468.68 1278.03 1473.33 Q1272.82 1477.95 1263.34 1477.95 Q1260.07 1477.95 1256.67 1477.39 Q1253.3 1476.84 1249.69 1475.72 L1249.69 1468.68 Q1252.82 1470.38 1256.15 1471.21 Q1259.48 1472.04 1263.2 1472.04 Q1269.21 1472.04 1272.71 1468.88 Q1276.22 1465.72 1276.22 1460.31 Q1276.22 1454.89 1272.71 1451.73 Q1269.21 1448.57 1263.2 1448.57 Q1260.39 1448.57 1257.57 1449.2 Q1254.8 1449.82 1251.88 1451.14 L1251.88 1425.1 Z" fill="#000000" fill-rule="evenodd" fill-opacity="1" /><path clip-path="url(#clip270)" d="M1312.05 1429.72 Q1306.64 1429.72 1303.89 1435.07 Q1301.19 1440.38 1301.19 1451.07 Q1301.19 1461.73 1303.89 1467.08 Q1306.64 1472.39 1312.05 1472.39 Q1317.51 1472.39 1320.21 1467.08 Q1322.96 1461.73 1322.96 1451.07 Q1322.96 1440.38 1320.21 1435.07 Q1317.51 1429.72 1312.05 1429.72 M1312.05 1424.16 Q1320.77 1424.16 1325.35 1431.07 Q1329.97 1437.95 1329.97 1451.07 Q1329.97 1464.16 1325.35 1471.07 Q1320.77 1477.95 1312.05 1477.95 Q1303.34 1477.95 1298.72 1471.07 Q1294.14 1464.16 1294.14 1451.07 Q1294.14 1437.95 1298.72 1431.07 Q1303.34 1424.16 1312.05 1424.16 Z" fill="#000000" fill-rule="evenodd" fill-opacity="1" /><path clip-path="url(#clip270)" d="M1357.3 1429.72 Q1351.88 1429.72 1349.14 1435.07 Q1346.43 1440.38 1346.43 1451.07 Q1346.43 1461.73 1349.14 1467.08 Q1351.88 1472.39 1357.3 1472.39 Q1362.75 1472.39 1365.46 1467.08 Q1368.2 1461.73 1368.2 1451.07 Q1368.2 1440.38 1365.46 1435.07 Q1362.75 1429.72 1357.3 1429.72 M1357.3 1424.16 Q1366.01 1424.16 1370.6 1431.07 Q1375.21 1437.95 1375.21 1451.07 Q1375.21 1464.16 1370.6 1471.07 Q1366.01 1477.95 1357.3 1477.95 Q1348.58 1477.95 1343.96 1471.07 Q1339.38 1464.16 1339.38 1451.07 Q1339.38 1437.95 1343.96 1431.07 Q1348.58 1424.16 1357.3 1424.16 Z" fill="#000000" fill-rule="evenodd" fill-opacity="1" /><path clip-path="url(#clip270)" d="M1683.33 1425.1 L1716.66 1425.1 L1716.66 1428.09 L1697.84 1476.94 L1690.51 1476.94 L1708.22 1431 L1683.33 1431 L1683.33 1425.1 Z" fill="#000000" fill-rule="evenodd" fill-opacity="1" /><path clip-path="url(#clip270)" d="M1730.41 1425.1 L1757.94 1425.1 L1757.94 1431 L1736.83 1431 L1736.83 1443.71 Q1738.36 1443.19 1739.89 1442.95 Q1741.42 1442.67 1742.94 1442.67 Q1751.62 1442.67 1756.69 1447.43 Q1761.76 1452.18 1761.76 1460.31 Q1761.76 1468.68 1756.55 1473.33 Q1751.35 1477.95 1741.87 1477.95 Q1738.6 1477.95 1735.2 1477.39 Q1731.83 1476.84 1728.22 1475.72 L1728.22 1468.68 Q1731.35 1470.38 1734.68 1471.21 Q1738.01 1472.04 1741.73 1472.04 Q1747.74 1472.04 1751.24 1468.88 Q1754.75 1465.72 1754.75 1460.31 Q1754.75 1454.89 1751.24 1451.73 Q1747.74 1448.57 1741.73 1448.57 Q1738.92 1448.57 1736.1 1449.2 Q1733.33 1449.82 1730.41 1451.14 L1730.41 1425.1 Z" fill="#000000" fill-rule="evenodd" fill-opacity="1" /><path clip-path="url(#clip270)" d="M1790.58 1429.72 Q1785.17 1429.72 1782.42 1435.07 Q1779.71 1440.38 1779.71 1451.07 Q1779.71 1461.73 1782.42 1467.08 Q1785.17 1472.39 1790.58 1472.39 Q1796.03 1472.39 1798.74 1467.08 Q1801.49 1461.73 1801.49 1451.07 Q1801.49 1440.38 1798.74 1435.07 Q1796.03 1429.72 1790.58 1429.72 M1790.58 1424.16 Q1799.3 1424.16 1803.88 1431.07 Q1808.5 1437.95 1808.5 1451.07 Q1808.5 1464.16 1803.88 1471.07 Q1799.3 1477.95 1790.58 1477.95 Q1781.87 1477.95 1777.25 1471.07 Q1772.67 1464.16 1772.67 1451.07 Q1772.67 1437.95 1777.25 1431.07 Q1781.87 1424.16 1790.58 1424.16 Z" fill="#000000" fill-rule="evenodd" fill-opacity="1" /><path clip-path="url(#clip270)" d="M2096.16 1471.04 L2107.62 1471.04 L2107.62 1431.49 L2095.15 1433.99 L2095.15 1427.6 L2107.55 1425.1 L2114.56 1425.1 L2114.56 1471.04 L2126.02 1471.04 L2126.02 1476.94 L2096.16 1476.94 L2096.16 1471.04 Z" fill="#000000" fill-rule="evenodd" fill-opacity="1" /><path clip-path="url(#clip270)" d="M2155.19 1429.72 Q2149.77 1429.72 2147.03 1435.07 Q2144.32 1440.38 2144.32 1451.07 Q2144.32 1461.73 2147.03 1467.08 Q2149.77 1472.39 2155.19 1472.39 Q2160.64 1472.39 2163.35 1467.08 Q2166.09 1461.73 2166.09 1451.07 Q2166.09 1440.38 2163.35 1435.07 Q2160.64 1429.72 2155.19 1429.72 M2155.19 1424.16 Q2163.9 1424.16 2168.49 1431.07 Q2173.1 1437.95 2173.1 1451.07 Q2173.1 1464.16 2168.49 1471.07 Q2163.9 1477.95 2155.19 1477.95 Q2146.47 1477.95 2141.85 1471.07 Q2137.27 1464.16 2137.27 1451.07 Q2137.27 1437.95 2141.85 1431.07 Q2146.47 1424.16 2155.19 1424.16 Z" fill="#000000" fill-rule="evenodd" fill-opacity="1" /><path clip-path="url(#clip270)" d="M2200.43 1429.72 Q2195.01 1429.72 2192.27 1435.07 Q2189.56 1440.38 2189.56 1451.07 Q2189.56 1461.73 2192.27 1467.08 Q2195.01 1472.39 2200.43 1472.39 Q2205.88 1472.39 2208.59 1467.08 Q2211.33 1461.73 2211.33 1451.07 Q2211.33 1440.38 2208.59 1435.07 Q2205.88 1429.72 2200.43 1429.72 M2200.43 1424.16 Q2209.15 1424.16 2213.73 1431.07 Q2218.35 1437.95 2218.35 1451.07 Q2218.35 1464.16 2213.73 1471.07 Q2209.15 1477.95 2200.43 1477.95 Q2191.72 1477.95 2187.1 1471.07 Q2182.51 1464.16 2182.51 1451.07 Q2182.51 1437.95 2187.1 1431.07 Q2191.72 1424.16 2200.43 1424.16 Z" fill="#000000" fill-rule="evenodd" fill-opacity="1" /><path clip-path="url(#clip270)" d="M2245.67 1429.72 Q2240.26 1429.72 2237.51 1435.07 Q2234.81 1440.38 2234.81 1451.07 Q2234.81 1461.73 2237.51 1467.08 Q2240.26 1472.39 2245.67 1472.39 Q2251.13 1472.39 2253.83 1467.08 Q2256.58 1461.73 2256.58 1451.07 Q2256.58 1440.38 2253.83 1435.07 Q2251.13 1429.72 2245.67 1429.72 M2245.67 1424.16 Q2254.39 1424.16 2258.97 1431.07 Q2263.59 1437.95 2263.59 1451.07 Q2263.59 1464.16 2258.97 1471.07 Q2254.39 1477.95 2245.67 1477.95 Q2236.96 1477.95 2232.34 1471.07 Q2227.76 1464.16 2227.76 1451.07 Q2227.76 1437.95 2232.34 1431.07 Q2236.96 1424.16 2245.67 1424.16 Z" fill="#000000" fill-rule="evenodd" fill-opacity="1" /><path clip-path="url(#clip270)" d="M1211.28 1518.8 L1262.45 1518.8 L1262.45 1525.68 L1240.98 1525.68 L1240.98 1579.28 L1232.75 1579.28 L1232.75 1525.68 L1211.28 1525.68 L1211.28 1518.8 Z" fill="#000000" fill-rule="evenodd" fill-opacity="1" /><path clip-path="url(#clip270)" d="M1267.47 1533.91 L1274.92 1533.91 L1274.92 1579.28 L1267.47 1579.28 L1267.47 1533.91 M1267.47 1516.24 L1274.92 1516.24 L1274.92 1525.68 L1267.47 1525.68 L1267.47 1516.24 Z" fill="#000000" fill-rule="evenodd" fill-opacity="1" /><path clip-path="url(#clip270)" d="M1325.84 1542.62 Q1328.64 1537.59 1332.53 1535.2 Q1336.42 1532.81 1341.68 1532.81 Q1348.77 1532.81 1352.62 1537.79 Q1356.47 1542.74 1356.47 1551.89 L1356.47 1579.28 L1348.97 1579.28 L1348.97 1552.13 Q1348.97 1545.61 1346.67 1542.45 Q1344.36 1539.29 1339.62 1539.29 Q1333.82 1539.29 1330.46 1543.14 Q1327.1 1546.99 1327.1 1553.63 L1327.1 1579.28 L1319.61 1579.28 L1319.61 1552.13 Q1319.61 1545.57 1317.3 1542.45 Q1314.99 1539.29 1310.17 1539.29 Q1304.46 1539.29 1301.09 1543.18 Q1297.73 1547.03 1297.73 1553.63 L1297.73 1579.28 L1290.24 1579.28 L1290.24 1533.91 L1297.73 1533.91 L1297.73 1540.95 Q1300.28 1536.78 1303.85 1534.8 Q1307.41 1532.81 1312.31 1532.81 Q1317.26 1532.81 1320.7 1535.32 Q1324.18 1537.84 1325.84 1542.62 Z" fill="#000000" fill-rule="evenodd" fill-opacity="1" /><path clip-path="url(#clip270)" d="M1410.14 1554.73 L1410.14 1558.37 L1375.87 1558.37 Q1376.36 1566.07 1380.49 1570.12 Q1384.66 1574.13 1392.08 1574.13 Q1396.37 1574.13 1400.38 1573.08 Q1404.43 1572.02 1408.4 1569.92 L1408.4 1576.97 Q1404.39 1578.67 1400.18 1579.56 Q1395.97 1580.45 1391.63 1580.45 Q1380.77 1580.45 1374.41 1574.13 Q1368.09 1567.81 1368.09 1557.04 Q1368.09 1545.9 1374.09 1539.37 Q1380.13 1532.81 1390.33 1532.81 Q1399.49 1532.81 1404.8 1538.73 Q1410.14 1544.6 1410.14 1554.73 M1402.69 1552.54 Q1402.61 1546.42 1399.25 1542.78 Q1395.92 1539.13 1390.42 1539.13 Q1384.18 1539.13 1380.41 1542.66 Q1376.68 1546.18 1376.12 1552.58 L1402.69 1552.54 Z" fill="#000000" fill-rule="evenodd" fill-opacity="1" /><path clip-path="url(#clip270)" d="M1461.99 1518.8 L1468.88 1518.8 L1447.82 1586.97 L1440.93 1586.97 L1461.99 1518.8 Z" fill="#000000" fill-rule="evenodd" fill-opacity="1" /><path clip-path="url(#clip270)" d="M1540.78 1551.89 L1540.78 1579.28 L1533.33 1579.28 L1533.33 1552.13 Q1533.33 1545.69 1530.82 1542.49 Q1528.31 1539.29 1523.29 1539.29 Q1517.25 1539.29 1513.77 1543.14 Q1510.28 1546.99 1510.28 1553.63 L1510.28 1579.28 L1502.79 1579.28 L1502.79 1533.91 L1510.28 1533.91 L1510.28 1540.95 Q1512.96 1536.86 1516.56 1534.84 Q1520.21 1532.81 1524.95 1532.81 Q1532.76 1532.81 1536.77 1537.67 Q1540.78 1542.49 1540.78 1551.89 Z" fill="#000000" fill-rule="evenodd" fill-opacity="1" /><path clip-path="url(#clip270)" d="M1584.58 1535.24 L1584.58 1542.29 Q1581.42 1540.67 1578.01 1539.86 Q1574.61 1539.05 1570.96 1539.05 Q1565.41 1539.05 1562.62 1540.75 Q1559.86 1542.45 1559.86 1545.86 Q1559.86 1548.45 1561.85 1549.95 Q1563.83 1551.41 1569.83 1552.74 L1572.38 1553.31 Q1580.32 1555.01 1583.64 1558.13 Q1587.01 1561.21 1587.01 1566.76 Q1587.01 1573.08 1581.98 1576.76 Q1577 1580.45 1568.25 1580.45 Q1564.6 1580.45 1560.63 1579.72 Q1556.7 1579.03 1552.33 1577.61 L1552.33 1569.92 Q1556.46 1572.07 1560.47 1573.16 Q1564.48 1574.21 1568.41 1574.21 Q1573.68 1574.21 1576.51 1572.43 Q1579.35 1570.61 1579.35 1567.33 Q1579.35 1564.29 1577.28 1562.67 Q1575.26 1561.05 1568.33 1559.55 L1565.74 1558.94 Q1558.81 1557.48 1555.73 1554.48 Q1552.65 1551.45 1552.65 1546.18 Q1552.65 1539.78 1557.19 1536.3 Q1561.73 1532.81 1570.07 1532.81 Q1574.2 1532.81 1577.85 1533.42 Q1581.5 1534.03 1584.58 1535.24 Z" fill="#000000" fill-rule="evenodd" fill-opacity="1" /><polyline clip-path="url(#clip272)" style="stroke:#000000; stroke-linecap:butt; stroke-linejoin:round; stroke-width:2; stroke-opacity:0.1; fill:none" points="
  445.534,1354.85 2352.76,1354.85 
  "/>
<polyline clip-path="url(#clip272)" style="stroke:#000000; stroke-linecap:butt; stroke-linejoin:round; stroke-width:2; stroke-opacity:0.1; fill:none" points="
  445.534,941.108 2352.76,941.108 
  "/>
<polyline clip-path="url(#clip272)" style="stroke:#000000; stroke-linecap:butt; stroke-linejoin:round; stroke-width:2; stroke-opacity:0.1; fill:none" points="
  445.534,527.361 2352.76,527.361 
  "/>
<polyline clip-path="url(#clip272)" style="stroke:#000000; stroke-linecap:butt; stroke-linejoin:round; stroke-width:2; stroke-opacity:0.1; fill:none" points="
  445.534,113.615 2352.76,113.615 
  "/>
<polyline clip-path="url(#clip270)" style="stroke:#000000; stroke-linecap:butt; stroke-linejoin:round; stroke-width:4; stroke-opacity:1; fill:none" points="
  445.534,1392.94 445.534,47.2441 
  "/>
<polyline clip-path="url(#clip270)" style="stroke:#000000; stroke-linecap:butt; stroke-linejoin:round; stroke-width:4; stroke-opacity:1; fill:none" points="
  445.534,1354.85 464.432,1354.85 
  "/>
<polyline clip-path="url(#clip270)" style="stroke:#000000; stroke-linecap:butt; stroke-linejoin:round; stroke-width:4; stroke-opacity:1; fill:none" points="
  445.534,941.108 464.432,941.108 
  "/>
<polyline clip-path="url(#clip270)" style="stroke:#000000; stroke-linecap:butt; stroke-linejoin:round; stroke-width:4; stroke-opacity:1; fill:none" points="
  445.534,527.361 464.432,527.361 
  "/>
<polyline clip-path="url(#clip270)" style="stroke:#000000; stroke-linecap:butt; stroke-linejoin:round; stroke-width:4; stroke-opacity:1; fill:none" points="
  445.534,113.615 464.432,113.615 
  "/>
<path clip-path="url(#clip270)" d="M391.618 1333.55 Q386.201 1333.55 383.458 1338.9 Q380.75 1344.21 380.75 1354.91 Q380.75 1365.57 383.458 1370.91 Q386.201 1376.23 391.618 1376.23 Q397.069 1376.23 399.777 1370.91 Q402.52 1365.57 402.52 1354.91 Q402.52 1344.21 399.777 1338.9 Q397.069 1333.55 391.618 1333.55 M391.618 1328 Q400.333 1328 404.916 1334.91 Q409.534 1341.78 409.534 1354.91 Q409.534 1368 404.916 1374.91 Q400.333 1381.78 391.618 1381.78 Q382.902 1381.78 378.284 1374.91 Q373.701 1368 373.701 1354.91 Q373.701 1341.78 378.284 1334.91 Q382.902 1328 391.618 1328 Z" fill="#000000" fill-rule="evenodd" fill-opacity="1" /><path clip-path="url(#clip270)" d="M130.831 970.796 L142.29 970.796 L142.29 931.248 L129.824 933.748 L129.824 927.359 L142.22 924.859 L149.234 924.859 L149.234 970.796 L160.692 970.796 L160.692 976.699 L130.831 976.699 L130.831 970.796 Z" fill="#000000" fill-rule="evenodd" fill-opacity="1" /><path clip-path="url(#clip270)" d="M174.859 967.88 L182.185 967.88 L182.185 976.699 L174.859 976.699 L174.859 967.88 Z" fill="#000000" fill-rule="evenodd" fill-opacity="1" /><path clip-path="url(#clip270)" d="M212.463 929.477 Q207.046 929.477 204.303 934.824 Q201.595 940.137 201.595 950.831 Q201.595 961.491 204.303 966.838 Q207.046 972.151 212.463 972.151 Q217.914 972.151 220.622 966.838 Q223.365 961.491 223.365 950.831 Q223.365 940.137 220.622 934.824 Q217.914 929.477 212.463 929.477 M212.463 923.922 Q221.178 923.922 225.761 930.831 Q230.379 937.706 230.379 950.831 Q230.379 963.921 225.761 970.831 Q221.178 977.706 212.463 977.706 Q203.748 977.706 199.129 970.831 Q194.546 963.921 194.546 950.831 Q194.546 937.706 199.129 930.831 Q203.748 923.922 212.463 923.922 Z" fill="#000000" fill-rule="evenodd" fill-opacity="1" /><path clip-path="url(#clip270)" d="M284.962 938.505 L269.094 954.442 L284.962 970.31 L280.83 974.512 L264.893 958.574 L248.956 974.512 L244.858 970.31 L260.692 954.442 L244.858 938.505 L248.956 934.303 L264.893 950.241 L280.83 934.303 L284.962 938.505 Z" fill="#000000" fill-rule="evenodd" fill-opacity="1" /><path clip-path="url(#clip270)" d="M303.504 970.796 L314.962 970.796 L314.962 931.248 L302.497 933.748 L302.497 927.359 L314.893 924.859 L321.907 924.859 L321.907 970.796 L333.365 970.796 L333.365 976.699 L303.504 976.699 L303.504 970.796 Z" fill="#000000" fill-rule="evenodd" fill-opacity="1" /><path clip-path="url(#clip270)" d="M362.531 929.477 Q357.115 929.477 354.372 934.824 Q351.663 940.137 351.663 950.831 Q351.663 961.491 354.372 966.838 Q357.115 972.151 362.531 972.151 Q367.983 972.151 370.691 966.838 Q373.434 961.491 373.434 950.831 Q373.434 940.137 370.691 934.824 Q367.983 929.477 362.531 929.477 M362.531 923.922 Q371.247 923.922 375.83 930.831 Q380.448 937.706 380.448 950.831 Q380.448 963.921 375.83 970.831 Q371.247 977.706 362.531 977.706 Q353.816 977.706 349.198 970.831 Q344.615 963.921 344.615 950.831 Q344.615 937.706 349.198 930.831 Q353.816 923.922 362.531 923.922 Z" fill="#000000" fill-rule="evenodd" fill-opacity="1" /><path clip-path="url(#clip270)" d="M395.485 912.252 Q391.648 912.252 389.391 914.876 Q387.162 917.5 387.162 922.07 Q387.162 926.612 389.391 929.264 Q391.648 931.888 395.485 931.888 Q399.322 931.888 401.55 929.264 Q403.807 926.612 403.807 922.07 Q403.807 917.5 401.55 914.876 Q399.322 912.252 395.485 912.252 M406.798 894.394 L406.798 899.585 Q404.654 898.57 402.453 898.034 Q400.281 897.498 398.137 897.498 Q392.494 897.498 389.504 901.306 Q386.542 905.115 386.119 912.817 Q387.783 910.362 390.294 909.065 Q392.805 907.739 395.823 907.739 Q402.171 907.739 405.838 911.604 Q409.534 915.44 409.534 922.07 Q409.534 928.559 405.697 932.48 Q401.861 936.402 395.485 936.402 Q388.178 936.402 384.313 930.816 Q380.448 925.202 380.448 914.566 Q380.448 904.579 385.188 898.654 Q389.927 892.702 397.911 892.702 Q400.055 892.702 402.227 893.125 Q404.428 893.548 406.798 894.394 Z" fill="#000000" fill-rule="evenodd" fill-opacity="1" /><path clip-path="url(#clip270)" d="M135.658 557.05 L160.137 557.05 L160.137 562.953 L127.22 562.953 L127.22 557.05 Q131.213 552.918 138.088 545.974 Q144.998 538.994 146.769 536.981 Q150.137 533.196 151.456 530.592 Q152.81 527.953 152.81 525.418 Q152.81 521.286 149.894 518.682 Q147.012 516.078 142.359 516.078 Q139.06 516.078 135.38 517.224 Q131.734 518.37 127.567 520.696 L127.567 513.613 Q131.803 511.911 135.484 511.043 Q139.165 510.175 142.22 510.175 Q150.276 510.175 155.067 514.203 Q159.859 518.231 159.859 524.967 Q159.859 528.161 158.644 531.043 Q157.463 533.89 154.303 537.779 Q153.435 538.786 148.783 543.613 Q144.13 548.404 135.658 557.05 Z" fill="#000000" fill-rule="evenodd" fill-opacity="1" /><path clip-path="url(#clip270)" d="M174.859 554.133 L182.185 554.133 L182.185 562.953 L174.859 562.953 L174.859 554.133 Z" fill="#000000" fill-rule="evenodd" fill-opacity="1" /><path clip-path="url(#clip270)" d="M212.463 515.731 Q207.046 515.731 204.303 521.078 Q201.595 526.39 201.595 537.085 Q201.595 547.744 204.303 553.092 Q207.046 558.404 212.463 558.404 Q217.914 558.404 220.622 553.092 Q223.365 547.744 223.365 537.085 Q223.365 526.39 220.622 521.078 Q217.914 515.731 212.463 515.731 M212.463 510.175 Q221.178 510.175 225.761 517.085 Q230.379 523.96 230.379 537.085 Q230.379 550.175 225.761 557.085 Q221.178 563.96 212.463 563.96 Q203.748 563.96 199.129 557.085 Q194.546 550.175 194.546 537.085 Q194.546 523.96 199.129 517.085 Q203.748 510.175 212.463 510.175 Z" fill="#000000" fill-rule="evenodd" fill-opacity="1" /><path clip-path="url(#clip270)" d="M284.962 524.758 L269.094 540.696 L284.962 556.564 L280.83 560.765 L264.893 544.828 L248.956 560.765 L244.858 556.564 L260.692 540.696 L244.858 524.758 L248.956 520.557 L264.893 536.494 L280.83 520.557 L284.962 524.758 Z" fill="#000000" fill-rule="evenodd" fill-opacity="1" /><path clip-path="url(#clip270)" d="M303.504 557.05 L314.962 557.05 L314.962 517.502 L302.497 520.002 L302.497 513.613 L314.893 511.113 L321.907 511.113 L321.907 557.05 L333.365 557.05 L333.365 562.953 L303.504 562.953 L303.504 557.05 Z" fill="#000000" fill-rule="evenodd" fill-opacity="1" /><path clip-path="url(#clip270)" d="M362.531 515.731 Q357.115 515.731 354.372 521.078 Q351.663 526.39 351.663 537.085 Q351.663 547.744 354.372 553.092 Q357.115 558.404 362.531 558.404 Q367.983 558.404 370.691 553.092 Q373.434 547.744 373.434 537.085 Q373.434 526.39 370.691 521.078 Q367.983 515.731 362.531 515.731 M362.531 510.175 Q371.247 510.175 375.83 517.085 Q380.448 523.96 380.448 537.085 Q380.448 550.175 375.83 557.085 Q371.247 563.96 362.531 563.96 Q353.816 563.96 349.198 557.085 Q344.615 550.175 344.615 537.085 Q344.615 523.96 349.198 517.085 Q353.816 510.175 362.531 510.175 Z" fill="#000000" fill-rule="evenodd" fill-opacity="1" /><path clip-path="url(#clip270)" d="M395.485 498.506 Q391.648 498.506 389.391 501.13 Q387.162 503.753 387.162 508.324 Q387.162 512.866 389.391 515.518 Q391.648 518.141 395.485 518.141 Q399.322 518.141 401.55 515.518 Q403.807 512.866 403.807 508.324 Q403.807 503.753 401.55 501.13 Q399.322 498.506 395.485 498.506 M406.798 480.648 L406.798 485.839 Q404.654 484.823 402.453 484.287 Q400.281 483.751 398.137 483.751 Q392.494 483.751 389.504 487.56 Q386.542 491.368 386.119 499.07 Q387.783 496.616 390.294 495.318 Q392.805 493.992 395.823 493.992 Q402.171 493.992 405.838 497.857 Q409.534 501.694 409.534 508.324 Q409.534 514.812 405.697 518.734 Q401.861 522.655 395.485 522.655 Q388.178 522.655 384.313 517.069 Q380.448 511.455 380.448 500.819 Q380.448 490.832 385.188 484.908 Q389.927 478.955 397.911 478.955 Q400.055 478.955 402.227 479.379 Q404.428 479.802 406.798 480.648 Z" fill="#000000" fill-rule="evenodd" fill-opacity="1" /><path clip-path="url(#clip270)" d="M150.866 121.255 Q155.901 122.331 158.713 125.734 Q161.56 129.137 161.56 134.137 Q161.56 141.81 156.283 146.012 Q151.005 150.213 141.283 150.213 Q138.019 150.213 134.547 149.553 Q131.109 148.928 127.428 147.644 L127.428 140.873 Q130.345 142.574 133.817 143.442 Q137.29 144.31 141.074 144.31 Q147.671 144.31 151.109 141.706 Q154.581 139.102 154.581 134.137 Q154.581 129.554 151.352 126.984 Q148.158 124.38 142.428 124.38 L136.387 124.38 L136.387 118.616 L142.706 118.616 Q147.88 118.616 150.623 116.568 Q153.366 114.484 153.366 110.595 Q153.366 106.602 150.519 104.484 Q147.706 102.332 142.428 102.332 Q139.546 102.332 136.248 102.957 Q132.949 103.582 128.991 104.901 L128.991 98.651 Q132.984 97.5399 136.456 96.9843 Q139.963 96.4288 143.053 96.4288 Q151.039 96.4288 155.692 100.075 Q160.345 103.686 160.345 109.866 Q160.345 114.172 157.88 117.158 Q155.414 120.109 150.866 121.255 Z" fill="#000000" fill-rule="evenodd" fill-opacity="1" /><path clip-path="url(#clip270)" d="M174.859 140.387 L182.185 140.387 L182.185 149.206 L174.859 149.206 L174.859 140.387 Z" fill="#000000" fill-rule="evenodd" fill-opacity="1" /><path clip-path="url(#clip270)" d="M212.463 101.984 Q207.046 101.984 204.303 107.331 Q201.595 112.644 201.595 123.338 Q201.595 133.998 204.303 139.345 Q207.046 144.658 212.463 144.658 Q217.914 144.658 220.622 139.345 Q223.365 133.998 223.365 123.338 Q223.365 112.644 220.622 107.331 Q217.914 101.984 212.463 101.984 M212.463 96.4288 Q221.178 96.4288 225.761 103.338 Q230.379 110.213 230.379 123.338 Q230.379 136.429 225.761 143.338 Q221.178 150.213 212.463 150.213 Q203.748 150.213 199.129 143.338 Q194.546 136.429 194.546 123.338 Q194.546 110.213 199.129 103.338 Q203.748 96.4288 212.463 96.4288 Z" fill="#000000" fill-rule="evenodd" fill-opacity="1" /><path clip-path="url(#clip270)" d="M284.962 111.012 L269.094 126.949 L284.962 142.817 L280.83 147.019 L264.893 131.081 L248.956 147.019 L244.858 142.817 L260.692 126.949 L244.858 111.012 L248.956 106.811 L264.893 122.748 L280.83 106.811 L284.962 111.012 Z" fill="#000000" fill-rule="evenodd" fill-opacity="1" /><path clip-path="url(#clip270)" d="M303.504 143.304 L314.962 143.304 L314.962 103.755 L302.497 106.255 L302.497 99.8663 L314.893 97.3663 L321.907 97.3663 L321.907 143.304 L333.365 143.304 L333.365 149.206 L303.504 149.206 L303.504 143.304 Z" fill="#000000" fill-rule="evenodd" fill-opacity="1" /><path clip-path="url(#clip270)" d="M362.531 101.984 Q357.115 101.984 354.372 107.331 Q351.663 112.644 351.663 123.338 Q351.663 133.998 354.372 139.345 Q357.115 144.658 362.531 144.658 Q367.983 144.658 370.691 139.345 Q373.434 133.998 373.434 123.338 Q373.434 112.644 370.691 107.331 Q367.983 101.984 362.531 101.984 M362.531 96.4288 Q371.247 96.4288 375.83 103.338 Q380.448 110.213 380.448 123.338 Q380.448 136.429 375.83 143.338 Q371.247 150.213 362.531 150.213 Q353.816 150.213 349.198 143.338 Q344.615 136.429 344.615 123.338 Q344.615 110.213 349.198 103.338 Q353.816 96.4288 362.531 96.4288 Z" fill="#000000" fill-rule="evenodd" fill-opacity="1" /><path clip-path="url(#clip270)" d="M395.485 84.7596 Q391.648 84.7596 389.391 87.3833 Q387.162 90.007 387.162 94.5773 Q387.162 99.1194 389.391 101.771 Q391.648 104.395 395.485 104.395 Q399.322 104.395 401.55 101.771 Q403.807 99.1194 403.807 94.5773 Q403.807 90.007 401.55 87.3833 Q399.322 84.7596 395.485 84.7596 M406.798 66.9017 L406.798 72.0926 Q404.654 71.077 402.453 70.541 Q400.281 70.0049 398.137 70.0049 Q392.494 70.0049 389.504 73.8135 Q386.542 77.6221 386.119 85.3239 Q387.783 82.8695 390.294 81.5717 Q392.805 80.2458 395.823 80.2458 Q402.171 80.2458 405.838 84.1108 Q409.534 87.9476 409.534 94.5773 Q409.534 101.066 405.697 104.987 Q401.861 108.909 395.485 108.909 Q388.178 108.909 384.313 103.323 Q380.448 97.7088 380.448 87.073 Q380.448 77.0861 385.188 71.1616 Q389.927 65.209 397.911 65.209 Q400.055 65.209 402.227 65.6321 Q404.428 66.0553 406.798 66.9017 Z" fill="#000000" fill-rule="evenodd" fill-opacity="1" /><path clip-path="url(#clip270)" d="M12.5962 955.146 L12.5962 916.905 L19.4827 916.905 L19.4827 946.963 L37.3877 946.963 L37.3877 918.161 L44.2742 918.161 L44.2742 946.963 L66.1896 946.963 L66.1896 916.176 L73.0762 916.176 L73.0762 955.146 L12.5962 955.146 Z" fill="#000000" fill-rule="evenodd" fill-opacity="1" /><path clip-path="url(#clip270)" d="M45.692 865.337 L73.0762 865.337 L73.0762 872.791 L45.9351 872.791 Q39.4942 872.791 36.2939 875.302 Q33.0937 877.814 33.0937 882.837 Q33.0937 888.873 36.9421 892.357 Q40.7905 895.84 47.4339 895.84 L73.0762 895.84 L73.0762 903.335 L27.706 903.335 L27.706 895.84 L34.7546 895.84 Q30.6632 893.167 28.6377 889.562 Q26.6123 885.916 26.6123 881.176 Q26.6123 873.358 31.4734 869.348 Q36.2939 865.337 45.692 865.337 Z" fill="#000000" fill-rule="evenodd" fill-opacity="1" /><path clip-path="url(#clip270)" d="M48.5277 811.663 L52.1735 811.663 L52.1735 845.933 Q59.8702 845.447 63.9211 841.315 Q67.9315 837.143 67.9315 829.73 Q67.9315 825.436 66.8783 821.425 Q65.825 817.374 63.7186 813.405 L70.7671 813.405 Q72.4685 817.415 73.3597 821.628 Q74.2509 825.841 74.2509 830.175 Q74.2509 841.032 67.9315 847.392 Q61.6121 853.711 50.8367 853.711 Q39.6967 853.711 33.1748 847.716 Q26.6123 841.68 26.6123 831.472 Q26.6123 822.317 32.5266 817.01 Q38.4004 811.663 48.5277 811.663 M46.3402 819.116 Q40.2233 819.197 36.5775 822.56 Q32.9317 825.881 32.9317 831.391 Q32.9317 837.629 36.456 841.396 Q39.9803 845.123 46.3807 845.69 L46.3402 819.116 Z" fill="#000000" fill-rule="evenodd" fill-opacity="1" /><path clip-path="url(#clip270)" d="M34.6736 773.139 Q33.9444 774.394 33.6204 775.893 Q33.2558 777.351 33.2558 779.134 Q33.2558 785.453 37.3877 788.856 Q41.4791 792.218 49.1758 792.218 L73.0762 792.218 L73.0762 799.712 L27.706 799.712 L27.706 792.218 L34.7546 792.218 Q30.6227 789.869 28.6377 786.101 Q26.6123 782.334 26.6123 776.946 Q26.6123 776.177 26.7338 775.245 Q26.8148 774.313 27.0174 773.179 L34.6736 773.139 Z" fill="#000000" fill-rule="evenodd" fill-opacity="1" /><path clip-path="url(#clip270)" d="M49.8645 736.923 Q41.7627 736.923 37.3067 740.286 Q32.8507 743.607 32.8507 749.643 Q32.8507 755.639 37.3067 759.001 Q41.7627 762.323 49.8645 762.323 Q57.9258 762.323 62.3818 759.001 Q66.8378 755.639 66.8378 749.643 Q66.8378 743.607 62.3818 740.286 Q57.9258 736.923 49.8645 736.923 M67.4454 729.47 Q79.031 729.47 84.6617 734.614 Q90.333 739.759 90.333 750.372 Q90.333 754.302 89.7254 757.786 Q89.1582 761.269 87.943 764.551 L80.6919 764.551 Q82.4743 761.269 83.3249 758.069 Q84.1756 754.869 84.1756 751.547 Q84.1756 744.215 80.3273 740.569 Q76.5194 736.923 68.7822 736.923 L65.0959 736.923 Q69.1063 739.232 71.0912 742.838 Q73.0762 746.443 73.0762 751.466 Q73.0762 759.811 66.7162 764.915 Q60.3563 770.019 49.8645 770.019 Q39.3321 770.019 32.9722 764.915 Q26.6123 759.811 26.6123 751.466 Q26.6123 746.443 28.5972 742.838 Q30.5822 739.232 34.5926 736.923 L27.706 736.923 L27.706 729.47 L67.4454 729.47 Z" fill="#000000" fill-rule="evenodd" fill-opacity="1" /><path clip-path="url(#clip270)" d="M77.2891 695.24 Q85.3909 698.399 87.862 701.397 Q90.333 704.395 90.333 709.418 L90.333 715.373 L84.0946 715.373 L84.0946 710.998 Q84.0946 707.919 82.6363 706.218 Q81.178 704.516 75.7498 702.45 L72.347 701.113 L27.706 719.464 L27.706 711.565 L63.192 697.387 L27.706 683.208 L27.706 675.309 L77.2891 695.24 Z" fill="#000000" fill-rule="evenodd" fill-opacity="1" /><path clip-path="url(#clip270)" d="M12.5962 625.402 L12.5962 618.516 L80.7729 639.58 L80.7729 646.467 L12.5962 625.402 Z" fill="#000000" fill-rule="evenodd" fill-opacity="1" /><path clip-path="url(#clip270)" d="M48.5277 545.518 L52.1735 545.518 L52.1735 579.789 Q59.8702 579.303 63.9211 575.171 Q67.9315 570.998 67.9315 563.585 Q67.9315 559.291 66.8783 555.281 Q65.825 551.23 63.7186 547.26 L70.7671 547.26 Q72.4685 551.271 73.3597 555.483 Q74.2509 559.696 74.2509 564.031 Q74.2509 574.887 67.9315 581.247 Q61.6121 587.567 50.8367 587.567 Q39.6967 587.567 33.1748 581.571 Q26.6123 575.535 26.6123 565.327 Q26.6123 556.172 32.5266 550.865 Q38.4004 545.518 48.5277 545.518 M46.3402 552.972 Q40.2233 553.053 36.5775 556.415 Q32.9317 559.737 32.9317 565.246 Q32.9317 571.485 36.456 575.252 Q39.9803 578.979 46.3807 579.546 L46.3402 552.972 Z" fill="#000000" fill-rule="evenodd" fill-opacity="1" /><path clip-path="url(#clip270)" d="M73.0762 517.364 L12.5962 540.455 L12.5962 531.907 L63.516 512.746 L12.5962 493.545 L12.5962 485.038 L73.0762 508.088 L73.0762 517.364 Z" fill="#000000" fill-rule="evenodd" fill-opacity="1" /><polyline clip-path="url(#clip272)" style="stroke:#009af9; stroke-linecap:butt; stroke-linejoin:round; stroke-width:6; stroke-opacity:1; fill:none" points="
  445.534,1354.85 454.203,1353.29 462.873,1351.75 471.542,1350.19 480.211,1348.62 488.88,1347.09 497.549,1345.56 506.219,1344.01 514.888,1342.45 523.557,1340.91 
  532.226,1339.42 540.895,1337.95 549.564,1336.47 558.234,1334.97 566.903,1333.53 575.572,1332.14 584.241,1330.74 592.91,1329.31 601.58,1327.84 610.249,1326.33 
  618.918,1324.85 627.587,1323.46 636.256,1322.13 644.926,1320.94 653.595,1319.63 662.264,1318.3 670.933,1317 679.602,1315.66 688.271,1314.29 696.941,1312.89 
  705.61,1311.8 714.279,1310.68 722.948,1309.53 731.617,1308.33 740.287,1307.1 748.956,1305.82 757.625,1304.51 766.294,1303.11 774.963,1301.66 783.633,1300.16 
  792.302,1298.6 800.971,1296.97 809.64,1295.29 818.309,1293.54 826.979,1291.72 835.648,1289.82 844.317,1287.86 852.986,1285.83 861.655,1283.7 870.324,1281.47 
  878.994,1279.17 887.663,1276.77 896.332,1274.26 905.001,1271.65 913.67,1268.92 922.34,1266.05 931.009,1263.09 939.678,1259.93 948.347,1256.67 957.016,1253.22 
  965.686,1249.6 974.355,1245.81 983.024,1241.75 991.693,1237.53 1000.36,1233 1009.03,1228.16 1017.7,1223.01 1026.37,1217.47 1035.04,1211.51 1043.71,1205.03 
  1052.38,1197.99 1061.05,1190.28 1069.72,1181.78 1078.39,1172.35 1087.05,1161.8 1095.72,1149.93 1104.39,1136.51 1113.06,1121.16 1121.73,1103.48 1130.4,1083.04 
  1139.07,1059.21 1147.74,1031.3 1156.41,998.558 1165.08,959.921 1173.75,914.45 1182.42,861.496 1191.08,801.32 1199.75,735.809 1208.42,706.744 1217.09,705.381 
  1225.76,703.946 1234.43,702.45 1243.1,700.885 1251.77,699.241 1260.44,697.54 1269.11,695.74 1277.78,693.855 1286.45,691.907 1295.11,689.812 1303.78,687.636 
  1312.45,685.335 1321.12,682.894 1329.79,680.338 1338.46,677.595 1347.13,674.664 1355.8,671.539 1364.47,668.183 1373.14,664.563 1381.81,660.615 1390.48,656.311 
  1399.15,651.587 1407.81,646.375 1416.48,640.569 1425.15,634.087 1433.82,626.752 1442.49,618.455 1451.16,608.944 1459.83,598.012 1468.5,585.35 1477.17,570.582 
  1485.84,553.233 1494.51,532.798 1503.18,508.683 1511.84,480.145 1520.51,446.596 1529.18,407.873 1537.85,364.728 1546.52,326.845 1555.19,326.587 1563.86,326.326 
  1572.53,326.059 1581.2,325.785 1589.87,325.501 1598.54,325.204 1607.21,324.898 1615.87,324.585 1624.54,324.262 1633.21,323.932 1641.88,323.59 1650.55,323.227 
  1659.22,322.853 1667.89,322.466 1676.56,322.067 1685.23,321.656 1693.9,321.234 1702.57,320.788 1711.24,320.324 1719.91,319.843 1728.57,319.345 1737.24,318.817 
  1745.91,318.27 1754.58,317.704 1763.25,317.115 1771.92,316.493 1780.59,315.848 1789.26,315.18 1797.93,314.48 1806.6,313.742 1815.27,312.978 1823.94,312.187 
  1832.6,311.347 1841.27,310.473 1849.94,309.565 1858.61,308.598 1867.28,307.596 1875.95,306.541 1884.62,305.428 1893.29,304.274 1901.96,303.032 1910.63,301.739 
  1919.3,300.367 1927.97,298.909 1936.63,297.375 1945.3,295.731 1953.97,293.962 1962.64,292.066 1971.31,290.023 1979.98,287.813 1988.65,285.397 1997.32,282.75 
  2005.99,279.837 2014.66,276.584 2023.33,272.967 2032,268.884 2040.67,264.258 2049.33,259.008 2058,252.945 2066.67,245.934 2075.34,237.791 2084.01,228.236 
  2092.68,216.967 2101.35,203.709 2110.02,187.993 2118.69,169.421 2127.36,147.732 2136.03,123.037 2144.7,96.1412 2153.36,85.3303 2162.03,85.3298 2170.7,85.3298 
  
  "/>
</svg>
